G04 (created by PCBNEW-RS274X (2012-apr-16-27)-stable) date dim. 02 juin 2013 02:33:15 CST*
G01*
G70*
G90*
%MOIN*%
G04 Gerber Fmt 3.4, Leading zero omitted, Abs format*
%FSLAX34Y34*%
G04 APERTURE LIST*
%ADD10C,0.006000*%
%ADD11C,0.015000*%
%ADD12C,0.005000*%
%ADD13C,0.010000*%
%ADD14C,0.007500*%
G04 APERTURE END LIST*
G54D10*
G54D11*
X48400Y-34400D02*
X48400Y-32900D01*
X44000Y-32900D02*
X44000Y-34400D01*
X44000Y-32900D02*
X48400Y-32900D01*
X49600Y-34400D02*
X49600Y-40200D01*
X42600Y-40200D02*
X42600Y-34400D01*
X44000Y-34400D02*
X42600Y-34400D01*
X49600Y-34400D02*
X48400Y-34400D01*
X49600Y-40200D02*
X42600Y-40200D01*
G54D12*
X49150Y-34550D02*
X49150Y-40100D01*
X43250Y-40100D02*
X43250Y-34550D01*
X49150Y-34550D02*
X43250Y-34550D01*
X49150Y-40100D02*
X43250Y-40100D01*
G54D13*
X48200Y-34500D02*
X44200Y-34500D01*
X48200Y-33500D02*
X44200Y-33500D01*
X44200Y-33500D02*
X44200Y-34500D01*
X48200Y-34500D02*
X48200Y-33500D01*
X43498Y-38702D02*
X43498Y-39107D01*
X43522Y-39155D01*
X43546Y-39179D01*
X43593Y-39202D01*
X43689Y-39202D01*
X43736Y-39179D01*
X43760Y-39155D01*
X43784Y-39107D01*
X43784Y-38702D01*
X43998Y-39179D02*
X44070Y-39202D01*
X44189Y-39202D01*
X44236Y-39179D01*
X44260Y-39155D01*
X44284Y-39107D01*
X44284Y-39060D01*
X44260Y-39012D01*
X44236Y-38988D01*
X44189Y-38964D01*
X44093Y-38940D01*
X44046Y-38917D01*
X44022Y-38893D01*
X43998Y-38845D01*
X43998Y-38798D01*
X44022Y-38750D01*
X44046Y-38726D01*
X44093Y-38702D01*
X44213Y-38702D01*
X44284Y-38726D01*
X44665Y-38940D02*
X44736Y-38964D01*
X44760Y-38988D01*
X44784Y-39036D01*
X44784Y-39107D01*
X44760Y-39155D01*
X44736Y-39179D01*
X44689Y-39202D01*
X44498Y-39202D01*
X44498Y-38702D01*
X44665Y-38702D01*
X44712Y-38726D01*
X44736Y-38750D01*
X44760Y-38798D01*
X44760Y-38845D01*
X44736Y-38893D01*
X44712Y-38917D01*
X44665Y-38940D01*
X44498Y-38940D01*
X45665Y-39155D02*
X45641Y-39179D01*
X45570Y-39202D01*
X45522Y-39202D01*
X45450Y-39179D01*
X45403Y-39131D01*
X45379Y-39083D01*
X45355Y-38988D01*
X45355Y-38917D01*
X45379Y-38821D01*
X45403Y-38774D01*
X45450Y-38726D01*
X45522Y-38702D01*
X45570Y-38702D01*
X45641Y-38726D01*
X45665Y-38750D01*
X45950Y-39202D02*
X45903Y-39179D01*
X45879Y-39155D01*
X45855Y-39107D01*
X45855Y-38964D01*
X45879Y-38917D01*
X45903Y-38893D01*
X45950Y-38869D01*
X46022Y-38869D01*
X46070Y-38893D01*
X46093Y-38917D01*
X46117Y-38964D01*
X46117Y-39107D01*
X46093Y-39155D01*
X46070Y-39179D01*
X46022Y-39202D01*
X45950Y-39202D01*
X46331Y-38869D02*
X46331Y-39202D01*
X46331Y-38917D02*
X46355Y-38893D01*
X46402Y-38869D01*
X46474Y-38869D01*
X46522Y-38893D01*
X46545Y-38940D01*
X46545Y-39202D01*
X46783Y-38869D02*
X46783Y-39202D01*
X46783Y-38917D02*
X46807Y-38893D01*
X46854Y-38869D01*
X46926Y-38869D01*
X46974Y-38893D01*
X46997Y-38940D01*
X46997Y-39202D01*
X47426Y-39179D02*
X47378Y-39202D01*
X47283Y-39202D01*
X47235Y-39179D01*
X47211Y-39131D01*
X47211Y-38940D01*
X47235Y-38893D01*
X47283Y-38869D01*
X47378Y-38869D01*
X47426Y-38893D01*
X47449Y-38940D01*
X47449Y-38988D01*
X47211Y-39036D01*
X47878Y-39179D02*
X47831Y-39202D01*
X47735Y-39202D01*
X47688Y-39179D01*
X47664Y-39155D01*
X47640Y-39107D01*
X47640Y-38964D01*
X47664Y-38917D01*
X47688Y-38893D01*
X47735Y-38869D01*
X47831Y-38869D01*
X47878Y-38893D01*
X48022Y-38869D02*
X48212Y-38869D01*
X48093Y-38702D02*
X48093Y-39131D01*
X48117Y-39179D01*
X48164Y-39202D01*
X48212Y-39202D01*
X48450Y-39202D02*
X48403Y-39179D01*
X48379Y-39155D01*
X48355Y-39107D01*
X48355Y-38964D01*
X48379Y-38917D01*
X48403Y-38893D01*
X48450Y-38869D01*
X48522Y-38869D01*
X48570Y-38893D01*
X48593Y-38917D01*
X48617Y-38964D01*
X48617Y-39107D01*
X48593Y-39155D01*
X48570Y-39179D01*
X48522Y-39202D01*
X48450Y-39202D01*
X48831Y-39202D02*
X48831Y-38869D01*
X48831Y-38964D02*
X48855Y-38917D01*
X48879Y-38893D01*
X48926Y-38869D01*
X48974Y-38869D01*
X44605Y-39402D02*
X44605Y-39807D01*
X44629Y-39855D01*
X44653Y-39879D01*
X44700Y-39902D01*
X44796Y-39902D01*
X44843Y-39879D01*
X44867Y-39855D01*
X44891Y-39807D01*
X44891Y-39402D01*
X45105Y-39879D02*
X45177Y-39902D01*
X45296Y-39902D01*
X45343Y-39879D01*
X45367Y-39855D01*
X45391Y-39807D01*
X45391Y-39760D01*
X45367Y-39712D01*
X45343Y-39688D01*
X45296Y-39664D01*
X45200Y-39640D01*
X45153Y-39617D01*
X45129Y-39593D01*
X45105Y-39545D01*
X45105Y-39498D01*
X45129Y-39450D01*
X45153Y-39426D01*
X45200Y-39402D01*
X45320Y-39402D01*
X45391Y-39426D01*
X45772Y-39640D02*
X45843Y-39664D01*
X45867Y-39688D01*
X45891Y-39736D01*
X45891Y-39807D01*
X45867Y-39855D01*
X45843Y-39879D01*
X45796Y-39902D01*
X45605Y-39902D01*
X45605Y-39402D01*
X45772Y-39402D01*
X45819Y-39426D01*
X45843Y-39450D01*
X45867Y-39498D01*
X45867Y-39545D01*
X45843Y-39593D01*
X45819Y-39617D01*
X45772Y-39640D01*
X45605Y-39640D01*
X46486Y-39902D02*
X46486Y-39402D01*
X46677Y-39402D01*
X46724Y-39426D01*
X46748Y-39450D01*
X46772Y-39498D01*
X46772Y-39569D01*
X46748Y-39617D01*
X46724Y-39640D01*
X46677Y-39664D01*
X46486Y-39664D01*
X47057Y-39902D02*
X47010Y-39879D01*
X46986Y-39855D01*
X46962Y-39807D01*
X46962Y-39664D01*
X46986Y-39617D01*
X47010Y-39593D01*
X47057Y-39569D01*
X47129Y-39569D01*
X47177Y-39593D01*
X47200Y-39617D01*
X47224Y-39664D01*
X47224Y-39807D01*
X47200Y-39855D01*
X47177Y-39879D01*
X47129Y-39902D01*
X47057Y-39902D01*
X47438Y-39902D02*
X47438Y-39569D01*
X47438Y-39664D02*
X47462Y-39617D01*
X47486Y-39593D01*
X47533Y-39569D01*
X47581Y-39569D01*
X47677Y-39569D02*
X47867Y-39569D01*
X47748Y-39402D02*
X47748Y-39831D01*
X47772Y-39879D01*
X47819Y-39902D01*
X47867Y-39902D01*
G54D14*
X44465Y-33021D02*
X44465Y-33264D01*
X44480Y-33293D01*
X44494Y-33307D01*
X44523Y-33321D01*
X44580Y-33321D01*
X44608Y-33307D01*
X44623Y-33293D01*
X44637Y-33264D01*
X44637Y-33021D01*
X44765Y-33307D02*
X44808Y-33321D01*
X44879Y-33321D01*
X44908Y-33307D01*
X44922Y-33293D01*
X44937Y-33264D01*
X44937Y-33236D01*
X44922Y-33207D01*
X44908Y-33193D01*
X44879Y-33179D01*
X44822Y-33164D01*
X44794Y-33150D01*
X44779Y-33136D01*
X44765Y-33107D01*
X44765Y-33079D01*
X44779Y-33050D01*
X44794Y-33036D01*
X44822Y-33021D01*
X44894Y-33021D01*
X44937Y-33036D01*
X45165Y-33164D02*
X45208Y-33179D01*
X45223Y-33193D01*
X45237Y-33221D01*
X45237Y-33264D01*
X45223Y-33293D01*
X45208Y-33307D01*
X45180Y-33321D01*
X45065Y-33321D01*
X45065Y-33021D01*
X45165Y-33021D01*
X45194Y-33036D01*
X45208Y-33050D01*
X45223Y-33079D01*
X45223Y-33107D01*
X45208Y-33136D01*
X45194Y-33150D01*
X45165Y-33164D01*
X45065Y-33164D01*
X45766Y-33293D02*
X45752Y-33307D01*
X45709Y-33321D01*
X45680Y-33321D01*
X45637Y-33307D01*
X45609Y-33279D01*
X45594Y-33250D01*
X45580Y-33193D01*
X45580Y-33150D01*
X45594Y-33093D01*
X45609Y-33064D01*
X45637Y-33036D01*
X45680Y-33021D01*
X45709Y-33021D01*
X45752Y-33036D01*
X45766Y-33050D01*
X45937Y-33321D02*
X45909Y-33307D01*
X45894Y-33293D01*
X45880Y-33264D01*
X45880Y-33179D01*
X45894Y-33150D01*
X45909Y-33136D01*
X45937Y-33121D01*
X45980Y-33121D01*
X46009Y-33136D01*
X46023Y-33150D01*
X46037Y-33179D01*
X46037Y-33264D01*
X46023Y-33293D01*
X46009Y-33307D01*
X45980Y-33321D01*
X45937Y-33321D01*
X46165Y-33121D02*
X46165Y-33321D01*
X46165Y-33150D02*
X46180Y-33136D01*
X46208Y-33121D01*
X46251Y-33121D01*
X46280Y-33136D01*
X46294Y-33164D01*
X46294Y-33321D01*
X46436Y-33121D02*
X46436Y-33321D01*
X46436Y-33150D02*
X46451Y-33136D01*
X46479Y-33121D01*
X46522Y-33121D01*
X46551Y-33136D01*
X46565Y-33164D01*
X46565Y-33321D01*
X46822Y-33307D02*
X46793Y-33321D01*
X46736Y-33321D01*
X46707Y-33307D01*
X46693Y-33279D01*
X46693Y-33164D01*
X46707Y-33136D01*
X46736Y-33121D01*
X46793Y-33121D01*
X46822Y-33136D01*
X46836Y-33164D01*
X46836Y-33193D01*
X46693Y-33221D01*
X47093Y-33307D02*
X47064Y-33321D01*
X47007Y-33321D01*
X46979Y-33307D01*
X46964Y-33293D01*
X46950Y-33264D01*
X46950Y-33179D01*
X46964Y-33150D01*
X46979Y-33136D01*
X47007Y-33121D01*
X47064Y-33121D01*
X47093Y-33136D01*
X47179Y-33121D02*
X47293Y-33121D01*
X47221Y-33021D02*
X47221Y-33279D01*
X47236Y-33307D01*
X47264Y-33321D01*
X47293Y-33321D01*
X47392Y-33321D02*
X47392Y-33121D01*
X47392Y-33021D02*
X47378Y-33036D01*
X47392Y-33050D01*
X47407Y-33036D01*
X47392Y-33021D01*
X47392Y-33050D01*
X47578Y-33321D02*
X47550Y-33307D01*
X47535Y-33293D01*
X47521Y-33264D01*
X47521Y-33179D01*
X47535Y-33150D01*
X47550Y-33136D01*
X47578Y-33121D01*
X47621Y-33121D01*
X47650Y-33136D01*
X47664Y-33150D01*
X47678Y-33179D01*
X47678Y-33264D01*
X47664Y-33293D01*
X47650Y-33307D01*
X47621Y-33321D01*
X47578Y-33321D01*
X47806Y-33121D02*
X47806Y-33321D01*
X47806Y-33150D02*
X47821Y-33136D01*
X47849Y-33121D01*
X47892Y-33121D01*
X47921Y-33136D01*
X47935Y-33164D01*
X47935Y-33321D01*
M02*
