%FSLAX34Y34*%
G04 Gerber Fmt 3.4, Leading zero omitted, Abs format*
G04 (created by PCBNEW (2014-jan-25)-product) date dom 15 jun 2014 08:51:59 CST*
%MOIN*%
G01*
G70*
G90*
G04 APERTURE LIST*
%ADD10C,0.005906*%
%ADD11C,0.016000*%
%ADD12C,0.015000*%
%ADD13C,0.002600*%
%ADD14C,0.008000*%
%ADD15C,0.010000*%
%ADD16C,0.005000*%
%ADD17C,0.002000*%
%ADD18C,0.006000*%
%ADD19C,0.003000*%
%ADD20C,0.001969*%
%ADD21C,0.002362*%
%ADD22C,0.003500*%
%ADD23C,0.003150*%
%ADD24C,0.001378*%
%ADD25C,0.001000*%
%ADD26C,0.000315*%
%ADD27C,0.001250*%
%ADD28C,0.001575*%
%ADD29C,0.004700*%
%ADD30C,0.001600*%
%ADD31C,0.004000*%
G04 APERTURE END LIST*
G54D10*
G54D11*
X87500Y-34000D02*
X95500Y-34000D01*
G54D12*
X95500Y-34000D02*
X95500Y-33000D01*
X87500Y-33500D02*
X87500Y-34000D01*
X86500Y-33500D02*
X87500Y-33500D01*
X86500Y-25500D02*
X86500Y-33500D01*
X87500Y-25500D02*
X86500Y-25500D01*
X87500Y-25000D02*
X87500Y-25500D01*
X95500Y-25000D02*
X87500Y-25000D01*
X96500Y-26000D02*
X96500Y-33000D01*
X95500Y-26000D02*
X96500Y-26000D01*
X95500Y-25000D02*
X95500Y-26000D01*
X96500Y-33000D02*
X95500Y-33000D01*
G54D13*
X78795Y-23890D02*
X78795Y-24087D01*
X78795Y-24087D02*
X78992Y-24087D01*
X78992Y-23890D02*
X78992Y-24087D01*
X78795Y-23890D02*
X78992Y-23890D01*
X78008Y-23890D02*
X78008Y-24087D01*
X78008Y-24087D02*
X78205Y-24087D01*
X78205Y-23890D02*
X78205Y-24087D01*
X78008Y-23890D02*
X78205Y-23890D01*
X78795Y-24678D02*
X78795Y-24875D01*
X78795Y-24875D02*
X78992Y-24875D01*
X78992Y-24678D02*
X78992Y-24875D01*
X78795Y-24678D02*
X78992Y-24678D01*
X78008Y-24678D02*
X78008Y-24875D01*
X78008Y-24875D02*
X78205Y-24875D01*
X78205Y-24678D02*
X78205Y-24875D01*
X78008Y-24678D02*
X78205Y-24678D01*
X78795Y-25465D02*
X78795Y-25662D01*
X78795Y-25662D02*
X78992Y-25662D01*
X78992Y-25465D02*
X78992Y-25662D01*
X78795Y-25465D02*
X78992Y-25465D01*
X78008Y-25465D02*
X78008Y-25662D01*
X78008Y-25662D02*
X78205Y-25662D01*
X78205Y-25465D02*
X78205Y-25662D01*
X78008Y-25465D02*
X78205Y-25465D01*
X78795Y-26252D02*
X78795Y-26449D01*
X78795Y-26449D02*
X78992Y-26449D01*
X78992Y-26252D02*
X78992Y-26449D01*
X78795Y-26252D02*
X78992Y-26252D01*
X78008Y-26252D02*
X78008Y-26449D01*
X78008Y-26449D02*
X78205Y-26449D01*
X78205Y-26252D02*
X78205Y-26449D01*
X78008Y-26252D02*
X78205Y-26252D01*
X78795Y-27040D02*
X78795Y-27237D01*
X78795Y-27237D02*
X78992Y-27237D01*
X78992Y-27040D02*
X78992Y-27237D01*
X78795Y-27040D02*
X78992Y-27040D01*
X78008Y-27040D02*
X78008Y-27237D01*
X78008Y-27237D02*
X78205Y-27237D01*
X78205Y-27040D02*
X78205Y-27237D01*
X78008Y-27040D02*
X78205Y-27040D01*
X78795Y-27827D02*
X78795Y-28024D01*
X78795Y-28024D02*
X78992Y-28024D01*
X78992Y-27827D02*
X78992Y-28024D01*
X78795Y-27827D02*
X78992Y-27827D01*
X78008Y-27827D02*
X78008Y-28024D01*
X78008Y-28024D02*
X78205Y-28024D01*
X78205Y-27827D02*
X78205Y-28024D01*
X78008Y-27827D02*
X78205Y-27827D01*
X78795Y-28615D02*
X78795Y-28812D01*
X78795Y-28812D02*
X78992Y-28812D01*
X78992Y-28615D02*
X78992Y-28812D01*
X78795Y-28615D02*
X78992Y-28615D01*
X78008Y-28615D02*
X78008Y-28812D01*
X78008Y-28812D02*
X78205Y-28812D01*
X78205Y-28615D02*
X78205Y-28812D01*
X78008Y-28615D02*
X78205Y-28615D01*
X78795Y-29402D02*
X78795Y-29598D01*
X78795Y-29598D02*
X78992Y-29598D01*
X78992Y-29402D02*
X78992Y-29598D01*
X78795Y-29402D02*
X78992Y-29402D01*
X78008Y-29402D02*
X78008Y-29598D01*
X78008Y-29598D02*
X78205Y-29598D01*
X78205Y-29402D02*
X78205Y-29598D01*
X78008Y-29402D02*
X78205Y-29402D01*
X78795Y-30188D02*
X78795Y-30385D01*
X78795Y-30385D02*
X78992Y-30385D01*
X78992Y-30188D02*
X78992Y-30385D01*
X78795Y-30188D02*
X78992Y-30188D01*
X78008Y-30188D02*
X78008Y-30385D01*
X78008Y-30385D02*
X78205Y-30385D01*
X78205Y-30188D02*
X78205Y-30385D01*
X78008Y-30188D02*
X78205Y-30188D01*
X78795Y-30976D02*
X78795Y-31173D01*
X78795Y-31173D02*
X78992Y-31173D01*
X78992Y-30976D02*
X78992Y-31173D01*
X78795Y-30976D02*
X78992Y-30976D01*
X78008Y-30976D02*
X78008Y-31173D01*
X78008Y-31173D02*
X78205Y-31173D01*
X78205Y-30976D02*
X78205Y-31173D01*
X78008Y-30976D02*
X78205Y-30976D01*
X78795Y-31763D02*
X78795Y-31960D01*
X78795Y-31960D02*
X78992Y-31960D01*
X78992Y-31763D02*
X78992Y-31960D01*
X78795Y-31763D02*
X78992Y-31763D01*
X78008Y-31763D02*
X78008Y-31960D01*
X78008Y-31960D02*
X78205Y-31960D01*
X78205Y-31763D02*
X78205Y-31960D01*
X78008Y-31763D02*
X78205Y-31763D01*
X78795Y-32551D02*
X78795Y-32748D01*
X78795Y-32748D02*
X78992Y-32748D01*
X78992Y-32551D02*
X78992Y-32748D01*
X78795Y-32551D02*
X78992Y-32551D01*
X78008Y-32551D02*
X78008Y-32748D01*
X78008Y-32748D02*
X78205Y-32748D01*
X78205Y-32551D02*
X78205Y-32748D01*
X78008Y-32551D02*
X78205Y-32551D01*
X78795Y-33338D02*
X78795Y-33535D01*
X78795Y-33535D02*
X78992Y-33535D01*
X78992Y-33338D02*
X78992Y-33535D01*
X78795Y-33338D02*
X78992Y-33338D01*
X78008Y-33338D02*
X78008Y-33535D01*
X78008Y-33535D02*
X78205Y-33535D01*
X78205Y-33338D02*
X78205Y-33535D01*
X78008Y-33338D02*
X78205Y-33338D01*
X78795Y-34125D02*
X78795Y-34322D01*
X78795Y-34322D02*
X78992Y-34322D01*
X78992Y-34125D02*
X78992Y-34322D01*
X78795Y-34125D02*
X78992Y-34125D01*
X78008Y-34125D02*
X78008Y-34322D01*
X78008Y-34322D02*
X78205Y-34322D01*
X78205Y-34125D02*
X78205Y-34322D01*
X78008Y-34125D02*
X78205Y-34125D01*
X78795Y-34913D02*
X78795Y-35110D01*
X78795Y-35110D02*
X78992Y-35110D01*
X78992Y-34913D02*
X78992Y-35110D01*
X78795Y-34913D02*
X78992Y-34913D01*
X78008Y-34913D02*
X78008Y-35110D01*
X78008Y-35110D02*
X78205Y-35110D01*
X78205Y-34913D02*
X78205Y-35110D01*
X78008Y-34913D02*
X78205Y-34913D01*
G54D14*
X79385Y-35503D02*
X77615Y-35503D01*
X77615Y-35503D02*
X77615Y-23497D01*
X77615Y-23497D02*
X79385Y-23497D01*
X79385Y-23497D02*
X79385Y-35503D01*
G54D13*
X84000Y-23500D02*
X84200Y-23500D01*
X84200Y-23500D02*
X84200Y-23300D01*
X84000Y-23300D02*
X84200Y-23300D01*
X84000Y-23500D02*
X84000Y-23300D01*
X83000Y-23500D02*
X83200Y-23500D01*
X83200Y-23500D02*
X83200Y-23300D01*
X83000Y-23300D02*
X83200Y-23300D01*
X83000Y-23500D02*
X83000Y-23300D01*
X82000Y-23500D02*
X82200Y-23500D01*
X82200Y-23500D02*
X82200Y-23300D01*
X82000Y-23300D02*
X82200Y-23300D01*
X82000Y-23500D02*
X82000Y-23300D01*
X81000Y-23500D02*
X81200Y-23500D01*
X81200Y-23500D02*
X81200Y-23300D01*
X81000Y-23300D02*
X81200Y-23300D01*
X81000Y-23500D02*
X81000Y-23300D01*
X80000Y-23500D02*
X80200Y-23500D01*
X80200Y-23500D02*
X80200Y-23300D01*
X80000Y-23300D02*
X80200Y-23300D01*
X80000Y-23500D02*
X80000Y-23300D01*
X85000Y-23500D02*
X85200Y-23500D01*
X85200Y-23500D02*
X85200Y-23300D01*
X85000Y-23300D02*
X85200Y-23300D01*
X85000Y-23500D02*
X85000Y-23300D01*
G54D15*
X79600Y-22900D02*
X79600Y-23900D01*
X85600Y-22900D02*
X85600Y-23900D01*
X85600Y-22900D02*
X80600Y-22900D01*
X80600Y-22900D02*
X79600Y-22900D01*
X85600Y-23900D02*
X79600Y-23900D01*
X80600Y-22900D02*
X80600Y-23900D01*
G54D13*
X87400Y-23300D02*
X87200Y-23300D01*
X87200Y-23300D02*
X87200Y-23500D01*
X87400Y-23500D02*
X87200Y-23500D01*
X87400Y-23300D02*
X87400Y-23500D01*
X88400Y-23300D02*
X88200Y-23300D01*
X88200Y-23300D02*
X88200Y-23500D01*
X88400Y-23500D02*
X88200Y-23500D01*
X88400Y-23300D02*
X88400Y-23500D01*
X89400Y-23300D02*
X89200Y-23300D01*
X89200Y-23300D02*
X89200Y-23500D01*
X89400Y-23500D02*
X89200Y-23500D01*
X89400Y-23300D02*
X89400Y-23500D01*
X90400Y-23300D02*
X90200Y-23300D01*
X90200Y-23300D02*
X90200Y-23500D01*
X90400Y-23500D02*
X90200Y-23500D01*
X90400Y-23300D02*
X90400Y-23500D01*
X91400Y-23300D02*
X91200Y-23300D01*
X91200Y-23300D02*
X91200Y-23500D01*
X91400Y-23500D02*
X91200Y-23500D01*
X91400Y-23300D02*
X91400Y-23500D01*
X86400Y-23300D02*
X86200Y-23300D01*
X86200Y-23300D02*
X86200Y-23500D01*
X86400Y-23500D02*
X86200Y-23500D01*
X86400Y-23300D02*
X86400Y-23500D01*
G54D15*
X91800Y-23900D02*
X91800Y-22900D01*
X85800Y-23900D02*
X85800Y-22900D01*
X85800Y-23900D02*
X90800Y-23900D01*
X90800Y-23900D02*
X91800Y-23900D01*
X85800Y-22900D02*
X91800Y-22900D01*
X90800Y-23900D02*
X90800Y-22900D01*
G54D13*
X88500Y-35500D02*
X88300Y-35500D01*
X88300Y-35500D02*
X88300Y-35700D01*
X88500Y-35700D02*
X88300Y-35700D01*
X88500Y-35500D02*
X88500Y-35700D01*
X89500Y-35500D02*
X89300Y-35500D01*
X89300Y-35500D02*
X89300Y-35700D01*
X89500Y-35700D02*
X89300Y-35700D01*
X89500Y-35500D02*
X89500Y-35700D01*
X90500Y-35500D02*
X90300Y-35500D01*
X90300Y-35500D02*
X90300Y-35700D01*
X90500Y-35700D02*
X90300Y-35700D01*
X90500Y-35500D02*
X90500Y-35700D01*
X87500Y-35500D02*
X87300Y-35500D01*
X87300Y-35500D02*
X87300Y-35700D01*
X87500Y-35700D02*
X87300Y-35700D01*
X87500Y-35500D02*
X87500Y-35700D01*
G54D15*
X90900Y-36100D02*
X90900Y-35100D01*
X86900Y-35100D02*
X90900Y-35100D01*
X86900Y-36100D02*
X86900Y-35100D01*
X90900Y-36100D02*
X89900Y-36100D01*
X89900Y-36100D02*
X86900Y-36100D01*
X89900Y-36100D02*
X89900Y-35100D01*
G54D13*
X84600Y-35700D02*
X84800Y-35700D01*
X84800Y-35700D02*
X84800Y-35500D01*
X84600Y-35500D02*
X84800Y-35500D01*
X84600Y-35700D02*
X84600Y-35500D01*
X83600Y-35700D02*
X83800Y-35700D01*
X83800Y-35700D02*
X83800Y-35500D01*
X83600Y-35500D02*
X83800Y-35500D01*
X83600Y-35700D02*
X83600Y-35500D01*
X82600Y-35700D02*
X82800Y-35700D01*
X82800Y-35700D02*
X82800Y-35500D01*
X82600Y-35500D02*
X82800Y-35500D01*
X82600Y-35700D02*
X82600Y-35500D01*
X85600Y-35700D02*
X85800Y-35700D01*
X85800Y-35700D02*
X85800Y-35500D01*
X85600Y-35500D02*
X85800Y-35500D01*
X85600Y-35700D02*
X85600Y-35500D01*
G54D15*
X82200Y-35100D02*
X82200Y-36100D01*
X86200Y-36100D02*
X82200Y-36100D01*
X86200Y-35100D02*
X86200Y-36100D01*
X82200Y-35100D02*
X83200Y-35100D01*
X83200Y-35100D02*
X86200Y-35100D01*
X83200Y-35100D02*
X83200Y-36100D01*
G54D13*
X93200Y-35500D02*
X93000Y-35500D01*
X93000Y-35500D02*
X93000Y-35700D01*
X93200Y-35700D02*
X93000Y-35700D01*
X93200Y-35500D02*
X93200Y-35700D01*
X94200Y-35500D02*
X94000Y-35500D01*
X94000Y-35500D02*
X94000Y-35700D01*
X94200Y-35700D02*
X94000Y-35700D01*
X94200Y-35500D02*
X94200Y-35700D01*
X95200Y-35500D02*
X95000Y-35500D01*
X95000Y-35500D02*
X95000Y-35700D01*
X95200Y-35700D02*
X95000Y-35700D01*
X95200Y-35500D02*
X95200Y-35700D01*
X92200Y-35500D02*
X92000Y-35500D01*
X92000Y-35500D02*
X92000Y-35700D01*
X92200Y-35700D02*
X92000Y-35700D01*
X92200Y-35500D02*
X92200Y-35700D01*
G54D15*
X95600Y-36100D02*
X95600Y-35100D01*
X91600Y-35100D02*
X95600Y-35100D01*
X91600Y-36100D02*
X91600Y-35100D01*
X95600Y-36100D02*
X94600Y-36100D01*
X94600Y-36100D02*
X91600Y-36100D01*
X94600Y-36100D02*
X94600Y-35100D01*
G54D16*
X95864Y-22919D02*
X95864Y-22723D01*
X96336Y-22723D02*
X96336Y-22919D01*
X95864Y-25281D02*
X95864Y-25477D01*
X96336Y-25477D02*
X96336Y-25281D01*
X95392Y-22959D02*
X95392Y-25241D01*
X96769Y-25241D02*
X96769Y-22959D01*
X95451Y-22919D02*
X95864Y-22919D01*
X95864Y-22919D02*
X96336Y-22919D01*
X96336Y-22919D02*
X96729Y-22919D01*
X96729Y-22919D02*
X96749Y-22919D01*
X95451Y-25281D02*
X95864Y-25281D01*
X95864Y-25281D02*
X96336Y-25281D01*
X96336Y-25281D02*
X96729Y-25281D01*
X96729Y-25281D02*
X96749Y-25281D01*
X95786Y-23313D02*
X95786Y-24887D01*
X95786Y-23313D02*
X96375Y-23313D01*
X96375Y-23313D02*
X96375Y-24887D01*
X95786Y-24887D02*
X96375Y-24887D01*
X95864Y-22723D02*
X96336Y-22723D01*
X95864Y-25477D02*
X96336Y-25477D01*
X95431Y-22920D02*
G75*
G03X95392Y-22959I0J-39D01*
G74*
G01*
X95391Y-25241D02*
G75*
G03X95431Y-25281I40J0D01*
G74*
G01*
X96729Y-25281D02*
G75*
G03X96769Y-25241I0J40D01*
G74*
G01*
X96769Y-22959D02*
G75*
G03X96729Y-22919I-40J0D01*
G74*
G01*
G54D13*
X96100Y-27600D02*
X96100Y-27400D01*
X96100Y-27400D02*
X95900Y-27400D01*
X95900Y-27600D02*
X95900Y-27400D01*
X96100Y-27600D02*
X95900Y-27600D01*
X96100Y-28600D02*
X96100Y-28400D01*
X96100Y-28400D02*
X95900Y-28400D01*
X95900Y-28600D02*
X95900Y-28400D01*
X96100Y-28600D02*
X95900Y-28600D01*
X96100Y-29600D02*
X96100Y-29400D01*
X96100Y-29400D02*
X95900Y-29400D01*
X95900Y-29600D02*
X95900Y-29400D01*
X96100Y-29600D02*
X95900Y-29600D01*
X96100Y-30600D02*
X96100Y-30400D01*
X96100Y-30400D02*
X95900Y-30400D01*
X95900Y-30600D02*
X95900Y-30400D01*
X96100Y-30600D02*
X95900Y-30600D01*
X96100Y-31600D02*
X96100Y-31400D01*
X96100Y-31400D02*
X95900Y-31400D01*
X95900Y-31600D02*
X95900Y-31400D01*
X96100Y-31600D02*
X95900Y-31600D01*
X96100Y-32600D02*
X96100Y-32400D01*
X96100Y-32400D02*
X95900Y-32400D01*
X95900Y-32600D02*
X95900Y-32400D01*
X96100Y-32600D02*
X95900Y-32600D01*
X96100Y-26600D02*
X96100Y-26400D01*
X96100Y-26400D02*
X95900Y-26400D01*
X95900Y-26600D02*
X95900Y-26400D01*
X96100Y-26600D02*
X95900Y-26600D01*
G54D15*
X96500Y-26000D02*
X96500Y-33000D01*
X95500Y-33000D02*
X96500Y-33000D01*
X95500Y-26000D02*
X96500Y-26000D01*
X95500Y-26000D02*
X95500Y-32000D01*
X95500Y-32000D02*
X95500Y-33000D01*
X95500Y-32000D02*
X96500Y-32000D01*
G54D13*
X97500Y-25100D02*
X97500Y-24900D01*
X97500Y-24900D02*
X97300Y-24900D01*
X97300Y-25100D02*
X97300Y-24900D01*
X97500Y-25100D02*
X97300Y-25100D01*
X97500Y-26100D02*
X97500Y-25900D01*
X97500Y-25900D02*
X97300Y-25900D01*
X97300Y-26100D02*
X97300Y-25900D01*
X97500Y-26100D02*
X97300Y-26100D01*
X97500Y-27100D02*
X97500Y-26900D01*
X97500Y-26900D02*
X97300Y-26900D01*
X97300Y-27100D02*
X97300Y-26900D01*
X97500Y-27100D02*
X97300Y-27100D01*
X97500Y-28100D02*
X97500Y-27900D01*
X97500Y-27900D02*
X97300Y-27900D01*
X97300Y-28100D02*
X97300Y-27900D01*
X97500Y-28100D02*
X97300Y-28100D01*
X97500Y-29100D02*
X97500Y-28900D01*
X97500Y-28900D02*
X97300Y-28900D01*
X97300Y-29100D02*
X97300Y-28900D01*
X97500Y-29100D02*
X97300Y-29100D01*
X97500Y-30100D02*
X97500Y-29900D01*
X97500Y-29900D02*
X97300Y-29900D01*
X97300Y-30100D02*
X97300Y-29900D01*
X97500Y-30100D02*
X97300Y-30100D01*
X97500Y-31100D02*
X97500Y-30900D01*
X97500Y-30900D02*
X97300Y-30900D01*
X97300Y-31100D02*
X97300Y-30900D01*
X97500Y-31100D02*
X97300Y-31100D01*
X97500Y-32100D02*
X97500Y-31900D01*
X97500Y-31900D02*
X97300Y-31900D01*
X97300Y-32100D02*
X97300Y-31900D01*
X97500Y-32100D02*
X97300Y-32100D01*
X97500Y-33100D02*
X97500Y-32900D01*
X97500Y-32900D02*
X97300Y-32900D01*
X97300Y-33100D02*
X97300Y-32900D01*
X97500Y-33100D02*
X97300Y-33100D01*
X97500Y-34100D02*
X97500Y-33900D01*
X97500Y-33900D02*
X97300Y-33900D01*
X97300Y-34100D02*
X97300Y-33900D01*
X97500Y-34100D02*
X97300Y-34100D01*
X97500Y-35100D02*
X97500Y-34900D01*
X97500Y-34900D02*
X97300Y-34900D01*
X97300Y-35100D02*
X97300Y-34900D01*
X97500Y-35100D02*
X97300Y-35100D01*
X97500Y-24100D02*
X97500Y-23900D01*
X97500Y-23900D02*
X97300Y-23900D01*
X97300Y-24100D02*
X97300Y-23900D01*
X97500Y-24100D02*
X97300Y-24100D01*
G54D15*
X96900Y-35500D02*
X97900Y-35500D01*
X96900Y-23500D02*
X96900Y-34500D01*
X96900Y-34500D02*
X96900Y-35500D01*
X96900Y-23500D02*
X97900Y-23500D01*
X97900Y-23500D02*
X97900Y-35500D01*
X96900Y-34500D02*
X97900Y-34500D01*
G54D13*
X93880Y-26010D02*
X93880Y-26190D01*
X93880Y-26190D02*
X94109Y-26190D01*
X94109Y-26010D02*
X94109Y-26190D01*
X93880Y-26010D02*
X94109Y-26010D01*
X93091Y-26380D02*
X93091Y-26560D01*
X93091Y-26560D02*
X93320Y-26560D01*
X93320Y-26380D02*
X93320Y-26560D01*
X93091Y-26380D02*
X93320Y-26380D01*
X93091Y-25640D02*
X93091Y-25820D01*
X93091Y-25820D02*
X93320Y-25820D01*
X93320Y-25640D02*
X93320Y-25820D01*
X93091Y-25640D02*
X93320Y-25640D01*
G54D17*
X94380Y-25324D02*
X94380Y-26876D01*
X92820Y-26876D02*
X92820Y-25324D01*
X92820Y-25324D02*
X94380Y-25324D01*
X94380Y-26876D02*
X92820Y-26876D01*
G54D18*
X93859Y-26659D02*
X93341Y-26659D01*
X93341Y-26659D02*
X93341Y-25541D01*
X93341Y-25541D02*
X93859Y-25541D01*
X93859Y-25541D02*
X93859Y-26659D01*
G54D13*
X91720Y-26190D02*
X91720Y-26010D01*
X91720Y-26010D02*
X91491Y-26010D01*
X91491Y-26190D02*
X91491Y-26010D01*
X91720Y-26190D02*
X91491Y-26190D01*
X92509Y-25820D02*
X92509Y-25640D01*
X92509Y-25640D02*
X92280Y-25640D01*
X92280Y-25820D02*
X92280Y-25640D01*
X92509Y-25820D02*
X92280Y-25820D01*
X92509Y-26560D02*
X92509Y-26380D01*
X92509Y-26380D02*
X92280Y-26380D01*
X92280Y-26560D02*
X92280Y-26380D01*
X92509Y-26560D02*
X92280Y-26560D01*
G54D17*
X91220Y-26876D02*
X91220Y-25324D01*
X92780Y-25324D02*
X92780Y-26876D01*
X92780Y-26876D02*
X91220Y-26876D01*
X91220Y-25324D02*
X92780Y-25324D01*
G54D18*
X91741Y-25541D02*
X92259Y-25541D01*
X92259Y-25541D02*
X92259Y-26659D01*
X92259Y-26659D02*
X91741Y-26659D01*
X91741Y-26659D02*
X91741Y-25541D01*
G54D13*
X93880Y-27610D02*
X93880Y-27790D01*
X93880Y-27790D02*
X94109Y-27790D01*
X94109Y-27610D02*
X94109Y-27790D01*
X93880Y-27610D02*
X94109Y-27610D01*
X93091Y-27980D02*
X93091Y-28160D01*
X93091Y-28160D02*
X93320Y-28160D01*
X93320Y-27980D02*
X93320Y-28160D01*
X93091Y-27980D02*
X93320Y-27980D01*
X93091Y-27240D02*
X93091Y-27420D01*
X93091Y-27420D02*
X93320Y-27420D01*
X93320Y-27240D02*
X93320Y-27420D01*
X93091Y-27240D02*
X93320Y-27240D01*
G54D17*
X94380Y-26924D02*
X94380Y-28476D01*
X92820Y-28476D02*
X92820Y-26924D01*
X92820Y-26924D02*
X94380Y-26924D01*
X94380Y-28476D02*
X92820Y-28476D01*
G54D18*
X93859Y-28259D02*
X93341Y-28259D01*
X93341Y-28259D02*
X93341Y-27141D01*
X93341Y-27141D02*
X93859Y-27141D01*
X93859Y-27141D02*
X93859Y-28259D01*
G54D13*
X91720Y-27790D02*
X91720Y-27610D01*
X91720Y-27610D02*
X91491Y-27610D01*
X91491Y-27790D02*
X91491Y-27610D01*
X91720Y-27790D02*
X91491Y-27790D01*
X92509Y-27420D02*
X92509Y-27240D01*
X92509Y-27240D02*
X92280Y-27240D01*
X92280Y-27420D02*
X92280Y-27240D01*
X92509Y-27420D02*
X92280Y-27420D01*
X92509Y-28160D02*
X92509Y-27980D01*
X92509Y-27980D02*
X92280Y-27980D01*
X92280Y-28160D02*
X92280Y-27980D01*
X92509Y-28160D02*
X92280Y-28160D01*
G54D17*
X91220Y-28476D02*
X91220Y-26924D01*
X92780Y-26924D02*
X92780Y-28476D01*
X92780Y-28476D02*
X91220Y-28476D01*
X91220Y-26924D02*
X92780Y-26924D01*
G54D18*
X91741Y-27141D02*
X92259Y-27141D01*
X92259Y-27141D02*
X92259Y-28259D01*
X92259Y-28259D02*
X91741Y-28259D01*
X91741Y-28259D02*
X91741Y-27141D01*
G54D13*
X93880Y-29210D02*
X93880Y-29390D01*
X93880Y-29390D02*
X94109Y-29390D01*
X94109Y-29210D02*
X94109Y-29390D01*
X93880Y-29210D02*
X94109Y-29210D01*
X93091Y-29580D02*
X93091Y-29760D01*
X93091Y-29760D02*
X93320Y-29760D01*
X93320Y-29580D02*
X93320Y-29760D01*
X93091Y-29580D02*
X93320Y-29580D01*
X93091Y-28840D02*
X93091Y-29020D01*
X93091Y-29020D02*
X93320Y-29020D01*
X93320Y-28840D02*
X93320Y-29020D01*
X93091Y-28840D02*
X93320Y-28840D01*
G54D17*
X94380Y-28524D02*
X94380Y-30076D01*
X92820Y-30076D02*
X92820Y-28524D01*
X92820Y-28524D02*
X94380Y-28524D01*
X94380Y-30076D02*
X92820Y-30076D01*
G54D18*
X93859Y-29859D02*
X93341Y-29859D01*
X93341Y-29859D02*
X93341Y-28741D01*
X93341Y-28741D02*
X93859Y-28741D01*
X93859Y-28741D02*
X93859Y-29859D01*
G54D13*
X91720Y-29390D02*
X91720Y-29210D01*
X91720Y-29210D02*
X91491Y-29210D01*
X91491Y-29390D02*
X91491Y-29210D01*
X91720Y-29390D02*
X91491Y-29390D01*
X92509Y-29020D02*
X92509Y-28840D01*
X92509Y-28840D02*
X92280Y-28840D01*
X92280Y-29020D02*
X92280Y-28840D01*
X92509Y-29020D02*
X92280Y-29020D01*
X92509Y-29760D02*
X92509Y-29580D01*
X92509Y-29580D02*
X92280Y-29580D01*
X92280Y-29760D02*
X92280Y-29580D01*
X92509Y-29760D02*
X92280Y-29760D01*
G54D17*
X91220Y-30076D02*
X91220Y-28524D01*
X92780Y-28524D02*
X92780Y-30076D01*
X92780Y-30076D02*
X91220Y-30076D01*
X91220Y-28524D02*
X92780Y-28524D01*
G54D18*
X91741Y-28741D02*
X92259Y-28741D01*
X92259Y-28741D02*
X92259Y-29859D01*
X92259Y-29859D02*
X91741Y-29859D01*
X91741Y-29859D02*
X91741Y-28741D01*
G54D13*
X93880Y-30810D02*
X93880Y-30990D01*
X93880Y-30990D02*
X94109Y-30990D01*
X94109Y-30810D02*
X94109Y-30990D01*
X93880Y-30810D02*
X94109Y-30810D01*
X93091Y-31180D02*
X93091Y-31360D01*
X93091Y-31360D02*
X93320Y-31360D01*
X93320Y-31180D02*
X93320Y-31360D01*
X93091Y-31180D02*
X93320Y-31180D01*
X93091Y-30440D02*
X93091Y-30620D01*
X93091Y-30620D02*
X93320Y-30620D01*
X93320Y-30440D02*
X93320Y-30620D01*
X93091Y-30440D02*
X93320Y-30440D01*
G54D17*
X94380Y-30124D02*
X94380Y-31676D01*
X92820Y-31676D02*
X92820Y-30124D01*
X92820Y-30124D02*
X94380Y-30124D01*
X94380Y-31676D02*
X92820Y-31676D01*
G54D18*
X93859Y-31459D02*
X93341Y-31459D01*
X93341Y-31459D02*
X93341Y-30341D01*
X93341Y-30341D02*
X93859Y-30341D01*
X93859Y-30341D02*
X93859Y-31459D01*
G54D13*
X91720Y-30990D02*
X91720Y-30810D01*
X91720Y-30810D02*
X91491Y-30810D01*
X91491Y-30990D02*
X91491Y-30810D01*
X91720Y-30990D02*
X91491Y-30990D01*
X92509Y-30620D02*
X92509Y-30440D01*
X92509Y-30440D02*
X92280Y-30440D01*
X92280Y-30620D02*
X92280Y-30440D01*
X92509Y-30620D02*
X92280Y-30620D01*
X92509Y-31360D02*
X92509Y-31180D01*
X92509Y-31180D02*
X92280Y-31180D01*
X92280Y-31360D02*
X92280Y-31180D01*
X92509Y-31360D02*
X92280Y-31360D01*
G54D17*
X91220Y-31676D02*
X91220Y-30124D01*
X92780Y-30124D02*
X92780Y-31676D01*
X92780Y-31676D02*
X91220Y-31676D01*
X91220Y-30124D02*
X92780Y-30124D01*
G54D18*
X91741Y-30341D02*
X92259Y-30341D01*
X92259Y-30341D02*
X92259Y-31459D01*
X92259Y-31459D02*
X91741Y-31459D01*
X91741Y-31459D02*
X91741Y-30341D01*
G54D10*
X92158Y-33591D02*
G75*
G03X91958Y-33791I0J-200D01*
G74*
G01*
G54D13*
X92567Y-33575D02*
X92174Y-33575D01*
X92174Y-33575D02*
X92174Y-33674D01*
X92567Y-33674D02*
X92174Y-33674D01*
X92567Y-33575D02*
X92567Y-33674D01*
X92567Y-33319D02*
X92174Y-33319D01*
X92174Y-33319D02*
X92174Y-33418D01*
X92567Y-33418D02*
X92174Y-33418D01*
X92567Y-33319D02*
X92567Y-33418D01*
X92567Y-33064D02*
X92174Y-33064D01*
X92174Y-33064D02*
X92174Y-33163D01*
X92567Y-33163D02*
X92174Y-33163D01*
X92567Y-33064D02*
X92567Y-33163D01*
X92567Y-32808D02*
X92174Y-32808D01*
X92174Y-32808D02*
X92174Y-32907D01*
X92567Y-32907D02*
X92174Y-32907D01*
X92567Y-32808D02*
X92567Y-32907D01*
X90442Y-32808D02*
X90049Y-32808D01*
X90049Y-32808D02*
X90049Y-32907D01*
X90442Y-32907D02*
X90049Y-32907D01*
X90442Y-32808D02*
X90442Y-32907D01*
X90442Y-33064D02*
X90049Y-33064D01*
X90049Y-33064D02*
X90049Y-33163D01*
X90442Y-33163D02*
X90049Y-33163D01*
X90442Y-33064D02*
X90442Y-33163D01*
X90442Y-33319D02*
X90049Y-33319D01*
X90049Y-33319D02*
X90049Y-33418D01*
X90442Y-33418D02*
X90049Y-33418D01*
X90442Y-33319D02*
X90442Y-33418D01*
X90442Y-33575D02*
X90049Y-33575D01*
X90049Y-33575D02*
X90049Y-33674D01*
X90442Y-33674D02*
X90049Y-33674D01*
X90442Y-33575D02*
X90442Y-33674D01*
G54D14*
X92154Y-32690D02*
X90462Y-32690D01*
X90462Y-32690D02*
X90462Y-33792D01*
X90462Y-33792D02*
X92154Y-33792D01*
X92154Y-33792D02*
X92154Y-32690D01*
G54D10*
X91753Y-33661D02*
G75*
G03X91653Y-33761I0J-100D01*
G74*
G01*
X90700Y-33655D02*
X90857Y-33655D01*
X90700Y-33458D02*
X90857Y-33458D01*
X90700Y-33261D02*
X90857Y-33261D01*
X90700Y-33064D02*
X90857Y-33064D01*
X91920Y-33064D02*
X91762Y-33064D01*
X91920Y-33261D02*
X91762Y-33261D01*
X91920Y-33458D02*
X91762Y-33458D01*
X91920Y-33655D02*
X91762Y-33655D01*
X91762Y-33773D02*
X90857Y-33773D01*
X90857Y-33773D02*
X90857Y-32946D01*
X90857Y-32946D02*
X91762Y-32946D01*
X91762Y-32946D02*
X91762Y-33773D01*
G54D13*
X81620Y-33890D02*
X81620Y-33710D01*
X81620Y-33710D02*
X81391Y-33710D01*
X81391Y-33890D02*
X81391Y-33710D01*
X81620Y-33890D02*
X81391Y-33890D01*
X82409Y-33520D02*
X82409Y-33340D01*
X82409Y-33340D02*
X82180Y-33340D01*
X82180Y-33520D02*
X82180Y-33340D01*
X82409Y-33520D02*
X82180Y-33520D01*
X82409Y-34260D02*
X82409Y-34080D01*
X82409Y-34080D02*
X82180Y-34080D01*
X82180Y-34260D02*
X82180Y-34080D01*
X82409Y-34260D02*
X82180Y-34260D01*
G54D17*
X81120Y-34576D02*
X81120Y-33024D01*
X82680Y-33024D02*
X82680Y-34576D01*
X82680Y-34576D02*
X81120Y-34576D01*
X81120Y-33024D02*
X82680Y-33024D01*
G54D18*
X81641Y-33241D02*
X82159Y-33241D01*
X82159Y-33241D02*
X82159Y-34359D01*
X82159Y-34359D02*
X81641Y-34359D01*
X81641Y-34359D02*
X81641Y-33241D01*
G54D13*
X83780Y-33710D02*
X83780Y-33890D01*
X83780Y-33890D02*
X84009Y-33890D01*
X84009Y-33710D02*
X84009Y-33890D01*
X83780Y-33710D02*
X84009Y-33710D01*
X82991Y-34080D02*
X82991Y-34260D01*
X82991Y-34260D02*
X83220Y-34260D01*
X83220Y-34080D02*
X83220Y-34260D01*
X82991Y-34080D02*
X83220Y-34080D01*
X82991Y-33340D02*
X82991Y-33520D01*
X82991Y-33520D02*
X83220Y-33520D01*
X83220Y-33340D02*
X83220Y-33520D01*
X82991Y-33340D02*
X83220Y-33340D01*
G54D17*
X84280Y-33024D02*
X84280Y-34576D01*
X82720Y-34576D02*
X82720Y-33024D01*
X82720Y-33024D02*
X84280Y-33024D01*
X84280Y-34576D02*
X82720Y-34576D01*
G54D18*
X83759Y-34359D02*
X83241Y-34359D01*
X83241Y-34359D02*
X83241Y-33241D01*
X83241Y-33241D02*
X83759Y-33241D01*
X83759Y-33241D02*
X83759Y-34359D01*
G54D13*
X83780Y-32210D02*
X83780Y-32390D01*
X83780Y-32390D02*
X84009Y-32390D01*
X84009Y-32210D02*
X84009Y-32390D01*
X83780Y-32210D02*
X84009Y-32210D01*
X82991Y-32580D02*
X82991Y-32760D01*
X82991Y-32760D02*
X83220Y-32760D01*
X83220Y-32580D02*
X83220Y-32760D01*
X82991Y-32580D02*
X83220Y-32580D01*
X82991Y-31840D02*
X82991Y-32020D01*
X82991Y-32020D02*
X83220Y-32020D01*
X83220Y-31840D02*
X83220Y-32020D01*
X82991Y-31840D02*
X83220Y-31840D01*
G54D17*
X84280Y-31524D02*
X84280Y-33076D01*
X82720Y-33076D02*
X82720Y-31524D01*
X82720Y-31524D02*
X84280Y-31524D01*
X84280Y-33076D02*
X82720Y-33076D01*
G54D18*
X83759Y-32859D02*
X83241Y-32859D01*
X83241Y-32859D02*
X83241Y-31741D01*
X83241Y-31741D02*
X83759Y-31741D01*
X83759Y-31741D02*
X83759Y-32859D01*
G54D13*
X81620Y-32390D02*
X81620Y-32210D01*
X81620Y-32210D02*
X81391Y-32210D01*
X81391Y-32390D02*
X81391Y-32210D01*
X81620Y-32390D02*
X81391Y-32390D01*
X82409Y-32020D02*
X82409Y-31840D01*
X82409Y-31840D02*
X82180Y-31840D01*
X82180Y-32020D02*
X82180Y-31840D01*
X82409Y-32020D02*
X82180Y-32020D01*
X82409Y-32760D02*
X82409Y-32580D01*
X82409Y-32580D02*
X82180Y-32580D01*
X82180Y-32760D02*
X82180Y-32580D01*
X82409Y-32760D02*
X82180Y-32760D01*
G54D17*
X81120Y-33076D02*
X81120Y-31524D01*
X82680Y-31524D02*
X82680Y-33076D01*
X82680Y-33076D02*
X81120Y-33076D01*
X81120Y-31524D02*
X82680Y-31524D01*
G54D18*
X81641Y-31741D02*
X82159Y-31741D01*
X82159Y-31741D02*
X82159Y-32859D01*
X82159Y-32859D02*
X81641Y-32859D01*
X81641Y-32859D02*
X81641Y-31741D01*
G54D13*
X88120Y-30390D02*
X88120Y-30210D01*
X88120Y-30210D02*
X87891Y-30210D01*
X87891Y-30390D02*
X87891Y-30210D01*
X88120Y-30390D02*
X87891Y-30390D01*
X88909Y-30020D02*
X88909Y-29840D01*
X88909Y-29840D02*
X88680Y-29840D01*
X88680Y-30020D02*
X88680Y-29840D01*
X88909Y-30020D02*
X88680Y-30020D01*
X88909Y-30760D02*
X88909Y-30580D01*
X88909Y-30580D02*
X88680Y-30580D01*
X88680Y-30760D02*
X88680Y-30580D01*
X88909Y-30760D02*
X88680Y-30760D01*
G54D17*
X87620Y-31076D02*
X87620Y-29524D01*
X89180Y-29524D02*
X89180Y-31076D01*
X89180Y-31076D02*
X87620Y-31076D01*
X87620Y-29524D02*
X89180Y-29524D01*
G54D18*
X88141Y-29741D02*
X88659Y-29741D01*
X88659Y-29741D02*
X88659Y-30859D01*
X88659Y-30859D02*
X88141Y-30859D01*
X88141Y-30859D02*
X88141Y-29741D01*
G54D13*
X88120Y-28790D02*
X88120Y-28610D01*
X88120Y-28610D02*
X87891Y-28610D01*
X87891Y-28790D02*
X87891Y-28610D01*
X88120Y-28790D02*
X87891Y-28790D01*
X88909Y-28420D02*
X88909Y-28240D01*
X88909Y-28240D02*
X88680Y-28240D01*
X88680Y-28420D02*
X88680Y-28240D01*
X88909Y-28420D02*
X88680Y-28420D01*
X88909Y-29160D02*
X88909Y-28980D01*
X88909Y-28980D02*
X88680Y-28980D01*
X88680Y-29160D02*
X88680Y-28980D01*
X88909Y-29160D02*
X88680Y-29160D01*
G54D17*
X87620Y-29476D02*
X87620Y-27924D01*
X89180Y-27924D02*
X89180Y-29476D01*
X89180Y-29476D02*
X87620Y-29476D01*
X87620Y-27924D02*
X89180Y-27924D01*
G54D18*
X88141Y-28141D02*
X88659Y-28141D01*
X88659Y-28141D02*
X88659Y-29259D01*
X88659Y-29259D02*
X88141Y-29259D01*
X88141Y-29259D02*
X88141Y-28141D01*
G54D13*
X84870Y-31830D02*
X84870Y-31670D01*
X84870Y-31670D02*
X84530Y-31670D01*
X84530Y-31830D02*
X84530Y-31670D01*
X84870Y-31830D02*
X84530Y-31830D01*
X84870Y-32330D02*
X84870Y-32170D01*
X84870Y-32170D02*
X84530Y-32170D01*
X84530Y-32330D02*
X84530Y-32170D01*
X84870Y-32330D02*
X84530Y-32330D01*
X84857Y-32078D02*
X84857Y-31922D01*
X84857Y-31922D02*
X84543Y-31922D01*
X84543Y-32078D02*
X84543Y-31922D01*
X84857Y-32078D02*
X84543Y-32078D01*
G54D18*
X84840Y-32170D02*
X84840Y-31830D01*
X84560Y-31830D02*
X84560Y-32170D01*
G54D17*
X84313Y-32579D02*
X84313Y-31421D01*
X84313Y-31421D02*
X85087Y-31421D01*
X85087Y-31421D02*
X85087Y-32579D01*
X85087Y-32579D02*
X84313Y-32579D01*
G54D10*
X87388Y-33890D02*
G75*
G03X87388Y-33890I-278J0D01*
G74*
G01*
X77778Y-22900D02*
G75*
G03X77778Y-22900I-278J0D01*
G74*
G01*
X77778Y-36100D02*
G75*
G03X77778Y-36100I-278J0D01*
G74*
G01*
X98178Y-36100D02*
G75*
G03X98178Y-36100I-278J0D01*
G74*
G01*
X98178Y-22900D02*
G75*
G03X98178Y-22900I-278J0D01*
G74*
G01*
X87388Y-25110D02*
G75*
G03X87388Y-25110I-278J0D01*
G74*
G01*
X92524Y-23400D02*
G75*
G03X92524Y-23400I-314J0D01*
G74*
G01*
X92517Y-24100D02*
G75*
G03X92517Y-24100I-317J0D01*
G74*
G01*
G54D13*
X81909Y-27128D02*
X81989Y-27128D01*
X81989Y-27128D02*
X81989Y-26798D01*
X81909Y-26798D02*
X81989Y-26798D01*
X81909Y-27128D02*
X81909Y-26798D01*
X82165Y-27128D02*
X82245Y-27128D01*
X82245Y-27128D02*
X82245Y-26798D01*
X82165Y-26798D02*
X82245Y-26798D01*
X82165Y-27128D02*
X82165Y-26798D01*
X82421Y-27128D02*
X82501Y-27128D01*
X82501Y-27128D02*
X82501Y-26798D01*
X82421Y-26798D02*
X82501Y-26798D01*
X82421Y-27128D02*
X82421Y-26798D01*
X82677Y-27128D02*
X82757Y-27128D01*
X82757Y-27128D02*
X82757Y-26798D01*
X82677Y-26798D02*
X82757Y-26798D01*
X82677Y-27128D02*
X82677Y-26798D01*
X82933Y-27128D02*
X83013Y-27128D01*
X83013Y-27128D02*
X83013Y-26798D01*
X82933Y-26798D02*
X83013Y-26798D01*
X82933Y-27128D02*
X82933Y-26798D01*
X83187Y-27128D02*
X83267Y-27128D01*
X83267Y-27128D02*
X83267Y-26798D01*
X83187Y-26798D02*
X83267Y-26798D01*
X83187Y-27128D02*
X83187Y-26798D01*
X83443Y-27128D02*
X83523Y-27128D01*
X83523Y-27128D02*
X83523Y-26798D01*
X83443Y-26798D02*
X83523Y-26798D01*
X83443Y-27128D02*
X83443Y-26798D01*
X83699Y-27128D02*
X83779Y-27128D01*
X83779Y-27128D02*
X83779Y-26798D01*
X83699Y-26798D02*
X83779Y-26798D01*
X83699Y-27128D02*
X83699Y-26798D01*
X83955Y-27128D02*
X84035Y-27128D01*
X84035Y-27128D02*
X84035Y-26798D01*
X83955Y-26798D02*
X84035Y-26798D01*
X83955Y-27128D02*
X83955Y-26798D01*
X84211Y-27128D02*
X84291Y-27128D01*
X84291Y-27128D02*
X84291Y-26798D01*
X84211Y-26798D02*
X84291Y-26798D01*
X84211Y-27128D02*
X84211Y-26798D01*
X84211Y-25002D02*
X84291Y-25002D01*
X84291Y-25002D02*
X84291Y-24672D01*
X84211Y-24672D02*
X84291Y-24672D01*
X84211Y-25002D02*
X84211Y-24672D01*
X83955Y-25002D02*
X84035Y-25002D01*
X84035Y-25002D02*
X84035Y-24672D01*
X83955Y-24672D02*
X84035Y-24672D01*
X83955Y-25002D02*
X83955Y-24672D01*
X83699Y-25002D02*
X83779Y-25002D01*
X83779Y-25002D02*
X83779Y-24672D01*
X83699Y-24672D02*
X83779Y-24672D01*
X83699Y-25002D02*
X83699Y-24672D01*
X83443Y-25002D02*
X83523Y-25002D01*
X83523Y-25002D02*
X83523Y-24672D01*
X83443Y-24672D02*
X83523Y-24672D01*
X83443Y-25002D02*
X83443Y-24672D01*
X83187Y-25002D02*
X83267Y-25002D01*
X83267Y-25002D02*
X83267Y-24672D01*
X83187Y-24672D02*
X83267Y-24672D01*
X83187Y-25002D02*
X83187Y-24672D01*
X82933Y-25002D02*
X83013Y-25002D01*
X83013Y-25002D02*
X83013Y-24672D01*
X82933Y-24672D02*
X83013Y-24672D01*
X82933Y-25002D02*
X82933Y-24672D01*
X82677Y-25002D02*
X82757Y-25002D01*
X82757Y-25002D02*
X82757Y-24672D01*
X82677Y-24672D02*
X82757Y-24672D01*
X82677Y-25002D02*
X82677Y-24672D01*
X82421Y-25002D02*
X82501Y-25002D01*
X82501Y-25002D02*
X82501Y-24672D01*
X82421Y-24672D02*
X82501Y-24672D01*
X82421Y-25002D02*
X82421Y-24672D01*
X82165Y-25002D02*
X82245Y-25002D01*
X82245Y-25002D02*
X82245Y-24672D01*
X82165Y-24672D02*
X82245Y-24672D01*
X82165Y-25002D02*
X82165Y-24672D01*
X81909Y-25002D02*
X81989Y-25002D01*
X81989Y-25002D02*
X81989Y-24672D01*
X81909Y-24672D02*
X81989Y-24672D01*
X81909Y-25002D02*
X81909Y-24672D01*
G54D18*
X81855Y-26798D02*
X84345Y-26798D01*
X84345Y-25002D02*
X84345Y-26798D01*
X84345Y-25002D02*
X81855Y-25002D01*
X81855Y-26798D02*
X81855Y-25002D01*
G54D17*
X81945Y-26708D02*
X84255Y-26708D01*
X84255Y-25092D02*
X84255Y-26708D01*
X84255Y-25092D02*
X81945Y-25092D01*
X81945Y-26708D02*
X81945Y-25092D01*
G54D19*
X82332Y-26380D02*
G75*
G03X82332Y-26380I-127J0D01*
G74*
G01*
G54D13*
X86309Y-28870D02*
X86309Y-30130D01*
X86309Y-30130D02*
X87040Y-30130D01*
X87040Y-28870D02*
X87040Y-30130D01*
X86309Y-28870D02*
X87040Y-28870D01*
X84160Y-29330D02*
X84160Y-29670D01*
X84160Y-29670D02*
X84891Y-29670D01*
X84891Y-29330D02*
X84891Y-29670D01*
X84160Y-29330D02*
X84891Y-29330D01*
X84160Y-28420D02*
X84160Y-28760D01*
X84160Y-28760D02*
X84891Y-28760D01*
X84891Y-28420D02*
X84891Y-28760D01*
X84160Y-28420D02*
X84891Y-28420D01*
X84160Y-30240D02*
X84160Y-30580D01*
X84160Y-30580D02*
X84891Y-30580D01*
X84891Y-30240D02*
X84891Y-30580D01*
X84160Y-30240D02*
X84891Y-30240D01*
X86309Y-28870D02*
X86309Y-30130D01*
X86309Y-30130D02*
X87040Y-30130D01*
X87040Y-28870D02*
X87040Y-30130D01*
X86309Y-28870D02*
X87040Y-28870D01*
X84160Y-29330D02*
X84160Y-29670D01*
X84160Y-29670D02*
X84891Y-29670D01*
X84891Y-29330D02*
X84891Y-29670D01*
X84160Y-29330D02*
X84891Y-29330D01*
X84160Y-28420D02*
X84160Y-28760D01*
X84160Y-28760D02*
X84891Y-28760D01*
X84891Y-28420D02*
X84891Y-28760D01*
X84160Y-28420D02*
X84891Y-28420D01*
X84160Y-30240D02*
X84160Y-30580D01*
X84160Y-30580D02*
X84891Y-30580D01*
X84891Y-30240D02*
X84891Y-30580D01*
X84160Y-30240D02*
X84891Y-30240D01*
X85207Y-29107D02*
X85207Y-29893D01*
X85207Y-29893D02*
X85993Y-29893D01*
X85993Y-29107D02*
X85993Y-29893D01*
X85207Y-29107D02*
X85993Y-29107D01*
G54D14*
X86300Y-30790D02*
X84900Y-30790D01*
X84900Y-30790D02*
X84900Y-28210D01*
X84900Y-28210D02*
X86300Y-28210D01*
X86300Y-28210D02*
X86300Y-30790D01*
G54D17*
X87364Y-28133D02*
X87364Y-30867D01*
X83836Y-30867D02*
X83836Y-28133D01*
X83836Y-28133D02*
X87364Y-28133D01*
X87364Y-30867D02*
X83836Y-30867D01*
G54D13*
X93670Y-33130D02*
X93670Y-32970D01*
X93670Y-32970D02*
X93330Y-32970D01*
X93330Y-33130D02*
X93330Y-32970D01*
X93670Y-33130D02*
X93330Y-33130D01*
X93670Y-33630D02*
X93670Y-33470D01*
X93670Y-33470D02*
X93330Y-33470D01*
X93330Y-33630D02*
X93330Y-33470D01*
X93670Y-33630D02*
X93330Y-33630D01*
X93657Y-33378D02*
X93657Y-33222D01*
X93657Y-33222D02*
X93343Y-33222D01*
X93343Y-33378D02*
X93343Y-33222D01*
X93657Y-33378D02*
X93343Y-33378D01*
G54D18*
X93640Y-33470D02*
X93640Y-33130D01*
X93360Y-33130D02*
X93360Y-33470D01*
G54D17*
X93113Y-33879D02*
X93113Y-32721D01*
X93113Y-32721D02*
X93887Y-32721D01*
X93887Y-32721D02*
X93887Y-33879D01*
X93887Y-33879D02*
X93113Y-33879D01*
G54D13*
X94470Y-33130D02*
X94470Y-32970D01*
X94470Y-32970D02*
X94130Y-32970D01*
X94130Y-33130D02*
X94130Y-32970D01*
X94470Y-33130D02*
X94130Y-33130D01*
X94470Y-33630D02*
X94470Y-33470D01*
X94470Y-33470D02*
X94130Y-33470D01*
X94130Y-33630D02*
X94130Y-33470D01*
X94470Y-33630D02*
X94130Y-33630D01*
X94457Y-33378D02*
X94457Y-33222D01*
X94457Y-33222D02*
X94143Y-33222D01*
X94143Y-33378D02*
X94143Y-33222D01*
X94457Y-33378D02*
X94143Y-33378D01*
G54D18*
X94440Y-33470D02*
X94440Y-33130D01*
X94160Y-33130D02*
X94160Y-33470D01*
G54D17*
X93913Y-33879D02*
X93913Y-32721D01*
X93913Y-32721D02*
X94687Y-32721D01*
X94687Y-32721D02*
X94687Y-33879D01*
X94687Y-33879D02*
X93913Y-33879D01*
G54D13*
X94970Y-29930D02*
X94970Y-29770D01*
X94970Y-29770D02*
X94630Y-29770D01*
X94630Y-29930D02*
X94630Y-29770D01*
X94970Y-29930D02*
X94630Y-29930D01*
X94970Y-30430D02*
X94970Y-30270D01*
X94970Y-30270D02*
X94630Y-30270D01*
X94630Y-30430D02*
X94630Y-30270D01*
X94970Y-30430D02*
X94630Y-30430D01*
X94957Y-30178D02*
X94957Y-30022D01*
X94957Y-30022D02*
X94643Y-30022D01*
X94643Y-30178D02*
X94643Y-30022D01*
X94957Y-30178D02*
X94643Y-30178D01*
G54D18*
X94940Y-30270D02*
X94940Y-29930D01*
X94660Y-29930D02*
X94660Y-30270D01*
G54D17*
X94413Y-30679D02*
X94413Y-29521D01*
X94413Y-29521D02*
X95187Y-29521D01*
X95187Y-29521D02*
X95187Y-30679D01*
X95187Y-30679D02*
X94413Y-30679D01*
G54D13*
X90970Y-28330D02*
X90970Y-28170D01*
X90970Y-28170D02*
X90630Y-28170D01*
X90630Y-28330D02*
X90630Y-28170D01*
X90970Y-28330D02*
X90630Y-28330D01*
X90970Y-28830D02*
X90970Y-28670D01*
X90970Y-28670D02*
X90630Y-28670D01*
X90630Y-28830D02*
X90630Y-28670D01*
X90970Y-28830D02*
X90630Y-28830D01*
X90957Y-28578D02*
X90957Y-28422D01*
X90957Y-28422D02*
X90643Y-28422D01*
X90643Y-28578D02*
X90643Y-28422D01*
X90957Y-28578D02*
X90643Y-28578D01*
G54D18*
X90940Y-28670D02*
X90940Y-28330D01*
X90660Y-28330D02*
X90660Y-28670D01*
G54D17*
X90413Y-29079D02*
X90413Y-27921D01*
X90413Y-27921D02*
X91187Y-27921D01*
X91187Y-27921D02*
X91187Y-29079D01*
X91187Y-29079D02*
X90413Y-29079D01*
G54D13*
X94970Y-28330D02*
X94970Y-28170D01*
X94970Y-28170D02*
X94630Y-28170D01*
X94630Y-28330D02*
X94630Y-28170D01*
X94970Y-28330D02*
X94630Y-28330D01*
X94970Y-28830D02*
X94970Y-28670D01*
X94970Y-28670D02*
X94630Y-28670D01*
X94630Y-28830D02*
X94630Y-28670D01*
X94970Y-28830D02*
X94630Y-28830D01*
X94957Y-28578D02*
X94957Y-28422D01*
X94957Y-28422D02*
X94643Y-28422D01*
X94643Y-28578D02*
X94643Y-28422D01*
X94957Y-28578D02*
X94643Y-28578D01*
G54D18*
X94940Y-28670D02*
X94940Y-28330D01*
X94660Y-28330D02*
X94660Y-28670D01*
G54D17*
X94413Y-29079D02*
X94413Y-27921D01*
X94413Y-27921D02*
X95187Y-27921D01*
X95187Y-27921D02*
X95187Y-29079D01*
X95187Y-29079D02*
X94413Y-29079D01*
G54D13*
X90630Y-30270D02*
X90630Y-30430D01*
X90630Y-30430D02*
X90970Y-30430D01*
X90970Y-30270D02*
X90970Y-30430D01*
X90630Y-30270D02*
X90970Y-30270D01*
X90630Y-29770D02*
X90630Y-29930D01*
X90630Y-29930D02*
X90970Y-29930D01*
X90970Y-29770D02*
X90970Y-29930D01*
X90630Y-29770D02*
X90970Y-29770D01*
X90643Y-30022D02*
X90643Y-30178D01*
X90643Y-30178D02*
X90957Y-30178D01*
X90957Y-30022D02*
X90957Y-30178D01*
X90643Y-30022D02*
X90957Y-30022D01*
G54D18*
X90660Y-29930D02*
X90660Y-30270D01*
X90940Y-30270D02*
X90940Y-29930D01*
G54D17*
X91187Y-29521D02*
X91187Y-30679D01*
X91187Y-30679D02*
X90413Y-30679D01*
X90413Y-30679D02*
X90413Y-29521D01*
X90413Y-29521D02*
X91187Y-29521D01*
G54D13*
X85870Y-31830D02*
X85870Y-31670D01*
X85870Y-31670D02*
X85530Y-31670D01*
X85530Y-31830D02*
X85530Y-31670D01*
X85870Y-31830D02*
X85530Y-31830D01*
X85870Y-32330D02*
X85870Y-32170D01*
X85870Y-32170D02*
X85530Y-32170D01*
X85530Y-32330D02*
X85530Y-32170D01*
X85870Y-32330D02*
X85530Y-32330D01*
X85857Y-32078D02*
X85857Y-31922D01*
X85857Y-31922D02*
X85543Y-31922D01*
X85543Y-32078D02*
X85543Y-31922D01*
X85857Y-32078D02*
X85543Y-32078D01*
G54D18*
X85840Y-32170D02*
X85840Y-31830D01*
X85560Y-31830D02*
X85560Y-32170D01*
G54D17*
X85313Y-32579D02*
X85313Y-31421D01*
X85313Y-31421D02*
X86087Y-31421D01*
X86087Y-31421D02*
X86087Y-32579D01*
X86087Y-32579D02*
X85313Y-32579D01*
G54D13*
X89530Y-30270D02*
X89530Y-30430D01*
X89530Y-30430D02*
X89870Y-30430D01*
X89870Y-30270D02*
X89870Y-30430D01*
X89530Y-30270D02*
X89870Y-30270D01*
X89530Y-29770D02*
X89530Y-29930D01*
X89530Y-29930D02*
X89870Y-29930D01*
X89870Y-29770D02*
X89870Y-29930D01*
X89530Y-29770D02*
X89870Y-29770D01*
X89543Y-30022D02*
X89543Y-30178D01*
X89543Y-30178D02*
X89857Y-30178D01*
X89857Y-30022D02*
X89857Y-30178D01*
X89543Y-30022D02*
X89857Y-30022D01*
G54D18*
X89560Y-29930D02*
X89560Y-30270D01*
X89840Y-30270D02*
X89840Y-29930D01*
G54D17*
X90087Y-29521D02*
X90087Y-30679D01*
X90087Y-30679D02*
X89313Y-30679D01*
X89313Y-30679D02*
X89313Y-29521D01*
X89313Y-29521D02*
X90087Y-29521D01*
G54D13*
X89530Y-29070D02*
X89530Y-29230D01*
X89530Y-29230D02*
X89870Y-29230D01*
X89870Y-29070D02*
X89870Y-29230D01*
X89530Y-29070D02*
X89870Y-29070D01*
X89530Y-28570D02*
X89530Y-28730D01*
X89530Y-28730D02*
X89870Y-28730D01*
X89870Y-28570D02*
X89870Y-28730D01*
X89530Y-28570D02*
X89870Y-28570D01*
X89543Y-28822D02*
X89543Y-28978D01*
X89543Y-28978D02*
X89857Y-28978D01*
X89857Y-28822D02*
X89857Y-28978D01*
X89543Y-28822D02*
X89857Y-28822D01*
G54D18*
X89560Y-28730D02*
X89560Y-29070D01*
X89840Y-29070D02*
X89840Y-28730D01*
G54D17*
X90087Y-28321D02*
X90087Y-29479D01*
X90087Y-29479D02*
X89313Y-29479D01*
X89313Y-29479D02*
X89313Y-28321D01*
X89313Y-28321D02*
X90087Y-28321D01*
G54D13*
X95170Y-25530D02*
X95170Y-25370D01*
X95170Y-25370D02*
X94830Y-25370D01*
X94830Y-25530D02*
X94830Y-25370D01*
X95170Y-25530D02*
X94830Y-25530D01*
X95170Y-26030D02*
X95170Y-25870D01*
X95170Y-25870D02*
X94830Y-25870D01*
X94830Y-26030D02*
X94830Y-25870D01*
X95170Y-26030D02*
X94830Y-26030D01*
X95157Y-25778D02*
X95157Y-25622D01*
X95157Y-25622D02*
X94843Y-25622D01*
X94843Y-25778D02*
X94843Y-25622D01*
X95157Y-25778D02*
X94843Y-25778D01*
G54D18*
X95140Y-25870D02*
X95140Y-25530D01*
X94860Y-25530D02*
X94860Y-25870D01*
G54D17*
X94613Y-26279D02*
X94613Y-25121D01*
X94613Y-25121D02*
X95387Y-25121D01*
X95387Y-25121D02*
X95387Y-26279D01*
X95387Y-26279D02*
X94613Y-26279D01*
G54D13*
X89570Y-31630D02*
X89570Y-31470D01*
X89570Y-31470D02*
X89230Y-31470D01*
X89230Y-31630D02*
X89230Y-31470D01*
X89570Y-31630D02*
X89230Y-31630D01*
X89570Y-32130D02*
X89570Y-31970D01*
X89570Y-31970D02*
X89230Y-31970D01*
X89230Y-32130D02*
X89230Y-31970D01*
X89570Y-32130D02*
X89230Y-32130D01*
X89557Y-31878D02*
X89557Y-31722D01*
X89557Y-31722D02*
X89243Y-31722D01*
X89243Y-31878D02*
X89243Y-31722D01*
X89557Y-31878D02*
X89243Y-31878D01*
G54D18*
X89540Y-31970D02*
X89540Y-31630D01*
X89260Y-31630D02*
X89260Y-31970D01*
G54D17*
X89013Y-32379D02*
X89013Y-31221D01*
X89013Y-31221D02*
X89787Y-31221D01*
X89787Y-31221D02*
X89787Y-32379D01*
X89787Y-32379D02*
X89013Y-32379D01*
G54D13*
X89570Y-33030D02*
X89570Y-32870D01*
X89570Y-32870D02*
X89230Y-32870D01*
X89230Y-33030D02*
X89230Y-32870D01*
X89570Y-33030D02*
X89230Y-33030D01*
X89570Y-33530D02*
X89570Y-33370D01*
X89570Y-33370D02*
X89230Y-33370D01*
X89230Y-33530D02*
X89230Y-33370D01*
X89570Y-33530D02*
X89230Y-33530D01*
X89557Y-33278D02*
X89557Y-33122D01*
X89557Y-33122D02*
X89243Y-33122D01*
X89243Y-33278D02*
X89243Y-33122D01*
X89557Y-33278D02*
X89243Y-33278D01*
G54D18*
X89540Y-33370D02*
X89540Y-33030D01*
X89260Y-33030D02*
X89260Y-33370D01*
G54D17*
X89013Y-33779D02*
X89013Y-32621D01*
X89013Y-32621D02*
X89787Y-32621D01*
X89787Y-32621D02*
X89787Y-33779D01*
X89787Y-33779D02*
X89013Y-33779D01*
G54D12*
X80890Y-24382D02*
X86402Y-24382D01*
X86402Y-24382D02*
X86402Y-34618D01*
X86402Y-34618D02*
X80890Y-34618D01*
X80889Y-34618D02*
X79707Y-34618D01*
X79707Y-34618D02*
X79707Y-24382D01*
X79707Y-24382D02*
X80889Y-24382D01*
X80889Y-24382D02*
X80889Y-34618D01*
G54D16*
X89950Y-34350D02*
X88950Y-34350D01*
X88950Y-35050D02*
X89950Y-35050D01*
X88950Y-35050D02*
X88950Y-34350D01*
X89950Y-34350D02*
X89950Y-35050D01*
X87750Y-35050D02*
X88750Y-35050D01*
X88750Y-34350D02*
X87750Y-34350D01*
X88750Y-34350D02*
X88750Y-35050D01*
X87750Y-35050D02*
X87750Y-34350D01*
X81700Y-25500D02*
X81700Y-24500D01*
X81000Y-24500D02*
X81000Y-25500D01*
X81000Y-24500D02*
X81700Y-24500D01*
X81700Y-25500D02*
X81000Y-25500D01*
X87950Y-32200D02*
X87950Y-33200D01*
X88650Y-33200D02*
X88650Y-32200D01*
X88650Y-33200D02*
X87950Y-33200D01*
X87950Y-32200D02*
X88650Y-32200D01*
X89650Y-26100D02*
X89650Y-27100D01*
X90350Y-27100D02*
X90350Y-26100D01*
X90350Y-27100D02*
X89650Y-27100D01*
X89650Y-26100D02*
X90350Y-26100D01*
X88650Y-26100D02*
X88650Y-27100D01*
X89350Y-27100D02*
X89350Y-26100D01*
X89350Y-27100D02*
X88650Y-27100D01*
X88650Y-26100D02*
X89350Y-26100D01*
X86950Y-32200D02*
X86950Y-33200D01*
X87650Y-33200D02*
X87650Y-32200D01*
X87650Y-33200D02*
X86950Y-33200D01*
X86950Y-32200D02*
X87650Y-32200D01*
X87650Y-26100D02*
X87650Y-27100D01*
X88350Y-27100D02*
X88350Y-26100D01*
X88350Y-27100D02*
X87650Y-27100D01*
X87650Y-26100D02*
X88350Y-26100D01*
X86650Y-26100D02*
X86650Y-27100D01*
X87350Y-27100D02*
X87350Y-26100D01*
X87350Y-27100D02*
X86650Y-27100D01*
X86650Y-26100D02*
X87350Y-26100D01*
X83050Y-30600D02*
X82750Y-30600D01*
X82900Y-30450D02*
X82900Y-30750D01*
X83000Y-31500D02*
X81500Y-31500D01*
X83300Y-30000D02*
X83300Y-31200D01*
X83000Y-31500D02*
X83300Y-31200D01*
X83000Y-29700D02*
X81500Y-29700D01*
X83000Y-29700D02*
X83300Y-30000D01*
X81600Y-30650D02*
X81600Y-30550D01*
X81650Y-30350D02*
X81650Y-30850D01*
X81700Y-30950D02*
X81700Y-30250D01*
X81750Y-31050D02*
X81750Y-30150D01*
X81800Y-30100D02*
X81800Y-31100D01*
X81850Y-31150D02*
X81850Y-30050D01*
X81900Y-30000D02*
X81900Y-31200D01*
X81950Y-29950D02*
X81950Y-31250D01*
X83200Y-30600D02*
G75*
G03X83200Y-30600I-800J0D01*
G74*
G01*
X81500Y-29700D02*
X81500Y-31500D01*
X94700Y-23750D02*
X94400Y-23750D01*
X94550Y-23600D02*
X94550Y-23900D01*
X94650Y-24650D02*
X93150Y-24650D01*
X94950Y-23150D02*
X94950Y-24350D01*
X94650Y-24650D02*
X94950Y-24350D01*
X94650Y-22850D02*
X93150Y-22850D01*
X94650Y-22850D02*
X94950Y-23150D01*
X93250Y-23800D02*
X93250Y-23700D01*
X93300Y-23500D02*
X93300Y-24000D01*
X93350Y-24100D02*
X93350Y-23400D01*
X93400Y-24200D02*
X93400Y-23300D01*
X93450Y-23250D02*
X93450Y-24250D01*
X93500Y-24300D02*
X93500Y-23200D01*
X93550Y-23150D02*
X93550Y-24350D01*
X93600Y-23100D02*
X93600Y-24400D01*
X94850Y-23750D02*
G75*
G03X94850Y-23750I-800J0D01*
G74*
G01*
X93150Y-22850D02*
X93150Y-24650D01*
X88280Y-27440D02*
X88280Y-27760D01*
X88720Y-27750D02*
X88720Y-27440D01*
X88820Y-27760D02*
X88180Y-27760D01*
X88180Y-27760D02*
X88180Y-27440D01*
X88180Y-27440D02*
X88820Y-27440D01*
X88820Y-27440D02*
X88820Y-27760D01*
X81510Y-26880D02*
X81190Y-26880D01*
X81200Y-27320D02*
X81510Y-27320D01*
X81190Y-27420D02*
X81190Y-26780D01*
X81190Y-26780D02*
X81510Y-26780D01*
X81510Y-26780D02*
X81510Y-27420D01*
X81510Y-27420D02*
X81190Y-27420D01*
X89480Y-27440D02*
X89480Y-27760D01*
X89920Y-27750D02*
X89920Y-27440D01*
X90020Y-27760D02*
X89380Y-27760D01*
X89380Y-27760D02*
X89380Y-27440D01*
X89380Y-27440D02*
X90020Y-27440D01*
X90020Y-27440D02*
X90020Y-27760D01*
X86390Y-35820D02*
X86710Y-35820D01*
X86700Y-35380D02*
X86390Y-35380D01*
X86710Y-35280D02*
X86710Y-35920D01*
X86710Y-35920D02*
X86390Y-35920D01*
X86390Y-35920D02*
X86390Y-35280D01*
X86390Y-35280D02*
X86710Y-35280D01*
X96420Y-34360D02*
X96420Y-34040D01*
X95980Y-34050D02*
X95980Y-34360D01*
X95880Y-34040D02*
X96520Y-34040D01*
X96520Y-34040D02*
X96520Y-34360D01*
X96520Y-34360D02*
X95880Y-34360D01*
X95880Y-34360D02*
X95880Y-34040D01*
X96420Y-33660D02*
X96420Y-33340D01*
X95980Y-33350D02*
X95980Y-33660D01*
X95880Y-33340D02*
X96520Y-33340D01*
X96520Y-33340D02*
X96520Y-33660D01*
X96520Y-33660D02*
X95880Y-33660D01*
X95880Y-33660D02*
X95880Y-33340D01*
X90239Y-32200D02*
X90239Y-32520D01*
X90679Y-32510D02*
X90679Y-32200D01*
X90779Y-32520D02*
X90139Y-32520D01*
X90139Y-32520D02*
X90139Y-32200D01*
X90139Y-32200D02*
X90779Y-32200D01*
X90779Y-32200D02*
X90779Y-32520D01*
X87320Y-31310D02*
X87320Y-30990D01*
X86880Y-31000D02*
X86880Y-31310D01*
X86780Y-30990D02*
X87420Y-30990D01*
X87420Y-30990D02*
X87420Y-31310D01*
X87420Y-31310D02*
X86780Y-31310D01*
X86780Y-31310D02*
X86780Y-30990D01*
X86060Y-26880D02*
X85740Y-26880D01*
X85750Y-27320D02*
X86060Y-27320D01*
X85740Y-27420D02*
X85740Y-26780D01*
X85740Y-26780D02*
X86060Y-26780D01*
X86060Y-26780D02*
X86060Y-27420D01*
X86060Y-27420D02*
X85740Y-27420D01*
X84780Y-27240D02*
X84780Y-27560D01*
X85220Y-27550D02*
X85220Y-27240D01*
X85320Y-27560D02*
X84680Y-27560D01*
X84680Y-27560D02*
X84680Y-27240D01*
X84680Y-27240D02*
X85320Y-27240D01*
X85320Y-27240D02*
X85320Y-27560D01*
X85220Y-26960D02*
X85220Y-26640D01*
X84780Y-26650D02*
X84780Y-26960D01*
X84680Y-26640D02*
X85320Y-26640D01*
X85320Y-26640D02*
X85320Y-26960D01*
X85320Y-26960D02*
X84680Y-26960D01*
X84680Y-26960D02*
X84680Y-26640D01*
X87080Y-27440D02*
X87080Y-27760D01*
X87520Y-27750D02*
X87520Y-27440D01*
X87620Y-27760D02*
X86980Y-27760D01*
X86980Y-27760D02*
X86980Y-27440D01*
X86980Y-27440D02*
X87620Y-27440D01*
X87620Y-27440D02*
X87620Y-27760D01*
X87180Y-24340D02*
X87180Y-24660D01*
X87620Y-24650D02*
X87620Y-24340D01*
X87720Y-24660D02*
X87080Y-24660D01*
X87080Y-24660D02*
X87080Y-24340D01*
X87080Y-24340D02*
X87720Y-24340D01*
X87720Y-24340D02*
X87720Y-24660D01*
X95160Y-26880D02*
X94840Y-26880D01*
X94850Y-27320D02*
X95160Y-27320D01*
X94840Y-27420D02*
X94840Y-26780D01*
X94840Y-26780D02*
X95160Y-26780D01*
X95160Y-26780D02*
X95160Y-27420D01*
X95160Y-27420D02*
X94840Y-27420D01*
X89580Y-24340D02*
X89580Y-24660D01*
X90020Y-24650D02*
X90020Y-24340D01*
X90120Y-24660D02*
X89480Y-24660D01*
X89480Y-24660D02*
X89480Y-24340D01*
X89480Y-24340D02*
X90120Y-24340D01*
X90120Y-24340D02*
X90120Y-24660D01*
X91410Y-35380D02*
X91090Y-35380D01*
X91100Y-35820D02*
X91410Y-35820D01*
X91090Y-35920D02*
X91090Y-35280D01*
X91090Y-35280D02*
X91410Y-35280D01*
X91410Y-35280D02*
X91410Y-35920D01*
X91410Y-35920D02*
X91090Y-35920D01*
X96420Y-35060D02*
X96420Y-34740D01*
X95980Y-34750D02*
X95980Y-35060D01*
X95880Y-34740D02*
X96520Y-34740D01*
X96520Y-34740D02*
X96520Y-35060D01*
X96520Y-35060D02*
X95880Y-35060D01*
X95880Y-35060D02*
X95880Y-34740D01*
X92379Y-32520D02*
X92379Y-32200D01*
X91939Y-32210D02*
X91939Y-32520D01*
X91839Y-32200D02*
X92479Y-32200D01*
X92479Y-32200D02*
X92479Y-32520D01*
X92479Y-32520D02*
X91839Y-32520D01*
X91839Y-32520D02*
X91839Y-32200D01*
X89280Y-25340D02*
X89280Y-25660D01*
X89720Y-25650D02*
X89720Y-25340D01*
X89820Y-25660D02*
X89180Y-25660D01*
X89180Y-25660D02*
X89180Y-25340D01*
X89180Y-25340D02*
X89820Y-25340D01*
X89820Y-25340D02*
X89820Y-25660D01*
X81510Y-25830D02*
X81190Y-25830D01*
X81200Y-26270D02*
X81510Y-26270D01*
X81190Y-26370D02*
X81190Y-25730D01*
X81190Y-25730D02*
X81510Y-25730D01*
X81510Y-25730D02*
X81510Y-26370D01*
X81510Y-26370D02*
X81190Y-26370D01*
X88380Y-24340D02*
X88380Y-24660D01*
X88820Y-24650D02*
X88820Y-24340D01*
X88920Y-24660D02*
X88280Y-24660D01*
X88280Y-24660D02*
X88280Y-24340D01*
X88280Y-24340D02*
X88920Y-24340D01*
X88920Y-24340D02*
X88920Y-24660D01*
X83050Y-28600D02*
X82750Y-28600D01*
X82900Y-28450D02*
X82900Y-28750D01*
X83000Y-29500D02*
X81500Y-29500D01*
X83300Y-28000D02*
X83300Y-29200D01*
X83000Y-29500D02*
X83300Y-29200D01*
X83000Y-27700D02*
X81500Y-27700D01*
X83000Y-27700D02*
X83300Y-28000D01*
X81600Y-28650D02*
X81600Y-28550D01*
X81650Y-28350D02*
X81650Y-28850D01*
X81700Y-28950D02*
X81700Y-28250D01*
X81750Y-29050D02*
X81750Y-28150D01*
X81800Y-28100D02*
X81800Y-29100D01*
X81850Y-29150D02*
X81850Y-28050D01*
X81900Y-28000D02*
X81900Y-29200D01*
X81950Y-27950D02*
X81950Y-29250D01*
X83200Y-28600D02*
G75*
G03X83200Y-28600I-800J0D01*
G74*
G01*
X81500Y-27700D02*
X81500Y-29500D01*
X84629Y-31310D02*
X84629Y-30990D01*
X84189Y-31000D02*
X84189Y-31310D01*
X84089Y-30990D02*
X84729Y-30990D01*
X84729Y-30990D02*
X84729Y-31310D01*
X84729Y-31310D02*
X84089Y-31310D01*
X84089Y-31310D02*
X84089Y-30990D01*
X81390Y-35640D02*
X81090Y-35640D01*
X81240Y-35490D02*
X81240Y-35790D01*
X81340Y-36540D02*
X79840Y-36540D01*
X81640Y-35040D02*
X81640Y-36240D01*
X81340Y-36540D02*
X81640Y-36240D01*
X81340Y-34740D02*
X79840Y-34740D01*
X81340Y-34740D02*
X81640Y-35040D01*
X79940Y-35690D02*
X79940Y-35590D01*
X79990Y-35390D02*
X79990Y-35890D01*
X80040Y-35990D02*
X80040Y-35290D01*
X80090Y-36090D02*
X80090Y-35190D01*
X80140Y-35140D02*
X80140Y-36140D01*
X80190Y-36190D02*
X80190Y-35090D01*
X80240Y-35040D02*
X80240Y-36240D01*
X80290Y-34990D02*
X80290Y-36290D01*
X81540Y-35640D02*
G75*
G03X81540Y-35640I-800J0D01*
G74*
G01*
X79840Y-34740D02*
X79840Y-36540D01*
G54D20*
X78571Y-30016D02*
X78413Y-30016D01*
X78413Y-29956D01*
X78421Y-29941D01*
X78428Y-29933D01*
X78443Y-29926D01*
X78466Y-29926D01*
X78481Y-29933D01*
X78488Y-29941D01*
X78496Y-29956D01*
X78496Y-30016D01*
X78413Y-29873D02*
X78413Y-29776D01*
X78473Y-29828D01*
X78473Y-29806D01*
X78481Y-29791D01*
X78488Y-29783D01*
X78503Y-29776D01*
X78541Y-29776D01*
X78556Y-29783D01*
X78563Y-29791D01*
X78571Y-29806D01*
X78571Y-29851D01*
X78563Y-29866D01*
X78556Y-29873D01*
G54D16*
X77080Y-32661D02*
X77480Y-32395D01*
X77080Y-32395D02*
X77480Y-32661D01*
X77080Y-32242D02*
X77404Y-32242D01*
X77442Y-32223D01*
X77461Y-32204D01*
X77480Y-32166D01*
X77480Y-32090D01*
X77461Y-32052D01*
X77442Y-32033D01*
X77404Y-32014D01*
X77080Y-32014D01*
X77080Y-31804D02*
X77157Y-31842D01*
X77461Y-31652D02*
X77480Y-31614D01*
X77480Y-31538D01*
X77461Y-31499D01*
X77423Y-31480D01*
X77404Y-31480D01*
X77366Y-31499D01*
X77347Y-31538D01*
X77347Y-31595D01*
X77328Y-31633D01*
X77290Y-31652D01*
X77271Y-31652D01*
X77233Y-31633D01*
X77214Y-31595D01*
X77214Y-31538D01*
X77233Y-31499D01*
X77271Y-31004D02*
X77271Y-30871D01*
X77480Y-30814D02*
X77480Y-31004D01*
X77080Y-31004D01*
X77080Y-30814D01*
X77480Y-30680D02*
X77214Y-30471D01*
X77214Y-30680D02*
X77480Y-30471D01*
X77214Y-30376D02*
X77214Y-30223D01*
X77080Y-30319D02*
X77423Y-30319D01*
X77461Y-30299D01*
X77480Y-30261D01*
X77480Y-30223D01*
X77461Y-29938D02*
X77480Y-29976D01*
X77480Y-30052D01*
X77461Y-30090D01*
X77423Y-30109D01*
X77271Y-30109D01*
X77233Y-30090D01*
X77214Y-30052D01*
X77214Y-29976D01*
X77233Y-29938D01*
X77271Y-29919D01*
X77309Y-29919D01*
X77347Y-30109D01*
X77480Y-29747D02*
X77214Y-29747D01*
X77290Y-29747D02*
X77252Y-29728D01*
X77233Y-29709D01*
X77214Y-29671D01*
X77214Y-29633D01*
X77214Y-29499D02*
X77480Y-29499D01*
X77252Y-29499D02*
X77233Y-29480D01*
X77214Y-29442D01*
X77214Y-29385D01*
X77233Y-29347D01*
X77271Y-29328D01*
X77480Y-29328D01*
X77480Y-28966D02*
X77271Y-28966D01*
X77233Y-28985D01*
X77214Y-29023D01*
X77214Y-29099D01*
X77233Y-29138D01*
X77461Y-28966D02*
X77480Y-29004D01*
X77480Y-29099D01*
X77461Y-29138D01*
X77423Y-29157D01*
X77385Y-29157D01*
X77347Y-29138D01*
X77328Y-29099D01*
X77328Y-29004D01*
X77309Y-28966D01*
X77480Y-28719D02*
X77461Y-28757D01*
X77423Y-28776D01*
X77080Y-28776D01*
X77480Y-28261D02*
X77080Y-28261D01*
X77271Y-28261D02*
X77271Y-28033D01*
X77480Y-28033D02*
X77080Y-28033D01*
X77461Y-27690D02*
X77480Y-27728D01*
X77480Y-27804D01*
X77461Y-27842D01*
X77423Y-27861D01*
X77271Y-27861D01*
X77233Y-27842D01*
X77214Y-27804D01*
X77214Y-27728D01*
X77233Y-27690D01*
X77271Y-27671D01*
X77309Y-27671D01*
X77347Y-27861D01*
X77480Y-27328D02*
X77271Y-27328D01*
X77233Y-27347D01*
X77214Y-27385D01*
X77214Y-27461D01*
X77233Y-27500D01*
X77461Y-27328D02*
X77480Y-27366D01*
X77480Y-27461D01*
X77461Y-27500D01*
X77423Y-27519D01*
X77385Y-27519D01*
X77347Y-27500D01*
X77328Y-27461D01*
X77328Y-27366D01*
X77309Y-27328D01*
X77480Y-26966D02*
X77080Y-26966D01*
X77461Y-26966D02*
X77480Y-27004D01*
X77480Y-27080D01*
X77461Y-27119D01*
X77442Y-27138D01*
X77404Y-27157D01*
X77290Y-27157D01*
X77252Y-27138D01*
X77233Y-27119D01*
X77214Y-27080D01*
X77214Y-27004D01*
X77233Y-26966D01*
X77461Y-26623D02*
X77480Y-26661D01*
X77480Y-26738D01*
X77461Y-26776D01*
X77423Y-26795D01*
X77271Y-26795D01*
X77233Y-26776D01*
X77214Y-26738D01*
X77214Y-26661D01*
X77233Y-26623D01*
X77271Y-26604D01*
X77309Y-26604D01*
X77347Y-26795D01*
X77480Y-26433D02*
X77214Y-26433D01*
X77290Y-26433D02*
X77252Y-26414D01*
X77233Y-26395D01*
X77214Y-26357D01*
X77214Y-26319D01*
G54D21*
X82425Y-23226D02*
X82425Y-22990D01*
X82515Y-22990D01*
X82538Y-23001D01*
X82549Y-23013D01*
X82560Y-23035D01*
X82560Y-23069D01*
X82549Y-23091D01*
X82538Y-23103D01*
X82515Y-23114D01*
X82425Y-23114D01*
X82785Y-23226D02*
X82650Y-23226D01*
X82718Y-23226D02*
X82718Y-22990D01*
X82695Y-23024D01*
X82673Y-23046D01*
X82650Y-23058D01*
G54D16*
X81350Y-22495D02*
X81535Y-22495D01*
X81435Y-22610D01*
X81478Y-22610D01*
X81507Y-22624D01*
X81521Y-22638D01*
X81535Y-22667D01*
X81535Y-22738D01*
X81521Y-22767D01*
X81507Y-22781D01*
X81478Y-22795D01*
X81392Y-22795D01*
X81364Y-22781D01*
X81350Y-22767D01*
X81664Y-22767D02*
X81678Y-22781D01*
X81664Y-22795D01*
X81650Y-22781D01*
X81664Y-22767D01*
X81664Y-22795D01*
X81778Y-22495D02*
X81964Y-22495D01*
X81864Y-22610D01*
X81907Y-22610D01*
X81935Y-22624D01*
X81950Y-22638D01*
X81964Y-22667D01*
X81964Y-22738D01*
X81950Y-22767D01*
X81935Y-22781D01*
X81907Y-22795D01*
X81821Y-22795D01*
X81792Y-22781D01*
X81778Y-22767D01*
X82050Y-22495D02*
X82150Y-22795D01*
X82250Y-22495D01*
X82578Y-22495D02*
X82578Y-22738D01*
X82592Y-22767D01*
X82607Y-22781D01*
X82635Y-22795D01*
X82692Y-22795D01*
X82721Y-22781D01*
X82735Y-22767D01*
X82750Y-22738D01*
X82750Y-22495D01*
X82878Y-22781D02*
X82921Y-22795D01*
X82992Y-22795D01*
X83021Y-22781D01*
X83035Y-22767D01*
X83050Y-22738D01*
X83050Y-22710D01*
X83035Y-22681D01*
X83021Y-22667D01*
X82992Y-22652D01*
X82935Y-22638D01*
X82907Y-22624D01*
X82892Y-22610D01*
X82878Y-22581D01*
X82878Y-22552D01*
X82892Y-22524D01*
X82907Y-22510D01*
X82935Y-22495D01*
X83007Y-22495D01*
X83050Y-22510D01*
X83164Y-22710D02*
X83307Y-22710D01*
X83135Y-22795D02*
X83235Y-22495D01*
X83335Y-22795D01*
X83607Y-22795D02*
X83507Y-22652D01*
X83435Y-22795D02*
X83435Y-22495D01*
X83550Y-22495D01*
X83578Y-22510D01*
X83592Y-22524D01*
X83607Y-22552D01*
X83607Y-22595D01*
X83592Y-22624D01*
X83578Y-22638D01*
X83550Y-22652D01*
X83435Y-22652D01*
X83692Y-22495D02*
X83864Y-22495D01*
X83778Y-22795D02*
X83778Y-22495D01*
G54D22*
X88625Y-23226D02*
X88625Y-22990D01*
X88715Y-22990D01*
X88738Y-23001D01*
X88749Y-23013D01*
X88760Y-23035D01*
X88760Y-23069D01*
X88749Y-23091D01*
X88738Y-23103D01*
X88715Y-23114D01*
X88625Y-23114D01*
X88963Y-23069D02*
X88963Y-23226D01*
X88906Y-22979D02*
X88850Y-23148D01*
X88996Y-23148D01*
G54D16*
X88007Y-22495D02*
X88192Y-22495D01*
X88092Y-22610D01*
X88135Y-22610D01*
X88164Y-22624D01*
X88178Y-22638D01*
X88192Y-22667D01*
X88192Y-22738D01*
X88178Y-22767D01*
X88164Y-22781D01*
X88135Y-22795D01*
X88050Y-22795D01*
X88021Y-22781D01*
X88007Y-22767D01*
X88321Y-22767D02*
X88335Y-22781D01*
X88321Y-22795D01*
X88307Y-22781D01*
X88321Y-22767D01*
X88321Y-22795D01*
X88435Y-22495D02*
X88621Y-22495D01*
X88521Y-22610D01*
X88564Y-22610D01*
X88592Y-22624D01*
X88607Y-22638D01*
X88621Y-22667D01*
X88621Y-22738D01*
X88607Y-22767D01*
X88592Y-22781D01*
X88564Y-22795D01*
X88478Y-22795D01*
X88450Y-22781D01*
X88435Y-22767D01*
X88964Y-22781D02*
X89007Y-22795D01*
X89078Y-22795D01*
X89107Y-22781D01*
X89121Y-22767D01*
X89135Y-22738D01*
X89135Y-22710D01*
X89121Y-22681D01*
X89107Y-22667D01*
X89078Y-22652D01*
X89021Y-22638D01*
X88992Y-22624D01*
X88978Y-22610D01*
X88964Y-22581D01*
X88964Y-22552D01*
X88978Y-22524D01*
X88992Y-22510D01*
X89021Y-22495D01*
X89092Y-22495D01*
X89135Y-22510D01*
X89264Y-22795D02*
X89264Y-22495D01*
X89378Y-22495D01*
X89407Y-22510D01*
X89421Y-22524D01*
X89435Y-22552D01*
X89435Y-22595D01*
X89421Y-22624D01*
X89407Y-22638D01*
X89378Y-22652D01*
X89264Y-22652D01*
X89564Y-22795D02*
X89564Y-22495D01*
G54D23*
X88787Y-35906D02*
X88787Y-35670D01*
X89023Y-35906D02*
X88888Y-35906D01*
X88956Y-35906D02*
X88956Y-35670D01*
X88933Y-35704D01*
X88911Y-35726D01*
X88888Y-35738D01*
G54D16*
X88164Y-36485D02*
X87992Y-36485D01*
X88078Y-36485D02*
X88078Y-36185D01*
X88050Y-36228D01*
X88021Y-36257D01*
X87992Y-36271D01*
X88292Y-36457D02*
X88307Y-36471D01*
X88292Y-36485D01*
X88278Y-36471D01*
X88292Y-36457D01*
X88292Y-36485D01*
X88478Y-36314D02*
X88450Y-36300D01*
X88435Y-36285D01*
X88421Y-36257D01*
X88421Y-36242D01*
X88435Y-36214D01*
X88450Y-36200D01*
X88478Y-36185D01*
X88535Y-36185D01*
X88564Y-36200D01*
X88578Y-36214D01*
X88592Y-36242D01*
X88592Y-36257D01*
X88578Y-36285D01*
X88564Y-36300D01*
X88535Y-36314D01*
X88478Y-36314D01*
X88450Y-36328D01*
X88435Y-36342D01*
X88421Y-36371D01*
X88421Y-36428D01*
X88435Y-36457D01*
X88450Y-36471D01*
X88478Y-36485D01*
X88535Y-36485D01*
X88564Y-36471D01*
X88578Y-36457D01*
X88592Y-36428D01*
X88592Y-36371D01*
X88578Y-36342D01*
X88564Y-36328D01*
X88535Y-36314D01*
X88678Y-36185D02*
X88778Y-36485D01*
X88878Y-36185D01*
X89207Y-36485D02*
X89207Y-36185D01*
X89335Y-36214D02*
X89350Y-36200D01*
X89378Y-36185D01*
X89450Y-36185D01*
X89478Y-36200D01*
X89492Y-36214D01*
X89507Y-36242D01*
X89507Y-36271D01*
X89492Y-36314D01*
X89321Y-36485D01*
X89507Y-36485D01*
X89807Y-36457D02*
X89792Y-36471D01*
X89749Y-36485D01*
X89721Y-36485D01*
X89678Y-36471D01*
X89649Y-36442D01*
X89635Y-36414D01*
X89621Y-36357D01*
X89621Y-36314D01*
X89635Y-36257D01*
X89649Y-36228D01*
X89678Y-36200D01*
X89721Y-36185D01*
X89749Y-36185D01*
X89792Y-36200D01*
X89807Y-36214D01*
G54D23*
X84025Y-35406D02*
X84025Y-35170D01*
X84115Y-35170D01*
X84138Y-35181D01*
X84149Y-35193D01*
X84160Y-35215D01*
X84160Y-35249D01*
X84149Y-35271D01*
X84138Y-35283D01*
X84115Y-35294D01*
X84025Y-35294D01*
X84374Y-35170D02*
X84261Y-35170D01*
X84250Y-35283D01*
X84261Y-35271D01*
X84284Y-35260D01*
X84340Y-35260D01*
X84363Y-35271D01*
X84374Y-35283D01*
X84385Y-35305D01*
X84385Y-35361D01*
X84374Y-35384D01*
X84363Y-35395D01*
X84340Y-35406D01*
X84284Y-35406D01*
X84261Y-35395D01*
X84250Y-35384D01*
G54D16*
X83028Y-36485D02*
X83028Y-36185D01*
X83142Y-36185D01*
X83171Y-36200D01*
X83185Y-36214D01*
X83200Y-36242D01*
X83200Y-36285D01*
X83185Y-36314D01*
X83171Y-36328D01*
X83142Y-36342D01*
X83028Y-36342D01*
X83371Y-36485D02*
X83342Y-36471D01*
X83328Y-36457D01*
X83314Y-36428D01*
X83314Y-36342D01*
X83328Y-36314D01*
X83342Y-36300D01*
X83371Y-36285D01*
X83414Y-36285D01*
X83442Y-36300D01*
X83457Y-36314D01*
X83471Y-36342D01*
X83471Y-36428D01*
X83457Y-36457D01*
X83442Y-36471D01*
X83414Y-36485D01*
X83371Y-36485D01*
X83571Y-36285D02*
X83628Y-36485D01*
X83685Y-36342D01*
X83742Y-36485D01*
X83800Y-36285D01*
X84028Y-36471D02*
X84000Y-36485D01*
X83942Y-36485D01*
X83914Y-36471D01*
X83900Y-36442D01*
X83900Y-36328D01*
X83914Y-36300D01*
X83942Y-36285D01*
X84000Y-36285D01*
X84028Y-36300D01*
X84042Y-36328D01*
X84042Y-36357D01*
X83900Y-36385D01*
X84171Y-36485D02*
X84171Y-36285D01*
X84171Y-36342D02*
X84185Y-36314D01*
X84200Y-36300D01*
X84228Y-36285D01*
X84257Y-36285D01*
X84585Y-36485D02*
X84585Y-36185D01*
X84700Y-36185D01*
X84728Y-36200D01*
X84742Y-36214D01*
X84757Y-36242D01*
X84757Y-36285D01*
X84742Y-36314D01*
X84728Y-36328D01*
X84700Y-36342D01*
X84585Y-36342D01*
X84928Y-36485D02*
X84900Y-36471D01*
X84885Y-36457D01*
X84871Y-36428D01*
X84871Y-36342D01*
X84885Y-36314D01*
X84900Y-36300D01*
X84928Y-36285D01*
X84971Y-36285D01*
X85000Y-36300D01*
X85014Y-36314D01*
X85028Y-36342D01*
X85028Y-36428D01*
X85014Y-36457D01*
X85000Y-36471D01*
X84971Y-36485D01*
X84928Y-36485D01*
X85157Y-36485D02*
X85157Y-36285D01*
X85157Y-36342D02*
X85171Y-36314D01*
X85185Y-36300D01*
X85214Y-36285D01*
X85242Y-36285D01*
X85300Y-36285D02*
X85414Y-36285D01*
X85342Y-36185D02*
X85342Y-36442D01*
X85357Y-36471D01*
X85385Y-36485D01*
X85414Y-36485D01*
G54D22*
X93487Y-35906D02*
X93487Y-35670D01*
X93588Y-35693D02*
X93600Y-35681D01*
X93622Y-35670D01*
X93678Y-35670D01*
X93701Y-35681D01*
X93712Y-35693D01*
X93723Y-35715D01*
X93723Y-35738D01*
X93712Y-35771D01*
X93577Y-35906D01*
X93723Y-35906D01*
G54D16*
X92800Y-36328D02*
X92900Y-36328D01*
X92942Y-36485D02*
X92800Y-36485D01*
X92800Y-36185D01*
X92942Y-36185D01*
X93042Y-36185D02*
X93242Y-36485D01*
X93242Y-36185D02*
X93042Y-36485D01*
X93314Y-36185D02*
X93485Y-36185D01*
X93400Y-36485D02*
X93400Y-36185D01*
X93814Y-36485D02*
X93814Y-36185D01*
X93942Y-36214D02*
X93957Y-36200D01*
X93985Y-36185D01*
X94057Y-36185D01*
X94085Y-36200D01*
X94100Y-36214D01*
X94114Y-36242D01*
X94114Y-36271D01*
X94100Y-36314D01*
X93928Y-36485D01*
X94114Y-36485D01*
X94414Y-36457D02*
X94399Y-36471D01*
X94357Y-36485D01*
X94328Y-36485D01*
X94285Y-36471D01*
X94257Y-36442D01*
X94242Y-36414D01*
X94228Y-36357D01*
X94228Y-36314D01*
X94242Y-36257D01*
X94257Y-36228D01*
X94285Y-36200D01*
X94328Y-36185D01*
X94357Y-36185D01*
X94399Y-36200D01*
X94414Y-36214D01*
G54D22*
X96195Y-24414D02*
X96206Y-24381D01*
X96206Y-24324D01*
X96195Y-24302D01*
X96184Y-24291D01*
X96161Y-24279D01*
X96139Y-24279D01*
X96116Y-24291D01*
X96105Y-24302D01*
X96094Y-24324D01*
X96083Y-24369D01*
X96071Y-24392D01*
X96060Y-24403D01*
X96038Y-24414D01*
X96015Y-24414D01*
X95993Y-24403D01*
X95981Y-24392D01*
X95970Y-24369D01*
X95970Y-24313D01*
X95981Y-24279D01*
X95970Y-24201D02*
X96206Y-24144D01*
X96038Y-24100D01*
X96206Y-24055D01*
X95970Y-23998D01*
X96206Y-23785D02*
X96206Y-23920D01*
X96206Y-23852D02*
X95970Y-23852D01*
X96004Y-23875D01*
X96026Y-23897D01*
X96038Y-23920D01*
G54D17*
X96667Y-24807D02*
X96517Y-24807D01*
X96517Y-24750D01*
X96525Y-24735D01*
X96532Y-24728D01*
X96546Y-24721D01*
X96567Y-24721D01*
X96582Y-24728D01*
X96589Y-24735D01*
X96596Y-24750D01*
X96596Y-24807D01*
X96667Y-24635D02*
X96660Y-24650D01*
X96653Y-24657D01*
X96639Y-24664D01*
X96596Y-24664D01*
X96582Y-24657D01*
X96575Y-24650D01*
X96567Y-24635D01*
X96567Y-24614D01*
X96575Y-24600D01*
X96582Y-24592D01*
X96596Y-24585D01*
X96639Y-24585D01*
X96653Y-24592D01*
X96660Y-24600D01*
X96667Y-24614D01*
X96667Y-24635D01*
X96567Y-24535D02*
X96667Y-24507D01*
X96596Y-24478D01*
X96667Y-24450D01*
X96567Y-24421D01*
X96660Y-24307D02*
X96667Y-24321D01*
X96667Y-24350D01*
X96660Y-24364D01*
X96646Y-24371D01*
X96589Y-24371D01*
X96575Y-24364D01*
X96567Y-24350D01*
X96567Y-24321D01*
X96575Y-24307D01*
X96589Y-24300D01*
X96603Y-24300D01*
X96617Y-24371D01*
X96667Y-24235D02*
X96567Y-24235D01*
X96596Y-24235D02*
X96582Y-24228D01*
X96575Y-24221D01*
X96567Y-24207D01*
X96567Y-24192D01*
X96517Y-24000D02*
X96517Y-23971D01*
X96525Y-23957D01*
X96539Y-23942D01*
X96567Y-23935D01*
X96617Y-23935D01*
X96646Y-23942D01*
X96660Y-23957D01*
X96667Y-23971D01*
X96667Y-24000D01*
X96660Y-24014D01*
X96646Y-24028D01*
X96617Y-24035D01*
X96567Y-24035D01*
X96539Y-24028D01*
X96525Y-24014D01*
X96517Y-24000D01*
X96567Y-23871D02*
X96667Y-23871D01*
X96582Y-23871D02*
X96575Y-23864D01*
X96567Y-23850D01*
X96567Y-23828D01*
X96575Y-23814D01*
X96589Y-23807D01*
X96667Y-23807D01*
X96517Y-23635D02*
X96667Y-23535D01*
X96517Y-23535D02*
X96667Y-23635D01*
X96517Y-23478D02*
X96639Y-23478D01*
X96653Y-23471D01*
X96660Y-23464D01*
X96667Y-23450D01*
X96667Y-23421D01*
X96660Y-23407D01*
X96653Y-23400D01*
X96639Y-23392D01*
X96517Y-23392D01*
G54D24*
X95756Y-29993D02*
X95793Y-29993D01*
X95748Y-30015D02*
X95775Y-29936D01*
X95801Y-30015D01*
X95861Y-30015D02*
X95861Y-29936D01*
X95861Y-30011D02*
X95853Y-30015D01*
X95838Y-30015D01*
X95831Y-30011D01*
X95827Y-30008D01*
X95823Y-30000D01*
X95823Y-29978D01*
X95827Y-29970D01*
X95831Y-29966D01*
X95838Y-29963D01*
X95853Y-29963D01*
X95861Y-29966D01*
X95932Y-30015D02*
X95932Y-29974D01*
X95928Y-29966D01*
X95921Y-29963D01*
X95906Y-29963D01*
X95898Y-29966D01*
X95932Y-30011D02*
X95925Y-30015D01*
X95906Y-30015D01*
X95898Y-30011D01*
X95895Y-30004D01*
X95895Y-29996D01*
X95898Y-29989D01*
X95906Y-29985D01*
X95925Y-29985D01*
X95932Y-29981D01*
X95970Y-29963D02*
X95970Y-30041D01*
X95970Y-29966D02*
X95977Y-29963D01*
X95992Y-29963D01*
X96000Y-29966D01*
X96003Y-29970D01*
X96007Y-29978D01*
X96007Y-30000D01*
X96003Y-30008D01*
X96000Y-30011D01*
X95992Y-30015D01*
X95977Y-30015D01*
X95970Y-30011D01*
X96029Y-29963D02*
X96059Y-29963D01*
X96041Y-29936D02*
X96041Y-30004D01*
X96044Y-30011D01*
X96052Y-30015D01*
X96059Y-30015D01*
X96116Y-30011D02*
X96108Y-30015D01*
X96093Y-30015D01*
X96086Y-30011D01*
X96082Y-30004D01*
X96082Y-29974D01*
X96086Y-29966D01*
X96093Y-29963D01*
X96108Y-29963D01*
X96116Y-29966D01*
X96119Y-29974D01*
X96119Y-29981D01*
X96082Y-29989D01*
X96153Y-30015D02*
X96153Y-29963D01*
X96153Y-29978D02*
X96157Y-29970D01*
X96161Y-29966D01*
X96168Y-29963D01*
X96176Y-29963D01*
X96243Y-30015D02*
X96198Y-30015D01*
X96221Y-30015D02*
X96221Y-29936D01*
X96213Y-29948D01*
X96206Y-29955D01*
X96198Y-29959D01*
G54D21*
X95421Y-30549D02*
X95263Y-30549D01*
X95263Y-30489D01*
X95271Y-30474D01*
X95278Y-30467D01*
X95293Y-30459D01*
X95316Y-30459D01*
X95331Y-30467D01*
X95338Y-30474D01*
X95346Y-30489D01*
X95346Y-30549D01*
X95406Y-30302D02*
X95413Y-30309D01*
X95421Y-30332D01*
X95421Y-30347D01*
X95413Y-30369D01*
X95398Y-30384D01*
X95383Y-30392D01*
X95353Y-30399D01*
X95331Y-30399D01*
X95301Y-30392D01*
X95286Y-30384D01*
X95271Y-30369D01*
X95263Y-30347D01*
X95263Y-30332D01*
X95271Y-30309D01*
X95278Y-30302D01*
X95376Y-30242D02*
X95376Y-30167D01*
X95421Y-30257D02*
X95263Y-30204D01*
X95421Y-30152D01*
X95421Y-30092D02*
X95421Y-30062D01*
X95413Y-30047D01*
X95406Y-30039D01*
X95383Y-30024D01*
X95353Y-30017D01*
X95293Y-30017D01*
X95278Y-30024D01*
X95271Y-30032D01*
X95263Y-30047D01*
X95263Y-30077D01*
X95271Y-30092D01*
X95278Y-30099D01*
X95293Y-30107D01*
X95331Y-30107D01*
X95346Y-30099D01*
X95353Y-30092D01*
X95361Y-30077D01*
X95361Y-30047D01*
X95353Y-30032D01*
X95346Y-30024D01*
X95331Y-30017D01*
X95263Y-29882D02*
X95263Y-29912D01*
X95271Y-29927D01*
X95278Y-29934D01*
X95301Y-29949D01*
X95331Y-29957D01*
X95391Y-29957D01*
X95406Y-29949D01*
X95413Y-29942D01*
X95421Y-29927D01*
X95421Y-29897D01*
X95413Y-29882D01*
X95406Y-29874D01*
X95391Y-29867D01*
X95353Y-29867D01*
X95338Y-29874D01*
X95331Y-29882D01*
X95323Y-29897D01*
X95323Y-29927D01*
X95331Y-29942D01*
X95338Y-29949D01*
X95353Y-29957D01*
X95421Y-29792D02*
X95421Y-29762D01*
X95413Y-29747D01*
X95406Y-29739D01*
X95383Y-29724D01*
X95353Y-29717D01*
X95293Y-29717D01*
X95278Y-29724D01*
X95271Y-29732D01*
X95263Y-29747D01*
X95263Y-29777D01*
X95271Y-29792D01*
X95278Y-29799D01*
X95293Y-29807D01*
X95331Y-29807D01*
X95346Y-29799D01*
X95353Y-29792D01*
X95361Y-29777D01*
X95361Y-29747D01*
X95353Y-29732D01*
X95346Y-29724D01*
X95331Y-29717D01*
X95331Y-29627D02*
X95323Y-29642D01*
X95316Y-29649D01*
X95301Y-29657D01*
X95293Y-29657D01*
X95278Y-29649D01*
X95271Y-29642D01*
X95263Y-29627D01*
X95263Y-29597D01*
X95271Y-29582D01*
X95278Y-29574D01*
X95293Y-29567D01*
X95301Y-29567D01*
X95316Y-29574D01*
X95323Y-29582D01*
X95331Y-29597D01*
X95331Y-29627D01*
X95338Y-29642D01*
X95346Y-29649D01*
X95361Y-29657D01*
X95391Y-29657D01*
X95406Y-29649D01*
X95413Y-29642D01*
X95421Y-29627D01*
X95421Y-29597D01*
X95413Y-29582D01*
X95406Y-29574D01*
X95391Y-29567D01*
X95361Y-29567D01*
X95346Y-29574D01*
X95338Y-29582D01*
X95331Y-29597D01*
X95436Y-29537D02*
X95436Y-29417D01*
X95376Y-29387D02*
X95376Y-29312D01*
X95421Y-29402D02*
X95263Y-29350D01*
X95421Y-29297D01*
X95421Y-29245D02*
X95263Y-29245D01*
X95263Y-29207D01*
X95271Y-29185D01*
X95286Y-29170D01*
X95301Y-29162D01*
X95331Y-29155D01*
X95353Y-29155D01*
X95383Y-29162D01*
X95398Y-29170D01*
X95413Y-29185D01*
X95421Y-29207D01*
X95421Y-29245D01*
X95376Y-29095D02*
X95376Y-29020D01*
X95421Y-29110D02*
X95263Y-29057D01*
X95421Y-29005D01*
X95421Y-28952D02*
X95263Y-28952D01*
X95263Y-28892D01*
X95271Y-28877D01*
X95278Y-28870D01*
X95293Y-28862D01*
X95316Y-28862D01*
X95331Y-28870D01*
X95338Y-28877D01*
X95346Y-28892D01*
X95346Y-28952D01*
X95263Y-28817D02*
X95263Y-28727D01*
X95421Y-28772D02*
X95263Y-28772D01*
X95338Y-28675D02*
X95338Y-28622D01*
X95421Y-28600D02*
X95421Y-28675D01*
X95263Y-28675D01*
X95263Y-28600D01*
X95421Y-28442D02*
X95346Y-28495D01*
X95421Y-28532D02*
X95263Y-28532D01*
X95263Y-28472D01*
X95271Y-28457D01*
X95278Y-28450D01*
X95293Y-28442D01*
X95316Y-28442D01*
X95331Y-28450D01*
X95338Y-28457D01*
X95346Y-28472D01*
X95346Y-28532D01*
X97283Y-29571D02*
X97283Y-29413D01*
X97343Y-29413D01*
X97358Y-29421D01*
X97366Y-29428D01*
X97373Y-29443D01*
X97373Y-29466D01*
X97366Y-29481D01*
X97358Y-29488D01*
X97343Y-29496D01*
X97283Y-29496D01*
X97433Y-29428D02*
X97441Y-29421D01*
X97456Y-29413D01*
X97493Y-29413D01*
X97508Y-29421D01*
X97516Y-29428D01*
X97523Y-29443D01*
X97523Y-29458D01*
X97516Y-29481D01*
X97426Y-29571D01*
X97523Y-29571D01*
G54D16*
X98128Y-31135D02*
X98128Y-31035D01*
X98285Y-30992D02*
X98285Y-31135D01*
X97985Y-31135D01*
X97985Y-30992D01*
X98285Y-30892D02*
X98085Y-30735D01*
X98085Y-30892D02*
X98285Y-30735D01*
X98085Y-30621D02*
X98385Y-30621D01*
X98100Y-30621D02*
X98085Y-30592D01*
X98085Y-30535D01*
X98100Y-30507D01*
X98114Y-30492D01*
X98142Y-30478D01*
X98228Y-30478D01*
X98257Y-30492D01*
X98271Y-30507D01*
X98285Y-30535D01*
X98285Y-30592D01*
X98271Y-30621D01*
X98285Y-30221D02*
X98128Y-30221D01*
X98100Y-30235D01*
X98085Y-30264D01*
X98085Y-30321D01*
X98100Y-30350D01*
X98271Y-30221D02*
X98285Y-30250D01*
X98285Y-30321D01*
X98271Y-30350D01*
X98242Y-30364D01*
X98214Y-30364D01*
X98185Y-30350D01*
X98171Y-30321D01*
X98171Y-30250D01*
X98157Y-30221D01*
X98085Y-30078D02*
X98285Y-30078D01*
X98114Y-30078D02*
X98100Y-30064D01*
X98085Y-30035D01*
X98085Y-29992D01*
X98100Y-29964D01*
X98128Y-29950D01*
X98285Y-29950D01*
X98271Y-29821D02*
X98285Y-29792D01*
X98285Y-29735D01*
X98271Y-29707D01*
X98242Y-29692D01*
X98228Y-29692D01*
X98200Y-29707D01*
X98185Y-29735D01*
X98185Y-29778D01*
X98171Y-29807D01*
X98142Y-29821D01*
X98128Y-29821D01*
X98100Y-29807D01*
X98085Y-29778D01*
X98085Y-29735D01*
X98100Y-29707D01*
X98285Y-29564D02*
X98085Y-29564D01*
X97985Y-29564D02*
X98000Y-29578D01*
X98014Y-29564D01*
X98000Y-29550D01*
X97985Y-29564D01*
X98014Y-29564D01*
X98285Y-29378D02*
X98271Y-29407D01*
X98257Y-29421D01*
X98228Y-29435D01*
X98142Y-29435D01*
X98114Y-29421D01*
X98100Y-29407D01*
X98085Y-29378D01*
X98085Y-29335D01*
X98100Y-29307D01*
X98114Y-29292D01*
X98142Y-29278D01*
X98228Y-29278D01*
X98257Y-29292D01*
X98271Y-29307D01*
X98285Y-29335D01*
X98285Y-29378D01*
X98085Y-29149D02*
X98285Y-29149D01*
X98114Y-29149D02*
X98100Y-29135D01*
X98085Y-29107D01*
X98085Y-29064D01*
X98100Y-29035D01*
X98128Y-29021D01*
X98285Y-29021D01*
X98285Y-28649D02*
X97985Y-28649D01*
X97985Y-28535D01*
X98000Y-28507D01*
X98014Y-28492D01*
X98042Y-28478D01*
X98085Y-28478D01*
X98114Y-28492D01*
X98128Y-28507D01*
X98142Y-28535D01*
X98142Y-28649D01*
X98285Y-28307D02*
X98271Y-28335D01*
X98257Y-28349D01*
X98228Y-28364D01*
X98142Y-28364D01*
X98114Y-28349D01*
X98100Y-28335D01*
X98085Y-28307D01*
X98085Y-28264D01*
X98100Y-28235D01*
X98114Y-28221D01*
X98142Y-28207D01*
X98228Y-28207D01*
X98257Y-28221D01*
X98271Y-28235D01*
X98285Y-28264D01*
X98285Y-28307D01*
X98285Y-28078D02*
X98085Y-28078D01*
X98142Y-28078D02*
X98114Y-28064D01*
X98100Y-28049D01*
X98085Y-28021D01*
X98085Y-27992D01*
X98085Y-27935D02*
X98085Y-27821D01*
X97985Y-27892D02*
X98242Y-27892D01*
X98271Y-27878D01*
X98285Y-27849D01*
X98285Y-27821D01*
G54D21*
X94086Y-26524D02*
X94078Y-26539D01*
X94063Y-26554D01*
X94041Y-26577D01*
X94033Y-26592D01*
X94033Y-26607D01*
X94071Y-26599D02*
X94063Y-26614D01*
X94048Y-26629D01*
X94018Y-26637D01*
X93966Y-26637D01*
X93936Y-26629D01*
X93921Y-26614D01*
X93913Y-26599D01*
X93913Y-26569D01*
X93921Y-26554D01*
X93936Y-26539D01*
X93966Y-26532D01*
X94018Y-26532D01*
X94048Y-26539D01*
X94063Y-26554D01*
X94071Y-26569D01*
X94071Y-26599D01*
X93913Y-26390D02*
X93913Y-26465D01*
X93988Y-26472D01*
X93981Y-26465D01*
X93973Y-26450D01*
X93973Y-26412D01*
X93981Y-26397D01*
X93988Y-26390D01*
X94003Y-26382D01*
X94041Y-26382D01*
X94056Y-26390D01*
X94063Y-26397D01*
X94071Y-26412D01*
X94071Y-26450D01*
X94063Y-26465D01*
X94056Y-26472D01*
G54D25*
X93616Y-26366D02*
X93616Y-26319D01*
X93645Y-26376D02*
X93545Y-26342D01*
X93645Y-26309D01*
X93545Y-26257D02*
X93545Y-26238D01*
X93550Y-26228D01*
X93559Y-26219D01*
X93578Y-26214D01*
X93611Y-26214D01*
X93630Y-26219D01*
X93640Y-26228D01*
X93645Y-26238D01*
X93645Y-26257D01*
X93640Y-26266D01*
X93630Y-26276D01*
X93611Y-26280D01*
X93578Y-26280D01*
X93559Y-26276D01*
X93550Y-26266D01*
X93545Y-26257D01*
X93545Y-26180D02*
X93545Y-26119D01*
X93583Y-26152D01*
X93583Y-26138D01*
X93588Y-26128D01*
X93592Y-26123D01*
X93602Y-26119D01*
X93626Y-26119D01*
X93635Y-26123D01*
X93640Y-26128D01*
X93645Y-26138D01*
X93645Y-26166D01*
X93640Y-26176D01*
X93635Y-26180D01*
X93578Y-26033D02*
X93645Y-26033D01*
X93540Y-26057D02*
X93611Y-26080D01*
X93611Y-26019D01*
X93545Y-25961D02*
X93545Y-25952D01*
X93550Y-25942D01*
X93554Y-25938D01*
X93564Y-25933D01*
X93583Y-25928D01*
X93607Y-25928D01*
X93626Y-25933D01*
X93635Y-25938D01*
X93640Y-25942D01*
X93645Y-25952D01*
X93645Y-25961D01*
X93640Y-25971D01*
X93635Y-25976D01*
X93626Y-25980D01*
X93607Y-25985D01*
X93583Y-25985D01*
X93564Y-25980D01*
X93554Y-25976D01*
X93550Y-25971D01*
X93545Y-25961D01*
X93645Y-25833D02*
X93645Y-25890D01*
X93645Y-25861D02*
X93545Y-25861D01*
X93559Y-25871D01*
X93569Y-25880D01*
X93573Y-25890D01*
G54D21*
X91686Y-25704D02*
X91678Y-25719D01*
X91663Y-25734D01*
X91641Y-25757D01*
X91633Y-25772D01*
X91633Y-25787D01*
X91671Y-25779D02*
X91663Y-25794D01*
X91648Y-25809D01*
X91618Y-25817D01*
X91566Y-25817D01*
X91536Y-25809D01*
X91521Y-25794D01*
X91513Y-25779D01*
X91513Y-25749D01*
X91521Y-25734D01*
X91536Y-25719D01*
X91566Y-25712D01*
X91618Y-25712D01*
X91648Y-25719D01*
X91663Y-25734D01*
X91671Y-25749D01*
X91671Y-25779D01*
X91513Y-25577D02*
X91513Y-25607D01*
X91521Y-25622D01*
X91528Y-25630D01*
X91551Y-25645D01*
X91581Y-25652D01*
X91641Y-25652D01*
X91656Y-25645D01*
X91663Y-25637D01*
X91671Y-25622D01*
X91671Y-25592D01*
X91663Y-25577D01*
X91656Y-25570D01*
X91641Y-25562D01*
X91603Y-25562D01*
X91588Y-25570D01*
X91581Y-25577D01*
X91573Y-25592D01*
X91573Y-25622D01*
X91581Y-25637D01*
X91588Y-25645D01*
X91603Y-25652D01*
G54D25*
X92045Y-26478D02*
X91945Y-26478D01*
X92045Y-26373D02*
X91997Y-26407D01*
X92045Y-26430D02*
X91945Y-26430D01*
X91945Y-26392D01*
X91950Y-26383D01*
X91954Y-26378D01*
X91964Y-26373D01*
X91978Y-26373D01*
X91988Y-26378D01*
X91992Y-26383D01*
X91997Y-26392D01*
X91997Y-26430D01*
X92045Y-26283D02*
X92045Y-26330D01*
X91945Y-26330D01*
X92045Y-26250D02*
X91945Y-26250D01*
X92016Y-26216D01*
X91945Y-26183D01*
X92045Y-26183D01*
X92045Y-26088D02*
X92045Y-26135D01*
X91945Y-26135D01*
X91954Y-26059D02*
X91950Y-26054D01*
X91945Y-26045D01*
X91945Y-26021D01*
X91950Y-26011D01*
X91954Y-26007D01*
X91964Y-26002D01*
X91973Y-26002D01*
X91988Y-26007D01*
X92045Y-26064D01*
X92045Y-26002D01*
X91945Y-25911D02*
X91945Y-25959D01*
X91992Y-25964D01*
X91988Y-25959D01*
X91983Y-25950D01*
X91983Y-25926D01*
X91988Y-25916D01*
X91992Y-25911D01*
X92002Y-25907D01*
X92026Y-25907D01*
X92035Y-25911D01*
X92040Y-25916D01*
X92045Y-25926D01*
X92045Y-25950D01*
X92040Y-25959D01*
X92035Y-25964D01*
X91945Y-25845D02*
X91945Y-25835D01*
X91950Y-25826D01*
X91954Y-25821D01*
X91964Y-25816D01*
X91983Y-25811D01*
X92007Y-25811D01*
X92026Y-25816D01*
X92035Y-25821D01*
X92040Y-25826D01*
X92045Y-25835D01*
X92045Y-25845D01*
X92040Y-25854D01*
X92035Y-25859D01*
X92026Y-25864D01*
X92007Y-25869D01*
X91983Y-25869D01*
X91964Y-25864D01*
X91954Y-25859D01*
X91950Y-25854D01*
X91945Y-25845D01*
X91954Y-25773D02*
X91950Y-25769D01*
X91945Y-25759D01*
X91945Y-25735D01*
X91950Y-25726D01*
X91954Y-25721D01*
X91964Y-25716D01*
X91973Y-25716D01*
X91988Y-25721D01*
X92045Y-25778D01*
X92045Y-25716D01*
G54D21*
X94086Y-28164D02*
X94078Y-28179D01*
X94063Y-28194D01*
X94041Y-28217D01*
X94033Y-28232D01*
X94033Y-28247D01*
X94071Y-28239D02*
X94063Y-28254D01*
X94048Y-28269D01*
X94018Y-28277D01*
X93966Y-28277D01*
X93936Y-28269D01*
X93921Y-28254D01*
X93913Y-28239D01*
X93913Y-28209D01*
X93921Y-28194D01*
X93936Y-28179D01*
X93966Y-28172D01*
X94018Y-28172D01*
X94048Y-28179D01*
X94063Y-28194D01*
X94071Y-28209D01*
X94071Y-28239D01*
X93913Y-28120D02*
X93913Y-28015D01*
X94071Y-28082D01*
G54D25*
X93645Y-28078D02*
X93545Y-28078D01*
X93645Y-27973D02*
X93597Y-28007D01*
X93645Y-28030D02*
X93545Y-28030D01*
X93545Y-27992D01*
X93550Y-27983D01*
X93554Y-27978D01*
X93564Y-27973D01*
X93578Y-27973D01*
X93588Y-27978D01*
X93592Y-27983D01*
X93597Y-27992D01*
X93597Y-28030D01*
X93645Y-27883D02*
X93645Y-27930D01*
X93545Y-27930D01*
X93645Y-27850D02*
X93545Y-27850D01*
X93616Y-27816D01*
X93545Y-27783D01*
X93645Y-27783D01*
X93645Y-27688D02*
X93645Y-27735D01*
X93545Y-27735D01*
X93554Y-27659D02*
X93550Y-27654D01*
X93545Y-27645D01*
X93545Y-27621D01*
X93550Y-27611D01*
X93554Y-27607D01*
X93564Y-27602D01*
X93573Y-27602D01*
X93588Y-27607D01*
X93645Y-27664D01*
X93645Y-27602D01*
X93545Y-27511D02*
X93545Y-27559D01*
X93592Y-27564D01*
X93588Y-27559D01*
X93583Y-27550D01*
X93583Y-27526D01*
X93588Y-27516D01*
X93592Y-27511D01*
X93602Y-27507D01*
X93626Y-27507D01*
X93635Y-27511D01*
X93640Y-27516D01*
X93645Y-27526D01*
X93645Y-27550D01*
X93640Y-27559D01*
X93635Y-27564D01*
X93545Y-27445D02*
X93545Y-27435D01*
X93550Y-27426D01*
X93554Y-27421D01*
X93564Y-27416D01*
X93583Y-27411D01*
X93607Y-27411D01*
X93626Y-27416D01*
X93635Y-27421D01*
X93640Y-27426D01*
X93645Y-27435D01*
X93645Y-27445D01*
X93640Y-27454D01*
X93635Y-27459D01*
X93626Y-27464D01*
X93607Y-27469D01*
X93583Y-27469D01*
X93564Y-27464D01*
X93554Y-27459D01*
X93550Y-27454D01*
X93545Y-27445D01*
X93554Y-27373D02*
X93550Y-27369D01*
X93545Y-27359D01*
X93545Y-27335D01*
X93550Y-27326D01*
X93554Y-27321D01*
X93564Y-27316D01*
X93573Y-27316D01*
X93588Y-27321D01*
X93645Y-27378D01*
X93645Y-27316D01*
G54D21*
X91686Y-27264D02*
X91678Y-27279D01*
X91663Y-27294D01*
X91641Y-27317D01*
X91633Y-27332D01*
X91633Y-27347D01*
X91671Y-27339D02*
X91663Y-27354D01*
X91648Y-27369D01*
X91618Y-27377D01*
X91566Y-27377D01*
X91536Y-27369D01*
X91521Y-27354D01*
X91513Y-27339D01*
X91513Y-27309D01*
X91521Y-27294D01*
X91536Y-27279D01*
X91566Y-27272D01*
X91618Y-27272D01*
X91648Y-27279D01*
X91663Y-27294D01*
X91671Y-27309D01*
X91671Y-27339D01*
X91581Y-27182D02*
X91573Y-27197D01*
X91566Y-27205D01*
X91551Y-27212D01*
X91543Y-27212D01*
X91528Y-27205D01*
X91521Y-27197D01*
X91513Y-27182D01*
X91513Y-27152D01*
X91521Y-27137D01*
X91528Y-27130D01*
X91543Y-27122D01*
X91551Y-27122D01*
X91566Y-27130D01*
X91573Y-27137D01*
X91581Y-27152D01*
X91581Y-27182D01*
X91588Y-27197D01*
X91596Y-27205D01*
X91611Y-27212D01*
X91641Y-27212D01*
X91656Y-27205D01*
X91663Y-27197D01*
X91671Y-27182D01*
X91671Y-27152D01*
X91663Y-27137D01*
X91656Y-27130D01*
X91641Y-27122D01*
X91611Y-27122D01*
X91596Y-27130D01*
X91588Y-27137D01*
X91581Y-27152D01*
G54D25*
X92016Y-27966D02*
X92016Y-27919D01*
X92045Y-27976D02*
X91945Y-27942D01*
X92045Y-27909D01*
X91945Y-27857D02*
X91945Y-27838D01*
X91950Y-27828D01*
X91959Y-27819D01*
X91978Y-27814D01*
X92011Y-27814D01*
X92030Y-27819D01*
X92040Y-27828D01*
X92045Y-27838D01*
X92045Y-27857D01*
X92040Y-27866D01*
X92030Y-27876D01*
X92011Y-27880D01*
X91978Y-27880D01*
X91959Y-27876D01*
X91950Y-27866D01*
X91945Y-27857D01*
X91945Y-27780D02*
X91945Y-27719D01*
X91983Y-27752D01*
X91983Y-27738D01*
X91988Y-27728D01*
X91992Y-27723D01*
X92002Y-27719D01*
X92026Y-27719D01*
X92035Y-27723D01*
X92040Y-27728D01*
X92045Y-27738D01*
X92045Y-27766D01*
X92040Y-27776D01*
X92035Y-27780D01*
X91978Y-27633D02*
X92045Y-27633D01*
X91940Y-27657D02*
X92011Y-27680D01*
X92011Y-27619D01*
X91945Y-27561D02*
X91945Y-27552D01*
X91950Y-27542D01*
X91954Y-27538D01*
X91964Y-27533D01*
X91983Y-27528D01*
X92007Y-27528D01*
X92026Y-27533D01*
X92035Y-27538D01*
X92040Y-27542D01*
X92045Y-27552D01*
X92045Y-27561D01*
X92040Y-27571D01*
X92035Y-27576D01*
X92026Y-27580D01*
X92007Y-27585D01*
X91983Y-27585D01*
X91964Y-27580D01*
X91954Y-27576D01*
X91950Y-27571D01*
X91945Y-27561D01*
X92045Y-27433D02*
X92045Y-27490D01*
X92045Y-27461D02*
X91945Y-27461D01*
X91959Y-27471D01*
X91969Y-27480D01*
X91973Y-27490D01*
G54D21*
X94086Y-29764D02*
X94078Y-29779D01*
X94063Y-29794D01*
X94041Y-29817D01*
X94033Y-29832D01*
X94033Y-29847D01*
X94071Y-29839D02*
X94063Y-29854D01*
X94048Y-29869D01*
X94018Y-29877D01*
X93966Y-29877D01*
X93936Y-29869D01*
X93921Y-29854D01*
X93913Y-29839D01*
X93913Y-29809D01*
X93921Y-29794D01*
X93936Y-29779D01*
X93966Y-29772D01*
X94018Y-29772D01*
X94048Y-29779D01*
X94063Y-29794D01*
X94071Y-29809D01*
X94071Y-29839D01*
X93928Y-29712D02*
X93921Y-29705D01*
X93913Y-29690D01*
X93913Y-29652D01*
X93921Y-29637D01*
X93928Y-29630D01*
X93943Y-29622D01*
X93958Y-29622D01*
X93981Y-29630D01*
X94071Y-29720D01*
X94071Y-29622D01*
G54D25*
X93616Y-29566D02*
X93616Y-29519D01*
X93645Y-29576D02*
X93545Y-29542D01*
X93645Y-29509D01*
X93545Y-29457D02*
X93545Y-29438D01*
X93550Y-29428D01*
X93559Y-29419D01*
X93578Y-29414D01*
X93611Y-29414D01*
X93630Y-29419D01*
X93640Y-29428D01*
X93645Y-29438D01*
X93645Y-29457D01*
X93640Y-29466D01*
X93630Y-29476D01*
X93611Y-29480D01*
X93578Y-29480D01*
X93559Y-29476D01*
X93550Y-29466D01*
X93545Y-29457D01*
X93545Y-29380D02*
X93545Y-29319D01*
X93583Y-29352D01*
X93583Y-29338D01*
X93588Y-29328D01*
X93592Y-29323D01*
X93602Y-29319D01*
X93626Y-29319D01*
X93635Y-29323D01*
X93640Y-29328D01*
X93645Y-29338D01*
X93645Y-29366D01*
X93640Y-29376D01*
X93635Y-29380D01*
X93578Y-29233D02*
X93645Y-29233D01*
X93540Y-29257D02*
X93611Y-29280D01*
X93611Y-29219D01*
X93545Y-29161D02*
X93545Y-29152D01*
X93550Y-29142D01*
X93554Y-29138D01*
X93564Y-29133D01*
X93583Y-29128D01*
X93607Y-29128D01*
X93626Y-29133D01*
X93635Y-29138D01*
X93640Y-29142D01*
X93645Y-29152D01*
X93645Y-29161D01*
X93640Y-29171D01*
X93635Y-29176D01*
X93626Y-29180D01*
X93607Y-29185D01*
X93583Y-29185D01*
X93564Y-29180D01*
X93554Y-29176D01*
X93550Y-29171D01*
X93545Y-29161D01*
X93645Y-29033D02*
X93645Y-29090D01*
X93645Y-29061D02*
X93545Y-29061D01*
X93559Y-29071D01*
X93569Y-29080D01*
X93573Y-29090D01*
G54D21*
X91686Y-28864D02*
X91678Y-28879D01*
X91663Y-28894D01*
X91641Y-28917D01*
X91633Y-28932D01*
X91633Y-28947D01*
X91671Y-28939D02*
X91663Y-28954D01*
X91648Y-28969D01*
X91618Y-28977D01*
X91566Y-28977D01*
X91536Y-28969D01*
X91521Y-28954D01*
X91513Y-28939D01*
X91513Y-28909D01*
X91521Y-28894D01*
X91536Y-28879D01*
X91566Y-28872D01*
X91618Y-28872D01*
X91648Y-28879D01*
X91663Y-28894D01*
X91671Y-28909D01*
X91671Y-28939D01*
X91566Y-28737D02*
X91671Y-28737D01*
X91506Y-28775D02*
X91618Y-28812D01*
X91618Y-28715D01*
G54D25*
X92016Y-29566D02*
X92016Y-29519D01*
X92045Y-29576D02*
X91945Y-29542D01*
X92045Y-29509D01*
X91945Y-29457D02*
X91945Y-29438D01*
X91950Y-29428D01*
X91959Y-29419D01*
X91978Y-29414D01*
X92011Y-29414D01*
X92030Y-29419D01*
X92040Y-29428D01*
X92045Y-29438D01*
X92045Y-29457D01*
X92040Y-29466D01*
X92030Y-29476D01*
X92011Y-29480D01*
X91978Y-29480D01*
X91959Y-29476D01*
X91950Y-29466D01*
X91945Y-29457D01*
X91945Y-29380D02*
X91945Y-29319D01*
X91983Y-29352D01*
X91983Y-29338D01*
X91988Y-29328D01*
X91992Y-29323D01*
X92002Y-29319D01*
X92026Y-29319D01*
X92035Y-29323D01*
X92040Y-29328D01*
X92045Y-29338D01*
X92045Y-29366D01*
X92040Y-29376D01*
X92035Y-29380D01*
X91978Y-29233D02*
X92045Y-29233D01*
X91940Y-29257D02*
X92011Y-29280D01*
X92011Y-29219D01*
X91945Y-29161D02*
X91945Y-29152D01*
X91950Y-29142D01*
X91954Y-29138D01*
X91964Y-29133D01*
X91983Y-29128D01*
X92007Y-29128D01*
X92026Y-29133D01*
X92035Y-29138D01*
X92040Y-29142D01*
X92045Y-29152D01*
X92045Y-29161D01*
X92040Y-29171D01*
X92035Y-29176D01*
X92026Y-29180D01*
X92007Y-29185D01*
X91983Y-29185D01*
X91964Y-29180D01*
X91954Y-29176D01*
X91950Y-29171D01*
X91945Y-29161D01*
X92045Y-29033D02*
X92045Y-29090D01*
X92045Y-29061D02*
X91945Y-29061D01*
X91959Y-29071D01*
X91969Y-29080D01*
X91973Y-29090D01*
G54D21*
X94086Y-31364D02*
X94078Y-31379D01*
X94063Y-31394D01*
X94041Y-31417D01*
X94033Y-31432D01*
X94033Y-31447D01*
X94071Y-31439D02*
X94063Y-31454D01*
X94048Y-31469D01*
X94018Y-31477D01*
X93966Y-31477D01*
X93936Y-31469D01*
X93921Y-31454D01*
X93913Y-31439D01*
X93913Y-31409D01*
X93921Y-31394D01*
X93936Y-31379D01*
X93966Y-31372D01*
X94018Y-31372D01*
X94048Y-31379D01*
X94063Y-31394D01*
X94071Y-31409D01*
X94071Y-31439D01*
X94071Y-31222D02*
X94071Y-31312D01*
X94071Y-31267D02*
X93913Y-31267D01*
X93936Y-31282D01*
X93951Y-31297D01*
X93958Y-31312D01*
G54D25*
X93645Y-31278D02*
X93545Y-31278D01*
X93645Y-31173D02*
X93597Y-31207D01*
X93645Y-31230D02*
X93545Y-31230D01*
X93545Y-31192D01*
X93550Y-31183D01*
X93554Y-31178D01*
X93564Y-31173D01*
X93578Y-31173D01*
X93588Y-31178D01*
X93592Y-31183D01*
X93597Y-31192D01*
X93597Y-31230D01*
X93645Y-31083D02*
X93645Y-31130D01*
X93545Y-31130D01*
X93645Y-31050D02*
X93545Y-31050D01*
X93616Y-31016D01*
X93545Y-30983D01*
X93645Y-30983D01*
X93645Y-30888D02*
X93645Y-30935D01*
X93545Y-30935D01*
X93554Y-30859D02*
X93550Y-30854D01*
X93545Y-30845D01*
X93545Y-30821D01*
X93550Y-30811D01*
X93554Y-30807D01*
X93564Y-30802D01*
X93573Y-30802D01*
X93588Y-30807D01*
X93645Y-30864D01*
X93645Y-30802D01*
X93545Y-30711D02*
X93545Y-30759D01*
X93592Y-30764D01*
X93588Y-30759D01*
X93583Y-30750D01*
X93583Y-30726D01*
X93588Y-30716D01*
X93592Y-30711D01*
X93602Y-30707D01*
X93626Y-30707D01*
X93635Y-30711D01*
X93640Y-30716D01*
X93645Y-30726D01*
X93645Y-30750D01*
X93640Y-30759D01*
X93635Y-30764D01*
X93545Y-30645D02*
X93545Y-30635D01*
X93550Y-30626D01*
X93554Y-30621D01*
X93564Y-30616D01*
X93583Y-30611D01*
X93607Y-30611D01*
X93626Y-30616D01*
X93635Y-30621D01*
X93640Y-30626D01*
X93645Y-30635D01*
X93645Y-30645D01*
X93640Y-30654D01*
X93635Y-30659D01*
X93626Y-30664D01*
X93607Y-30669D01*
X93583Y-30669D01*
X93564Y-30664D01*
X93554Y-30659D01*
X93550Y-30654D01*
X93545Y-30645D01*
X93554Y-30573D02*
X93550Y-30569D01*
X93545Y-30559D01*
X93545Y-30535D01*
X93550Y-30526D01*
X93554Y-30521D01*
X93564Y-30516D01*
X93573Y-30516D01*
X93588Y-30521D01*
X93645Y-30578D01*
X93645Y-30516D01*
G54D21*
X91686Y-30464D02*
X91678Y-30479D01*
X91663Y-30494D01*
X91641Y-30517D01*
X91633Y-30532D01*
X91633Y-30547D01*
X91671Y-30539D02*
X91663Y-30554D01*
X91648Y-30569D01*
X91618Y-30577D01*
X91566Y-30577D01*
X91536Y-30569D01*
X91521Y-30554D01*
X91513Y-30539D01*
X91513Y-30509D01*
X91521Y-30494D01*
X91536Y-30479D01*
X91566Y-30472D01*
X91618Y-30472D01*
X91648Y-30479D01*
X91663Y-30494D01*
X91671Y-30509D01*
X91671Y-30539D01*
X91513Y-30420D02*
X91513Y-30322D01*
X91573Y-30375D01*
X91573Y-30352D01*
X91581Y-30337D01*
X91588Y-30330D01*
X91603Y-30322D01*
X91641Y-30322D01*
X91656Y-30330D01*
X91663Y-30337D01*
X91671Y-30352D01*
X91671Y-30397D01*
X91663Y-30412D01*
X91656Y-30420D01*
G54D25*
X92016Y-31166D02*
X92016Y-31119D01*
X92045Y-31176D02*
X91945Y-31142D01*
X92045Y-31109D01*
X91945Y-31057D02*
X91945Y-31038D01*
X91950Y-31028D01*
X91959Y-31019D01*
X91978Y-31014D01*
X92011Y-31014D01*
X92030Y-31019D01*
X92040Y-31028D01*
X92045Y-31038D01*
X92045Y-31057D01*
X92040Y-31066D01*
X92030Y-31076D01*
X92011Y-31080D01*
X91978Y-31080D01*
X91959Y-31076D01*
X91950Y-31066D01*
X91945Y-31057D01*
X91945Y-30980D02*
X91945Y-30919D01*
X91983Y-30952D01*
X91983Y-30938D01*
X91988Y-30928D01*
X91992Y-30923D01*
X92002Y-30919D01*
X92026Y-30919D01*
X92035Y-30923D01*
X92040Y-30928D01*
X92045Y-30938D01*
X92045Y-30966D01*
X92040Y-30976D01*
X92035Y-30980D01*
X91978Y-30833D02*
X92045Y-30833D01*
X91940Y-30857D02*
X92011Y-30880D01*
X92011Y-30819D01*
X91945Y-30761D02*
X91945Y-30752D01*
X91950Y-30742D01*
X91954Y-30738D01*
X91964Y-30733D01*
X91983Y-30728D01*
X92007Y-30728D01*
X92026Y-30733D01*
X92035Y-30738D01*
X92040Y-30742D01*
X92045Y-30752D01*
X92045Y-30761D01*
X92040Y-30771D01*
X92035Y-30776D01*
X92026Y-30780D01*
X92007Y-30785D01*
X91983Y-30785D01*
X91964Y-30780D01*
X91954Y-30776D01*
X91950Y-30771D01*
X91945Y-30761D01*
X91954Y-30690D02*
X91950Y-30685D01*
X91945Y-30676D01*
X91945Y-30652D01*
X91950Y-30642D01*
X91954Y-30638D01*
X91964Y-30633D01*
X91973Y-30633D01*
X91988Y-30638D01*
X92045Y-30695D01*
X92045Y-30633D01*
G54D17*
X90932Y-33586D02*
X90932Y-33667D01*
X90937Y-33677D01*
X90941Y-33681D01*
X90951Y-33686D01*
X90970Y-33686D01*
X90980Y-33681D01*
X90984Y-33677D01*
X90989Y-33667D01*
X90989Y-33586D01*
X91080Y-33619D02*
X91080Y-33686D01*
X91056Y-33581D02*
X91032Y-33653D01*
X91094Y-33653D01*
G54D25*
X90947Y-33345D02*
X90947Y-33245D01*
X90985Y-33245D01*
X90995Y-33249D01*
X91000Y-33254D01*
X91004Y-33264D01*
X91004Y-33278D01*
X91000Y-33288D01*
X90995Y-33292D01*
X90985Y-33297D01*
X90947Y-33297D01*
X91104Y-33335D02*
X91100Y-33340D01*
X91085Y-33345D01*
X91076Y-33345D01*
X91061Y-33340D01*
X91052Y-33330D01*
X91047Y-33321D01*
X91042Y-33302D01*
X91042Y-33288D01*
X91047Y-33269D01*
X91052Y-33259D01*
X91061Y-33249D01*
X91076Y-33245D01*
X91085Y-33245D01*
X91100Y-33249D01*
X91104Y-33254D01*
X91142Y-33316D02*
X91190Y-33316D01*
X91133Y-33345D02*
X91166Y-33245D01*
X91200Y-33345D01*
X91238Y-33345D02*
X91257Y-33345D01*
X91266Y-33340D01*
X91271Y-33335D01*
X91281Y-33321D01*
X91285Y-33302D01*
X91285Y-33264D01*
X91281Y-33254D01*
X91276Y-33249D01*
X91266Y-33245D01*
X91247Y-33245D01*
X91238Y-33249D01*
X91233Y-33254D01*
X91228Y-33264D01*
X91228Y-33288D01*
X91233Y-33297D01*
X91238Y-33302D01*
X91247Y-33307D01*
X91266Y-33307D01*
X91276Y-33302D01*
X91281Y-33297D01*
X91285Y-33288D01*
X91376Y-33245D02*
X91328Y-33245D01*
X91323Y-33292D01*
X91328Y-33288D01*
X91338Y-33283D01*
X91361Y-33283D01*
X91371Y-33288D01*
X91376Y-33292D01*
X91381Y-33302D01*
X91381Y-33326D01*
X91376Y-33335D01*
X91371Y-33340D01*
X91361Y-33345D01*
X91338Y-33345D01*
X91328Y-33340D01*
X91323Y-33335D01*
X91476Y-33345D02*
X91419Y-33345D01*
X91447Y-33345D02*
X91447Y-33245D01*
X91438Y-33259D01*
X91428Y-33269D01*
X91419Y-33273D01*
X91509Y-33245D02*
X91576Y-33245D01*
X91533Y-33345D01*
X91609Y-33316D02*
X91657Y-33316D01*
X91600Y-33345D02*
X91633Y-33245D01*
X91666Y-33345D01*
G54D17*
X91532Y-32986D02*
X91532Y-33067D01*
X91537Y-33077D01*
X91542Y-33081D01*
X91551Y-33086D01*
X91570Y-33086D01*
X91580Y-33081D01*
X91584Y-33077D01*
X91589Y-33067D01*
X91589Y-32986D01*
X91627Y-32986D02*
X91689Y-32986D01*
X91656Y-33024D01*
X91670Y-33024D01*
X91680Y-33029D01*
X91684Y-33034D01*
X91689Y-33043D01*
X91689Y-33067D01*
X91684Y-33077D01*
X91680Y-33081D01*
X91670Y-33086D01*
X91642Y-33086D01*
X91632Y-33081D01*
X91627Y-33077D01*
X90865Y-32893D02*
X90865Y-32753D01*
X90923Y-32753D01*
X90937Y-32759D01*
X90944Y-32766D01*
X90951Y-32779D01*
X90951Y-32799D01*
X90944Y-32813D01*
X90937Y-32819D01*
X90923Y-32826D01*
X90865Y-32826D01*
X91101Y-32879D02*
X91094Y-32886D01*
X91073Y-32893D01*
X91058Y-32893D01*
X91037Y-32886D01*
X91023Y-32873D01*
X91015Y-32859D01*
X91008Y-32833D01*
X91008Y-32813D01*
X91015Y-32786D01*
X91023Y-32773D01*
X91037Y-32759D01*
X91058Y-32753D01*
X91073Y-32753D01*
X91094Y-32759D01*
X91101Y-32766D01*
X91158Y-32853D02*
X91230Y-32853D01*
X91144Y-32893D02*
X91194Y-32753D01*
X91244Y-32893D01*
X91301Y-32893D02*
X91330Y-32893D01*
X91344Y-32886D01*
X91351Y-32879D01*
X91365Y-32859D01*
X91373Y-32833D01*
X91373Y-32779D01*
X91365Y-32766D01*
X91358Y-32759D01*
X91344Y-32753D01*
X91315Y-32753D01*
X91301Y-32759D01*
X91294Y-32766D01*
X91287Y-32779D01*
X91287Y-32813D01*
X91294Y-32826D01*
X91301Y-32833D01*
X91315Y-32839D01*
X91344Y-32839D01*
X91358Y-32833D01*
X91365Y-32826D01*
X91373Y-32813D01*
X91423Y-32753D02*
X91515Y-32753D01*
X91465Y-32806D01*
X91487Y-32806D01*
X91501Y-32813D01*
X91508Y-32819D01*
X91515Y-32833D01*
X91515Y-32866D01*
X91508Y-32879D01*
X91501Y-32886D01*
X91487Y-32893D01*
X91444Y-32893D01*
X91430Y-32886D01*
X91423Y-32879D01*
X91608Y-32753D02*
X91623Y-32753D01*
X91637Y-32759D01*
X91644Y-32766D01*
X91651Y-32779D01*
X91658Y-32806D01*
X91658Y-32839D01*
X91651Y-32866D01*
X91644Y-32879D01*
X91637Y-32886D01*
X91623Y-32893D01*
X91608Y-32893D01*
X91594Y-32886D01*
X91587Y-32879D01*
X91580Y-32866D01*
X91573Y-32839D01*
X91573Y-32806D01*
X91580Y-32779D01*
X91587Y-32766D01*
X91594Y-32759D01*
X91608Y-32753D01*
X91787Y-32753D02*
X91758Y-32753D01*
X91744Y-32759D01*
X91737Y-32766D01*
X91723Y-32786D01*
X91715Y-32813D01*
X91715Y-32866D01*
X91723Y-32879D01*
X91730Y-32886D01*
X91744Y-32893D01*
X91773Y-32893D01*
X91787Y-32886D01*
X91794Y-32879D01*
X91801Y-32866D01*
X91801Y-32833D01*
X91794Y-32819D01*
X91787Y-32813D01*
X91773Y-32806D01*
X91744Y-32806D01*
X91730Y-32813D01*
X91723Y-32819D01*
X91715Y-32833D01*
G54D21*
X81586Y-33364D02*
X81578Y-33379D01*
X81563Y-33394D01*
X81541Y-33417D01*
X81533Y-33432D01*
X81533Y-33447D01*
X81571Y-33439D02*
X81563Y-33454D01*
X81548Y-33469D01*
X81518Y-33477D01*
X81466Y-33477D01*
X81436Y-33469D01*
X81421Y-33454D01*
X81413Y-33439D01*
X81413Y-33409D01*
X81421Y-33394D01*
X81436Y-33379D01*
X81466Y-33372D01*
X81518Y-33372D01*
X81548Y-33379D01*
X81563Y-33394D01*
X81571Y-33409D01*
X81571Y-33439D01*
X81571Y-33297D02*
X81571Y-33267D01*
X81563Y-33252D01*
X81556Y-33245D01*
X81533Y-33230D01*
X81503Y-33222D01*
X81443Y-33222D01*
X81428Y-33230D01*
X81421Y-33237D01*
X81413Y-33252D01*
X81413Y-33282D01*
X81421Y-33297D01*
X81428Y-33305D01*
X81443Y-33312D01*
X81481Y-33312D01*
X81496Y-33305D01*
X81503Y-33297D01*
X81511Y-33282D01*
X81511Y-33252D01*
X81503Y-33237D01*
X81496Y-33230D01*
X81481Y-33222D01*
G54D25*
X81916Y-34066D02*
X81916Y-34019D01*
X81945Y-34076D02*
X81845Y-34042D01*
X81945Y-34009D01*
X81845Y-33957D02*
X81845Y-33938D01*
X81850Y-33928D01*
X81859Y-33919D01*
X81878Y-33914D01*
X81911Y-33914D01*
X81930Y-33919D01*
X81940Y-33928D01*
X81945Y-33938D01*
X81945Y-33957D01*
X81940Y-33966D01*
X81930Y-33976D01*
X81911Y-33980D01*
X81878Y-33980D01*
X81859Y-33976D01*
X81850Y-33966D01*
X81845Y-33957D01*
X81845Y-33880D02*
X81845Y-33819D01*
X81883Y-33852D01*
X81883Y-33838D01*
X81888Y-33828D01*
X81892Y-33823D01*
X81902Y-33819D01*
X81926Y-33819D01*
X81935Y-33823D01*
X81940Y-33828D01*
X81945Y-33838D01*
X81945Y-33866D01*
X81940Y-33876D01*
X81935Y-33880D01*
X81878Y-33733D02*
X81945Y-33733D01*
X81840Y-33757D02*
X81911Y-33780D01*
X81911Y-33719D01*
X81845Y-33661D02*
X81845Y-33652D01*
X81850Y-33642D01*
X81854Y-33638D01*
X81864Y-33633D01*
X81883Y-33628D01*
X81907Y-33628D01*
X81926Y-33633D01*
X81935Y-33638D01*
X81940Y-33642D01*
X81945Y-33652D01*
X81945Y-33661D01*
X81940Y-33671D01*
X81935Y-33676D01*
X81926Y-33680D01*
X81907Y-33685D01*
X81883Y-33685D01*
X81864Y-33680D01*
X81854Y-33676D01*
X81850Y-33671D01*
X81845Y-33661D01*
X81945Y-33533D02*
X81945Y-33590D01*
X81945Y-33561D02*
X81845Y-33561D01*
X81859Y-33571D01*
X81869Y-33580D01*
X81873Y-33590D01*
G54D21*
X83986Y-34389D02*
X83978Y-34404D01*
X83963Y-34419D01*
X83941Y-34442D01*
X83933Y-34457D01*
X83933Y-34472D01*
X83971Y-34464D02*
X83963Y-34479D01*
X83948Y-34494D01*
X83918Y-34502D01*
X83866Y-34502D01*
X83836Y-34494D01*
X83821Y-34479D01*
X83813Y-34464D01*
X83813Y-34434D01*
X83821Y-34419D01*
X83836Y-34404D01*
X83866Y-34397D01*
X83918Y-34397D01*
X83948Y-34404D01*
X83963Y-34419D01*
X83971Y-34434D01*
X83971Y-34464D01*
X83971Y-34247D02*
X83971Y-34337D01*
X83971Y-34292D02*
X83813Y-34292D01*
X83836Y-34307D01*
X83851Y-34322D01*
X83858Y-34337D01*
X83813Y-34150D02*
X83813Y-34135D01*
X83821Y-34120D01*
X83828Y-34112D01*
X83843Y-34105D01*
X83873Y-34097D01*
X83911Y-34097D01*
X83941Y-34105D01*
X83956Y-34112D01*
X83963Y-34120D01*
X83971Y-34135D01*
X83971Y-34150D01*
X83963Y-34165D01*
X83956Y-34172D01*
X83941Y-34180D01*
X83911Y-34187D01*
X83873Y-34187D01*
X83843Y-34180D01*
X83828Y-34172D01*
X83821Y-34165D01*
X83813Y-34150D01*
G54D25*
X83516Y-34066D02*
X83516Y-34019D01*
X83545Y-34076D02*
X83445Y-34042D01*
X83545Y-34009D01*
X83445Y-33957D02*
X83445Y-33938D01*
X83450Y-33928D01*
X83459Y-33919D01*
X83478Y-33914D01*
X83511Y-33914D01*
X83530Y-33919D01*
X83540Y-33928D01*
X83545Y-33938D01*
X83545Y-33957D01*
X83540Y-33966D01*
X83530Y-33976D01*
X83511Y-33980D01*
X83478Y-33980D01*
X83459Y-33976D01*
X83450Y-33966D01*
X83445Y-33957D01*
X83445Y-33880D02*
X83445Y-33819D01*
X83483Y-33852D01*
X83483Y-33838D01*
X83488Y-33828D01*
X83492Y-33823D01*
X83502Y-33819D01*
X83526Y-33819D01*
X83535Y-33823D01*
X83540Y-33828D01*
X83545Y-33838D01*
X83545Y-33866D01*
X83540Y-33876D01*
X83535Y-33880D01*
X83478Y-33733D02*
X83545Y-33733D01*
X83440Y-33757D02*
X83511Y-33780D01*
X83511Y-33719D01*
X83445Y-33661D02*
X83445Y-33652D01*
X83450Y-33642D01*
X83454Y-33638D01*
X83464Y-33633D01*
X83483Y-33628D01*
X83507Y-33628D01*
X83526Y-33633D01*
X83535Y-33638D01*
X83540Y-33642D01*
X83545Y-33652D01*
X83545Y-33661D01*
X83540Y-33671D01*
X83535Y-33676D01*
X83526Y-33680D01*
X83507Y-33685D01*
X83483Y-33685D01*
X83464Y-33680D01*
X83454Y-33676D01*
X83450Y-33671D01*
X83445Y-33661D01*
X83454Y-33590D02*
X83450Y-33585D01*
X83445Y-33576D01*
X83445Y-33552D01*
X83450Y-33542D01*
X83454Y-33538D01*
X83464Y-33533D01*
X83473Y-33533D01*
X83488Y-33538D01*
X83545Y-33595D01*
X83545Y-33533D01*
G54D21*
X83986Y-32889D02*
X83978Y-32904D01*
X83963Y-32919D01*
X83941Y-32942D01*
X83933Y-32957D01*
X83933Y-32972D01*
X83971Y-32964D02*
X83963Y-32979D01*
X83948Y-32994D01*
X83918Y-33002D01*
X83866Y-33002D01*
X83836Y-32994D01*
X83821Y-32979D01*
X83813Y-32964D01*
X83813Y-32934D01*
X83821Y-32919D01*
X83836Y-32904D01*
X83866Y-32897D01*
X83918Y-32897D01*
X83948Y-32904D01*
X83963Y-32919D01*
X83971Y-32934D01*
X83971Y-32964D01*
X83971Y-32747D02*
X83971Y-32837D01*
X83971Y-32792D02*
X83813Y-32792D01*
X83836Y-32807D01*
X83851Y-32822D01*
X83858Y-32837D01*
X83971Y-32597D02*
X83971Y-32687D01*
X83971Y-32642D02*
X83813Y-32642D01*
X83836Y-32657D01*
X83851Y-32672D01*
X83858Y-32687D01*
G54D25*
X83516Y-32566D02*
X83516Y-32519D01*
X83545Y-32576D02*
X83445Y-32542D01*
X83545Y-32509D01*
X83445Y-32457D02*
X83445Y-32438D01*
X83450Y-32428D01*
X83459Y-32419D01*
X83478Y-32414D01*
X83511Y-32414D01*
X83530Y-32419D01*
X83540Y-32428D01*
X83545Y-32438D01*
X83545Y-32457D01*
X83540Y-32466D01*
X83530Y-32476D01*
X83511Y-32480D01*
X83478Y-32480D01*
X83459Y-32476D01*
X83450Y-32466D01*
X83445Y-32457D01*
X83445Y-32380D02*
X83445Y-32319D01*
X83483Y-32352D01*
X83483Y-32338D01*
X83488Y-32328D01*
X83492Y-32323D01*
X83502Y-32319D01*
X83526Y-32319D01*
X83535Y-32323D01*
X83540Y-32328D01*
X83545Y-32338D01*
X83545Y-32366D01*
X83540Y-32376D01*
X83535Y-32380D01*
X83478Y-32233D02*
X83545Y-32233D01*
X83440Y-32257D02*
X83511Y-32280D01*
X83511Y-32219D01*
X83445Y-32161D02*
X83445Y-32152D01*
X83450Y-32142D01*
X83454Y-32138D01*
X83464Y-32133D01*
X83483Y-32128D01*
X83507Y-32128D01*
X83526Y-32133D01*
X83535Y-32138D01*
X83540Y-32142D01*
X83545Y-32152D01*
X83545Y-32161D01*
X83540Y-32171D01*
X83535Y-32176D01*
X83526Y-32180D01*
X83507Y-32185D01*
X83483Y-32185D01*
X83464Y-32180D01*
X83454Y-32176D01*
X83450Y-32171D01*
X83445Y-32161D01*
X83545Y-32033D02*
X83545Y-32090D01*
X83545Y-32061D02*
X83445Y-32061D01*
X83459Y-32071D01*
X83469Y-32080D01*
X83473Y-32090D01*
G54D21*
X81586Y-31889D02*
X81578Y-31904D01*
X81563Y-31919D01*
X81541Y-31942D01*
X81533Y-31957D01*
X81533Y-31972D01*
X81571Y-31964D02*
X81563Y-31979D01*
X81548Y-31994D01*
X81518Y-32002D01*
X81466Y-32002D01*
X81436Y-31994D01*
X81421Y-31979D01*
X81413Y-31964D01*
X81413Y-31934D01*
X81421Y-31919D01*
X81436Y-31904D01*
X81466Y-31897D01*
X81518Y-31897D01*
X81548Y-31904D01*
X81563Y-31919D01*
X81571Y-31934D01*
X81571Y-31964D01*
X81571Y-31747D02*
X81571Y-31837D01*
X81571Y-31792D02*
X81413Y-31792D01*
X81436Y-31807D01*
X81451Y-31822D01*
X81458Y-31837D01*
X81428Y-31687D02*
X81421Y-31680D01*
X81413Y-31665D01*
X81413Y-31627D01*
X81421Y-31612D01*
X81428Y-31605D01*
X81443Y-31597D01*
X81458Y-31597D01*
X81481Y-31605D01*
X81571Y-31695D01*
X81571Y-31597D01*
G54D25*
X81916Y-32566D02*
X81916Y-32519D01*
X81945Y-32576D02*
X81845Y-32542D01*
X81945Y-32509D01*
X81845Y-32457D02*
X81845Y-32438D01*
X81850Y-32428D01*
X81859Y-32419D01*
X81878Y-32414D01*
X81911Y-32414D01*
X81930Y-32419D01*
X81940Y-32428D01*
X81945Y-32438D01*
X81945Y-32457D01*
X81940Y-32466D01*
X81930Y-32476D01*
X81911Y-32480D01*
X81878Y-32480D01*
X81859Y-32476D01*
X81850Y-32466D01*
X81845Y-32457D01*
X81845Y-32380D02*
X81845Y-32319D01*
X81883Y-32352D01*
X81883Y-32338D01*
X81888Y-32328D01*
X81892Y-32323D01*
X81902Y-32319D01*
X81926Y-32319D01*
X81935Y-32323D01*
X81940Y-32328D01*
X81945Y-32338D01*
X81945Y-32366D01*
X81940Y-32376D01*
X81935Y-32380D01*
X81878Y-32233D02*
X81945Y-32233D01*
X81840Y-32257D02*
X81911Y-32280D01*
X81911Y-32219D01*
X81845Y-32161D02*
X81845Y-32152D01*
X81850Y-32142D01*
X81854Y-32138D01*
X81864Y-32133D01*
X81883Y-32128D01*
X81907Y-32128D01*
X81926Y-32133D01*
X81935Y-32138D01*
X81940Y-32142D01*
X81945Y-32152D01*
X81945Y-32161D01*
X81940Y-32171D01*
X81935Y-32176D01*
X81926Y-32180D01*
X81907Y-32185D01*
X81883Y-32185D01*
X81864Y-32180D01*
X81854Y-32176D01*
X81850Y-32171D01*
X81845Y-32161D01*
X81854Y-32090D02*
X81850Y-32085D01*
X81845Y-32076D01*
X81845Y-32052D01*
X81850Y-32042D01*
X81854Y-32038D01*
X81864Y-32033D01*
X81873Y-32033D01*
X81888Y-32038D01*
X81945Y-32095D01*
X81945Y-32033D01*
G54D21*
X88086Y-29889D02*
X88078Y-29904D01*
X88063Y-29919D01*
X88041Y-29942D01*
X88033Y-29957D01*
X88033Y-29972D01*
X88071Y-29964D02*
X88063Y-29979D01*
X88048Y-29994D01*
X88018Y-30002D01*
X87966Y-30002D01*
X87936Y-29994D01*
X87921Y-29979D01*
X87913Y-29964D01*
X87913Y-29934D01*
X87921Y-29919D01*
X87936Y-29904D01*
X87966Y-29897D01*
X88018Y-29897D01*
X88048Y-29904D01*
X88063Y-29919D01*
X88071Y-29934D01*
X88071Y-29964D01*
X88071Y-29747D02*
X88071Y-29837D01*
X88071Y-29792D02*
X87913Y-29792D01*
X87936Y-29807D01*
X87951Y-29822D01*
X87958Y-29837D01*
X87966Y-29612D02*
X88071Y-29612D01*
X87906Y-29650D02*
X88018Y-29687D01*
X88018Y-29590D01*
G54D25*
X88416Y-30566D02*
X88416Y-30519D01*
X88445Y-30576D02*
X88345Y-30542D01*
X88445Y-30509D01*
X88345Y-30457D02*
X88345Y-30438D01*
X88350Y-30428D01*
X88359Y-30419D01*
X88378Y-30414D01*
X88411Y-30414D01*
X88430Y-30419D01*
X88440Y-30428D01*
X88445Y-30438D01*
X88445Y-30457D01*
X88440Y-30466D01*
X88430Y-30476D01*
X88411Y-30480D01*
X88378Y-30480D01*
X88359Y-30476D01*
X88350Y-30466D01*
X88345Y-30457D01*
X88345Y-30380D02*
X88345Y-30319D01*
X88383Y-30352D01*
X88383Y-30338D01*
X88388Y-30328D01*
X88392Y-30323D01*
X88402Y-30319D01*
X88426Y-30319D01*
X88435Y-30323D01*
X88440Y-30328D01*
X88445Y-30338D01*
X88445Y-30366D01*
X88440Y-30376D01*
X88435Y-30380D01*
X88378Y-30233D02*
X88445Y-30233D01*
X88340Y-30257D02*
X88411Y-30280D01*
X88411Y-30219D01*
X88345Y-30161D02*
X88345Y-30152D01*
X88350Y-30142D01*
X88354Y-30138D01*
X88364Y-30133D01*
X88383Y-30128D01*
X88407Y-30128D01*
X88426Y-30133D01*
X88435Y-30138D01*
X88440Y-30142D01*
X88445Y-30152D01*
X88445Y-30161D01*
X88440Y-30171D01*
X88435Y-30176D01*
X88426Y-30180D01*
X88407Y-30185D01*
X88383Y-30185D01*
X88364Y-30180D01*
X88354Y-30176D01*
X88350Y-30171D01*
X88345Y-30161D01*
X88445Y-30033D02*
X88445Y-30090D01*
X88445Y-30061D02*
X88345Y-30061D01*
X88359Y-30071D01*
X88369Y-30080D01*
X88373Y-30090D01*
G54D21*
X88086Y-28289D02*
X88078Y-28304D01*
X88063Y-28319D01*
X88041Y-28342D01*
X88033Y-28357D01*
X88033Y-28372D01*
X88071Y-28364D02*
X88063Y-28379D01*
X88048Y-28394D01*
X88018Y-28402D01*
X87966Y-28402D01*
X87936Y-28394D01*
X87921Y-28379D01*
X87913Y-28364D01*
X87913Y-28334D01*
X87921Y-28319D01*
X87936Y-28304D01*
X87966Y-28297D01*
X88018Y-28297D01*
X88048Y-28304D01*
X88063Y-28319D01*
X88071Y-28334D01*
X88071Y-28364D01*
X88071Y-28147D02*
X88071Y-28237D01*
X88071Y-28192D02*
X87913Y-28192D01*
X87936Y-28207D01*
X87951Y-28222D01*
X87958Y-28237D01*
X87913Y-28095D02*
X87913Y-27997D01*
X87973Y-28050D01*
X87973Y-28027D01*
X87981Y-28012D01*
X87988Y-28005D01*
X88003Y-27997D01*
X88041Y-27997D01*
X88056Y-28005D01*
X88063Y-28012D01*
X88071Y-28027D01*
X88071Y-28072D01*
X88063Y-28087D01*
X88056Y-28095D01*
G54D25*
X88445Y-29078D02*
X88345Y-29078D01*
X88445Y-28973D02*
X88397Y-29007D01*
X88445Y-29030D02*
X88345Y-29030D01*
X88345Y-28992D01*
X88350Y-28983D01*
X88354Y-28978D01*
X88364Y-28973D01*
X88378Y-28973D01*
X88388Y-28978D01*
X88392Y-28983D01*
X88397Y-28992D01*
X88397Y-29030D01*
X88445Y-28883D02*
X88445Y-28930D01*
X88345Y-28930D01*
X88445Y-28850D02*
X88345Y-28850D01*
X88416Y-28816D01*
X88345Y-28783D01*
X88445Y-28783D01*
X88445Y-28688D02*
X88445Y-28735D01*
X88345Y-28735D01*
X88354Y-28659D02*
X88350Y-28654D01*
X88345Y-28645D01*
X88345Y-28621D01*
X88350Y-28611D01*
X88354Y-28607D01*
X88364Y-28602D01*
X88373Y-28602D01*
X88388Y-28607D01*
X88445Y-28664D01*
X88445Y-28602D01*
X88345Y-28511D02*
X88345Y-28559D01*
X88392Y-28564D01*
X88388Y-28559D01*
X88383Y-28550D01*
X88383Y-28526D01*
X88388Y-28516D01*
X88392Y-28511D01*
X88402Y-28507D01*
X88426Y-28507D01*
X88435Y-28511D01*
X88440Y-28516D01*
X88445Y-28526D01*
X88445Y-28550D01*
X88440Y-28559D01*
X88435Y-28564D01*
X88345Y-28445D02*
X88345Y-28435D01*
X88350Y-28426D01*
X88354Y-28421D01*
X88364Y-28416D01*
X88383Y-28411D01*
X88407Y-28411D01*
X88426Y-28416D01*
X88435Y-28421D01*
X88440Y-28426D01*
X88445Y-28435D01*
X88445Y-28445D01*
X88440Y-28454D01*
X88435Y-28459D01*
X88426Y-28464D01*
X88407Y-28469D01*
X88383Y-28469D01*
X88364Y-28464D01*
X88354Y-28459D01*
X88350Y-28454D01*
X88345Y-28445D01*
X88354Y-28373D02*
X88350Y-28369D01*
X88345Y-28359D01*
X88345Y-28335D01*
X88350Y-28326D01*
X88354Y-28321D01*
X88364Y-28316D01*
X88373Y-28316D01*
X88388Y-28321D01*
X88445Y-28378D01*
X88445Y-28316D01*
G54D24*
X84681Y-32030D02*
X84655Y-31992D01*
X84636Y-32030D02*
X84636Y-31951D01*
X84666Y-31951D01*
X84674Y-31955D01*
X84678Y-31959D01*
X84681Y-31966D01*
X84681Y-31977D01*
X84678Y-31985D01*
X84674Y-31989D01*
X84666Y-31992D01*
X84636Y-31992D01*
X84726Y-31985D02*
X84719Y-31981D01*
X84715Y-31977D01*
X84711Y-31970D01*
X84711Y-31966D01*
X84715Y-31959D01*
X84719Y-31955D01*
X84726Y-31951D01*
X84741Y-31951D01*
X84749Y-31955D01*
X84753Y-31959D01*
X84756Y-31966D01*
X84756Y-31970D01*
X84753Y-31977D01*
X84749Y-31981D01*
X84741Y-31985D01*
X84726Y-31985D01*
X84719Y-31989D01*
X84715Y-31992D01*
X84711Y-32000D01*
X84711Y-32015D01*
X84715Y-32022D01*
X84719Y-32026D01*
X84726Y-32030D01*
X84741Y-32030D01*
X84749Y-32026D01*
X84753Y-32022D01*
X84756Y-32015D01*
X84756Y-32000D01*
X84753Y-31992D01*
X84749Y-31989D01*
X84741Y-31985D01*
G54D21*
X84391Y-32666D02*
X84391Y-32771D01*
X84353Y-32606D02*
X84316Y-32718D01*
X84413Y-32718D01*
X84473Y-32771D02*
X84473Y-32613D01*
X84488Y-32711D02*
X84533Y-32771D01*
X84533Y-32666D02*
X84473Y-32726D01*
X84586Y-32613D02*
X84691Y-32613D01*
X84623Y-32771D01*
G54D26*
X87014Y-33873D02*
X87047Y-33884D01*
X87059Y-33895D01*
X87070Y-33918D01*
X87070Y-33951D01*
X87059Y-33974D01*
X87047Y-33985D01*
X87025Y-33996D01*
X86935Y-33996D01*
X86935Y-33760D01*
X87014Y-33760D01*
X87036Y-33771D01*
X87047Y-33783D01*
X87059Y-33805D01*
X87059Y-33828D01*
X87047Y-33850D01*
X87036Y-33861D01*
X87014Y-33873D01*
X86935Y-33873D01*
X87272Y-33760D02*
X87227Y-33760D01*
X87205Y-33771D01*
X87194Y-33783D01*
X87171Y-33816D01*
X87160Y-33861D01*
X87160Y-33951D01*
X87171Y-33974D01*
X87182Y-33985D01*
X87205Y-33996D01*
X87250Y-33996D01*
X87272Y-33985D01*
X87284Y-33974D01*
X87295Y-33951D01*
X87295Y-33895D01*
X87284Y-33873D01*
X87272Y-33861D01*
X87250Y-33850D01*
X87205Y-33850D01*
X87182Y-33861D01*
X87171Y-33873D01*
X87160Y-33895D01*
X77404Y-22883D02*
X77438Y-22894D01*
X77449Y-22905D01*
X77460Y-22928D01*
X77460Y-22961D01*
X77449Y-22984D01*
X77438Y-22995D01*
X77415Y-23006D01*
X77325Y-23006D01*
X77325Y-22770D01*
X77404Y-22770D01*
X77426Y-22781D01*
X77438Y-22793D01*
X77449Y-22815D01*
X77449Y-22838D01*
X77438Y-22860D01*
X77426Y-22871D01*
X77404Y-22883D01*
X77325Y-22883D01*
X77685Y-23006D02*
X77550Y-23006D01*
X77618Y-23006D02*
X77618Y-22770D01*
X77595Y-22804D01*
X77573Y-22826D01*
X77550Y-22838D01*
X77404Y-36083D02*
X77438Y-36094D01*
X77449Y-36105D01*
X77460Y-36128D01*
X77460Y-36161D01*
X77449Y-36184D01*
X77438Y-36195D01*
X77415Y-36206D01*
X77325Y-36206D01*
X77325Y-35970D01*
X77404Y-35970D01*
X77426Y-35981D01*
X77438Y-35993D01*
X77449Y-36015D01*
X77449Y-36038D01*
X77438Y-36060D01*
X77426Y-36071D01*
X77404Y-36083D01*
X77325Y-36083D01*
X77663Y-36049D02*
X77663Y-36206D01*
X77606Y-35959D02*
X77550Y-36128D01*
X77696Y-36128D01*
X97804Y-36083D02*
X97838Y-36094D01*
X97849Y-36105D01*
X97860Y-36128D01*
X97860Y-36161D01*
X97849Y-36184D01*
X97838Y-36195D01*
X97815Y-36206D01*
X97725Y-36206D01*
X97725Y-35970D01*
X97804Y-35970D01*
X97826Y-35981D01*
X97838Y-35993D01*
X97849Y-36015D01*
X97849Y-36038D01*
X97838Y-36060D01*
X97826Y-36071D01*
X97804Y-36083D01*
X97725Y-36083D01*
X97939Y-35970D02*
X98085Y-35970D01*
X98006Y-36060D01*
X98040Y-36060D01*
X98063Y-36071D01*
X98074Y-36083D01*
X98085Y-36105D01*
X98085Y-36161D01*
X98074Y-36184D01*
X98063Y-36195D01*
X98040Y-36206D01*
X97973Y-36206D01*
X97950Y-36195D01*
X97939Y-36184D01*
X97804Y-22883D02*
X97838Y-22894D01*
X97849Y-22905D01*
X97860Y-22928D01*
X97860Y-22961D01*
X97849Y-22984D01*
X97838Y-22995D01*
X97815Y-23006D01*
X97725Y-23006D01*
X97725Y-22770D01*
X97804Y-22770D01*
X97826Y-22781D01*
X97838Y-22793D01*
X97849Y-22815D01*
X97849Y-22838D01*
X97838Y-22860D01*
X97826Y-22871D01*
X97804Y-22883D01*
X97725Y-22883D01*
X97950Y-22793D02*
X97961Y-22781D01*
X97984Y-22770D01*
X98040Y-22770D01*
X98063Y-22781D01*
X98074Y-22793D01*
X98085Y-22815D01*
X98085Y-22838D01*
X98074Y-22871D01*
X97939Y-23006D01*
X98085Y-23006D01*
X87014Y-25093D02*
X87047Y-25104D01*
X87059Y-25115D01*
X87070Y-25138D01*
X87070Y-25171D01*
X87059Y-25194D01*
X87047Y-25205D01*
X87025Y-25216D01*
X86935Y-25216D01*
X86935Y-24980D01*
X87014Y-24980D01*
X87036Y-24991D01*
X87047Y-25003D01*
X87059Y-25025D01*
X87059Y-25048D01*
X87047Y-25070D01*
X87036Y-25081D01*
X87014Y-25093D01*
X86935Y-25093D01*
X87284Y-24980D02*
X87171Y-24980D01*
X87160Y-25093D01*
X87171Y-25081D01*
X87194Y-25070D01*
X87250Y-25070D01*
X87272Y-25081D01*
X87284Y-25093D01*
X87295Y-25115D01*
X87295Y-25171D01*
X87284Y-25194D01*
X87272Y-25205D01*
X87250Y-25216D01*
X87194Y-25216D01*
X87171Y-25205D01*
X87160Y-25194D01*
G54D27*
X92232Y-23436D02*
X92182Y-23436D01*
X92182Y-23417D01*
X92184Y-23413D01*
X92187Y-23410D01*
X92191Y-23408D01*
X92199Y-23408D01*
X92203Y-23410D01*
X92206Y-23413D01*
X92208Y-23417D01*
X92208Y-23436D01*
X92182Y-23365D02*
X92182Y-23375D01*
X92184Y-23379D01*
X92187Y-23382D01*
X92194Y-23386D01*
X92203Y-23389D01*
X92222Y-23389D01*
X92227Y-23386D01*
X92230Y-23384D01*
X92232Y-23379D01*
X92232Y-23370D01*
X92230Y-23365D01*
X92227Y-23363D01*
X92222Y-23360D01*
X92211Y-23360D01*
X92206Y-23363D01*
X92203Y-23365D01*
X92201Y-23370D01*
X92201Y-23379D01*
X92203Y-23384D01*
X92206Y-23386D01*
X92211Y-23389D01*
G54D24*
X92704Y-23566D02*
X92605Y-23566D01*
X92605Y-23542D01*
X92610Y-23528D01*
X92620Y-23519D01*
X92629Y-23514D01*
X92648Y-23510D01*
X92662Y-23510D01*
X92680Y-23514D01*
X92690Y-23519D01*
X92699Y-23528D01*
X92704Y-23542D01*
X92704Y-23566D01*
X92704Y-23411D02*
X92657Y-23444D01*
X92704Y-23467D02*
X92605Y-23467D01*
X92605Y-23430D01*
X92610Y-23421D01*
X92615Y-23416D01*
X92624Y-23411D01*
X92638Y-23411D01*
X92648Y-23416D01*
X92652Y-23421D01*
X92657Y-23430D01*
X92657Y-23467D01*
X92704Y-23369D02*
X92605Y-23369D01*
X92605Y-23346D01*
X92610Y-23332D01*
X92620Y-23322D01*
X92629Y-23317D01*
X92648Y-23313D01*
X92662Y-23313D01*
X92680Y-23317D01*
X92690Y-23322D01*
X92699Y-23332D01*
X92704Y-23346D01*
X92704Y-23369D01*
X92657Y-23252D02*
X92704Y-23252D01*
X92605Y-23285D02*
X92657Y-23252D01*
X92605Y-23219D01*
G54D27*
X92222Y-24136D02*
X92172Y-24136D01*
X92172Y-24117D01*
X92175Y-24113D01*
X92177Y-24110D01*
X92182Y-24108D01*
X92189Y-24108D01*
X92194Y-24110D01*
X92196Y-24113D01*
X92198Y-24117D01*
X92198Y-24136D01*
X92172Y-24091D02*
X92172Y-24058D01*
X92222Y-24079D01*
G54D24*
X92642Y-24221D02*
X92642Y-24189D01*
X92694Y-24174D02*
X92694Y-24221D01*
X92596Y-24221D01*
X92596Y-24174D01*
X92596Y-24114D02*
X92596Y-24095D01*
X92600Y-24085D01*
X92610Y-24076D01*
X92628Y-24071D01*
X92661Y-24071D01*
X92680Y-24076D01*
X92689Y-24085D01*
X92694Y-24095D01*
X92694Y-24114D01*
X92689Y-24123D01*
X92680Y-24132D01*
X92661Y-24137D01*
X92628Y-24137D01*
X92610Y-24132D01*
X92600Y-24123D01*
X92596Y-24114D01*
X92685Y-23973D02*
X92689Y-23978D01*
X92694Y-23992D01*
X92694Y-24001D01*
X92689Y-24015D01*
X92680Y-24025D01*
X92671Y-24029D01*
X92652Y-24034D01*
X92638Y-24034D01*
X92619Y-24029D01*
X92610Y-24025D01*
X92600Y-24015D01*
X92596Y-24001D01*
X92596Y-23992D01*
X92600Y-23978D01*
X92605Y-23973D01*
G54D21*
X82213Y-26019D02*
X82341Y-26019D01*
X82356Y-26012D01*
X82363Y-26004D01*
X82371Y-25989D01*
X82371Y-25959D01*
X82363Y-25944D01*
X82356Y-25937D01*
X82341Y-25929D01*
X82213Y-25929D01*
X82371Y-25772D02*
X82371Y-25862D01*
X82371Y-25817D02*
X82213Y-25817D01*
X82236Y-25832D01*
X82251Y-25847D01*
X82258Y-25862D01*
G54D17*
X83167Y-26371D02*
X83017Y-26371D01*
X83125Y-26321D01*
X83017Y-26271D01*
X83167Y-26271D01*
X83125Y-26207D02*
X83125Y-26135D01*
X83167Y-26221D02*
X83017Y-26171D01*
X83167Y-26121D01*
X83017Y-26085D02*
X83167Y-25985D01*
X83017Y-25985D02*
X83167Y-26085D01*
X83017Y-25942D02*
X83017Y-25849D01*
X83075Y-25899D01*
X83075Y-25878D01*
X83082Y-25864D01*
X83089Y-25857D01*
X83103Y-25849D01*
X83139Y-25849D01*
X83153Y-25857D01*
X83160Y-25864D01*
X83167Y-25878D01*
X83167Y-25921D01*
X83160Y-25935D01*
X83153Y-25942D01*
X83017Y-25757D02*
X83017Y-25742D01*
X83025Y-25728D01*
X83032Y-25721D01*
X83046Y-25714D01*
X83075Y-25707D01*
X83110Y-25707D01*
X83139Y-25714D01*
X83153Y-25721D01*
X83160Y-25728D01*
X83167Y-25742D01*
X83167Y-25757D01*
X83160Y-25771D01*
X83153Y-25778D01*
X83139Y-25785D01*
X83110Y-25792D01*
X83075Y-25792D01*
X83046Y-25785D01*
X83032Y-25778D01*
X83025Y-25771D01*
X83017Y-25757D01*
X83167Y-25564D02*
X83167Y-25650D01*
X83167Y-25607D02*
X83017Y-25607D01*
X83039Y-25621D01*
X83053Y-25635D01*
X83060Y-25650D01*
X83017Y-25514D02*
X83017Y-25421D01*
X83075Y-25471D01*
X83075Y-25450D01*
X83082Y-25435D01*
X83089Y-25428D01*
X83103Y-25421D01*
X83139Y-25421D01*
X83153Y-25428D01*
X83160Y-25435D01*
X83167Y-25450D01*
X83167Y-25492D01*
X83160Y-25507D01*
X83153Y-25514D01*
G54D21*
X85513Y-29619D02*
X85641Y-29619D01*
X85656Y-29612D01*
X85663Y-29604D01*
X85671Y-29589D01*
X85671Y-29559D01*
X85663Y-29544D01*
X85656Y-29537D01*
X85641Y-29529D01*
X85513Y-29529D01*
X85528Y-29462D02*
X85521Y-29455D01*
X85513Y-29440D01*
X85513Y-29402D01*
X85521Y-29387D01*
X85528Y-29380D01*
X85543Y-29372D01*
X85558Y-29372D01*
X85581Y-29380D01*
X85671Y-29470D01*
X85671Y-29372D01*
X85076Y-30212D02*
X85076Y-30137D01*
X85121Y-30227D02*
X84963Y-30174D01*
X85121Y-30122D01*
X85121Y-30069D02*
X84963Y-30069D01*
X85076Y-30017D01*
X84963Y-29964D01*
X85121Y-29964D01*
X85113Y-29897D02*
X85121Y-29874D01*
X85121Y-29837D01*
X85113Y-29822D01*
X85106Y-29814D01*
X85091Y-29807D01*
X85076Y-29807D01*
X85061Y-29814D01*
X85053Y-29822D01*
X85046Y-29837D01*
X85038Y-29867D01*
X85031Y-29882D01*
X85023Y-29889D01*
X85008Y-29897D01*
X84993Y-29897D01*
X84978Y-29889D01*
X84971Y-29882D01*
X84963Y-29867D01*
X84963Y-29829D01*
X84971Y-29807D01*
X85121Y-29657D02*
X85121Y-29747D01*
X85121Y-29702D02*
X84963Y-29702D01*
X84986Y-29717D01*
X85001Y-29732D01*
X85008Y-29747D01*
X85121Y-29507D02*
X85121Y-29597D01*
X85121Y-29552D02*
X84963Y-29552D01*
X84986Y-29567D01*
X85001Y-29582D01*
X85008Y-29597D01*
X84963Y-29455D02*
X84963Y-29350D01*
X85121Y-29417D01*
X85061Y-29290D02*
X85061Y-29170D01*
X84963Y-29110D02*
X84963Y-29012D01*
X85023Y-29065D01*
X85023Y-29042D01*
X85031Y-29027D01*
X85038Y-29020D01*
X85053Y-29012D01*
X85091Y-29012D01*
X85106Y-29020D01*
X85113Y-29027D01*
X85121Y-29042D01*
X85121Y-29087D01*
X85113Y-29102D01*
X85106Y-29110D01*
X85106Y-28945D02*
X85113Y-28937D01*
X85121Y-28945D01*
X85113Y-28952D01*
X85106Y-28945D01*
X85121Y-28945D01*
X84963Y-28885D02*
X84963Y-28787D01*
X85023Y-28840D01*
X85023Y-28817D01*
X85031Y-28802D01*
X85038Y-28795D01*
X85053Y-28787D01*
X85091Y-28787D01*
X85106Y-28795D01*
X85113Y-28802D01*
X85121Y-28817D01*
X85121Y-28862D01*
X85113Y-28877D01*
X85106Y-28885D01*
G54D24*
X93486Y-33335D02*
X93460Y-33298D01*
X93441Y-33335D02*
X93441Y-33256D01*
X93471Y-33256D01*
X93479Y-33260D01*
X93483Y-33264D01*
X93486Y-33271D01*
X93486Y-33283D01*
X93483Y-33290D01*
X93479Y-33294D01*
X93471Y-33298D01*
X93441Y-33298D01*
X93513Y-33256D02*
X93561Y-33256D01*
X93535Y-33286D01*
X93546Y-33286D01*
X93554Y-33290D01*
X93558Y-33294D01*
X93561Y-33301D01*
X93561Y-33320D01*
X93558Y-33328D01*
X93554Y-33331D01*
X93546Y-33335D01*
X93524Y-33335D01*
X93516Y-33331D01*
X93513Y-33328D01*
G54D21*
X93391Y-32566D02*
X93391Y-32671D01*
X93353Y-32506D02*
X93316Y-32618D01*
X93413Y-32618D01*
X93473Y-32671D02*
X93473Y-32513D01*
X93488Y-32611D02*
X93533Y-32671D01*
X93533Y-32566D02*
X93473Y-32626D01*
X93586Y-32513D02*
X93691Y-32513D01*
X93623Y-32671D01*
G54D24*
X94286Y-33335D02*
X94260Y-33298D01*
X94241Y-33335D02*
X94241Y-33256D01*
X94271Y-33256D01*
X94279Y-33260D01*
X94283Y-33264D01*
X94286Y-33271D01*
X94286Y-33283D01*
X94283Y-33290D01*
X94279Y-33294D01*
X94271Y-33298D01*
X94241Y-33298D01*
X94316Y-33264D02*
X94320Y-33260D01*
X94328Y-33256D01*
X94346Y-33256D01*
X94354Y-33260D01*
X94358Y-33264D01*
X94361Y-33271D01*
X94361Y-33279D01*
X94358Y-33290D01*
X94313Y-33335D01*
X94361Y-33335D01*
G54D21*
X94191Y-32586D02*
X94191Y-32691D01*
X94153Y-32526D02*
X94116Y-32638D01*
X94213Y-32638D01*
X94273Y-32691D02*
X94273Y-32533D01*
X94288Y-32631D02*
X94333Y-32691D01*
X94333Y-32586D02*
X94273Y-32646D01*
X94386Y-32533D02*
X94491Y-32533D01*
X94423Y-32691D01*
G54D24*
X94786Y-30135D02*
X94760Y-30098D01*
X94741Y-30135D02*
X94741Y-30056D01*
X94771Y-30056D01*
X94779Y-30060D01*
X94783Y-30064D01*
X94786Y-30071D01*
X94786Y-30083D01*
X94783Y-30090D01*
X94779Y-30094D01*
X94771Y-30098D01*
X94741Y-30098D01*
X94861Y-30135D02*
X94816Y-30135D01*
X94839Y-30135D02*
X94839Y-30056D01*
X94831Y-30068D01*
X94824Y-30075D01*
X94816Y-30079D01*
G54D21*
X94691Y-29366D02*
X94691Y-29471D01*
X94653Y-29306D02*
X94616Y-29418D01*
X94713Y-29418D01*
X94773Y-29471D02*
X94773Y-29313D01*
X94788Y-29411D02*
X94833Y-29471D01*
X94833Y-29366D02*
X94773Y-29426D01*
X94886Y-29313D02*
X94991Y-29313D01*
X94923Y-29471D01*
G54D24*
X90786Y-28535D02*
X90760Y-28498D01*
X90741Y-28535D02*
X90741Y-28456D01*
X90771Y-28456D01*
X90779Y-28460D01*
X90783Y-28464D01*
X90786Y-28471D01*
X90786Y-28483D01*
X90783Y-28490D01*
X90779Y-28494D01*
X90771Y-28498D01*
X90741Y-28498D01*
X90854Y-28456D02*
X90839Y-28456D01*
X90831Y-28460D01*
X90828Y-28464D01*
X90820Y-28475D01*
X90816Y-28490D01*
X90816Y-28520D01*
X90820Y-28528D01*
X90824Y-28531D01*
X90831Y-28535D01*
X90846Y-28535D01*
X90854Y-28531D01*
X90858Y-28528D01*
X90861Y-28520D01*
X90861Y-28501D01*
X90858Y-28494D01*
X90854Y-28490D01*
X90846Y-28486D01*
X90831Y-28486D01*
X90824Y-28490D01*
X90820Y-28494D01*
X90816Y-28501D01*
G54D21*
X90691Y-27766D02*
X90691Y-27871D01*
X90653Y-27706D02*
X90616Y-27818D01*
X90713Y-27818D01*
X90773Y-27871D02*
X90773Y-27713D01*
X90788Y-27811D02*
X90833Y-27871D01*
X90833Y-27766D02*
X90773Y-27826D01*
X90886Y-27713D02*
X90991Y-27713D01*
X90923Y-27871D01*
G54D24*
X94786Y-28535D02*
X94760Y-28498D01*
X94741Y-28535D02*
X94741Y-28456D01*
X94771Y-28456D01*
X94779Y-28460D01*
X94783Y-28464D01*
X94786Y-28471D01*
X94786Y-28483D01*
X94783Y-28490D01*
X94779Y-28494D01*
X94771Y-28498D01*
X94741Y-28498D01*
X94813Y-28456D02*
X94865Y-28456D01*
X94831Y-28535D01*
G54D21*
X94691Y-27766D02*
X94691Y-27871D01*
X94653Y-27706D02*
X94616Y-27818D01*
X94713Y-27818D01*
X94773Y-27871D02*
X94773Y-27713D01*
X94788Y-27811D02*
X94833Y-27871D01*
X94833Y-27766D02*
X94773Y-27826D01*
X94886Y-27713D02*
X94991Y-27713D01*
X94923Y-27871D01*
G54D24*
X90786Y-30135D02*
X90760Y-30098D01*
X90741Y-30135D02*
X90741Y-30056D01*
X90771Y-30056D01*
X90779Y-30060D01*
X90783Y-30064D01*
X90786Y-30071D01*
X90786Y-30083D01*
X90783Y-30090D01*
X90779Y-30094D01*
X90771Y-30098D01*
X90741Y-30098D01*
X90858Y-30056D02*
X90820Y-30056D01*
X90816Y-30094D01*
X90820Y-30090D01*
X90828Y-30086D01*
X90846Y-30086D01*
X90854Y-30090D01*
X90858Y-30094D01*
X90861Y-30101D01*
X90861Y-30120D01*
X90858Y-30128D01*
X90854Y-30131D01*
X90846Y-30135D01*
X90828Y-30135D01*
X90820Y-30131D01*
X90816Y-30128D01*
G54D21*
X90691Y-29366D02*
X90691Y-29471D01*
X90653Y-29306D02*
X90616Y-29418D01*
X90713Y-29418D01*
X90773Y-29471D02*
X90773Y-29313D01*
X90788Y-29411D02*
X90833Y-29471D01*
X90833Y-29366D02*
X90773Y-29426D01*
X90886Y-29313D02*
X90991Y-29313D01*
X90923Y-29471D01*
G54D25*
X85648Y-32036D02*
X85621Y-31998D01*
X85602Y-32036D02*
X85602Y-31956D01*
X85633Y-31956D01*
X85640Y-31960D01*
X85644Y-31963D01*
X85648Y-31971D01*
X85648Y-31982D01*
X85644Y-31990D01*
X85640Y-31994D01*
X85633Y-31998D01*
X85602Y-31998D01*
X85724Y-32036D02*
X85679Y-32036D01*
X85701Y-32036D02*
X85701Y-31956D01*
X85694Y-31967D01*
X85686Y-31975D01*
X85679Y-31979D01*
X85800Y-32036D02*
X85755Y-32036D01*
X85778Y-32036D02*
X85778Y-31956D01*
X85770Y-31967D01*
X85762Y-31975D01*
X85755Y-31979D01*
G54D21*
X85791Y-32666D02*
X85791Y-32771D01*
X85753Y-32606D02*
X85716Y-32718D01*
X85813Y-32718D01*
X85873Y-32771D02*
X85873Y-32613D01*
X85888Y-32711D02*
X85933Y-32771D01*
X85933Y-32666D02*
X85873Y-32726D01*
X85986Y-32613D02*
X86091Y-32613D01*
X86023Y-32771D01*
G54D24*
X89649Y-30125D02*
X89623Y-30088D01*
X89604Y-30125D02*
X89604Y-30046D01*
X89634Y-30046D01*
X89641Y-30050D01*
X89645Y-30054D01*
X89649Y-30061D01*
X89649Y-30073D01*
X89645Y-30080D01*
X89641Y-30084D01*
X89634Y-30088D01*
X89604Y-30088D01*
X89724Y-30125D02*
X89679Y-30125D01*
X89701Y-30125D02*
X89701Y-30046D01*
X89694Y-30058D01*
X89686Y-30065D01*
X89679Y-30069D01*
X89754Y-30054D02*
X89758Y-30050D01*
X89765Y-30046D01*
X89784Y-30046D01*
X89791Y-30050D01*
X89795Y-30054D01*
X89799Y-30061D01*
X89799Y-30069D01*
X89795Y-30080D01*
X89750Y-30125D01*
X89799Y-30125D01*
G54D21*
X89591Y-30766D02*
X89591Y-30871D01*
X89553Y-30706D02*
X89516Y-30818D01*
X89613Y-30818D01*
X89673Y-30871D02*
X89673Y-30713D01*
X89688Y-30811D02*
X89733Y-30871D01*
X89733Y-30766D02*
X89673Y-30826D01*
X89786Y-30713D02*
X89891Y-30713D01*
X89823Y-30871D01*
G54D24*
X89649Y-28935D02*
X89623Y-28898D01*
X89604Y-28935D02*
X89604Y-28856D01*
X89634Y-28856D01*
X89641Y-28860D01*
X89645Y-28864D01*
X89649Y-28871D01*
X89649Y-28883D01*
X89645Y-28890D01*
X89641Y-28894D01*
X89634Y-28898D01*
X89604Y-28898D01*
X89724Y-28935D02*
X89679Y-28935D01*
X89701Y-28935D02*
X89701Y-28856D01*
X89694Y-28868D01*
X89686Y-28875D01*
X89679Y-28879D01*
X89750Y-28856D02*
X89799Y-28856D01*
X89773Y-28886D01*
X89784Y-28886D01*
X89791Y-28890D01*
X89795Y-28894D01*
X89799Y-28901D01*
X89799Y-28920D01*
X89795Y-28928D01*
X89791Y-28931D01*
X89784Y-28935D01*
X89761Y-28935D01*
X89754Y-28931D01*
X89750Y-28928D01*
G54D21*
X89591Y-28166D02*
X89591Y-28271D01*
X89553Y-28106D02*
X89516Y-28218D01*
X89613Y-28218D01*
X89673Y-28271D02*
X89673Y-28113D01*
X89688Y-28211D02*
X89733Y-28271D01*
X89733Y-28166D02*
X89673Y-28226D01*
X89786Y-28113D02*
X89891Y-28113D01*
X89823Y-28271D01*
G54D24*
X94986Y-25735D02*
X94960Y-25698D01*
X94941Y-25735D02*
X94941Y-25656D01*
X94971Y-25656D01*
X94979Y-25660D01*
X94983Y-25664D01*
X94986Y-25671D01*
X94986Y-25683D01*
X94983Y-25690D01*
X94979Y-25694D01*
X94971Y-25698D01*
X94941Y-25698D01*
X95054Y-25683D02*
X95054Y-25735D01*
X95035Y-25653D02*
X95016Y-25709D01*
X95065Y-25709D01*
G54D21*
X94891Y-26366D02*
X94891Y-26471D01*
X94853Y-26306D02*
X94816Y-26418D01*
X94913Y-26418D01*
X94973Y-26471D02*
X94973Y-26313D01*
X94988Y-26411D02*
X95033Y-26471D01*
X95033Y-26366D02*
X94973Y-26426D01*
X95086Y-26313D02*
X95191Y-26313D01*
X95123Y-26471D01*
G54D24*
X89386Y-31835D02*
X89360Y-31798D01*
X89341Y-31835D02*
X89341Y-31756D01*
X89371Y-31756D01*
X89379Y-31760D01*
X89383Y-31764D01*
X89386Y-31771D01*
X89386Y-31783D01*
X89383Y-31790D01*
X89379Y-31794D01*
X89371Y-31798D01*
X89341Y-31798D01*
X89424Y-31835D02*
X89439Y-31835D01*
X89446Y-31831D01*
X89450Y-31828D01*
X89458Y-31816D01*
X89461Y-31801D01*
X89461Y-31771D01*
X89458Y-31764D01*
X89454Y-31760D01*
X89446Y-31756D01*
X89431Y-31756D01*
X89424Y-31760D01*
X89420Y-31764D01*
X89416Y-31771D01*
X89416Y-31790D01*
X89420Y-31798D01*
X89424Y-31801D01*
X89431Y-31805D01*
X89446Y-31805D01*
X89454Y-31801D01*
X89458Y-31798D01*
X89461Y-31790D01*
G54D21*
X89291Y-31086D02*
X89291Y-31191D01*
X89253Y-31026D02*
X89216Y-31138D01*
X89313Y-31138D01*
X89373Y-31191D02*
X89373Y-31033D01*
X89388Y-31131D02*
X89433Y-31191D01*
X89433Y-31086D02*
X89373Y-31146D01*
X89486Y-31033D02*
X89591Y-31033D01*
X89523Y-31191D01*
G54D24*
X89349Y-33235D02*
X89323Y-33198D01*
X89304Y-33235D02*
X89304Y-33156D01*
X89334Y-33156D01*
X89341Y-33160D01*
X89345Y-33164D01*
X89349Y-33171D01*
X89349Y-33183D01*
X89345Y-33190D01*
X89341Y-33194D01*
X89334Y-33198D01*
X89304Y-33198D01*
X89424Y-33235D02*
X89379Y-33235D01*
X89401Y-33235D02*
X89401Y-33156D01*
X89394Y-33168D01*
X89386Y-33175D01*
X89379Y-33179D01*
X89473Y-33156D02*
X89480Y-33156D01*
X89488Y-33160D01*
X89491Y-33164D01*
X89495Y-33171D01*
X89499Y-33186D01*
X89499Y-33205D01*
X89495Y-33220D01*
X89491Y-33228D01*
X89488Y-33231D01*
X89480Y-33235D01*
X89473Y-33235D01*
X89465Y-33231D01*
X89461Y-33228D01*
X89458Y-33220D01*
X89454Y-33205D01*
X89454Y-33186D01*
X89458Y-33171D01*
X89461Y-33164D01*
X89465Y-33160D01*
X89473Y-33156D01*
G54D21*
X89291Y-32486D02*
X89291Y-32591D01*
X89253Y-32426D02*
X89216Y-32538D01*
X89313Y-32538D01*
X89373Y-32591D02*
X89373Y-32433D01*
X89388Y-32531D02*
X89433Y-32591D01*
X89433Y-32486D02*
X89373Y-32546D01*
X89486Y-32433D02*
X89591Y-32433D01*
X89523Y-32591D01*
X79847Y-29553D02*
X79870Y-29561D01*
X79907Y-29561D01*
X79922Y-29553D01*
X79930Y-29546D01*
X79937Y-29531D01*
X79937Y-29516D01*
X79930Y-29501D01*
X79922Y-29493D01*
X79907Y-29486D01*
X79877Y-29478D01*
X79862Y-29471D01*
X79855Y-29463D01*
X79847Y-29448D01*
X79847Y-29433D01*
X79855Y-29418D01*
X79862Y-29411D01*
X79877Y-29403D01*
X79915Y-29403D01*
X79937Y-29411D01*
X80065Y-29553D02*
X80050Y-29561D01*
X80020Y-29561D01*
X80005Y-29553D01*
X79997Y-29538D01*
X79997Y-29478D01*
X80005Y-29463D01*
X80020Y-29456D01*
X80050Y-29456D01*
X80065Y-29463D01*
X80072Y-29478D01*
X80072Y-29493D01*
X79997Y-29508D01*
X80140Y-29456D02*
X80140Y-29561D01*
X80140Y-29471D02*
X80147Y-29463D01*
X80162Y-29456D01*
X80185Y-29456D01*
X80200Y-29463D01*
X80207Y-29478D01*
X80207Y-29561D01*
X80275Y-29553D02*
X80290Y-29561D01*
X80319Y-29561D01*
X80334Y-29553D01*
X80342Y-29538D01*
X80342Y-29531D01*
X80334Y-29516D01*
X80319Y-29508D01*
X80297Y-29508D01*
X80282Y-29501D01*
X80275Y-29486D01*
X80275Y-29478D01*
X80282Y-29463D01*
X80297Y-29456D01*
X80319Y-29456D01*
X80334Y-29463D01*
X80432Y-29561D02*
X80417Y-29553D01*
X80409Y-29546D01*
X80402Y-29531D01*
X80402Y-29486D01*
X80409Y-29471D01*
X80417Y-29463D01*
X80432Y-29456D01*
X80454Y-29456D01*
X80469Y-29463D01*
X80477Y-29471D01*
X80484Y-29486D01*
X80484Y-29531D01*
X80477Y-29546D01*
X80469Y-29553D01*
X80454Y-29561D01*
X80432Y-29561D01*
X80552Y-29561D02*
X80552Y-29456D01*
X80552Y-29486D02*
X80559Y-29471D01*
X80567Y-29463D01*
X80582Y-29456D01*
X80597Y-29456D01*
X80732Y-29561D02*
X80642Y-29561D01*
X80687Y-29561D02*
X80687Y-29403D01*
X80672Y-29426D01*
X80657Y-29441D01*
X80642Y-29448D01*
G54D28*
X80032Y-34503D02*
X79965Y-34503D01*
X79999Y-34503D02*
X79999Y-34385D01*
X79987Y-34402D01*
X79976Y-34413D01*
X79965Y-34419D01*
X80105Y-34385D02*
X80117Y-34385D01*
X80128Y-34390D01*
X80134Y-34396D01*
X80139Y-34407D01*
X80145Y-34430D01*
X80145Y-34458D01*
X80139Y-34480D01*
X80134Y-34492D01*
X80128Y-34497D01*
X80117Y-34503D01*
X80105Y-34503D01*
X80094Y-34497D01*
X80089Y-34492D01*
X80083Y-34480D01*
X80077Y-34458D01*
X80077Y-34430D01*
X80083Y-34407D01*
X80089Y-34396D01*
X80094Y-34390D01*
X80105Y-34385D01*
X80195Y-34458D02*
X80285Y-34458D01*
X80342Y-34503D02*
X80342Y-34385D01*
X80370Y-34385D01*
X80387Y-34390D01*
X80398Y-34402D01*
X80404Y-34413D01*
X80409Y-34435D01*
X80409Y-34452D01*
X80404Y-34475D01*
X80398Y-34486D01*
X80387Y-34497D01*
X80370Y-34503D01*
X80342Y-34503D01*
X80482Y-34385D02*
X80505Y-34385D01*
X80516Y-34390D01*
X80527Y-34402D01*
X80533Y-34424D01*
X80533Y-34464D01*
X80527Y-34486D01*
X80516Y-34497D01*
X80505Y-34503D01*
X80482Y-34503D01*
X80471Y-34497D01*
X80460Y-34486D01*
X80454Y-34464D01*
X80454Y-34424D01*
X80460Y-34402D01*
X80471Y-34390D01*
X80482Y-34385D01*
X80623Y-34441D02*
X80584Y-34441D01*
X80584Y-34503D02*
X80584Y-34385D01*
X80640Y-34385D01*
G54D16*
X89286Y-34581D02*
X89264Y-34570D01*
X89230Y-34570D01*
X89196Y-34581D01*
X89174Y-34604D01*
X89163Y-34626D01*
X89151Y-34671D01*
X89151Y-34705D01*
X89163Y-34750D01*
X89174Y-34773D01*
X89196Y-34795D01*
X89230Y-34806D01*
X89253Y-34806D01*
X89286Y-34795D01*
X89298Y-34784D01*
X89298Y-34705D01*
X89253Y-34705D01*
X89388Y-34795D02*
X89421Y-34806D01*
X89478Y-34806D01*
X89500Y-34795D01*
X89511Y-34784D01*
X89523Y-34761D01*
X89523Y-34739D01*
X89511Y-34716D01*
X89500Y-34705D01*
X89478Y-34694D01*
X89433Y-34683D01*
X89410Y-34671D01*
X89399Y-34660D01*
X89388Y-34638D01*
X89388Y-34615D01*
X89399Y-34593D01*
X89410Y-34581D01*
X89433Y-34570D01*
X89489Y-34570D01*
X89523Y-34581D01*
X89748Y-34806D02*
X89613Y-34806D01*
X89680Y-34806D02*
X89680Y-34570D01*
X89658Y-34604D01*
X89635Y-34626D01*
X89613Y-34638D01*
X88086Y-34581D02*
X88064Y-34570D01*
X88030Y-34570D01*
X87996Y-34581D01*
X87974Y-34604D01*
X87963Y-34626D01*
X87951Y-34671D01*
X87951Y-34705D01*
X87963Y-34750D01*
X87974Y-34773D01*
X87996Y-34795D01*
X88030Y-34806D01*
X88053Y-34806D01*
X88086Y-34795D01*
X88098Y-34784D01*
X88098Y-34705D01*
X88053Y-34705D01*
X88188Y-34795D02*
X88221Y-34806D01*
X88278Y-34806D01*
X88300Y-34795D01*
X88311Y-34784D01*
X88323Y-34761D01*
X88323Y-34739D01*
X88311Y-34716D01*
X88300Y-34705D01*
X88278Y-34694D01*
X88233Y-34683D01*
X88210Y-34671D01*
X88199Y-34660D01*
X88188Y-34638D01*
X88188Y-34615D01*
X88199Y-34593D01*
X88210Y-34581D01*
X88233Y-34570D01*
X88289Y-34570D01*
X88323Y-34581D01*
X88413Y-34593D02*
X88424Y-34581D01*
X88446Y-34570D01*
X88503Y-34570D01*
X88525Y-34581D01*
X88536Y-34593D01*
X88548Y-34615D01*
X88548Y-34638D01*
X88536Y-34671D01*
X88401Y-34806D01*
X88548Y-34806D01*
X81231Y-25163D02*
X81220Y-25185D01*
X81220Y-25219D01*
X81231Y-25253D01*
X81254Y-25275D01*
X81276Y-25286D01*
X81321Y-25298D01*
X81355Y-25298D01*
X81400Y-25286D01*
X81423Y-25275D01*
X81445Y-25253D01*
X81456Y-25219D01*
X81456Y-25196D01*
X81445Y-25163D01*
X81434Y-25151D01*
X81355Y-25151D01*
X81355Y-25196D01*
X81445Y-25061D02*
X81456Y-25028D01*
X81456Y-24971D01*
X81445Y-24949D01*
X81434Y-24938D01*
X81411Y-24926D01*
X81389Y-24926D01*
X81366Y-24938D01*
X81355Y-24949D01*
X81344Y-24971D01*
X81333Y-25016D01*
X81321Y-25039D01*
X81310Y-25050D01*
X81288Y-25061D01*
X81265Y-25061D01*
X81243Y-25050D01*
X81231Y-25039D01*
X81220Y-25016D01*
X81220Y-24960D01*
X81231Y-24926D01*
X81220Y-24848D02*
X81220Y-24701D01*
X81310Y-24780D01*
X81310Y-24746D01*
X81321Y-24724D01*
X81333Y-24713D01*
X81355Y-24701D01*
X81411Y-24701D01*
X81434Y-24713D01*
X81445Y-24724D01*
X81456Y-24746D01*
X81456Y-24814D01*
X81445Y-24836D01*
X81434Y-24848D01*
G54D21*
X80806Y-24271D02*
X80716Y-24271D01*
X80761Y-24271D02*
X80761Y-24113D01*
X80746Y-24136D01*
X80731Y-24151D01*
X80716Y-24158D01*
X80903Y-24113D02*
X80918Y-24113D01*
X80933Y-24121D01*
X80941Y-24128D01*
X80948Y-24143D01*
X80956Y-24173D01*
X80956Y-24211D01*
X80948Y-24241D01*
X80941Y-24256D01*
X80933Y-24263D01*
X80918Y-24271D01*
X80903Y-24271D01*
X80888Y-24263D01*
X80881Y-24256D01*
X80873Y-24241D01*
X80866Y-24211D01*
X80866Y-24173D01*
X80873Y-24143D01*
X80881Y-24128D01*
X80888Y-24121D01*
X80903Y-24113D01*
X81023Y-24271D02*
X81023Y-24113D01*
X81061Y-24113D01*
X81083Y-24121D01*
X81098Y-24136D01*
X81106Y-24151D01*
X81113Y-24181D01*
X81113Y-24203D01*
X81106Y-24233D01*
X81098Y-24248D01*
X81083Y-24263D01*
X81061Y-24271D01*
X81023Y-24271D01*
X81211Y-24113D02*
X81241Y-24113D01*
X81256Y-24121D01*
X81271Y-24136D01*
X81278Y-24166D01*
X81278Y-24218D01*
X81271Y-24248D01*
X81256Y-24263D01*
X81241Y-24271D01*
X81211Y-24271D01*
X81196Y-24263D01*
X81181Y-24248D01*
X81173Y-24218D01*
X81173Y-24166D01*
X81181Y-24136D01*
X81196Y-24121D01*
X81211Y-24113D01*
X81398Y-24188D02*
X81346Y-24188D01*
X81346Y-24271D02*
X81346Y-24113D01*
X81421Y-24113D01*
X81481Y-24211D02*
X81601Y-24211D01*
X81661Y-24113D02*
X81758Y-24113D01*
X81706Y-24173D01*
X81728Y-24173D01*
X81743Y-24181D01*
X81751Y-24188D01*
X81758Y-24203D01*
X81758Y-24241D01*
X81751Y-24256D01*
X81743Y-24263D01*
X81728Y-24271D01*
X81683Y-24271D01*
X81668Y-24263D01*
X81661Y-24256D01*
X81826Y-24256D02*
X81833Y-24263D01*
X81826Y-24271D01*
X81818Y-24263D01*
X81826Y-24256D01*
X81826Y-24271D01*
X81886Y-24113D02*
X81983Y-24113D01*
X81931Y-24173D01*
X81953Y-24173D01*
X81968Y-24181D01*
X81976Y-24188D01*
X81983Y-24203D01*
X81983Y-24241D01*
X81976Y-24256D01*
X81968Y-24263D01*
X81953Y-24271D01*
X81908Y-24271D01*
X81893Y-24263D01*
X81886Y-24256D01*
G54D16*
X88181Y-32863D02*
X88170Y-32885D01*
X88170Y-32919D01*
X88181Y-32953D01*
X88204Y-32975D01*
X88226Y-32986D01*
X88271Y-32998D01*
X88305Y-32998D01*
X88350Y-32986D01*
X88373Y-32975D01*
X88395Y-32953D01*
X88406Y-32919D01*
X88406Y-32896D01*
X88395Y-32863D01*
X88384Y-32851D01*
X88305Y-32851D01*
X88305Y-32896D01*
X88395Y-32761D02*
X88406Y-32728D01*
X88406Y-32671D01*
X88395Y-32649D01*
X88384Y-32638D01*
X88361Y-32626D01*
X88339Y-32626D01*
X88316Y-32638D01*
X88305Y-32649D01*
X88294Y-32671D01*
X88283Y-32716D01*
X88271Y-32739D01*
X88260Y-32750D01*
X88238Y-32761D01*
X88215Y-32761D01*
X88193Y-32750D01*
X88181Y-32739D01*
X88170Y-32716D01*
X88170Y-32660D01*
X88181Y-32626D01*
X88249Y-32424D02*
X88406Y-32424D01*
X88159Y-32480D02*
X88328Y-32536D01*
X88328Y-32390D01*
X89881Y-26763D02*
X89870Y-26785D01*
X89870Y-26819D01*
X89881Y-26853D01*
X89904Y-26875D01*
X89926Y-26886D01*
X89971Y-26898D01*
X90005Y-26898D01*
X90050Y-26886D01*
X90073Y-26875D01*
X90095Y-26853D01*
X90106Y-26819D01*
X90106Y-26796D01*
X90095Y-26763D01*
X90084Y-26751D01*
X90005Y-26751D01*
X90005Y-26796D01*
X90095Y-26661D02*
X90106Y-26628D01*
X90106Y-26571D01*
X90095Y-26549D01*
X90084Y-26538D01*
X90061Y-26526D01*
X90039Y-26526D01*
X90016Y-26538D01*
X90005Y-26549D01*
X89994Y-26571D01*
X89983Y-26616D01*
X89971Y-26639D01*
X89960Y-26650D01*
X89938Y-26661D01*
X89915Y-26661D01*
X89893Y-26650D01*
X89881Y-26639D01*
X89870Y-26616D01*
X89870Y-26560D01*
X89881Y-26526D01*
X89870Y-26313D02*
X89870Y-26425D01*
X89983Y-26436D01*
X89971Y-26425D01*
X89960Y-26403D01*
X89960Y-26346D01*
X89971Y-26324D01*
X89983Y-26313D01*
X90005Y-26301D01*
X90061Y-26301D01*
X90084Y-26313D01*
X90095Y-26324D01*
X90106Y-26346D01*
X90106Y-26403D01*
X90095Y-26425D01*
X90084Y-26436D01*
X88881Y-26763D02*
X88870Y-26785D01*
X88870Y-26819D01*
X88881Y-26853D01*
X88904Y-26875D01*
X88926Y-26886D01*
X88971Y-26898D01*
X89005Y-26898D01*
X89050Y-26886D01*
X89073Y-26875D01*
X89095Y-26853D01*
X89106Y-26819D01*
X89106Y-26796D01*
X89095Y-26763D01*
X89084Y-26751D01*
X89005Y-26751D01*
X89005Y-26796D01*
X89095Y-26661D02*
X89106Y-26628D01*
X89106Y-26571D01*
X89095Y-26549D01*
X89084Y-26538D01*
X89061Y-26526D01*
X89039Y-26526D01*
X89016Y-26538D01*
X89005Y-26549D01*
X88994Y-26571D01*
X88983Y-26616D01*
X88971Y-26639D01*
X88960Y-26650D01*
X88938Y-26661D01*
X88915Y-26661D01*
X88893Y-26650D01*
X88881Y-26639D01*
X88870Y-26616D01*
X88870Y-26560D01*
X88881Y-26526D01*
X88870Y-26324D02*
X88870Y-26369D01*
X88881Y-26391D01*
X88893Y-26403D01*
X88926Y-26425D01*
X88971Y-26436D01*
X89061Y-26436D01*
X89084Y-26425D01*
X89095Y-26414D01*
X89106Y-26391D01*
X89106Y-26346D01*
X89095Y-26324D01*
X89084Y-26313D01*
X89061Y-26301D01*
X89005Y-26301D01*
X88983Y-26313D01*
X88971Y-26324D01*
X88960Y-26346D01*
X88960Y-26391D01*
X88971Y-26414D01*
X88983Y-26425D01*
X89005Y-26436D01*
X87181Y-32863D02*
X87170Y-32885D01*
X87170Y-32919D01*
X87181Y-32953D01*
X87204Y-32975D01*
X87226Y-32986D01*
X87271Y-32998D01*
X87305Y-32998D01*
X87350Y-32986D01*
X87373Y-32975D01*
X87395Y-32953D01*
X87406Y-32919D01*
X87406Y-32896D01*
X87395Y-32863D01*
X87384Y-32851D01*
X87305Y-32851D01*
X87305Y-32896D01*
X87395Y-32761D02*
X87406Y-32728D01*
X87406Y-32671D01*
X87395Y-32649D01*
X87384Y-32638D01*
X87361Y-32626D01*
X87339Y-32626D01*
X87316Y-32638D01*
X87305Y-32649D01*
X87294Y-32671D01*
X87283Y-32716D01*
X87271Y-32739D01*
X87260Y-32750D01*
X87238Y-32761D01*
X87215Y-32761D01*
X87193Y-32750D01*
X87181Y-32739D01*
X87170Y-32716D01*
X87170Y-32660D01*
X87181Y-32626D01*
X87170Y-32548D02*
X87170Y-32390D01*
X87406Y-32491D01*
X87881Y-26763D02*
X87870Y-26785D01*
X87870Y-26819D01*
X87881Y-26853D01*
X87904Y-26875D01*
X87926Y-26886D01*
X87971Y-26898D01*
X88005Y-26898D01*
X88050Y-26886D01*
X88073Y-26875D01*
X88095Y-26853D01*
X88106Y-26819D01*
X88106Y-26796D01*
X88095Y-26763D01*
X88084Y-26751D01*
X88005Y-26751D01*
X88005Y-26796D01*
X88095Y-26661D02*
X88106Y-26628D01*
X88106Y-26571D01*
X88095Y-26549D01*
X88084Y-26538D01*
X88061Y-26526D01*
X88039Y-26526D01*
X88016Y-26538D01*
X88005Y-26549D01*
X87994Y-26571D01*
X87983Y-26616D01*
X87971Y-26639D01*
X87960Y-26650D01*
X87938Y-26661D01*
X87915Y-26661D01*
X87893Y-26650D01*
X87881Y-26639D01*
X87870Y-26616D01*
X87870Y-26560D01*
X87881Y-26526D01*
X87971Y-26391D02*
X87960Y-26414D01*
X87949Y-26425D01*
X87926Y-26436D01*
X87915Y-26436D01*
X87893Y-26425D01*
X87881Y-26414D01*
X87870Y-26391D01*
X87870Y-26346D01*
X87881Y-26324D01*
X87893Y-26313D01*
X87915Y-26301D01*
X87926Y-26301D01*
X87949Y-26313D01*
X87960Y-26324D01*
X87971Y-26346D01*
X87971Y-26391D01*
X87983Y-26414D01*
X87994Y-26425D01*
X88016Y-26436D01*
X88061Y-26436D01*
X88084Y-26425D01*
X88095Y-26414D01*
X88106Y-26391D01*
X88106Y-26346D01*
X88095Y-26324D01*
X88084Y-26313D01*
X88061Y-26301D01*
X88016Y-26301D01*
X87994Y-26313D01*
X87983Y-26324D01*
X87971Y-26346D01*
X86881Y-26763D02*
X86870Y-26785D01*
X86870Y-26819D01*
X86881Y-26853D01*
X86904Y-26875D01*
X86926Y-26886D01*
X86971Y-26898D01*
X87005Y-26898D01*
X87050Y-26886D01*
X87073Y-26875D01*
X87095Y-26853D01*
X87106Y-26819D01*
X87106Y-26796D01*
X87095Y-26763D01*
X87084Y-26751D01*
X87005Y-26751D01*
X87005Y-26796D01*
X87095Y-26661D02*
X87106Y-26628D01*
X87106Y-26571D01*
X87095Y-26549D01*
X87084Y-26538D01*
X87061Y-26526D01*
X87039Y-26526D01*
X87016Y-26538D01*
X87005Y-26549D01*
X86994Y-26571D01*
X86983Y-26616D01*
X86971Y-26639D01*
X86960Y-26650D01*
X86938Y-26661D01*
X86915Y-26661D01*
X86893Y-26650D01*
X86881Y-26639D01*
X86870Y-26616D01*
X86870Y-26560D01*
X86881Y-26526D01*
X87106Y-26414D02*
X87106Y-26369D01*
X87095Y-26346D01*
X87084Y-26335D01*
X87050Y-26313D01*
X87005Y-26301D01*
X86915Y-26301D01*
X86893Y-26313D01*
X86881Y-26324D01*
X86870Y-26346D01*
X86870Y-26391D01*
X86881Y-26414D01*
X86893Y-26425D01*
X86915Y-26436D01*
X86971Y-26436D01*
X86994Y-26425D01*
X87005Y-26414D01*
X87016Y-26391D01*
X87016Y-26346D01*
X87005Y-26324D01*
X86994Y-26313D01*
X86971Y-26301D01*
G54D17*
X82453Y-30624D02*
X82460Y-30632D01*
X82467Y-30653D01*
X82467Y-30667D01*
X82460Y-30689D01*
X82446Y-30703D01*
X82432Y-30710D01*
X82403Y-30717D01*
X82382Y-30717D01*
X82353Y-30710D01*
X82339Y-30703D01*
X82325Y-30689D01*
X82317Y-30667D01*
X82317Y-30653D01*
X82325Y-30632D01*
X82332Y-30624D01*
X82467Y-30482D02*
X82467Y-30567D01*
X82467Y-30524D02*
X82317Y-30524D01*
X82339Y-30539D01*
X82353Y-30553D01*
X82360Y-30567D01*
G54D29*
X94017Y-23270D02*
X94007Y-23279D01*
X93979Y-23289D01*
X93960Y-23289D01*
X93932Y-23279D01*
X93913Y-23260D01*
X93904Y-23242D01*
X93895Y-23204D01*
X93895Y-23176D01*
X93904Y-23139D01*
X93913Y-23120D01*
X93932Y-23101D01*
X93960Y-23092D01*
X93979Y-23092D01*
X94007Y-23101D01*
X94017Y-23110D01*
X94082Y-23092D02*
X94204Y-23092D01*
X94139Y-23167D01*
X94167Y-23167D01*
X94186Y-23176D01*
X94195Y-23185D01*
X94204Y-23204D01*
X94204Y-23251D01*
X94195Y-23270D01*
X94186Y-23279D01*
X94167Y-23289D01*
X94110Y-23289D01*
X94092Y-23279D01*
X94082Y-23270D01*
G54D30*
X88528Y-27613D02*
X88531Y-27616D01*
X88535Y-27628D01*
X88535Y-27635D01*
X88531Y-27647D01*
X88524Y-27654D01*
X88516Y-27658D01*
X88501Y-27662D01*
X88490Y-27662D01*
X88475Y-27658D01*
X88468Y-27654D01*
X88460Y-27647D01*
X88456Y-27635D01*
X88456Y-27628D01*
X88460Y-27616D01*
X88464Y-27613D01*
X88464Y-27583D02*
X88460Y-27579D01*
X88456Y-27571D01*
X88456Y-27552D01*
X88460Y-27545D01*
X88464Y-27541D01*
X88471Y-27537D01*
X88479Y-27537D01*
X88490Y-27541D01*
X88535Y-27586D01*
X88535Y-27537D01*
X81336Y-27128D02*
X81333Y-27131D01*
X81321Y-27135D01*
X81314Y-27135D01*
X81302Y-27131D01*
X81295Y-27124D01*
X81291Y-27116D01*
X81287Y-27101D01*
X81287Y-27090D01*
X81291Y-27075D01*
X81295Y-27068D01*
X81302Y-27060D01*
X81314Y-27056D01*
X81321Y-27056D01*
X81333Y-27060D01*
X81336Y-27064D01*
X81408Y-27056D02*
X81370Y-27056D01*
X81366Y-27094D01*
X81370Y-27090D01*
X81378Y-27086D01*
X81397Y-27086D01*
X81404Y-27090D01*
X81408Y-27094D01*
X81412Y-27101D01*
X81412Y-27120D01*
X81408Y-27128D01*
X81404Y-27131D01*
X81397Y-27135D01*
X81378Y-27135D01*
X81370Y-27131D01*
X81366Y-27128D01*
X89728Y-27613D02*
X89731Y-27616D01*
X89735Y-27628D01*
X89735Y-27635D01*
X89731Y-27647D01*
X89724Y-27654D01*
X89716Y-27658D01*
X89701Y-27662D01*
X89690Y-27662D01*
X89675Y-27658D01*
X89668Y-27654D01*
X89660Y-27647D01*
X89656Y-27635D01*
X89656Y-27628D01*
X89660Y-27616D01*
X89664Y-27613D01*
X89656Y-27545D02*
X89656Y-27560D01*
X89660Y-27568D01*
X89664Y-27571D01*
X89675Y-27579D01*
X89690Y-27583D01*
X89720Y-27583D01*
X89728Y-27579D01*
X89731Y-27575D01*
X89735Y-27568D01*
X89735Y-27552D01*
X89731Y-27545D01*
X89728Y-27541D01*
X89720Y-27537D01*
X89701Y-27537D01*
X89694Y-27541D01*
X89690Y-27545D01*
X89686Y-27552D01*
X89686Y-27568D01*
X89690Y-27575D01*
X89694Y-27579D01*
X89701Y-27583D01*
X86536Y-35628D02*
X86533Y-35631D01*
X86521Y-35635D01*
X86514Y-35635D01*
X86502Y-35631D01*
X86495Y-35624D01*
X86491Y-35616D01*
X86487Y-35601D01*
X86487Y-35590D01*
X86491Y-35575D01*
X86495Y-35568D01*
X86502Y-35560D01*
X86514Y-35556D01*
X86521Y-35556D01*
X86533Y-35560D01*
X86536Y-35564D01*
X86563Y-35556D02*
X86615Y-35556D01*
X86581Y-35635D01*
X96228Y-34213D02*
X96231Y-34216D01*
X96235Y-34228D01*
X96235Y-34235D01*
X96231Y-34247D01*
X96224Y-34254D01*
X96216Y-34258D01*
X96201Y-34262D01*
X96190Y-34262D01*
X96175Y-34258D01*
X96168Y-34254D01*
X96160Y-34247D01*
X96156Y-34235D01*
X96156Y-34228D01*
X96160Y-34216D01*
X96164Y-34213D01*
X96235Y-34175D02*
X96235Y-34160D01*
X96231Y-34152D01*
X96228Y-34149D01*
X96216Y-34141D01*
X96201Y-34137D01*
X96171Y-34137D01*
X96164Y-34141D01*
X96160Y-34145D01*
X96156Y-34152D01*
X96156Y-34168D01*
X96160Y-34175D01*
X96164Y-34179D01*
X96171Y-34183D01*
X96190Y-34183D01*
X96198Y-34179D01*
X96201Y-34175D01*
X96205Y-34168D01*
X96205Y-34152D01*
X96201Y-34145D01*
X96198Y-34141D01*
X96190Y-34137D01*
X96228Y-33550D02*
X96231Y-33554D01*
X96235Y-33565D01*
X96235Y-33573D01*
X96231Y-33584D01*
X96224Y-33592D01*
X96216Y-33595D01*
X96201Y-33599D01*
X96190Y-33599D01*
X96175Y-33595D01*
X96168Y-33592D01*
X96160Y-33584D01*
X96156Y-33573D01*
X96156Y-33565D01*
X96160Y-33554D01*
X96164Y-33550D01*
X96235Y-33475D02*
X96235Y-33520D01*
X96235Y-33498D02*
X96156Y-33498D01*
X96168Y-33505D01*
X96175Y-33513D01*
X96179Y-33520D01*
X96156Y-33426D02*
X96156Y-33419D01*
X96160Y-33411D01*
X96164Y-33407D01*
X96171Y-33404D01*
X96186Y-33400D01*
X96205Y-33400D01*
X96220Y-33404D01*
X96228Y-33407D01*
X96231Y-33411D01*
X96235Y-33419D01*
X96235Y-33426D01*
X96231Y-33434D01*
X96228Y-33437D01*
X96220Y-33441D01*
X96205Y-33445D01*
X96186Y-33445D01*
X96171Y-33441D01*
X96164Y-33437D01*
X96160Y-33434D01*
X96156Y-33426D01*
X90488Y-32410D02*
X90491Y-32414D01*
X90495Y-32425D01*
X90495Y-32433D01*
X90491Y-32444D01*
X90484Y-32452D01*
X90476Y-32455D01*
X90461Y-32459D01*
X90450Y-32459D01*
X90435Y-32455D01*
X90427Y-32452D01*
X90420Y-32444D01*
X90416Y-32433D01*
X90416Y-32425D01*
X90420Y-32414D01*
X90424Y-32410D01*
X90495Y-32335D02*
X90495Y-32380D01*
X90495Y-32358D02*
X90416Y-32358D01*
X90427Y-32365D01*
X90435Y-32373D01*
X90439Y-32380D01*
X90495Y-32260D02*
X90495Y-32305D01*
X90495Y-32282D02*
X90416Y-32282D01*
X90427Y-32290D01*
X90435Y-32297D01*
X90439Y-32305D01*
X87128Y-31200D02*
X87131Y-31204D01*
X87135Y-31215D01*
X87135Y-31223D01*
X87131Y-31234D01*
X87124Y-31242D01*
X87116Y-31245D01*
X87101Y-31249D01*
X87090Y-31249D01*
X87075Y-31245D01*
X87068Y-31242D01*
X87060Y-31234D01*
X87056Y-31223D01*
X87056Y-31215D01*
X87060Y-31204D01*
X87064Y-31200D01*
X87135Y-31125D02*
X87135Y-31170D01*
X87135Y-31148D02*
X87056Y-31148D01*
X87068Y-31155D01*
X87075Y-31163D01*
X87079Y-31170D01*
X87064Y-31095D02*
X87060Y-31091D01*
X87056Y-31084D01*
X87056Y-31065D01*
X87060Y-31057D01*
X87064Y-31054D01*
X87071Y-31050D01*
X87079Y-31050D01*
X87090Y-31054D01*
X87135Y-31099D01*
X87135Y-31050D01*
X85849Y-27128D02*
X85845Y-27131D01*
X85834Y-27135D01*
X85826Y-27135D01*
X85815Y-27131D01*
X85807Y-27124D01*
X85804Y-27116D01*
X85800Y-27101D01*
X85800Y-27090D01*
X85804Y-27075D01*
X85807Y-27068D01*
X85815Y-27060D01*
X85826Y-27056D01*
X85834Y-27056D01*
X85845Y-27060D01*
X85849Y-27064D01*
X85924Y-27135D02*
X85879Y-27135D01*
X85901Y-27135D02*
X85901Y-27056D01*
X85894Y-27068D01*
X85886Y-27075D01*
X85879Y-27079D01*
X85950Y-27056D02*
X85999Y-27056D01*
X85973Y-27086D01*
X85984Y-27086D01*
X85992Y-27090D01*
X85995Y-27094D01*
X85999Y-27101D01*
X85999Y-27120D01*
X85995Y-27128D01*
X85992Y-27131D01*
X85984Y-27135D01*
X85962Y-27135D01*
X85954Y-27131D01*
X85950Y-27128D01*
X85028Y-27450D02*
X85031Y-27454D01*
X85035Y-27465D01*
X85035Y-27473D01*
X85031Y-27484D01*
X85024Y-27492D01*
X85016Y-27495D01*
X85001Y-27499D01*
X84990Y-27499D01*
X84975Y-27495D01*
X84968Y-27492D01*
X84960Y-27484D01*
X84956Y-27473D01*
X84956Y-27465D01*
X84960Y-27454D01*
X84964Y-27450D01*
X85035Y-27375D02*
X85035Y-27420D01*
X85035Y-27398D02*
X84956Y-27398D01*
X84968Y-27405D01*
X84975Y-27413D01*
X84979Y-27420D01*
X84956Y-27304D02*
X84956Y-27341D01*
X84994Y-27345D01*
X84990Y-27341D01*
X84986Y-27334D01*
X84986Y-27315D01*
X84990Y-27307D01*
X84994Y-27304D01*
X85001Y-27300D01*
X85020Y-27300D01*
X85028Y-27304D01*
X85031Y-27307D01*
X85035Y-27315D01*
X85035Y-27334D01*
X85031Y-27341D01*
X85028Y-27345D01*
X85028Y-26850D02*
X85031Y-26854D01*
X85035Y-26865D01*
X85035Y-26873D01*
X85031Y-26884D01*
X85024Y-26892D01*
X85016Y-26895D01*
X85001Y-26899D01*
X84990Y-26899D01*
X84975Y-26895D01*
X84968Y-26892D01*
X84960Y-26884D01*
X84956Y-26873D01*
X84956Y-26865D01*
X84960Y-26854D01*
X84964Y-26850D01*
X85035Y-26775D02*
X85035Y-26820D01*
X85035Y-26798D02*
X84956Y-26798D01*
X84968Y-26805D01*
X84975Y-26813D01*
X84979Y-26820D01*
X84956Y-26707D02*
X84956Y-26722D01*
X84960Y-26730D01*
X84964Y-26734D01*
X84975Y-26741D01*
X84990Y-26745D01*
X85020Y-26745D01*
X85028Y-26741D01*
X85031Y-26737D01*
X85035Y-26730D01*
X85035Y-26715D01*
X85031Y-26707D01*
X85028Y-26704D01*
X85020Y-26700D01*
X85001Y-26700D01*
X84994Y-26704D01*
X84990Y-26707D01*
X84986Y-26715D01*
X84986Y-26730D01*
X84990Y-26737D01*
X84994Y-26741D01*
X85001Y-26745D01*
X87328Y-27650D02*
X87331Y-27654D01*
X87335Y-27665D01*
X87335Y-27673D01*
X87331Y-27684D01*
X87324Y-27692D01*
X87316Y-27695D01*
X87301Y-27699D01*
X87290Y-27699D01*
X87275Y-27695D01*
X87268Y-27692D01*
X87260Y-27684D01*
X87256Y-27673D01*
X87256Y-27665D01*
X87260Y-27654D01*
X87264Y-27650D01*
X87335Y-27575D02*
X87335Y-27620D01*
X87335Y-27598D02*
X87256Y-27598D01*
X87268Y-27605D01*
X87275Y-27613D01*
X87279Y-27620D01*
X87256Y-27549D02*
X87256Y-27496D01*
X87335Y-27530D01*
X87428Y-24550D02*
X87431Y-24554D01*
X87435Y-24565D01*
X87435Y-24573D01*
X87431Y-24584D01*
X87424Y-24592D01*
X87416Y-24595D01*
X87401Y-24599D01*
X87390Y-24599D01*
X87375Y-24595D01*
X87368Y-24592D01*
X87360Y-24584D01*
X87356Y-24573D01*
X87356Y-24565D01*
X87360Y-24554D01*
X87364Y-24550D01*
X87435Y-24475D02*
X87435Y-24520D01*
X87435Y-24498D02*
X87356Y-24498D01*
X87368Y-24505D01*
X87375Y-24513D01*
X87379Y-24520D01*
X87390Y-24430D02*
X87386Y-24437D01*
X87383Y-24441D01*
X87375Y-24445D01*
X87371Y-24445D01*
X87364Y-24441D01*
X87360Y-24437D01*
X87356Y-24430D01*
X87356Y-24415D01*
X87360Y-24407D01*
X87364Y-24404D01*
X87371Y-24400D01*
X87375Y-24400D01*
X87383Y-24404D01*
X87386Y-24407D01*
X87390Y-24415D01*
X87390Y-24430D01*
X87394Y-24437D01*
X87398Y-24441D01*
X87405Y-24445D01*
X87420Y-24445D01*
X87428Y-24441D01*
X87431Y-24437D01*
X87435Y-24430D01*
X87435Y-24415D01*
X87431Y-24407D01*
X87428Y-24404D01*
X87420Y-24400D01*
X87405Y-24400D01*
X87398Y-24404D01*
X87394Y-24407D01*
X87390Y-24415D01*
X94949Y-27128D02*
X94945Y-27131D01*
X94934Y-27135D01*
X94926Y-27135D01*
X94915Y-27131D01*
X94907Y-27124D01*
X94904Y-27116D01*
X94900Y-27101D01*
X94900Y-27090D01*
X94904Y-27075D01*
X94907Y-27068D01*
X94915Y-27060D01*
X94926Y-27056D01*
X94934Y-27056D01*
X94945Y-27060D01*
X94949Y-27064D01*
X95024Y-27135D02*
X94979Y-27135D01*
X95001Y-27135D02*
X95001Y-27056D01*
X94994Y-27068D01*
X94986Y-27075D01*
X94979Y-27079D01*
X95062Y-27135D02*
X95077Y-27135D01*
X95084Y-27131D01*
X95088Y-27128D01*
X95095Y-27116D01*
X95099Y-27101D01*
X95099Y-27071D01*
X95095Y-27064D01*
X95092Y-27060D01*
X95084Y-27056D01*
X95069Y-27056D01*
X95062Y-27060D01*
X95058Y-27064D01*
X95054Y-27071D01*
X95054Y-27090D01*
X95058Y-27098D01*
X95062Y-27101D01*
X95069Y-27105D01*
X95084Y-27105D01*
X95092Y-27101D01*
X95095Y-27098D01*
X95099Y-27090D01*
X89828Y-24550D02*
X89831Y-24554D01*
X89835Y-24565D01*
X89835Y-24573D01*
X89831Y-24584D01*
X89824Y-24592D01*
X89816Y-24595D01*
X89801Y-24599D01*
X89790Y-24599D01*
X89775Y-24595D01*
X89768Y-24592D01*
X89760Y-24584D01*
X89756Y-24573D01*
X89756Y-24565D01*
X89760Y-24554D01*
X89764Y-24550D01*
X89764Y-24520D02*
X89760Y-24516D01*
X89756Y-24509D01*
X89756Y-24490D01*
X89760Y-24483D01*
X89764Y-24479D01*
X89771Y-24475D01*
X89779Y-24475D01*
X89790Y-24479D01*
X89835Y-24524D01*
X89835Y-24475D01*
X89756Y-24426D02*
X89756Y-24419D01*
X89760Y-24411D01*
X89764Y-24407D01*
X89771Y-24404D01*
X89786Y-24400D01*
X89805Y-24400D01*
X89820Y-24404D01*
X89828Y-24407D01*
X89831Y-24411D01*
X89835Y-24419D01*
X89835Y-24426D01*
X89831Y-24434D01*
X89828Y-24437D01*
X89820Y-24441D01*
X89805Y-24445D01*
X89786Y-24445D01*
X89771Y-24441D01*
X89764Y-24437D01*
X89760Y-24434D01*
X89756Y-24426D01*
X91199Y-35628D02*
X91195Y-35631D01*
X91184Y-35635D01*
X91176Y-35635D01*
X91165Y-35631D01*
X91157Y-35624D01*
X91154Y-35616D01*
X91150Y-35601D01*
X91150Y-35590D01*
X91154Y-35575D01*
X91157Y-35568D01*
X91165Y-35560D01*
X91176Y-35556D01*
X91184Y-35556D01*
X91195Y-35560D01*
X91199Y-35564D01*
X91229Y-35564D02*
X91233Y-35560D01*
X91240Y-35556D01*
X91259Y-35556D01*
X91266Y-35560D01*
X91270Y-35564D01*
X91274Y-35571D01*
X91274Y-35579D01*
X91270Y-35590D01*
X91225Y-35635D01*
X91274Y-35635D01*
X91304Y-35564D02*
X91308Y-35560D01*
X91315Y-35556D01*
X91334Y-35556D01*
X91342Y-35560D01*
X91345Y-35564D01*
X91349Y-35571D01*
X91349Y-35579D01*
X91345Y-35590D01*
X91300Y-35635D01*
X91349Y-35635D01*
X96228Y-34950D02*
X96231Y-34954D01*
X96235Y-34965D01*
X96235Y-34973D01*
X96231Y-34984D01*
X96224Y-34992D01*
X96216Y-34995D01*
X96201Y-34999D01*
X96190Y-34999D01*
X96175Y-34995D01*
X96168Y-34992D01*
X96160Y-34984D01*
X96156Y-34973D01*
X96156Y-34965D01*
X96160Y-34954D01*
X96164Y-34950D01*
X96164Y-34920D02*
X96160Y-34916D01*
X96156Y-34909D01*
X96156Y-34890D01*
X96160Y-34883D01*
X96164Y-34879D01*
X96171Y-34875D01*
X96179Y-34875D01*
X96190Y-34879D01*
X96235Y-34924D01*
X96235Y-34875D01*
X96156Y-34849D02*
X96156Y-34800D01*
X96186Y-34826D01*
X96186Y-34815D01*
X96190Y-34807D01*
X96194Y-34804D01*
X96201Y-34800D01*
X96220Y-34800D01*
X96228Y-34804D01*
X96231Y-34807D01*
X96235Y-34815D01*
X96235Y-34837D01*
X96231Y-34845D01*
X96228Y-34849D01*
X92188Y-32410D02*
X92191Y-32414D01*
X92195Y-32425D01*
X92195Y-32433D01*
X92191Y-32444D01*
X92184Y-32452D01*
X92176Y-32455D01*
X92161Y-32459D01*
X92150Y-32459D01*
X92135Y-32455D01*
X92127Y-32452D01*
X92120Y-32444D01*
X92116Y-32433D01*
X92116Y-32425D01*
X92120Y-32414D01*
X92124Y-32410D01*
X92124Y-32380D02*
X92120Y-32376D01*
X92116Y-32369D01*
X92116Y-32350D01*
X92120Y-32343D01*
X92124Y-32339D01*
X92131Y-32335D01*
X92139Y-32335D01*
X92150Y-32339D01*
X92195Y-32384D01*
X92195Y-32335D01*
X92142Y-32267D02*
X92195Y-32267D01*
X92112Y-32286D02*
X92169Y-32305D01*
X92169Y-32256D01*
X89528Y-25550D02*
X89531Y-25554D01*
X89535Y-25565D01*
X89535Y-25573D01*
X89531Y-25584D01*
X89524Y-25592D01*
X89516Y-25595D01*
X89501Y-25599D01*
X89490Y-25599D01*
X89475Y-25595D01*
X89468Y-25592D01*
X89460Y-25584D01*
X89456Y-25573D01*
X89456Y-25565D01*
X89460Y-25554D01*
X89464Y-25550D01*
X89464Y-25520D02*
X89460Y-25516D01*
X89456Y-25509D01*
X89456Y-25490D01*
X89460Y-25483D01*
X89464Y-25479D01*
X89471Y-25475D01*
X89479Y-25475D01*
X89490Y-25479D01*
X89535Y-25524D01*
X89535Y-25475D01*
X89456Y-25404D02*
X89456Y-25441D01*
X89494Y-25445D01*
X89490Y-25441D01*
X89486Y-25434D01*
X89486Y-25415D01*
X89490Y-25407D01*
X89494Y-25404D01*
X89501Y-25400D01*
X89520Y-25400D01*
X89528Y-25404D01*
X89531Y-25407D01*
X89535Y-25415D01*
X89535Y-25434D01*
X89531Y-25441D01*
X89528Y-25445D01*
X81336Y-26078D02*
X81333Y-26081D01*
X81321Y-26085D01*
X81314Y-26085D01*
X81302Y-26081D01*
X81295Y-26074D01*
X81291Y-26066D01*
X81287Y-26051D01*
X81287Y-26040D01*
X81291Y-26025D01*
X81295Y-26018D01*
X81302Y-26010D01*
X81314Y-26006D01*
X81321Y-26006D01*
X81333Y-26010D01*
X81336Y-26014D01*
X81381Y-26040D02*
X81374Y-26036D01*
X81370Y-26033D01*
X81366Y-26025D01*
X81366Y-26021D01*
X81370Y-26014D01*
X81374Y-26010D01*
X81381Y-26006D01*
X81397Y-26006D01*
X81404Y-26010D01*
X81408Y-26014D01*
X81412Y-26021D01*
X81412Y-26025D01*
X81408Y-26033D01*
X81404Y-26036D01*
X81397Y-26040D01*
X81381Y-26040D01*
X81374Y-26044D01*
X81370Y-26048D01*
X81366Y-26055D01*
X81366Y-26070D01*
X81370Y-26078D01*
X81374Y-26081D01*
X81381Y-26085D01*
X81397Y-26085D01*
X81404Y-26081D01*
X81408Y-26078D01*
X81412Y-26070D01*
X81412Y-26055D01*
X81408Y-26048D01*
X81404Y-26044D01*
X81397Y-26040D01*
X88628Y-24513D02*
X88631Y-24516D01*
X88635Y-24528D01*
X88635Y-24535D01*
X88631Y-24547D01*
X88624Y-24554D01*
X88616Y-24558D01*
X88601Y-24562D01*
X88590Y-24562D01*
X88575Y-24558D01*
X88568Y-24554D01*
X88560Y-24547D01*
X88556Y-24535D01*
X88556Y-24528D01*
X88560Y-24516D01*
X88564Y-24513D01*
X88583Y-24445D02*
X88635Y-24445D01*
X88552Y-24464D02*
X88609Y-24483D01*
X88609Y-24434D01*
G54D17*
X82453Y-28696D02*
X82460Y-28703D01*
X82467Y-28725D01*
X82467Y-28739D01*
X82460Y-28760D01*
X82446Y-28775D01*
X82432Y-28782D01*
X82403Y-28789D01*
X82382Y-28789D01*
X82353Y-28782D01*
X82339Y-28775D01*
X82325Y-28760D01*
X82317Y-28739D01*
X82317Y-28725D01*
X82325Y-28703D01*
X82332Y-28696D01*
X82467Y-28553D02*
X82467Y-28639D01*
X82467Y-28596D02*
X82317Y-28596D01*
X82339Y-28610D01*
X82353Y-28625D01*
X82360Y-28639D01*
X82367Y-28425D02*
X82467Y-28425D01*
X82310Y-28460D02*
X82417Y-28496D01*
X82417Y-28403D01*
G54D30*
X84438Y-31200D02*
X84441Y-31204D01*
X84445Y-31215D01*
X84445Y-31223D01*
X84441Y-31234D01*
X84434Y-31242D01*
X84426Y-31245D01*
X84411Y-31249D01*
X84400Y-31249D01*
X84385Y-31245D01*
X84377Y-31242D01*
X84370Y-31234D01*
X84366Y-31223D01*
X84366Y-31215D01*
X84370Y-31204D01*
X84374Y-31200D01*
X84374Y-31170D02*
X84370Y-31166D01*
X84366Y-31159D01*
X84366Y-31140D01*
X84370Y-31133D01*
X84374Y-31129D01*
X84381Y-31125D01*
X84389Y-31125D01*
X84400Y-31129D01*
X84445Y-31174D01*
X84445Y-31125D01*
X84445Y-31050D02*
X84445Y-31095D01*
X84445Y-31072D02*
X84366Y-31072D01*
X84377Y-31080D01*
X84385Y-31087D01*
X84389Y-31095D01*
G54D31*
X80611Y-36311D02*
X80602Y-36320D01*
X80573Y-36330D01*
X80554Y-36330D01*
X80525Y-36320D01*
X80506Y-36301D01*
X80497Y-36282D01*
X80487Y-36244D01*
X80487Y-36216D01*
X80497Y-36178D01*
X80506Y-36159D01*
X80525Y-36140D01*
X80554Y-36130D01*
X80573Y-36130D01*
X80602Y-36140D01*
X80611Y-36149D01*
X80687Y-36149D02*
X80697Y-36140D01*
X80716Y-36130D01*
X80763Y-36130D01*
X80783Y-36140D01*
X80792Y-36149D01*
X80802Y-36168D01*
X80802Y-36187D01*
X80792Y-36216D01*
X80678Y-36330D01*
X80802Y-36330D01*
X80973Y-36130D02*
X80935Y-36130D01*
X80916Y-36140D01*
X80906Y-36149D01*
X80887Y-36178D01*
X80878Y-36216D01*
X80878Y-36292D01*
X80887Y-36311D01*
X80897Y-36320D01*
X80916Y-36330D01*
X80954Y-36330D01*
X80973Y-36320D01*
X80983Y-36311D01*
X80992Y-36292D01*
X80992Y-36244D01*
X80983Y-36225D01*
X80973Y-36216D01*
X80954Y-36206D01*
X80916Y-36206D01*
X80897Y-36216D01*
X80887Y-36225D01*
X80878Y-36244D01*
M02*
