M48
;DRILL file {kicad (2014-jan-25)-product} date dom 15 jun 2014 08:52:03 CST
;FORMAT={-:-/ absolute / inch / decimal}
FMAT,2
INCH,TZ
T1C0.013
T2C0.013
T3C0.013
T4C0.016
T5C0.032
T6C0.036
T7C0.040
T8C0.049
T9C0.055
%
G90
G05
M72
T1
X8.2411Y-2.9929
X8.3143Y-2.7606
X8.3396Y-3.1368
X8.4032Y-2.5931
X8.5562Y-2.8952
X8.5869Y-2.8689
X8.6188Y-2.5062
X8.6674Y-2.4931
X8.6734Y-2.7263
X8.6761Y-2.5725
X8.7095Y-3.0641
X8.7494Y-3.0765
X8.8162Y-2.9623
X8.8759Y-2.5492
X8.9588Y-2.6587
X9.1269Y-3.2105
X9.1389Y-2.8335
X9.1536Y-3.3585
X9.287Y-3.3591
T2
X7.7822Y-2.4407
X7.8459Y-2.4402
X7.9527Y-2.7419
X8.082Y-2.5751
X8.1086Y-2.7853
X8.1219Y-2.9197
X8.1366Y-2.8113
X8.1404Y-3.2721
X8.2143Y-2.5343
X8.2234Y-2.7464
X8.2247Y-2.6189
X8.2499Y-2.6504
X8.3174Y-2.6608
X8.3442Y-2.7593
X8.3823Y-2.7714
X8.3939Y-3.3228
X8.3963Y-2.6629
X8.6902Y-3.1759
X8.8154Y-3.0963
X8.816Y-2.9363
X8.8945Y-3.03
X8.9824Y-3.25
X8.9996Y-3.0839
X9.0814Y-2.6394
X9.1106Y-3.308
X9.1351Y-2.676
X9.1591Y-2.6461
X9.1628Y-2.3726
X9.2458Y-2.771
X9.2473Y-2.9313
X9.2991Y-2.9294
X9.57Y-2.6958
X9.67Y-2.6734
X9.7738Y-2.449
T3
X8.1758Y-2.4125
X8.3702Y-2.6602
X8.5412Y-2.8679
X8.7262Y-3.1825
X8.8146Y-3.1224
X8.9952Y-3.1806
X9.1022Y-3.1512
X9.5296Y-3.1179
T4
X7.7309Y-3.4599
X8.5618Y-3.0097
X8.6816Y-3.0594
X8.7435Y-2.7979
X8.8631Y-2.7218
X8.9565Y-2.6954
T5
X8.0298Y-2.5
X8.0298Y-2.6
X8.0298Y-2.7
X8.0298Y-2.8
X8.0298Y-2.9
X8.0298Y-3.
X8.0298Y-3.1
X8.0298Y-3.2
X8.0298Y-3.3
X8.0298Y-3.4
T6
X7.8107Y-2.3989
X7.8107Y-2.4776
X7.8107Y-2.5563
X7.8107Y-2.6351
X7.8107Y-2.7138
X7.8107Y-2.7926
X7.8107Y-2.8713
X7.8107Y-2.95
X7.8107Y-3.0287
X7.8107Y-3.1074
X7.8107Y-3.1862
X7.8107Y-3.2649
X7.8107Y-3.3437
X7.8107Y-3.4224
X7.8107Y-3.5011
X7.8893Y-2.3989
X7.8893Y-2.4776
X7.8893Y-2.5563
X7.8893Y-2.6351
X7.8893Y-2.7138
X7.8893Y-2.7926
X7.8893Y-2.8713
X7.8893Y-2.95
X7.8893Y-3.0287
X7.8893Y-3.1074
X7.8893Y-3.1862
X7.8893Y-3.2649
X7.8893Y-3.3437
X7.8893Y-3.4224
X7.8893Y-3.5011
T7
X8.01Y-2.34
X8.11Y-2.34
X8.21Y-2.34
X8.27Y-3.56
X8.31Y-2.34
X8.37Y-3.56
X8.41Y-2.34
X8.47Y-3.56
X8.51Y-2.34
X8.57Y-3.56
X8.63Y-2.34
X8.73Y-2.34
X8.74Y-3.56
X8.83Y-2.34
X8.84Y-3.56
X8.93Y-2.34
X8.94Y-3.56
X9.03Y-2.34
X9.04Y-3.56
X9.13Y-2.34
X9.21Y-3.56
X9.31Y-3.56
X9.41Y-3.56
X9.51Y-3.56
X9.6Y-2.65
X9.6Y-2.75
X9.6Y-2.85
X9.6Y-2.95
X9.6Y-3.05
X9.6Y-3.15
X9.6Y-3.25
X9.74Y-2.4
X9.74Y-2.5
X9.74Y-2.6
X9.74Y-2.7
X9.74Y-2.8
X9.74Y-2.9
X9.74Y-3.
X9.74Y-3.1
X9.74Y-3.2
X9.74Y-3.3
X9.74Y-3.4
X9.74Y-3.5
T8
X7.75Y-2.29
X7.75Y-3.61
X8.711Y-2.511
X8.711Y-3.389
X9.79Y-2.29
X9.79Y-3.61
T9
X9.61Y-2.2821
X9.61Y-2.5359
T0
M30
