%FSLAX34Y34*%
G04 Gerber Fmt 3.4, Leading zero omitted, Abs format*
G04 (created by PCBNEW (2014-jan-25)-product) date dom 15 jun 2014 08:51:59 CST*
%MOIN*%
G01*
G70*
G90*
G04 APERTURE LIST*
%ADD10C,0.005906*%
%ADD11C,0.056000*%
%ADD12C,0.060000*%
%ADD13C,0.075000*%
%ADD14C,0.055118*%
%ADD15R,0.055000X0.055000*%
%ADD16C,0.055000*%
%ADD17C,0.150000*%
G04 APERTURE END LIST*
G54D10*
G54D11*
X78107Y-23989D03*
X78893Y-23989D03*
X78107Y-24776D03*
X78893Y-24776D03*
X78107Y-25563D03*
X78893Y-25563D03*
X78107Y-26351D03*
X78893Y-26351D03*
X78107Y-27138D03*
X78893Y-27138D03*
X78107Y-27926D03*
X78893Y-27926D03*
X78107Y-28713D03*
X78893Y-28713D03*
X78107Y-29500D03*
X78893Y-29500D03*
X78107Y-30287D03*
X78893Y-30287D03*
X78107Y-31074D03*
X78893Y-31074D03*
X78107Y-31862D03*
X78893Y-31862D03*
X78107Y-32649D03*
X78893Y-32649D03*
X78107Y-33437D03*
X78893Y-33437D03*
X78107Y-34224D03*
X78893Y-34224D03*
X78107Y-35011D03*
X78893Y-35011D03*
G54D12*
X80100Y-23400D03*
X81100Y-23400D03*
X82100Y-23400D03*
X83100Y-23400D03*
X84100Y-23400D03*
X85100Y-23400D03*
X91300Y-23400D03*
X90300Y-23400D03*
X89300Y-23400D03*
X88300Y-23400D03*
X87300Y-23400D03*
X86300Y-23400D03*
X90400Y-35600D03*
X89400Y-35600D03*
X88400Y-35600D03*
X87400Y-35600D03*
X82700Y-35600D03*
X83700Y-35600D03*
X84700Y-35600D03*
X85700Y-35600D03*
X95100Y-35600D03*
X94100Y-35600D03*
X93100Y-35600D03*
X92100Y-35600D03*
G54D13*
X96100Y-22821D03*
X96100Y-25359D03*
G54D12*
X96000Y-32500D03*
X96000Y-31500D03*
X96000Y-30500D03*
X96000Y-29500D03*
X96000Y-28500D03*
X96000Y-27500D03*
X96000Y-26500D03*
X97400Y-35000D03*
X97400Y-34000D03*
X97400Y-33000D03*
X97400Y-32000D03*
X97400Y-31000D03*
X97400Y-30000D03*
X97400Y-29000D03*
X97400Y-28000D03*
X97400Y-27000D03*
X97400Y-26000D03*
X97400Y-25000D03*
X97400Y-24000D03*
G54D14*
X87109Y-33890D03*
X77500Y-22900D03*
X77500Y-36100D03*
X97900Y-36100D03*
X97900Y-22900D03*
X87109Y-25110D03*
G54D15*
X80298Y-25000D03*
G54D16*
X80298Y-26000D03*
X80298Y-27000D03*
X80298Y-28000D03*
X80298Y-29000D03*
X80298Y-30000D03*
X80298Y-31000D03*
X80298Y-32000D03*
X80298Y-33000D03*
X80298Y-34000D03*
G54D17*
X85221Y-25563D03*
X85221Y-33437D03*
M02*
