G04 (created by PCBNEW-RS274X (2012-apr-16-27)-stable) date sam. 01 juin 2013 19:50:37 CST*
G01*
G70*
G90*
%MOIN*%
G04 Gerber Fmt 3.4, Leading zero omitted, Abs format*
%FSLAX34Y34*%
G04 APERTURE LIST*
%ADD10C,0.006000*%
%ADD11C,0.012000*%
%ADD12C,0.008000*%
%ADD13C,0.012500*%
%ADD14C,0.015000*%
%ADD15C,0.005000*%
%ADD16C,0.007500*%
%ADD17C,0.010000*%
%ADD18C,0.002500*%
%ADD19C,0.001000*%
G04 APERTURE END LIST*
G54D10*
G54D11*
X55400Y-17800D02*
X57400Y-17800D01*
X57400Y-17800D02*
X57400Y-19800D01*
X57400Y-19800D02*
X55400Y-19800D01*
X55400Y-19800D02*
X55400Y-17800D01*
G54D12*
X53050Y-20250D02*
X53250Y-20250D01*
X56050Y-20250D02*
X55850Y-20250D01*
X55850Y-20250D02*
X55850Y-19850D01*
X55850Y-19850D02*
X53250Y-19850D01*
X53250Y-19850D02*
X53250Y-20650D01*
X53250Y-20650D02*
X55850Y-20650D01*
X55850Y-20650D02*
X55850Y-20250D01*
X53250Y-20050D02*
X53450Y-19850D01*
X59800Y-20250D02*
X59600Y-20250D01*
X56800Y-20250D02*
X57000Y-20250D01*
X57000Y-20250D02*
X57000Y-20650D01*
X57000Y-20650D02*
X59600Y-20650D01*
X59600Y-20650D02*
X59600Y-19850D01*
X59600Y-19850D02*
X57000Y-19850D01*
X57000Y-19850D02*
X57000Y-20250D01*
X59600Y-20450D02*
X59400Y-20650D01*
G54D13*
X57700Y-15650D02*
X55200Y-15650D01*
X57700Y-17650D02*
X55200Y-17650D01*
X54200Y-16650D02*
X54204Y-16737D01*
X54216Y-16823D01*
X54235Y-16908D01*
X54261Y-16992D01*
X54294Y-17072D01*
X54334Y-17149D01*
X54381Y-17223D01*
X54434Y-17292D01*
X54493Y-17357D01*
X54558Y-17416D01*
X54627Y-17469D01*
X54701Y-17516D01*
X54778Y-17556D01*
X54858Y-17589D01*
X54942Y-17615D01*
X55027Y-17634D01*
X55113Y-17646D01*
X55200Y-17650D01*
X55200Y-15650D02*
X55113Y-15654D01*
X55027Y-15666D01*
X54942Y-15685D01*
X54858Y-15711D01*
X54778Y-15744D01*
X54701Y-15784D01*
X54627Y-15831D01*
X54558Y-15884D01*
X54493Y-15943D01*
X54434Y-16008D01*
X54381Y-16077D01*
X54334Y-16151D01*
X54294Y-16228D01*
X54261Y-16308D01*
X54235Y-16392D01*
X54216Y-16477D01*
X54204Y-16563D01*
X54200Y-16650D01*
X57700Y-17650D02*
X57787Y-17646D01*
X57873Y-17634D01*
X57958Y-17615D01*
X58042Y-17589D01*
X58122Y-17556D01*
X58200Y-17516D01*
X58273Y-17469D01*
X58342Y-17416D01*
X58407Y-17357D01*
X58466Y-17292D01*
X58519Y-17223D01*
X58566Y-17149D01*
X58606Y-17072D01*
X58639Y-16992D01*
X58665Y-16908D01*
X58684Y-16823D01*
X58696Y-16737D01*
X58700Y-16650D01*
X58700Y-16650D02*
X58696Y-16563D01*
X58684Y-16477D01*
X58665Y-16392D01*
X58639Y-16308D01*
X58606Y-16228D01*
X58566Y-16151D01*
X58519Y-16077D01*
X58466Y-16008D01*
X58407Y-15943D01*
X58342Y-15884D01*
X58273Y-15831D01*
X58200Y-15784D01*
X58122Y-15744D01*
X58042Y-15711D01*
X57958Y-15685D01*
X57873Y-15666D01*
X57787Y-15654D01*
X57700Y-15650D01*
G54D11*
X53600Y-19780D02*
X53600Y-17800D01*
X53600Y-17800D02*
X54600Y-17800D01*
X54600Y-17800D02*
X54600Y-19800D01*
X54600Y-19800D02*
X53600Y-19800D01*
X53850Y-19800D02*
X53600Y-19550D01*
X59200Y-17820D02*
X59200Y-19800D01*
X59200Y-19800D02*
X58200Y-19800D01*
X58200Y-19800D02*
X58200Y-17800D01*
X58200Y-17800D02*
X59200Y-17800D01*
X58950Y-17800D02*
X59200Y-18050D01*
G54D14*
X55528Y-18598D02*
X55725Y-18795D01*
X56512Y-18205D02*
X56512Y-18795D01*
X56512Y-18205D02*
X55528Y-18205D01*
X55528Y-18205D02*
X55528Y-18795D01*
X55528Y-18795D02*
X56512Y-18795D01*
X56555Y-19044D02*
X56555Y-19516D01*
X56555Y-19516D02*
X57225Y-19516D01*
X57225Y-19516D02*
X57225Y-19044D01*
X57225Y-19044D02*
X56555Y-19044D01*
G54D15*
X55691Y-19281D02*
X55729Y-19281D01*
X55748Y-19290D01*
X55767Y-19310D01*
X55776Y-19348D01*
X55776Y-19414D01*
X55767Y-19452D01*
X55748Y-19471D01*
X55729Y-19481D01*
X55691Y-19481D01*
X55672Y-19471D01*
X55653Y-19452D01*
X55643Y-19414D01*
X55643Y-19348D01*
X55653Y-19310D01*
X55672Y-19290D01*
X55691Y-19281D01*
X55853Y-19471D02*
X55882Y-19481D01*
X55929Y-19481D01*
X55948Y-19471D01*
X55958Y-19462D01*
X55967Y-19443D01*
X55967Y-19424D01*
X55958Y-19405D01*
X55948Y-19395D01*
X55929Y-19386D01*
X55891Y-19376D01*
X55872Y-19367D01*
X55863Y-19357D01*
X55853Y-19338D01*
X55853Y-19319D01*
X55863Y-19300D01*
X55872Y-19290D01*
X55891Y-19281D01*
X55939Y-19281D01*
X55967Y-19290D01*
X56167Y-19462D02*
X56157Y-19471D01*
X56129Y-19481D01*
X56110Y-19481D01*
X56081Y-19471D01*
X56062Y-19452D01*
X56053Y-19433D01*
X56043Y-19395D01*
X56043Y-19367D01*
X56053Y-19329D01*
X56062Y-19310D01*
X56081Y-19290D01*
X56110Y-19281D01*
X56129Y-19281D01*
X56157Y-19290D01*
X56167Y-19300D01*
X56357Y-19481D02*
X56243Y-19481D01*
X56300Y-19481D02*
X56300Y-19281D01*
X56281Y-19310D01*
X56262Y-19329D01*
X56243Y-19338D01*
X53658Y-20521D02*
X53558Y-20379D01*
X53486Y-20521D02*
X53486Y-20221D01*
X53601Y-20221D01*
X53629Y-20236D01*
X53644Y-20250D01*
X53658Y-20279D01*
X53658Y-20321D01*
X53644Y-20350D01*
X53629Y-20364D01*
X53601Y-20379D01*
X53486Y-20379D01*
X53744Y-20321D02*
X53858Y-20321D01*
X53786Y-20521D02*
X53786Y-20264D01*
X53801Y-20236D01*
X53829Y-20221D01*
X53858Y-20221D01*
X59122Y-20521D02*
X59022Y-20379D01*
X58950Y-20521D02*
X58950Y-20221D01*
X59065Y-20221D01*
X59093Y-20236D01*
X59108Y-20250D01*
X59122Y-20279D01*
X59122Y-20321D01*
X59108Y-20350D01*
X59093Y-20364D01*
X59065Y-20379D01*
X58950Y-20379D01*
X59236Y-20507D02*
X59265Y-20521D01*
X59322Y-20521D01*
X59350Y-20507D01*
X59365Y-20479D01*
X59365Y-20464D01*
X59350Y-20436D01*
X59322Y-20421D01*
X59279Y-20421D01*
X59250Y-20407D01*
X59236Y-20379D01*
X59236Y-20364D01*
X59250Y-20336D01*
X59279Y-20321D01*
X59322Y-20321D01*
X59350Y-20336D01*
G54D16*
X56207Y-16521D02*
X56407Y-16821D01*
X56407Y-16521D02*
X56207Y-16821D01*
X56679Y-16821D02*
X56507Y-16821D01*
X56593Y-16821D02*
X56593Y-16521D01*
X56564Y-16564D01*
X56536Y-16593D01*
X56507Y-16607D01*
G54D17*
X55526Y-16174D02*
X55507Y-16193D01*
X55450Y-16212D01*
X55412Y-16212D01*
X55354Y-16193D01*
X55316Y-16155D01*
X55297Y-16117D01*
X55278Y-16040D01*
X55278Y-15983D01*
X55297Y-15907D01*
X55316Y-15869D01*
X55354Y-15831D01*
X55412Y-15812D01*
X55450Y-15812D01*
X55507Y-15831D01*
X55526Y-15850D01*
X55926Y-16212D02*
X55792Y-16021D01*
X55697Y-16212D02*
X55697Y-15812D01*
X55850Y-15812D01*
X55888Y-15831D01*
X55907Y-15850D01*
X55926Y-15888D01*
X55926Y-15945D01*
X55907Y-15983D01*
X55888Y-16002D01*
X55850Y-16021D01*
X55697Y-16021D01*
X56173Y-16021D02*
X56173Y-16212D01*
X56040Y-15812D02*
X56173Y-16021D01*
X56307Y-15812D01*
X56421Y-16193D02*
X56478Y-16212D01*
X56574Y-16212D01*
X56612Y-16193D01*
X56631Y-16174D01*
X56650Y-16136D01*
X56650Y-16098D01*
X56631Y-16060D01*
X56612Y-16040D01*
X56574Y-16021D01*
X56497Y-16002D01*
X56459Y-15983D01*
X56440Y-15964D01*
X56421Y-15926D01*
X56421Y-15888D01*
X56440Y-15850D01*
X56459Y-15831D01*
X56497Y-15812D01*
X56593Y-15812D01*
X56650Y-15831D01*
X56764Y-15812D02*
X56993Y-15812D01*
X56878Y-16212D02*
X56878Y-15812D01*
X57107Y-16098D02*
X57298Y-16098D01*
X57069Y-16212D02*
X57202Y-15812D01*
X57336Y-16212D01*
X57660Y-16212D02*
X57469Y-16212D01*
X57469Y-15812D01*
G54D18*
X54067Y-18862D02*
X54057Y-18871D01*
X54029Y-18881D01*
X54010Y-18881D01*
X53981Y-18871D01*
X53962Y-18852D01*
X53953Y-18833D01*
X53943Y-18795D01*
X53943Y-18767D01*
X53953Y-18729D01*
X53962Y-18710D01*
X53981Y-18690D01*
X54010Y-18681D01*
X54029Y-18681D01*
X54057Y-18690D01*
X54067Y-18700D01*
X54257Y-18881D02*
X54143Y-18881D01*
X54200Y-18881D02*
X54200Y-18681D01*
X54181Y-18710D01*
X54162Y-18729D01*
X54143Y-18738D01*
X58667Y-18862D02*
X58657Y-18871D01*
X58629Y-18881D01*
X58610Y-18881D01*
X58581Y-18871D01*
X58562Y-18852D01*
X58553Y-18833D01*
X58543Y-18795D01*
X58543Y-18767D01*
X58553Y-18729D01*
X58562Y-18710D01*
X58581Y-18690D01*
X58610Y-18681D01*
X58629Y-18681D01*
X58657Y-18690D01*
X58667Y-18700D01*
X58743Y-18700D02*
X58753Y-18690D01*
X58772Y-18681D01*
X58819Y-18681D01*
X58838Y-18690D01*
X58848Y-18700D01*
X58857Y-18719D01*
X58857Y-18738D01*
X58848Y-18767D01*
X58734Y-18881D01*
X58857Y-18881D01*
G54D19*
X56731Y-18719D02*
X56736Y-18724D01*
X56740Y-18738D01*
X56740Y-18748D01*
X56736Y-18762D01*
X56726Y-18771D01*
X56717Y-18776D01*
X56698Y-18781D01*
X56683Y-18781D01*
X56664Y-18776D01*
X56655Y-18771D01*
X56645Y-18762D01*
X56640Y-18748D01*
X56640Y-18738D01*
X56645Y-18724D01*
X56650Y-18719D01*
X56740Y-18629D02*
X56740Y-18676D01*
X56640Y-18676D01*
X56740Y-18595D02*
X56640Y-18595D01*
X56740Y-18538D02*
X56683Y-18581D01*
X56640Y-18538D02*
X56698Y-18595D01*
X56702Y-18495D02*
X56702Y-18419D01*
X56640Y-18352D02*
X56640Y-18333D01*
X56645Y-18324D01*
X56655Y-18314D01*
X56674Y-18309D01*
X56707Y-18309D01*
X56726Y-18314D01*
X56736Y-18324D01*
X56740Y-18333D01*
X56740Y-18352D01*
X56736Y-18362D01*
X56726Y-18371D01*
X56707Y-18376D01*
X56674Y-18376D01*
X56655Y-18371D01*
X56645Y-18362D01*
X56640Y-18352D01*
X56736Y-18271D02*
X56740Y-18257D01*
X56740Y-18233D01*
X56736Y-18223D01*
X56731Y-18219D01*
X56721Y-18214D01*
X56712Y-18214D01*
X56702Y-18219D01*
X56698Y-18223D01*
X56693Y-18233D01*
X56688Y-18252D01*
X56683Y-18261D01*
X56679Y-18266D01*
X56669Y-18271D01*
X56660Y-18271D01*
X56650Y-18266D01*
X56645Y-18261D01*
X56640Y-18252D01*
X56640Y-18228D01*
X56645Y-18214D01*
X56731Y-18114D02*
X56736Y-18119D01*
X56740Y-18133D01*
X56740Y-18143D01*
X56736Y-18157D01*
X56726Y-18166D01*
X56717Y-18171D01*
X56698Y-18176D01*
X56683Y-18176D01*
X56664Y-18171D01*
X56655Y-18166D01*
X56645Y-18157D01*
X56640Y-18143D01*
X56640Y-18133D01*
X56645Y-18119D01*
X56650Y-18114D01*
X56740Y-18019D02*
X56740Y-18076D01*
X56740Y-18047D02*
X56640Y-18047D01*
X56655Y-18057D01*
X56664Y-18066D01*
X56669Y-18076D01*
X55951Y-17536D02*
X55965Y-17540D01*
X55989Y-17540D01*
X55999Y-17536D01*
X56003Y-17531D01*
X56008Y-17521D01*
X56008Y-17512D01*
X56003Y-17502D01*
X55999Y-17498D01*
X55989Y-17493D01*
X55970Y-17488D01*
X55961Y-17483D01*
X55956Y-17479D01*
X55951Y-17469D01*
X55951Y-17460D01*
X55956Y-17450D01*
X55961Y-17445D01*
X55970Y-17440D01*
X55994Y-17440D01*
X56008Y-17445D01*
X56051Y-17540D02*
X56051Y-17440D01*
X56108Y-17540D01*
X56108Y-17440D01*
X56146Y-17440D02*
X56213Y-17440D01*
X56170Y-17540D01*
X56294Y-17474D02*
X56294Y-17540D01*
X56270Y-17436D02*
X56246Y-17507D01*
X56308Y-17507D01*
X56393Y-17540D02*
X56346Y-17540D01*
X56346Y-17440D01*
X56413Y-17440D02*
X56446Y-17540D01*
X56479Y-17440D01*
X56570Y-17531D02*
X56565Y-17536D01*
X56551Y-17540D01*
X56541Y-17540D01*
X56527Y-17536D01*
X56518Y-17526D01*
X56513Y-17517D01*
X56508Y-17498D01*
X56508Y-17483D01*
X56513Y-17464D01*
X56518Y-17455D01*
X56527Y-17445D01*
X56541Y-17440D01*
X56551Y-17440D01*
X56565Y-17445D01*
X56570Y-17450D01*
X56665Y-17540D02*
X56608Y-17540D01*
X56637Y-17540D02*
X56637Y-17440D01*
X56627Y-17455D01*
X56618Y-17464D01*
X56608Y-17469D01*
X56760Y-17445D02*
X56751Y-17440D01*
X56736Y-17440D01*
X56722Y-17445D01*
X56713Y-17455D01*
X56708Y-17464D01*
X56703Y-17483D01*
X56703Y-17498D01*
X56708Y-17517D01*
X56713Y-17526D01*
X56722Y-17536D01*
X56736Y-17540D01*
X56746Y-17540D01*
X56760Y-17536D01*
X56765Y-17531D01*
X56765Y-17498D01*
X56746Y-17498D01*
X56798Y-17440D02*
X56865Y-17540D01*
X56865Y-17440D02*
X56798Y-17540D01*
X56922Y-17440D02*
X56931Y-17440D01*
X56941Y-17445D01*
X56946Y-17450D01*
X56950Y-17460D01*
X56955Y-17479D01*
X56955Y-17502D01*
X56950Y-17521D01*
X56946Y-17531D01*
X56941Y-17536D01*
X56931Y-17540D01*
X56922Y-17540D01*
X56912Y-17536D01*
X56908Y-17531D01*
X56903Y-17521D01*
X56898Y-17502D01*
X56898Y-17479D01*
X56903Y-17460D01*
X56908Y-17450D01*
X56912Y-17445D01*
X56922Y-17440D01*
X57041Y-17474D02*
X57041Y-17540D01*
X57017Y-17436D02*
X56993Y-17507D01*
X57055Y-17507D01*
X56889Y-18836D02*
X56903Y-18840D01*
X56927Y-18840D01*
X56937Y-18836D01*
X56941Y-18831D01*
X56946Y-18821D01*
X56946Y-18812D01*
X56941Y-18802D01*
X56937Y-18798D01*
X56927Y-18793D01*
X56908Y-18788D01*
X56899Y-18783D01*
X56894Y-18779D01*
X56889Y-18769D01*
X56889Y-18760D01*
X56894Y-18750D01*
X56899Y-18745D01*
X56908Y-18740D01*
X56932Y-18740D01*
X56946Y-18745D01*
X57003Y-18840D02*
X56994Y-18836D01*
X56989Y-18831D01*
X56984Y-18821D01*
X56984Y-18793D01*
X56989Y-18783D01*
X56994Y-18779D01*
X57003Y-18774D01*
X57017Y-18774D01*
X57027Y-18779D01*
X57032Y-18783D01*
X57036Y-18793D01*
X57036Y-18821D01*
X57032Y-18831D01*
X57027Y-18836D01*
X57017Y-18840D01*
X57003Y-18840D01*
X57065Y-18774D02*
X57103Y-18774D01*
X57079Y-18740D02*
X57079Y-18826D01*
X57084Y-18836D01*
X57093Y-18840D01*
X57103Y-18840D01*
X57136Y-18802D02*
X57212Y-18802D01*
X57303Y-18740D02*
X57284Y-18740D01*
X57274Y-18745D01*
X57269Y-18750D01*
X57260Y-18764D01*
X57255Y-18783D01*
X57255Y-18821D01*
X57260Y-18831D01*
X57265Y-18836D01*
X57274Y-18840D01*
X57293Y-18840D01*
X57303Y-18836D01*
X57307Y-18831D01*
X57312Y-18821D01*
X57312Y-18798D01*
X57307Y-18788D01*
X57303Y-18783D01*
X57293Y-18779D01*
X57274Y-18779D01*
X57265Y-18783D01*
X57260Y-18788D01*
X57255Y-18798D01*
G54D11*
M02*
