M48
;DRILL file {Pcbnew (2012-apr-16-27)-stable} date dim. 02 juin 2013 12:40:29 CST
;FORMAT={-:-/ absolute / inch / decimal}
FMAT,2
INCH,TZ
T1C0.025
T2C0.045
%
G90
G05
M72
T1
X1.517Y-2.849
X1.525Y-2.652
X1.527Y-2.597
X1.529Y-2.555
X1.533Y-2.735
X1.560Y-2.331
X1.561Y-2.290
X1.653Y-2.805
X1.660Y-2.921
X1.682Y-2.633
X1.689Y-2.892
X1.701Y-2.835
X1.720Y-2.939
X1.779Y-2.937
X1.807Y-2.814
X1.808Y-2.881
X1.810Y-2.773
X1.840Y-2.634
X1.853Y-2.937
X1.928Y-2.343
X1.980Y-2.632
X1.992Y-2.746
T2
X1.350Y-2.300
X1.350Y-2.400
X1.350Y-2.500
X1.350Y-2.600
X1.350Y-2.700
X1.350Y-2.800
X1.350Y-2.900
X1.350Y-3.000
X1.400Y-3.100
X1.450Y-2.200
X1.450Y-2.300
X1.450Y-2.400
X1.450Y-2.500
X1.450Y-2.600
X1.450Y-2.700
X1.450Y-2.800
X1.450Y-2.900
X1.450Y-3.000
X1.500Y-3.100
X1.550Y-2.200
X1.600Y-3.100
X1.650Y-2.200
X1.700Y-3.100
X1.750Y-2.200
X1.800Y-3.100
X1.850Y-2.200
X1.900Y-3.100
X1.950Y-2.200
X2.000Y-3.100
X2.050Y-2.200
X2.050Y-2.300
X2.050Y-2.400
X2.050Y-2.500
X2.050Y-2.600
X2.050Y-2.700
X2.050Y-2.800
X2.050Y-2.900
X2.050Y-3.000
X2.100Y-3.100
X2.150Y-2.300
X2.150Y-2.400
X2.150Y-2.500
X2.150Y-2.600
X2.150Y-2.700
X2.150Y-2.800
X2.150Y-2.900
X2.150Y-3.000
T0
M30
