M48
;DRILL file {Pcbnew (2012-apr-16-27)-stable} date dim. 02 juin 2013 12:32:07 CST
;FORMAT={-:-/ absolute / inch / decimal}
FMAT,2
INCH,TZ
T1C0.025
T2C0.028
T3C0.030
T4C0.032
T5C0.118
%
G90
G05
M72
T1
X4.549Y-2.032
X4.567Y-2.308
X4.709Y-2.332
X4.711Y-2.406
X4.734Y-2.042
X4.766Y-2.254
X4.803Y-2.056
X4.860Y-2.204
X4.865Y-2.339
X4.893Y-2.419
X4.920Y-2.068
X4.939Y-2.179
X5.001Y-2.102
X5.037Y-2.209
X5.038Y-2.294
X5.047Y-2.081
X5.050Y-2.559
X5.101Y-2.222
X5.155Y-2.073
X5.155Y-2.332
X5.261Y-2.087
X5.306Y-2.423
X5.325Y-2.331
X5.346Y-2.090
X5.363Y-2.383
X5.401Y-2.331
X5.576Y-2.443
X5.590Y-2.128
T2
X4.780Y-1.964
X4.780Y-2.014
X4.830Y-1.964
X4.830Y-2.014
X4.869Y-3.370
X4.869Y-3.420
X4.880Y-1.964
X4.880Y-2.014
X4.919Y-3.370
X4.919Y-3.420
X4.930Y-1.964
X4.930Y-2.014
X4.969Y-3.370
X4.969Y-3.420
X4.980Y-1.964
X4.980Y-2.014
X5.019Y-3.370
X5.019Y-3.420
X5.030Y-1.964
X5.030Y-2.014
X5.069Y-3.370
X5.069Y-3.420
X5.080Y-1.964
X5.080Y-2.014
X5.119Y-3.370
X5.119Y-3.420
X5.130Y-1.964
X5.130Y-2.014
X5.169Y-3.370
X5.169Y-3.420
X5.180Y-1.964
X5.180Y-2.014
X5.219Y-3.370
X5.219Y-3.420
X5.230Y-1.964
X5.230Y-2.014
X5.269Y-3.370
X5.269Y-3.420
X5.280Y-1.964
X5.280Y-2.014
X5.319Y-3.370
X5.319Y-3.420
X5.330Y-1.964
X5.330Y-2.014
X5.380Y-1.964
X5.380Y-2.014
X5.430Y-1.964
X5.430Y-2.014
X5.480Y-1.964
X5.480Y-2.014
X5.530Y-1.964
X5.530Y-2.014
X5.580Y-1.964
X5.580Y-2.014
X5.630Y-1.964
X5.630Y-2.014
T3
X5.000Y-2.620
X5.200Y-2.620
T4
X4.530Y-2.920
X4.530Y-3.000
X4.540Y-2.710
X4.540Y-2.810
X4.710Y-2.560
X4.710Y-2.660
X4.710Y-2.760
X4.760Y-2.150
X4.760Y-2.450
X4.800Y-3.110
X4.800Y-3.410
X4.810Y-2.560
X4.810Y-2.660
X4.810Y-2.760
X4.830Y-2.920
X4.830Y-3.000
X4.950Y-2.780
X5.070Y-3.280
X5.170Y-3.280
X5.250Y-2.780
X5.370Y-2.920
X5.370Y-3.000
X5.390Y-2.560
X5.390Y-2.660
X5.390Y-2.760
X5.400Y-3.110
X5.400Y-3.410
X5.440Y-2.150
X5.440Y-2.450
X5.490Y-2.560
X5.490Y-2.660
X5.490Y-2.760
X5.660Y-2.710
X5.660Y-2.810
X5.670Y-2.920
X5.670Y-3.000
T5
X5.538Y-3.381
T0
M30
