G04 (created by PCBNEW-RS274X (2012-apr-16-27)-stable) date dim. 02 juin 2013 12:31:59 CST*
G01*
G70*
G90*
%MOIN*%
G04 Gerber Fmt 3.4, Leading zero omitted, Abs format*
%FSLAX34Y34*%
G04 APERTURE LIST*
%ADD10C,0.006000*%
%ADD11C,0.005000*%
%ADD12C,0.015000*%
%ADD13C,0.008000*%
%ADD14C,0.003900*%
%ADD15C,0.012500*%
%ADD16C,0.012000*%
%ADD17C,0.004900*%
%ADD18C,0.003800*%
%ADD19C,0.001300*%
%ADD20C,0.007500*%
G04 APERTURE END LIST*
G54D10*
G54D11*
X45000Y-19806D02*
X45000Y-19606D01*
X45114Y-19806D01*
X45114Y-19606D01*
X45286Y-19796D02*
X45267Y-19806D01*
X45229Y-19806D01*
X45210Y-19796D01*
X45200Y-19777D01*
X45200Y-19701D01*
X45210Y-19682D01*
X45229Y-19673D01*
X45267Y-19673D01*
X45286Y-19682D01*
X45295Y-19701D01*
X45295Y-19720D01*
X45200Y-19739D01*
X45352Y-19673D02*
X45428Y-19673D01*
X45381Y-19606D02*
X45381Y-19777D01*
X45390Y-19796D01*
X45409Y-19806D01*
X45428Y-19806D01*
X45476Y-19673D02*
X45514Y-19806D01*
X45552Y-19711D01*
X45590Y-19806D01*
X45628Y-19673D01*
X45733Y-19806D02*
X45714Y-19796D01*
X45705Y-19787D01*
X45695Y-19768D01*
X45695Y-19711D01*
X45705Y-19692D01*
X45714Y-19682D01*
X45733Y-19673D01*
X45762Y-19673D01*
X45781Y-19682D01*
X45790Y-19692D01*
X45800Y-19711D01*
X45800Y-19768D01*
X45790Y-19787D01*
X45781Y-19796D01*
X45762Y-19806D01*
X45733Y-19806D01*
X45886Y-19806D02*
X45886Y-19673D01*
X45886Y-19711D02*
X45895Y-19692D01*
X45905Y-19682D01*
X45924Y-19673D01*
X45943Y-19673D01*
X46010Y-19806D02*
X46010Y-19606D01*
X46029Y-19730D02*
X46086Y-19806D01*
X46086Y-19673D02*
X46010Y-19749D01*
X46314Y-19749D02*
X46409Y-19749D01*
X46295Y-19806D02*
X46362Y-19606D01*
X46428Y-19806D01*
X46580Y-19806D02*
X46580Y-19606D01*
X46580Y-19796D02*
X46561Y-19806D01*
X46523Y-19806D01*
X46504Y-19796D01*
X46495Y-19787D01*
X46485Y-19768D01*
X46485Y-19711D01*
X46495Y-19692D01*
X46504Y-19682D01*
X46523Y-19673D01*
X46561Y-19673D01*
X46580Y-19682D01*
X46761Y-19806D02*
X46761Y-19701D01*
X46752Y-19682D01*
X46733Y-19673D01*
X46695Y-19673D01*
X46676Y-19682D01*
X46761Y-19796D02*
X46742Y-19806D01*
X46695Y-19806D01*
X46676Y-19796D01*
X46666Y-19777D01*
X46666Y-19758D01*
X46676Y-19739D01*
X46695Y-19730D01*
X46742Y-19730D01*
X46761Y-19720D01*
X46857Y-19673D02*
X46857Y-19873D01*
X46857Y-19682D02*
X46876Y-19673D01*
X46914Y-19673D01*
X46933Y-19682D01*
X46942Y-19692D01*
X46952Y-19711D01*
X46952Y-19768D01*
X46942Y-19787D01*
X46933Y-19796D01*
X46914Y-19806D01*
X46876Y-19806D01*
X46857Y-19796D01*
X47009Y-19673D02*
X47085Y-19673D01*
X47038Y-19606D02*
X47038Y-19777D01*
X47047Y-19796D01*
X47066Y-19806D01*
X47085Y-19806D01*
X47228Y-19796D02*
X47209Y-19806D01*
X47171Y-19806D01*
X47152Y-19796D01*
X47142Y-19777D01*
X47142Y-19701D01*
X47152Y-19682D01*
X47171Y-19673D01*
X47209Y-19673D01*
X47228Y-19682D01*
X47237Y-19701D01*
X47237Y-19720D01*
X47142Y-19739D01*
X47323Y-19806D02*
X47323Y-19673D01*
X47323Y-19711D02*
X47332Y-19692D01*
X47342Y-19682D01*
X47361Y-19673D01*
X47380Y-19673D01*
X44961Y-20031D02*
X44895Y-20031D01*
X44895Y-20136D02*
X44895Y-19936D01*
X44990Y-19936D01*
X45094Y-20136D02*
X45075Y-20126D01*
X45066Y-20117D01*
X45056Y-20098D01*
X45056Y-20041D01*
X45066Y-20022D01*
X45075Y-20012D01*
X45094Y-20003D01*
X45123Y-20003D01*
X45142Y-20012D01*
X45151Y-20022D01*
X45161Y-20041D01*
X45161Y-20098D01*
X45151Y-20117D01*
X45142Y-20126D01*
X45123Y-20136D01*
X45094Y-20136D01*
X45247Y-20136D02*
X45247Y-20003D01*
X45247Y-20041D02*
X45256Y-20022D01*
X45266Y-20012D01*
X45285Y-20003D01*
X45304Y-20003D01*
X45637Y-20117D02*
X45627Y-20126D01*
X45599Y-20136D01*
X45580Y-20136D01*
X45551Y-20126D01*
X45532Y-20107D01*
X45523Y-20088D01*
X45513Y-20050D01*
X45513Y-20022D01*
X45523Y-19984D01*
X45532Y-19965D01*
X45551Y-19945D01*
X45580Y-19936D01*
X45599Y-19936D01*
X45627Y-19945D01*
X45637Y-19955D01*
X45751Y-20136D02*
X45732Y-20126D01*
X45723Y-20117D01*
X45713Y-20098D01*
X45713Y-20041D01*
X45723Y-20022D01*
X45732Y-20012D01*
X45751Y-20003D01*
X45780Y-20003D01*
X45799Y-20012D01*
X45808Y-20022D01*
X45818Y-20041D01*
X45818Y-20098D01*
X45808Y-20117D01*
X45799Y-20126D01*
X45780Y-20136D01*
X45751Y-20136D01*
X45904Y-20003D02*
X45904Y-20203D01*
X45904Y-20012D02*
X45923Y-20003D01*
X45961Y-20003D01*
X45980Y-20012D01*
X45989Y-20022D01*
X45999Y-20041D01*
X45999Y-20098D01*
X45989Y-20117D01*
X45980Y-20126D01*
X45961Y-20136D01*
X45923Y-20136D01*
X45904Y-20126D01*
X46056Y-20003D02*
X46132Y-20003D01*
X46085Y-19936D02*
X46085Y-20107D01*
X46094Y-20126D01*
X46113Y-20136D01*
X46132Y-20136D01*
X46275Y-20126D02*
X46256Y-20136D01*
X46218Y-20136D01*
X46199Y-20126D01*
X46189Y-20107D01*
X46189Y-20031D01*
X46199Y-20012D01*
X46218Y-20003D01*
X46256Y-20003D01*
X46275Y-20012D01*
X46284Y-20031D01*
X46284Y-20050D01*
X46189Y-20069D01*
X46351Y-20136D02*
X46455Y-20003D01*
X46351Y-20003D02*
X46455Y-20136D01*
X46750Y-20031D02*
X46779Y-20041D01*
X46788Y-20050D01*
X46798Y-20069D01*
X46798Y-20098D01*
X46788Y-20117D01*
X46779Y-20126D01*
X46760Y-20136D01*
X46684Y-20136D01*
X46684Y-19936D01*
X46750Y-19936D01*
X46769Y-19945D01*
X46779Y-19955D01*
X46788Y-19974D01*
X46788Y-19993D01*
X46779Y-20012D01*
X46769Y-20022D01*
X46750Y-20031D01*
X46684Y-20031D01*
X46912Y-20136D02*
X46893Y-20126D01*
X46884Y-20117D01*
X46874Y-20098D01*
X46874Y-20041D01*
X46884Y-20022D01*
X46893Y-20012D01*
X46912Y-20003D01*
X46941Y-20003D01*
X46960Y-20012D01*
X46969Y-20022D01*
X46979Y-20041D01*
X46979Y-20098D01*
X46969Y-20117D01*
X46960Y-20126D01*
X46941Y-20136D01*
X46912Y-20136D01*
X47150Y-20136D02*
X47150Y-20031D01*
X47141Y-20012D01*
X47122Y-20003D01*
X47084Y-20003D01*
X47065Y-20012D01*
X47150Y-20126D02*
X47131Y-20136D01*
X47084Y-20136D01*
X47065Y-20126D01*
X47055Y-20107D01*
X47055Y-20088D01*
X47065Y-20069D01*
X47084Y-20060D01*
X47131Y-20060D01*
X47150Y-20050D01*
X47246Y-20136D02*
X47246Y-20003D01*
X47246Y-20041D02*
X47255Y-20022D01*
X47265Y-20012D01*
X47284Y-20003D01*
X47303Y-20003D01*
X47455Y-20136D02*
X47455Y-19936D01*
X47455Y-20126D02*
X47436Y-20136D01*
X47398Y-20136D01*
X47379Y-20126D01*
X47370Y-20117D01*
X47360Y-20098D01*
X47360Y-20041D01*
X47370Y-20022D01*
X47379Y-20012D01*
X47398Y-20003D01*
X47436Y-20003D01*
X47455Y-20012D01*
G54D12*
X44750Y-34600D02*
X44750Y-35100D01*
X44750Y-35100D02*
X57350Y-35100D01*
X57350Y-35100D02*
X57350Y-34600D01*
X57350Y-19250D02*
X57350Y-18700D01*
X57350Y-18700D02*
X44750Y-18700D01*
X44750Y-18700D02*
X44750Y-19250D01*
X44750Y-31100D02*
X45750Y-31100D01*
X45750Y-31100D02*
X45750Y-32100D01*
X44750Y-20600D02*
X57250Y-20600D01*
X57250Y-20600D02*
X57250Y-32100D01*
X57250Y-32100D02*
X44750Y-32100D01*
X44750Y-32100D02*
X44750Y-20600D01*
X44750Y-34600D02*
X57348Y-34600D01*
X57348Y-34600D02*
X57348Y-19246D01*
X57348Y-19246D02*
X44750Y-19246D01*
X44750Y-19246D02*
X44750Y-34600D01*
G54D13*
X49500Y-27800D02*
X49700Y-27800D01*
X52500Y-27800D02*
X52300Y-27800D01*
X52300Y-27800D02*
X52300Y-27400D01*
X52300Y-27400D02*
X49700Y-27400D01*
X49700Y-27400D02*
X49700Y-28200D01*
X49700Y-28200D02*
X52300Y-28200D01*
X52300Y-28200D02*
X52300Y-27800D01*
X49700Y-27600D02*
X49900Y-27400D01*
X54000Y-34100D02*
X54000Y-33900D01*
X54000Y-31100D02*
X54000Y-31300D01*
X54000Y-31300D02*
X53600Y-31300D01*
X53600Y-31300D02*
X53600Y-33900D01*
X53600Y-33900D02*
X54400Y-33900D01*
X54400Y-33900D02*
X54400Y-31300D01*
X54400Y-31300D02*
X54000Y-31300D01*
X53800Y-33900D02*
X53600Y-33700D01*
X48000Y-34100D02*
X48000Y-33900D01*
X48000Y-31100D02*
X48000Y-31300D01*
X48000Y-31300D02*
X47600Y-31300D01*
X47600Y-31300D02*
X47600Y-33900D01*
X47600Y-33900D02*
X48400Y-33900D01*
X48400Y-33900D02*
X48400Y-31300D01*
X48400Y-31300D02*
X48000Y-31300D01*
X47800Y-33900D02*
X47600Y-33700D01*
X53700Y-30000D02*
X53900Y-30000D01*
X56700Y-30000D02*
X56500Y-30000D01*
X56500Y-30000D02*
X56500Y-29600D01*
X56500Y-29600D02*
X53900Y-29600D01*
X53900Y-29600D02*
X53900Y-30400D01*
X53900Y-30400D02*
X56500Y-30400D01*
X56500Y-30400D02*
X56500Y-30000D01*
X53900Y-29800D02*
X54100Y-29600D01*
X45300Y-29200D02*
X45500Y-29200D01*
X48300Y-29200D02*
X48100Y-29200D01*
X48100Y-29200D02*
X48100Y-28800D01*
X48100Y-28800D02*
X45500Y-28800D01*
X45500Y-28800D02*
X45500Y-29600D01*
X45500Y-29600D02*
X48100Y-29600D01*
X48100Y-29600D02*
X48100Y-29200D01*
X45500Y-29000D02*
X45700Y-28800D01*
X53700Y-29200D02*
X53900Y-29200D01*
X56700Y-29200D02*
X56500Y-29200D01*
X56500Y-29200D02*
X56500Y-28800D01*
X56500Y-28800D02*
X53900Y-28800D01*
X53900Y-28800D02*
X53900Y-29600D01*
X53900Y-29600D02*
X56500Y-29600D01*
X56500Y-29600D02*
X56500Y-29200D01*
X53900Y-29000D02*
X54100Y-28800D01*
X45300Y-30000D02*
X45500Y-30000D01*
X48300Y-30000D02*
X48100Y-30000D01*
X48100Y-30000D02*
X48100Y-29600D01*
X48100Y-29600D02*
X45500Y-29600D01*
X45500Y-29600D02*
X45500Y-30400D01*
X45500Y-30400D02*
X48100Y-30400D01*
X48100Y-30400D02*
X48100Y-30000D01*
X45500Y-29800D02*
X45700Y-29600D01*
X54400Y-24500D02*
X54400Y-24300D01*
X54400Y-21500D02*
X54400Y-21700D01*
X54400Y-21700D02*
X54000Y-21700D01*
X54000Y-21700D02*
X54000Y-24300D01*
X54000Y-24300D02*
X54800Y-24300D01*
X54800Y-24300D02*
X54800Y-21700D01*
X54800Y-21700D02*
X54400Y-21700D01*
X54200Y-24300D02*
X54000Y-24100D01*
X47600Y-24500D02*
X47600Y-24300D01*
X47600Y-21500D02*
X47600Y-21700D01*
X47600Y-21700D02*
X47200Y-21700D01*
X47200Y-21700D02*
X47200Y-24300D01*
X47200Y-24300D02*
X48000Y-24300D01*
X48000Y-24300D02*
X48000Y-21700D01*
X48000Y-21700D02*
X47600Y-21700D01*
X47400Y-24300D02*
X47200Y-24100D01*
G54D14*
X52653Y-24774D02*
X52651Y-24789D01*
X52647Y-24804D01*
X52639Y-24817D01*
X52630Y-24829D01*
X52618Y-24839D01*
X52604Y-24846D01*
X52589Y-24851D01*
X52574Y-24852D01*
X52560Y-24851D01*
X52545Y-24847D01*
X52531Y-24840D01*
X52519Y-24830D01*
X52509Y-24818D01*
X52502Y-24805D01*
X52497Y-24790D01*
X52496Y-24775D01*
X52497Y-24760D01*
X52501Y-24745D01*
X52508Y-24732D01*
X52518Y-24720D01*
X52529Y-24710D01*
X52543Y-24702D01*
X52558Y-24697D01*
X52573Y-24696D01*
X52587Y-24697D01*
X52602Y-24701D01*
X52616Y-24708D01*
X52628Y-24717D01*
X52638Y-24729D01*
X52646Y-24742D01*
X52651Y-24757D01*
X52652Y-24772D01*
X52653Y-24774D01*
X52377Y-24577D02*
X52377Y-21823D01*
X52377Y-21823D02*
X49623Y-21823D01*
X49623Y-21823D02*
X49623Y-24577D01*
X49623Y-24577D02*
X52377Y-24577D01*
G54D12*
X49280Y-31200D02*
X49276Y-31234D01*
X49266Y-31268D01*
X49249Y-31299D01*
X49227Y-31326D01*
X49200Y-31349D01*
X49169Y-31365D01*
X49136Y-31376D01*
X49101Y-31379D01*
X49067Y-31376D01*
X49033Y-31366D01*
X49002Y-31350D01*
X48975Y-31328D01*
X48952Y-31301D01*
X48935Y-31270D01*
X48924Y-31237D01*
X48921Y-31202D01*
X48923Y-31168D01*
X48933Y-31134D01*
X48949Y-31103D01*
X48971Y-31075D01*
X48998Y-31053D01*
X49028Y-31036D01*
X49062Y-31025D01*
X49097Y-31021D01*
X49131Y-31023D01*
X49165Y-31033D01*
X49196Y-31049D01*
X49224Y-31070D01*
X49247Y-31097D01*
X49264Y-31127D01*
X49275Y-31161D01*
X49279Y-31195D01*
X49280Y-31200D01*
X48750Y-28850D02*
X53250Y-28850D01*
X53250Y-28850D02*
X53250Y-31550D01*
X53250Y-31550D02*
X48750Y-31550D01*
X48750Y-31550D02*
X48750Y-28850D01*
G54D15*
X49750Y-27200D02*
X52250Y-27200D01*
X49750Y-25200D02*
X52250Y-25200D01*
X53250Y-26200D02*
X53246Y-26113D01*
X53234Y-26027D01*
X53215Y-25942D01*
X53189Y-25858D01*
X53156Y-25778D01*
X53116Y-25701D01*
X53069Y-25627D01*
X53016Y-25558D01*
X52957Y-25493D01*
X52892Y-25434D01*
X52823Y-25381D01*
X52750Y-25334D01*
X52672Y-25294D01*
X52592Y-25261D01*
X52508Y-25235D01*
X52423Y-25216D01*
X52337Y-25204D01*
X52250Y-25200D01*
X52250Y-27200D02*
X52337Y-27196D01*
X52423Y-27184D01*
X52508Y-27165D01*
X52592Y-27139D01*
X52672Y-27106D01*
X52750Y-27066D01*
X52823Y-27019D01*
X52892Y-26966D01*
X52957Y-26907D01*
X53016Y-26842D01*
X53069Y-26773D01*
X53116Y-26699D01*
X53156Y-26622D01*
X53189Y-26542D01*
X53215Y-26458D01*
X53234Y-26373D01*
X53246Y-26287D01*
X53250Y-26200D01*
X49750Y-25200D02*
X49663Y-25204D01*
X49577Y-25216D01*
X49492Y-25235D01*
X49408Y-25261D01*
X49328Y-25294D01*
X49251Y-25334D01*
X49177Y-25381D01*
X49108Y-25434D01*
X49043Y-25493D01*
X48984Y-25558D01*
X48931Y-25627D01*
X48884Y-25701D01*
X48844Y-25778D01*
X48811Y-25858D01*
X48785Y-25942D01*
X48766Y-26027D01*
X48754Y-26113D01*
X48750Y-26200D01*
X48750Y-26200D02*
X48754Y-26287D01*
X48766Y-26373D01*
X48785Y-26458D01*
X48811Y-26542D01*
X48844Y-26622D01*
X48884Y-26699D01*
X48931Y-26773D01*
X48984Y-26842D01*
X49043Y-26907D01*
X49108Y-26966D01*
X49177Y-27019D01*
X49251Y-27066D01*
X49328Y-27106D01*
X49408Y-27139D01*
X49492Y-27165D01*
X49577Y-27184D01*
X49663Y-27196D01*
X49750Y-27200D01*
G54D16*
X52180Y-33300D02*
X50200Y-33300D01*
X50200Y-33300D02*
X50200Y-32300D01*
X50200Y-32300D02*
X52200Y-32300D01*
X52200Y-32300D02*
X52200Y-33300D01*
X52200Y-33050D02*
X51950Y-33300D01*
X55380Y-26100D02*
X53400Y-26100D01*
X53400Y-26100D02*
X53400Y-25100D01*
X53400Y-25100D02*
X55400Y-25100D01*
X55400Y-25100D02*
X55400Y-26100D01*
X55400Y-25850D02*
X55150Y-26100D01*
X46620Y-25100D02*
X48600Y-25100D01*
X48600Y-25100D02*
X48600Y-26100D01*
X48600Y-26100D02*
X46600Y-26100D01*
X46600Y-26100D02*
X46600Y-25100D01*
X46600Y-25350D02*
X46850Y-25100D01*
X56100Y-28580D02*
X56100Y-26600D01*
X56100Y-26600D02*
X57100Y-26600D01*
X57100Y-26600D02*
X57100Y-28600D01*
X57100Y-28600D02*
X56100Y-28600D01*
X56350Y-28600D02*
X56100Y-28350D01*
X44900Y-28580D02*
X44900Y-26600D01*
X44900Y-26600D02*
X45900Y-26600D01*
X45900Y-26600D02*
X45900Y-28600D01*
X45900Y-28600D02*
X44900Y-28600D01*
X45150Y-28600D02*
X44900Y-28350D01*
X53420Y-27100D02*
X55400Y-27100D01*
X55400Y-27100D02*
X55400Y-28100D01*
X55400Y-28100D02*
X53400Y-28100D01*
X53400Y-28100D02*
X53400Y-27100D01*
X53400Y-27350D02*
X53650Y-27100D01*
X53420Y-26100D02*
X55400Y-26100D01*
X55400Y-26100D02*
X55400Y-27100D01*
X55400Y-27100D02*
X53400Y-27100D01*
X53400Y-27100D02*
X53400Y-26100D01*
X53400Y-26350D02*
X53650Y-26100D01*
X48580Y-28100D02*
X46600Y-28100D01*
X46600Y-28100D02*
X46600Y-27100D01*
X46600Y-27100D02*
X48600Y-27100D01*
X48600Y-27100D02*
X48600Y-28100D01*
X48600Y-27850D02*
X48350Y-28100D01*
X48580Y-27100D02*
X46600Y-27100D01*
X46600Y-27100D02*
X46600Y-26100D01*
X46600Y-26100D02*
X48600Y-26100D01*
X48600Y-26100D02*
X48600Y-27100D01*
X48600Y-26850D02*
X48350Y-27100D01*
G54D17*
X50372Y-22659D02*
X50372Y-22265D01*
X50597Y-22659D01*
X50597Y-22265D01*
X50785Y-22453D02*
X50916Y-22453D01*
X50972Y-22659D02*
X50785Y-22659D01*
X50785Y-22265D01*
X50972Y-22265D01*
X51085Y-22265D02*
X51310Y-22265D01*
X51197Y-22659D02*
X51197Y-22265D01*
X51647Y-22659D02*
X51422Y-22659D01*
X51535Y-22659D02*
X51535Y-22265D01*
X51497Y-22322D01*
X51460Y-22359D01*
X51422Y-22378D01*
G54D18*
X49876Y-24061D02*
X49876Y-23911D01*
X49961Y-24061D01*
X49961Y-23911D01*
X50033Y-23982D02*
X50083Y-23982D01*
X50104Y-24061D02*
X50033Y-24061D01*
X50033Y-23911D01*
X50104Y-23911D01*
X50147Y-23911D02*
X50233Y-23911D01*
X50190Y-24061D02*
X50190Y-23911D01*
X50268Y-23911D02*
X50304Y-24061D01*
X50333Y-23954D01*
X50361Y-24061D01*
X50397Y-23911D01*
X50482Y-23911D02*
X50511Y-23911D01*
X50525Y-23918D01*
X50539Y-23932D01*
X50547Y-23961D01*
X50547Y-24011D01*
X50539Y-24039D01*
X50525Y-24054D01*
X50511Y-24061D01*
X50482Y-24061D01*
X50468Y-24054D01*
X50454Y-24039D01*
X50447Y-24011D01*
X50447Y-23961D01*
X50454Y-23932D01*
X50468Y-23918D01*
X50482Y-23911D01*
X50696Y-24061D02*
X50646Y-23989D01*
X50611Y-24061D02*
X50611Y-23911D01*
X50668Y-23911D01*
X50682Y-23918D01*
X50689Y-23925D01*
X50696Y-23939D01*
X50696Y-23961D01*
X50689Y-23975D01*
X50682Y-23982D01*
X50668Y-23989D01*
X50611Y-23989D01*
X50761Y-24061D02*
X50761Y-23911D01*
X50846Y-24061D02*
X50782Y-23975D01*
X50846Y-23911D02*
X50761Y-23996D01*
X50875Y-24075D02*
X50989Y-24075D01*
X51025Y-24061D02*
X51025Y-23911D01*
X51096Y-24061D02*
X51096Y-23911D01*
X51181Y-24061D01*
X51181Y-23911D01*
X51231Y-23911D02*
X51317Y-23911D01*
X51274Y-24061D02*
X51274Y-23911D01*
X51367Y-23982D02*
X51417Y-23982D01*
X51438Y-24061D02*
X51367Y-24061D01*
X51367Y-23911D01*
X51438Y-23911D01*
X51588Y-24061D02*
X51538Y-23989D01*
X51503Y-24061D02*
X51503Y-23911D01*
X51560Y-23911D01*
X51574Y-23918D01*
X51581Y-23925D01*
X51588Y-23939D01*
X51588Y-23961D01*
X51581Y-23975D01*
X51574Y-23982D01*
X51560Y-23989D01*
X51503Y-23989D01*
X51703Y-23982D02*
X51653Y-23982D01*
X51653Y-24061D02*
X51653Y-23911D01*
X51724Y-23911D01*
X51775Y-24018D02*
X51846Y-24018D01*
X51760Y-24061D02*
X51810Y-23911D01*
X51860Y-24061D01*
X51996Y-24046D02*
X51989Y-24054D01*
X51968Y-24061D01*
X51954Y-24061D01*
X51932Y-24054D01*
X51918Y-24039D01*
X51911Y-24025D01*
X51904Y-23996D01*
X51904Y-23975D01*
X51911Y-23946D01*
X51918Y-23932D01*
X51932Y-23918D01*
X51954Y-23911D01*
X51968Y-23911D01*
X51989Y-23918D01*
X51996Y-23925D01*
X52061Y-23982D02*
X52111Y-23982D01*
X52132Y-24061D02*
X52061Y-24061D01*
X52061Y-23911D01*
X52132Y-23911D01*
G54D11*
X50738Y-27976D02*
X50767Y-27986D01*
X50776Y-27995D01*
X50786Y-28014D01*
X50786Y-28043D01*
X50776Y-28062D01*
X50767Y-28071D01*
X50748Y-28081D01*
X50672Y-28081D01*
X50672Y-27881D01*
X50738Y-27881D01*
X50757Y-27890D01*
X50767Y-27900D01*
X50776Y-27919D01*
X50776Y-27938D01*
X50767Y-27957D01*
X50757Y-27967D01*
X50738Y-27976D01*
X50672Y-27976D01*
X50872Y-27976D02*
X50938Y-27976D01*
X50967Y-28081D02*
X50872Y-28081D01*
X50872Y-27881D01*
X50967Y-27881D01*
X51043Y-28024D02*
X51138Y-28024D01*
X51024Y-28081D02*
X51091Y-27881D01*
X51157Y-28081D01*
X51224Y-28081D02*
X51224Y-27881D01*
X51271Y-27881D01*
X51300Y-27890D01*
X51319Y-27910D01*
X51328Y-27929D01*
X51338Y-27967D01*
X51338Y-27995D01*
X51328Y-28033D01*
X51319Y-28052D01*
X51300Y-28071D01*
X51271Y-28081D01*
X51224Y-28081D01*
X53739Y-32681D02*
X53872Y-32681D01*
X53786Y-32881D01*
X54043Y-32681D02*
X53948Y-32681D01*
X53938Y-32776D01*
X53948Y-32767D01*
X53967Y-32757D01*
X54014Y-32757D01*
X54033Y-32767D01*
X54043Y-32776D01*
X54052Y-32795D01*
X54052Y-32843D01*
X54043Y-32862D01*
X54033Y-32871D01*
X54014Y-32881D01*
X53967Y-32881D01*
X53948Y-32871D01*
X53938Y-32862D01*
X54252Y-32881D02*
X54185Y-32786D01*
X54138Y-32881D02*
X54138Y-32681D01*
X54214Y-32681D01*
X54233Y-32690D01*
X54242Y-32700D01*
X54252Y-32719D01*
X54252Y-32748D01*
X54242Y-32767D01*
X54233Y-32776D01*
X54214Y-32786D01*
X54138Y-32786D01*
X47739Y-32681D02*
X47872Y-32681D01*
X47786Y-32881D01*
X48043Y-32681D02*
X47948Y-32681D01*
X47938Y-32776D01*
X47948Y-32767D01*
X47967Y-32757D01*
X48014Y-32757D01*
X48033Y-32767D01*
X48043Y-32776D01*
X48052Y-32795D01*
X48052Y-32843D01*
X48043Y-32862D01*
X48033Y-32871D01*
X48014Y-32881D01*
X47967Y-32881D01*
X47948Y-32871D01*
X47938Y-32862D01*
X48252Y-32881D02*
X48185Y-32786D01*
X48138Y-32881D02*
X48138Y-32681D01*
X48214Y-32681D01*
X48233Y-32690D01*
X48242Y-32700D01*
X48252Y-32719D01*
X48252Y-32748D01*
X48242Y-32767D01*
X48233Y-32776D01*
X48214Y-32786D01*
X48138Y-32786D01*
X54948Y-30148D02*
X54948Y-30281D01*
X54901Y-30071D02*
X54853Y-30214D01*
X54977Y-30214D01*
X55062Y-30281D02*
X55100Y-30281D01*
X55119Y-30271D01*
X55129Y-30262D01*
X55148Y-30233D01*
X55157Y-30195D01*
X55157Y-30119D01*
X55148Y-30100D01*
X55138Y-30090D01*
X55119Y-30081D01*
X55081Y-30081D01*
X55062Y-30090D01*
X55053Y-30100D01*
X55043Y-30119D01*
X55043Y-30167D01*
X55053Y-30186D01*
X55062Y-30195D01*
X55081Y-30205D01*
X55119Y-30205D01*
X55138Y-30195D01*
X55148Y-30186D01*
X55157Y-30167D01*
X55357Y-30281D02*
X55290Y-30186D01*
X55243Y-30281D02*
X55243Y-30081D01*
X55319Y-30081D01*
X55338Y-30090D01*
X55347Y-30100D01*
X55357Y-30119D01*
X55357Y-30148D01*
X55347Y-30167D01*
X55338Y-30176D01*
X55319Y-30186D01*
X55243Y-30186D01*
X55452Y-30281D02*
X55490Y-30281D01*
X55509Y-30271D01*
X55519Y-30262D01*
X55538Y-30233D01*
X55547Y-30195D01*
X55547Y-30119D01*
X55538Y-30100D01*
X55528Y-30090D01*
X55509Y-30081D01*
X55471Y-30081D01*
X55452Y-30090D01*
X55443Y-30100D01*
X55433Y-30119D01*
X55433Y-30167D01*
X55443Y-30186D01*
X55452Y-30195D01*
X55471Y-30205D01*
X55509Y-30205D01*
X55528Y-30195D01*
X55538Y-30186D01*
X55547Y-30167D01*
X46498Y-29298D02*
X46498Y-29431D01*
X46451Y-29221D02*
X46403Y-29364D01*
X46527Y-29364D01*
X46612Y-29431D02*
X46650Y-29431D01*
X46669Y-29421D01*
X46679Y-29412D01*
X46698Y-29383D01*
X46707Y-29345D01*
X46707Y-29269D01*
X46698Y-29250D01*
X46688Y-29240D01*
X46669Y-29231D01*
X46631Y-29231D01*
X46612Y-29240D01*
X46603Y-29250D01*
X46593Y-29269D01*
X46593Y-29317D01*
X46603Y-29336D01*
X46612Y-29345D01*
X46631Y-29355D01*
X46669Y-29355D01*
X46688Y-29345D01*
X46698Y-29336D01*
X46707Y-29317D01*
X46907Y-29431D02*
X46840Y-29336D01*
X46793Y-29431D02*
X46793Y-29231D01*
X46869Y-29231D01*
X46888Y-29240D01*
X46897Y-29250D01*
X46907Y-29269D01*
X46907Y-29298D01*
X46897Y-29317D01*
X46888Y-29326D01*
X46869Y-29336D01*
X46793Y-29336D01*
X47002Y-29431D02*
X47040Y-29431D01*
X47059Y-29421D01*
X47069Y-29412D01*
X47088Y-29383D01*
X47097Y-29345D01*
X47097Y-29269D01*
X47088Y-29250D01*
X47078Y-29240D01*
X47059Y-29231D01*
X47021Y-29231D01*
X47002Y-29240D01*
X46993Y-29250D01*
X46983Y-29269D01*
X46983Y-29317D01*
X46993Y-29336D01*
X47002Y-29345D01*
X47021Y-29355D01*
X47059Y-29355D01*
X47078Y-29345D01*
X47088Y-29336D01*
X47097Y-29317D01*
X54948Y-29348D02*
X54948Y-29481D01*
X54901Y-29271D02*
X54853Y-29414D01*
X54977Y-29414D01*
X55062Y-29481D02*
X55100Y-29481D01*
X55119Y-29471D01*
X55129Y-29462D01*
X55148Y-29433D01*
X55157Y-29395D01*
X55157Y-29319D01*
X55148Y-29300D01*
X55138Y-29290D01*
X55119Y-29281D01*
X55081Y-29281D01*
X55062Y-29290D01*
X55053Y-29300D01*
X55043Y-29319D01*
X55043Y-29367D01*
X55053Y-29386D01*
X55062Y-29395D01*
X55081Y-29405D01*
X55119Y-29405D01*
X55138Y-29395D01*
X55148Y-29386D01*
X55157Y-29367D01*
X55357Y-29481D02*
X55290Y-29386D01*
X55243Y-29481D02*
X55243Y-29281D01*
X55319Y-29281D01*
X55338Y-29290D01*
X55347Y-29300D01*
X55357Y-29319D01*
X55357Y-29348D01*
X55347Y-29367D01*
X55338Y-29376D01*
X55319Y-29386D01*
X55243Y-29386D01*
X55452Y-29481D02*
X55490Y-29481D01*
X55509Y-29471D01*
X55519Y-29462D01*
X55538Y-29433D01*
X55547Y-29395D01*
X55547Y-29319D01*
X55538Y-29300D01*
X55528Y-29290D01*
X55509Y-29281D01*
X55471Y-29281D01*
X55452Y-29290D01*
X55443Y-29300D01*
X55433Y-29319D01*
X55433Y-29367D01*
X55443Y-29386D01*
X55452Y-29395D01*
X55471Y-29405D01*
X55509Y-29405D01*
X55528Y-29395D01*
X55538Y-29386D01*
X55547Y-29367D01*
X46548Y-30098D02*
X46548Y-30231D01*
X46501Y-30021D02*
X46453Y-30164D01*
X46577Y-30164D01*
X46662Y-30231D02*
X46700Y-30231D01*
X46719Y-30221D01*
X46729Y-30212D01*
X46748Y-30183D01*
X46757Y-30145D01*
X46757Y-30069D01*
X46748Y-30050D01*
X46738Y-30040D01*
X46719Y-30031D01*
X46681Y-30031D01*
X46662Y-30040D01*
X46653Y-30050D01*
X46643Y-30069D01*
X46643Y-30117D01*
X46653Y-30136D01*
X46662Y-30145D01*
X46681Y-30155D01*
X46719Y-30155D01*
X46738Y-30145D01*
X46748Y-30136D01*
X46757Y-30117D01*
X46957Y-30231D02*
X46890Y-30136D01*
X46843Y-30231D02*
X46843Y-30031D01*
X46919Y-30031D01*
X46938Y-30040D01*
X46947Y-30050D01*
X46957Y-30069D01*
X46957Y-30098D01*
X46947Y-30117D01*
X46938Y-30126D01*
X46919Y-30136D01*
X46843Y-30136D01*
X47052Y-30231D02*
X47090Y-30231D01*
X47109Y-30221D01*
X47119Y-30212D01*
X47138Y-30183D01*
X47147Y-30145D01*
X47147Y-30069D01*
X47138Y-30050D01*
X47128Y-30040D01*
X47109Y-30031D01*
X47071Y-30031D01*
X47052Y-30040D01*
X47043Y-30050D01*
X47033Y-30069D01*
X47033Y-30117D01*
X47043Y-30136D01*
X47052Y-30145D01*
X47071Y-30155D01*
X47109Y-30155D01*
X47128Y-30145D01*
X47138Y-30136D01*
X47147Y-30117D01*
X54262Y-23081D02*
X54224Y-23081D01*
X54205Y-23090D01*
X54196Y-23100D01*
X54177Y-23129D01*
X54167Y-23167D01*
X54167Y-23243D01*
X54177Y-23262D01*
X54186Y-23271D01*
X54205Y-23281D01*
X54243Y-23281D01*
X54262Y-23271D01*
X54272Y-23262D01*
X54281Y-23243D01*
X54281Y-23195D01*
X54272Y-23176D01*
X54262Y-23167D01*
X54243Y-23157D01*
X54205Y-23157D01*
X54186Y-23167D01*
X54177Y-23176D01*
X54167Y-23195D01*
X54367Y-23281D02*
X54367Y-23081D01*
X54386Y-23205D02*
X54443Y-23281D01*
X54443Y-23148D02*
X54367Y-23224D01*
X54557Y-23167D02*
X54538Y-23157D01*
X54529Y-23148D01*
X54519Y-23129D01*
X54519Y-23119D01*
X54529Y-23100D01*
X54538Y-23090D01*
X54557Y-23081D01*
X54595Y-23081D01*
X54614Y-23090D01*
X54624Y-23100D01*
X54633Y-23119D01*
X54633Y-23129D01*
X54624Y-23148D01*
X54614Y-23157D01*
X54595Y-23167D01*
X54557Y-23167D01*
X54538Y-23176D01*
X54529Y-23186D01*
X54519Y-23205D01*
X54519Y-23243D01*
X54529Y-23262D01*
X54538Y-23271D01*
X54557Y-23281D01*
X54595Y-23281D01*
X54614Y-23271D01*
X54624Y-23262D01*
X54633Y-23243D01*
X54633Y-23205D01*
X54624Y-23186D01*
X54614Y-23176D01*
X54595Y-23167D01*
X47462Y-23281D02*
X47348Y-23281D01*
X47405Y-23281D02*
X47405Y-23081D01*
X47386Y-23110D01*
X47367Y-23129D01*
X47348Y-23138D01*
X47586Y-23081D02*
X47605Y-23081D01*
X47624Y-23090D01*
X47633Y-23100D01*
X47643Y-23119D01*
X47652Y-23157D01*
X47652Y-23205D01*
X47643Y-23243D01*
X47633Y-23262D01*
X47624Y-23271D01*
X47605Y-23281D01*
X47586Y-23281D01*
X47567Y-23271D01*
X47557Y-23262D01*
X47548Y-23243D01*
X47538Y-23205D01*
X47538Y-23157D01*
X47548Y-23119D01*
X47557Y-23100D01*
X47567Y-23090D01*
X47586Y-23081D01*
X47738Y-23281D02*
X47738Y-23081D01*
X47852Y-23281D02*
X47766Y-23167D01*
X47852Y-23081D02*
X47738Y-23195D01*
G54D19*
X50962Y-29770D02*
X50990Y-29770D01*
X50976Y-29820D02*
X50976Y-29770D01*
X51033Y-29820D02*
X51005Y-29820D01*
X51019Y-29820D02*
X51019Y-29770D01*
X51014Y-29777D01*
X51009Y-29782D01*
X51005Y-29785D01*
G54D20*
X49921Y-30871D02*
X49921Y-30571D01*
X49921Y-30714D02*
X50093Y-30714D01*
X50093Y-30871D02*
X50093Y-30571D01*
X50207Y-30571D02*
X50407Y-30871D01*
X50407Y-30571D02*
X50207Y-30871D01*
X50679Y-30871D02*
X50507Y-30871D01*
X50593Y-30871D02*
X50593Y-30571D01*
X50564Y-30614D01*
X50536Y-30643D01*
X50507Y-30657D01*
X50965Y-30871D02*
X50793Y-30871D01*
X50879Y-30871D02*
X50879Y-30571D01*
X50850Y-30614D01*
X50822Y-30643D01*
X50793Y-30657D01*
X51108Y-30871D02*
X51165Y-30871D01*
X51193Y-30857D01*
X51208Y-30843D01*
X51236Y-30800D01*
X51251Y-30743D01*
X51251Y-30629D01*
X51236Y-30600D01*
X51222Y-30586D01*
X51193Y-30571D01*
X51136Y-30571D01*
X51108Y-30586D01*
X51093Y-30600D01*
X51079Y-30629D01*
X51079Y-30700D01*
X51093Y-30729D01*
X51108Y-30743D01*
X51136Y-30757D01*
X51193Y-30757D01*
X51222Y-30743D01*
X51236Y-30729D01*
X51251Y-30700D01*
X51422Y-30700D02*
X51394Y-30686D01*
X51379Y-30671D01*
X51365Y-30643D01*
X51365Y-30629D01*
X51379Y-30600D01*
X51394Y-30586D01*
X51422Y-30571D01*
X51479Y-30571D01*
X51508Y-30586D01*
X51522Y-30600D01*
X51537Y-30629D01*
X51537Y-30643D01*
X51522Y-30671D01*
X51508Y-30686D01*
X51479Y-30700D01*
X51422Y-30700D01*
X51394Y-30714D01*
X51379Y-30729D01*
X51365Y-30757D01*
X51365Y-30814D01*
X51379Y-30843D01*
X51394Y-30857D01*
X51422Y-30871D01*
X51479Y-30871D01*
X51508Y-30857D01*
X51522Y-30843D01*
X51537Y-30814D01*
X51537Y-30757D01*
X51522Y-30729D01*
X51508Y-30714D01*
X51479Y-30700D01*
X51665Y-30871D02*
X51665Y-30571D01*
X51837Y-30871D01*
X51837Y-30571D01*
X52122Y-30871D02*
X51979Y-30871D01*
X51979Y-30571D01*
G54D16*
X50515Y-25843D02*
X50915Y-26443D01*
X50915Y-25843D02*
X50515Y-26443D01*
X51457Y-26443D02*
X51114Y-26443D01*
X51286Y-26443D02*
X51286Y-25843D01*
X51229Y-25929D01*
X51171Y-25986D01*
X51114Y-26014D01*
G54D20*
X50307Y-26843D02*
X50293Y-26857D01*
X50250Y-26871D01*
X50221Y-26871D01*
X50178Y-26857D01*
X50150Y-26829D01*
X50135Y-26800D01*
X50121Y-26743D01*
X50121Y-26700D01*
X50135Y-26643D01*
X50150Y-26614D01*
X50178Y-26586D01*
X50221Y-26571D01*
X50250Y-26571D01*
X50293Y-26586D01*
X50307Y-26600D01*
X50607Y-26871D02*
X50507Y-26729D01*
X50435Y-26871D02*
X50435Y-26571D01*
X50550Y-26571D01*
X50578Y-26586D01*
X50593Y-26600D01*
X50607Y-26629D01*
X50607Y-26671D01*
X50593Y-26700D01*
X50578Y-26714D01*
X50550Y-26729D01*
X50435Y-26729D01*
X50793Y-26729D02*
X50793Y-26871D01*
X50693Y-26571D02*
X50793Y-26729D01*
X50893Y-26571D01*
X50978Y-26857D02*
X51021Y-26871D01*
X51092Y-26871D01*
X51121Y-26857D01*
X51135Y-26843D01*
X51150Y-26814D01*
X51150Y-26786D01*
X51135Y-26757D01*
X51121Y-26743D01*
X51092Y-26729D01*
X51035Y-26714D01*
X51007Y-26700D01*
X50992Y-26686D01*
X50978Y-26657D01*
X50978Y-26629D01*
X50992Y-26600D01*
X51007Y-26586D01*
X51035Y-26571D01*
X51107Y-26571D01*
X51150Y-26586D01*
X51236Y-26571D02*
X51407Y-26571D01*
X51321Y-26871D02*
X51321Y-26571D01*
X51493Y-26786D02*
X51636Y-26786D01*
X51465Y-26871D02*
X51565Y-26571D01*
X51665Y-26871D01*
X51907Y-26871D02*
X51764Y-26871D01*
X51764Y-26571D01*
G54D18*
X51246Y-32825D02*
X51254Y-32832D01*
X51261Y-32853D01*
X51261Y-32867D01*
X51254Y-32889D01*
X51239Y-32903D01*
X51225Y-32910D01*
X51196Y-32917D01*
X51175Y-32917D01*
X51146Y-32910D01*
X51132Y-32903D01*
X51118Y-32889D01*
X51111Y-32867D01*
X51111Y-32853D01*
X51118Y-32832D01*
X51125Y-32825D01*
X51261Y-32753D02*
X51261Y-32725D01*
X51254Y-32710D01*
X51246Y-32703D01*
X51225Y-32689D01*
X51196Y-32682D01*
X51139Y-32682D01*
X51125Y-32689D01*
X51118Y-32696D01*
X51111Y-32710D01*
X51111Y-32739D01*
X51118Y-32753D01*
X51125Y-32760D01*
X51139Y-32767D01*
X51175Y-32767D01*
X51189Y-32760D01*
X51196Y-32753D01*
X51204Y-32739D01*
X51204Y-32710D01*
X51196Y-32696D01*
X51189Y-32689D01*
X51175Y-32682D01*
X54446Y-25675D02*
X54454Y-25682D01*
X54461Y-25703D01*
X54461Y-25717D01*
X54454Y-25739D01*
X54439Y-25753D01*
X54425Y-25760D01*
X54396Y-25767D01*
X54375Y-25767D01*
X54346Y-25760D01*
X54332Y-25753D01*
X54318Y-25739D01*
X54311Y-25717D01*
X54311Y-25703D01*
X54318Y-25682D01*
X54325Y-25675D01*
X54375Y-25589D02*
X54368Y-25603D01*
X54361Y-25610D01*
X54346Y-25617D01*
X54339Y-25617D01*
X54325Y-25610D01*
X54318Y-25603D01*
X54311Y-25589D01*
X54311Y-25560D01*
X54318Y-25546D01*
X54325Y-25539D01*
X54339Y-25532D01*
X54346Y-25532D01*
X54361Y-25539D01*
X54368Y-25546D01*
X54375Y-25560D01*
X54375Y-25589D01*
X54382Y-25603D01*
X54389Y-25610D01*
X54404Y-25617D01*
X54432Y-25617D01*
X54446Y-25610D01*
X54454Y-25603D01*
X54461Y-25589D01*
X54461Y-25560D01*
X54454Y-25546D01*
X54446Y-25539D01*
X54432Y-25532D01*
X54404Y-25532D01*
X54389Y-25539D01*
X54382Y-25546D01*
X54375Y-25560D01*
X47646Y-25625D02*
X47654Y-25632D01*
X47661Y-25653D01*
X47661Y-25667D01*
X47654Y-25689D01*
X47639Y-25703D01*
X47625Y-25710D01*
X47596Y-25717D01*
X47575Y-25717D01*
X47546Y-25710D01*
X47532Y-25703D01*
X47518Y-25689D01*
X47511Y-25667D01*
X47511Y-25653D01*
X47518Y-25632D01*
X47525Y-25625D01*
X47511Y-25575D02*
X47511Y-25475D01*
X47661Y-25539D01*
X56575Y-27646D02*
X56568Y-27654D01*
X56547Y-27661D01*
X56533Y-27661D01*
X56511Y-27654D01*
X56497Y-27639D01*
X56490Y-27625D01*
X56483Y-27596D01*
X56483Y-27575D01*
X56490Y-27546D01*
X56497Y-27532D01*
X56511Y-27518D01*
X56533Y-27511D01*
X56547Y-27511D01*
X56568Y-27518D01*
X56575Y-27525D01*
X56704Y-27511D02*
X56675Y-27511D01*
X56661Y-27518D01*
X56654Y-27525D01*
X56640Y-27546D01*
X56633Y-27575D01*
X56633Y-27632D01*
X56640Y-27646D01*
X56647Y-27654D01*
X56661Y-27661D01*
X56690Y-27661D01*
X56704Y-27654D01*
X56711Y-27646D01*
X56718Y-27632D01*
X56718Y-27596D01*
X56711Y-27582D01*
X56704Y-27575D01*
X56690Y-27568D01*
X56661Y-27568D01*
X56647Y-27575D01*
X56640Y-27582D01*
X56633Y-27596D01*
X45375Y-27646D02*
X45368Y-27654D01*
X45347Y-27661D01*
X45333Y-27661D01*
X45311Y-27654D01*
X45297Y-27639D01*
X45290Y-27625D01*
X45283Y-27596D01*
X45283Y-27575D01*
X45290Y-27546D01*
X45297Y-27532D01*
X45311Y-27518D01*
X45333Y-27511D01*
X45347Y-27511D01*
X45368Y-27518D01*
X45375Y-27525D01*
X45511Y-27511D02*
X45440Y-27511D01*
X45433Y-27582D01*
X45440Y-27575D01*
X45454Y-27568D01*
X45490Y-27568D01*
X45504Y-27575D01*
X45511Y-27582D01*
X45518Y-27596D01*
X45518Y-27632D01*
X45511Y-27646D01*
X45504Y-27654D01*
X45490Y-27661D01*
X45454Y-27661D01*
X45440Y-27654D01*
X45433Y-27646D01*
X54446Y-27625D02*
X54454Y-27632D01*
X54461Y-27653D01*
X54461Y-27667D01*
X54454Y-27689D01*
X54439Y-27703D01*
X54425Y-27710D01*
X54396Y-27717D01*
X54375Y-27717D01*
X54346Y-27710D01*
X54332Y-27703D01*
X54318Y-27689D01*
X54311Y-27667D01*
X54311Y-27653D01*
X54318Y-27632D01*
X54325Y-27625D01*
X54361Y-27496D02*
X54461Y-27496D01*
X54304Y-27532D02*
X54411Y-27567D01*
X54411Y-27475D01*
X54446Y-26625D02*
X54454Y-26632D01*
X54461Y-26653D01*
X54461Y-26667D01*
X54454Y-26689D01*
X54439Y-26703D01*
X54425Y-26710D01*
X54396Y-26717D01*
X54375Y-26717D01*
X54346Y-26710D01*
X54332Y-26703D01*
X54318Y-26689D01*
X54311Y-26667D01*
X54311Y-26653D01*
X54318Y-26632D01*
X54325Y-26625D01*
X54311Y-26575D02*
X54311Y-26482D01*
X54368Y-26532D01*
X54368Y-26510D01*
X54375Y-26496D01*
X54382Y-26489D01*
X54396Y-26482D01*
X54432Y-26482D01*
X54446Y-26489D01*
X54454Y-26496D01*
X54461Y-26510D01*
X54461Y-26553D01*
X54454Y-26567D01*
X54446Y-26575D01*
X47646Y-27625D02*
X47654Y-27632D01*
X47661Y-27653D01*
X47661Y-27667D01*
X47654Y-27689D01*
X47639Y-27703D01*
X47625Y-27710D01*
X47596Y-27717D01*
X47575Y-27717D01*
X47546Y-27710D01*
X47532Y-27703D01*
X47518Y-27689D01*
X47511Y-27667D01*
X47511Y-27653D01*
X47518Y-27632D01*
X47525Y-27625D01*
X47525Y-27567D02*
X47518Y-27560D01*
X47511Y-27546D01*
X47511Y-27510D01*
X47518Y-27496D01*
X47525Y-27489D01*
X47539Y-27482D01*
X47554Y-27482D01*
X47575Y-27489D01*
X47661Y-27575D01*
X47661Y-27482D01*
X47646Y-26625D02*
X47654Y-26632D01*
X47661Y-26653D01*
X47661Y-26667D01*
X47654Y-26689D01*
X47639Y-26703D01*
X47625Y-26710D01*
X47596Y-26717D01*
X47575Y-26717D01*
X47546Y-26710D01*
X47532Y-26703D01*
X47518Y-26689D01*
X47511Y-26667D01*
X47511Y-26653D01*
X47518Y-26632D01*
X47525Y-26625D01*
X47661Y-26482D02*
X47661Y-26567D01*
X47661Y-26525D02*
X47511Y-26525D01*
X47532Y-26539D01*
X47546Y-26553D01*
X47554Y-26567D01*
M02*
