G04 (created by PCBNEW-RS274X (2012-01-19 BZR 3256)-stable) date 21/01/2013 18:38:03*
G01*
G70*
G90*
%MOIN*%
G04 Gerber Fmt 3.4, Leading zero omitted, Abs format*
%FSLAX34Y34*%
G04 APERTURE LIST*
%ADD10C,0.006000*%
%ADD11R,0.010000X0.040000*%
%ADD12R,0.040000X0.010000*%
%ADD13C,0.035000*%
G04 APERTURE END LIST*
G54D10*
G54D11*
X56360Y-47950D03*
X51640Y-47950D03*
X51840Y-47950D03*
X52030Y-47950D03*
X52230Y-47950D03*
X52430Y-47950D03*
X52620Y-47950D03*
X52820Y-47950D03*
X53020Y-47950D03*
X53210Y-47950D03*
X53410Y-47950D03*
X53610Y-47950D03*
X53810Y-47950D03*
X54000Y-47950D03*
X54200Y-47950D03*
X54400Y-47950D03*
X54590Y-47950D03*
X54790Y-47950D03*
X54990Y-47950D03*
X55180Y-47950D03*
X55380Y-47950D03*
X55580Y-47950D03*
X55770Y-47950D03*
X55970Y-47950D03*
X56170Y-47950D03*
G54D12*
X50950Y-48640D03*
X50950Y-53360D03*
X50950Y-53160D03*
X50950Y-52970D03*
X50950Y-52770D03*
X50950Y-52570D03*
X50950Y-52380D03*
X50950Y-52180D03*
X50950Y-51980D03*
X50950Y-51790D03*
X50950Y-51590D03*
X50950Y-51390D03*
X50950Y-51190D03*
X50950Y-51000D03*
X50950Y-50800D03*
X50950Y-50600D03*
X50950Y-50410D03*
X50950Y-50210D03*
X50950Y-50010D03*
X50950Y-49820D03*
X50950Y-49620D03*
X50950Y-49420D03*
X50950Y-49230D03*
X50950Y-49030D03*
X50950Y-48830D03*
X57050Y-48640D03*
X57050Y-48840D03*
X57050Y-49030D03*
X57050Y-49230D03*
X57050Y-49430D03*
X57050Y-49620D03*
X57050Y-49820D03*
X57050Y-50020D03*
X57050Y-50210D03*
X57050Y-50410D03*
X57050Y-50610D03*
X57050Y-50810D03*
X57050Y-51000D03*
X57050Y-51200D03*
X57050Y-51400D03*
X57050Y-51590D03*
X57050Y-51790D03*
X57050Y-51990D03*
X57050Y-52180D03*
X57050Y-52380D03*
X57050Y-52580D03*
X57050Y-52770D03*
X57050Y-52970D03*
X57050Y-53170D03*
X57050Y-53360D03*
G54D11*
X56360Y-54050D03*
X56160Y-54050D03*
X55970Y-54050D03*
X55770Y-54050D03*
X55570Y-54050D03*
X55380Y-54050D03*
X55180Y-54050D03*
X54980Y-54050D03*
X54790Y-54050D03*
X54590Y-54050D03*
X54390Y-54050D03*
X54190Y-54050D03*
X54000Y-54050D03*
X53800Y-54050D03*
X53600Y-54050D03*
X53410Y-54050D03*
X53210Y-54050D03*
X53010Y-54050D03*
X52820Y-54050D03*
X52620Y-54050D03*
X52420Y-54050D03*
X52230Y-54050D03*
X52030Y-54050D03*
X51830Y-54050D03*
X51640Y-54050D03*
G54D13*
X52622Y-49622D03*
X52622Y-52378D03*
X55378Y-52378D03*
X55378Y-49622D03*
X54000Y-51000D03*
M02*
