G04 (created by PCBNEW-RS274X (2012-apr-16-27)-stable) date dim. 02 juin 2013 12:31:59 CST*
G01*
G70*
G90*
%MOIN*%
G04 Gerber Fmt 3.4, Leading zero omitted, Abs format*
%FSLAX34Y34*%
G04 APERTURE LIST*
%ADD10C,0.006000*%
%ADD11C,0.035400*%
%ADD12R,0.035400X0.035400*%
%ADD13C,0.137800*%
%ADD14C,0.055000*%
%ADD15C,0.056000*%
%ADD16C,0.035000*%
%ADD17C,0.008000*%
G04 APERTURE END LIST*
G54D10*
G54D11*
X53187Y-34198D03*
X52687Y-34198D03*
X52187Y-34198D03*
X51687Y-34198D03*
X51187Y-34198D03*
X50687Y-34198D03*
X50187Y-34198D03*
X49687Y-34198D03*
X49187Y-34198D03*
X48687Y-34198D03*
X48687Y-33698D03*
X49187Y-33698D03*
X49687Y-33698D03*
X50187Y-33698D03*
X50687Y-33698D03*
X51187Y-33698D03*
X51687Y-33698D03*
X52187Y-33698D03*
X52687Y-33698D03*
X53187Y-33698D03*
G54D12*
X56301Y-20143D03*
G54D11*
X56301Y-19643D03*
X55801Y-20143D03*
X55801Y-19643D03*
X55301Y-20143D03*
X55301Y-19643D03*
X54801Y-20143D03*
X54801Y-19643D03*
X54301Y-20143D03*
X54301Y-19643D03*
X53801Y-20143D03*
X53801Y-19643D03*
X53301Y-20143D03*
X53301Y-19643D03*
X52801Y-20143D03*
X52801Y-19643D03*
X52301Y-20143D03*
X52301Y-19643D03*
X51801Y-20143D03*
X51801Y-19643D03*
X51301Y-20143D03*
X51301Y-19643D03*
X50801Y-20143D03*
X50801Y-19643D03*
X50301Y-20143D03*
X50301Y-19643D03*
X49801Y-20143D03*
X49801Y-19643D03*
X49301Y-20143D03*
X49301Y-19643D03*
X48801Y-20143D03*
X48801Y-19643D03*
X48301Y-20143D03*
X48301Y-19643D03*
X47801Y-20143D03*
X47801Y-19643D03*
G54D13*
X55380Y-33813D03*
G54D14*
X49500Y-27800D03*
X52500Y-27800D03*
X54000Y-34100D03*
X54000Y-31100D03*
X48000Y-34100D03*
X48000Y-31100D03*
X53700Y-30000D03*
X56700Y-30000D03*
X45300Y-29200D03*
X48300Y-29200D03*
X53700Y-29200D03*
X56700Y-29200D03*
X45300Y-30000D03*
X48300Y-30000D03*
X54400Y-24500D03*
X54400Y-21500D03*
X47600Y-24500D03*
X47600Y-21500D03*
G54D15*
X50000Y-26200D03*
X52000Y-26200D03*
G54D14*
X51700Y-32800D03*
X50700Y-32800D03*
X54900Y-25600D03*
X53900Y-25600D03*
X47100Y-25600D03*
X48100Y-25600D03*
X56600Y-28100D03*
X56600Y-27100D03*
X45400Y-28100D03*
X45400Y-27100D03*
X53900Y-27600D03*
X54900Y-27600D03*
X53900Y-26600D03*
X54900Y-26600D03*
X48100Y-27600D03*
X47100Y-27600D03*
X48100Y-26600D03*
X47100Y-26600D03*
G54D16*
X50501Y-25590D03*
X53057Y-24229D03*
X48926Y-24194D03*
X50006Y-21024D03*
X53461Y-20903D03*
X49387Y-21786D03*
X50469Y-20813D03*
X47114Y-24062D03*
X50384Y-22940D03*
X51013Y-22218D03*
X47092Y-23317D03*
X50365Y-22087D03*
X55897Y-21281D03*
X51551Y-20727D03*
X52606Y-20870D03*
X48032Y-20557D03*
X47662Y-22535D03*
X47342Y-20425D03*
X48595Y-22040D03*
X45493Y-20322D03*
X45673Y-23084D03*
X49196Y-20679D03*
X51553Y-23321D03*
X55760Y-24426D03*
X53629Y-23832D03*
X53248Y-23310D03*
X48652Y-23394D03*
X54013Y-23313D03*
G54D17*
X47860Y-21468D02*
X47714Y-21614D01*
X50021Y-25110D02*
X50501Y-25590D01*
X49520Y-21468D02*
X47860Y-21468D01*
X47618Y-25110D02*
X50021Y-25110D01*
X49585Y-21533D02*
X49520Y-21468D01*
X53282Y-21533D02*
X49585Y-21533D01*
X54301Y-20143D02*
X54301Y-20514D01*
X54301Y-20514D02*
X53282Y-21533D01*
X47714Y-21614D02*
X46774Y-22554D01*
X46774Y-22554D02*
X46774Y-24266D01*
X46774Y-24266D02*
X47618Y-25110D01*
X47600Y-21500D02*
X47714Y-21614D01*
X49500Y-27700D02*
X49737Y-27700D01*
X48100Y-27600D02*
X49400Y-27600D01*
X49400Y-27600D02*
X49500Y-27700D01*
X49500Y-27700D02*
X49500Y-27800D01*
X53057Y-24380D02*
X53057Y-24229D01*
X49737Y-27700D02*
X53057Y-24380D01*
X52122Y-20464D02*
X53480Y-20464D01*
X56600Y-27100D02*
X56100Y-26600D01*
X51801Y-20143D02*
X52122Y-20464D01*
X47660Y-20558D02*
X47660Y-20284D01*
X47660Y-20284D02*
X47801Y-20143D01*
X47475Y-20743D02*
X47660Y-20558D01*
X47213Y-20743D02*
X47475Y-20743D01*
X45344Y-22612D02*
X47213Y-20743D01*
X45344Y-23844D02*
X45344Y-22612D01*
X47100Y-25600D02*
X45344Y-23844D01*
X53804Y-28696D02*
X52445Y-28696D01*
X52445Y-28696D02*
X50700Y-30441D01*
X50700Y-32800D02*
X50700Y-30441D01*
X54900Y-27600D02*
X53804Y-28696D01*
X56100Y-26600D02*
X54900Y-26600D01*
X53480Y-20464D02*
X53801Y-20143D01*
X49801Y-19643D02*
X50132Y-19312D01*
X50132Y-19312D02*
X51470Y-19312D01*
X51470Y-19312D02*
X51801Y-19643D01*
X47941Y-28476D02*
X48418Y-28476D01*
X47100Y-27600D02*
X47100Y-27635D01*
X50383Y-30441D02*
X50700Y-30441D01*
X47100Y-27635D02*
X47941Y-28476D01*
X48418Y-28476D02*
X50383Y-30441D01*
X56630Y-20999D02*
X55481Y-22148D01*
X56630Y-19410D02*
X56630Y-20999D01*
X56458Y-19238D02*
X56630Y-19410D01*
X53706Y-19238D02*
X56458Y-19238D01*
X53301Y-19643D02*
X53706Y-19238D01*
X55481Y-22148D02*
X51888Y-22148D01*
X51888Y-22148D02*
X49842Y-24194D01*
X49842Y-24194D02*
X48926Y-24194D01*
X50006Y-21024D02*
X50330Y-21348D01*
X53016Y-21348D02*
X53461Y-20903D01*
X50330Y-21348D02*
X53016Y-21348D01*
X51803Y-22622D02*
X55947Y-22622D01*
X49780Y-24645D02*
X51803Y-22622D01*
X48927Y-24645D02*
X49780Y-24645D01*
X48540Y-24258D02*
X48927Y-24645D01*
X49387Y-21786D02*
X50007Y-22406D01*
X50007Y-22406D02*
X50498Y-22406D01*
X50498Y-22406D02*
X50687Y-22217D01*
X50687Y-22217D02*
X50687Y-21921D01*
X50687Y-21921D02*
X50709Y-21899D01*
X50709Y-21899D02*
X51148Y-21899D01*
X51148Y-21899D02*
X51332Y-22083D01*
X48753Y-23828D02*
X48540Y-24041D01*
X48540Y-24041D02*
X48540Y-24258D01*
X55947Y-22622D02*
X56814Y-21755D01*
X56814Y-21755D02*
X56814Y-19076D01*
X56814Y-19076D02*
X56792Y-19054D01*
X56792Y-19054D02*
X52890Y-19054D01*
X52890Y-19054D02*
X52301Y-19643D01*
X49948Y-23828D02*
X48753Y-23828D01*
X51332Y-22444D02*
X49948Y-23828D01*
X51332Y-22083D02*
X51332Y-22444D01*
X50631Y-20813D02*
X51301Y-20143D01*
X50469Y-20813D02*
X50631Y-20813D01*
X48236Y-22940D02*
X47114Y-24062D01*
X50384Y-22940D02*
X48236Y-22940D01*
X47501Y-23317D02*
X48228Y-22590D01*
X48228Y-22590D02*
X50641Y-22590D01*
X47092Y-23317D02*
X47501Y-23317D01*
X50641Y-22590D02*
X51013Y-22218D01*
X55897Y-21281D02*
X55228Y-21950D01*
X55228Y-21950D02*
X51552Y-21950D01*
X50365Y-21961D02*
X50365Y-22087D01*
X50610Y-21716D02*
X50365Y-21961D01*
X51318Y-21716D02*
X50610Y-21716D01*
X51552Y-21950D02*
X51318Y-21716D01*
X51551Y-20727D02*
X52463Y-20727D01*
X52463Y-20727D02*
X52606Y-20870D01*
X49283Y-20143D02*
X48869Y-20557D01*
X48869Y-20557D02*
X48032Y-20557D01*
X49301Y-20143D02*
X49283Y-20143D01*
X47662Y-22535D02*
X48157Y-22040D01*
X48157Y-22040D02*
X48595Y-22040D01*
X47342Y-19457D02*
X47342Y-20425D01*
X47480Y-19319D02*
X47342Y-19457D01*
X47977Y-19319D02*
X47480Y-19319D01*
X48301Y-19643D02*
X47977Y-19319D01*
X46680Y-19135D02*
X48293Y-19135D01*
X45493Y-20322D02*
X46680Y-19135D01*
X49196Y-20679D02*
X48859Y-21016D01*
X48859Y-21016D02*
X47303Y-21016D01*
X48293Y-19135D02*
X48801Y-19643D01*
X45674Y-23084D02*
X45673Y-23084D01*
X45674Y-22645D02*
X45674Y-23084D01*
X47303Y-21016D02*
X45674Y-22645D01*
X51553Y-23321D02*
X51909Y-22965D01*
X51909Y-22965D02*
X54299Y-22965D01*
X54299Y-22965D02*
X55760Y-24426D01*
X53629Y-24641D02*
X53629Y-23832D01*
X53700Y-29200D02*
X53893Y-29200D01*
X55336Y-27757D02*
X55336Y-27188D01*
X55336Y-27188D02*
X55314Y-27166D01*
X55314Y-27166D02*
X54635Y-27166D01*
X53893Y-29200D02*
X55336Y-27757D01*
X54481Y-25493D02*
X53629Y-24641D01*
X54481Y-27012D02*
X54481Y-25493D01*
X54635Y-27166D02*
X54481Y-27012D01*
X51256Y-25302D02*
X53248Y-23310D01*
X51256Y-25792D02*
X51256Y-25302D01*
X46662Y-26188D02*
X46684Y-26166D01*
X46684Y-26166D02*
X48821Y-26166D01*
X48821Y-26166D02*
X49288Y-26633D01*
X49288Y-26633D02*
X50415Y-26633D01*
X50415Y-26633D02*
X51256Y-25792D01*
X46662Y-27919D02*
X46662Y-26188D01*
X47943Y-29200D02*
X46662Y-27919D01*
X48300Y-29200D02*
X47943Y-29200D01*
X49400Y-25600D02*
X50000Y-26200D01*
X48100Y-25600D02*
X49400Y-25600D01*
X47600Y-24446D02*
X48652Y-23394D01*
X47600Y-24500D02*
X47600Y-24446D01*
X53386Y-26086D02*
X53386Y-24079D01*
X53386Y-24079D02*
X53311Y-24004D01*
X53311Y-24004D02*
X53311Y-23700D01*
X53900Y-26600D02*
X53386Y-26086D01*
X53311Y-23700D02*
X53697Y-23314D01*
X53697Y-23314D02*
X54013Y-23314D01*
X54013Y-23314D02*
X54013Y-23313D01*
X51130Y-33370D02*
X51700Y-32800D01*
X48022Y-33370D02*
X51130Y-33370D01*
X48000Y-33392D02*
X48022Y-33370D01*
X48000Y-34100D02*
X48000Y-33392D01*
X52393Y-33492D02*
X51700Y-32800D01*
X52393Y-33492D02*
X52187Y-33698D01*
X54000Y-33911D02*
X54000Y-34100D01*
X53466Y-33377D02*
X54000Y-33911D01*
X52508Y-33377D02*
X53466Y-33377D01*
X52393Y-33492D02*
X52508Y-33377D01*
M02*
