G04 (created by PCBNEW-RS274X (2012-apr-16-27)-stable) date dim. 02 juin 2013 12:31:59 CST*
G01*
G70*
G90*
%MOIN*%
G04 Gerber Fmt 3.4, Leading zero omitted, Abs format*
%FSLAX34Y34*%
G04 APERTURE LIST*
%ADD10C,0.006000*%
%ADD11C,0.035400*%
%ADD12R,0.035400X0.035400*%
%ADD13C,0.137800*%
%ADD14C,0.055000*%
%ADD15R,0.031500X0.009800*%
%ADD16R,0.031500X0.009900*%
%ADD17R,0.009800X0.031500*%
%ADD18R,0.009900X0.031500*%
%ADD19R,0.030000X0.067500*%
%ADD20C,0.056000*%
%ADD21C,0.035000*%
%ADD22C,0.008000*%
G04 APERTURE END LIST*
G54D10*
G54D11*
X53187Y-34198D03*
X52687Y-34198D03*
X52187Y-34198D03*
X51687Y-34198D03*
X51187Y-34198D03*
X50687Y-34198D03*
X50187Y-34198D03*
X49687Y-34198D03*
X49187Y-34198D03*
X48687Y-34198D03*
X48687Y-33698D03*
X49187Y-33698D03*
X49687Y-33698D03*
X50187Y-33698D03*
X50687Y-33698D03*
X51187Y-33698D03*
X51687Y-33698D03*
X52187Y-33698D03*
X52687Y-33698D03*
X53187Y-33698D03*
G54D12*
X56301Y-20143D03*
G54D11*
X56301Y-19643D03*
X55801Y-20143D03*
X55801Y-19643D03*
X55301Y-20143D03*
X55301Y-19643D03*
X54801Y-20143D03*
X54801Y-19643D03*
X54301Y-20143D03*
X54301Y-19643D03*
X53801Y-20143D03*
X53801Y-19643D03*
X53301Y-20143D03*
X53301Y-19643D03*
X52801Y-20143D03*
X52801Y-19643D03*
X52301Y-20143D03*
X52301Y-19643D03*
X51801Y-20143D03*
X51801Y-19643D03*
X51301Y-20143D03*
X51301Y-19643D03*
X50801Y-20143D03*
X50801Y-19643D03*
X50301Y-20143D03*
X50301Y-19643D03*
X49801Y-20143D03*
X49801Y-19643D03*
X49301Y-20143D03*
X49301Y-19643D03*
X48801Y-20143D03*
X48801Y-19643D03*
X48301Y-20143D03*
X48301Y-19643D03*
X47801Y-20143D03*
X47801Y-19643D03*
G54D13*
X55380Y-33813D03*
G54D14*
X49500Y-27800D03*
X52500Y-27800D03*
X54000Y-34100D03*
X54000Y-31100D03*
X48000Y-34100D03*
X48000Y-31100D03*
X53700Y-30000D03*
X56700Y-30000D03*
X45300Y-29200D03*
X48300Y-29200D03*
X53700Y-29200D03*
X56700Y-29200D03*
X45300Y-30000D03*
X48300Y-30000D03*
X54400Y-24500D03*
X54400Y-21500D03*
X47600Y-24500D03*
X47600Y-21500D03*
G54D15*
X52613Y-22118D03*
G54D16*
X52613Y-22315D03*
X52613Y-22512D03*
X52613Y-22709D03*
G54D15*
X52613Y-22905D03*
X52613Y-23102D03*
X52613Y-23298D03*
X52613Y-23495D03*
G54D16*
X52613Y-23691D03*
X52613Y-23888D03*
X52613Y-24085D03*
G54D15*
X52613Y-24282D03*
G54D17*
X52082Y-24813D03*
G54D18*
X51885Y-24813D03*
X51688Y-24813D03*
X51491Y-24813D03*
G54D17*
X51295Y-24813D03*
X51098Y-24813D03*
X50902Y-24813D03*
X50705Y-24813D03*
G54D18*
X50509Y-24813D03*
X50312Y-24813D03*
X50115Y-24813D03*
G54D17*
X49918Y-24813D03*
G54D15*
X49387Y-22118D03*
G54D16*
X49387Y-22315D03*
X49387Y-22512D03*
X49387Y-22709D03*
G54D15*
X49387Y-22905D03*
X49387Y-23102D03*
X49387Y-23298D03*
X49387Y-23495D03*
G54D16*
X49387Y-23691D03*
X49387Y-23888D03*
X49387Y-24085D03*
G54D15*
X49387Y-24282D03*
G54D17*
X52082Y-21587D03*
G54D18*
X51885Y-21587D03*
X51688Y-21587D03*
X51491Y-21587D03*
G54D17*
X51295Y-21587D03*
X51098Y-21587D03*
X50902Y-21587D03*
X50705Y-21587D03*
G54D18*
X50509Y-21587D03*
X50312Y-21587D03*
X50115Y-21587D03*
G54D17*
X49918Y-21587D03*
G54D19*
X49250Y-31550D03*
X49750Y-31550D03*
X50250Y-31550D03*
X50750Y-31550D03*
X51250Y-31550D03*
X51750Y-31550D03*
X52250Y-31550D03*
X52750Y-31550D03*
X52750Y-28850D03*
X52250Y-28850D03*
X51750Y-28850D03*
X51250Y-28850D03*
X50750Y-28850D03*
X50250Y-28850D03*
X49750Y-28850D03*
X49250Y-28850D03*
G54D20*
X50000Y-26200D03*
X52000Y-26200D03*
G54D14*
X51700Y-32800D03*
X50700Y-32800D03*
X54900Y-25600D03*
X53900Y-25600D03*
X47100Y-25600D03*
X48100Y-25600D03*
X56600Y-28100D03*
X56600Y-27100D03*
X45400Y-28100D03*
X45400Y-27100D03*
X53900Y-27600D03*
X54900Y-27600D03*
X53900Y-26600D03*
X54900Y-26600D03*
X48100Y-27600D03*
X47100Y-27600D03*
X48100Y-26600D03*
X47100Y-26600D03*
G54D21*
X50501Y-25590D03*
X53057Y-24229D03*
X48926Y-24194D03*
X50006Y-21024D03*
X53461Y-20903D03*
X49387Y-21786D03*
X50469Y-20813D03*
X47114Y-24062D03*
X50384Y-22940D03*
X51013Y-22218D03*
X47092Y-23317D03*
X50365Y-22087D03*
X55897Y-21281D03*
X51551Y-20727D03*
X52606Y-20870D03*
X48032Y-20557D03*
X47662Y-22535D03*
X47342Y-20425D03*
X48595Y-22040D03*
X45493Y-20322D03*
X45673Y-23084D03*
X49196Y-20679D03*
X51553Y-23321D03*
X55760Y-24426D03*
X53629Y-23832D03*
X53248Y-23310D03*
X48652Y-23394D03*
X54013Y-23313D03*
G54D22*
X49902Y-22100D02*
X49902Y-22887D01*
X49903Y-22100D02*
X49902Y-22100D01*
X49086Y-23102D02*
X48940Y-23102D01*
X49237Y-23102D02*
X49387Y-23102D01*
X49902Y-22887D02*
X49687Y-23102D01*
X48940Y-23102D02*
X47600Y-21762D01*
X49387Y-23102D02*
X49687Y-23102D01*
X47600Y-21762D02*
X47600Y-21500D01*
X50501Y-25590D02*
X50705Y-25386D01*
X50115Y-21888D02*
X49903Y-22100D01*
X50705Y-25386D02*
X50705Y-24813D01*
X50115Y-21587D02*
X50115Y-21888D01*
X54301Y-19643D02*
X54301Y-20143D01*
X49237Y-23102D02*
X49086Y-23102D01*
X52913Y-24085D02*
X52913Y-24204D01*
X52835Y-24282D02*
X52740Y-24282D01*
X52913Y-24204D02*
X52835Y-24282D01*
X48100Y-26600D02*
X48100Y-27600D01*
X49750Y-28369D02*
X49750Y-28850D01*
X49500Y-27800D02*
X49750Y-28050D01*
X49750Y-28050D02*
X49750Y-28369D01*
X49750Y-28369D02*
X52250Y-28369D01*
X52250Y-28850D02*
X52250Y-28369D01*
X53032Y-24204D02*
X53057Y-24229D01*
X52613Y-24282D02*
X52740Y-24282D01*
X52613Y-24085D02*
X52913Y-24085D01*
X52913Y-24204D02*
X53032Y-24204D01*
X52664Y-24815D02*
X52312Y-24463D01*
X53801Y-20143D02*
X53801Y-19643D01*
X53572Y-24334D02*
X53091Y-24815D01*
X52613Y-23298D02*
X52463Y-23298D01*
X47100Y-27100D02*
X45400Y-27100D01*
X52613Y-23495D02*
X52312Y-23495D01*
X54508Y-25138D02*
X53417Y-25138D01*
X53417Y-25138D02*
X53252Y-25303D01*
X53252Y-25303D02*
X51710Y-25303D01*
X51710Y-25303D02*
X51688Y-25281D01*
X51688Y-24513D02*
X51688Y-24813D01*
X51688Y-21888D02*
X51871Y-22071D01*
X51871Y-22071D02*
X51871Y-24330D01*
X51871Y-24330D02*
X51688Y-24513D01*
X51295Y-24513D02*
X51688Y-24513D01*
X52613Y-22512D02*
X52312Y-22512D01*
X53954Y-24334D02*
X53572Y-24334D01*
X52312Y-23271D02*
X52312Y-22512D01*
X52339Y-23298D02*
X52312Y-23271D01*
X52463Y-23298D02*
X52339Y-23298D01*
X52339Y-23298D02*
X52312Y-23325D01*
X52312Y-23325D02*
X52312Y-23495D01*
X54508Y-25138D02*
X55062Y-24584D01*
X55062Y-24584D02*
X55062Y-24552D01*
X55062Y-24552D02*
X54568Y-24058D01*
X54568Y-24058D02*
X54230Y-24058D01*
X54230Y-24058D02*
X53954Y-24334D01*
X47100Y-27100D02*
X47100Y-26600D01*
X50312Y-24813D02*
X50312Y-24559D01*
X51295Y-24813D02*
X51295Y-24513D01*
X54900Y-26600D02*
X54900Y-25600D01*
X47100Y-26600D02*
X47100Y-25600D01*
X51688Y-21587D02*
X51688Y-21287D01*
X52312Y-24463D02*
X52312Y-23495D01*
X53091Y-24815D02*
X52664Y-24815D01*
X47100Y-27600D02*
X47100Y-27100D01*
X49801Y-19643D02*
X49801Y-20143D01*
X51688Y-25281D02*
X51688Y-24813D01*
X51801Y-19643D02*
X51801Y-20143D01*
X54900Y-27600D02*
X54900Y-26600D01*
X50312Y-24513D02*
X51295Y-24513D01*
X54508Y-25138D02*
X54508Y-25208D01*
X54508Y-25208D02*
X54900Y-25600D01*
X51688Y-21287D02*
X51869Y-21106D01*
X51869Y-21106D02*
X51869Y-20211D01*
X51869Y-20211D02*
X51801Y-20143D01*
X50312Y-24316D02*
X50312Y-24513D01*
X51688Y-21587D02*
X51688Y-21888D01*
X49387Y-23691D02*
X49687Y-23691D01*
X49687Y-23691D02*
X50312Y-24316D01*
X50312Y-24559D02*
X50312Y-24513D01*
X48926Y-24194D02*
X49014Y-24282D01*
X49014Y-24282D02*
X49387Y-24282D01*
X49387Y-24085D02*
X49687Y-24085D01*
X47670Y-19643D02*
X47801Y-19643D01*
X46797Y-20516D02*
X47670Y-19643D01*
X46797Y-22276D02*
X46797Y-20516D01*
X47777Y-23256D02*
X46797Y-22276D01*
X47777Y-23515D02*
X47777Y-23256D01*
X48779Y-24517D02*
X47777Y-23515D01*
X49593Y-24517D02*
X48779Y-24517D01*
X49687Y-24423D02*
X49593Y-24517D01*
X49687Y-24085D02*
X49687Y-24423D01*
X56771Y-20229D02*
X56097Y-20903D01*
X56771Y-19657D02*
X56771Y-20229D01*
X56097Y-20903D02*
X53461Y-20903D01*
X56436Y-19322D02*
X56771Y-19657D01*
X53122Y-19322D02*
X56436Y-19322D01*
X52801Y-19643D02*
X53122Y-19322D01*
X49918Y-21112D02*
X50006Y-21024D01*
X49918Y-21587D02*
X49918Y-21112D01*
X49387Y-22118D02*
X49387Y-21786D01*
X49081Y-27620D02*
X47475Y-29226D01*
X50509Y-24813D02*
X50509Y-25114D01*
X50509Y-25114D02*
X50431Y-25114D01*
X50431Y-25114D02*
X49081Y-26464D01*
X47475Y-29226D02*
X47475Y-31986D01*
X47475Y-31986D02*
X49187Y-33698D01*
X49081Y-26464D02*
X49081Y-27620D01*
X50469Y-21130D02*
X50469Y-20813D01*
X50312Y-21287D02*
X50469Y-21130D01*
X50312Y-21587D02*
X50312Y-21287D01*
X47211Y-18950D02*
X50108Y-18950D01*
X46176Y-19985D02*
X47211Y-18950D01*
X46176Y-23124D02*
X46176Y-19985D01*
X47114Y-24062D02*
X46176Y-23124D01*
X50705Y-21587D02*
X50705Y-21961D01*
X50705Y-21961D02*
X50694Y-21972D01*
X50694Y-21972D02*
X50694Y-22630D01*
X50108Y-18950D02*
X50801Y-19643D01*
X50694Y-22630D02*
X50384Y-22940D01*
X50902Y-20744D02*
X50301Y-20143D01*
X50902Y-21587D02*
X50902Y-20744D01*
X51098Y-20440D02*
X50801Y-20143D01*
X51098Y-21587D02*
X51098Y-20440D01*
X51295Y-21936D02*
X51013Y-22218D01*
X46360Y-20062D02*
X47288Y-19134D01*
X51295Y-21888D02*
X51295Y-21936D01*
X47092Y-23317D02*
X46360Y-22585D01*
X49792Y-19134D02*
X50301Y-19643D01*
X47288Y-19134D02*
X49792Y-19134D01*
X46360Y-22585D02*
X46360Y-20062D01*
X51295Y-21587D02*
X51295Y-21888D01*
X55980Y-21281D02*
X55897Y-21281D01*
X57097Y-20164D02*
X55980Y-21281D01*
X57097Y-19466D02*
X57097Y-20164D01*
X56738Y-19107D02*
X57097Y-19466D01*
X50365Y-22087D02*
X50509Y-21943D01*
X50509Y-21943D02*
X50509Y-21587D01*
X51301Y-19643D02*
X51837Y-19107D01*
X51837Y-19107D02*
X56738Y-19107D01*
X51491Y-20787D02*
X51551Y-20727D01*
X52606Y-20870D02*
X53301Y-20175D01*
X51491Y-21587D02*
X51491Y-20787D01*
X53301Y-20175D02*
X53301Y-20143D01*
X49059Y-23876D02*
X48685Y-23876D01*
X48685Y-23876D02*
X47980Y-23171D01*
X47980Y-23171D02*
X47980Y-22402D01*
X47980Y-22402D02*
X47795Y-22217D01*
X49387Y-23888D02*
X49071Y-23888D01*
X49071Y-23888D02*
X49059Y-23876D01*
X47795Y-22217D02*
X47702Y-22217D01*
X47702Y-22217D02*
X47163Y-21678D01*
X47163Y-21678D02*
X47163Y-21175D01*
X47163Y-21175D02*
X47781Y-20557D01*
X47781Y-20557D02*
X48032Y-20557D01*
X49387Y-22905D02*
X49086Y-22905D01*
X48388Y-20230D02*
X48301Y-20143D01*
X48388Y-21716D02*
X48388Y-20230D01*
X48277Y-21827D02*
X48388Y-21716D01*
X48277Y-22179D02*
X48277Y-21827D01*
X49003Y-22905D02*
X48277Y-22179D01*
X49086Y-22905D02*
X49003Y-22905D01*
X47662Y-22535D02*
X46980Y-21853D01*
X48595Y-22218D02*
X49086Y-22709D01*
X49387Y-22709D02*
X49086Y-22709D01*
X48595Y-22040D02*
X48595Y-22218D01*
X46980Y-20787D02*
X47342Y-20425D01*
X46980Y-21853D02*
X46980Y-20787D01*
X49387Y-22512D02*
X49687Y-22512D01*
X49705Y-21188D02*
X49196Y-20679D01*
X45493Y-20322D02*
X45493Y-22904D01*
X45493Y-22904D02*
X45673Y-23084D01*
X49687Y-22512D02*
X49705Y-22494D01*
X49705Y-22494D02*
X49705Y-21188D01*
X48801Y-21352D02*
X49069Y-21620D01*
X49069Y-21620D02*
X49069Y-22298D01*
X49387Y-22315D02*
X49086Y-22315D01*
X48801Y-20143D02*
X48801Y-21352D01*
X49069Y-22298D02*
X49086Y-22315D01*
X49918Y-24813D02*
X48753Y-24813D01*
X48976Y-19318D02*
X49301Y-19643D01*
X47470Y-19318D02*
X48976Y-19318D01*
X46613Y-20175D02*
X47470Y-19318D01*
X46613Y-22352D02*
X46613Y-20175D01*
X47483Y-23222D02*
X46613Y-22352D01*
X47483Y-23543D02*
X47483Y-23222D01*
X48753Y-24813D02*
X47483Y-23543D01*
X50115Y-24813D02*
X50115Y-25114D01*
X47151Y-32162D02*
X48687Y-33698D01*
X47151Y-29269D02*
X47151Y-32162D01*
X48681Y-27739D02*
X47151Y-29269D01*
X48681Y-26548D02*
X48681Y-27739D01*
X50115Y-25114D02*
X48681Y-26548D01*
X56078Y-24559D02*
X55989Y-24648D01*
X54210Y-22315D02*
X56078Y-24183D01*
X55989Y-24648D02*
X55989Y-30396D01*
X56078Y-24183D02*
X56078Y-24559D01*
X52613Y-22315D02*
X54210Y-22315D01*
X55989Y-30396D02*
X52687Y-33698D01*
X52082Y-21587D02*
X52082Y-21287D01*
X52082Y-20862D02*
X52082Y-21287D01*
X52801Y-20143D02*
X52082Y-20862D01*
X52653Y-33349D02*
X55760Y-30242D01*
X55760Y-30242D02*
X55760Y-24426D01*
X51687Y-33698D02*
X52036Y-33349D01*
X52036Y-33349D02*
X52653Y-33349D01*
X49387Y-23495D02*
X51379Y-23495D01*
X51379Y-23495D02*
X51553Y-23321D01*
X52613Y-22118D02*
X52913Y-22118D01*
X56172Y-30713D02*
X53187Y-33698D01*
X56172Y-24725D02*
X56172Y-30713D01*
X56261Y-24636D02*
X56172Y-24725D01*
X56261Y-24106D02*
X56261Y-24636D01*
X54273Y-22118D02*
X56261Y-24106D01*
X52913Y-22118D02*
X54273Y-22118D01*
X53700Y-30000D02*
X55348Y-28352D01*
X52420Y-30000D02*
X51750Y-29330D01*
X55348Y-28352D02*
X55348Y-24724D01*
X55348Y-24724D02*
X55259Y-24635D01*
X55259Y-24635D02*
X55259Y-24386D01*
X55259Y-24386D02*
X54747Y-23874D01*
X54747Y-23874D02*
X54154Y-23874D01*
X51750Y-28850D02*
X51750Y-29330D01*
X53700Y-30000D02*
X52420Y-30000D01*
X53168Y-23888D02*
X52613Y-23888D01*
X53431Y-24151D02*
X53168Y-23888D01*
X53877Y-24151D02*
X53431Y-24151D01*
X54154Y-23874D02*
X53877Y-24151D01*
X53488Y-23691D02*
X53629Y-23832D01*
X52750Y-29330D02*
X53570Y-29330D01*
X52613Y-23691D02*
X53488Y-23691D01*
X53570Y-29330D02*
X53700Y-29200D01*
X52750Y-28850D02*
X52750Y-29330D01*
X49250Y-29330D02*
X48430Y-29330D01*
X49250Y-28850D02*
X49250Y-29330D01*
X52613Y-23102D02*
X53040Y-23102D01*
X53040Y-23102D02*
X53248Y-23310D01*
X48430Y-29330D02*
X48300Y-29200D01*
X55442Y-24309D02*
X54819Y-23686D01*
X55442Y-24558D02*
X55442Y-24309D01*
X55531Y-24647D02*
X55442Y-24558D01*
X53307Y-22905D02*
X52613Y-22905D01*
X55531Y-28777D02*
X55531Y-24647D01*
X53890Y-30418D02*
X55531Y-28777D01*
X51326Y-30418D02*
X53890Y-30418D01*
X50250Y-29342D02*
X51326Y-30418D01*
X54819Y-23686D02*
X53934Y-23686D01*
X50250Y-28850D02*
X50250Y-29330D01*
X49592Y-30000D02*
X48300Y-30000D01*
X50250Y-29342D02*
X50250Y-29330D01*
X50250Y-29342D02*
X49592Y-30000D01*
X53683Y-23281D02*
X53307Y-22905D01*
X53683Y-23435D02*
X53683Y-23281D01*
X53934Y-23686D02*
X53683Y-23435D01*
X51187Y-33198D02*
X50687Y-33698D01*
X51187Y-32670D02*
X51187Y-33198D01*
X51750Y-32107D02*
X51187Y-32670D01*
X51750Y-31550D02*
X51750Y-32107D01*
X49750Y-31550D02*
X49750Y-31069D01*
X49750Y-31069D02*
X48031Y-31069D01*
X48031Y-31069D02*
X48000Y-31100D01*
X49250Y-33261D02*
X49687Y-33698D01*
X49250Y-31550D02*
X49250Y-33261D01*
X50902Y-25715D02*
X50902Y-24813D01*
X50417Y-26200D02*
X50902Y-25715D01*
X50000Y-26200D02*
X50417Y-26200D01*
X52082Y-22228D02*
X52810Y-21500D01*
X52082Y-24513D02*
X52082Y-22228D01*
X52082Y-24813D02*
X52082Y-24513D01*
X52810Y-21500D02*
X54400Y-21500D01*
X51885Y-24813D02*
X51885Y-25114D01*
X53053Y-25114D02*
X51885Y-25114D01*
X53559Y-24608D02*
X53053Y-25114D01*
X54292Y-24608D02*
X53559Y-24608D01*
X54400Y-24500D02*
X54292Y-24608D01*
X51605Y-33280D02*
X51187Y-33698D01*
X51844Y-33280D02*
X51605Y-33280D01*
X52750Y-32374D02*
X51844Y-33280D01*
X52750Y-31550D02*
X52750Y-32374D01*
X50187Y-32093D02*
X50187Y-33698D01*
X50250Y-32030D02*
X50187Y-32093D01*
X50250Y-31550D02*
X50250Y-32030D01*
X45300Y-28200D02*
X45300Y-29200D01*
X45300Y-30000D02*
X45300Y-29200D01*
X45400Y-28100D02*
X45300Y-28200D01*
X48748Y-23298D02*
X48652Y-23394D01*
X49387Y-23298D02*
X48748Y-23298D01*
X52613Y-22709D02*
X53409Y-22709D01*
X53409Y-22709D02*
X54013Y-23313D01*
X53900Y-26600D02*
X53900Y-27600D01*
X53900Y-27600D02*
X53700Y-27800D01*
X53700Y-27800D02*
X52500Y-27800D01*
X52000Y-25906D02*
X52000Y-26200D01*
X51890Y-25906D02*
X51098Y-25114D01*
X52000Y-25906D02*
X51890Y-25906D01*
X51098Y-24813D02*
X51098Y-25114D01*
X52306Y-25600D02*
X52000Y-25906D01*
X53900Y-25600D02*
X52306Y-25600D01*
X56700Y-29200D02*
X56700Y-30000D01*
X56600Y-28100D02*
X56700Y-28200D01*
X56700Y-28200D02*
X56700Y-29200D01*
X53969Y-31069D02*
X54000Y-31100D01*
X52250Y-31069D02*
X53969Y-31069D01*
X52250Y-31550D02*
X52250Y-31069D01*
M02*
