G04 (created by PCBNEW-RS274X (2012-apr-16-27)-stable) date dim. 02 juin 2013 12:31:59 CST*
G01*
G70*
G90*
%MOIN*%
G04 Gerber Fmt 3.4, Leading zero omitted, Abs format*
%FSLAX34Y34*%
G04 APERTURE LIST*
%ADD10C,0.006000*%
%ADD11C,0.010000*%
%ADD12C,0.000100*%
G04 APERTURE END LIST*
G54D10*
G54D11*
X52974Y-32124D02*
X52993Y-32143D01*
X53050Y-32162D01*
X53088Y-32162D01*
X53146Y-32143D01*
X53184Y-32105D01*
X53203Y-32067D01*
X53222Y-31990D01*
X53222Y-31933D01*
X53203Y-31857D01*
X53184Y-31819D01*
X53146Y-31781D01*
X53088Y-31762D01*
X53050Y-31762D01*
X52993Y-31781D01*
X52974Y-31800D01*
X52727Y-31762D02*
X52650Y-31762D01*
X52612Y-31781D01*
X52574Y-31819D01*
X52555Y-31895D01*
X52555Y-32029D01*
X52574Y-32105D01*
X52612Y-32143D01*
X52650Y-32162D01*
X52727Y-32162D01*
X52765Y-32143D01*
X52803Y-32105D01*
X52822Y-32029D01*
X52822Y-31895D01*
X52803Y-31819D01*
X52765Y-31781D01*
X52727Y-31762D01*
X52384Y-32162D02*
X52384Y-31762D01*
X52231Y-31762D01*
X52193Y-31781D01*
X52174Y-31800D01*
X52155Y-31838D01*
X52155Y-31895D01*
X52174Y-31933D01*
X52193Y-31952D01*
X52231Y-31971D01*
X52384Y-31971D01*
X52041Y-31762D02*
X51812Y-31762D01*
X51927Y-32162D02*
X51927Y-31762D01*
X51679Y-31952D02*
X51545Y-31952D01*
X51488Y-32162D02*
X51679Y-32162D01*
X51679Y-31762D01*
X51488Y-31762D01*
X51355Y-31762D02*
X51088Y-32162D01*
X51088Y-31762D02*
X51355Y-32162D01*
X50650Y-31800D02*
X50631Y-31781D01*
X50593Y-31762D01*
X50497Y-31762D01*
X50459Y-31781D01*
X50440Y-31800D01*
X50421Y-31838D01*
X50421Y-31876D01*
X50440Y-31933D01*
X50669Y-32162D01*
X50421Y-32162D01*
X50174Y-31762D02*
X50135Y-31762D01*
X50097Y-31781D01*
X50078Y-31800D01*
X50059Y-31838D01*
X50040Y-31914D01*
X50040Y-32010D01*
X50059Y-32086D01*
X50078Y-32124D01*
X50097Y-32143D01*
X50135Y-32162D01*
X50174Y-32162D01*
X50212Y-32143D01*
X50231Y-32124D01*
X50250Y-32086D01*
X50269Y-32010D01*
X50269Y-31914D01*
X50250Y-31838D01*
X50231Y-31800D01*
X50212Y-31781D01*
X50174Y-31762D01*
X49659Y-32162D02*
X49888Y-32162D01*
X49774Y-32162D02*
X49774Y-31762D01*
X49812Y-31819D01*
X49850Y-31857D01*
X49888Y-31876D01*
X49526Y-31762D02*
X49278Y-31762D01*
X49412Y-31914D01*
X49354Y-31914D01*
X49316Y-31933D01*
X49297Y-31952D01*
X49278Y-31990D01*
X49278Y-32086D01*
X49297Y-32124D01*
X49316Y-32143D01*
X49354Y-32162D01*
X49469Y-32162D01*
X49507Y-32143D01*
X49526Y-32124D01*
X56318Y-22662D02*
X56318Y-22262D01*
X56165Y-22262D01*
X56127Y-22281D01*
X56108Y-22300D01*
X56089Y-22338D01*
X56089Y-22395D01*
X56108Y-22433D01*
X56127Y-22452D01*
X56165Y-22471D01*
X56318Y-22471D01*
X55918Y-22662D02*
X55918Y-22262D01*
X55918Y-22452D02*
X55689Y-22452D01*
X55689Y-22662D02*
X55689Y-22262D01*
X55423Y-22471D02*
X55423Y-22662D01*
X55556Y-22262D02*
X55423Y-22471D01*
X55289Y-22262D01*
X54870Y-22548D02*
X54679Y-22548D01*
X54908Y-22662D02*
X54775Y-22262D01*
X54641Y-22662D01*
X54508Y-22662D02*
X54508Y-22262D01*
X54413Y-22262D01*
X54355Y-22281D01*
X54317Y-22319D01*
X54298Y-22357D01*
X54279Y-22433D01*
X54279Y-22490D01*
X54298Y-22567D01*
X54317Y-22605D01*
X54355Y-22643D01*
X54413Y-22662D01*
X54508Y-22662D01*
X54127Y-22548D02*
X53936Y-22548D01*
X54165Y-22662D02*
X54032Y-22262D01*
X53898Y-22662D01*
X53765Y-22662D02*
X53765Y-22262D01*
X53612Y-22262D01*
X53574Y-22281D01*
X53555Y-22300D01*
X53536Y-22338D01*
X53536Y-22395D01*
X53555Y-22433D01*
X53574Y-22452D01*
X53612Y-22471D01*
X53765Y-22471D01*
X53422Y-22262D02*
X53193Y-22262D01*
X53308Y-22662D02*
X53308Y-22262D01*
X53060Y-22452D02*
X52926Y-22452D01*
X52869Y-22662D02*
X53060Y-22662D01*
X53060Y-22262D01*
X52869Y-22262D01*
X52469Y-22662D02*
X52603Y-22471D01*
X52698Y-22662D02*
X52698Y-22262D01*
X52545Y-22262D01*
X52507Y-22281D01*
X52488Y-22300D01*
X52469Y-22338D01*
X52469Y-22395D01*
X52488Y-22433D01*
X52507Y-22452D01*
X52545Y-22471D01*
X52698Y-22471D01*
X51859Y-22452D02*
X51993Y-22452D01*
X51993Y-22662D02*
X51993Y-22262D01*
X51802Y-22262D01*
X51574Y-22262D02*
X51497Y-22262D01*
X51459Y-22281D01*
X51421Y-22319D01*
X51402Y-22395D01*
X51402Y-22529D01*
X51421Y-22605D01*
X51459Y-22643D01*
X51497Y-22662D01*
X51574Y-22662D01*
X51612Y-22643D01*
X51650Y-22605D01*
X51669Y-22529D01*
X51669Y-22395D01*
X51650Y-22319D01*
X51612Y-22281D01*
X51574Y-22262D01*
X51002Y-22662D02*
X51136Y-22471D01*
X51231Y-22662D02*
X51231Y-22262D01*
X51078Y-22262D01*
X51040Y-22281D01*
X51021Y-22300D01*
X51002Y-22338D01*
X51002Y-22395D01*
X51021Y-22433D01*
X51040Y-22452D01*
X51078Y-22471D01*
X51231Y-22471D01*
X50297Y-22624D02*
X50316Y-22643D01*
X50373Y-22662D01*
X50411Y-22662D01*
X50469Y-22643D01*
X50507Y-22605D01*
X50526Y-22567D01*
X50545Y-22490D01*
X50545Y-22433D01*
X50526Y-22357D01*
X50507Y-22319D01*
X50469Y-22281D01*
X50411Y-22262D01*
X50373Y-22262D01*
X50316Y-22281D01*
X50297Y-22300D01*
X50050Y-22262D02*
X49973Y-22262D01*
X49935Y-22281D01*
X49897Y-22319D01*
X49878Y-22395D01*
X49878Y-22529D01*
X49897Y-22605D01*
X49935Y-22643D01*
X49973Y-22662D01*
X50050Y-22662D01*
X50088Y-22643D01*
X50126Y-22605D01*
X50145Y-22529D01*
X50145Y-22395D01*
X50126Y-22319D01*
X50088Y-22281D01*
X50050Y-22262D01*
X49707Y-22662D02*
X49707Y-22262D01*
X49554Y-22262D01*
X49516Y-22281D01*
X49497Y-22300D01*
X49478Y-22338D01*
X49478Y-22395D01*
X49497Y-22433D01*
X49516Y-22452D01*
X49554Y-22471D01*
X49707Y-22471D01*
X49364Y-22262D02*
X49135Y-22262D01*
X49250Y-22662D02*
X49250Y-22262D01*
X49002Y-22452D02*
X48868Y-22452D01*
X48811Y-22662D02*
X49002Y-22662D01*
X49002Y-22262D01*
X48811Y-22262D01*
X48678Y-22262D02*
X48411Y-22662D01*
X48411Y-22262D02*
X48678Y-22662D01*
X47820Y-22452D02*
X47763Y-22471D01*
X47744Y-22490D01*
X47725Y-22529D01*
X47725Y-22586D01*
X47744Y-22624D01*
X47763Y-22643D01*
X47801Y-22662D01*
X47954Y-22662D01*
X47954Y-22262D01*
X47820Y-22262D01*
X47782Y-22281D01*
X47763Y-22300D01*
X47744Y-22338D01*
X47744Y-22376D01*
X47763Y-22414D01*
X47782Y-22433D01*
X47820Y-22452D01*
X47954Y-22452D01*
X47478Y-22262D02*
X47401Y-22262D01*
X47363Y-22281D01*
X47325Y-22319D01*
X47306Y-22395D01*
X47306Y-22529D01*
X47325Y-22605D01*
X47363Y-22643D01*
X47401Y-22662D01*
X47478Y-22662D01*
X47516Y-22643D01*
X47554Y-22605D01*
X47573Y-22529D01*
X47573Y-22395D01*
X47554Y-22319D01*
X47516Y-22281D01*
X47478Y-22262D01*
X47154Y-22548D02*
X46963Y-22548D01*
X47192Y-22662D02*
X47059Y-22262D01*
X46925Y-22662D01*
X46563Y-22662D02*
X46697Y-22471D01*
X46792Y-22662D02*
X46792Y-22262D01*
X46639Y-22262D01*
X46601Y-22281D01*
X46582Y-22300D01*
X46563Y-22338D01*
X46563Y-22395D01*
X46582Y-22433D01*
X46601Y-22452D01*
X46639Y-22471D01*
X46792Y-22471D01*
X46392Y-22662D02*
X46392Y-22262D01*
X46297Y-22262D01*
X46239Y-22281D01*
X46201Y-22319D01*
X46182Y-22357D01*
X46163Y-22433D01*
X46163Y-22490D01*
X46182Y-22567D01*
X46201Y-22605D01*
X46239Y-22643D01*
X46297Y-22662D01*
X46392Y-22662D01*
X56662Y-23322D02*
X56796Y-23131D01*
X56891Y-23322D02*
X56891Y-22922D01*
X56738Y-22922D01*
X56700Y-22941D01*
X56681Y-22960D01*
X56662Y-22998D01*
X56662Y-23055D01*
X56681Y-23093D01*
X56700Y-23112D01*
X56738Y-23131D01*
X56891Y-23131D01*
X56434Y-23322D02*
X56472Y-23303D01*
X56491Y-23284D01*
X56510Y-23246D01*
X56510Y-23131D01*
X56491Y-23093D01*
X56472Y-23074D01*
X56434Y-23055D01*
X56376Y-23055D01*
X56338Y-23074D01*
X56319Y-23093D01*
X56300Y-23131D01*
X56300Y-23246D01*
X56319Y-23284D01*
X56338Y-23303D01*
X56376Y-23322D01*
X56434Y-23322D01*
X56072Y-23322D02*
X56110Y-23303D01*
X56129Y-23284D01*
X56148Y-23246D01*
X56148Y-23131D01*
X56129Y-23093D01*
X56110Y-23074D01*
X56072Y-23055D01*
X56014Y-23055D01*
X55976Y-23074D01*
X55957Y-23093D01*
X55938Y-23131D01*
X55938Y-23246D01*
X55957Y-23284D01*
X55976Y-23303D01*
X56014Y-23322D01*
X56072Y-23322D01*
X55786Y-23303D02*
X55748Y-23322D01*
X55672Y-23322D01*
X55633Y-23303D01*
X55614Y-23265D01*
X55614Y-23246D01*
X55633Y-23208D01*
X55672Y-23189D01*
X55729Y-23189D01*
X55767Y-23170D01*
X55786Y-23131D01*
X55786Y-23112D01*
X55767Y-23074D01*
X55729Y-23055D01*
X55672Y-23055D01*
X55633Y-23074D01*
X55290Y-23303D02*
X55328Y-23322D01*
X55405Y-23322D01*
X55443Y-23303D01*
X55462Y-23265D01*
X55462Y-23112D01*
X55443Y-23074D01*
X55405Y-23055D01*
X55328Y-23055D01*
X55290Y-23074D01*
X55271Y-23112D01*
X55271Y-23150D01*
X55462Y-23189D01*
X55100Y-23322D02*
X55100Y-23055D01*
X55100Y-23093D02*
X55081Y-23074D01*
X55043Y-23055D01*
X54985Y-23055D01*
X54947Y-23074D01*
X54928Y-23112D01*
X54928Y-23322D01*
X54928Y-23112D02*
X54909Y-23074D01*
X54871Y-23055D01*
X54814Y-23055D01*
X54776Y-23074D01*
X54757Y-23112D01*
X54757Y-23322D01*
X54567Y-23322D02*
X54567Y-22922D01*
X54567Y-23074D02*
X54529Y-23055D01*
X54452Y-23055D01*
X54414Y-23074D01*
X54395Y-23093D01*
X54376Y-23131D01*
X54376Y-23246D01*
X54395Y-23284D01*
X54414Y-23303D01*
X54452Y-23322D01*
X54529Y-23322D01*
X54567Y-23303D01*
X54052Y-23303D02*
X54090Y-23322D01*
X54167Y-23322D01*
X54205Y-23303D01*
X54224Y-23265D01*
X54224Y-23112D01*
X54205Y-23074D01*
X54167Y-23055D01*
X54090Y-23055D01*
X54052Y-23074D01*
X54033Y-23112D01*
X54033Y-23150D01*
X54224Y-23189D01*
X53862Y-23322D02*
X53862Y-23055D01*
X53862Y-23131D02*
X53843Y-23093D01*
X53824Y-23074D01*
X53786Y-23055D01*
X53747Y-23055D01*
X53671Y-23055D02*
X53519Y-23055D01*
X53614Y-22922D02*
X53614Y-23265D01*
X53595Y-23303D01*
X53557Y-23322D01*
X53519Y-23322D01*
X53385Y-23322D02*
X53385Y-22922D01*
X53213Y-23322D02*
X53213Y-23112D01*
X53232Y-23074D01*
X53270Y-23055D01*
X53328Y-23055D01*
X53366Y-23074D01*
X53385Y-23093D01*
X52737Y-23208D02*
X52546Y-23208D01*
X52775Y-23322D02*
X52642Y-22922D01*
X52508Y-23322D01*
X52375Y-23055D02*
X52375Y-23322D01*
X52375Y-23093D02*
X52356Y-23074D01*
X52318Y-23055D01*
X52260Y-23055D01*
X52222Y-23074D01*
X52203Y-23112D01*
X52203Y-23322D01*
X51841Y-23055D02*
X51841Y-23379D01*
X51860Y-23417D01*
X51879Y-23436D01*
X51918Y-23455D01*
X51975Y-23455D01*
X52013Y-23436D01*
X51841Y-23303D02*
X51879Y-23322D01*
X51956Y-23322D01*
X51994Y-23303D01*
X52013Y-23284D01*
X52032Y-23246D01*
X52032Y-23131D01*
X52013Y-23093D01*
X51994Y-23074D01*
X51956Y-23055D01*
X51879Y-23055D01*
X51841Y-23074D01*
X51498Y-23303D02*
X51536Y-23322D01*
X51613Y-23322D01*
X51651Y-23303D01*
X51670Y-23265D01*
X51670Y-23112D01*
X51651Y-23074D01*
X51613Y-23055D01*
X51536Y-23055D01*
X51498Y-23074D01*
X51479Y-23112D01*
X51479Y-23150D01*
X51670Y-23189D01*
X51251Y-23322D02*
X51289Y-23303D01*
X51308Y-23265D01*
X51308Y-22922D01*
X50793Y-23322D02*
X50793Y-22922D01*
X50640Y-22922D01*
X50602Y-22941D01*
X50583Y-22960D01*
X50564Y-22998D01*
X50564Y-23055D01*
X50583Y-23093D01*
X50602Y-23112D01*
X50640Y-23131D01*
X50793Y-23131D01*
X50221Y-23322D02*
X50221Y-23112D01*
X50240Y-23074D01*
X50278Y-23055D01*
X50355Y-23055D01*
X50393Y-23074D01*
X50221Y-23303D02*
X50259Y-23322D01*
X50355Y-23322D01*
X50393Y-23303D01*
X50412Y-23265D01*
X50412Y-23227D01*
X50393Y-23189D01*
X50355Y-23170D01*
X50259Y-23170D01*
X50221Y-23150D01*
X49974Y-23322D02*
X50012Y-23303D01*
X50031Y-23265D01*
X50031Y-22922D01*
X49649Y-23322D02*
X49649Y-23112D01*
X49668Y-23074D01*
X49706Y-23055D01*
X49783Y-23055D01*
X49821Y-23074D01*
X49649Y-23303D02*
X49687Y-23322D01*
X49783Y-23322D01*
X49821Y-23303D01*
X49840Y-23265D01*
X49840Y-23227D01*
X49821Y-23189D01*
X49783Y-23170D01*
X49687Y-23170D01*
X49649Y-23150D01*
X49287Y-23303D02*
X49325Y-23322D01*
X49402Y-23322D01*
X49440Y-23303D01*
X49459Y-23284D01*
X49478Y-23246D01*
X49478Y-23131D01*
X49459Y-23093D01*
X49440Y-23074D01*
X49402Y-23055D01*
X49325Y-23055D01*
X49287Y-23074D01*
X49116Y-23322D02*
X49116Y-23055D01*
X49116Y-22922D02*
X49135Y-22941D01*
X49116Y-22960D01*
X49097Y-22941D01*
X49116Y-22922D01*
X49116Y-22960D01*
X48869Y-23322D02*
X48907Y-23303D01*
X48926Y-23284D01*
X48945Y-23246D01*
X48945Y-23131D01*
X48926Y-23093D01*
X48907Y-23074D01*
X48869Y-23055D01*
X48811Y-23055D01*
X48773Y-23074D01*
X48754Y-23093D01*
X48735Y-23131D01*
X48735Y-23246D01*
X48754Y-23284D01*
X48773Y-23303D01*
X48811Y-23322D01*
X48869Y-23322D01*
X48583Y-23303D02*
X48545Y-23322D01*
X48469Y-23322D01*
X48430Y-23303D01*
X48411Y-23265D01*
X48411Y-23246D01*
X48430Y-23208D01*
X48469Y-23189D01*
X48526Y-23189D01*
X48564Y-23170D01*
X48583Y-23131D01*
X48583Y-23112D01*
X48564Y-23074D01*
X48526Y-23055D01*
X48469Y-23055D01*
X48430Y-23074D01*
X47992Y-22922D02*
X47859Y-23322D01*
X47725Y-22922D01*
X47420Y-23322D02*
X47420Y-23112D01*
X47439Y-23074D01*
X47477Y-23055D01*
X47554Y-23055D01*
X47592Y-23074D01*
X47420Y-23303D02*
X47458Y-23322D01*
X47554Y-23322D01*
X47592Y-23303D01*
X47611Y-23265D01*
X47611Y-23227D01*
X47592Y-23189D01*
X47554Y-23170D01*
X47458Y-23170D01*
X47420Y-23150D01*
X47173Y-23322D02*
X47211Y-23303D01*
X47230Y-23265D01*
X47230Y-22922D01*
X47058Y-23055D02*
X46963Y-23322D01*
X46867Y-23055D01*
X46562Y-23303D02*
X46600Y-23322D01*
X46677Y-23322D01*
X46715Y-23303D01*
X46734Y-23265D01*
X46734Y-23112D01*
X46715Y-23074D01*
X46677Y-23055D01*
X46600Y-23055D01*
X46562Y-23074D01*
X46543Y-23112D01*
X46543Y-23150D01*
X46734Y-23189D01*
X46372Y-23322D02*
X46372Y-23055D01*
X46372Y-23131D02*
X46353Y-23093D01*
X46334Y-23074D01*
X46296Y-23055D01*
X46257Y-23055D01*
X45952Y-23322D02*
X45952Y-22922D01*
X45952Y-23303D02*
X45990Y-23322D01*
X46067Y-23322D01*
X46105Y-23303D01*
X46124Y-23284D01*
X46143Y-23246D01*
X46143Y-23131D01*
X46124Y-23093D01*
X46105Y-23074D01*
X46067Y-23055D01*
X45990Y-23055D01*
X45952Y-23074D01*
X45609Y-23303D02*
X45647Y-23322D01*
X45724Y-23322D01*
X45762Y-23303D01*
X45781Y-23265D01*
X45781Y-23112D01*
X45762Y-23074D01*
X45724Y-23055D01*
X45647Y-23055D01*
X45609Y-23074D01*
X45590Y-23112D01*
X45590Y-23150D01*
X45781Y-23189D01*
X52850Y-23944D02*
X52869Y-23963D01*
X52926Y-23982D01*
X52964Y-23982D01*
X53022Y-23963D01*
X53060Y-23925D01*
X53079Y-23887D01*
X53098Y-23810D01*
X53098Y-23753D01*
X53079Y-23677D01*
X53060Y-23639D01*
X53022Y-23601D01*
X52964Y-23582D01*
X52926Y-23582D01*
X52869Y-23601D01*
X52850Y-23620D01*
X52622Y-23982D02*
X52660Y-23963D01*
X52679Y-23944D01*
X52698Y-23906D01*
X52698Y-23791D01*
X52679Y-23753D01*
X52660Y-23734D01*
X52622Y-23715D01*
X52564Y-23715D01*
X52526Y-23734D01*
X52507Y-23753D01*
X52488Y-23791D01*
X52488Y-23906D01*
X52507Y-23944D01*
X52526Y-23963D01*
X52564Y-23982D01*
X52622Y-23982D01*
X52317Y-23715D02*
X52317Y-24115D01*
X52317Y-23734D02*
X52279Y-23715D01*
X52202Y-23715D01*
X52164Y-23734D01*
X52145Y-23753D01*
X52126Y-23791D01*
X52126Y-23906D01*
X52145Y-23944D01*
X52164Y-23963D01*
X52202Y-23982D01*
X52279Y-23982D01*
X52317Y-23963D01*
X52012Y-23715D02*
X51860Y-23715D01*
X51955Y-23582D02*
X51955Y-23925D01*
X51936Y-23963D01*
X51898Y-23982D01*
X51860Y-23982D01*
X51573Y-23963D02*
X51611Y-23982D01*
X51688Y-23982D01*
X51726Y-23963D01*
X51745Y-23925D01*
X51745Y-23772D01*
X51726Y-23734D01*
X51688Y-23715D01*
X51611Y-23715D01*
X51573Y-23734D01*
X51554Y-23772D01*
X51554Y-23810D01*
X51745Y-23849D01*
X51421Y-23982D02*
X51211Y-23715D01*
X51421Y-23715D02*
X51211Y-23982D01*
X50773Y-23620D02*
X50754Y-23601D01*
X50716Y-23582D01*
X50620Y-23582D01*
X50582Y-23601D01*
X50563Y-23620D01*
X50544Y-23658D01*
X50544Y-23696D01*
X50563Y-23753D01*
X50792Y-23982D01*
X50544Y-23982D01*
X50297Y-23582D02*
X50258Y-23582D01*
X50220Y-23601D01*
X50201Y-23620D01*
X50182Y-23658D01*
X50163Y-23734D01*
X50163Y-23830D01*
X50182Y-23906D01*
X50201Y-23944D01*
X50220Y-23963D01*
X50258Y-23982D01*
X50297Y-23982D01*
X50335Y-23963D01*
X50354Y-23944D01*
X50373Y-23906D01*
X50392Y-23830D01*
X50392Y-23734D01*
X50373Y-23658D01*
X50354Y-23620D01*
X50335Y-23601D01*
X50297Y-23582D01*
X49782Y-23982D02*
X50011Y-23982D01*
X49897Y-23982D02*
X49897Y-23582D01*
X49935Y-23639D01*
X49973Y-23677D01*
X50011Y-23696D01*
X49649Y-23582D02*
X49401Y-23582D01*
X49535Y-23734D01*
X49477Y-23734D01*
X49439Y-23753D01*
X49420Y-23772D01*
X49401Y-23810D01*
X49401Y-23906D01*
X49420Y-23944D01*
X49439Y-23963D01*
X49477Y-23982D01*
X49592Y-23982D01*
X49630Y-23963D01*
X49649Y-23944D01*
G54D12*
G36*
X49799Y-31866D02*
X49776Y-31867D01*
X49772Y-31867D01*
X49749Y-31866D01*
X49751Y-31861D01*
X49754Y-31860D01*
X49786Y-31857D01*
X49799Y-31860D01*
X49799Y-31866D01*
X49799Y-31866D01*
X49799Y-31866D01*
G37*
G36*
X50020Y-31863D02*
X50012Y-31870D01*
X50005Y-31863D01*
X50012Y-31856D01*
X50020Y-31863D01*
X50020Y-31863D01*
X50020Y-31863D01*
G37*
G36*
X50615Y-31860D02*
X50612Y-31869D01*
X50605Y-31870D01*
X50592Y-31865D01*
X50595Y-31860D01*
X50612Y-31858D01*
X50615Y-31860D01*
X50615Y-31860D01*
X50615Y-31860D01*
G37*
G36*
X50855Y-31861D02*
X50852Y-31868D01*
X50836Y-31869D01*
X50820Y-31866D01*
X50827Y-31860D01*
X50851Y-31858D01*
X50855Y-31861D01*
X50855Y-31861D01*
X50855Y-31861D01*
G37*
G36*
X51080Y-31861D02*
X51077Y-31868D01*
X51061Y-31869D01*
X51045Y-31866D01*
X51052Y-31860D01*
X51076Y-31858D01*
X51080Y-31861D01*
X51080Y-31861D01*
X51080Y-31861D01*
G37*
G36*
X51316Y-31866D02*
X51295Y-31868D01*
X51274Y-31866D01*
X51276Y-31860D01*
X51307Y-31858D01*
X51314Y-31860D01*
X51316Y-31866D01*
X51316Y-31866D01*
X51316Y-31866D01*
G37*
G36*
X51546Y-31861D02*
X51542Y-31868D01*
X51527Y-31869D01*
X51510Y-31866D01*
X51518Y-31860D01*
X51541Y-31858D01*
X51546Y-31861D01*
X51546Y-31861D01*
X51546Y-31861D01*
G37*
G36*
X51771Y-31860D02*
X51768Y-31869D01*
X51761Y-31870D01*
X51748Y-31865D01*
X51750Y-31860D01*
X51768Y-31858D01*
X51771Y-31860D01*
X51771Y-31860D01*
X51771Y-31860D01*
G37*
G36*
X52011Y-31861D02*
X52006Y-31868D01*
X51991Y-31869D01*
X51976Y-31866D01*
X51982Y-31860D01*
X52005Y-31858D01*
X52011Y-31861D01*
X52011Y-31861D01*
X52011Y-31861D01*
G37*
G36*
X53375Y-29104D02*
X53370Y-29138D01*
X53359Y-29153D01*
X53350Y-29159D01*
X53350Y-29118D01*
X53338Y-29097D01*
X53328Y-29095D01*
X53308Y-29107D01*
X53305Y-29118D01*
X53318Y-29138D01*
X53328Y-29140D01*
X53347Y-29128D01*
X53350Y-29118D01*
X53350Y-29159D01*
X53339Y-29168D01*
X53320Y-29167D01*
X53289Y-29151D01*
X53238Y-29133D01*
X53175Y-29125D01*
X53166Y-29125D01*
X53131Y-29126D01*
X53104Y-29130D01*
X53079Y-29142D01*
X53049Y-29165D01*
X53009Y-29204D01*
X52968Y-29244D01*
X52848Y-29363D01*
X52653Y-29372D01*
X52525Y-29378D01*
X52425Y-29384D01*
X52350Y-29390D01*
X52300Y-29398D01*
X52271Y-29405D01*
X52262Y-29411D01*
X52242Y-29422D01*
X52217Y-29425D01*
X52188Y-29432D01*
X52180Y-29445D01*
X52194Y-29460D01*
X52236Y-29472D01*
X52301Y-29483D01*
X52385Y-29492D01*
X52487Y-29498D01*
X52603Y-29501D01*
X52617Y-29501D01*
X52823Y-29503D01*
X52871Y-29554D01*
X52905Y-29584D01*
X52934Y-29599D01*
X52976Y-29605D01*
X53004Y-29605D01*
X53051Y-29606D01*
X53070Y-29612D01*
X53066Y-29620D01*
X53037Y-29629D01*
X52993Y-29634D01*
X52974Y-29634D01*
X52923Y-29630D01*
X52888Y-29614D01*
X52870Y-29597D01*
X52855Y-29582D01*
X52839Y-29572D01*
X52815Y-29566D01*
X52781Y-29561D01*
X52728Y-29561D01*
X52653Y-29560D01*
X52624Y-29560D01*
X52498Y-29561D01*
X52390Y-29568D01*
X52302Y-29577D01*
X52235Y-29588D01*
X52194Y-29604D01*
X52180Y-29621D01*
X52189Y-29642D01*
X52199Y-29645D01*
X52234Y-29648D01*
X52284Y-29657D01*
X52332Y-29669D01*
X52364Y-29680D01*
X52387Y-29686D01*
X52435Y-29690D01*
X52500Y-29693D01*
X52579Y-29695D01*
X52620Y-29695D01*
X52707Y-29695D01*
X52770Y-29696D01*
X52814Y-29698D01*
X52842Y-29704D01*
X52861Y-29711D01*
X52876Y-29723D01*
X52885Y-29732D01*
X52919Y-29759D01*
X52962Y-29769D01*
X52986Y-29769D01*
X53032Y-29765D01*
X53067Y-29753D01*
X53074Y-29749D01*
X53105Y-29734D01*
X53139Y-29742D01*
X53163Y-29770D01*
X53164Y-29772D01*
X53163Y-29809D01*
X53142Y-29834D01*
X53135Y-29836D01*
X53135Y-29776D01*
X53120Y-29760D01*
X53098Y-29762D01*
X53094Y-29766D01*
X53085Y-29789D01*
X53096Y-29811D01*
X53111Y-29815D01*
X53130Y-29805D01*
X53133Y-29798D01*
X53135Y-29776D01*
X53135Y-29836D01*
X53111Y-29844D01*
X53077Y-29834D01*
X53066Y-29823D01*
X53034Y-29806D01*
X52978Y-29800D01*
X52970Y-29800D01*
X52915Y-29795D01*
X52877Y-29780D01*
X52859Y-29766D01*
X52842Y-29752D01*
X52824Y-29743D01*
X52798Y-29738D01*
X52759Y-29735D01*
X52700Y-29735D01*
X52626Y-29737D01*
X52493Y-29741D01*
X52390Y-29746D01*
X52317Y-29754D01*
X52274Y-29764D01*
X52262Y-29771D01*
X52242Y-29782D01*
X52217Y-29785D01*
X52189Y-29790D01*
X52180Y-29800D01*
X52193Y-29812D01*
X52217Y-29815D01*
X52248Y-29820D01*
X52262Y-29829D01*
X52281Y-29839D01*
X52325Y-29848D01*
X52396Y-29855D01*
X52495Y-29862D01*
X52623Y-29868D01*
X52638Y-29868D01*
X52848Y-29877D01*
X53025Y-30064D01*
X53095Y-30136D01*
X53148Y-30187D01*
X53187Y-30222D01*
X53216Y-30242D01*
X53238Y-30250D01*
X53243Y-30251D01*
X53268Y-30253D01*
X53266Y-30261D01*
X53260Y-30265D01*
X53229Y-30278D01*
X53217Y-30280D01*
X53200Y-30270D01*
X53165Y-30242D01*
X53118Y-30200D01*
X53060Y-30147D01*
X53012Y-30099D01*
X52828Y-29918D01*
X52606Y-29920D01*
X52520Y-29922D01*
X52440Y-29925D01*
X52373Y-29931D01*
X52325Y-29936D01*
X52315Y-29938D01*
X52266Y-29948D01*
X52224Y-29954D01*
X52214Y-29956D01*
X52186Y-29967D01*
X52180Y-29982D01*
X52195Y-29997D01*
X52239Y-30012D01*
X52312Y-30024D01*
X52414Y-30036D01*
X52543Y-30045D01*
X52626Y-30049D01*
X52838Y-30059D01*
X52924Y-30147D01*
X52963Y-30188D01*
X52991Y-30221D01*
X53004Y-30240D01*
X53004Y-30242D01*
X52989Y-30237D01*
X52959Y-30215D01*
X52919Y-30182D01*
X52910Y-30174D01*
X52824Y-30097D01*
X52555Y-30102D01*
X52445Y-30106D01*
X52362Y-30110D01*
X52306Y-30116D01*
X52275Y-30123D01*
X52267Y-30127D01*
X52239Y-30142D01*
X52215Y-30146D01*
X52188Y-30151D01*
X52180Y-30160D01*
X52193Y-30172D01*
X52217Y-30175D01*
X52248Y-30181D01*
X52263Y-30191D01*
X52283Y-30201D01*
X52315Y-30205D01*
X52349Y-30210D01*
X52368Y-30220D01*
X52386Y-30226D01*
X52430Y-30230D01*
X52497Y-30234D01*
X52582Y-30236D01*
X52612Y-30236D01*
X52848Y-30236D01*
X52964Y-30362D01*
X53010Y-30413D01*
X53048Y-30455D01*
X53072Y-30486D01*
X53080Y-30498D01*
X53070Y-30493D01*
X53042Y-30471D01*
X53000Y-30435D01*
X52950Y-30389D01*
X52946Y-30386D01*
X52811Y-30263D01*
X52604Y-30267D01*
X52526Y-30269D01*
X52455Y-30273D01*
X52399Y-30277D01*
X52365Y-30282D01*
X52360Y-30282D01*
X52323Y-30293D01*
X52273Y-30308D01*
X52251Y-30313D01*
X52211Y-30327D01*
X52185Y-30343D01*
X52180Y-30350D01*
X52192Y-30361D01*
X52211Y-30360D01*
X52246Y-30362D01*
X52263Y-30371D01*
X52288Y-30380D01*
X52341Y-30387D01*
X52422Y-30393D01*
X52534Y-30399D01*
X52556Y-30400D01*
X52827Y-30410D01*
X52889Y-30472D01*
X52926Y-30513D01*
X52942Y-30535D01*
X52937Y-30540D01*
X52913Y-30525D01*
X52879Y-30497D01*
X52822Y-30445D01*
X52632Y-30453D01*
X52495Y-30461D01*
X52380Y-30470D01*
X52290Y-30480D01*
X52226Y-30493D01*
X52189Y-30507D01*
X52180Y-30519D01*
X52194Y-30539D01*
X52214Y-30545D01*
X52249Y-30551D01*
X52298Y-30560D01*
X52315Y-30563D01*
X52370Y-30572D01*
X52436Y-30579D01*
X52473Y-30579D01*
X52539Y-30582D01*
X52615Y-30586D01*
X52664Y-30590D01*
X52765Y-30599D01*
X52765Y-30746D01*
X52765Y-30892D01*
X52850Y-30984D01*
X52903Y-31038D01*
X52943Y-31067D01*
X52970Y-31075D01*
X53002Y-31084D01*
X53015Y-31100D01*
X53016Y-31136D01*
X52994Y-31163D01*
X52990Y-31164D01*
X52990Y-31128D01*
X52978Y-31108D01*
X52968Y-31105D01*
X52948Y-31118D01*
X52945Y-31128D01*
X52958Y-31147D01*
X52968Y-31150D01*
X52987Y-31138D01*
X52990Y-31128D01*
X52990Y-31164D01*
X52959Y-31173D01*
X52930Y-31164D01*
X52918Y-31136D01*
X52905Y-31107D01*
X52875Y-31065D01*
X52833Y-31016D01*
X52822Y-31005D01*
X52731Y-30912D01*
X52734Y-30788D01*
X52733Y-30728D01*
X52730Y-30678D01*
X52725Y-30647D01*
X52722Y-30642D01*
X52701Y-30633D01*
X52657Y-30629D01*
X52597Y-30629D01*
X52525Y-30633D01*
X52447Y-30640D01*
X52370Y-30649D01*
X52299Y-30660D01*
X52240Y-30673D01*
X52199Y-30687D01*
X52181Y-30700D01*
X52180Y-30702D01*
X52193Y-30713D01*
X52214Y-30715D01*
X52249Y-30723D01*
X52266Y-30732D01*
X52286Y-30739D01*
X52332Y-30746D01*
X52397Y-30752D01*
X52475Y-30758D01*
X52490Y-30759D01*
X52698Y-30768D01*
X52692Y-30951D01*
X52687Y-31136D01*
X52757Y-31218D01*
X52796Y-31265D01*
X52813Y-31291D01*
X52809Y-31296D01*
X52785Y-31280D01*
X52741Y-31242D01*
X52728Y-31230D01*
X52653Y-31161D01*
X52648Y-30991D01*
X52643Y-30821D01*
X52513Y-30822D01*
X52443Y-30823D01*
X52375Y-30828D01*
X52323Y-30834D01*
X52315Y-30835D01*
X52267Y-30844D01*
X52227Y-30851D01*
X52218Y-30853D01*
X52188Y-30869D01*
X52177Y-30885D01*
X52158Y-30906D01*
X52145Y-30911D01*
X52127Y-30923D01*
X52115Y-30952D01*
X52107Y-30993D01*
X52095Y-31045D01*
X52092Y-31060D01*
X52083Y-31114D01*
X52077Y-31180D01*
X52076Y-31222D01*
X52076Y-31316D01*
X52223Y-31316D01*
X52372Y-31316D01*
X52442Y-31398D01*
X52474Y-31438D01*
X52496Y-31467D01*
X52502Y-31480D01*
X52501Y-31480D01*
X52486Y-31471D01*
X52454Y-31447D01*
X52413Y-31414D01*
X52410Y-31411D01*
X52329Y-31343D01*
X52184Y-31348D01*
X52045Y-31353D01*
X52045Y-30790D01*
X52045Y-29890D01*
X52045Y-28990D01*
X51145Y-28990D01*
X50245Y-28990D01*
X50245Y-29890D01*
X50245Y-30790D01*
X51145Y-30790D01*
X52045Y-30790D01*
X52045Y-31353D01*
X52038Y-31353D01*
X52028Y-31233D01*
X52018Y-31136D01*
X52006Y-31066D01*
X51992Y-31020D01*
X51982Y-31005D01*
X51973Y-30976D01*
X51973Y-30954D01*
X51969Y-30925D01*
X51959Y-30914D01*
X51944Y-30921D01*
X51941Y-30951D01*
X51934Y-30989D01*
X51923Y-31012D01*
X51915Y-31035D01*
X51907Y-31085D01*
X51901Y-31161D01*
X51897Y-31257D01*
X51892Y-31354D01*
X51887Y-31424D01*
X51880Y-31468D01*
X51872Y-31489D01*
X51869Y-31492D01*
X51861Y-31487D01*
X51854Y-31463D01*
X51851Y-31418D01*
X51849Y-31347D01*
X51849Y-31328D01*
X51848Y-31250D01*
X51846Y-31196D01*
X51844Y-31161D01*
X51842Y-31137D01*
X51837Y-31120D01*
X51832Y-31105D01*
X51819Y-31065D01*
X51808Y-31009D01*
X51801Y-30956D01*
X51791Y-30927D01*
X51777Y-30918D01*
X51759Y-30930D01*
X51751Y-30956D01*
X51746Y-30991D01*
X51737Y-31042D01*
X51731Y-31083D01*
X51723Y-31137D01*
X51716Y-31210D01*
X51709Y-31290D01*
X51706Y-31335D01*
X51701Y-31399D01*
X51696Y-31452D01*
X51690Y-31486D01*
X51686Y-31496D01*
X51681Y-31481D01*
X51674Y-31443D01*
X51669Y-31386D01*
X51663Y-31317D01*
X51663Y-31312D01*
X51654Y-31196D01*
X51645Y-31096D01*
X51633Y-31015D01*
X51619Y-30956D01*
X51606Y-30921D01*
X51599Y-30914D01*
X51584Y-30921D01*
X51581Y-30951D01*
X51574Y-30989D01*
X51563Y-31012D01*
X51555Y-31035D01*
X51547Y-31085D01*
X51541Y-31161D01*
X51537Y-31257D01*
X51531Y-31358D01*
X51526Y-31429D01*
X51519Y-31473D01*
X51510Y-31491D01*
X51510Y-31491D01*
X51501Y-31485D01*
X51495Y-31457D01*
X51491Y-31406D01*
X51487Y-31327D01*
X51486Y-31305D01*
X51483Y-31226D01*
X51476Y-31152D01*
X51469Y-31092D01*
X51462Y-31053D01*
X51461Y-31053D01*
X51448Y-31005D01*
X51439Y-30963D01*
X51438Y-30957D01*
X51429Y-30923D01*
X51415Y-30914D01*
X51403Y-30929D01*
X51401Y-30951D01*
X51394Y-30989D01*
X51383Y-31012D01*
X51375Y-31035D01*
X51367Y-31085D01*
X51361Y-31162D01*
X51357Y-31259D01*
X51352Y-31348D01*
X51348Y-31412D01*
X51344Y-31453D01*
X51338Y-31477D01*
X51330Y-31487D01*
X51325Y-31488D01*
X51314Y-31482D01*
X51307Y-31462D01*
X51303Y-31424D01*
X51300Y-31361D01*
X51300Y-31345D01*
X51296Y-31250D01*
X51289Y-31157D01*
X51281Y-31074D01*
X51270Y-31002D01*
X51259Y-30948D01*
X51248Y-30917D01*
X51240Y-30911D01*
X51225Y-30923D01*
X51221Y-30952D01*
X51214Y-30990D01*
X51203Y-31012D01*
X51195Y-31035D01*
X51187Y-31085D01*
X51181Y-31161D01*
X51177Y-31257D01*
X51171Y-31360D01*
X51166Y-31432D01*
X51159Y-31476D01*
X51150Y-31491D01*
X51142Y-31484D01*
X51136Y-31454D01*
X51131Y-31400D01*
X51127Y-31319D01*
X51126Y-31298D01*
X51123Y-31199D01*
X51118Y-31126D01*
X51114Y-31074D01*
X51106Y-31037D01*
X51098Y-31011D01*
X51091Y-30999D01*
X51079Y-30966D01*
X51077Y-30949D01*
X51068Y-30922D01*
X51059Y-30914D01*
X51044Y-30921D01*
X51040Y-30951D01*
X51034Y-30989D01*
X51022Y-31012D01*
X51014Y-31035D01*
X51006Y-31085D01*
X51000Y-31161D01*
X50996Y-31257D01*
X50991Y-31358D01*
X50985Y-31429D01*
X50978Y-31473D01*
X50970Y-31491D01*
X50969Y-31491D01*
X50961Y-31485D01*
X50954Y-31457D01*
X50950Y-31405D01*
X50945Y-31326D01*
X50944Y-31305D01*
X50939Y-31197D01*
X50930Y-31101D01*
X50919Y-31020D01*
X50906Y-30959D01*
X50892Y-30921D01*
X50879Y-30911D01*
X50863Y-30923D01*
X50860Y-30941D01*
X50852Y-30979D01*
X50842Y-31005D01*
X50834Y-31032D01*
X50828Y-31083D01*
X50822Y-31152D01*
X50816Y-31234D01*
X50816Y-31262D01*
X50811Y-31361D01*
X50805Y-31432D01*
X50798Y-31475D01*
X50789Y-31491D01*
X50789Y-31491D01*
X50781Y-31485D01*
X50774Y-31457D01*
X50770Y-31405D01*
X50765Y-31326D01*
X50765Y-31305D01*
X50759Y-31194D01*
X50751Y-31097D01*
X50739Y-31017D01*
X50726Y-30957D01*
X50712Y-30921D01*
X50699Y-30911D01*
X50684Y-30923D01*
X50680Y-30952D01*
X50674Y-30989D01*
X50664Y-31010D01*
X50658Y-31029D01*
X50652Y-31071D01*
X50644Y-31131D01*
X50636Y-31202D01*
X50629Y-31278D01*
X50624Y-31352D01*
X50621Y-31417D01*
X50620Y-31447D01*
X50615Y-31473D01*
X50606Y-31480D01*
X50600Y-31466D01*
X50594Y-31428D01*
X50589Y-31371D01*
X50585Y-31300D01*
X50585Y-31290D01*
X50582Y-31201D01*
X50578Y-31138D01*
X50573Y-31092D01*
X50567Y-31056D01*
X50558Y-31026D01*
X50547Y-30996D01*
X50536Y-30961D01*
X50534Y-30938D01*
X50526Y-30919D01*
X50519Y-30915D01*
X50504Y-30921D01*
X50500Y-30951D01*
X50494Y-30989D01*
X50483Y-31011D01*
X50475Y-31033D01*
X50468Y-31079D01*
X50462Y-31143D01*
X50458Y-31206D01*
X50451Y-31383D01*
X50398Y-31438D01*
X50366Y-31469D01*
X50339Y-31485D01*
X50331Y-31486D01*
X50331Y-31470D01*
X50349Y-31444D01*
X50359Y-31434D01*
X50381Y-31407D01*
X50393Y-31383D01*
X50398Y-31349D01*
X50398Y-31297D01*
X50398Y-31281D01*
X50393Y-31191D01*
X50385Y-31106D01*
X50375Y-31030D01*
X50365Y-30969D01*
X50353Y-30928D01*
X50341Y-30911D01*
X50340Y-30911D01*
X50324Y-30923D01*
X50320Y-30952D01*
X50314Y-30990D01*
X50303Y-31011D01*
X50294Y-31034D01*
X50287Y-31082D01*
X50281Y-31150D01*
X50278Y-31218D01*
X50270Y-31406D01*
X50220Y-31451D01*
X50183Y-31478D01*
X50150Y-31494D01*
X50129Y-31497D01*
X50124Y-31489D01*
X50134Y-31476D01*
X50159Y-31450D01*
X50179Y-31429D01*
X50233Y-31374D01*
X50227Y-31211D01*
X50222Y-31126D01*
X50214Y-31065D01*
X50203Y-31026D01*
X50195Y-31010D01*
X50177Y-30972D01*
X50169Y-30941D01*
X50160Y-30916D01*
X50147Y-30911D01*
X50129Y-30898D01*
X50124Y-30879D01*
X50119Y-30858D01*
X50111Y-30857D01*
X50090Y-30858D01*
X50051Y-30851D01*
X50010Y-30840D01*
X49945Y-30825D01*
X49877Y-30813D01*
X49844Y-30809D01*
X49764Y-30803D01*
X49764Y-30983D01*
X49764Y-31164D01*
X49709Y-31216D01*
X49673Y-31247D01*
X49650Y-31261D01*
X49646Y-31255D01*
X49663Y-31232D01*
X49680Y-31213D01*
X49696Y-31195D01*
X49708Y-31176D01*
X49714Y-31151D01*
X49718Y-31115D01*
X49719Y-31060D01*
X49719Y-30982D01*
X49720Y-30910D01*
X49723Y-30849D01*
X49727Y-30805D01*
X49732Y-30785D01*
X49732Y-30785D01*
X49753Y-30779D01*
X49794Y-30774D01*
X49830Y-30770D01*
X49879Y-30765D01*
X49914Y-30759D01*
X49925Y-30755D01*
X49946Y-30748D01*
X49976Y-30745D01*
X50010Y-30741D01*
X50027Y-30731D01*
X50048Y-30720D01*
X50080Y-30715D01*
X50112Y-30712D01*
X50124Y-30702D01*
X50121Y-30694D01*
X50105Y-30687D01*
X50073Y-30678D01*
X50018Y-30667D01*
X49989Y-30661D01*
X49951Y-30652D01*
X49924Y-30643D01*
X49922Y-30642D01*
X49902Y-30639D01*
X49858Y-30635D01*
X49799Y-30633D01*
X49742Y-30633D01*
X49577Y-30633D01*
X49573Y-30816D01*
X49569Y-30999D01*
X49472Y-31085D01*
X49415Y-31139D01*
X49383Y-31180D01*
X49375Y-31205D01*
X49363Y-31240D01*
X49345Y-31252D01*
X49345Y-31202D01*
X49332Y-31182D01*
X49322Y-31181D01*
X49304Y-31191D01*
X49301Y-31215D01*
X49309Y-31230D01*
X49328Y-31234D01*
X49342Y-31217D01*
X49345Y-31202D01*
X49345Y-31252D01*
X49333Y-31259D01*
X49298Y-31254D01*
X49295Y-31254D01*
X49274Y-31227D01*
X49273Y-31195D01*
X49290Y-31166D01*
X49322Y-31151D01*
X49330Y-31150D01*
X49350Y-31140D01*
X49385Y-31113D01*
X49428Y-31074D01*
X49447Y-31056D01*
X49539Y-30962D01*
X49539Y-30780D01*
X49539Y-30599D01*
X49651Y-30588D01*
X49718Y-30584D01*
X49786Y-30581D01*
X49835Y-30581D01*
X49882Y-30581D01*
X49920Y-30579D01*
X49930Y-30576D01*
X49986Y-30561D01*
X50050Y-30549D01*
X50084Y-30545D01*
X50116Y-30535D01*
X50124Y-30519D01*
X50110Y-30506D01*
X50069Y-30492D01*
X50001Y-30480D01*
X49912Y-30469D01*
X49804Y-30460D01*
X49700Y-30454D01*
X49538Y-30447D01*
X49464Y-30514D01*
X49425Y-30547D01*
X49394Y-30571D01*
X49380Y-30580D01*
X49383Y-30570D01*
X49400Y-30545D01*
X49427Y-30512D01*
X49458Y-30477D01*
X49488Y-30446D01*
X49505Y-30431D01*
X49525Y-30417D01*
X49550Y-30408D01*
X49585Y-30403D01*
X49638Y-30400D01*
X49714Y-30399D01*
X49726Y-30399D01*
X49804Y-30399D01*
X49878Y-30394D01*
X49939Y-30389D01*
X49975Y-30383D01*
X50026Y-30372D01*
X50072Y-30366D01*
X50084Y-30365D01*
X50114Y-30358D01*
X50124Y-30345D01*
X50122Y-30336D01*
X50108Y-30328D01*
X50080Y-30320D01*
X50031Y-30309D01*
X49986Y-30301D01*
X49948Y-30291D01*
X49923Y-30282D01*
X49922Y-30282D01*
X49902Y-30277D01*
X49859Y-30273D01*
X49796Y-30270D01*
X49721Y-30268D01*
X49690Y-30267D01*
X49472Y-30264D01*
X49379Y-30358D01*
X49335Y-30408D01*
X49301Y-30452D01*
X49284Y-30485D01*
X49282Y-30490D01*
X49273Y-30517D01*
X49255Y-30525D01*
X49255Y-30483D01*
X49242Y-30463D01*
X49232Y-30461D01*
X49213Y-30472D01*
X49210Y-30483D01*
X49222Y-30503D01*
X49232Y-30506D01*
X49252Y-30493D01*
X49255Y-30483D01*
X49255Y-30525D01*
X49248Y-30527D01*
X49232Y-30528D01*
X49199Y-30524D01*
X49186Y-30504D01*
X49182Y-30487D01*
X49184Y-30456D01*
X49202Y-30442D01*
X49223Y-30436D01*
X49262Y-30417D01*
X49315Y-30375D01*
X49360Y-30331D01*
X49452Y-30236D01*
X49682Y-30236D01*
X49763Y-30235D01*
X49832Y-30232D01*
X49884Y-30228D01*
X49916Y-30225D01*
X49921Y-30222D01*
X49941Y-30210D01*
X49976Y-30201D01*
X49979Y-30201D01*
X50056Y-30185D01*
X50105Y-30173D01*
X50126Y-30161D01*
X50119Y-30151D01*
X50086Y-30141D01*
X50084Y-30140D01*
X50042Y-30132D01*
X49990Y-30120D01*
X49975Y-30117D01*
X49933Y-30111D01*
X49870Y-30106D01*
X49794Y-30102D01*
X49718Y-30101D01*
X49617Y-30100D01*
X49522Y-30096D01*
X49439Y-30092D01*
X49372Y-30086D01*
X49324Y-30080D01*
X49301Y-30073D01*
X49300Y-30071D01*
X49313Y-30066D01*
X49353Y-30063D01*
X49414Y-30058D01*
X49491Y-30055D01*
X49579Y-30051D01*
X49585Y-30050D01*
X49750Y-30044D01*
X49884Y-30035D01*
X49988Y-30024D01*
X50063Y-30011D01*
X50109Y-29996D01*
X50124Y-29979D01*
X50124Y-29979D01*
X50115Y-29960D01*
X50096Y-29960D01*
X50061Y-29959D01*
X50034Y-29950D01*
X50009Y-29944D01*
X49959Y-29937D01*
X49889Y-29930D01*
X49807Y-29922D01*
X49729Y-29918D01*
X49457Y-29904D01*
X49375Y-29823D01*
X49315Y-29771D01*
X49267Y-29741D01*
X49247Y-29735D01*
X49223Y-29732D01*
X49227Y-29729D01*
X49259Y-29727D01*
X49263Y-29727D01*
X49297Y-29728D01*
X49325Y-29738D01*
X49356Y-29760D01*
X49398Y-29801D01*
X49472Y-29877D01*
X49697Y-29869D01*
X49801Y-29865D01*
X49881Y-29860D01*
X49940Y-29855D01*
X49984Y-29848D01*
X50018Y-29839D01*
X50045Y-29827D01*
X50080Y-29818D01*
X50101Y-29821D01*
X50122Y-29819D01*
X50124Y-29807D01*
X50112Y-29789D01*
X50083Y-29785D01*
X50045Y-29778D01*
X50023Y-29767D01*
X49999Y-29759D01*
X49945Y-29751D01*
X49862Y-29746D01*
X49748Y-29741D01*
X49736Y-29741D01*
X49466Y-29732D01*
X49402Y-29661D01*
X49337Y-29590D01*
X49199Y-29590D01*
X49138Y-29591D01*
X49088Y-29596D01*
X49058Y-29601D01*
X49052Y-29605D01*
X49032Y-29616D01*
X49030Y-29616D01*
X49030Y-29568D01*
X49017Y-29547D01*
X49007Y-29545D01*
X48988Y-29557D01*
X48985Y-29568D01*
X48997Y-29588D01*
X49007Y-29590D01*
X49027Y-29578D01*
X49030Y-29568D01*
X49030Y-29616D01*
X49007Y-29620D01*
X48975Y-29608D01*
X48959Y-29580D01*
X48965Y-29547D01*
X48976Y-29533D01*
X48994Y-29518D01*
X49014Y-29518D01*
X49046Y-29534D01*
X49052Y-29536D01*
X49086Y-29551D01*
X49125Y-29558D01*
X49179Y-29559D01*
X49222Y-29557D01*
X49340Y-29550D01*
X49421Y-29623D01*
X49502Y-29696D01*
X49712Y-29691D01*
X49838Y-29686D01*
X49937Y-29676D01*
X50008Y-29660D01*
X50010Y-29660D01*
X50058Y-29648D01*
X50096Y-29642D01*
X50111Y-29643D01*
X50122Y-29638D01*
X50124Y-29624D01*
X50122Y-29609D01*
X50107Y-29599D01*
X50078Y-29591D01*
X50027Y-29584D01*
X49979Y-29578D01*
X49900Y-29570D01*
X49807Y-29562D01*
X49709Y-29556D01*
X49646Y-29553D01*
X49563Y-29549D01*
X49504Y-29544D01*
X49466Y-29537D01*
X49441Y-29527D01*
X49433Y-29521D01*
X49412Y-29496D01*
X49404Y-29480D01*
X49413Y-29478D01*
X49433Y-29491D01*
X49448Y-29501D01*
X49469Y-29508D01*
X49501Y-29512D01*
X49549Y-29512D01*
X49619Y-29510D01*
X49662Y-29508D01*
X49792Y-29501D01*
X49905Y-29492D01*
X49996Y-29481D01*
X50065Y-29471D01*
X50108Y-29458D01*
X50124Y-29445D01*
X50124Y-29445D01*
X50111Y-29430D01*
X50080Y-29425D01*
X50046Y-29420D01*
X50027Y-29410D01*
X50006Y-29399D01*
X49975Y-29395D01*
X49941Y-29390D01*
X49923Y-29381D01*
X49906Y-29376D01*
X49864Y-29372D01*
X49803Y-29368D01*
X49729Y-29366D01*
X49693Y-29365D01*
X49614Y-29364D01*
X49546Y-29361D01*
X49493Y-29356D01*
X49463Y-29352D01*
X49458Y-29349D01*
X49466Y-29344D01*
X49503Y-29339D01*
X49566Y-29336D01*
X49655Y-29335D01*
X49686Y-29335D01*
X49778Y-29334D01*
X49853Y-29331D01*
X49906Y-29327D01*
X49934Y-29322D01*
X49937Y-29320D01*
X49958Y-29309D01*
X49989Y-29305D01*
X50024Y-29300D01*
X50042Y-29290D01*
X50063Y-29278D01*
X50088Y-29275D01*
X50116Y-29268D01*
X50124Y-29255D01*
X50113Y-29240D01*
X50087Y-29241D01*
X50049Y-29239D01*
X50026Y-29228D01*
X50000Y-29219D01*
X49949Y-29211D01*
X49870Y-29206D01*
X49786Y-29202D01*
X49570Y-29196D01*
X49570Y-29006D01*
X49570Y-28816D01*
X49498Y-28745D01*
X49457Y-28709D01*
X49423Y-28684D01*
X49420Y-28682D01*
X49420Y-28623D01*
X49408Y-28602D01*
X49397Y-28600D01*
X49377Y-28612D01*
X49375Y-28623D01*
X49386Y-28643D01*
X49397Y-28645D01*
X49417Y-28633D01*
X49420Y-28623D01*
X49420Y-28682D01*
X49403Y-28675D01*
X49370Y-28661D01*
X49349Y-28631D01*
X49348Y-28604D01*
X49363Y-28583D01*
X49397Y-28578D01*
X49430Y-28582D01*
X49444Y-28601D01*
X49447Y-28618D01*
X49463Y-28657D01*
X49505Y-28705D01*
X49533Y-28730D01*
X49614Y-28800D01*
X49618Y-28974D01*
X49622Y-29147D01*
X49772Y-29143D01*
X49873Y-29138D01*
X49962Y-29129D01*
X50036Y-29119D01*
X50090Y-29106D01*
X50120Y-29093D01*
X50124Y-29084D01*
X50112Y-29070D01*
X50083Y-29065D01*
X50046Y-29059D01*
X50025Y-29049D01*
X50005Y-29041D01*
X49961Y-29033D01*
X49903Y-29026D01*
X49869Y-29023D01*
X49727Y-29012D01*
X49723Y-28863D01*
X49719Y-28788D01*
X49714Y-28738D01*
X49705Y-28706D01*
X49692Y-28684D01*
X49691Y-28683D01*
X49665Y-28651D01*
X49652Y-28630D01*
X49646Y-28616D01*
X49655Y-28620D01*
X49668Y-28629D01*
X49713Y-28664D01*
X49741Y-28691D01*
X49757Y-28721D01*
X49763Y-28761D01*
X49764Y-28820D01*
X49764Y-28842D01*
X49764Y-28975D01*
X49826Y-28975D01*
X49904Y-28967D01*
X49988Y-28948D01*
X50045Y-28926D01*
X50080Y-28918D01*
X50101Y-28920D01*
X50120Y-28919D01*
X50124Y-28899D01*
X50135Y-28875D01*
X50154Y-28870D01*
X50176Y-28862D01*
X50176Y-28849D01*
X50177Y-28822D01*
X50190Y-28785D01*
X50192Y-28780D01*
X50206Y-28740D01*
X50218Y-28683D01*
X50225Y-28631D01*
X50229Y-28577D01*
X50229Y-28546D01*
X50222Y-28531D01*
X50205Y-28524D01*
X50193Y-28521D01*
X50160Y-28517D01*
X50107Y-28514D01*
X50042Y-28512D01*
X50007Y-28511D01*
X49932Y-28508D01*
X49881Y-28502D01*
X49849Y-28493D01*
X49836Y-28484D01*
X49816Y-28460D01*
X49809Y-28445D01*
X49818Y-28442D01*
X49837Y-28455D01*
X49853Y-28465D01*
X49879Y-28472D01*
X49919Y-28477D01*
X49978Y-28479D01*
X50061Y-28480D01*
X50068Y-28480D01*
X50270Y-28480D01*
X50279Y-28617D01*
X50285Y-28679D01*
X50292Y-28731D01*
X50300Y-28763D01*
X50303Y-28770D01*
X50316Y-28796D01*
X50320Y-28828D01*
X50326Y-28859D01*
X50339Y-28869D01*
X50352Y-28856D01*
X50365Y-28817D01*
X50375Y-28759D01*
X50384Y-28686D01*
X50392Y-28603D01*
X50394Y-28517D01*
X50394Y-28491D01*
X50394Y-28360D01*
X50240Y-28360D01*
X50087Y-28360D01*
X49892Y-28165D01*
X49829Y-28103D01*
X49773Y-28049D01*
X49727Y-28006D01*
X49711Y-27993D01*
X49711Y-27926D01*
X49710Y-27908D01*
X49692Y-27898D01*
X49674Y-27903D01*
X49666Y-27920D01*
X49678Y-27937D01*
X49690Y-27940D01*
X49709Y-27929D01*
X49711Y-27926D01*
X49711Y-27993D01*
X49695Y-27979D01*
X49681Y-27970D01*
X49657Y-27959D01*
X49646Y-27949D01*
X49637Y-27918D01*
X49649Y-27887D01*
X49675Y-27867D01*
X49689Y-27865D01*
X49721Y-27876D01*
X49743Y-27901D01*
X49745Y-27930D01*
X49753Y-27948D01*
X49780Y-27984D01*
X49825Y-28034D01*
X49885Y-28097D01*
X49913Y-28125D01*
X50087Y-28300D01*
X50269Y-28300D01*
X50451Y-28300D01*
X50457Y-28524D01*
X50461Y-28625D01*
X50467Y-28700D01*
X50474Y-28748D01*
X50483Y-28771D01*
X50496Y-28804D01*
X50496Y-28832D01*
X50496Y-28861D01*
X50512Y-28869D01*
X50514Y-28870D01*
X50534Y-28859D01*
X50541Y-28826D01*
X50541Y-28823D01*
X50548Y-28783D01*
X50562Y-28755D01*
X50571Y-28728D01*
X50578Y-28673D01*
X50584Y-28590D01*
X50587Y-28524D01*
X50593Y-28314D01*
X50433Y-28151D01*
X50372Y-28089D01*
X50329Y-28044D01*
X50301Y-28011D01*
X50285Y-27986D01*
X50277Y-27965D01*
X50276Y-27942D01*
X50278Y-27923D01*
X50283Y-27858D01*
X50295Y-27917D01*
X50304Y-27945D01*
X50321Y-27974D01*
X50348Y-28008D01*
X50389Y-28052D01*
X50449Y-28111D01*
X50467Y-28129D01*
X50627Y-28281D01*
X50636Y-28516D01*
X50641Y-28614D01*
X50646Y-28690D01*
X50654Y-28742D01*
X50662Y-28768D01*
X50663Y-28769D01*
X50675Y-28796D01*
X50680Y-28828D01*
X50687Y-28860D01*
X50701Y-28870D01*
X50715Y-28859D01*
X50726Y-28824D01*
X50733Y-28772D01*
X50740Y-28721D01*
X50749Y-28682D01*
X50756Y-28666D01*
X50761Y-28649D01*
X50765Y-28607D01*
X50768Y-28547D01*
X50770Y-28472D01*
X50770Y-28437D01*
X50770Y-28217D01*
X50663Y-28112D01*
X50608Y-28055D01*
X50558Y-28004D01*
X50519Y-27959D01*
X50493Y-27927D01*
X50482Y-27908D01*
X50488Y-27906D01*
X50497Y-27913D01*
X50521Y-27932D01*
X50561Y-27968D01*
X50611Y-28015D01*
X50667Y-28068D01*
X50673Y-28075D01*
X50815Y-28212D01*
X50816Y-28432D01*
X50816Y-28517D01*
X50820Y-28597D01*
X50825Y-28664D01*
X50830Y-28711D01*
X50832Y-28720D01*
X50843Y-28771D01*
X50849Y-28817D01*
X50850Y-28829D01*
X50860Y-28862D01*
X50877Y-28870D01*
X50891Y-28863D01*
X50901Y-28839D01*
X50909Y-28792D01*
X50912Y-28772D01*
X50919Y-28721D01*
X50928Y-28683D01*
X50936Y-28667D01*
X50941Y-28650D01*
X50945Y-28607D01*
X50948Y-28547D01*
X50950Y-28472D01*
X50950Y-28437D01*
X50950Y-28217D01*
X50837Y-28104D01*
X50787Y-28054D01*
X50754Y-28017D01*
X50735Y-27989D01*
X50727Y-27964D01*
X50725Y-27935D01*
X50725Y-27929D01*
X50727Y-27890D01*
X50735Y-27867D01*
X50740Y-27865D01*
X50750Y-27878D01*
X50754Y-27910D01*
X50754Y-27914D01*
X50758Y-27940D01*
X50770Y-27966D01*
X50794Y-27998D01*
X50834Y-28042D01*
X50873Y-28081D01*
X50991Y-28198D01*
X50996Y-28473D01*
X51000Y-28585D01*
X51004Y-28668D01*
X51009Y-28725D01*
X51016Y-28759D01*
X51021Y-28767D01*
X51035Y-28796D01*
X51040Y-28828D01*
X51047Y-28861D01*
X51061Y-28870D01*
X51077Y-28859D01*
X51076Y-28850D01*
X51076Y-28823D01*
X51086Y-28787D01*
X51097Y-28756D01*
X51106Y-28724D01*
X51113Y-28688D01*
X51117Y-28640D01*
X51121Y-28574D01*
X51124Y-28487D01*
X51125Y-28444D01*
X51132Y-28220D01*
X51043Y-28129D01*
X50999Y-28081D01*
X50959Y-28038D01*
X50931Y-28006D01*
X50926Y-28002D01*
X50908Y-27977D01*
X50909Y-27970D01*
X50925Y-27980D01*
X50955Y-28004D01*
X50994Y-28038D01*
X51040Y-28082D01*
X51057Y-28100D01*
X51157Y-28202D01*
X51172Y-28478D01*
X51178Y-28570D01*
X51185Y-28650D01*
X51192Y-28713D01*
X51199Y-28754D01*
X51204Y-28769D01*
X51216Y-28796D01*
X51221Y-28828D01*
X51226Y-28859D01*
X51240Y-28870D01*
X51252Y-28856D01*
X51264Y-28815D01*
X51275Y-28752D01*
X51285Y-28671D01*
X51292Y-28576D01*
X51296Y-28471D01*
X51297Y-28408D01*
X51300Y-28208D01*
X51177Y-28085D01*
X51123Y-28029D01*
X51086Y-27987D01*
X51066Y-27957D01*
X51056Y-27932D01*
X51055Y-27914D01*
X51059Y-27880D01*
X51068Y-27865D01*
X51069Y-27865D01*
X51080Y-27878D01*
X51085Y-27908D01*
X51089Y-27932D01*
X51105Y-27958D01*
X51133Y-27993D01*
X51179Y-28040D01*
X51216Y-28076D01*
X51348Y-28201D01*
X51356Y-28473D01*
X51360Y-28584D01*
X51365Y-28667D01*
X51371Y-28724D01*
X51378Y-28759D01*
X51384Y-28770D01*
X51397Y-28804D01*
X51396Y-28832D01*
X51396Y-28861D01*
X51413Y-28869D01*
X51434Y-28857D01*
X51440Y-28829D01*
X51447Y-28769D01*
X51457Y-28715D01*
X51469Y-28679D01*
X51477Y-28666D01*
X51482Y-28649D01*
X51485Y-28607D01*
X51489Y-28547D01*
X51490Y-28473D01*
X51491Y-28440D01*
X51491Y-28221D01*
X51384Y-28109D01*
X51342Y-28061D01*
X51309Y-28022D01*
X51290Y-27995D01*
X51288Y-27987D01*
X51301Y-27994D01*
X51330Y-28018D01*
X51372Y-28055D01*
X51408Y-28091D01*
X51519Y-28202D01*
X51528Y-28434D01*
X51531Y-28514D01*
X51535Y-28583D01*
X51538Y-28636D01*
X51542Y-28667D01*
X51543Y-28672D01*
X51548Y-28691D01*
X51550Y-28722D01*
X51555Y-28755D01*
X51565Y-28772D01*
X51576Y-28793D01*
X51581Y-28825D01*
X51586Y-28859D01*
X51600Y-28870D01*
X51612Y-28855D01*
X51624Y-28813D01*
X51635Y-28746D01*
X51644Y-28656D01*
X51652Y-28545D01*
X51657Y-28418D01*
X51661Y-28302D01*
X51666Y-28028D01*
X51708Y-27984D01*
X51744Y-27951D01*
X51762Y-27941D01*
X51764Y-27952D01*
X51745Y-27983D01*
X51738Y-27994D01*
X51712Y-28032D01*
X51702Y-28068D01*
X51705Y-28116D01*
X51706Y-28117D01*
X51708Y-28155D01*
X51711Y-28216D01*
X51714Y-28295D01*
X51716Y-28384D01*
X51717Y-28465D01*
X51718Y-28571D01*
X51721Y-28651D01*
X51726Y-28707D01*
X51731Y-28746D01*
X51739Y-28770D01*
X51742Y-28776D01*
X51756Y-28813D01*
X51756Y-28840D01*
X51756Y-28864D01*
X51777Y-28869D01*
X51799Y-28865D01*
X51803Y-28859D01*
X51802Y-28832D01*
X51807Y-28791D01*
X51815Y-28743D01*
X51825Y-28701D01*
X51834Y-28672D01*
X51837Y-28666D01*
X51842Y-28649D01*
X51845Y-28607D01*
X51848Y-28546D01*
X51850Y-28472D01*
X51851Y-28427D01*
X51851Y-28197D01*
X51985Y-28067D01*
X52037Y-28013D01*
X52080Y-27966D01*
X52111Y-27928D01*
X52125Y-27905D01*
X52125Y-27905D01*
X52130Y-27889D01*
X52132Y-27903D01*
X52133Y-27916D01*
X52131Y-27940D01*
X52118Y-27966D01*
X52093Y-28000D01*
X52050Y-28046D01*
X52010Y-28089D01*
X51884Y-28218D01*
X51890Y-28398D01*
X51896Y-28529D01*
X51902Y-28632D01*
X51909Y-28706D01*
X51917Y-28752D01*
X51926Y-28773D01*
X51926Y-28773D01*
X51936Y-28793D01*
X51941Y-28825D01*
X51947Y-28859D01*
X51961Y-28869D01*
X51976Y-28853D01*
X51980Y-28829D01*
X51987Y-28775D01*
X51996Y-28722D01*
X52008Y-28681D01*
X52015Y-28668D01*
X52020Y-28648D01*
X52023Y-28604D01*
X52026Y-28541D01*
X52029Y-28464D01*
X52029Y-28420D01*
X52031Y-28187D01*
X52158Y-28062D01*
X52221Y-27999D01*
X52261Y-27951D01*
X52282Y-27917D01*
X52285Y-27901D01*
X52293Y-27872D01*
X52308Y-27865D01*
X52326Y-27878D01*
X52330Y-27908D01*
X52326Y-27933D01*
X52310Y-27962D01*
X52279Y-28002D01*
X52231Y-28055D01*
X52203Y-28085D01*
X52077Y-28218D01*
X52077Y-28435D01*
X52077Y-28519D01*
X52080Y-28598D01*
X52085Y-28665D01*
X52090Y-28712D01*
X52092Y-28720D01*
X52104Y-28771D01*
X52113Y-28818D01*
X52115Y-28829D01*
X52131Y-28862D01*
X52152Y-28870D01*
X52176Y-28881D01*
X52180Y-28899D01*
X52188Y-28921D01*
X52202Y-28921D01*
X52230Y-28922D01*
X52257Y-28931D01*
X52280Y-28943D01*
X52302Y-28951D01*
X52328Y-28958D01*
X52364Y-28962D01*
X52414Y-28965D01*
X52485Y-28967D01*
X52580Y-28970D01*
X52823Y-28977D01*
X52937Y-28868D01*
X52984Y-28825D01*
X53023Y-28791D01*
X53049Y-28770D01*
X53057Y-28767D01*
X53049Y-28779D01*
X53026Y-28809D01*
X52989Y-28850D01*
X52955Y-28888D01*
X52848Y-29004D01*
X52564Y-29019D01*
X52473Y-29024D01*
X52393Y-29030D01*
X52329Y-29037D01*
X52284Y-29043D01*
X52265Y-29049D01*
X52239Y-29062D01*
X52214Y-29065D01*
X52187Y-29073D01*
X52180Y-29085D01*
X52195Y-29099D01*
X52239Y-29112D01*
X52310Y-29124D01*
X52407Y-29134D01*
X52529Y-29144D01*
X52612Y-29148D01*
X52811Y-29158D01*
X52941Y-29040D01*
X52990Y-28996D01*
X53030Y-28962D01*
X53056Y-28942D01*
X53064Y-28939D01*
X53052Y-28957D01*
X53023Y-28990D01*
X52984Y-29036D01*
X52948Y-29075D01*
X52837Y-29196D01*
X52563Y-29202D01*
X52454Y-29206D01*
X52372Y-29210D01*
X52314Y-29215D01*
X52279Y-29222D01*
X52265Y-29228D01*
X52230Y-29242D01*
X52211Y-29240D01*
X52185Y-29241D01*
X52180Y-29250D01*
X52194Y-29264D01*
X52227Y-29280D01*
X52251Y-29288D01*
X52302Y-29302D01*
X52345Y-29317D01*
X52357Y-29321D01*
X52384Y-29326D01*
X52435Y-29330D01*
X52502Y-29333D01*
X52581Y-29335D01*
X52605Y-29335D01*
X52818Y-29335D01*
X52938Y-29215D01*
X53057Y-29095D01*
X53166Y-29095D01*
X53220Y-29093D01*
X53261Y-29088D01*
X53283Y-29081D01*
X53283Y-29080D01*
X53303Y-29068D01*
X53328Y-29065D01*
X53360Y-29076D01*
X53375Y-29104D01*
X53375Y-29104D01*
X53375Y-29104D01*
G37*
G36*
X53315Y-30255D02*
X53313Y-30264D01*
X53305Y-30265D01*
X53292Y-30260D01*
X53295Y-30255D01*
X53313Y-30254D01*
X53315Y-30255D01*
X53315Y-30255D01*
X53315Y-30255D01*
G37*
G36*
X51498Y-30648D02*
X51488Y-30670D01*
X51455Y-30688D01*
X51435Y-30695D01*
X51376Y-30706D01*
X51296Y-30715D01*
X51204Y-30721D01*
X51111Y-30723D01*
X51023Y-30720D01*
X50971Y-30715D01*
X50886Y-30702D01*
X50828Y-30687D01*
X50796Y-30669D01*
X50787Y-30647D01*
X50788Y-30644D01*
X50806Y-30620D01*
X50851Y-30600D01*
X50923Y-30587D01*
X51023Y-30579D01*
X51145Y-30577D01*
X51270Y-30579D01*
X51366Y-30586D01*
X51436Y-30598D01*
X51479Y-30616D01*
X51497Y-30641D01*
X51498Y-30648D01*
X51498Y-30648D01*
X51498Y-30648D01*
G37*
G36*
X51820Y-29521D02*
X51806Y-29569D01*
X51764Y-29610D01*
X51699Y-29643D01*
X51699Y-29518D01*
X51681Y-29479D01*
X51637Y-29437D01*
X51571Y-29397D01*
X51482Y-29358D01*
X51371Y-29322D01*
X51329Y-29311D01*
X51248Y-29291D01*
X51192Y-29279D01*
X51159Y-29275D01*
X51145Y-29282D01*
X51147Y-29298D01*
X51160Y-29324D01*
X51168Y-29336D01*
X51196Y-29387D01*
X51225Y-29449D01*
X51251Y-29514D01*
X51270Y-29572D01*
X51280Y-29615D01*
X51280Y-29623D01*
X51282Y-29638D01*
X51290Y-29646D01*
X51312Y-29650D01*
X51351Y-29649D01*
X51411Y-29645D01*
X51479Y-29639D01*
X51541Y-29630D01*
X51587Y-29621D01*
X51596Y-29618D01*
X51658Y-29589D01*
X51692Y-29555D01*
X51699Y-29518D01*
X51699Y-29643D01*
X51697Y-29644D01*
X51607Y-29670D01*
X51496Y-29687D01*
X51458Y-29690D01*
X51329Y-29699D01*
X51416Y-29742D01*
X51471Y-29775D01*
X51519Y-29813D01*
X51560Y-29850D01*
X51589Y-29886D01*
X51603Y-29916D01*
X51600Y-29936D01*
X51575Y-29940D01*
X51555Y-29949D01*
X51550Y-29979D01*
X51546Y-30020D01*
X51529Y-30033D01*
X51503Y-30024D01*
X51482Y-30018D01*
X51475Y-30033D01*
X51475Y-30038D01*
X51468Y-30070D01*
X51450Y-30077D01*
X51436Y-30068D01*
X51419Y-30060D01*
X51415Y-30068D01*
X51402Y-30078D01*
X51371Y-30081D01*
X51368Y-30081D01*
X51329Y-30070D01*
X51309Y-30043D01*
X51298Y-30003D01*
X51295Y-29980D01*
X51293Y-29964D01*
X51282Y-29953D01*
X51257Y-29944D01*
X51211Y-29934D01*
X51168Y-29928D01*
X51114Y-29915D01*
X51057Y-29895D01*
X51043Y-29890D01*
X51043Y-29454D01*
X51034Y-29395D01*
X51023Y-29331D01*
X51008Y-29291D01*
X50986Y-29270D01*
X50947Y-29262D01*
X50888Y-29260D01*
X50883Y-29260D01*
X50780Y-29264D01*
X50690Y-29279D01*
X50620Y-29301D01*
X50571Y-29330D01*
X50546Y-29364D01*
X50545Y-29378D01*
X50559Y-29416D01*
X50600Y-29457D01*
X50667Y-29498D01*
X50755Y-29541D01*
X50830Y-29569D01*
X50889Y-29589D01*
X50924Y-29599D01*
X50941Y-29599D01*
X50941Y-29588D01*
X50931Y-29566D01*
X50928Y-29561D01*
X50865Y-29471D01*
X50779Y-29396D01*
X50762Y-29385D01*
X50717Y-29354D01*
X50696Y-29332D01*
X50698Y-29321D01*
X50706Y-29320D01*
X50744Y-29327D01*
X50800Y-29343D01*
X50863Y-29365D01*
X50924Y-29390D01*
X50958Y-29408D01*
X51043Y-29454D01*
X51043Y-29890D01*
X51041Y-29889D01*
X50978Y-29869D01*
X50913Y-29861D01*
X50854Y-29865D01*
X50812Y-29881D01*
X50806Y-29886D01*
X50784Y-29913D01*
X50753Y-29955D01*
X50729Y-29992D01*
X50695Y-30041D01*
X50673Y-30066D01*
X50664Y-30065D01*
X50671Y-30039D01*
X50690Y-29991D01*
X50709Y-29950D01*
X50737Y-29891D01*
X50758Y-29837D01*
X50769Y-29796D01*
X50770Y-29786D01*
X50783Y-29732D01*
X50821Y-29689D01*
X50880Y-29666D01*
X50883Y-29665D01*
X50942Y-29654D01*
X50897Y-29643D01*
X50758Y-29604D01*
X50638Y-29561D01*
X50539Y-29514D01*
X50465Y-29465D01*
X50412Y-29415D01*
X50387Y-29365D01*
X50388Y-29317D01*
X50418Y-29271D01*
X50418Y-29271D01*
X50469Y-29234D01*
X50541Y-29206D01*
X50636Y-29187D01*
X50758Y-29175D01*
X50780Y-29174D01*
X50948Y-29165D01*
X50924Y-29130D01*
X50911Y-29103D01*
X50919Y-29097D01*
X50948Y-29111D01*
X50988Y-29138D01*
X51052Y-29173D01*
X51132Y-29192D01*
X51138Y-29192D01*
X51263Y-29212D01*
X51384Y-29241D01*
X51496Y-29278D01*
X51598Y-29320D01*
X51684Y-29366D01*
X51753Y-29414D01*
X51798Y-29462D01*
X51819Y-29510D01*
X51820Y-29521D01*
X51820Y-29521D01*
X51820Y-29521D01*
G37*
M02*
