G04 (created by PCBNEW-RS274X (2012-apr-16-27)-stable) date dim. 02 juin 2013 12:31:59 CST*
G01*
G70*
G90*
%MOIN*%
G04 Gerber Fmt 3.4, Leading zero omitted, Abs format*
%FSLAX34Y34*%
G04 APERTURE LIST*
%ADD10C,0.006000*%
%ADD11C,0.055400*%
%ADD12R,0.055400X0.055400*%
%ADD13C,0.157800*%
%ADD14C,0.075000*%
%ADD15C,0.076000*%
G04 APERTURE END LIST*
G54D10*
G54D11*
X53187Y-34198D03*
X52687Y-34198D03*
X52187Y-34198D03*
X51687Y-34198D03*
X51187Y-34198D03*
X50687Y-34198D03*
X50187Y-34198D03*
X49687Y-34198D03*
X49187Y-34198D03*
X48687Y-34198D03*
X48687Y-33698D03*
X49187Y-33698D03*
X49687Y-33698D03*
X50187Y-33698D03*
X50687Y-33698D03*
X51187Y-33698D03*
X51687Y-33698D03*
X52187Y-33698D03*
X52687Y-33698D03*
X53187Y-33698D03*
G54D12*
X56301Y-20143D03*
G54D11*
X56301Y-19643D03*
X55801Y-20143D03*
X55801Y-19643D03*
X55301Y-20143D03*
X55301Y-19643D03*
X54801Y-20143D03*
X54801Y-19643D03*
X54301Y-20143D03*
X54301Y-19643D03*
X53801Y-20143D03*
X53801Y-19643D03*
X53301Y-20143D03*
X53301Y-19643D03*
X52801Y-20143D03*
X52801Y-19643D03*
X52301Y-20143D03*
X52301Y-19643D03*
X51801Y-20143D03*
X51801Y-19643D03*
X51301Y-20143D03*
X51301Y-19643D03*
X50801Y-20143D03*
X50801Y-19643D03*
X50301Y-20143D03*
X50301Y-19643D03*
X49801Y-20143D03*
X49801Y-19643D03*
X49301Y-20143D03*
X49301Y-19643D03*
X48801Y-20143D03*
X48801Y-19643D03*
X48301Y-20143D03*
X48301Y-19643D03*
X47801Y-20143D03*
X47801Y-19643D03*
G54D13*
X55380Y-33813D03*
G54D14*
X49500Y-27800D03*
X52500Y-27800D03*
X54000Y-34100D03*
X54000Y-31100D03*
X48000Y-34100D03*
X48000Y-31100D03*
X53700Y-30000D03*
X56700Y-30000D03*
X45300Y-29200D03*
X48300Y-29200D03*
X53700Y-29200D03*
X56700Y-29200D03*
X45300Y-30000D03*
X48300Y-30000D03*
X54400Y-24500D03*
X54400Y-21500D03*
X47600Y-24500D03*
X47600Y-21500D03*
G54D15*
X50000Y-26200D03*
X52000Y-26200D03*
G54D14*
X51700Y-32800D03*
X50700Y-32800D03*
X54900Y-25600D03*
X53900Y-25600D03*
X47100Y-25600D03*
X48100Y-25600D03*
X56600Y-28100D03*
X56600Y-27100D03*
X45400Y-28100D03*
X45400Y-27100D03*
X53900Y-27600D03*
X54900Y-27600D03*
X53900Y-26600D03*
X54900Y-26600D03*
X48100Y-27600D03*
X47100Y-27600D03*
X48100Y-26600D03*
X47100Y-26600D03*
M02*
