G04 (created by PCBNEW-RS274X (2012-apr-16-27)-stable) date dim. 02 juin 2013 14:19:00 CST*
G01*
G70*
G90*
%MOIN*%
G04 Gerber Fmt 3.4, Leading zero omitted, Abs format*
%FSLAX34Y34*%
G04 APERTURE LIST*
%ADD10C,0.006000*%
%ADD11R,0.039400X0.027600*%
%ADD12R,0.060000X0.060000*%
%ADD13C,0.060000*%
%ADD14R,0.050000X0.038000*%
%ADD15C,0.035000*%
%ADD16C,0.008000*%
G04 APERTURE END LIST*
G54D10*
G54D11*
X15700Y-07875D03*
X15700Y-07500D03*
X15700Y-07125D03*
X16700Y-07125D03*
X16700Y-07500D03*
X16700Y-07875D03*
G54D12*
X14700Y-06350D03*
G54D13*
X15700Y-06350D03*
X16700Y-06350D03*
X17700Y-06350D03*
G54D14*
X17850Y-07200D03*
X17850Y-07700D03*
X17850Y-08200D03*
X14550Y-07200D03*
X14550Y-07700D03*
X14550Y-08200D03*
G54D15*
X15222Y-07939D03*
X16178Y-07150D03*
X16192Y-07787D03*
G54D16*
X14550Y-07700D02*
X14943Y-07700D01*
X15143Y-07500D02*
X14943Y-07700D01*
X15700Y-07500D02*
X15143Y-07500D01*
X17040Y-07125D02*
X16700Y-07125D01*
X17457Y-07542D02*
X17040Y-07125D01*
X17457Y-07700D02*
X17457Y-07542D01*
X17850Y-07700D02*
X17457Y-07700D01*
X15360Y-07875D02*
X15286Y-07875D01*
X15700Y-07875D02*
X15360Y-07875D01*
X15286Y-07875D02*
X15222Y-07939D01*
X14550Y-08200D02*
X14943Y-08200D01*
X16700Y-07500D02*
X16360Y-07500D01*
X17042Y-07502D02*
X17042Y-08200D01*
X17040Y-07500D02*
X17042Y-07502D01*
X16700Y-07500D02*
X17040Y-07500D01*
X17850Y-08200D02*
X17042Y-08200D01*
X14943Y-08200D02*
X15000Y-08257D01*
X16360Y-07332D02*
X16178Y-07150D01*
X16360Y-07500D02*
X16360Y-07332D01*
X16985Y-08257D02*
X17042Y-08200D01*
X15000Y-08257D02*
X16985Y-08257D01*
X16700Y-07875D02*
X16280Y-07875D01*
X16280Y-07875D02*
X16192Y-07787D01*
X15700Y-07125D02*
X15700Y-06844D01*
X17850Y-07200D02*
X17850Y-06867D01*
X14700Y-06350D02*
X14700Y-06793D01*
X14700Y-07125D02*
X14700Y-06793D01*
X15700Y-07125D02*
X14700Y-07125D01*
X14625Y-07125D02*
X14550Y-07200D01*
X14700Y-07125D02*
X14625Y-07125D01*
X15712Y-06832D02*
X15700Y-06844D01*
X17815Y-06832D02*
X15712Y-06832D01*
X17850Y-06867D02*
X17815Y-06832D01*
M02*
