G04 (created by PCBNEW-RS274X (2012-apr-16-27)-stable) date dim. 02 juin 2013 12:40:30 CST*
G01*
G70*
G90*
%MOIN*%
G04 Gerber Fmt 3.4, Leading zero omitted, Abs format*
%FSLAX34Y34*%
G04 APERTURE LIST*
%ADD10C,0.006000*%
%ADD11C,0.006300*%
%ADD12R,0.060000X0.060000*%
%ADD13C,0.060000*%
%ADD14R,0.059100X0.011800*%
%ADD15R,0.038000X0.050000*%
%ADD16C,0.035000*%
%ADD17C,0.010000*%
%ADD18C,0.050000*%
%ADD19C,0.007600*%
G04 APERTURE END LIST*
G54D10*
G54D11*
X18201Y-25024D02*
X18201Y-25166D01*
X18201Y-25095D02*
X17951Y-25095D01*
X17987Y-25119D01*
X18011Y-25143D01*
X18023Y-25166D01*
X17951Y-24940D02*
X17951Y-24786D01*
X18046Y-24869D01*
X18046Y-24833D01*
X18058Y-24809D01*
X18070Y-24797D01*
X18094Y-24786D01*
X18154Y-24786D01*
X18177Y-24797D01*
X18189Y-24809D01*
X18201Y-24833D01*
X18201Y-24905D01*
X18189Y-24928D01*
X18177Y-24940D01*
X18201Y-24548D02*
X18201Y-24690D01*
X18201Y-24619D02*
X17951Y-24619D01*
X17987Y-24643D01*
X18011Y-24667D01*
X18023Y-24690D01*
X18201Y-24310D02*
X18201Y-24452D01*
X18201Y-24381D02*
X17951Y-24381D01*
X17987Y-24405D01*
X18011Y-24429D01*
X18023Y-24452D01*
X18201Y-24191D02*
X18201Y-24143D01*
X18189Y-24119D01*
X18177Y-24107D01*
X18142Y-24083D01*
X18094Y-24072D01*
X17999Y-24072D01*
X17975Y-24083D01*
X17963Y-24095D01*
X17951Y-24119D01*
X17951Y-24167D01*
X17963Y-24191D01*
X17975Y-24202D01*
X17999Y-24214D01*
X18058Y-24214D01*
X18082Y-24202D01*
X18094Y-24191D01*
X18106Y-24167D01*
X18106Y-24119D01*
X18094Y-24095D01*
X18082Y-24083D01*
X18058Y-24072D01*
X17951Y-23857D02*
X17951Y-23905D01*
X17963Y-23929D01*
X17975Y-23941D01*
X18011Y-23964D01*
X18058Y-23976D01*
X18154Y-23976D01*
X18177Y-23964D01*
X18189Y-23953D01*
X18201Y-23929D01*
X18201Y-23881D01*
X18189Y-23857D01*
X18177Y-23845D01*
X18154Y-23834D01*
X18094Y-23834D01*
X18070Y-23845D01*
X18058Y-23857D01*
X18046Y-23881D01*
X18046Y-23929D01*
X18058Y-23953D01*
X18070Y-23964D01*
X18094Y-23976D01*
X17001Y-24650D02*
X16882Y-24733D01*
X17001Y-24792D02*
X16751Y-24792D01*
X16751Y-24697D01*
X16763Y-24673D01*
X16775Y-24662D01*
X16799Y-24650D01*
X16835Y-24650D01*
X16858Y-24662D01*
X16870Y-24673D01*
X16882Y-24697D01*
X16882Y-24792D01*
X17001Y-24507D02*
X16989Y-24531D01*
X16977Y-24542D01*
X16954Y-24554D01*
X16882Y-24554D01*
X16858Y-24542D01*
X16846Y-24531D01*
X16835Y-24507D01*
X16835Y-24471D01*
X16846Y-24447D01*
X16858Y-24435D01*
X16882Y-24423D01*
X16954Y-24423D01*
X16977Y-24435D01*
X16989Y-24447D01*
X17001Y-24471D01*
X17001Y-24507D01*
X17001Y-24281D02*
X16989Y-24305D01*
X16977Y-24316D01*
X16954Y-24328D01*
X16882Y-24328D01*
X16858Y-24316D01*
X16846Y-24305D01*
X16835Y-24281D01*
X16835Y-24245D01*
X16846Y-24221D01*
X16858Y-24209D01*
X16882Y-24197D01*
X16954Y-24197D01*
X16977Y-24209D01*
X16989Y-24221D01*
X17001Y-24245D01*
X17001Y-24281D01*
X16989Y-24102D02*
X17001Y-24079D01*
X17001Y-24031D01*
X16989Y-24007D01*
X16965Y-23995D01*
X16954Y-23995D01*
X16930Y-24007D01*
X16918Y-24031D01*
X16918Y-24067D01*
X16906Y-24090D01*
X16882Y-24102D01*
X16870Y-24102D01*
X16846Y-24090D01*
X16835Y-24067D01*
X16835Y-24031D01*
X16846Y-24007D01*
G54D12*
X14500Y-22000D03*
G54D13*
X15500Y-22000D03*
X16500Y-22000D03*
X17500Y-22000D03*
X18500Y-22000D03*
X19500Y-22000D03*
X20500Y-22000D03*
G54D12*
X14000Y-31000D03*
G54D13*
X15000Y-31000D03*
X16000Y-31000D03*
X17000Y-31000D03*
X18000Y-31000D03*
X19000Y-31000D03*
X20000Y-31000D03*
X21000Y-31000D03*
G54D12*
X21500Y-30000D03*
G54D13*
X21500Y-29000D03*
X21500Y-28000D03*
X21500Y-27000D03*
X21500Y-26000D03*
X21500Y-25000D03*
X21500Y-24000D03*
X21500Y-23000D03*
G54D12*
X20500Y-30000D03*
G54D13*
X20500Y-29000D03*
X20500Y-28000D03*
X20500Y-27000D03*
X20500Y-26000D03*
X20500Y-25000D03*
X20500Y-24000D03*
X20500Y-23000D03*
G54D12*
X14500Y-23000D03*
G54D13*
X14500Y-24000D03*
X14500Y-25000D03*
X14500Y-26000D03*
X14500Y-27000D03*
X14500Y-28000D03*
X14500Y-29000D03*
X14500Y-30000D03*
G54D12*
X13500Y-23000D03*
G54D13*
X13500Y-24000D03*
X13500Y-25000D03*
X13500Y-26000D03*
X13500Y-27000D03*
X13500Y-28000D03*
X13500Y-29000D03*
X13500Y-30000D03*
G54D14*
X19075Y-27485D03*
X19075Y-27288D03*
X19075Y-27091D03*
X19075Y-26894D03*
X19075Y-26697D03*
X19075Y-26500D03*
X19075Y-26304D03*
X19075Y-26107D03*
X19075Y-25910D03*
X19075Y-25713D03*
X19075Y-25516D03*
X15925Y-28666D03*
X15925Y-28862D03*
X15925Y-29059D03*
X15925Y-29256D03*
X19075Y-29256D03*
X19075Y-29060D03*
X19075Y-28863D03*
X15925Y-27091D03*
X19075Y-28469D03*
X19075Y-28272D03*
X19075Y-28075D03*
X19075Y-27878D03*
X19075Y-27682D03*
X15925Y-26107D03*
X15925Y-26303D03*
X15925Y-26500D03*
X15925Y-26697D03*
X15925Y-26894D03*
X19075Y-28666D03*
X15925Y-27288D03*
X15925Y-27485D03*
X15925Y-27681D03*
X15925Y-27878D03*
X15925Y-28075D03*
X15925Y-28272D03*
X15925Y-28469D03*
X15925Y-23941D03*
X15925Y-24138D03*
X15925Y-24335D03*
X15925Y-24532D03*
X15925Y-24729D03*
X15925Y-24925D03*
X15925Y-25122D03*
X15925Y-25319D03*
X15925Y-25516D03*
X15925Y-25713D03*
X15925Y-25910D03*
X19075Y-25319D03*
X19075Y-25122D03*
X19075Y-24925D03*
X19075Y-24729D03*
X19075Y-24532D03*
X19075Y-24335D03*
X19075Y-24138D03*
X19075Y-23941D03*
G54D15*
X18000Y-30000D03*
X17500Y-30000D03*
X17000Y-30000D03*
X16500Y-30000D03*
X16000Y-30000D03*
X15500Y-30000D03*
X19500Y-30000D03*
X19000Y-30000D03*
X18500Y-30000D03*
G54D16*
X16893Y-28922D03*
X17204Y-29393D03*
X15602Y-23314D03*
X15606Y-22900D03*
X19796Y-26324D03*
X17791Y-29366D03*
X15334Y-27352D03*
X18528Y-29373D03*
X15288Y-25554D03*
X15267Y-25968D03*
X16526Y-28049D03*
X16599Y-29212D03*
X15249Y-26521D03*
X16823Y-26326D03*
X17012Y-28345D03*
X18075Y-28815D03*
X19916Y-27460D03*
X18074Y-28140D03*
X18101Y-27726D03*
X18399Y-26337D03*
X19283Y-23430D03*
X15173Y-28486D03*
G54D17*
X17500Y-23920D02*
X17500Y-24000D01*
G54D18*
X17500Y-23920D02*
X17420Y-23920D01*
G54D17*
X17500Y-28272D02*
X17500Y-28270D01*
G54D19*
X17799Y-28272D02*
X17799Y-28428D01*
X17799Y-28946D02*
X17937Y-29084D01*
X17799Y-28428D02*
X17799Y-28946D01*
G54D17*
X19075Y-24925D02*
X18667Y-24925D01*
G54D18*
X17500Y-24925D02*
X17500Y-24000D01*
X17420Y-23920D02*
X15500Y-22000D01*
G54D17*
X18439Y-22981D02*
X17500Y-23920D01*
X19242Y-22981D02*
X18439Y-22981D01*
X19571Y-23310D02*
X19242Y-22981D01*
X19571Y-23550D02*
X19571Y-23310D01*
X19395Y-23726D02*
X19571Y-23550D01*
X18776Y-23726D02*
X19395Y-23726D01*
X18667Y-23835D02*
X18776Y-23726D01*
X16334Y-25910D02*
X16509Y-26085D01*
X16509Y-26085D02*
X16509Y-26462D01*
X16509Y-26462D02*
X16721Y-26674D01*
X16721Y-26674D02*
X17500Y-26674D01*
G54D18*
X17500Y-26674D02*
X17500Y-24940D01*
X17500Y-27288D02*
X17500Y-26674D01*
G54D17*
X17799Y-28428D02*
X18194Y-28428D01*
X18194Y-28428D02*
X18362Y-28260D01*
X18362Y-28260D02*
X18362Y-28070D01*
X18362Y-28070D02*
X18528Y-27904D01*
X18528Y-27904D02*
X18528Y-27427D01*
X18528Y-27427D02*
X18667Y-27288D01*
X15925Y-25910D02*
X16334Y-25910D01*
X16893Y-28713D02*
X16893Y-28922D01*
G54D19*
X18500Y-30000D02*
X18500Y-29649D01*
G54D17*
X19075Y-28272D02*
X18667Y-28272D01*
X17500Y-24925D02*
X17500Y-24940D01*
X15925Y-24925D02*
X17500Y-24925D01*
G54D19*
X15500Y-30000D02*
X15500Y-29649D01*
X17000Y-30000D02*
X17000Y-29649D01*
X17000Y-29649D02*
X15500Y-29649D01*
G54D17*
X18667Y-24925D02*
X18667Y-23835D01*
X18667Y-28659D02*
X18667Y-28272D01*
X18242Y-29084D02*
X18667Y-28659D01*
X15925Y-28272D02*
X16334Y-28272D01*
G54D19*
X17204Y-29445D02*
X17204Y-29393D01*
X17000Y-29649D02*
X17204Y-29445D01*
G54D17*
X16893Y-28713D02*
X17059Y-28713D01*
X16775Y-28713D02*
X16893Y-28713D01*
X16334Y-28272D02*
X16775Y-28713D01*
X17956Y-29103D02*
X18242Y-29103D01*
X17937Y-29084D02*
X17956Y-29103D01*
G54D19*
X18242Y-29084D02*
X18242Y-29103D01*
X18263Y-29649D02*
X18500Y-29649D01*
X18242Y-29628D02*
X18263Y-29649D01*
X18242Y-29103D02*
X18242Y-29628D01*
G54D17*
X19075Y-27288D02*
X18667Y-27288D01*
X17500Y-27288D02*
X17500Y-27290D01*
G54D18*
X17500Y-28270D02*
X17500Y-27290D01*
G54D17*
X17500Y-28272D02*
X17799Y-28272D01*
X17059Y-28713D02*
X17500Y-28272D01*
G54D19*
X16464Y-23996D02*
X16464Y-23720D01*
X16464Y-23720D02*
X16058Y-23314D01*
X16322Y-24138D02*
X16464Y-23996D01*
X16058Y-23314D02*
X15602Y-23314D01*
X15925Y-24138D02*
X16322Y-24138D01*
X16322Y-23941D02*
X15925Y-23941D01*
X15326Y-23180D02*
X15606Y-22900D01*
X15326Y-23738D02*
X15326Y-23180D01*
X15529Y-23941D02*
X15326Y-23738D01*
X15925Y-23941D02*
X15529Y-23941D01*
G54D17*
X15925Y-27288D02*
X15398Y-27288D01*
X19075Y-25910D02*
X19612Y-25910D01*
X15398Y-27288D02*
X15334Y-27352D01*
G54D19*
X19612Y-25910D02*
X19619Y-25910D01*
X19660Y-25910D02*
X19660Y-26188D01*
X19660Y-26188D02*
X19796Y-26324D01*
G54D17*
X19619Y-25910D02*
X19660Y-25910D01*
G54D19*
X17999Y-30351D02*
X16500Y-30351D01*
X18000Y-30350D02*
X17999Y-30351D01*
X19500Y-30351D02*
X18001Y-30351D01*
X18001Y-30351D02*
X18000Y-30350D01*
X18000Y-30000D02*
X18000Y-30350D01*
X18000Y-30000D02*
X18000Y-29649D01*
X19500Y-30000D02*
X19500Y-30351D01*
X18000Y-29649D02*
X18000Y-29575D01*
X18000Y-29575D02*
X17791Y-29366D01*
X16500Y-30000D02*
X16500Y-30351D01*
X19075Y-24138D02*
X19472Y-24138D01*
X19861Y-22361D02*
X19500Y-22000D01*
X19861Y-23671D02*
X19861Y-22361D01*
X19472Y-24060D02*
X19861Y-23671D01*
X19472Y-24138D02*
X19472Y-24060D01*
X19075Y-29060D02*
X18679Y-29060D01*
X18679Y-29060D02*
X18528Y-29211D01*
X18528Y-29211D02*
X18528Y-29373D01*
X19722Y-23222D02*
X18500Y-22000D01*
X19722Y-23613D02*
X19722Y-23222D01*
X19394Y-23941D02*
X19722Y-23613D01*
X19075Y-23941D02*
X19394Y-23941D01*
X14771Y-24729D02*
X15529Y-24729D01*
X14500Y-25000D02*
X14771Y-24729D01*
X15925Y-24729D02*
X15529Y-24729D01*
X15523Y-25319D02*
X15288Y-25554D01*
X15925Y-25319D02*
X15523Y-25319D01*
X15529Y-25713D02*
X15274Y-25968D01*
X15274Y-25968D02*
X15267Y-25968D01*
X15925Y-25713D02*
X15529Y-25713D01*
X15434Y-24335D02*
X15925Y-24335D01*
X14500Y-23401D02*
X15434Y-24335D01*
X14500Y-23000D02*
X14500Y-23401D01*
X14500Y-24000D02*
X15032Y-24532D01*
X15032Y-24532D02*
X15529Y-24532D01*
X15925Y-24532D02*
X15529Y-24532D01*
X15925Y-25122D02*
X15529Y-25122D01*
X14500Y-25663D02*
X14500Y-26000D01*
X15041Y-25122D02*
X14500Y-25663D01*
X15529Y-25122D02*
X15041Y-25122D01*
X17319Y-29117D02*
X17090Y-29117D01*
X17090Y-29117D02*
X16719Y-29488D01*
X17500Y-29649D02*
X17500Y-29298D01*
X17500Y-29298D02*
X17319Y-29117D01*
X16719Y-29488D02*
X16477Y-29488D01*
X16322Y-29333D02*
X16322Y-29059D01*
X17500Y-30000D02*
X17500Y-29649D01*
X15925Y-29059D02*
X16322Y-29059D01*
X16477Y-29488D02*
X16322Y-29333D01*
X15925Y-27091D02*
X15529Y-27091D01*
X15513Y-27075D02*
X15529Y-27091D01*
X15015Y-27075D02*
X15513Y-27075D01*
X14661Y-27429D02*
X15015Y-27075D01*
X13929Y-27429D02*
X14661Y-27429D01*
X13500Y-27000D02*
X13929Y-27429D01*
X15925Y-26697D02*
X16322Y-26697D01*
X16322Y-27845D02*
X16526Y-28049D01*
X16322Y-26697D02*
X16322Y-27845D01*
X15925Y-28666D02*
X16322Y-28666D01*
X16599Y-28943D02*
X16599Y-29212D01*
X16322Y-28666D02*
X16599Y-28943D01*
X14731Y-26590D02*
X15077Y-26936D01*
X13500Y-26000D02*
X14090Y-26590D01*
X14090Y-26590D02*
X14731Y-26590D01*
X15925Y-26894D02*
X15529Y-26894D01*
X15077Y-26936D02*
X15487Y-26936D01*
X15487Y-26936D02*
X15529Y-26894D01*
X15925Y-28862D02*
X15529Y-28862D01*
X15529Y-28862D02*
X15069Y-29322D01*
X15069Y-29322D02*
X15069Y-30388D01*
X15069Y-30388D02*
X15279Y-30598D01*
X15279Y-30598D02*
X16598Y-30598D01*
X16598Y-30598D02*
X17000Y-31000D01*
X15208Y-29577D02*
X15529Y-29256D01*
X15208Y-30330D02*
X15208Y-29577D01*
X15229Y-30351D02*
X15208Y-30330D01*
X16000Y-30351D02*
X15229Y-30351D01*
X16000Y-30000D02*
X16000Y-30351D01*
X15925Y-29256D02*
X15529Y-29256D01*
X13907Y-27593D02*
X15185Y-27593D01*
X15185Y-27593D02*
X15220Y-27628D01*
X13500Y-28000D02*
X13907Y-27593D01*
X15449Y-27628D02*
X15592Y-27485D01*
X15592Y-27485D02*
X15925Y-27485D01*
X15220Y-27628D02*
X15449Y-27628D01*
X19000Y-30000D02*
X19000Y-29256D01*
X19075Y-29256D02*
X19000Y-29256D01*
X19000Y-29256D02*
X18802Y-29256D01*
X15925Y-26107D02*
X15529Y-26107D01*
X15529Y-26241D02*
X15249Y-26521D01*
X15529Y-26107D02*
X15529Y-26241D01*
X16322Y-25516D02*
X16823Y-26017D01*
X16823Y-26017D02*
X16823Y-26326D01*
X15925Y-25516D02*
X16322Y-25516D01*
X15593Y-27681D02*
X15925Y-27681D01*
X15507Y-27767D02*
X15593Y-27681D01*
X15302Y-27767D02*
X15507Y-27767D01*
X14610Y-28459D02*
X15302Y-27767D01*
X14041Y-28459D02*
X14610Y-28459D01*
X13500Y-29000D02*
X14041Y-28459D01*
X14000Y-29500D02*
X14000Y-28816D01*
X14000Y-28816D02*
X14217Y-28599D01*
X13500Y-30000D02*
X14000Y-29500D01*
X14217Y-28599D02*
X14670Y-28599D01*
X15363Y-27906D02*
X15897Y-27906D01*
X15897Y-27906D02*
X15925Y-27878D01*
X14670Y-28599D02*
X15363Y-27906D01*
X19075Y-28863D02*
X19472Y-28863D01*
X19472Y-29364D02*
X19472Y-28863D01*
X19792Y-29684D02*
X19472Y-29364D01*
X19792Y-30430D02*
X19792Y-29684D01*
X19728Y-30494D02*
X19792Y-30430D01*
X18506Y-30494D02*
X19728Y-30494D01*
X18000Y-31000D02*
X18506Y-30494D01*
X19419Y-31000D02*
X19931Y-30488D01*
X19000Y-31000D02*
X19419Y-31000D01*
X19931Y-30488D02*
X19931Y-29429D01*
X19931Y-29429D02*
X19750Y-29248D01*
X19750Y-29248D02*
X19750Y-28944D01*
X19075Y-28666D02*
X19472Y-28666D01*
X19750Y-28944D02*
X19472Y-28666D01*
X17012Y-27179D02*
X17012Y-28345D01*
X16322Y-26489D02*
X17012Y-27179D01*
X16322Y-26303D02*
X16322Y-26489D01*
X15925Y-26303D02*
X16322Y-26303D01*
X19889Y-28886D02*
X19472Y-28469D01*
X19889Y-29190D02*
X19889Y-28886D01*
X20000Y-31000D02*
X20070Y-30930D01*
X20070Y-29371D02*
X19889Y-29190D01*
X19075Y-28469D02*
X19472Y-28469D01*
X20070Y-30930D02*
X20070Y-29371D01*
X15925Y-26500D02*
X15529Y-26500D01*
X15529Y-26632D02*
X15529Y-26500D01*
X15364Y-26797D02*
X15529Y-26632D01*
X15135Y-26797D02*
X15364Y-26797D01*
X14768Y-26430D02*
X15135Y-26797D01*
X14174Y-26430D02*
X14768Y-26430D01*
X14000Y-26256D02*
X14174Y-26430D01*
X14000Y-24500D02*
X14000Y-26256D01*
X13500Y-24000D02*
X14000Y-24500D01*
X19523Y-24532D02*
X19989Y-24066D01*
X21099Y-23599D02*
X21500Y-24000D01*
X19989Y-24066D02*
X19989Y-23944D01*
X19472Y-24532D02*
X19523Y-24532D01*
X19075Y-24532D02*
X19472Y-24532D01*
X20334Y-23599D02*
X21099Y-23599D01*
X19989Y-23944D02*
X20334Y-23599D01*
X21500Y-30000D02*
X21500Y-29599D01*
X20933Y-29032D02*
X21500Y-29599D01*
X20933Y-27859D02*
X20933Y-29032D01*
X20480Y-27406D02*
X20933Y-27859D01*
X20332Y-27406D02*
X20480Y-27406D01*
X19472Y-26546D02*
X20332Y-27406D01*
X19472Y-26107D02*
X19472Y-26546D01*
X19075Y-26107D02*
X19472Y-26107D01*
X21500Y-29000D02*
X21072Y-28572D01*
X19809Y-25713D02*
X19472Y-25713D01*
X21072Y-28572D02*
X21072Y-27526D01*
X21072Y-27526D02*
X20933Y-27387D01*
X20933Y-27387D02*
X20933Y-26818D01*
X20933Y-26818D02*
X20536Y-26421D01*
X19075Y-25713D02*
X19472Y-25713D01*
X19830Y-25734D02*
X19809Y-25713D01*
X19830Y-25932D02*
X19830Y-25734D01*
X20319Y-26421D02*
X19830Y-25932D01*
X20536Y-26421D02*
X20319Y-26421D01*
X20958Y-25742D02*
X20811Y-25595D01*
X21500Y-27576D02*
X21083Y-27159D01*
X21500Y-28000D02*
X21500Y-27576D01*
X20811Y-25595D02*
X20035Y-25595D01*
X20958Y-26236D02*
X20958Y-25742D01*
X21083Y-26361D02*
X20958Y-26236D01*
X19956Y-25516D02*
X19472Y-25516D01*
X20035Y-25595D02*
X19956Y-25516D01*
X21083Y-27159D02*
X21083Y-26361D01*
X19075Y-25516D02*
X19472Y-25516D01*
X19956Y-25319D02*
X19075Y-25319D01*
X20093Y-25456D02*
X19956Y-25319D01*
X20880Y-25456D02*
X20093Y-25456D01*
X21098Y-25674D02*
X20880Y-25456D01*
X21098Y-26178D02*
X21098Y-25674D01*
X21500Y-26580D02*
X21098Y-26178D01*
X21500Y-27000D02*
X21500Y-26580D01*
X19075Y-25122D02*
X19472Y-25122D01*
X19472Y-25122D02*
X19995Y-24599D01*
X19995Y-24599D02*
X20704Y-24599D01*
X20704Y-24599D02*
X21040Y-24935D01*
X21040Y-24935D02*
X21040Y-25291D01*
X21040Y-25291D02*
X21500Y-25751D01*
X21500Y-25751D02*
X21500Y-26000D01*
X20941Y-24441D02*
X21500Y-25000D01*
X19953Y-24441D02*
X20941Y-24441D01*
X19665Y-24729D02*
X19953Y-24441D01*
X19075Y-24729D02*
X19665Y-24729D01*
X20276Y-23460D02*
X19669Y-24067D01*
X21040Y-23460D02*
X20276Y-23460D01*
X21500Y-23000D02*
X21040Y-23460D01*
X19499Y-24335D02*
X19075Y-24335D01*
X19669Y-24165D02*
X19499Y-24335D01*
X19669Y-24067D02*
X19669Y-24165D01*
X19075Y-27878D02*
X18679Y-27878D01*
X18679Y-27967D02*
X18679Y-27878D01*
X18513Y-28133D02*
X18679Y-27967D01*
X18513Y-28377D02*
X18513Y-28133D01*
X18075Y-28815D02*
X18513Y-28377D01*
X20500Y-28710D02*
X19472Y-27682D01*
X20500Y-29000D02*
X20500Y-28710D01*
X19075Y-27682D02*
X19472Y-27682D01*
X19075Y-27485D02*
X19472Y-27485D01*
X19987Y-28000D02*
X20500Y-28000D01*
X19472Y-27485D02*
X19987Y-28000D01*
X19547Y-27091D02*
X19916Y-27460D01*
X19075Y-27091D02*
X19547Y-27091D01*
X18074Y-28140D02*
X18078Y-28140D01*
X18078Y-28140D02*
X18377Y-27841D01*
X18377Y-27841D02*
X18377Y-27196D01*
X18377Y-27196D02*
X18679Y-26894D01*
X19075Y-26894D02*
X18679Y-26894D01*
X18101Y-27274D02*
X18678Y-26697D01*
X18101Y-27726D02*
X18101Y-27274D01*
X18678Y-26697D02*
X19075Y-26697D01*
X18562Y-26500D02*
X18399Y-26337D01*
X19075Y-26500D02*
X18562Y-26500D01*
X18679Y-26226D02*
X18508Y-26055D01*
X19075Y-26304D02*
X18679Y-26304D01*
X18508Y-23713D02*
X18791Y-23430D01*
X18679Y-26304D02*
X18679Y-26226D01*
X18508Y-26055D02*
X18508Y-23713D01*
X18791Y-23430D02*
X19283Y-23430D01*
X15925Y-28075D02*
X15529Y-28075D01*
X15173Y-28486D02*
X15529Y-28130D01*
X15529Y-28130D02*
X15529Y-28075D01*
X15529Y-28469D02*
X15529Y-28534D01*
X15529Y-28534D02*
X14930Y-29133D01*
X14930Y-29133D02*
X14930Y-30930D01*
X15925Y-28469D02*
X15529Y-28469D01*
X14930Y-30930D02*
X15000Y-31000D01*
X19075Y-28075D02*
X19472Y-28075D01*
X20028Y-28631D02*
X19472Y-28075D01*
X20028Y-29100D02*
X20028Y-28631D01*
X20466Y-29538D02*
X20028Y-29100D01*
X20781Y-29538D02*
X20466Y-29538D01*
X21000Y-29757D02*
X20781Y-29538D01*
X21000Y-31000D02*
X21000Y-29757D01*
M02*
