G04 (created by PCBNEW-RS274X (2012-apr-16-27)-stable) date dim. 02 juin 2013 12:40:30 CST*
G01*
G70*
G90*
%MOIN*%
G04 Gerber Fmt 3.4, Leading zero omitted, Abs format*
%FSLAX34Y34*%
G04 APERTURE LIST*
%ADD10C,0.006000*%
%ADD11C,0.010000*%
%ADD12C,0.004000*%
%ADD13C,0.012000*%
%ADD14C,0.005000*%
%ADD15C,0.006300*%
%ADD16C,0.005900*%
%ADD17C,0.003800*%
%ADD18C,0.001300*%
%ADD19C,0.007000*%
G04 APERTURE END LIST*
G54D10*
G54D11*
X19548Y-29410D02*
X19853Y-29410D01*
X19701Y-29562D02*
X19701Y-29257D01*
X15148Y-29510D02*
X15453Y-29510D01*
G54D12*
X19767Y-22857D02*
X19733Y-22857D01*
X19715Y-22849D01*
X19698Y-22831D01*
X19690Y-22797D01*
X19690Y-22737D01*
X19698Y-22703D01*
X19715Y-22686D01*
X19733Y-22677D01*
X19767Y-22677D01*
X19784Y-22686D01*
X19801Y-22703D01*
X19810Y-22737D01*
X19810Y-22797D01*
X19801Y-22831D01*
X19784Y-22849D01*
X19767Y-22857D01*
X19612Y-22771D02*
X19552Y-22771D01*
X19526Y-22677D02*
X19612Y-22677D01*
X19612Y-22857D01*
X19526Y-22857D01*
X19844Y-22943D02*
X19492Y-22943D01*
X19312Y-22677D02*
X19312Y-22857D01*
X19226Y-22677D02*
X19226Y-22857D01*
X19123Y-22677D01*
X19123Y-22857D01*
X19063Y-22857D02*
X18960Y-22857D01*
X19011Y-22677D02*
X19011Y-22857D01*
X19355Y-22943D02*
X18943Y-22943D01*
X18660Y-22677D02*
X18720Y-22763D01*
X18763Y-22677D02*
X18763Y-22857D01*
X18695Y-22857D01*
X18677Y-22849D01*
X18669Y-22840D01*
X18660Y-22823D01*
X18660Y-22797D01*
X18669Y-22780D01*
X18677Y-22771D01*
X18695Y-22763D01*
X18763Y-22763D01*
X18583Y-22771D02*
X18523Y-22771D01*
X18497Y-22677D02*
X18583Y-22677D01*
X18583Y-22857D01*
X18497Y-22857D01*
X18429Y-22686D02*
X18403Y-22677D01*
X18360Y-22677D01*
X18343Y-22686D01*
X18334Y-22694D01*
X18326Y-22711D01*
X18326Y-22729D01*
X18334Y-22746D01*
X18343Y-22754D01*
X18360Y-22763D01*
X18394Y-22771D01*
X18412Y-22780D01*
X18420Y-22789D01*
X18429Y-22806D01*
X18429Y-22823D01*
X18420Y-22840D01*
X18412Y-22849D01*
X18394Y-22857D01*
X18352Y-22857D01*
X18326Y-22849D01*
X18249Y-22771D02*
X18189Y-22771D01*
X18163Y-22677D02*
X18249Y-22677D01*
X18249Y-22857D01*
X18163Y-22857D01*
X18112Y-22857D02*
X18009Y-22857D01*
X18060Y-22677D02*
X18060Y-22857D01*
X18806Y-22943D02*
X17992Y-22943D01*
X17838Y-22857D02*
X17735Y-22857D01*
X17786Y-22677D02*
X17786Y-22857D01*
X17692Y-22857D02*
X17649Y-22677D01*
X17615Y-22806D01*
X17581Y-22677D01*
X17538Y-22857D01*
X17366Y-22694D02*
X17375Y-22686D01*
X17401Y-22677D01*
X17418Y-22677D01*
X17443Y-22686D01*
X17461Y-22703D01*
X17469Y-22720D01*
X17478Y-22754D01*
X17478Y-22780D01*
X17469Y-22814D01*
X17461Y-22831D01*
X17443Y-22849D01*
X17418Y-22857D01*
X17401Y-22857D01*
X17375Y-22849D01*
X17366Y-22840D01*
X17289Y-22677D02*
X17289Y-22857D01*
X17186Y-22677D02*
X17263Y-22780D01*
X17186Y-22857D02*
X17289Y-22754D01*
X16998Y-22857D02*
X16895Y-22857D01*
X16946Y-22677D02*
X16946Y-22857D01*
X16852Y-22857D02*
X16809Y-22677D01*
X16775Y-22806D01*
X16741Y-22677D01*
X16698Y-22857D01*
X16629Y-22677D02*
X16629Y-22857D01*
X16586Y-22857D01*
X16561Y-22849D01*
X16543Y-22831D01*
X16535Y-22814D01*
X16526Y-22780D01*
X16526Y-22754D01*
X16535Y-22720D01*
X16543Y-22703D01*
X16561Y-22686D01*
X16586Y-22677D01*
X16629Y-22677D01*
X16218Y-22849D02*
X16235Y-22857D01*
X16261Y-22857D01*
X16286Y-22849D01*
X16304Y-22831D01*
X16312Y-22814D01*
X16321Y-22780D01*
X16321Y-22754D01*
X16312Y-22720D01*
X16304Y-22703D01*
X16286Y-22686D01*
X16261Y-22677D01*
X16244Y-22677D01*
X16218Y-22686D01*
X16209Y-22694D01*
X16209Y-22754D01*
X16244Y-22754D01*
X16132Y-22677D02*
X16132Y-22857D01*
X16029Y-22677D01*
X16029Y-22857D01*
X15943Y-22677D02*
X15943Y-22857D01*
X15900Y-22857D01*
X15875Y-22849D01*
X15857Y-22831D01*
X15849Y-22814D01*
X15840Y-22780D01*
X15840Y-22754D01*
X15849Y-22720D01*
X15857Y-22703D01*
X15875Y-22686D01*
X15900Y-22677D01*
X15943Y-22677D01*
X15652Y-22857D02*
X15592Y-22677D01*
X15532Y-22857D01*
X15472Y-22677D02*
X15472Y-22857D01*
X15429Y-22857D01*
X15404Y-22849D01*
X15386Y-22831D01*
X15378Y-22814D01*
X15369Y-22780D01*
X15369Y-22754D01*
X15378Y-22720D01*
X15386Y-22703D01*
X15404Y-22686D01*
X15429Y-22677D01*
X15472Y-22677D01*
X15292Y-22677D02*
X15292Y-22857D01*
X15249Y-22857D01*
X15224Y-22849D01*
X15206Y-22831D01*
X15198Y-22814D01*
X15189Y-22780D01*
X15189Y-22754D01*
X15198Y-22720D01*
X15206Y-22703D01*
X15224Y-22686D01*
X15249Y-22677D01*
X15292Y-22677D01*
G54D13*
X14000Y-21500D02*
X14000Y-21500D01*
X14000Y-21500D02*
X21000Y-21500D01*
X21000Y-21500D02*
X21000Y-22500D01*
X21000Y-22500D02*
X14000Y-22500D01*
X14000Y-22500D02*
X14000Y-21500D01*
X15000Y-22500D02*
X15000Y-22500D01*
X15000Y-22500D02*
X15000Y-21500D01*
X13500Y-30500D02*
X21500Y-30500D01*
X21500Y-30500D02*
X21500Y-31500D01*
X21500Y-31500D02*
X13500Y-31500D01*
X13500Y-31500D02*
X13500Y-30500D01*
X14500Y-31500D02*
X14500Y-30500D01*
X21000Y-30500D02*
X21000Y-22500D01*
X21000Y-22500D02*
X22000Y-22500D01*
X22000Y-22500D02*
X22000Y-30500D01*
X22000Y-30500D02*
X21000Y-30500D01*
X22000Y-29500D02*
X21000Y-29500D01*
X20000Y-30500D02*
X20000Y-22500D01*
X20000Y-22500D02*
X21000Y-22500D01*
X21000Y-22500D02*
X21000Y-30500D01*
X21000Y-30500D02*
X20000Y-30500D01*
X21000Y-29500D02*
X20000Y-29500D01*
X15000Y-22500D02*
X15000Y-30500D01*
X15000Y-30500D02*
X14000Y-30500D01*
X14000Y-30500D02*
X14000Y-22500D01*
X14000Y-22500D02*
X15000Y-22500D01*
X14000Y-23500D02*
X15000Y-23500D01*
X14000Y-22500D02*
X14000Y-30500D01*
X14000Y-30500D02*
X13000Y-30500D01*
X13000Y-30500D02*
X13000Y-22500D01*
X13000Y-22500D02*
X14000Y-22500D01*
X13000Y-23500D02*
X14000Y-23500D01*
G54D14*
X18681Y-29551D02*
X18681Y-23646D01*
X16319Y-29551D02*
X16319Y-23646D01*
X18681Y-29551D02*
X16319Y-29551D01*
X16319Y-23646D02*
X18681Y-23646D01*
X16732Y-23849D02*
X16728Y-23880D01*
X16719Y-23909D01*
X16705Y-23937D01*
X16685Y-23961D01*
X16661Y-23981D01*
X16634Y-23996D01*
X16604Y-24005D01*
X16573Y-24008D01*
X16543Y-24006D01*
X16513Y-23997D01*
X16485Y-23982D01*
X16461Y-23963D01*
X16440Y-23939D01*
X16425Y-23912D01*
X16416Y-23882D01*
X16413Y-23851D01*
X16415Y-23821D01*
X16424Y-23791D01*
X16438Y-23763D01*
X16457Y-23738D01*
X16481Y-23718D01*
X16508Y-23703D01*
X16538Y-23693D01*
X16569Y-23690D01*
X16599Y-23692D01*
X16629Y-23700D01*
X16657Y-23714D01*
X16682Y-23734D01*
X16702Y-23757D01*
X16718Y-23784D01*
X16728Y-23814D01*
X16731Y-23845D01*
X16732Y-23849D01*
X18250Y-29650D02*
X16750Y-29650D01*
X16750Y-29650D02*
X16750Y-30350D01*
X16750Y-30350D02*
X18250Y-30350D01*
X18250Y-29650D02*
X18250Y-30350D01*
X16750Y-29650D02*
X15250Y-29650D01*
X15250Y-29650D02*
X15250Y-30350D01*
X15250Y-30350D02*
X16750Y-30350D01*
X16750Y-29650D02*
X16750Y-30350D01*
X19750Y-29650D02*
X18250Y-29650D01*
X18250Y-29650D02*
X18250Y-30350D01*
X18250Y-30350D02*
X19750Y-30350D01*
X19750Y-29650D02*
X19750Y-30350D01*
G54D15*
X17316Y-22101D02*
X17316Y-21851D01*
X17411Y-21851D01*
X17435Y-21863D01*
X17446Y-21875D01*
X17458Y-21899D01*
X17458Y-21935D01*
X17446Y-21958D01*
X17435Y-21970D01*
X17411Y-21982D01*
X17316Y-21982D01*
X17696Y-22101D02*
X17554Y-22101D01*
X17625Y-22101D02*
X17625Y-21851D01*
X17601Y-21887D01*
X17577Y-21911D01*
X17554Y-21923D01*
G54D14*
X16782Y-22471D02*
X16811Y-22481D01*
X16858Y-22481D01*
X16877Y-22471D01*
X16887Y-22462D01*
X16896Y-22443D01*
X16896Y-22424D01*
X16887Y-22405D01*
X16877Y-22395D01*
X16858Y-22386D01*
X16820Y-22376D01*
X16801Y-22367D01*
X16792Y-22357D01*
X16782Y-22338D01*
X16782Y-22319D01*
X16792Y-22300D01*
X16801Y-22290D01*
X16820Y-22281D01*
X16868Y-22281D01*
X16896Y-22290D01*
X16963Y-22348D02*
X17010Y-22481D01*
X17058Y-22348D02*
X17010Y-22481D01*
X16991Y-22529D01*
X16982Y-22538D01*
X16963Y-22548D01*
X17124Y-22471D02*
X17143Y-22481D01*
X17181Y-22481D01*
X17200Y-22471D01*
X17210Y-22452D01*
X17210Y-22443D01*
X17200Y-22424D01*
X17181Y-22414D01*
X17153Y-22414D01*
X17134Y-22405D01*
X17124Y-22386D01*
X17124Y-22376D01*
X17134Y-22357D01*
X17153Y-22348D01*
X17181Y-22348D01*
X17200Y-22357D01*
X17267Y-22348D02*
X17343Y-22348D01*
X17296Y-22281D02*
X17296Y-22452D01*
X17305Y-22471D01*
X17324Y-22481D01*
X17343Y-22481D01*
X17486Y-22471D02*
X17467Y-22481D01*
X17429Y-22481D01*
X17410Y-22471D01*
X17400Y-22452D01*
X17400Y-22376D01*
X17410Y-22357D01*
X17429Y-22348D01*
X17467Y-22348D01*
X17486Y-22357D01*
X17495Y-22376D01*
X17495Y-22395D01*
X17400Y-22414D01*
X17581Y-22481D02*
X17581Y-22348D01*
X17581Y-22367D02*
X17590Y-22357D01*
X17609Y-22348D01*
X17638Y-22348D01*
X17657Y-22357D01*
X17666Y-22376D01*
X17666Y-22481D01*
X17666Y-22376D02*
X17676Y-22357D01*
X17695Y-22348D01*
X17723Y-22348D01*
X17743Y-22357D01*
X17752Y-22376D01*
X17752Y-22481D01*
X17800Y-22500D02*
X17952Y-22500D01*
X18000Y-22481D02*
X18000Y-22281D01*
X18095Y-22481D02*
X18095Y-22281D01*
X18209Y-22481D01*
X18209Y-22281D01*
G54D15*
X16641Y-31184D02*
X16391Y-31184D01*
X16391Y-31089D01*
X16403Y-31065D01*
X16415Y-31054D01*
X16439Y-31042D01*
X16475Y-31042D01*
X16498Y-31054D01*
X16510Y-31065D01*
X16522Y-31089D01*
X16522Y-31184D01*
X16475Y-30827D02*
X16641Y-30827D01*
X16379Y-30887D02*
X16558Y-30946D01*
X16558Y-30792D01*
G54D14*
X18601Y-31428D02*
X18401Y-31428D01*
X18401Y-31352D01*
X18410Y-31333D01*
X18420Y-31324D01*
X18439Y-31314D01*
X18468Y-31314D01*
X18487Y-31324D01*
X18496Y-31333D01*
X18506Y-31352D01*
X18506Y-31428D01*
X18401Y-31190D02*
X18401Y-31152D01*
X18410Y-31133D01*
X18430Y-31114D01*
X18468Y-31105D01*
X18534Y-31105D01*
X18572Y-31114D01*
X18591Y-31133D01*
X18601Y-31152D01*
X18601Y-31190D01*
X18591Y-31209D01*
X18572Y-31228D01*
X18534Y-31238D01*
X18468Y-31238D01*
X18430Y-31228D01*
X18410Y-31209D01*
X18401Y-31190D01*
X18601Y-30904D02*
X18506Y-30971D01*
X18601Y-31018D02*
X18401Y-31018D01*
X18401Y-30942D01*
X18410Y-30923D01*
X18420Y-30914D01*
X18439Y-30904D01*
X18468Y-30904D01*
X18487Y-30914D01*
X18496Y-30923D01*
X18506Y-30942D01*
X18506Y-31018D01*
X18401Y-30847D02*
X18401Y-30733D01*
X18601Y-30790D02*
X18401Y-30790D01*
X18420Y-30676D02*
X18410Y-30666D01*
X18401Y-30647D01*
X18401Y-30600D01*
X18410Y-30581D01*
X18420Y-30571D01*
X18439Y-30562D01*
X18458Y-30562D01*
X18487Y-30571D01*
X18601Y-30685D01*
X18601Y-30562D01*
G54D15*
X21316Y-25601D02*
X21316Y-25351D01*
X21411Y-25351D01*
X21435Y-25363D01*
X21446Y-25375D01*
X21458Y-25399D01*
X21458Y-25435D01*
X21446Y-25458D01*
X21435Y-25470D01*
X21411Y-25482D01*
X21316Y-25482D01*
X21673Y-25351D02*
X21625Y-25351D01*
X21601Y-25363D01*
X21589Y-25375D01*
X21566Y-25411D01*
X21554Y-25458D01*
X21554Y-25554D01*
X21566Y-25577D01*
X21577Y-25589D01*
X21601Y-25601D01*
X21649Y-25601D01*
X21673Y-25589D01*
X21685Y-25577D01*
X21696Y-25554D01*
X21696Y-25494D01*
X21685Y-25470D01*
X21673Y-25458D01*
X21649Y-25446D01*
X21601Y-25446D01*
X21577Y-25458D01*
X21566Y-25470D01*
X21554Y-25494D01*
G54D14*
X21072Y-27581D02*
X21072Y-27381D01*
X21148Y-27381D01*
X21167Y-27390D01*
X21176Y-27400D01*
X21186Y-27419D01*
X21186Y-27448D01*
X21176Y-27467D01*
X21167Y-27476D01*
X21148Y-27486D01*
X21072Y-27486D01*
X21310Y-27381D02*
X21348Y-27381D01*
X21367Y-27390D01*
X21386Y-27410D01*
X21395Y-27448D01*
X21395Y-27514D01*
X21386Y-27552D01*
X21367Y-27571D01*
X21348Y-27581D01*
X21310Y-27581D01*
X21291Y-27571D01*
X21272Y-27552D01*
X21262Y-27514D01*
X21262Y-27448D01*
X21272Y-27410D01*
X21291Y-27390D01*
X21310Y-27381D01*
X21596Y-27581D02*
X21529Y-27486D01*
X21482Y-27581D02*
X21482Y-27381D01*
X21558Y-27381D01*
X21577Y-27390D01*
X21586Y-27400D01*
X21596Y-27419D01*
X21596Y-27448D01*
X21586Y-27467D01*
X21577Y-27476D01*
X21558Y-27486D01*
X21482Y-27486D01*
X21653Y-27381D02*
X21767Y-27381D01*
X21710Y-27581D02*
X21710Y-27381D01*
X21919Y-27448D02*
X21919Y-27581D01*
X21872Y-27371D02*
X21824Y-27514D01*
X21948Y-27514D01*
G54D15*
X20316Y-25601D02*
X20316Y-25351D01*
X20411Y-25351D01*
X20435Y-25363D01*
X20446Y-25375D01*
X20458Y-25399D01*
X20458Y-25435D01*
X20446Y-25458D01*
X20435Y-25470D01*
X20411Y-25482D01*
X20316Y-25482D01*
X20685Y-25351D02*
X20566Y-25351D01*
X20554Y-25470D01*
X20566Y-25458D01*
X20589Y-25446D01*
X20649Y-25446D01*
X20673Y-25458D01*
X20685Y-25470D01*
X20696Y-25494D01*
X20696Y-25554D01*
X20685Y-25577D01*
X20673Y-25589D01*
X20649Y-25601D01*
X20589Y-25601D01*
X20566Y-25589D01*
X20554Y-25577D01*
G54D14*
X20072Y-27581D02*
X20072Y-27381D01*
X20148Y-27381D01*
X20167Y-27390D01*
X20176Y-27400D01*
X20186Y-27419D01*
X20186Y-27448D01*
X20176Y-27467D01*
X20167Y-27476D01*
X20148Y-27486D01*
X20072Y-27486D01*
X20310Y-27381D02*
X20348Y-27381D01*
X20367Y-27390D01*
X20386Y-27410D01*
X20395Y-27448D01*
X20395Y-27514D01*
X20386Y-27552D01*
X20367Y-27571D01*
X20348Y-27581D01*
X20310Y-27581D01*
X20291Y-27571D01*
X20272Y-27552D01*
X20262Y-27514D01*
X20262Y-27448D01*
X20272Y-27410D01*
X20291Y-27390D01*
X20310Y-27381D01*
X20596Y-27581D02*
X20529Y-27486D01*
X20482Y-27581D02*
X20482Y-27381D01*
X20558Y-27381D01*
X20577Y-27390D01*
X20586Y-27400D01*
X20596Y-27419D01*
X20596Y-27448D01*
X20586Y-27467D01*
X20577Y-27476D01*
X20558Y-27486D01*
X20482Y-27486D01*
X20653Y-27381D02*
X20767Y-27381D01*
X20710Y-27581D02*
X20710Y-27381D01*
X20815Y-27381D02*
X20938Y-27381D01*
X20872Y-27457D01*
X20900Y-27457D01*
X20919Y-27467D01*
X20929Y-27476D01*
X20938Y-27495D01*
X20938Y-27543D01*
X20929Y-27562D01*
X20919Y-27571D01*
X20900Y-27581D01*
X20843Y-27581D01*
X20824Y-27571D01*
X20815Y-27562D01*
G54D15*
X14316Y-25601D02*
X14316Y-25351D01*
X14411Y-25351D01*
X14435Y-25363D01*
X14446Y-25375D01*
X14458Y-25399D01*
X14458Y-25435D01*
X14446Y-25458D01*
X14435Y-25470D01*
X14411Y-25482D01*
X14316Y-25482D01*
X14554Y-25375D02*
X14566Y-25363D01*
X14589Y-25351D01*
X14649Y-25351D01*
X14673Y-25363D01*
X14685Y-25375D01*
X14696Y-25399D01*
X14696Y-25423D01*
X14685Y-25458D01*
X14542Y-25601D01*
X14696Y-25601D01*
G54D14*
X14072Y-27581D02*
X14072Y-27381D01*
X14148Y-27381D01*
X14167Y-27390D01*
X14176Y-27400D01*
X14186Y-27419D01*
X14186Y-27448D01*
X14176Y-27467D01*
X14167Y-27476D01*
X14148Y-27486D01*
X14072Y-27486D01*
X14310Y-27381D02*
X14348Y-27381D01*
X14367Y-27390D01*
X14386Y-27410D01*
X14395Y-27448D01*
X14395Y-27514D01*
X14386Y-27552D01*
X14367Y-27571D01*
X14348Y-27581D01*
X14310Y-27581D01*
X14291Y-27571D01*
X14272Y-27552D01*
X14262Y-27514D01*
X14262Y-27448D01*
X14272Y-27410D01*
X14291Y-27390D01*
X14310Y-27381D01*
X14596Y-27581D02*
X14529Y-27486D01*
X14482Y-27581D02*
X14482Y-27381D01*
X14558Y-27381D01*
X14577Y-27390D01*
X14586Y-27400D01*
X14596Y-27419D01*
X14596Y-27448D01*
X14586Y-27467D01*
X14577Y-27476D01*
X14558Y-27486D01*
X14482Y-27486D01*
X14653Y-27381D02*
X14767Y-27381D01*
X14710Y-27581D02*
X14710Y-27381D01*
X14872Y-27381D02*
X14891Y-27381D01*
X14910Y-27390D01*
X14919Y-27400D01*
X14929Y-27419D01*
X14938Y-27457D01*
X14938Y-27505D01*
X14929Y-27543D01*
X14919Y-27562D01*
X14910Y-27571D01*
X14891Y-27581D01*
X14872Y-27581D01*
X14853Y-27571D01*
X14843Y-27562D01*
X14834Y-27543D01*
X14824Y-27505D01*
X14824Y-27457D01*
X14834Y-27419D01*
X14843Y-27400D01*
X14853Y-27390D01*
X14872Y-27381D01*
G54D15*
X13316Y-25601D02*
X13316Y-25351D01*
X13411Y-25351D01*
X13435Y-25363D01*
X13446Y-25375D01*
X13458Y-25399D01*
X13458Y-25435D01*
X13446Y-25458D01*
X13435Y-25470D01*
X13411Y-25482D01*
X13316Y-25482D01*
X13542Y-25351D02*
X13696Y-25351D01*
X13613Y-25446D01*
X13649Y-25446D01*
X13673Y-25458D01*
X13685Y-25470D01*
X13696Y-25494D01*
X13696Y-25554D01*
X13685Y-25577D01*
X13673Y-25589D01*
X13649Y-25601D01*
X13577Y-25601D01*
X13554Y-25589D01*
X13542Y-25577D01*
G54D14*
X13072Y-27581D02*
X13072Y-27381D01*
X13148Y-27381D01*
X13167Y-27390D01*
X13176Y-27400D01*
X13186Y-27419D01*
X13186Y-27448D01*
X13176Y-27467D01*
X13167Y-27476D01*
X13148Y-27486D01*
X13072Y-27486D01*
X13310Y-27381D02*
X13348Y-27381D01*
X13367Y-27390D01*
X13386Y-27410D01*
X13395Y-27448D01*
X13395Y-27514D01*
X13386Y-27552D01*
X13367Y-27571D01*
X13348Y-27581D01*
X13310Y-27581D01*
X13291Y-27571D01*
X13272Y-27552D01*
X13262Y-27514D01*
X13262Y-27448D01*
X13272Y-27410D01*
X13291Y-27390D01*
X13310Y-27381D01*
X13596Y-27581D02*
X13529Y-27486D01*
X13482Y-27581D02*
X13482Y-27381D01*
X13558Y-27381D01*
X13577Y-27390D01*
X13586Y-27400D01*
X13596Y-27419D01*
X13596Y-27448D01*
X13586Y-27467D01*
X13577Y-27476D01*
X13558Y-27486D01*
X13482Y-27486D01*
X13653Y-27381D02*
X13767Y-27381D01*
X13710Y-27581D02*
X13710Y-27381D01*
X13938Y-27581D02*
X13824Y-27581D01*
X13881Y-27581D02*
X13881Y-27381D01*
X13862Y-27410D01*
X13843Y-27429D01*
X13824Y-27438D01*
G54D16*
X17101Y-26690D02*
X17304Y-26690D01*
X17327Y-26679D01*
X17339Y-26667D01*
X17351Y-26643D01*
X17351Y-26595D01*
X17339Y-26571D01*
X17327Y-26560D01*
X17304Y-26548D01*
X17101Y-26548D01*
X17351Y-26298D02*
X17351Y-26440D01*
X17351Y-26369D02*
X17101Y-26369D01*
X17137Y-26393D01*
X17161Y-26417D01*
X17173Y-26440D01*
X18111Y-27413D02*
X17816Y-27413D01*
X17816Y-27300D01*
X17830Y-27272D01*
X17844Y-27258D01*
X17872Y-27244D01*
X17914Y-27244D01*
X17942Y-27258D01*
X17956Y-27272D01*
X17970Y-27300D01*
X17970Y-27413D01*
X18083Y-26949D02*
X18097Y-26963D01*
X18111Y-27005D01*
X18111Y-27033D01*
X18097Y-27076D01*
X18069Y-27104D01*
X18041Y-27118D01*
X17984Y-27132D01*
X17942Y-27132D01*
X17886Y-27118D01*
X17858Y-27104D01*
X17830Y-27076D01*
X17816Y-27033D01*
X17816Y-27005D01*
X17830Y-26963D01*
X17844Y-26949D01*
X18027Y-26837D02*
X18027Y-26696D01*
X18111Y-26865D02*
X17816Y-26767D01*
X18111Y-26668D01*
X18111Y-26556D02*
X18111Y-26500D01*
X18097Y-26471D01*
X18083Y-26457D01*
X18041Y-26429D01*
X17984Y-26415D01*
X17872Y-26415D01*
X17844Y-26429D01*
X17830Y-26443D01*
X17816Y-26471D01*
X17816Y-26528D01*
X17830Y-26556D01*
X17844Y-26570D01*
X17872Y-26584D01*
X17942Y-26584D01*
X17970Y-26570D01*
X17984Y-26556D01*
X17999Y-26528D01*
X17999Y-26471D01*
X17984Y-26443D01*
X17970Y-26429D01*
X17942Y-26415D01*
X17816Y-26162D02*
X17816Y-26219D01*
X17830Y-26247D01*
X17844Y-26261D01*
X17886Y-26289D01*
X17942Y-26303D01*
X18055Y-26303D01*
X18083Y-26289D01*
X18097Y-26275D01*
X18111Y-26247D01*
X18111Y-26190D01*
X18097Y-26162D01*
X18083Y-26148D01*
X18055Y-26134D01*
X17984Y-26134D01*
X17956Y-26148D01*
X17942Y-26162D01*
X17928Y-26190D01*
X17928Y-26247D01*
X17942Y-26275D01*
X17956Y-26289D01*
X17984Y-26303D01*
X18111Y-25994D02*
X18111Y-25938D01*
X18097Y-25909D01*
X18083Y-25895D01*
X18041Y-25867D01*
X17984Y-25853D01*
X17872Y-25853D01*
X17844Y-25867D01*
X17830Y-25881D01*
X17816Y-25909D01*
X17816Y-25966D01*
X17830Y-25994D01*
X17844Y-26008D01*
X17872Y-26022D01*
X17942Y-26022D01*
X17970Y-26008D01*
X17984Y-25994D01*
X17999Y-25966D01*
X17999Y-25909D01*
X17984Y-25881D01*
X17970Y-25867D01*
X17942Y-25853D01*
X17942Y-25685D02*
X17928Y-25713D01*
X17914Y-25727D01*
X17886Y-25741D01*
X17872Y-25741D01*
X17844Y-25727D01*
X17830Y-25713D01*
X17816Y-25685D01*
X17816Y-25628D01*
X17830Y-25600D01*
X17844Y-25586D01*
X17872Y-25572D01*
X17886Y-25572D01*
X17914Y-25586D01*
X17928Y-25600D01*
X17942Y-25628D01*
X17942Y-25685D01*
X17956Y-25713D01*
X17970Y-25727D01*
X17999Y-25741D01*
X18055Y-25741D01*
X18083Y-25727D01*
X18097Y-25713D01*
X18111Y-25685D01*
X18111Y-25628D01*
X18097Y-25600D01*
X18083Y-25586D01*
X18055Y-25572D01*
X17999Y-25572D01*
X17970Y-25586D01*
X17956Y-25600D01*
X17942Y-25628D01*
G54D14*
X17362Y-29310D02*
X17343Y-29301D01*
X17315Y-29301D01*
X17286Y-29310D01*
X17267Y-29330D01*
X17258Y-29349D01*
X17248Y-29387D01*
X17248Y-29415D01*
X17258Y-29453D01*
X17267Y-29472D01*
X17286Y-29491D01*
X17315Y-29501D01*
X17334Y-29501D01*
X17362Y-29491D01*
X17372Y-29482D01*
X17372Y-29415D01*
X17334Y-29415D01*
X17448Y-29491D02*
X17477Y-29501D01*
X17524Y-29501D01*
X17543Y-29491D01*
X17553Y-29482D01*
X17562Y-29463D01*
X17562Y-29444D01*
X17553Y-29425D01*
X17543Y-29415D01*
X17524Y-29406D01*
X17486Y-29396D01*
X17467Y-29387D01*
X17458Y-29377D01*
X17448Y-29358D01*
X17448Y-29339D01*
X17458Y-29320D01*
X17467Y-29310D01*
X17486Y-29301D01*
X17534Y-29301D01*
X17562Y-29310D01*
X17752Y-29501D02*
X17638Y-29501D01*
X17695Y-29501D02*
X17695Y-29301D01*
X17676Y-29330D01*
X17657Y-29349D01*
X17638Y-29358D01*
G54D17*
X17418Y-30104D02*
X17411Y-30118D01*
X17411Y-30139D01*
X17418Y-30161D01*
X17432Y-30175D01*
X17446Y-30182D01*
X17475Y-30189D01*
X17496Y-30189D01*
X17525Y-30182D01*
X17539Y-30175D01*
X17554Y-30161D01*
X17561Y-30139D01*
X17561Y-30125D01*
X17554Y-30104D01*
X17546Y-30097D01*
X17496Y-30097D01*
X17496Y-30125D01*
X17554Y-30039D02*
X17561Y-30018D01*
X17561Y-29982D01*
X17554Y-29968D01*
X17546Y-29961D01*
X17532Y-29954D01*
X17518Y-29954D01*
X17504Y-29961D01*
X17496Y-29968D01*
X17489Y-29982D01*
X17482Y-30011D01*
X17475Y-30025D01*
X17468Y-30032D01*
X17454Y-30039D01*
X17439Y-30039D01*
X17425Y-30032D01*
X17418Y-30025D01*
X17411Y-30011D01*
X17411Y-29975D01*
X17418Y-29954D01*
X17411Y-29904D02*
X17411Y-29811D01*
X17468Y-29861D01*
X17468Y-29839D01*
X17475Y-29825D01*
X17482Y-29818D01*
X17496Y-29811D01*
X17532Y-29811D01*
X17546Y-29818D01*
X17554Y-29825D01*
X17561Y-29839D01*
X17561Y-29882D01*
X17554Y-29896D01*
X17546Y-29904D01*
G54D14*
X15862Y-29410D02*
X15843Y-29401D01*
X15815Y-29401D01*
X15786Y-29410D01*
X15767Y-29430D01*
X15758Y-29449D01*
X15748Y-29487D01*
X15748Y-29515D01*
X15758Y-29553D01*
X15767Y-29572D01*
X15786Y-29591D01*
X15815Y-29601D01*
X15834Y-29601D01*
X15862Y-29591D01*
X15872Y-29582D01*
X15872Y-29515D01*
X15834Y-29515D01*
X15948Y-29591D02*
X15977Y-29601D01*
X16024Y-29601D01*
X16043Y-29591D01*
X16053Y-29582D01*
X16062Y-29563D01*
X16062Y-29544D01*
X16053Y-29525D01*
X16043Y-29515D01*
X16024Y-29506D01*
X15986Y-29496D01*
X15967Y-29487D01*
X15958Y-29477D01*
X15948Y-29458D01*
X15948Y-29439D01*
X15958Y-29420D01*
X15967Y-29410D01*
X15986Y-29401D01*
X16034Y-29401D01*
X16062Y-29410D01*
X16138Y-29420D02*
X16148Y-29410D01*
X16167Y-29401D01*
X16214Y-29401D01*
X16233Y-29410D01*
X16243Y-29420D01*
X16252Y-29439D01*
X16252Y-29458D01*
X16243Y-29487D01*
X16129Y-29601D01*
X16252Y-29601D01*
G54D17*
X15918Y-30084D02*
X15911Y-30098D01*
X15911Y-30119D01*
X15918Y-30141D01*
X15932Y-30155D01*
X15946Y-30162D01*
X15975Y-30169D01*
X15996Y-30169D01*
X16025Y-30162D01*
X16039Y-30155D01*
X16054Y-30141D01*
X16061Y-30119D01*
X16061Y-30105D01*
X16054Y-30084D01*
X16046Y-30077D01*
X15996Y-30077D01*
X15996Y-30105D01*
X16054Y-30019D02*
X16061Y-29998D01*
X16061Y-29962D01*
X16054Y-29948D01*
X16046Y-29941D01*
X16032Y-29934D01*
X16018Y-29934D01*
X16004Y-29941D01*
X15996Y-29948D01*
X15989Y-29962D01*
X15982Y-29991D01*
X15975Y-30005D01*
X15968Y-30012D01*
X15954Y-30019D01*
X15939Y-30019D01*
X15925Y-30012D01*
X15918Y-30005D01*
X15911Y-29991D01*
X15911Y-29955D01*
X15918Y-29934D01*
X15911Y-29884D02*
X15911Y-29791D01*
X15968Y-29841D01*
X15968Y-29819D01*
X15975Y-29805D01*
X15982Y-29798D01*
X15996Y-29791D01*
X16032Y-29791D01*
X16046Y-29798D01*
X16054Y-29805D01*
X16061Y-29819D01*
X16061Y-29862D01*
X16054Y-29876D01*
X16046Y-29884D01*
G54D14*
X18862Y-29410D02*
X18843Y-29401D01*
X18815Y-29401D01*
X18786Y-29410D01*
X18767Y-29430D01*
X18758Y-29449D01*
X18748Y-29487D01*
X18748Y-29515D01*
X18758Y-29553D01*
X18767Y-29572D01*
X18786Y-29591D01*
X18815Y-29601D01*
X18834Y-29601D01*
X18862Y-29591D01*
X18872Y-29582D01*
X18872Y-29515D01*
X18834Y-29515D01*
X18948Y-29591D02*
X18977Y-29601D01*
X19024Y-29601D01*
X19043Y-29591D01*
X19053Y-29582D01*
X19062Y-29563D01*
X19062Y-29544D01*
X19053Y-29525D01*
X19043Y-29515D01*
X19024Y-29506D01*
X18986Y-29496D01*
X18967Y-29487D01*
X18958Y-29477D01*
X18948Y-29458D01*
X18948Y-29439D01*
X18958Y-29420D01*
X18967Y-29410D01*
X18986Y-29401D01*
X19034Y-29401D01*
X19062Y-29410D01*
X19129Y-29401D02*
X19252Y-29401D01*
X19186Y-29477D01*
X19214Y-29477D01*
X19233Y-29487D01*
X19243Y-29496D01*
X19252Y-29515D01*
X19252Y-29563D01*
X19243Y-29582D01*
X19233Y-29591D01*
X19214Y-29601D01*
X19157Y-29601D01*
X19138Y-29591D01*
X19129Y-29582D01*
G54D17*
X18938Y-30104D02*
X18931Y-30118D01*
X18931Y-30139D01*
X18938Y-30161D01*
X18952Y-30175D01*
X18966Y-30182D01*
X18995Y-30189D01*
X19016Y-30189D01*
X19045Y-30182D01*
X19059Y-30175D01*
X19074Y-30161D01*
X19081Y-30139D01*
X19081Y-30125D01*
X19074Y-30104D01*
X19066Y-30097D01*
X19016Y-30097D01*
X19016Y-30125D01*
X19074Y-30039D02*
X19081Y-30018D01*
X19081Y-29982D01*
X19074Y-29968D01*
X19066Y-29961D01*
X19052Y-29954D01*
X19038Y-29954D01*
X19024Y-29961D01*
X19016Y-29968D01*
X19009Y-29982D01*
X19002Y-30011D01*
X18995Y-30025D01*
X18988Y-30032D01*
X18974Y-30039D01*
X18959Y-30039D01*
X18945Y-30032D01*
X18938Y-30025D01*
X18931Y-30011D01*
X18931Y-29975D01*
X18938Y-29954D01*
X18931Y-29904D02*
X18931Y-29811D01*
X18988Y-29861D01*
X18988Y-29839D01*
X18995Y-29825D01*
X19002Y-29818D01*
X19016Y-29811D01*
X19052Y-29811D01*
X19066Y-29818D01*
X19074Y-29825D01*
X19081Y-29839D01*
X19081Y-29882D01*
X19074Y-29896D01*
X19066Y-29904D01*
G54D18*
X17514Y-24520D02*
X17486Y-24520D01*
X17500Y-24520D02*
X17500Y-24470D01*
X17495Y-24477D01*
X17490Y-24482D01*
X17486Y-24485D01*
G54D19*
M02*
