M48
;DRILL file {Pcbnew (2012-apr-16-27)-stable} date dim. 02 juin 2013 12:17:10 CST
;FORMAT={-:-/ absolute / inch / decimal}
FMAT,2
INCH,TZ
T1C0.013
T2C0.019
T3C0.025
T4C0.030
T5C0.032
T6C0.034
T7C0.040
T8C0.060
T9C0.120
%
G90
G05
M72
T1
X0.687Y-2.075
X0.688Y-2.190
X0.707Y-1.923
X0.711Y-2.034
X0.745Y-2.054
X0.762Y-2.014
X0.823Y-1.851
X0.998Y-1.678
X1.069Y-1.375
X1.095Y-1.399
X1.120Y-1.411
X1.157Y-1.453
X1.194Y-1.512
X1.196Y-1.538
X1.196Y-1.604
X1.197Y-1.297
X1.199Y-1.577
X1.229Y-0.910
X1.236Y-0.878
X1.311Y-1.317
X1.341Y-1.787
X1.357Y-1.811
X1.371Y-1.210
X1.381Y-0.853
X1.402Y-1.456
X1.405Y-1.594
X1.418Y-0.926
X1.454Y-1.177
X1.493Y-2.000
X1.505Y-1.974
X1.524Y-2.044
X1.535Y-1.638
X1.538Y-1.397
X1.581Y-1.443
X1.607Y-1.440
X1.608Y-1.684
X1.626Y-1.657
X1.646Y-1.446
X1.650Y-1.552
X1.655Y-1.620
X1.660Y-1.678
X1.663Y-1.830
X1.671Y-1.392
X1.673Y-2.204
X1.677Y-1.698
X1.678Y-1.552
X1.685Y-1.443
X1.703Y-1.832
X1.706Y-2.010
X1.723Y-1.432
X1.731Y-1.830
X1.758Y-1.785
X1.764Y-1.827
X1.777Y-1.434
X1.790Y-0.807
X1.791Y-1.972
X1.793Y-0.834
X1.805Y-1.826
X1.827Y-0.866
X1.832Y-0.837
X1.856Y-1.826
X1.869Y-1.571
X1.941Y-1.545
X1.941Y-1.468
X1.965Y-1.415
X1.969Y-1.649
X1.975Y-1.700
X1.975Y-1.617
X1.980Y-1.767
X1.983Y-1.274
X1.989Y-1.814
X1.996Y-1.880
X1.996Y-1.992
X2.025Y-1.886
X2.035Y-2.126
X2.113Y-1.397
X2.199Y-2.651
X2.364Y-1.980
X2.401Y-1.587
X2.510Y-1.607
T2
X0.952Y-2.355
X1.286Y-2.209
X1.288Y-1.912
X1.305Y-2.178
X1.326Y-1.993
X1.381Y-1.550
X1.389Y-2.185
X1.495Y-2.170
X1.515Y-2.420
X1.547Y-1.703
X1.703Y-2.171
X1.723Y-1.762
X1.780Y-2.184
X1.813Y-1.697
X1.852Y-2.067
X1.853Y-2.102
X1.952Y-2.224
T3
X1.208Y-2.447
X1.417Y-2.347
X2.093Y-2.051
X2.452Y-2.111
T4
X1.500Y-1.160
X1.700Y-1.160
T5
X0.850Y-1.075
X0.850Y-1.175
X0.850Y-1.325
X0.850Y-1.925
X0.850Y-2.125
X0.850Y-2.270
X0.950Y-1.325
X0.950Y-1.925
X0.950Y-2.125
X0.950Y-2.270
X1.050Y-0.775
X1.050Y-0.875
X1.070Y-2.270
X1.100Y-1.855
X1.100Y-2.155
X1.150Y-0.775
X1.150Y-0.875
X1.170Y-2.270
X1.300Y-0.675
X1.300Y-0.975
X1.300Y-1.075
X1.300Y-1.175
X1.350Y-2.370
X1.450Y-2.080
X1.550Y-0.990
X1.550Y-2.080
X1.600Y-0.710
X1.600Y-0.810
X1.650Y-0.990
X1.650Y-2.080
X1.750Y-2.080
X1.850Y-2.370
X1.900Y-0.675
X1.900Y-0.975
X1.900Y-1.075
X1.900Y-1.175
X2.030Y-2.270
X2.050Y-0.775
X2.050Y-0.875
X2.100Y-1.855
X2.100Y-2.155
X2.130Y-2.270
X2.150Y-0.775
X2.150Y-0.875
X2.250Y-1.325
X2.250Y-1.925
X2.250Y-2.125
X2.250Y-2.270
X2.350Y-1.075
X2.350Y-1.175
X2.350Y-1.325
X2.350Y-1.925
X2.350Y-2.125
X2.350Y-2.270
T6
X0.550Y-0.675
X0.550Y-0.775
X0.550Y-0.875
X0.550Y-0.975
X0.550Y-1.075
X0.550Y-1.175
X0.550Y-1.275
X0.550Y-1.375
X0.550Y-1.475
X0.550Y-1.575
X0.550Y-1.675
X0.550Y-1.775
X0.550Y-1.875
X0.550Y-1.975
X0.550Y-2.075
X0.550Y-2.175
X0.550Y-2.275
X0.550Y-2.375
X0.550Y-2.475
X0.550Y-2.575
X0.650Y-0.575
X0.650Y-2.675
X0.750Y-0.575
X0.750Y-2.675
X0.850Y-0.575
X0.850Y-2.675
X0.950Y-0.575
X0.950Y-2.675
X1.000Y-1.075
X1.000Y-1.175
X1.050Y-0.575
X1.050Y-2.675
X1.080Y-1.530
X1.080Y-1.630
X1.080Y-1.730
X1.100Y-1.075
X1.100Y-1.175
X1.150Y-0.575
X1.150Y-2.675
X1.250Y-0.575
X1.250Y-2.675
X1.350Y-0.575
X1.350Y-2.675
X1.450Y-0.575
X1.550Y-0.575
X1.650Y-0.575
X1.750Y-0.575
X1.850Y-0.575
X1.850Y-2.675
X1.950Y-0.575
X1.950Y-2.675
X2.050Y-0.575
X2.050Y-2.675
X2.100Y-1.075
X2.100Y-1.175
X2.120Y-1.530
X2.120Y-1.630
X2.120Y-1.730
X2.150Y-0.575
X2.150Y-2.675
X2.200Y-1.075
X2.200Y-1.175
X2.250Y-0.575
X2.250Y-2.675
X2.350Y-0.575
X2.350Y-2.675
X2.450Y-0.575
X2.450Y-2.675
X2.550Y-0.575
X2.550Y-2.675
X2.650Y-0.675
X2.650Y-0.775
X2.650Y-0.875
X2.650Y-0.975
X2.650Y-1.075
X2.650Y-1.175
X2.650Y-1.275
X2.650Y-1.375
X2.650Y-1.475
X2.650Y-1.575
X2.650Y-1.675
X2.650Y-1.775
X2.650Y-1.875
X2.650Y-1.975
X2.650Y-2.075
X2.650Y-2.175
X2.650Y-2.275
X2.650Y-2.375
X2.650Y-2.475
X2.650Y-2.575
T7
X0.950Y-2.455
X0.950Y-2.555
X1.350Y-2.455
X1.350Y-2.555
X1.850Y-2.455
X1.850Y-2.555
X2.250Y-2.455
X2.250Y-2.555
T8
X1.500Y-2.575
X1.700Y-2.575
T9
X0.800Y-0.825
X0.800Y-2.425
X2.400Y-0.825
X2.400Y-2.425
T0
M30
