G04 (created by PCBNEW-RS274X (2012-apr-16-27)-stable) date dim. 02 juin 2013 12:50:08 CST*
G01*
G70*
G90*
%MOIN*%
G04 Gerber Fmt 3.4, Leading zero omitted, Abs format*
%FSLAX34Y34*%
G04 APERTURE LIST*
%ADD10C,0.006000*%
%ADD11C,0.120000*%
%ADD12C,0.075000*%
%ADD13C,0.080000*%
%ADD14R,0.075000X0.075000*%
%ADD15C,0.086000*%
%ADD16C,0.076000*%
%ADD17C,0.180000*%
%ADD18C,0.090000*%
%ADD19R,0.090000X0.090000*%
G04 APERTURE END LIST*
G54D10*
G54D11*
X17000Y-25750D03*
X15000Y-25750D03*
G54D12*
X06500Y-26750D03*
X07500Y-26750D03*
X08500Y-26750D03*
X09500Y-26750D03*
X10500Y-26750D03*
X11500Y-26750D03*
X12500Y-26750D03*
X13500Y-26750D03*
X18500Y-26750D03*
X19500Y-26750D03*
X20500Y-26750D03*
X21500Y-26750D03*
X22500Y-26750D03*
X23500Y-26750D03*
X24500Y-26750D03*
X25500Y-26750D03*
G54D13*
X22000Y-10750D03*
X22000Y-11750D03*
X21000Y-10750D03*
X21000Y-11750D03*
G54D14*
X10000Y-11750D03*
G54D12*
X11000Y-11750D03*
G54D14*
X10000Y-10750D03*
G54D12*
X11000Y-10750D03*
G54D14*
X21200Y-17300D03*
G54D12*
X21200Y-16300D03*
X21200Y-15300D03*
G54D14*
X10800Y-17300D03*
G54D12*
X10800Y-16300D03*
X10800Y-15300D03*
G54D14*
X05500Y-16750D03*
G54D12*
X05500Y-17750D03*
X05500Y-18750D03*
X05500Y-19750D03*
X05500Y-20750D03*
X05500Y-21750D03*
X05500Y-22750D03*
X05500Y-23750D03*
X05500Y-24750D03*
X05500Y-25750D03*
G54D14*
X26500Y-25750D03*
G54D12*
X26500Y-24750D03*
X26500Y-23750D03*
X26500Y-22750D03*
X26500Y-21750D03*
X26500Y-20750D03*
X26500Y-19750D03*
X26500Y-18750D03*
X26500Y-17750D03*
X26500Y-16750D03*
G54D14*
X26500Y-15750D03*
G54D12*
X26500Y-14750D03*
X26500Y-13750D03*
X26500Y-12750D03*
X26500Y-11750D03*
X26500Y-10750D03*
X26500Y-09750D03*
X26500Y-08750D03*
X26500Y-07750D03*
X26500Y-06750D03*
G54D14*
X25500Y-05750D03*
G54D12*
X24500Y-05750D03*
X23500Y-05750D03*
X22500Y-05750D03*
X21500Y-05750D03*
X20500Y-05750D03*
X19500Y-05750D03*
X18500Y-05750D03*
X17500Y-05750D03*
X16500Y-05750D03*
G54D14*
X15500Y-05750D03*
G54D12*
X14500Y-05750D03*
X13500Y-05750D03*
X12500Y-05750D03*
X11500Y-05750D03*
X10500Y-05750D03*
X09500Y-05750D03*
X08500Y-05750D03*
X07500Y-05750D03*
X06500Y-05750D03*
G54D14*
X05500Y-06750D03*
G54D12*
X05500Y-07750D03*
X05500Y-08750D03*
X05500Y-09750D03*
X05500Y-10750D03*
X05500Y-11750D03*
X05500Y-12750D03*
X05500Y-13750D03*
X05500Y-14750D03*
X05500Y-15750D03*
G54D15*
X16000Y-07100D03*
X16000Y-08100D03*
G54D14*
X14500Y-20800D03*
G54D12*
X15500Y-20800D03*
X16500Y-20800D03*
X17500Y-20800D03*
X19000Y-09750D03*
X19000Y-06750D03*
X11000Y-18550D03*
X11000Y-21550D03*
X21000Y-18550D03*
X21000Y-21550D03*
G54D16*
X17000Y-11600D03*
X15000Y-11600D03*
G54D14*
X09500Y-19250D03*
G54D12*
X08500Y-19250D03*
G54D14*
X23500Y-19250D03*
G54D12*
X22500Y-19250D03*
X23500Y-11750D03*
X23500Y-10750D03*
X08500Y-21250D03*
X09500Y-21250D03*
X09500Y-22700D03*
X08500Y-22700D03*
X20300Y-22700D03*
X21300Y-22700D03*
X21500Y-08750D03*
X20500Y-08750D03*
X10500Y-08750D03*
X11500Y-08750D03*
X15500Y-09900D03*
X16500Y-09900D03*
X08500Y-11750D03*
X08500Y-10750D03*
X19000Y-11750D03*
X19000Y-10750D03*
X13000Y-10750D03*
X13000Y-11750D03*
X23500Y-13250D03*
X22500Y-13250D03*
X22500Y-21250D03*
X23500Y-21250D03*
X09500Y-13250D03*
X08500Y-13250D03*
X10700Y-22700D03*
X11700Y-22700D03*
X23500Y-22700D03*
X22500Y-22700D03*
X20500Y-07750D03*
X21500Y-07750D03*
X10500Y-07750D03*
X11500Y-07750D03*
G54D17*
X08000Y-24250D03*
X24000Y-24250D03*
X08000Y-08250D03*
X24000Y-08250D03*
G54D12*
X13000Y-09750D03*
X13000Y-06750D03*
G54D13*
X18500Y-23700D03*
X13500Y-23700D03*
G54D18*
X09500Y-24550D03*
G54D19*
X13500Y-24550D03*
G54D18*
X09500Y-25550D03*
G54D19*
X13500Y-25550D03*
G54D18*
X18500Y-24550D03*
G54D19*
X22500Y-24550D03*
G54D18*
X18500Y-25550D03*
G54D19*
X22500Y-25550D03*
M02*
