G04 (created by PCBNEW-RS274X (2012-apr-16-27)-stable) date dim. 02 juin 2013 12:50:08 CST*
G01*
G70*
G90*
%MOIN*%
G04 Gerber Fmt 3.4, Leading zero omitted, Abs format*
%FSLAX34Y34*%
G04 APERTURE LIST*
%ADD10C,0.006000*%
%ADD11C,0.100000*%
%ADD12C,0.055000*%
%ADD13C,0.060000*%
%ADD14R,0.055000X0.055000*%
%ADD15C,0.066000*%
%ADD16R,0.040000X0.010000*%
%ADD17R,0.010000X0.040000*%
%ADD18R,0.015700X0.041300*%
%ADD19R,0.144000X0.080000*%
%ADD20R,0.040000X0.080000*%
%ADD21C,0.056000*%
%ADD22C,0.160000*%
%ADD23R,0.038000X0.050000*%
%ADD24C,0.070000*%
%ADD25R,0.070000X0.070000*%
%ADD26C,0.045000*%
%ADD27C,0.026000*%
%ADD28C,0.020000*%
%ADD29C,0.012000*%
%ADD30C,0.008200*%
%ADD31C,0.050000*%
%ADD32C,0.011900*%
G04 APERTURE END LIST*
G54D10*
G54D11*
X17000Y-25750D03*
X15000Y-25750D03*
G54D12*
X06500Y-26750D03*
X07500Y-26750D03*
X08500Y-26750D03*
X09500Y-26750D03*
X10500Y-26750D03*
X11500Y-26750D03*
X12500Y-26750D03*
X13500Y-26750D03*
X18500Y-26750D03*
X19500Y-26750D03*
X20500Y-26750D03*
X21500Y-26750D03*
X22500Y-26750D03*
X23500Y-26750D03*
X24500Y-26750D03*
X25500Y-26750D03*
G54D13*
X22000Y-10750D03*
X22000Y-11750D03*
X21000Y-10750D03*
X21000Y-11750D03*
G54D14*
X10000Y-11750D03*
G54D12*
X11000Y-11750D03*
G54D14*
X10000Y-10750D03*
G54D12*
X11000Y-10750D03*
G54D14*
X21200Y-17300D03*
G54D12*
X21200Y-16300D03*
X21200Y-15300D03*
G54D14*
X10800Y-17300D03*
G54D12*
X10800Y-16300D03*
X10800Y-15300D03*
G54D14*
X05500Y-16750D03*
G54D12*
X05500Y-17750D03*
X05500Y-18750D03*
X05500Y-19750D03*
X05500Y-20750D03*
X05500Y-21750D03*
X05500Y-22750D03*
X05500Y-23750D03*
X05500Y-24750D03*
X05500Y-25750D03*
G54D14*
X26500Y-25750D03*
G54D12*
X26500Y-24750D03*
X26500Y-23750D03*
X26500Y-22750D03*
X26500Y-21750D03*
X26500Y-20750D03*
X26500Y-19750D03*
X26500Y-18750D03*
X26500Y-17750D03*
X26500Y-16750D03*
G54D14*
X26500Y-15750D03*
G54D12*
X26500Y-14750D03*
X26500Y-13750D03*
X26500Y-12750D03*
X26500Y-11750D03*
X26500Y-10750D03*
X26500Y-09750D03*
X26500Y-08750D03*
X26500Y-07750D03*
X26500Y-06750D03*
G54D14*
X25500Y-05750D03*
G54D12*
X24500Y-05750D03*
X23500Y-05750D03*
X22500Y-05750D03*
X21500Y-05750D03*
X20500Y-05750D03*
X19500Y-05750D03*
X18500Y-05750D03*
X17500Y-05750D03*
X16500Y-05750D03*
G54D14*
X15500Y-05750D03*
G54D12*
X14500Y-05750D03*
X13500Y-05750D03*
X12500Y-05750D03*
X11500Y-05750D03*
X10500Y-05750D03*
X09500Y-05750D03*
X08500Y-05750D03*
X07500Y-05750D03*
X06500Y-05750D03*
G54D14*
X05500Y-06750D03*
G54D12*
X05500Y-07750D03*
X05500Y-08750D03*
X05500Y-09750D03*
X05500Y-10750D03*
X05500Y-11750D03*
X05500Y-12750D03*
X05500Y-13750D03*
X05500Y-14750D03*
X05500Y-15750D03*
G54D15*
X16000Y-07100D03*
X16000Y-08100D03*
G54D16*
X12950Y-18660D03*
X12950Y-13940D03*
X12950Y-14140D03*
X12950Y-14330D03*
X12950Y-14530D03*
X12950Y-14730D03*
X12950Y-14920D03*
X12950Y-15120D03*
X12950Y-15320D03*
X12950Y-15510D03*
X12950Y-15710D03*
X12950Y-15910D03*
X12950Y-16110D03*
X12950Y-16300D03*
X12950Y-16500D03*
X12950Y-16700D03*
X12950Y-16890D03*
X12950Y-17090D03*
X12950Y-17290D03*
X12950Y-17480D03*
X12950Y-17680D03*
X12950Y-17880D03*
X12950Y-18070D03*
X12950Y-18270D03*
X12950Y-18470D03*
G54D17*
X13640Y-13250D03*
X18360Y-13250D03*
X18160Y-13250D03*
X17970Y-13250D03*
X17770Y-13250D03*
X17570Y-13250D03*
X17380Y-13250D03*
X17180Y-13250D03*
X16980Y-13250D03*
X16790Y-13250D03*
X16590Y-13250D03*
X16390Y-13250D03*
X16190Y-13250D03*
X16000Y-13250D03*
X15800Y-13250D03*
X15600Y-13250D03*
X15410Y-13250D03*
X15210Y-13250D03*
X15010Y-13250D03*
X14820Y-13250D03*
X14620Y-13250D03*
X14420Y-13250D03*
X14230Y-13250D03*
X14030Y-13250D03*
X13830Y-13250D03*
X13640Y-19350D03*
X13840Y-19350D03*
X14030Y-19350D03*
X14230Y-19350D03*
X14430Y-19350D03*
X14620Y-19350D03*
X14820Y-19350D03*
X15020Y-19350D03*
X15210Y-19350D03*
X15410Y-19350D03*
X15610Y-19350D03*
X15810Y-19350D03*
X16000Y-19350D03*
X16200Y-19350D03*
X16400Y-19350D03*
X16590Y-19350D03*
X16790Y-19350D03*
X16990Y-19350D03*
X17180Y-19350D03*
X17380Y-19350D03*
X17580Y-19350D03*
X17770Y-19350D03*
X17970Y-19350D03*
X18170Y-19350D03*
X18360Y-19350D03*
G54D16*
X19050Y-18660D03*
X19050Y-18460D03*
X19050Y-18270D03*
X19050Y-18070D03*
X19050Y-17870D03*
X19050Y-17680D03*
X19050Y-17480D03*
X19050Y-17280D03*
X19050Y-17090D03*
X19050Y-16890D03*
X19050Y-16690D03*
X19050Y-16490D03*
X19050Y-16300D03*
X19050Y-16100D03*
X19050Y-15900D03*
X19050Y-15710D03*
X19050Y-15510D03*
X19050Y-15310D03*
X19050Y-15120D03*
X19050Y-14920D03*
X19050Y-14720D03*
X19050Y-14530D03*
X19050Y-14330D03*
X19050Y-14130D03*
X19050Y-13940D03*
G54D18*
X15744Y-21685D03*
X16000Y-21685D03*
X16256Y-21685D03*
X16256Y-22315D03*
X16000Y-22315D03*
X15744Y-22315D03*
G54D19*
X23200Y-15000D03*
G54D20*
X23200Y-17600D03*
X24100Y-17600D03*
X22300Y-17600D03*
G54D19*
X08800Y-15000D03*
G54D20*
X08800Y-17600D03*
X09700Y-17600D03*
X07900Y-17600D03*
G54D14*
X14500Y-20800D03*
G54D12*
X15500Y-20800D03*
X16500Y-20800D03*
X17500Y-20800D03*
X19000Y-09750D03*
X19000Y-06750D03*
X11000Y-18550D03*
X11000Y-21550D03*
X21000Y-18550D03*
X21000Y-21550D03*
G54D21*
X17000Y-11600D03*
X15000Y-11600D03*
G54D14*
X09500Y-19250D03*
G54D12*
X08500Y-19250D03*
G54D14*
X23500Y-19250D03*
G54D12*
X22500Y-19250D03*
X23500Y-11750D03*
X23500Y-10750D03*
X08500Y-21250D03*
X09500Y-21250D03*
X09500Y-22700D03*
X08500Y-22700D03*
X20300Y-22700D03*
X21300Y-22700D03*
X21500Y-08750D03*
X20500Y-08750D03*
X10500Y-08750D03*
X11500Y-08750D03*
X15500Y-09900D03*
X16500Y-09900D03*
X08500Y-11750D03*
X08500Y-10750D03*
X19000Y-11750D03*
X19000Y-10750D03*
X13000Y-10750D03*
X13000Y-11750D03*
X23500Y-13250D03*
X22500Y-13250D03*
X22500Y-21250D03*
X23500Y-21250D03*
X09500Y-13250D03*
X08500Y-13250D03*
X10700Y-22700D03*
X11700Y-22700D03*
X23500Y-22700D03*
X22500Y-22700D03*
X20500Y-07750D03*
X21500Y-07750D03*
X10500Y-07750D03*
X11500Y-07750D03*
G54D22*
X08000Y-24250D03*
X24000Y-24250D03*
X08000Y-08250D03*
X24000Y-08250D03*
G54D12*
X13000Y-09750D03*
X13000Y-06750D03*
G54D23*
X12450Y-20800D03*
X12950Y-20800D03*
X19450Y-20800D03*
X18950Y-20800D03*
G54D13*
X18500Y-23700D03*
X13500Y-23700D03*
G54D24*
X09500Y-24550D03*
G54D25*
X13500Y-24550D03*
G54D24*
X09500Y-25550D03*
G54D25*
X13500Y-25550D03*
G54D24*
X18500Y-24550D03*
G54D25*
X22500Y-24550D03*
G54D24*
X18500Y-25550D03*
G54D25*
X22500Y-25550D03*
G54D26*
X20933Y-20514D03*
X12075Y-24471D03*
G54D27*
X12878Y-19118D03*
X09522Y-23552D03*
X13049Y-21781D03*
X15150Y-24200D03*
X14952Y-21701D03*
X17804Y-21838D03*
X13810Y-15500D03*
X13259Y-19931D03*
X15468Y-17028D03*
X17226Y-17618D03*
X13895Y-21853D03*
X17027Y-21715D03*
X18516Y-20674D03*
X12865Y-22086D03*
X18530Y-21021D03*
X19517Y-22235D03*
X18130Y-16969D03*
G54D28*
X19826Y-12741D03*
X20354Y-21259D03*
X16771Y-16979D03*
X17896Y-08074D03*
X15346Y-16384D03*
X11964Y-16036D03*
X15375Y-13970D03*
X11944Y-15121D03*
X23643Y-19804D03*
X24015Y-15873D03*
X11990Y-15772D03*
X21989Y-26509D03*
X11963Y-15385D03*
X16545Y-16198D03*
X18270Y-08664D03*
X16496Y-15519D03*
X16260Y-16571D03*
X18318Y-08374D03*
X16597Y-16780D03*
X17931Y-08338D03*
X11967Y-12973D03*
X16780Y-15515D03*
X18556Y-18257D03*
X17578Y-17853D03*
X18046Y-18264D03*
X16632Y-18301D03*
X17643Y-18269D03*
X10687Y-13750D03*
X17913Y-19719D03*
X17308Y-18303D03*
X10950Y-13987D03*
X17027Y-18324D03*
X11202Y-14109D03*
X14535Y-11775D03*
X13713Y-12100D03*
X13808Y-08531D03*
X18687Y-15710D03*
X19798Y-17673D03*
X19892Y-18141D03*
X19754Y-16170D03*
X19694Y-16493D03*
X19413Y-15446D03*
X21133Y-13972D03*
X19750Y-17003D03*
X19646Y-14155D03*
X19958Y-19921D03*
X19958Y-18801D03*
X20245Y-18862D03*
X14933Y-20000D03*
X09983Y-16779D03*
X14180Y-09262D03*
X16072Y-14400D03*
X12289Y-09100D03*
X17233Y-14317D03*
X15808Y-14429D03*
X16459Y-14462D03*
X17060Y-20105D03*
X15047Y-19739D03*
X06875Y-21897D03*
X06869Y-20751D03*
X07107Y-20342D03*
X07446Y-20543D03*
X07616Y-20138D03*
X25100Y-16067D03*
X17772Y-14337D03*
X16715Y-13918D03*
X12358Y-08778D03*
X07066Y-19235D03*
X14024Y-14560D03*
X14054Y-15939D03*
X19414Y-14680D03*
X16077Y-16844D03*
X16733Y-22041D03*
X13571Y-18113D03*
X15239Y-20439D03*
X13413Y-17869D03*
X08234Y-18506D03*
X16846Y-14428D03*
X13113Y-13172D03*
X11574Y-14533D03*
G54D26*
X14168Y-23471D03*
X24521Y-21114D03*
G54D29*
X21395Y-16495D02*
X23576Y-16495D01*
X21200Y-16300D02*
X21395Y-16495D01*
X23576Y-16495D02*
X24100Y-17019D01*
X24100Y-17600D02*
X24100Y-17019D01*
X18581Y-22391D02*
X17808Y-22391D01*
X15351Y-23277D02*
X14662Y-22588D01*
X16000Y-07100D02*
X14661Y-07100D01*
X12518Y-11567D02*
X12518Y-13192D01*
X19301Y-21671D02*
X18581Y-22391D01*
X12500Y-23613D02*
X12500Y-24471D01*
X13525Y-22588D02*
X12500Y-23613D01*
X20603Y-20514D02*
X19446Y-21671D01*
X19446Y-21671D02*
X19301Y-21671D01*
X20933Y-20514D02*
X20603Y-20514D01*
X13426Y-11207D02*
X12878Y-11207D01*
X12518Y-13192D02*
X11257Y-14453D01*
X11257Y-15577D02*
X10800Y-16034D01*
X13456Y-08305D02*
X13456Y-11177D01*
X10800Y-16034D02*
X10800Y-16300D01*
X13456Y-11177D02*
X13426Y-11207D01*
X12500Y-24471D02*
X12075Y-24471D01*
X14662Y-22588D02*
X13525Y-22588D01*
X17808Y-22391D02*
X16922Y-23277D01*
X12500Y-24471D02*
X12500Y-26750D01*
X14661Y-07100D02*
X13456Y-08305D01*
X12878Y-11207D02*
X12518Y-11567D01*
X11257Y-14453D02*
X11257Y-15577D01*
X16922Y-23277D02*
X15351Y-23277D01*
G54D30*
X08957Y-24117D02*
X08957Y-25293D01*
X09522Y-23552D02*
X08957Y-24117D01*
X14030Y-19350D02*
X14030Y-19024D01*
X08957Y-25293D02*
X07500Y-26750D01*
X12972Y-19024D02*
X12878Y-19118D01*
X14030Y-19024D02*
X12972Y-19024D01*
X09751Y-26228D02*
X09022Y-26228D01*
X11074Y-24905D02*
X09751Y-26228D01*
X11074Y-23903D02*
X11074Y-24905D01*
X12106Y-22871D02*
X11074Y-23903D01*
X12106Y-21891D02*
X12106Y-22871D01*
X12806Y-21191D02*
X12106Y-21891D01*
X13184Y-21191D02*
X12806Y-21191D01*
X13375Y-21000D02*
X13184Y-21191D01*
X13375Y-20531D02*
X13375Y-21000D01*
X14230Y-19676D02*
X13375Y-20531D01*
X14230Y-19350D02*
X14230Y-19676D01*
X09022Y-26228D02*
X08500Y-26750D01*
X11241Y-25009D02*
X09500Y-26750D01*
X11241Y-23972D02*
X11241Y-25009D01*
X12273Y-22940D02*
X11241Y-23972D01*
X12273Y-21960D02*
X12273Y-22940D01*
X12875Y-21358D02*
X12273Y-21960D01*
X13254Y-21358D02*
X12875Y-21358D01*
X13624Y-20988D02*
X13254Y-21358D01*
X13624Y-20519D02*
X13624Y-20988D01*
X14430Y-19713D02*
X13624Y-20519D01*
X14430Y-19350D02*
X14430Y-19713D01*
X12944Y-21525D02*
X12440Y-22029D01*
X14620Y-19350D02*
X14620Y-19676D01*
X11408Y-24041D02*
X11408Y-25842D01*
X14061Y-20317D02*
X14061Y-20786D01*
X12440Y-23009D02*
X11408Y-24041D01*
X12440Y-22029D02*
X12440Y-23009D01*
X14620Y-19676D02*
X14620Y-19758D01*
X13322Y-21525D02*
X12944Y-21525D01*
X11408Y-25842D02*
X10500Y-26750D01*
X14061Y-20786D02*
X13322Y-21525D01*
X14620Y-19758D02*
X14061Y-20317D01*
X13722Y-21430D02*
X13371Y-21781D01*
X13798Y-14900D02*
X14072Y-15174D01*
X18913Y-22854D02*
X19161Y-23102D01*
X17104Y-23750D02*
X18000Y-22854D01*
X13276Y-18660D02*
X13324Y-18708D01*
X22098Y-23102D02*
X22500Y-22700D01*
X18000Y-22854D02*
X18913Y-22854D01*
X17156Y-17222D02*
X16196Y-18182D01*
X19113Y-12750D02*
X16213Y-12750D01*
X17156Y-16490D02*
X17156Y-17222D01*
X19161Y-23102D02*
X22098Y-23102D01*
X12950Y-18660D02*
X13276Y-18660D01*
X16196Y-18820D02*
X16400Y-19024D01*
X15469Y-13744D02*
X14521Y-13744D01*
X14820Y-19350D02*
X14820Y-19676D01*
X14820Y-19794D02*
X14707Y-19907D01*
X16400Y-19350D02*
X16400Y-19676D01*
X20613Y-11250D02*
X19113Y-12750D01*
X16400Y-19350D02*
X16400Y-19024D01*
X15206Y-20075D02*
X15030Y-20251D01*
X16001Y-20075D02*
X15206Y-20075D01*
X15030Y-20251D02*
X14937Y-20251D01*
X14072Y-15603D02*
X13565Y-16110D01*
X13371Y-21781D02*
X13049Y-21781D01*
X15415Y-14757D02*
X16403Y-15745D01*
X16196Y-18182D02*
X16196Y-18820D01*
X14937Y-21191D02*
X14698Y-21430D01*
X15415Y-14267D02*
X15415Y-14757D01*
X16400Y-19676D02*
X16001Y-20075D01*
X14504Y-18708D02*
X14820Y-19024D01*
X15941Y-13576D02*
X15621Y-13896D01*
X14937Y-20251D02*
X14937Y-21191D01*
X17156Y-16490D02*
X19050Y-16490D01*
X14521Y-13744D02*
X13798Y-14467D01*
X13324Y-18708D02*
X14504Y-18708D01*
X16190Y-13576D02*
X15941Y-13576D01*
X14707Y-20093D02*
X14865Y-20251D01*
X15621Y-13896D02*
X15469Y-13744D01*
X14820Y-19350D02*
X14820Y-19024D01*
X16213Y-12750D02*
X16190Y-12773D01*
X15600Y-23750D02*
X17104Y-23750D01*
X15150Y-24200D02*
X15600Y-23750D01*
X15621Y-13896D02*
X15621Y-14061D01*
X16190Y-13250D02*
X16190Y-13576D01*
X14698Y-21430D02*
X13722Y-21430D01*
X15621Y-14061D02*
X15415Y-14267D01*
X13798Y-14467D02*
X13798Y-14900D01*
X16403Y-15745D02*
X16411Y-15745D01*
X14820Y-19676D02*
X14820Y-19794D01*
X13565Y-16110D02*
X12950Y-16110D01*
X14707Y-19907D02*
X14707Y-20093D01*
X14698Y-21430D02*
X14698Y-21447D01*
X14072Y-15174D02*
X14072Y-15603D01*
X16190Y-12773D02*
X16190Y-13250D01*
X22000Y-10750D02*
X21500Y-11250D01*
X14865Y-20251D02*
X14937Y-20251D01*
X21500Y-11250D02*
X20613Y-11250D01*
X16411Y-15745D02*
X17156Y-16490D01*
X14698Y-21447D02*
X14952Y-21701D01*
G54D29*
X11630Y-24133D02*
X11630Y-26620D01*
X19450Y-20800D02*
X19450Y-21231D01*
X18481Y-22150D02*
X17708Y-22150D01*
X19450Y-21231D02*
X19400Y-21231D01*
X19450Y-20800D02*
X19821Y-20800D01*
X17708Y-22150D02*
X16822Y-23036D01*
X23272Y-18253D02*
X23200Y-18181D01*
X23200Y-17600D02*
X23200Y-18181D01*
X23200Y-15000D02*
X24101Y-15000D01*
X23500Y-13250D02*
X24101Y-13851D01*
X19400Y-21231D02*
X18481Y-22150D01*
X14762Y-22347D02*
X13416Y-22347D01*
X11630Y-26620D02*
X11500Y-26750D01*
X23500Y-19250D02*
X23272Y-19250D01*
X19958Y-20800D02*
X21041Y-19717D01*
X21041Y-19717D02*
X22805Y-19717D01*
X23272Y-19250D02*
X23272Y-18253D01*
X16822Y-23036D02*
X15451Y-23036D01*
X22805Y-19717D02*
X23272Y-19250D01*
X15451Y-23036D02*
X14762Y-22347D01*
X19821Y-20800D02*
X19958Y-20800D01*
X13416Y-22347D02*
X11630Y-24133D01*
X24101Y-13851D02*
X24101Y-15000D01*
G54D30*
X18950Y-20761D02*
X18950Y-20706D01*
X11500Y-11250D02*
X11500Y-08750D01*
X16790Y-19350D02*
X16790Y-19024D01*
X19050Y-17280D02*
X18724Y-17280D01*
X19213Y-17280D02*
X19050Y-17280D01*
X19213Y-17280D02*
X19376Y-17280D01*
X16000Y-21685D02*
X16000Y-21352D01*
X13800Y-15510D02*
X13810Y-15500D01*
X13640Y-19350D02*
X13640Y-19676D01*
X18950Y-20761D02*
X18950Y-20800D01*
X10650Y-21550D02*
X09500Y-22700D01*
X11000Y-21550D02*
X10650Y-21550D01*
X11000Y-21314D02*
X11000Y-21550D01*
X12442Y-19872D02*
X11000Y-21314D01*
X12442Y-17821D02*
X12442Y-19872D01*
X12583Y-17680D02*
X12442Y-17821D01*
X12950Y-17680D02*
X12583Y-17680D01*
X13385Y-19931D02*
X13259Y-19931D01*
X13640Y-19676D02*
X13385Y-19931D01*
X18786Y-20989D02*
X18786Y-20915D01*
X19253Y-20323D02*
X20121Y-20323D01*
X18950Y-20706D02*
X18950Y-20626D01*
X17226Y-17511D02*
X17226Y-17618D01*
X18950Y-20626D02*
X19253Y-20323D01*
X19486Y-14330D02*
X19050Y-14330D01*
X19656Y-14468D02*
X19624Y-14468D01*
X19624Y-14468D02*
X19486Y-14330D01*
X22000Y-12124D02*
X19656Y-14468D01*
X19427Y-17229D02*
X19376Y-17280D01*
X18950Y-21176D02*
X18870Y-21176D01*
X20282Y-17229D02*
X19427Y-17229D01*
X21557Y-18504D02*
X20282Y-17229D01*
X21557Y-18887D02*
X21557Y-18504D01*
X20121Y-20323D02*
X21557Y-18887D01*
X18636Y-20765D02*
X18607Y-20765D01*
X22000Y-11750D02*
X22000Y-12124D01*
X16996Y-17618D02*
X16363Y-18251D01*
X17226Y-17618D02*
X16996Y-17618D01*
X18607Y-20765D02*
X18516Y-20674D01*
X18076Y-16661D02*
X17226Y-17511D01*
X18184Y-16661D02*
X18076Y-16661D01*
X18724Y-17201D02*
X18184Y-16661D01*
X18724Y-17280D02*
X18724Y-17201D01*
X16363Y-18597D02*
X16790Y-19024D01*
X16363Y-18251D02*
X16363Y-18597D01*
X18786Y-20915D02*
X18636Y-20765D01*
X11000Y-11750D02*
X11500Y-11250D01*
X18950Y-20800D02*
X18950Y-21176D01*
X18801Y-21042D02*
X18801Y-21004D01*
X18788Y-21081D02*
X18788Y-21055D01*
X18786Y-21083D02*
X18788Y-21081D01*
X18786Y-21092D02*
X18786Y-21083D01*
X18870Y-21176D02*
X18786Y-21092D01*
X18141Y-14330D02*
X19050Y-14330D01*
X17571Y-14900D02*
X18141Y-14330D01*
X15960Y-14900D02*
X17571Y-14900D01*
X15582Y-14522D02*
X15960Y-14900D01*
X15582Y-14336D02*
X15582Y-14522D01*
X15715Y-14203D02*
X15582Y-14336D01*
X15804Y-14203D02*
X15715Y-14203D01*
X16366Y-13274D02*
X16366Y-13641D01*
X16390Y-13250D02*
X16366Y-13274D01*
X18788Y-21055D02*
X18801Y-21042D01*
X18870Y-21176D02*
X18208Y-21838D01*
X18801Y-21004D02*
X18786Y-20989D01*
X12950Y-15510D02*
X13800Y-15510D01*
X18208Y-21838D02*
X17804Y-21838D01*
X16366Y-13641D02*
X15804Y-14203D01*
X17706Y-21838D02*
X17804Y-21838D01*
X16730Y-22814D02*
X17706Y-21838D01*
X15543Y-22814D02*
X16730Y-22814D01*
X14854Y-22125D02*
X15543Y-22814D01*
X14167Y-22125D02*
X14854Y-22125D01*
X17027Y-21715D02*
X16519Y-21207D01*
X16145Y-21207D02*
X16000Y-21352D01*
X15020Y-19350D02*
X15020Y-17588D01*
X15020Y-17588D02*
X15468Y-17140D01*
X15468Y-17140D02*
X15468Y-17028D01*
X16519Y-21207D02*
X16145Y-21207D01*
X13895Y-21853D02*
X14167Y-22125D01*
G54D29*
X10800Y-15300D02*
X10001Y-15300D01*
X10001Y-15300D02*
X09701Y-15000D01*
X08800Y-15000D02*
X09701Y-15000D01*
X08800Y-17600D02*
X08800Y-16501D01*
X08800Y-16501D02*
X10001Y-15300D01*
X11157Y-22524D02*
X12450Y-21231D01*
X22736Y-22014D02*
X19769Y-22014D01*
X07900Y-17600D02*
X07900Y-18181D01*
X19401Y-21912D02*
X18681Y-22632D01*
X18681Y-22632D02*
X17908Y-22632D01*
X19667Y-21912D02*
X19401Y-21912D01*
X22300Y-17600D02*
X22300Y-18181D01*
X23500Y-21250D02*
X22736Y-22014D01*
X17022Y-23518D02*
X15251Y-23518D01*
X07900Y-18181D02*
X07900Y-18650D01*
X12969Y-23485D02*
X12969Y-26219D01*
X22500Y-19250D02*
X22500Y-18381D01*
X13625Y-22829D02*
X12969Y-23485D01*
X12450Y-20800D02*
X12450Y-21231D01*
X17908Y-22632D02*
X17022Y-23518D01*
X11157Y-22893D02*
X11157Y-22524D01*
X15251Y-23518D02*
X14562Y-22829D01*
X14562Y-22829D02*
X13625Y-22829D01*
X19769Y-22014D02*
X19667Y-21912D01*
X09500Y-24550D02*
X11157Y-22893D01*
X07900Y-18650D02*
X08500Y-19250D01*
X22500Y-18381D02*
X22300Y-18181D01*
X12969Y-26219D02*
X13500Y-26750D01*
G54D30*
X13010Y-20364D02*
X12950Y-20424D01*
X12622Y-19976D02*
X13010Y-20364D01*
X13840Y-19736D02*
X13212Y-20364D01*
X17636Y-21021D02*
X18530Y-21021D01*
X17636Y-21021D02*
X17636Y-20936D01*
X13469Y-15127D02*
X13469Y-13576D01*
X16980Y-12924D02*
X18160Y-12924D01*
X16980Y-13250D02*
X16980Y-12924D01*
X20500Y-07750D02*
X20500Y-08750D01*
X20500Y-09250D02*
X19000Y-10750D01*
X20500Y-08750D02*
X20500Y-09250D01*
X10000Y-10750D02*
X08500Y-10750D01*
X12950Y-15320D02*
X13276Y-15320D01*
X16000Y-22315D02*
X16000Y-22647D01*
X21701Y-22299D02*
X21300Y-22700D01*
X23099Y-22299D02*
X21701Y-22299D01*
X23500Y-22700D02*
X23099Y-22299D01*
X18160Y-13250D02*
X18160Y-12924D01*
X13683Y-11750D02*
X13000Y-11750D01*
X10161Y-23239D02*
X10700Y-22700D01*
X12950Y-17880D02*
X12624Y-17880D01*
X19050Y-17480D02*
X18641Y-17480D01*
X19050Y-17480D02*
X19376Y-17480D01*
X12950Y-20800D02*
X12950Y-20424D01*
X15010Y-13250D02*
X15010Y-13576D01*
X10000Y-10750D02*
X10000Y-10349D01*
X10500Y-08750D02*
X10500Y-09849D01*
X18641Y-17480D02*
X18130Y-16969D01*
X10500Y-09849D02*
X10000Y-10349D01*
X13791Y-21597D02*
X13302Y-22086D01*
X13302Y-22086D02*
X12865Y-22086D01*
X17500Y-20800D02*
X18144Y-20156D01*
X19630Y-17480D02*
X19376Y-17480D01*
X19714Y-17396D02*
X19630Y-17480D01*
X19846Y-17396D02*
X19714Y-17396D01*
X21000Y-18550D02*
X19846Y-17396D01*
X12622Y-17882D02*
X12622Y-19976D01*
X12624Y-17880D02*
X12622Y-17882D01*
X12578Y-19976D02*
X12622Y-19976D01*
X11750Y-20804D02*
X12578Y-19976D01*
X11750Y-21616D02*
X11750Y-20804D01*
X10700Y-22666D02*
X11750Y-21616D01*
X10700Y-22700D02*
X10700Y-22666D01*
X20472Y-11750D02*
X19298Y-12924D01*
X21000Y-11750D02*
X20472Y-11750D01*
X19298Y-12924D02*
X18160Y-12924D01*
X16590Y-19350D02*
X16590Y-20142D01*
X17636Y-20936D02*
X17500Y-20800D01*
X13469Y-13576D02*
X15010Y-13576D01*
X13276Y-15320D02*
X13469Y-15127D01*
X17248Y-20800D02*
X17500Y-20800D01*
X13840Y-19350D02*
X13840Y-19736D01*
X13212Y-20364D02*
X13010Y-20364D01*
X16590Y-20142D02*
X17248Y-20800D01*
X09039Y-23239D02*
X10161Y-23239D01*
X13939Y-12006D02*
X13683Y-11750D01*
X13939Y-12202D02*
X13939Y-12006D01*
X13464Y-12677D02*
X13939Y-12202D01*
X13464Y-13571D02*
X13464Y-12677D01*
X13469Y-13576D02*
X13464Y-13571D01*
X18144Y-20156D02*
X20052Y-20156D01*
X20052Y-20156D02*
X21000Y-19208D01*
X21000Y-19208D02*
X21000Y-18550D01*
X08500Y-22700D02*
X09039Y-23239D01*
X14671Y-21958D02*
X14310Y-21597D01*
X14310Y-21597D02*
X13791Y-21597D01*
X19530Y-22248D02*
X19517Y-22235D01*
X21300Y-22700D02*
X20848Y-22248D01*
X20848Y-22248D02*
X19530Y-22248D01*
X16000Y-22647D02*
X16661Y-22647D01*
X17428Y-21229D02*
X17636Y-21021D01*
X15612Y-22647D02*
X14923Y-21958D01*
X16661Y-22647D02*
X17428Y-21880D01*
X14923Y-21958D02*
X14671Y-21958D01*
X17428Y-21880D02*
X17428Y-21229D01*
X16000Y-22647D02*
X15612Y-22647D01*
G54D10*
X20157Y-26093D02*
X23431Y-26093D01*
X20720Y-21259D02*
X20354Y-21259D01*
X24924Y-24600D02*
X24924Y-20985D01*
X21454Y-20525D02*
X20720Y-21259D01*
X23431Y-26093D02*
X24924Y-24600D01*
X19317Y-13250D02*
X19826Y-12741D01*
X19500Y-26750D02*
X20157Y-26093D01*
X18360Y-13250D02*
X19317Y-13250D01*
X24464Y-20525D02*
X21454Y-20525D01*
X24924Y-20985D02*
X24464Y-20525D01*
X15810Y-19350D02*
X15810Y-17972D01*
X15810Y-17972D02*
X16771Y-17011D01*
X16500Y-05750D02*
X17896Y-07146D01*
X16771Y-17011D02*
X16771Y-16979D01*
X17896Y-07146D02*
X17896Y-08074D01*
X12950Y-18070D02*
X13243Y-18070D01*
X13256Y-18070D02*
X13492Y-18306D01*
X13243Y-18070D02*
X13256Y-18070D01*
X13672Y-18306D02*
X14977Y-17001D01*
X14977Y-16753D02*
X15346Y-16384D01*
X14977Y-17001D02*
X14977Y-16753D01*
X13492Y-18306D02*
X13672Y-18306D01*
X11792Y-15864D02*
X11964Y-16036D01*
X12043Y-15578D02*
X11882Y-15578D01*
X12156Y-15465D02*
X12043Y-15578D01*
X12657Y-14330D02*
X12260Y-14727D01*
X12260Y-14727D02*
X12260Y-15251D01*
X12260Y-15251D02*
X12156Y-15355D01*
X11882Y-15578D02*
X11792Y-15668D01*
X12156Y-15355D02*
X12156Y-15465D01*
X12950Y-14330D02*
X12657Y-14330D01*
X11792Y-15668D02*
X11792Y-15864D01*
X13283Y-18270D02*
X13243Y-18270D01*
X15253Y-14092D02*
X15253Y-15404D01*
X15398Y-16580D02*
X15100Y-16878D01*
X13442Y-18429D02*
X13283Y-18270D01*
X15543Y-16564D02*
X15527Y-16580D01*
X15253Y-15404D02*
X15543Y-15694D01*
X15527Y-16580D02*
X15398Y-16580D01*
X15543Y-15694D02*
X15543Y-16564D01*
X15375Y-13970D02*
X15253Y-14092D01*
X12950Y-18270D02*
X13243Y-18270D01*
X13777Y-18429D02*
X13442Y-18429D01*
X15100Y-16878D02*
X15100Y-17106D01*
X15100Y-17106D02*
X13777Y-18429D01*
X12657Y-13940D02*
X11944Y-14653D01*
X11944Y-14653D02*
X11944Y-15121D01*
X12950Y-13940D02*
X12657Y-13940D01*
X21375Y-14873D02*
X20370Y-14873D01*
X24015Y-15873D02*
X22375Y-15873D01*
X25500Y-21388D02*
X23916Y-19804D01*
X19050Y-15900D02*
X19343Y-15900D01*
X25500Y-26750D02*
X25500Y-21388D01*
X22375Y-15873D02*
X21375Y-14873D01*
X20370Y-14873D02*
X19343Y-15900D01*
X23916Y-19804D02*
X23643Y-19804D01*
X12950Y-14530D02*
X12657Y-14530D01*
X12279Y-15405D02*
X12383Y-15301D01*
X12383Y-14804D02*
X12657Y-14530D01*
X12383Y-15301D02*
X12383Y-14804D01*
X11990Y-15772D02*
X12022Y-15772D01*
X12279Y-15515D02*
X12279Y-15405D01*
X12022Y-15772D02*
X12279Y-15515D01*
X12137Y-15201D02*
X12137Y-14660D01*
X12950Y-14140D02*
X12657Y-14140D01*
X22116Y-26382D02*
X21989Y-26509D01*
X12137Y-14660D02*
X12657Y-14140D01*
X11963Y-15375D02*
X12137Y-15201D01*
X11963Y-15385D02*
X11963Y-15375D01*
X23500Y-26750D02*
X23132Y-26382D01*
X23132Y-26382D02*
X22116Y-26382D01*
X18500Y-07920D02*
X18125Y-08295D01*
X16545Y-16560D02*
X16394Y-16711D01*
X16394Y-16711D02*
X16394Y-17037D01*
X15410Y-18021D02*
X15410Y-19350D01*
X18500Y-05750D02*
X18500Y-07920D01*
X16394Y-17037D02*
X15410Y-18021D01*
X18125Y-08295D02*
X18125Y-08519D01*
X18125Y-08519D02*
X18270Y-08664D01*
X16545Y-16198D02*
X16545Y-16560D01*
X19050Y-14720D02*
X18757Y-14720D01*
X16685Y-15708D02*
X17769Y-15708D01*
X17769Y-15708D02*
X18757Y-14720D01*
X16496Y-15519D02*
X16685Y-15708D01*
X14620Y-12934D02*
X14620Y-13250D01*
X19250Y-08304D02*
X14620Y-12934D01*
X19250Y-07967D02*
X19250Y-08304D01*
X20890Y-06327D02*
X19250Y-07967D01*
X21923Y-06327D02*
X20890Y-06327D01*
X22500Y-05750D02*
X21923Y-06327D01*
X14420Y-13250D02*
X14420Y-12957D01*
X14424Y-12957D02*
X14420Y-12957D01*
X19057Y-08324D02*
X14424Y-12957D01*
X19057Y-07985D02*
X19057Y-08324D01*
X21292Y-05750D02*
X19057Y-07985D01*
X21500Y-05750D02*
X21292Y-05750D01*
X20500Y-06369D02*
X20500Y-05750D01*
X14230Y-12957D02*
X18330Y-08857D01*
X18330Y-08857D02*
X18351Y-08857D01*
X18933Y-07936D02*
X20500Y-06369D01*
X18351Y-08857D02*
X18933Y-08275D01*
X18933Y-08275D02*
X18933Y-07936D01*
X14230Y-13250D02*
X14230Y-12957D01*
X15210Y-18048D02*
X16270Y-16988D01*
X19500Y-07192D02*
X18318Y-08374D01*
X19500Y-05750D02*
X19500Y-07192D01*
X16270Y-16581D02*
X16260Y-16571D01*
X16270Y-16988D02*
X16270Y-16581D01*
X15210Y-19350D02*
X15210Y-18048D01*
X17500Y-05750D02*
X18093Y-06343D01*
X16578Y-16799D02*
X16578Y-17026D01*
X16597Y-16780D02*
X16578Y-16799D01*
X16578Y-17026D02*
X15610Y-17994D01*
X18093Y-06343D02*
X18093Y-08154D01*
X17931Y-08316D02*
X17931Y-08338D01*
X15610Y-17994D02*
X15610Y-19350D01*
X18093Y-08154D02*
X17931Y-08316D01*
X08558Y-12459D02*
X11453Y-12459D01*
X05500Y-07118D02*
X05868Y-07486D01*
X05868Y-09769D02*
X08558Y-12459D01*
X05868Y-07486D02*
X05868Y-09769D01*
X05500Y-06750D02*
X05500Y-07118D01*
X19050Y-14530D02*
X18406Y-14530D01*
X18406Y-14530D02*
X17421Y-15515D01*
X11453Y-12459D02*
X11967Y-12973D01*
X17421Y-15515D02*
X16780Y-15515D01*
X19960Y-07706D02*
X19960Y-07944D01*
X20594Y-07072D02*
X19960Y-07706D01*
X23178Y-07072D02*
X20594Y-07072D01*
X24500Y-05750D02*
X23178Y-07072D01*
X15210Y-12694D02*
X15210Y-13250D01*
X19960Y-07944D02*
X15210Y-12694D01*
X19050Y-18660D02*
X18757Y-18660D01*
X18757Y-18660D02*
X18757Y-18458D01*
X18757Y-18458D02*
X18556Y-18257D01*
X17908Y-17853D02*
X17578Y-17853D01*
X18239Y-18567D02*
X18239Y-18184D01*
X18360Y-19057D02*
X18360Y-18688D01*
X18360Y-19350D02*
X18360Y-19057D01*
X18360Y-18688D02*
X18239Y-18567D01*
X18239Y-18184D02*
X17908Y-17853D01*
X18170Y-18673D02*
X18046Y-18549D01*
X18170Y-19350D02*
X18170Y-18673D01*
X18046Y-18549D02*
X18046Y-18264D01*
X16857Y-18076D02*
X16632Y-18301D01*
X17970Y-19057D02*
X17836Y-18923D01*
X17836Y-18923D02*
X17836Y-18189D01*
X17836Y-18189D02*
X17723Y-18076D01*
X17970Y-19350D02*
X17970Y-19057D01*
X17723Y-18076D02*
X16857Y-18076D01*
X17770Y-19350D02*
X17770Y-19057D01*
X17770Y-19057D02*
X17643Y-18930D01*
X17643Y-18930D02*
X17643Y-18269D01*
X05500Y-13750D02*
X10687Y-13750D01*
X17580Y-19350D02*
X17580Y-19643D01*
X17580Y-19643D02*
X17837Y-19643D01*
X17837Y-19643D02*
X17913Y-19719D01*
X05500Y-14750D02*
X06263Y-13987D01*
X17380Y-19057D02*
X17380Y-18375D01*
X06263Y-13987D02*
X10950Y-13987D01*
X17380Y-19350D02*
X17380Y-19057D01*
X17380Y-18375D02*
X17308Y-18303D01*
X17180Y-19350D02*
X17180Y-19057D01*
X17180Y-19057D02*
X17027Y-18904D01*
X11035Y-14276D02*
X11202Y-14109D01*
X05500Y-15750D02*
X06974Y-14276D01*
X06974Y-14276D02*
X11035Y-14276D01*
X17027Y-18904D02*
X17027Y-18324D01*
X12950Y-14730D02*
X13243Y-14730D01*
X13306Y-14667D02*
X13306Y-12507D01*
X15868Y-05750D02*
X16613Y-06495D01*
X15955Y-10104D02*
X14535Y-11524D01*
X13306Y-12507D02*
X13713Y-12100D01*
X13243Y-14730D02*
X13306Y-14667D01*
X14535Y-11524D02*
X14535Y-11775D01*
X16613Y-08723D02*
X15955Y-09381D01*
X16613Y-06495D02*
X16613Y-08723D01*
X15500Y-05750D02*
X15868Y-05750D01*
X15955Y-09381D02*
X15955Y-10104D01*
X14095Y-11943D02*
X13727Y-11575D01*
X13640Y-13250D02*
X13640Y-12957D01*
X13727Y-08612D02*
X13808Y-08531D01*
X13727Y-11575D02*
X13727Y-08612D01*
X13640Y-12957D02*
X14095Y-12502D01*
X14095Y-12502D02*
X14095Y-11943D01*
X17140Y-11989D02*
X16088Y-11989D01*
X16088Y-11989D02*
X15410Y-12667D01*
X25132Y-05750D02*
X21370Y-09512D01*
X15410Y-12667D02*
X15410Y-13250D01*
X25500Y-05750D02*
X25132Y-05750D01*
X21370Y-09512D02*
X20818Y-09512D01*
X17936Y-11193D02*
X17140Y-11989D01*
X20818Y-09512D02*
X19137Y-11193D01*
X19137Y-11193D02*
X17936Y-11193D01*
X18757Y-15710D02*
X18687Y-15710D01*
X19050Y-15710D02*
X18757Y-15710D01*
X19343Y-17870D02*
X19540Y-17673D01*
X19050Y-17870D02*
X19343Y-17870D01*
X19540Y-17673D02*
X19798Y-17673D01*
X19821Y-18070D02*
X19892Y-18141D01*
X19050Y-18070D02*
X19821Y-18070D01*
X19405Y-16890D02*
X19609Y-16686D01*
X19920Y-16336D02*
X19754Y-16170D01*
X19920Y-16642D02*
X19920Y-16336D01*
X19609Y-16686D02*
X19876Y-16686D01*
X19876Y-16686D02*
X19920Y-16642D01*
X19050Y-16890D02*
X19405Y-16890D01*
X26045Y-11205D02*
X26500Y-10750D01*
X21925Y-11205D02*
X26045Y-11205D01*
X21545Y-11585D02*
X21925Y-11205D01*
X21545Y-12020D02*
X21545Y-11585D01*
X19957Y-13608D02*
X21545Y-12020D01*
X18026Y-13608D02*
X19957Y-13608D01*
X17970Y-13552D02*
X18026Y-13608D01*
X17970Y-13250D02*
X17970Y-13552D01*
X19629Y-16493D02*
X19694Y-16493D01*
X19432Y-16690D02*
X19629Y-16493D01*
X19050Y-16690D02*
X19432Y-16690D01*
X16238Y-12358D02*
X16000Y-12596D01*
X25057Y-10193D02*
X20917Y-10193D01*
X16000Y-12596D02*
X16000Y-12957D01*
X16000Y-13250D02*
X16000Y-12957D01*
X20160Y-11287D02*
X19089Y-12358D01*
X20917Y-10193D02*
X20160Y-10950D01*
X19089Y-12358D02*
X16238Y-12358D01*
X20160Y-10950D02*
X20160Y-11287D01*
X26500Y-08750D02*
X25057Y-10193D01*
X16188Y-12235D02*
X15800Y-12623D01*
X24181Y-10069D02*
X20783Y-10069D01*
X15800Y-12623D02*
X15800Y-13250D01*
X19462Y-11810D02*
X19037Y-12235D01*
X19462Y-11390D02*
X19462Y-11810D01*
X19037Y-12235D02*
X16188Y-12235D01*
X20783Y-10069D02*
X19462Y-11390D01*
X26500Y-07750D02*
X24181Y-10069D01*
X15600Y-13250D02*
X15600Y-12957D01*
X15600Y-12650D02*
X15600Y-12957D01*
X16138Y-12112D02*
X15600Y-12650D01*
X17235Y-12112D02*
X16138Y-12112D01*
X18029Y-11318D02*
X17235Y-12112D01*
X19358Y-11318D02*
X18029Y-11318D01*
X20756Y-09920D02*
X19358Y-11318D01*
X23793Y-09920D02*
X20756Y-09920D01*
X26500Y-07213D02*
X23793Y-09920D01*
X26500Y-06750D02*
X26500Y-07213D01*
X21271Y-13656D02*
X20913Y-13656D01*
X26500Y-15750D02*
X26132Y-15750D01*
X19050Y-14920D02*
X19343Y-14920D01*
X19649Y-14920D02*
X19343Y-14920D01*
X20913Y-13656D02*
X19649Y-14920D01*
X26132Y-15750D02*
X25939Y-15557D01*
X21457Y-13842D02*
X21271Y-13656D01*
X21457Y-14597D02*
X21457Y-13842D01*
X22417Y-15557D02*
X21457Y-14597D01*
X25939Y-15557D02*
X22417Y-15557D01*
X19050Y-15510D02*
X19349Y-15510D01*
X19349Y-15510D02*
X19413Y-15446D01*
X19343Y-15244D02*
X19685Y-15244D01*
X20166Y-16873D02*
X20036Y-17003D01*
X19277Y-15310D02*
X19343Y-15244D01*
X23558Y-17109D02*
X23322Y-16873D01*
X23558Y-18522D02*
X23558Y-17109D01*
X19050Y-15310D02*
X19277Y-15310D01*
X20957Y-13972D02*
X21133Y-13972D01*
X19685Y-15244D02*
X20957Y-13972D01*
X20036Y-17003D02*
X19750Y-17003D01*
X26500Y-23750D02*
X26131Y-23381D01*
X23322Y-16873D02*
X20166Y-16873D01*
X26131Y-21095D02*
X23558Y-18522D01*
X26131Y-23381D02*
X26131Y-21095D01*
X17770Y-13250D02*
X17770Y-13543D01*
X19288Y-13797D02*
X19646Y-14155D01*
X18024Y-13797D02*
X19288Y-13797D01*
X17770Y-13543D02*
X18024Y-13797D01*
X19659Y-16809D02*
X19958Y-16809D01*
X19050Y-17090D02*
X19343Y-17090D01*
X19395Y-17073D02*
X19659Y-16809D01*
X19360Y-17073D02*
X19395Y-17073D01*
X19343Y-17090D02*
X19360Y-17073D01*
X23419Y-16750D02*
X23681Y-17012D01*
X23681Y-17012D02*
X23681Y-18472D01*
X23681Y-18472D02*
X26500Y-21291D01*
X26500Y-21291D02*
X26500Y-21750D01*
X20017Y-16750D02*
X23419Y-16750D01*
X19958Y-16809D02*
X20017Y-16750D01*
X19958Y-19921D02*
X19845Y-19921D01*
X19845Y-19921D02*
X18362Y-18438D01*
X18362Y-18438D02*
X18362Y-18075D01*
X19050Y-17680D02*
X18757Y-17680D01*
X18362Y-18075D02*
X18757Y-17680D01*
X23715Y-16283D02*
X22046Y-16283D01*
X19793Y-15850D02*
X19343Y-16300D01*
X19050Y-16300D02*
X19343Y-16300D01*
X22046Y-16283D02*
X21613Y-15850D01*
X25869Y-18437D02*
X23715Y-16283D01*
X25869Y-19119D02*
X25869Y-18437D01*
X26500Y-19750D02*
X25869Y-19119D01*
X21613Y-15850D02*
X19793Y-15850D01*
X19343Y-18270D02*
X19874Y-18801D01*
X19874Y-18801D02*
X19958Y-18801D01*
X19050Y-18270D02*
X19343Y-18270D01*
X19878Y-18995D02*
X20112Y-18995D01*
X20112Y-18995D02*
X20245Y-18862D01*
X19050Y-18460D02*
X19343Y-18460D01*
X19343Y-18460D02*
X19878Y-18995D01*
X21334Y-14647D02*
X21334Y-13892D01*
X21334Y-13892D02*
X21221Y-13779D01*
X26500Y-16750D02*
X25430Y-15680D01*
X25430Y-15680D02*
X22367Y-15680D01*
X20963Y-13779D02*
X19622Y-15120D01*
X19622Y-15120D02*
X19343Y-15120D01*
X21221Y-13779D02*
X20963Y-13779D01*
X19050Y-15120D02*
X19343Y-15120D01*
X22367Y-15680D02*
X21334Y-14647D01*
X09136Y-18152D02*
X09152Y-18136D01*
X06257Y-16993D02*
X08126Y-16993D01*
X05500Y-17750D02*
X06257Y-16993D01*
X16200Y-19350D02*
X16200Y-19643D01*
X09152Y-18136D02*
X09152Y-17134D01*
X15060Y-20000D02*
X14933Y-20000D01*
X08126Y-16993D02*
X08444Y-17311D01*
X09507Y-16779D02*
X09983Y-16779D01*
X08444Y-18136D02*
X08460Y-18152D01*
X08444Y-17311D02*
X08444Y-18136D01*
X09152Y-17134D02*
X09507Y-16779D01*
X08460Y-18152D02*
X09136Y-18152D01*
X15141Y-19919D02*
X15060Y-20000D01*
X16200Y-19643D02*
X15924Y-19919D01*
X15924Y-19919D02*
X15141Y-19919D01*
X13958Y-06208D02*
X13500Y-05750D01*
X14218Y-09575D02*
X13916Y-09273D01*
X15895Y-06208D02*
X13958Y-06208D01*
X13830Y-12957D02*
X14218Y-12569D01*
X16489Y-07435D02*
X16489Y-06802D01*
X15585Y-07582D02*
X16342Y-07582D01*
X16342Y-07582D02*
X16489Y-07435D01*
X13830Y-13250D02*
X13830Y-12957D01*
X13916Y-09273D02*
X13916Y-09251D01*
X16489Y-06802D02*
X15895Y-06208D01*
X14218Y-12569D02*
X14218Y-09575D01*
X13916Y-09251D02*
X15585Y-07582D01*
X14030Y-13250D02*
X14030Y-12957D01*
X14341Y-09423D02*
X14180Y-09262D01*
X14341Y-12646D02*
X14341Y-09423D01*
X14030Y-12957D02*
X14341Y-12646D01*
X16072Y-14365D02*
X16072Y-14400D01*
X16522Y-13915D02*
X16072Y-14365D01*
X16522Y-13611D02*
X16522Y-13915D01*
X16590Y-13250D02*
X16590Y-13543D01*
X16590Y-13543D02*
X16522Y-13611D01*
X17233Y-13690D02*
X17233Y-14317D01*
X11450Y-08142D02*
X12288Y-08980D01*
X12288Y-08980D02*
X12289Y-08980D01*
X12289Y-08980D02*
X12289Y-09100D01*
X17380Y-13543D02*
X17233Y-13690D01*
X17380Y-13250D02*
X17380Y-13543D01*
X11125Y-08142D02*
X11450Y-08142D01*
X11109Y-07359D02*
X11109Y-08126D01*
X11109Y-08126D02*
X11125Y-08142D01*
X09500Y-05750D02*
X11109Y-07359D01*
X17570Y-14091D02*
X17570Y-13250D01*
X16216Y-14593D02*
X16266Y-14543D01*
X16353Y-14265D02*
X16555Y-14265D01*
X16266Y-14352D02*
X16353Y-14265D01*
X16653Y-14363D02*
X16653Y-14507D01*
X16767Y-14621D02*
X17202Y-14621D01*
X16653Y-14507D02*
X16767Y-14621D01*
X15972Y-14593D02*
X16216Y-14593D01*
X17455Y-14206D02*
X17570Y-14091D01*
X17455Y-14368D02*
X17455Y-14206D01*
X17202Y-14621D02*
X17455Y-14368D01*
X16266Y-14543D02*
X16266Y-14352D01*
X15808Y-14429D02*
X15972Y-14593D01*
X16555Y-14265D02*
X16653Y-14363D01*
X17578Y-14256D02*
X17894Y-13940D01*
X17578Y-14418D02*
X17578Y-14256D01*
X19050Y-13940D02*
X18757Y-13940D01*
X16717Y-14744D02*
X17252Y-14744D01*
X16459Y-14486D02*
X16717Y-14744D01*
X17894Y-13940D02*
X18757Y-13940D01*
X16459Y-14462D02*
X16459Y-14486D01*
X17252Y-14744D02*
X17578Y-14418D01*
X16990Y-19350D02*
X16990Y-19643D01*
X16990Y-20035D02*
X17060Y-20105D01*
X16990Y-19643D02*
X16990Y-20035D01*
X15143Y-19643D02*
X15047Y-19739D01*
X16000Y-19350D02*
X16000Y-19643D01*
X16000Y-19643D02*
X15143Y-19643D01*
X12950Y-16890D02*
X12657Y-16890D01*
X12657Y-16890D02*
X12286Y-17261D01*
X06903Y-21925D02*
X06875Y-21897D01*
X09774Y-21925D02*
X06903Y-21925D01*
X12286Y-19413D02*
X09774Y-21925D01*
X12286Y-17261D02*
X12286Y-19413D01*
X09724Y-21802D02*
X07053Y-21802D01*
X12163Y-19363D02*
X09724Y-21802D01*
X12163Y-17194D02*
X12163Y-19363D01*
X12657Y-16700D02*
X12163Y-17194D01*
X12950Y-16700D02*
X12657Y-16700D01*
X06454Y-21704D02*
X05500Y-20750D01*
X06955Y-21704D02*
X06454Y-21704D01*
X07053Y-21802D02*
X06955Y-21704D01*
X12950Y-16300D02*
X12657Y-16300D01*
X10224Y-20751D02*
X11888Y-19087D01*
X11888Y-19087D02*
X11888Y-17077D01*
X06869Y-20751D02*
X10224Y-20751D01*
X12657Y-16308D02*
X12657Y-16300D01*
X11888Y-17077D02*
X12657Y-16308D01*
X11629Y-16990D02*
X12403Y-16216D01*
X12950Y-15710D02*
X12657Y-15710D01*
X10113Y-20342D02*
X11629Y-18826D01*
X12657Y-15724D02*
X12657Y-15710D01*
X11629Y-18826D02*
X11629Y-16990D01*
X12403Y-15978D02*
X12657Y-15724D01*
X12403Y-16216D02*
X12403Y-15978D01*
X07107Y-20342D02*
X10113Y-20342D01*
X10258Y-20543D02*
X11765Y-19036D01*
X11765Y-17027D02*
X12526Y-16266D01*
X12526Y-16041D02*
X12657Y-15910D01*
X12526Y-16266D02*
X12526Y-16041D01*
X07446Y-20543D02*
X10258Y-20543D01*
X11765Y-19036D02*
X11765Y-17027D01*
X12950Y-15910D02*
X12657Y-15910D01*
X12950Y-15120D02*
X12657Y-15120D01*
X12629Y-15148D02*
X12657Y-15120D01*
X12629Y-15401D02*
X12629Y-15148D01*
X07616Y-20138D02*
X10144Y-20138D01*
X12280Y-15928D02*
X12525Y-15683D01*
X12525Y-15505D02*
X12629Y-15401D01*
X12525Y-15683D02*
X12525Y-15505D01*
X11501Y-16945D02*
X12280Y-16166D01*
X10144Y-20138D02*
X11501Y-18781D01*
X11501Y-18781D02*
X11501Y-16945D01*
X12280Y-16166D02*
X12280Y-15928D01*
X08500Y-11750D02*
X08898Y-12148D01*
X13000Y-10016D02*
X13000Y-09750D01*
X11391Y-11625D02*
X13000Y-10016D01*
X11391Y-12132D02*
X11391Y-11625D01*
X11375Y-12148D02*
X11391Y-12132D01*
X08898Y-12148D02*
X11375Y-12148D01*
X19717Y-15726D02*
X19343Y-16100D01*
X25100Y-16067D02*
X22141Y-16067D01*
X22141Y-16067D02*
X21800Y-15726D01*
X21800Y-15726D02*
X19717Y-15726D01*
X19050Y-16100D02*
X19343Y-16100D01*
X17979Y-14130D02*
X17772Y-14337D01*
X19050Y-14130D02*
X17979Y-14130D01*
X16715Y-13618D02*
X16715Y-13918D01*
X12358Y-07608D02*
X12358Y-08778D01*
X10500Y-05750D02*
X12358Y-07608D01*
X16790Y-13543D02*
X16715Y-13618D01*
X16790Y-13250D02*
X16790Y-13543D01*
X22799Y-06451D02*
X21040Y-06451D01*
X21040Y-06451D02*
X19440Y-08051D01*
X14820Y-13250D02*
X14820Y-12957D01*
X19440Y-08291D02*
X14820Y-12911D01*
X14820Y-12911D02*
X14820Y-12957D01*
X19440Y-08051D02*
X19440Y-08291D01*
X23500Y-05750D02*
X22799Y-06451D01*
X07101Y-21677D02*
X07005Y-21581D01*
X07005Y-21581D02*
X06971Y-21581D01*
X06971Y-21581D02*
X06319Y-20929D01*
X12950Y-16500D02*
X12657Y-16500D01*
X12039Y-19314D02*
X09676Y-21677D01*
X09676Y-21677D02*
X07101Y-21677D01*
X06319Y-19982D02*
X07066Y-19235D01*
X06319Y-20929D02*
X06319Y-19982D01*
X12039Y-17118D02*
X12039Y-19314D01*
X12657Y-16500D02*
X12039Y-17118D01*
X14054Y-16279D02*
X14054Y-15939D01*
X12950Y-17090D02*
X13243Y-17090D01*
X14258Y-15735D02*
X14054Y-15939D01*
X14024Y-14560D02*
X14258Y-14794D01*
X13243Y-17090D02*
X14054Y-16279D01*
X14258Y-14794D02*
X14258Y-15735D01*
X19716Y-14680D02*
X19414Y-14680D01*
X13392Y-18552D02*
X13310Y-18470D01*
X16077Y-16844D02*
X16016Y-16783D01*
X16016Y-16783D02*
X15368Y-16783D01*
X15223Y-16928D02*
X15223Y-17157D01*
X13828Y-18552D02*
X13392Y-18552D01*
X15223Y-17157D02*
X13828Y-18552D01*
X22646Y-11750D02*
X19716Y-14680D01*
X15368Y-16783D02*
X15223Y-16928D01*
X23500Y-11750D02*
X22646Y-11750D01*
X13310Y-18470D02*
X12950Y-18470D01*
X13614Y-17446D02*
X13458Y-17290D01*
X13614Y-18070D02*
X13614Y-17446D01*
X13571Y-18113D02*
X13614Y-18070D01*
X13458Y-17290D02*
X12950Y-17290D01*
X16459Y-22315D02*
X16733Y-22041D01*
X16256Y-22315D02*
X16459Y-22315D01*
X17107Y-20887D02*
X16636Y-20416D01*
X17107Y-21449D02*
X17107Y-20887D01*
X16256Y-21685D02*
X16256Y-21385D01*
X15884Y-20416D02*
X15500Y-20800D01*
X17272Y-21614D02*
X17107Y-21449D01*
X16636Y-20416D02*
X15884Y-20416D01*
X17272Y-21816D02*
X17272Y-21614D01*
X16407Y-21385D02*
X16642Y-21620D01*
X16642Y-21620D02*
X16642Y-21677D01*
X17116Y-21972D02*
X17272Y-21816D01*
X16256Y-21385D02*
X16407Y-21385D01*
X16937Y-21972D02*
X17116Y-21972D01*
X16642Y-21677D02*
X16937Y-21972D01*
X16325Y-20800D02*
X16500Y-20800D01*
X15744Y-21381D02*
X16325Y-20800D01*
X15744Y-21685D02*
X15744Y-21381D01*
X15744Y-22315D02*
X15744Y-22015D01*
X15094Y-20584D02*
X15239Y-20439D01*
X13413Y-17650D02*
X13413Y-17869D01*
X12950Y-17480D02*
X13243Y-17480D01*
X15744Y-22015D02*
X15612Y-22015D01*
X13243Y-17480D02*
X13413Y-17650D01*
X15094Y-21497D02*
X15094Y-20584D01*
X15612Y-22015D02*
X15094Y-21497D01*
X12402Y-15455D02*
X12506Y-15351D01*
X12402Y-15633D02*
X12402Y-15455D01*
X12506Y-15351D02*
X12506Y-15071D01*
X12506Y-15071D02*
X12657Y-14920D01*
X12950Y-14920D02*
X12657Y-14920D01*
X10373Y-17432D02*
X10373Y-18647D01*
X08234Y-18506D02*
X09075Y-18506D01*
X09348Y-18233D02*
X09348Y-17111D01*
X09989Y-17048D02*
X10373Y-17432D01*
X09411Y-17048D02*
X09989Y-17048D01*
X09348Y-17111D02*
X09411Y-17048D01*
X12157Y-16116D02*
X12157Y-15878D01*
X10647Y-18921D02*
X11188Y-18921D01*
X09075Y-18506D02*
X09348Y-18233D01*
X11188Y-18921D02*
X11377Y-18732D01*
X11377Y-16896D02*
X12157Y-16116D01*
X11377Y-18732D02*
X11377Y-16896D01*
X10373Y-18647D02*
X10647Y-18921D01*
X12157Y-15878D02*
X12402Y-15633D01*
X17180Y-13250D02*
X17180Y-13543D01*
X16908Y-14366D02*
X16846Y-14428D01*
X11574Y-15558D02*
X11574Y-14533D01*
X16908Y-13815D02*
X16908Y-14366D01*
X11254Y-15878D02*
X11574Y-15558D01*
X11254Y-18296D02*
X11254Y-15878D01*
X11000Y-18550D02*
X11254Y-18296D01*
X11752Y-14533D02*
X13113Y-13172D01*
X17180Y-13543D02*
X16908Y-13815D01*
X11574Y-14533D02*
X11752Y-14533D01*
G54D31*
X18500Y-25550D02*
X18275Y-25550D01*
X16050Y-24700D02*
X15000Y-25750D01*
X17425Y-24700D02*
X16050Y-24700D01*
X18275Y-25550D02*
X17425Y-24700D01*
G54D29*
X09043Y-18838D02*
X09700Y-18181D01*
X09043Y-19377D02*
X09043Y-18838D01*
X08604Y-19816D02*
X09043Y-19377D01*
X06884Y-19816D02*
X08604Y-19816D01*
X23790Y-23268D02*
X24521Y-22537D01*
X22500Y-24019D02*
X23251Y-23268D01*
X15071Y-24701D02*
X14495Y-25277D01*
X06587Y-20113D02*
X06884Y-19816D01*
G54D32*
X15071Y-24701D02*
X15099Y-24701D01*
G54D29*
X22500Y-24550D02*
X22500Y-24019D01*
X18676Y-23188D02*
X18185Y-23188D01*
X20455Y-24967D02*
X18676Y-23188D01*
G54D32*
X15099Y-24701D02*
X15800Y-24000D01*
X15800Y-24000D02*
X17373Y-24000D01*
G54D29*
X14039Y-25094D02*
X14039Y-23600D01*
X14222Y-25277D02*
X14039Y-25094D01*
X14495Y-25277D02*
X14222Y-25277D01*
X06940Y-21250D02*
X06587Y-20897D01*
X08500Y-21250D02*
X06940Y-21250D01*
G54D31*
X19700Y-25550D02*
X18500Y-26750D01*
X20450Y-25550D02*
X19700Y-25550D01*
X22500Y-25550D02*
X20450Y-25550D01*
G54D32*
X20455Y-25550D02*
X20450Y-25555D01*
X20450Y-25555D02*
X20450Y-25600D01*
X20450Y-25600D02*
X20450Y-25550D01*
G54D31*
X22500Y-24550D02*
X22500Y-25550D01*
G54D32*
X20455Y-25225D02*
X20455Y-25550D01*
G54D29*
X23251Y-23268D02*
X23790Y-23268D01*
X09700Y-17600D02*
X09700Y-18181D01*
X24521Y-22537D02*
X24521Y-21114D01*
X20455Y-25367D02*
X20455Y-25225D01*
X20455Y-25225D02*
X20455Y-24967D01*
X18185Y-23188D02*
X17373Y-24000D01*
X06587Y-20897D02*
X06587Y-20113D01*
X14039Y-23600D02*
X14168Y-23471D01*
M02*
