G04 (created by PCBNEW-RS274X (2012-apr-16-27)-stable) date dim. 02 juin 2013 12:50:08 CST*
G01*
G70*
G90*
%MOIN*%
G04 Gerber Fmt 3.4, Leading zero omitted, Abs format*
%FSLAX34Y34*%
G04 APERTURE LIST*
%ADD10C,0.006000*%
%ADD11C,0.100000*%
%ADD12C,0.055000*%
%ADD13C,0.060000*%
%ADD14R,0.055000X0.055000*%
%ADD15C,0.066000*%
%ADD16C,0.056000*%
%ADD17C,0.160000*%
%ADD18C,0.070000*%
%ADD19R,0.070000X0.070000*%
%ADD20C,0.045000*%
%ADD21C,0.026000*%
%ADD22C,0.020000*%
%ADD23C,0.012000*%
%ADD24C,0.008200*%
%ADD25C,0.050000*%
G04 APERTURE END LIST*
G54D10*
G54D11*
X17000Y-25750D03*
X15000Y-25750D03*
G54D12*
X06500Y-26750D03*
X07500Y-26750D03*
X08500Y-26750D03*
X09500Y-26750D03*
X10500Y-26750D03*
X11500Y-26750D03*
X12500Y-26750D03*
X13500Y-26750D03*
X18500Y-26750D03*
X19500Y-26750D03*
X20500Y-26750D03*
X21500Y-26750D03*
X22500Y-26750D03*
X23500Y-26750D03*
X24500Y-26750D03*
X25500Y-26750D03*
G54D13*
X22000Y-10750D03*
X22000Y-11750D03*
X21000Y-10750D03*
X21000Y-11750D03*
G54D14*
X10000Y-11750D03*
G54D12*
X11000Y-11750D03*
G54D14*
X10000Y-10750D03*
G54D12*
X11000Y-10750D03*
G54D14*
X21200Y-17300D03*
G54D12*
X21200Y-16300D03*
X21200Y-15300D03*
G54D14*
X10800Y-17300D03*
G54D12*
X10800Y-16300D03*
X10800Y-15300D03*
G54D14*
X05500Y-16750D03*
G54D12*
X05500Y-17750D03*
X05500Y-18750D03*
X05500Y-19750D03*
X05500Y-20750D03*
X05500Y-21750D03*
X05500Y-22750D03*
X05500Y-23750D03*
X05500Y-24750D03*
X05500Y-25750D03*
G54D14*
X26500Y-25750D03*
G54D12*
X26500Y-24750D03*
X26500Y-23750D03*
X26500Y-22750D03*
X26500Y-21750D03*
X26500Y-20750D03*
X26500Y-19750D03*
X26500Y-18750D03*
X26500Y-17750D03*
X26500Y-16750D03*
G54D14*
X26500Y-15750D03*
G54D12*
X26500Y-14750D03*
X26500Y-13750D03*
X26500Y-12750D03*
X26500Y-11750D03*
X26500Y-10750D03*
X26500Y-09750D03*
X26500Y-08750D03*
X26500Y-07750D03*
X26500Y-06750D03*
G54D14*
X25500Y-05750D03*
G54D12*
X24500Y-05750D03*
X23500Y-05750D03*
X22500Y-05750D03*
X21500Y-05750D03*
X20500Y-05750D03*
X19500Y-05750D03*
X18500Y-05750D03*
X17500Y-05750D03*
X16500Y-05750D03*
G54D14*
X15500Y-05750D03*
G54D12*
X14500Y-05750D03*
X13500Y-05750D03*
X12500Y-05750D03*
X11500Y-05750D03*
X10500Y-05750D03*
X09500Y-05750D03*
X08500Y-05750D03*
X07500Y-05750D03*
X06500Y-05750D03*
G54D14*
X05500Y-06750D03*
G54D12*
X05500Y-07750D03*
X05500Y-08750D03*
X05500Y-09750D03*
X05500Y-10750D03*
X05500Y-11750D03*
X05500Y-12750D03*
X05500Y-13750D03*
X05500Y-14750D03*
X05500Y-15750D03*
G54D15*
X16000Y-07100D03*
X16000Y-08100D03*
G54D14*
X14500Y-20800D03*
G54D12*
X15500Y-20800D03*
X16500Y-20800D03*
X17500Y-20800D03*
X19000Y-09750D03*
X19000Y-06750D03*
X11000Y-18550D03*
X11000Y-21550D03*
X21000Y-18550D03*
X21000Y-21550D03*
G54D16*
X17000Y-11600D03*
X15000Y-11600D03*
G54D14*
X09500Y-19250D03*
G54D12*
X08500Y-19250D03*
G54D14*
X23500Y-19250D03*
G54D12*
X22500Y-19250D03*
X23500Y-11750D03*
X23500Y-10750D03*
X08500Y-21250D03*
X09500Y-21250D03*
X09500Y-22700D03*
X08500Y-22700D03*
X20300Y-22700D03*
X21300Y-22700D03*
X21500Y-08750D03*
X20500Y-08750D03*
X10500Y-08750D03*
X11500Y-08750D03*
X15500Y-09900D03*
X16500Y-09900D03*
X08500Y-11750D03*
X08500Y-10750D03*
X19000Y-11750D03*
X19000Y-10750D03*
X13000Y-10750D03*
X13000Y-11750D03*
X23500Y-13250D03*
X22500Y-13250D03*
X22500Y-21250D03*
X23500Y-21250D03*
X09500Y-13250D03*
X08500Y-13250D03*
X10700Y-22700D03*
X11700Y-22700D03*
X23500Y-22700D03*
X22500Y-22700D03*
X20500Y-07750D03*
X21500Y-07750D03*
X10500Y-07750D03*
X11500Y-07750D03*
G54D17*
X08000Y-24250D03*
X24000Y-24250D03*
X08000Y-08250D03*
X24000Y-08250D03*
G54D12*
X13000Y-09750D03*
X13000Y-06750D03*
G54D13*
X18500Y-23700D03*
X13500Y-23700D03*
G54D18*
X09500Y-24550D03*
G54D19*
X13500Y-24550D03*
G54D18*
X09500Y-25550D03*
G54D19*
X13500Y-25550D03*
G54D18*
X18500Y-24550D03*
G54D19*
X22500Y-24550D03*
G54D18*
X18500Y-25550D03*
G54D19*
X22500Y-25550D03*
G54D20*
X20933Y-20514D03*
X12075Y-24471D03*
G54D21*
X12878Y-19118D03*
X09522Y-23552D03*
X13049Y-21781D03*
X15150Y-24200D03*
X14952Y-21701D03*
X17804Y-21838D03*
X13810Y-15500D03*
X13259Y-19931D03*
X15468Y-17028D03*
X17226Y-17618D03*
X13895Y-21853D03*
X17027Y-21715D03*
X18516Y-20674D03*
X12865Y-22086D03*
X18530Y-21021D03*
X19517Y-22235D03*
X18130Y-16969D03*
G54D22*
X19826Y-12741D03*
X20354Y-21259D03*
X16771Y-16979D03*
X17896Y-08074D03*
X15346Y-16384D03*
X11964Y-16036D03*
X15375Y-13970D03*
X11944Y-15121D03*
X23643Y-19804D03*
X24015Y-15873D03*
X11990Y-15772D03*
X21989Y-26509D03*
X11963Y-15385D03*
X16545Y-16198D03*
X18270Y-08664D03*
X16496Y-15519D03*
X16260Y-16571D03*
X18318Y-08374D03*
X16597Y-16780D03*
X17931Y-08338D03*
X11967Y-12973D03*
X16780Y-15515D03*
X18556Y-18257D03*
X17578Y-17853D03*
X18046Y-18264D03*
X16632Y-18301D03*
X17643Y-18269D03*
X10687Y-13750D03*
X17913Y-19719D03*
X17308Y-18303D03*
X10950Y-13987D03*
X17027Y-18324D03*
X11202Y-14109D03*
X14535Y-11775D03*
X13713Y-12100D03*
X13808Y-08531D03*
X18687Y-15710D03*
X19798Y-17673D03*
X19892Y-18141D03*
X19754Y-16170D03*
X19694Y-16493D03*
X19413Y-15446D03*
X21133Y-13972D03*
X19750Y-17003D03*
X19646Y-14155D03*
X19958Y-19921D03*
X19958Y-18801D03*
X20245Y-18862D03*
X14933Y-20000D03*
X09983Y-16779D03*
X14180Y-09262D03*
X16072Y-14400D03*
X12289Y-09100D03*
X17233Y-14317D03*
X15808Y-14429D03*
X16459Y-14462D03*
X17060Y-20105D03*
X15047Y-19739D03*
X06875Y-21897D03*
X06869Y-20751D03*
X07107Y-20342D03*
X07446Y-20543D03*
X07616Y-20138D03*
X25100Y-16067D03*
X17772Y-14337D03*
X16715Y-13918D03*
X12358Y-08778D03*
X07066Y-19235D03*
X14024Y-14560D03*
X14054Y-15939D03*
X19414Y-14680D03*
X16077Y-16844D03*
X16733Y-22041D03*
X13571Y-18113D03*
X15239Y-20439D03*
X13413Y-17869D03*
X08234Y-18506D03*
X16846Y-14428D03*
X13113Y-13172D03*
X11574Y-14533D03*
G54D20*
X14168Y-23471D03*
X24521Y-21114D03*
G54D23*
X21793Y-16893D02*
X21200Y-16300D01*
X21793Y-20543D02*
X21793Y-16893D01*
X22500Y-21250D02*
X21793Y-20543D01*
X13511Y-22680D02*
X13293Y-22680D01*
X14020Y-19819D02*
X14020Y-21538D01*
X13293Y-22680D02*
X12075Y-23898D01*
X14206Y-21724D02*
X14206Y-21985D01*
X21483Y-19964D02*
X20933Y-20514D01*
X21483Y-18039D02*
X21483Y-19964D01*
X09647Y-17027D02*
X10618Y-17998D01*
X12199Y-17998D02*
X14020Y-19819D01*
X21200Y-17300D02*
X21200Y-17756D01*
X09647Y-16642D02*
X09647Y-17027D01*
X14206Y-21985D02*
X13511Y-22680D01*
X14020Y-21538D02*
X14206Y-21724D01*
X21200Y-17756D02*
X21483Y-18039D01*
X12075Y-23898D02*
X12075Y-24471D01*
X10618Y-17998D02*
X12199Y-17998D01*
X10800Y-16300D02*
X09989Y-16300D01*
X09989Y-16300D02*
X09647Y-16642D01*
G54D24*
X09972Y-23102D02*
X09972Y-22012D01*
X12866Y-19118D02*
X12878Y-19118D01*
X09972Y-22012D02*
X12866Y-19118D01*
X09522Y-23552D02*
X09972Y-23102D01*
X19789Y-08180D02*
X19290Y-07681D01*
X17561Y-07681D02*
X16457Y-08785D01*
X22000Y-08557D02*
X22000Y-10750D01*
X12496Y-07750D02*
X11500Y-07750D01*
X16457Y-08785D02*
X13531Y-08785D01*
X11700Y-22700D02*
X12619Y-21781D01*
X21500Y-07750D02*
X21362Y-07888D01*
X21362Y-07919D02*
X22000Y-08557D01*
X14950Y-24200D02*
X14952Y-24200D01*
X13531Y-08785D02*
X12496Y-07750D01*
X14952Y-24200D02*
X14950Y-24200D01*
X15150Y-24200D02*
X14952Y-24200D01*
X19290Y-07681D02*
X17561Y-07681D01*
X21101Y-08180D02*
X19789Y-08180D01*
X12619Y-21781D02*
X13049Y-21781D01*
X21362Y-07919D02*
X21101Y-08180D01*
X21362Y-07888D02*
X21362Y-07919D01*
X14952Y-21701D02*
X14952Y-24200D01*
G54D23*
X23500Y-13250D02*
X23500Y-18794D01*
X23500Y-19250D02*
X23500Y-18794D01*
G54D24*
X21500Y-11250D02*
X21500Y-08750D01*
X13259Y-21525D02*
X13259Y-19931D01*
X11025Y-21525D02*
X11000Y-21550D01*
X13259Y-21525D02*
X11025Y-21525D01*
X18545Y-20674D02*
X18516Y-20674D01*
X20300Y-22429D02*
X18545Y-20674D01*
X20300Y-22700D02*
X20300Y-22429D01*
X16244Y-09498D02*
X16244Y-09644D01*
X13567Y-21525D02*
X13895Y-21853D01*
X16244Y-09498D02*
X13743Y-09498D01*
X21098Y-08348D02*
X19228Y-08348D01*
X19228Y-08348D02*
X18728Y-07848D01*
X18728Y-07848D02*
X17803Y-07848D01*
X17803Y-07848D02*
X16244Y-09407D01*
X16244Y-09407D02*
X16244Y-09498D01*
X11865Y-08385D02*
X11500Y-08750D01*
X12630Y-08385D02*
X11865Y-08385D01*
X13743Y-09498D02*
X12630Y-08385D01*
X16244Y-09644D02*
X16500Y-09900D01*
X22000Y-11750D02*
X21500Y-11250D01*
X13259Y-21525D02*
X13567Y-21525D01*
X12068Y-13323D02*
X11601Y-13323D01*
X11000Y-12722D02*
X11000Y-11750D01*
X11601Y-13323D02*
X11000Y-12722D01*
X17804Y-21838D02*
X17150Y-21838D01*
X12349Y-13604D02*
X12068Y-13323D01*
X12383Y-13604D02*
X12349Y-13604D01*
X13810Y-15031D02*
X12383Y-13604D01*
X13810Y-15500D02*
X13810Y-15031D01*
X21500Y-08750D02*
X21098Y-08348D01*
X17150Y-21838D02*
X17027Y-21715D01*
X13977Y-15500D02*
X14874Y-16397D01*
X17226Y-17618D02*
X16058Y-17618D01*
X15316Y-17028D02*
X15468Y-17028D01*
X13810Y-15500D02*
X13977Y-15500D01*
X16058Y-17618D02*
X15468Y-17028D01*
X14874Y-16586D02*
X15316Y-17028D01*
X14874Y-16397D02*
X14874Y-16586D01*
G54D23*
X09406Y-18700D02*
X09500Y-18794D01*
X09406Y-15691D02*
X09406Y-18700D01*
X09797Y-15300D02*
X09406Y-15691D01*
X09500Y-13250D02*
X09500Y-15003D01*
X09500Y-19250D02*
X09500Y-18794D01*
X09797Y-15300D02*
X10800Y-15300D01*
X09500Y-15003D02*
X09797Y-15300D01*
X14956Y-21258D02*
X17398Y-23700D01*
X14652Y-20110D02*
X14652Y-20126D01*
X14956Y-20430D02*
X14956Y-21258D01*
X11842Y-17300D02*
X14652Y-20110D01*
X10800Y-17300D02*
X11842Y-17300D01*
X17398Y-23700D02*
X18500Y-23700D01*
X14652Y-20126D02*
X14956Y-20430D01*
X14600Y-23640D02*
X14600Y-21356D01*
X13500Y-23700D02*
X13729Y-23929D01*
X13729Y-23929D02*
X14311Y-23929D01*
X14311Y-23929D02*
X14600Y-23640D01*
X14500Y-20800D02*
X14500Y-21256D01*
X14600Y-21356D02*
X14500Y-21256D01*
X08500Y-20512D02*
X08762Y-20512D01*
X08500Y-19250D02*
X08515Y-19235D01*
X24244Y-20262D02*
X23512Y-20262D01*
X08034Y-22880D02*
X08034Y-20978D01*
X08034Y-20978D02*
X08500Y-20512D01*
G54D25*
X09500Y-24550D02*
X09500Y-25550D01*
G54D23*
X24645Y-21565D02*
X24927Y-21283D01*
G54D25*
X13450Y-26750D02*
X12250Y-25550D01*
G54D23*
X23823Y-21250D02*
X24138Y-21565D01*
X09500Y-24346D02*
X08034Y-22880D01*
X23500Y-21250D02*
X23823Y-21250D01*
X08515Y-13265D02*
X08500Y-13250D01*
X24138Y-21565D02*
X24645Y-21565D01*
G54D25*
X12250Y-25550D02*
X09500Y-25550D01*
G54D23*
X22500Y-13250D02*
X22500Y-19250D01*
X08500Y-20512D02*
X08500Y-19250D01*
X24927Y-20945D02*
X24244Y-20262D01*
G54D25*
X13500Y-26750D02*
X13450Y-26750D01*
G54D23*
X23512Y-20262D02*
X22500Y-19250D01*
X08762Y-20512D02*
X09500Y-21250D01*
X09500Y-24550D02*
X09500Y-24346D01*
X08515Y-19235D02*
X08515Y-13265D01*
X24927Y-21283D02*
X24927Y-20945D01*
G54D24*
X13729Y-11021D02*
X13729Y-09900D01*
X20000Y-07750D02*
X19000Y-06750D01*
X21000Y-10750D02*
X21000Y-09250D01*
X13000Y-11750D02*
X13729Y-11021D01*
X10500Y-08750D02*
X10500Y-07750D01*
X19000Y-10750D02*
X16350Y-10750D01*
X23500Y-09821D02*
X23500Y-10750D01*
X22099Y-08420D02*
X23500Y-09821D01*
X21000Y-11750D02*
X21000Y-10750D01*
X20500Y-07750D02*
X21267Y-06983D01*
X21267Y-06983D02*
X21299Y-06983D01*
X21299Y-06983D02*
X22099Y-07783D01*
X13729Y-09720D02*
X12561Y-08552D01*
X13729Y-09900D02*
X13729Y-09720D01*
X12265Y-08552D02*
X11665Y-09152D01*
X10902Y-09152D02*
X10500Y-08750D01*
X22099Y-07783D02*
X22099Y-08420D01*
X11102Y-23102D02*
X11864Y-23102D01*
X10700Y-22700D02*
X11102Y-23102D01*
X20500Y-07750D02*
X20000Y-07750D01*
X20498Y-11750D02*
X21000Y-11750D01*
X19179Y-13069D02*
X20498Y-11750D01*
X19179Y-14330D02*
X19179Y-13069D01*
X18130Y-15379D02*
X19179Y-14330D01*
X18130Y-16969D02*
X18130Y-15379D01*
X15500Y-09900D02*
X13729Y-09900D01*
X21000Y-09250D02*
X20500Y-08750D01*
X16350Y-10750D02*
X15500Y-09900D01*
X11665Y-09152D02*
X10902Y-09152D01*
X12561Y-08552D02*
X12265Y-08552D01*
X12865Y-22101D02*
X12865Y-22086D01*
X11864Y-23102D02*
X12865Y-22101D01*
X18530Y-21021D02*
X18530Y-21248D01*
X18530Y-21248D02*
X19517Y-22235D01*
G54D10*
X19839Y-14336D02*
X19839Y-12754D01*
X19393Y-20298D02*
X19393Y-17894D01*
X19315Y-17816D02*
X19315Y-15991D01*
X19746Y-15560D02*
X19746Y-14429D01*
X19393Y-17894D02*
X19315Y-17816D01*
X19746Y-14429D02*
X19839Y-14336D01*
X20354Y-21259D02*
X19393Y-20298D01*
X19315Y-15991D02*
X19746Y-15560D01*
X19839Y-12754D02*
X19826Y-12741D01*
X19883Y-09223D02*
X19883Y-12145D01*
X17814Y-15936D02*
X16771Y-16979D01*
X17896Y-08074D02*
X17912Y-08058D01*
X19883Y-12145D02*
X19023Y-13005D01*
X17814Y-15475D02*
X17814Y-15936D01*
X19023Y-14266D02*
X17814Y-15475D01*
X18718Y-08058D02*
X19883Y-09223D01*
X17912Y-08058D02*
X18718Y-08058D01*
X19023Y-13005D02*
X19023Y-14266D01*
X17150Y-11750D02*
X17965Y-11750D01*
X15880Y-15850D02*
X15346Y-16384D01*
X17199Y-15225D02*
X17199Y-15451D01*
X17965Y-14459D02*
X17199Y-15225D01*
X17000Y-11600D02*
X17150Y-11750D01*
X17965Y-11750D02*
X19000Y-11750D01*
X17965Y-11750D02*
X17965Y-14459D01*
X16800Y-15850D02*
X15880Y-15850D01*
X17199Y-15451D02*
X16800Y-15850D01*
X13434Y-17545D02*
X11964Y-16075D01*
X17108Y-19880D02*
X17046Y-19880D01*
X17568Y-21593D02*
X16986Y-21011D01*
X19006Y-25256D02*
X19006Y-22694D01*
X16986Y-20462D02*
X17253Y-20195D01*
X20500Y-26750D02*
X19006Y-25256D01*
X17046Y-19879D02*
X16013Y-19879D01*
X16986Y-21011D02*
X16986Y-20462D01*
X17046Y-19880D02*
X17046Y-19879D01*
X17905Y-21593D02*
X17568Y-21593D01*
X19006Y-22694D02*
X17905Y-21593D01*
X17253Y-20195D02*
X17253Y-20025D01*
X16013Y-19879D02*
X13679Y-17545D01*
X17253Y-20025D02*
X17108Y-19880D01*
X11964Y-16075D02*
X11964Y-16036D01*
X13679Y-17545D02*
X13434Y-17545D01*
X12590Y-11895D02*
X12590Y-11160D01*
X13728Y-11582D02*
X13146Y-12164D01*
X12859Y-12164D02*
X12590Y-11895D01*
X13146Y-12164D02*
X12859Y-12164D01*
X15000Y-11600D02*
X14952Y-11648D01*
X12590Y-11160D02*
X13000Y-10750D01*
X14886Y-11582D02*
X13728Y-11582D01*
X14952Y-11648D02*
X14886Y-11582D01*
X15375Y-12071D02*
X15375Y-13970D01*
X14952Y-11648D02*
X15375Y-12071D01*
X22500Y-26750D02*
X22500Y-26741D01*
X13829Y-17176D02*
X13584Y-17176D01*
X12403Y-15520D02*
X12004Y-15121D01*
X18761Y-20642D02*
X18761Y-20573D01*
X12403Y-15995D02*
X12403Y-15520D01*
X16163Y-19510D02*
X13829Y-17176D01*
X13584Y-17176D02*
X12403Y-15995D01*
X22500Y-26741D02*
X20706Y-24947D01*
X18761Y-20573D02*
X18617Y-20429D01*
X18176Y-20429D02*
X17257Y-19510D01*
X20063Y-21944D02*
X18761Y-20642D01*
X20095Y-21944D02*
X20063Y-21944D01*
X17257Y-19510D02*
X16163Y-19510D01*
X18617Y-20429D02*
X18176Y-20429D01*
X20706Y-22555D02*
X20095Y-21944D01*
X12004Y-15121D02*
X11944Y-15121D01*
X20706Y-24947D02*
X20706Y-22555D01*
X24015Y-15873D02*
X24015Y-19531D01*
X24015Y-19531D02*
X23742Y-19804D01*
X23742Y-19804D02*
X23643Y-19804D01*
X17618Y-21470D02*
X17109Y-20961D01*
X17157Y-19756D02*
X16063Y-19756D01*
X12157Y-15939D02*
X11990Y-15772D01*
X17376Y-20245D02*
X17376Y-19975D01*
X13484Y-17422D02*
X12157Y-16095D01*
X12157Y-16095D02*
X12157Y-15939D01*
X16063Y-19756D02*
X13729Y-17422D01*
X17376Y-19975D02*
X17157Y-19756D01*
X17109Y-20512D02*
X17376Y-20245D01*
X17955Y-21470D02*
X17618Y-21470D01*
X17109Y-20961D02*
X17109Y-20512D01*
X19129Y-24379D02*
X19129Y-22644D01*
X13729Y-17422D02*
X13484Y-17422D01*
X21500Y-26750D02*
X19129Y-24379D01*
X19129Y-22644D02*
X17955Y-21470D01*
X16113Y-19633D02*
X13779Y-17299D01*
X12280Y-16045D02*
X12280Y-15702D01*
X17207Y-19633D02*
X16113Y-19633D01*
X12280Y-15702D02*
X11963Y-15385D01*
X19252Y-23772D02*
X19252Y-22594D01*
X21989Y-26509D02*
X19252Y-23772D01*
X13779Y-17299D02*
X13534Y-17299D01*
X17990Y-21332D02*
X17990Y-20416D01*
X17990Y-20416D02*
X17207Y-19633D01*
X19252Y-22594D02*
X17990Y-21332D01*
X13534Y-17299D02*
X12280Y-16045D01*
X18618Y-12881D02*
X19514Y-11985D01*
X18618Y-14152D02*
X18618Y-12881D01*
X19514Y-11985D02*
X19514Y-09702D01*
X18476Y-08664D02*
X18270Y-08664D01*
X19514Y-09702D02*
X18476Y-08664D01*
X16799Y-16197D02*
X17445Y-15551D01*
X16545Y-16198D02*
X16545Y-16197D01*
X17445Y-15551D02*
X17445Y-15325D01*
X16545Y-16197D02*
X16799Y-16197D01*
X17445Y-15325D02*
X18618Y-14152D01*
X13966Y-14056D02*
X15429Y-15519D01*
X09543Y-11148D02*
X11135Y-11148D01*
X12513Y-13202D02*
X12547Y-13202D01*
X11135Y-11148D02*
X11537Y-11550D01*
X11537Y-11550D02*
X11537Y-12226D01*
X06145Y-07750D02*
X09543Y-11148D01*
X13401Y-14056D02*
X13966Y-14056D01*
X15429Y-15519D02*
X16496Y-15519D01*
X12547Y-13202D02*
X13401Y-14056D01*
X05500Y-07750D02*
X06145Y-07750D01*
X11537Y-12226D02*
X12513Y-13202D01*
X18414Y-08374D02*
X19637Y-09597D01*
X18777Y-12905D02*
X18777Y-14166D01*
X16598Y-16571D02*
X16260Y-16571D01*
X17568Y-15601D02*
X16598Y-16571D01*
X19637Y-12045D02*
X18777Y-12905D01*
X17568Y-15375D02*
X17568Y-15601D01*
X18777Y-14166D02*
X17568Y-15375D01*
X19637Y-09597D02*
X19637Y-12045D01*
X18318Y-08374D02*
X18414Y-08374D01*
X18088Y-08181D02*
X18640Y-08181D01*
X19760Y-09301D02*
X19760Y-12095D01*
X17931Y-08338D02*
X18088Y-08181D01*
X18900Y-14216D02*
X17691Y-15425D01*
X17691Y-15686D02*
X16597Y-16780D01*
X17691Y-15425D02*
X17691Y-15686D01*
X18900Y-12955D02*
X18900Y-14216D01*
X19760Y-12095D02*
X18900Y-12955D01*
X18640Y-08181D02*
X19760Y-09301D01*
X16568Y-15727D02*
X16780Y-15515D01*
X12111Y-12973D02*
X12463Y-13325D01*
X12497Y-13325D02*
X13459Y-14287D01*
X15464Y-15727D02*
X16568Y-15727D01*
X13459Y-14287D02*
X14024Y-14287D01*
X11967Y-12973D02*
X12111Y-12973D01*
X14024Y-14287D02*
X15464Y-15727D01*
X12463Y-13325D02*
X12497Y-13325D01*
X11391Y-12893D02*
X11665Y-13167D01*
X08109Y-11359D02*
X11171Y-11359D01*
X12132Y-13167D02*
X12413Y-13448D01*
X11171Y-11359D02*
X11391Y-11579D01*
X15030Y-16031D02*
X15030Y-16522D01*
X15030Y-16522D02*
X15291Y-16783D01*
X12413Y-13448D02*
X12447Y-13448D01*
X12447Y-13448D02*
X15030Y-16031D01*
X15569Y-16783D02*
X16159Y-17373D01*
X11391Y-11579D02*
X11391Y-12893D01*
X05500Y-08750D02*
X08109Y-11359D01*
X17672Y-17373D02*
X18556Y-18257D01*
X15291Y-16783D02*
X15569Y-16783D01*
X11665Y-13167D02*
X12132Y-13167D01*
X16159Y-17373D02*
X17672Y-17373D01*
X11487Y-13602D02*
X10016Y-12131D01*
X10016Y-12131D02*
X07881Y-12131D01*
X07881Y-12131D02*
X05500Y-09750D01*
X13442Y-15056D02*
X12269Y-13883D01*
X17567Y-17864D02*
X15901Y-17864D01*
X15901Y-17864D02*
X14229Y-16192D01*
X12269Y-13883D02*
X12235Y-13883D01*
X12235Y-13883D02*
X11954Y-13602D01*
X11954Y-13602D02*
X11487Y-13602D01*
X13442Y-15650D02*
X13442Y-15056D01*
X13984Y-16192D02*
X13442Y-15650D01*
X17578Y-17853D02*
X17567Y-17864D01*
X14229Y-16192D02*
X13984Y-16192D01*
X11904Y-13725D02*
X11437Y-13725D01*
X10027Y-12315D02*
X07065Y-12315D01*
X07065Y-12315D02*
X05500Y-10750D01*
X11437Y-13725D02*
X10027Y-12315D01*
X12219Y-14006D02*
X12185Y-14006D01*
X18046Y-18264D02*
X17828Y-18046D01*
X13319Y-15106D02*
X12219Y-14006D01*
X17438Y-17987D02*
X15851Y-17987D01*
X15851Y-17987D02*
X14179Y-16315D01*
X14179Y-16315D02*
X13934Y-16315D01*
X13934Y-16315D02*
X13319Y-15700D01*
X17497Y-18046D02*
X17438Y-17987D01*
X13319Y-15700D02*
X13319Y-15106D01*
X17828Y-18046D02*
X17497Y-18046D01*
X12185Y-14006D02*
X11904Y-13725D01*
X12169Y-14129D02*
X12135Y-14129D01*
X13884Y-16438D02*
X13196Y-15750D01*
X06188Y-12438D02*
X05500Y-11750D01*
X09977Y-12438D02*
X06188Y-12438D01*
X13196Y-15156D02*
X12169Y-14129D01*
X11387Y-13848D02*
X09977Y-12438D01*
X15992Y-18301D02*
X14129Y-16438D01*
X13196Y-15750D02*
X13196Y-15156D01*
X12135Y-14129D02*
X11854Y-13848D01*
X11854Y-13848D02*
X11387Y-13848D01*
X14129Y-16438D02*
X13884Y-16438D01*
X16632Y-18301D02*
X15992Y-18301D01*
X09938Y-12572D02*
X05678Y-12572D01*
X13073Y-15206D02*
X12119Y-14252D01*
X12085Y-14252D02*
X11804Y-13971D01*
X05678Y-12572D02*
X05500Y-12750D01*
X11337Y-13971D02*
X09938Y-12572D01*
X11804Y-13971D02*
X11337Y-13971D01*
X12119Y-14252D02*
X12085Y-14252D01*
X17388Y-18110D02*
X16960Y-18110D01*
X16014Y-18496D02*
X14079Y-16561D01*
X16960Y-18110D02*
X16833Y-18237D01*
X16833Y-18237D02*
X16833Y-18480D01*
X13834Y-16561D02*
X13073Y-15800D01*
X17643Y-18269D02*
X17547Y-18269D01*
X13073Y-15800D02*
X13073Y-15206D01*
X16817Y-18496D02*
X16014Y-18496D01*
X14079Y-16561D02*
X13834Y-16561D01*
X17547Y-18269D02*
X17388Y-18110D01*
X16833Y-18480D02*
X16817Y-18496D01*
X13684Y-16930D02*
X13929Y-16930D01*
X17222Y-19028D02*
X17913Y-19719D01*
X12704Y-15356D02*
X12704Y-15950D01*
X11495Y-14340D02*
X11654Y-14340D01*
X16027Y-19028D02*
X17222Y-19028D01*
X13929Y-16930D02*
X16027Y-19028D01*
X12704Y-15950D02*
X13684Y-16930D01*
X11935Y-14621D02*
X11969Y-14621D01*
X11314Y-14521D02*
X11495Y-14340D01*
X11106Y-14521D02*
X11314Y-14521D01*
X11969Y-14621D02*
X12704Y-15356D01*
X10687Y-13750D02*
X10687Y-14102D01*
X10687Y-14102D02*
X11106Y-14521D01*
X11654Y-14340D02*
X11935Y-14621D01*
X17308Y-18516D02*
X16919Y-18905D01*
X11704Y-14217D02*
X11445Y-14217D01*
X16077Y-18905D02*
X13979Y-16807D01*
X12019Y-14498D02*
X11985Y-14498D01*
X12827Y-15306D02*
X12019Y-14498D01*
X10950Y-14192D02*
X10950Y-13987D01*
X16919Y-18905D02*
X16077Y-18905D01*
X11264Y-14398D02*
X11156Y-14398D01*
X13979Y-16807D02*
X13734Y-16807D01*
X12827Y-15900D02*
X12827Y-15306D01*
X11156Y-14398D02*
X10950Y-14192D01*
X11445Y-14217D02*
X11264Y-14398D01*
X13734Y-16807D02*
X12827Y-15900D01*
X17308Y-18303D02*
X17308Y-18516D01*
X11985Y-14498D02*
X11704Y-14217D01*
X17011Y-18622D02*
X15967Y-18622D01*
X12950Y-15850D02*
X12950Y-15256D01*
X14029Y-16684D02*
X13784Y-16684D01*
X17027Y-18606D02*
X17011Y-18622D01*
X12035Y-14375D02*
X11754Y-14094D01*
X11754Y-14094D02*
X11217Y-14094D01*
X17027Y-18324D02*
X17027Y-18606D01*
X15967Y-18622D02*
X14029Y-16684D01*
X13784Y-16684D02*
X12950Y-15850D01*
X12069Y-14375D02*
X12035Y-14375D01*
X12950Y-15256D02*
X12069Y-14375D01*
X11217Y-14094D02*
X11202Y-14109D01*
X14038Y-11775D02*
X13713Y-12100D01*
X14535Y-11775D02*
X14038Y-11775D01*
X14033Y-06217D02*
X12819Y-06217D01*
X12819Y-06217D02*
X12615Y-06421D01*
X14500Y-05750D02*
X14033Y-06217D01*
X12615Y-06421D02*
X12615Y-07338D01*
X12615Y-07338D02*
X13808Y-08531D01*
X19024Y-18044D02*
X19024Y-20547D01*
X26500Y-25750D02*
X26500Y-25382D01*
X20175Y-21698D02*
X20195Y-21698D01*
X20678Y-22181D02*
X21518Y-22181D01*
X24353Y-22981D02*
X24353Y-23235D01*
X19024Y-20547D02*
X20175Y-21698D01*
X21518Y-22181D02*
X21641Y-22304D01*
X20195Y-21698D02*
X20678Y-22181D01*
X21641Y-22304D02*
X23676Y-22304D01*
X18687Y-17707D02*
X19024Y-18044D01*
X23676Y-22304D02*
X24353Y-22981D01*
X24353Y-23235D02*
X26500Y-25382D01*
X18687Y-15710D02*
X18687Y-17707D01*
X21457Y-13690D02*
X22377Y-12770D01*
X25520Y-12770D02*
X26500Y-13750D01*
X22377Y-12770D02*
X25520Y-12770D01*
X19798Y-17673D02*
X20767Y-16704D01*
X21457Y-14437D02*
X21457Y-13690D01*
X20767Y-15127D02*
X21457Y-14437D01*
X20767Y-16704D02*
X20767Y-15127D01*
X20644Y-15077D02*
X21334Y-14387D01*
X20644Y-16513D02*
X20644Y-15077D01*
X22247Y-12646D02*
X26396Y-12646D01*
X19597Y-17752D02*
X19597Y-17560D01*
X19892Y-18047D02*
X19597Y-17752D01*
X19892Y-18141D02*
X19892Y-18047D01*
X21334Y-14387D02*
X21334Y-13559D01*
X19597Y-17560D02*
X20644Y-16513D01*
X26396Y-12646D02*
X26500Y-12750D01*
X21334Y-13559D02*
X22247Y-12646D01*
X26500Y-11750D02*
X25869Y-12381D01*
X20118Y-14600D02*
X20118Y-15806D01*
X20118Y-15806D02*
X19754Y-16170D01*
X25869Y-12381D02*
X22337Y-12381D01*
X22337Y-12381D02*
X20118Y-14600D01*
X19561Y-16360D02*
X19694Y-16493D01*
X24132Y-12118D02*
X22425Y-12118D01*
X19561Y-16091D02*
X19561Y-16360D01*
X19992Y-14551D02*
X19992Y-15660D01*
X19992Y-15660D02*
X19561Y-16091D01*
X22425Y-12118D02*
X19992Y-14551D01*
X26500Y-09750D02*
X24132Y-12118D01*
X23763Y-22181D02*
X26332Y-24750D01*
X21853Y-22181D02*
X23763Y-22181D01*
X19413Y-15446D02*
X19069Y-15790D01*
X20225Y-21575D02*
X20245Y-21575D01*
X19147Y-17994D02*
X19147Y-20497D01*
X20245Y-21575D02*
X20728Y-22058D01*
X20728Y-22058D02*
X21730Y-22058D01*
X19069Y-17916D02*
X19147Y-17994D01*
X19069Y-15790D02*
X19069Y-17916D01*
X21730Y-22058D02*
X21853Y-22181D01*
X19147Y-20497D02*
X20225Y-21575D01*
X26332Y-24750D02*
X26500Y-24750D01*
X20511Y-16242D02*
X20511Y-14594D01*
X19750Y-17003D02*
X20511Y-16242D01*
X20511Y-14594D02*
X21133Y-13972D01*
X21780Y-21935D02*
X21903Y-22058D01*
X20778Y-21935D02*
X21780Y-21935D01*
X19646Y-14155D02*
X19623Y-14178D01*
X19192Y-15941D02*
X19192Y-17866D01*
X24505Y-22750D02*
X26500Y-22750D01*
X23813Y-22058D02*
X24505Y-22750D01*
X19270Y-20447D02*
X20275Y-21452D01*
X21903Y-22058D02*
X23813Y-22058D01*
X20295Y-21452D02*
X20778Y-21935D01*
X19270Y-17944D02*
X19270Y-20447D01*
X19623Y-15510D02*
X19192Y-15941D01*
X19623Y-14178D02*
X19623Y-15510D01*
X20275Y-21452D02*
X20295Y-21452D01*
X19192Y-17866D02*
X19270Y-17944D01*
X21992Y-21935D02*
X21193Y-21136D01*
X21193Y-21136D02*
X20678Y-21136D01*
X20678Y-21136D02*
X19958Y-20416D01*
X23951Y-22022D02*
X23864Y-21935D01*
X19958Y-20416D02*
X19958Y-19921D01*
X23864Y-21935D02*
X21992Y-21935D01*
X26500Y-20750D02*
X25228Y-22022D01*
X25228Y-22022D02*
X23951Y-22022D01*
X24782Y-21899D02*
X25261Y-21420D01*
X25261Y-19989D02*
X26500Y-18750D01*
X20434Y-20719D02*
X20728Y-21013D01*
X24001Y-21899D02*
X24782Y-21899D01*
X19958Y-18801D02*
X19958Y-19206D01*
X21316Y-21013D02*
X22114Y-21811D01*
X19958Y-19206D02*
X20434Y-19682D01*
X23913Y-21811D02*
X24001Y-21899D01*
X25261Y-21420D02*
X25261Y-19989D01*
X22114Y-21811D02*
X23913Y-21811D01*
X20728Y-21013D02*
X21316Y-21013D01*
X20434Y-19682D02*
X20434Y-20719D01*
X25138Y-21370D02*
X25138Y-19112D01*
X25138Y-19112D02*
X26500Y-17750D01*
X22163Y-21687D02*
X23962Y-21687D01*
X20557Y-20669D02*
X20778Y-20890D01*
X24051Y-21776D02*
X24732Y-21776D01*
X24732Y-21776D02*
X25138Y-21370D01*
X20778Y-20890D02*
X21366Y-20890D01*
X20245Y-18862D02*
X20557Y-19174D01*
X21366Y-20890D02*
X22163Y-21687D01*
X20557Y-19174D02*
X20557Y-20669D01*
X23962Y-21687D02*
X24051Y-21776D01*
X14840Y-20000D02*
X11619Y-16779D01*
X11619Y-16779D02*
X09983Y-16779D01*
X14933Y-20000D02*
X14840Y-20000D01*
X12500Y-05750D02*
X11109Y-07141D01*
X11109Y-08133D02*
X11125Y-08149D01*
X13786Y-09261D02*
X14180Y-09261D01*
X11109Y-07141D02*
X11109Y-08133D01*
X14180Y-09261D02*
X14180Y-09262D01*
X11125Y-08149D02*
X12674Y-08149D01*
X12674Y-08149D02*
X13786Y-09261D01*
X12152Y-11976D02*
X12152Y-10779D01*
X10110Y-08909D02*
X10110Y-07140D01*
X11296Y-09923D02*
X11124Y-09923D01*
X11124Y-09923D02*
X10110Y-08909D01*
X13362Y-12587D02*
X12763Y-12587D01*
X12763Y-12587D02*
X12152Y-11976D01*
X15520Y-14445D02*
X15220Y-14445D01*
X15220Y-14445D02*
X13362Y-12587D01*
X10110Y-07140D02*
X11500Y-05750D01*
X16072Y-14400D02*
X15908Y-14236D01*
X15908Y-14236D02*
X15729Y-14236D01*
X15729Y-14236D02*
X15520Y-14445D01*
X12152Y-10779D02*
X11296Y-09923D01*
X17233Y-14147D02*
X17197Y-14111D01*
X15470Y-14322D02*
X15270Y-14322D01*
X17197Y-14111D02*
X15681Y-14111D01*
X15681Y-14111D02*
X15470Y-14322D01*
X15270Y-14322D02*
X13412Y-12464D01*
X13412Y-12464D02*
X12813Y-12464D01*
X12813Y-12464D02*
X12289Y-11940D01*
X12289Y-11940D02*
X12289Y-09100D01*
X17233Y-14317D02*
X17233Y-14147D01*
X15669Y-14568D02*
X15170Y-14568D01*
X09987Y-07237D02*
X08500Y-05750D01*
X15170Y-14568D02*
X13312Y-12710D01*
X13312Y-12710D02*
X12713Y-12710D01*
X15808Y-14429D02*
X15669Y-14568D01*
X12029Y-10829D02*
X11246Y-10046D01*
X11246Y-10046D02*
X11073Y-10046D01*
X12713Y-12710D02*
X12029Y-12026D01*
X11073Y-10046D02*
X09987Y-08960D01*
X09987Y-08960D02*
X09987Y-07237D01*
X12029Y-12026D02*
X12029Y-10829D01*
X12663Y-12833D02*
X11906Y-12076D01*
X11196Y-10169D02*
X11023Y-10169D01*
X11906Y-12076D02*
X11906Y-10879D01*
X16459Y-14462D02*
X16230Y-14691D01*
X15120Y-14691D02*
X13262Y-12833D01*
X09691Y-08837D02*
X09691Y-07941D01*
X11906Y-10879D02*
X11196Y-10169D01*
X11023Y-10169D02*
X09691Y-08837D01*
X16230Y-14691D02*
X15120Y-14691D01*
X13262Y-12833D02*
X12663Y-12833D01*
X09691Y-07941D02*
X07500Y-05750D01*
X05500Y-16750D02*
X05500Y-16382D01*
X16066Y-20105D02*
X17060Y-20105D01*
X13629Y-17668D02*
X16066Y-20105D01*
X13155Y-17668D02*
X13629Y-17668D01*
X11461Y-15974D02*
X13155Y-17668D01*
X11461Y-15127D02*
X11461Y-15974D01*
X10494Y-14160D02*
X11461Y-15127D01*
X10494Y-13416D02*
X10494Y-14160D01*
X09773Y-12695D02*
X10494Y-13416D01*
X08102Y-12695D02*
X09773Y-12695D01*
X05868Y-14929D02*
X08102Y-12695D01*
X05868Y-16014D02*
X05868Y-14929D01*
X05500Y-16382D02*
X05868Y-16014D01*
X06095Y-14877D02*
X08154Y-12818D01*
X11338Y-15177D02*
X11338Y-16325D01*
X11338Y-16325D02*
X14752Y-19739D01*
X10235Y-14074D02*
X11338Y-15177D01*
X10235Y-13330D02*
X10235Y-14074D01*
X08154Y-12818D02*
X09723Y-12818D01*
X09723Y-12818D02*
X10235Y-13330D01*
X14752Y-19739D02*
X15047Y-19739D01*
X05500Y-18750D02*
X06095Y-18155D01*
X06095Y-18155D02*
X06095Y-14877D01*
X05500Y-19750D02*
X06457Y-20707D01*
X06457Y-21479D02*
X06875Y-21897D01*
X06457Y-20707D02*
X06457Y-21479D01*
X07191Y-22027D02*
X07191Y-21767D01*
X07191Y-21767D02*
X06869Y-21445D01*
X06869Y-21445D02*
X06869Y-20751D01*
X05500Y-22750D02*
X06468Y-22750D01*
X06468Y-22750D02*
X07191Y-22027D01*
X07314Y-22077D02*
X07314Y-21717D01*
X05500Y-23750D02*
X05641Y-23750D01*
X07107Y-21510D02*
X07107Y-20342D01*
X05641Y-23750D02*
X07314Y-22077D01*
X07314Y-21717D02*
X07107Y-21510D01*
X05500Y-24750D02*
X07446Y-22804D01*
X07446Y-22804D02*
X07446Y-20543D01*
X05869Y-24586D02*
X07640Y-22815D01*
X05869Y-25381D02*
X05869Y-24586D01*
X05500Y-25750D02*
X05869Y-25381D01*
X07640Y-20162D02*
X07616Y-20138D01*
X07640Y-22815D02*
X07640Y-20162D01*
X16000Y-08100D02*
X17749Y-06351D01*
X23104Y-11266D02*
X19869Y-14501D01*
X20912Y-06351D02*
X22264Y-07703D01*
X22264Y-07703D02*
X22264Y-08363D01*
X22264Y-08363D02*
X23890Y-09989D01*
X20919Y-21550D02*
X21000Y-21550D01*
X19516Y-17844D02*
X19516Y-20147D01*
X23890Y-11112D02*
X23736Y-11266D01*
X23736Y-11266D02*
X23104Y-11266D01*
X23890Y-09989D02*
X23890Y-11112D01*
X17749Y-06351D02*
X20912Y-06351D01*
X19869Y-15610D02*
X19438Y-16041D01*
X19438Y-16041D02*
X19438Y-17766D01*
X19869Y-14501D02*
X19869Y-15610D01*
X19438Y-17766D02*
X19516Y-17844D01*
X19516Y-20147D02*
X20919Y-21550D01*
X26500Y-14750D02*
X26417Y-14750D01*
X26417Y-14750D02*
X25100Y-16067D01*
X06979Y-05750D02*
X06500Y-05750D01*
X10958Y-10294D02*
X09176Y-08512D01*
X09176Y-07947D02*
X06979Y-05750D01*
X09176Y-08512D02*
X09176Y-07947D01*
X11783Y-10929D02*
X11148Y-10294D01*
X11783Y-12126D02*
X11783Y-10929D01*
X11148Y-10294D02*
X10958Y-10294D01*
X16661Y-14234D02*
X16653Y-14242D01*
X12613Y-12956D02*
X11783Y-12126D01*
X17039Y-14250D02*
X17023Y-14234D01*
X17599Y-14510D02*
X17154Y-14510D01*
X16653Y-14559D02*
X16398Y-14814D01*
X16398Y-14814D02*
X15070Y-14814D01*
X13212Y-12956D02*
X12613Y-12956D01*
X15070Y-14814D02*
X13212Y-12956D01*
X17772Y-14337D02*
X17599Y-14510D01*
X17039Y-14395D02*
X17039Y-14250D01*
X17023Y-14234D02*
X16661Y-14234D01*
X16653Y-14242D02*
X16653Y-14559D01*
X17154Y-14510D02*
X17039Y-14395D01*
X13462Y-12341D02*
X12863Y-12341D01*
X12863Y-12341D02*
X12451Y-11929D01*
X12558Y-10300D02*
X12558Y-08978D01*
X12558Y-08978D02*
X12358Y-08778D01*
X12451Y-10407D02*
X12558Y-10300D01*
X15701Y-13918D02*
X15420Y-14199D01*
X16715Y-13918D02*
X15701Y-13918D01*
X15320Y-14199D02*
X13462Y-12341D01*
X15420Y-14199D02*
X15320Y-14199D01*
X12451Y-11929D02*
X12451Y-10407D01*
X06650Y-21399D02*
X06650Y-19651D01*
X07068Y-21977D02*
X07068Y-21817D01*
X06650Y-19651D02*
X07066Y-19235D01*
X07068Y-21817D02*
X06650Y-21399D01*
X06938Y-22107D02*
X07068Y-21977D01*
X05857Y-22107D02*
X06938Y-22107D01*
X05500Y-21750D02*
X05857Y-22107D01*
X15153Y-16472D02*
X15341Y-16660D01*
X16322Y-15973D02*
X16850Y-15973D01*
X17322Y-15275D02*
X18088Y-14509D01*
X15153Y-15689D02*
X15153Y-16472D01*
X15635Y-16660D02*
X16322Y-15973D01*
X15341Y-16660D02*
X15635Y-16660D01*
X14024Y-14560D02*
X15153Y-15689D01*
X18088Y-14509D02*
X18088Y-13223D01*
X10368Y-12310D02*
X10368Y-11750D01*
X10000Y-11750D02*
X10368Y-11750D01*
X12285Y-13760D02*
X12004Y-13479D01*
X11537Y-13479D02*
X10368Y-12310D01*
X18088Y-13223D02*
X19390Y-11921D01*
X14054Y-15938D02*
X13903Y-15938D01*
X13565Y-15006D02*
X12319Y-13760D01*
X12004Y-13479D02*
X11537Y-13479D01*
X19390Y-11921D02*
X19390Y-10140D01*
X12319Y-13760D02*
X12285Y-13760D01*
X19390Y-10140D02*
X19000Y-09750D01*
X13565Y-15600D02*
X13565Y-15006D01*
X13903Y-15938D02*
X13565Y-15600D01*
X14054Y-15939D02*
X14054Y-15938D01*
X17322Y-15501D02*
X17322Y-15275D01*
X16850Y-15973D02*
X17322Y-15501D01*
X18195Y-17250D02*
X16483Y-17250D01*
X18388Y-17057D02*
X18195Y-17250D01*
X19414Y-14680D02*
X18388Y-15706D01*
X24014Y-11236D02*
X24014Y-09881D01*
X24014Y-09881D02*
X22439Y-08306D01*
X15109Y-06750D02*
X13000Y-06750D01*
X20876Y-06139D02*
X15720Y-06139D01*
X22439Y-08306D02*
X22439Y-07702D01*
X16483Y-17250D02*
X16077Y-16844D01*
X23500Y-11750D02*
X24014Y-11236D01*
X18388Y-15706D02*
X18388Y-17057D01*
X22439Y-07702D02*
X20876Y-06139D01*
X15720Y-06139D02*
X15109Y-06750D01*
X13571Y-18113D02*
X13869Y-18113D01*
X16001Y-21309D02*
X16733Y-22041D01*
X16001Y-20245D02*
X16001Y-21309D01*
X13869Y-18113D02*
X16001Y-20245D01*
X15240Y-20439D02*
X15239Y-20439D01*
X13887Y-18306D02*
X15240Y-19659D01*
X13413Y-17869D02*
X13378Y-17904D01*
X15240Y-19659D02*
X15240Y-20439D01*
X13378Y-18192D02*
X13492Y-18306D01*
X13492Y-18306D02*
X13887Y-18306D01*
X13378Y-17904D02*
X13378Y-18192D01*
X06500Y-26382D02*
X06500Y-24262D01*
X07812Y-22950D02*
X07812Y-18928D01*
X06500Y-24262D02*
X07812Y-22950D01*
X07812Y-18928D02*
X08234Y-18506D01*
X06500Y-26750D02*
X06500Y-26382D01*
X18279Y-19918D02*
X17838Y-19918D01*
X16557Y-14941D02*
X15024Y-14941D01*
X15024Y-14941D02*
X13255Y-13172D01*
X13255Y-13172D02*
X13113Y-13172D01*
X13634Y-17053D02*
X12581Y-16000D01*
X16846Y-14652D02*
X16557Y-14941D01*
X11785Y-14744D02*
X11574Y-14533D01*
X18901Y-20540D02*
X18279Y-19918D01*
X20125Y-21821D02*
X18901Y-20597D01*
X12563Y-13079D02*
X11660Y-12176D01*
X13020Y-13079D02*
X12563Y-13079D01*
X11660Y-11410D02*
X11000Y-10750D01*
X11660Y-12176D02*
X11660Y-11410D01*
X16846Y-14428D02*
X16846Y-14652D01*
X17838Y-19918D02*
X17071Y-19151D01*
X17071Y-19151D02*
X15977Y-19151D01*
X15977Y-19151D02*
X13879Y-17053D01*
X13879Y-17053D02*
X13634Y-17053D01*
X11919Y-14744D02*
X11785Y-14744D01*
X12581Y-15406D02*
X11919Y-14744D01*
X12581Y-16000D02*
X12581Y-15406D01*
X20628Y-22304D02*
X20145Y-21821D01*
X13113Y-13172D02*
X13020Y-13079D01*
X20145Y-21821D02*
X20125Y-21821D01*
X21468Y-22304D02*
X20628Y-22304D01*
X18901Y-20597D02*
X18901Y-20540D01*
X23010Y-23846D02*
X21468Y-22304D01*
X23010Y-25260D02*
X23010Y-23846D01*
X24500Y-26750D02*
X23010Y-25260D01*
G54D25*
X17600Y-24550D02*
X18500Y-24550D01*
X17000Y-25150D02*
X17600Y-24550D01*
X14350Y-24550D02*
X13500Y-24550D01*
X14525Y-24725D02*
X14350Y-24550D01*
X15975Y-24725D02*
X14525Y-24725D01*
X17000Y-25750D02*
X17000Y-25150D01*
X17000Y-25750D02*
X15975Y-24725D01*
X13500Y-25550D02*
X13800Y-25550D01*
X14000Y-25750D02*
X15000Y-25750D01*
X13800Y-25550D02*
X14000Y-25750D01*
G54D23*
X09033Y-21783D02*
X09033Y-23502D01*
X21200Y-15300D02*
X22044Y-16144D01*
X09033Y-23502D02*
X09394Y-23863D01*
X08500Y-21250D02*
X09033Y-21783D01*
X24190Y-20783D02*
X24521Y-21114D01*
X23388Y-20783D02*
X24190Y-20783D01*
X13885Y-23188D02*
X14168Y-23471D01*
X11907Y-24895D02*
X12244Y-24895D01*
X12244Y-24895D02*
X12481Y-24658D01*
X10875Y-23863D02*
X11907Y-24895D01*
X12481Y-24658D02*
X12481Y-24032D01*
X12481Y-24032D02*
X13325Y-23188D01*
X13325Y-23188D02*
X13885Y-23188D01*
X22044Y-19439D02*
X23388Y-20783D01*
X09394Y-23863D02*
X10875Y-23863D01*
X22044Y-16144D02*
X22044Y-19439D01*
M02*
