M48
;DRILL file {kicad (2014-jul-16 BZR unknown)-product} date vie 22 ago 2014 20:47:50 CST
;FORMAT={-:-/ absolute / inch / decimal}
FMAT,2
INCH,TZ
T1C0.013
T2C0.013
T3C0.013
T4C0.016
T5C0.032
T6C0.036
T7C0.040
T8C0.049
T9C0.055
T10C0.125
%
G90
G05
M72
T1
X8.2971Y-2.5251
X8.3355Y-3.1382
X8.3927Y-3.1657
X8.3937Y-3.286
X8.412Y-3.1832
X8.5423Y-2.8721
X8.5846Y-2.8731
X8.5948Y-3.0111
X8.6795Y-2.6944
X8.7909Y-2.5404
X8.9073Y-2.9444
X8.9155Y-2.7036
X9.0315Y-3.1066
X9.1351Y-2.7048
X9.1418Y-3.027
X9.4261Y-2.8358
T2
X8.0676Y-2.724
X8.1739Y-2.7493
X8.246Y-2.7407
X8.3052Y-2.657
X8.3475Y-2.6584
X8.3795Y-2.7409
X8.4119Y-2.6579
X8.419Y-2.7949
X8.4691Y-2.7942
X8.6751Y-3.1995
X8.6877Y-3.1748
X8.749Y-3.4575
X8.7502Y-3.4836
X8.7675Y-2.9656
X8.7682Y-2.9275
X8.9304Y-2.9916
X8.9958Y-3.1022
X9.1221Y-3.3631
X9.1222Y-3.313
X9.1399Y-2.6667
X9.1545Y-2.8235
X9.4233Y-2.8859
X9.4249Y-3.1533
X9.4425Y-3.487
X9.4727Y-2.4764
X9.5669Y-2.617
T3
X8.1585Y-2.3691
X8.4176Y-2.7408
X8.6976Y-2.8275
X8.7514Y-3.1669
X9.0218Y-3.1878
X9.0627Y-3.454
X9.5164Y-2.4775
T4
X8.2194Y-2.6383
X8.53Y-3.0073
X8.5916Y-2.6354
X8.6687Y-2.7703
X8.7225Y-2.8477
X8.8569Y-2.5664
X8.9914Y-2.529
X8.9969Y-2.6781
X9.0261Y-2.8061
T5
X8.0298Y-2.5
X8.0298Y-2.6
X8.0298Y-2.7
X8.0298Y-2.8
X8.0298Y-2.9
X8.0298Y-3.
X8.0298Y-3.1
X8.0298Y-3.2
X8.0298Y-3.3
X8.0298Y-3.4
T6
X7.8107Y-2.3989
X7.8107Y-2.4776
X7.8107Y-2.5563
X7.8107Y-2.6351
X7.8107Y-2.7138
X7.8107Y-2.7926
X7.8107Y-2.8713
X7.8107Y-2.95
X7.8107Y-3.0287
X7.8107Y-3.1074
X7.8107Y-3.1862
X7.8107Y-3.2649
X7.8107Y-3.3437
X7.8107Y-3.4224
X7.8107Y-3.5011
X7.8893Y-2.3989
X7.8893Y-2.4776
X7.8893Y-2.5563
X7.8893Y-2.6351
X7.8893Y-2.7138
X7.8893Y-2.7926
X7.8893Y-2.8713
X7.8893Y-2.95
X7.8893Y-3.0287
X7.8893Y-3.1074
X7.8893Y-3.1862
X7.8893Y-3.2649
X7.8893Y-3.3437
X7.8893Y-3.4224
X7.8893Y-3.5011
T7
X8.01Y-2.34
X8.11Y-2.34
X8.21Y-2.34
X8.27Y-3.56
X8.31Y-2.34
X8.37Y-3.56
X8.41Y-2.34
X8.47Y-3.56
X8.51Y-2.34
X8.57Y-3.56
X8.63Y-2.34
X8.73Y-2.34
X8.74Y-3.56
X8.83Y-2.34
X8.84Y-3.56
X8.93Y-2.34
X8.94Y-3.56
X9.03Y-2.34
X9.04Y-3.56
X9.13Y-2.34
X9.21Y-3.56
X9.31Y-3.56
X9.41Y-3.56
X9.51Y-3.56
X9.6Y-2.65
X9.6Y-2.75
X9.6Y-2.85
X9.6Y-2.95
X9.6Y-3.05
X9.6Y-3.15
X9.6Y-3.25
X9.74Y-2.4
X9.74Y-2.5
X9.74Y-2.6
X9.74Y-2.7
X9.74Y-2.8
X9.74Y-2.9
X9.74Y-3.
X9.74Y-3.1
X9.74Y-3.2
X9.74Y-3.3
X9.74Y-3.4
X9.74Y-3.5
T8
X7.7025Y-2.2825
X7.7025Y-3.6175
X8.711Y-2.511
X8.711Y-3.389
X9.7975Y-2.2825
X9.7975Y-3.6175
T9
X9.61Y-2.2821
X9.61Y-2.5359
T10
X8.5221Y-2.5563
X8.5221Y-3.3437
T0
M30
