%FSLAX46Y46*%
G04 Gerber Fmt 4.6, Leading zero omitted, Abs format (unit mm)*
G04 Created by KiCad (PCBNEW (2014-jul-16 BZR unknown)-product) date vie 22 ago 2014 20:47:43 CST*
%MOMM*%
G01*
G04 APERTURE LIST*
%ADD10C,0.150000*%
%ADD11R,0.500000X2.000000*%
%ADD12R,1.397000X1.397000*%
%ADD13C,1.397000*%
%ADD14C,3.810000*%
%ADD15C,1.422400*%
%ADD16C,1.524000*%
%ADD17C,1.905000*%
%ADD18R,1.399540X0.998220*%
%ADD19R,1.198880X0.347980*%
%ADD20R,0.900000X0.300000*%
%ADD21R,1.099820X0.998220*%
%ADD22C,1.400000*%
%ADD23R,0.304800X0.990600*%
%ADD24R,2.232660X1.216660*%
%ADD25R,2.199640X3.599180*%
%ADD26R,0.965200X1.270000*%
%ADD27R,1.270000X0.965200*%
%ADD28R,2.600960X1.600200*%
%ADD29R,0.899160X1.000760*%
%ADD30R,1.000760X0.899160*%
%ADD31C,0.508000*%
%ADD32C,0.510000*%
%ADD33C,0.600000*%
%ADD34C,0.152600*%
%ADD35C,0.152400*%
%ADD36C,0.200000*%
%ADD37C,0.450000*%
G04 APERTURE END LIST*
D10*
D11*
X240538000Y-61214000D03*
X241618000Y-61214000D03*
D12*
X203956920Y-63500000D03*
D13*
X203956920Y-66040000D03*
X203956920Y-68580000D03*
X203956920Y-71120000D03*
X203956920Y-73660000D03*
X203956920Y-76200000D03*
X203956920Y-78740000D03*
X203956920Y-81280000D03*
X203956920Y-83820000D03*
X203956920Y-86360000D03*
D14*
X216461340Y-64930020D03*
X216461340Y-84929980D03*
D15*
X198391780Y-60932060D03*
X200388220Y-60932060D03*
X198391780Y-62931040D03*
X200388220Y-62931040D03*
X198391780Y-64930020D03*
X200388220Y-64930020D03*
X198391780Y-66931540D03*
X200388220Y-66931540D03*
X198391780Y-68930520D03*
X200388220Y-68930520D03*
X198391780Y-70932040D03*
X200388220Y-70932040D03*
X198391780Y-72931020D03*
X200388220Y-72931020D03*
X198391780Y-74930000D03*
X200388220Y-74930000D03*
X198391780Y-76928980D03*
X200388220Y-76928980D03*
X198391780Y-78927960D03*
X200388220Y-78927960D03*
X198391780Y-80929480D03*
X200388220Y-80929480D03*
X198391780Y-82928460D03*
X200388220Y-82928460D03*
X198391780Y-84929980D03*
X200388220Y-84929980D03*
X198391780Y-86928960D03*
X200388220Y-86928960D03*
X198391780Y-88927940D03*
X200388220Y-88927940D03*
D16*
X203454000Y-59436000D03*
X205994000Y-59436000D03*
X208534000Y-59436000D03*
X211074000Y-59436000D03*
X213614000Y-59436000D03*
X216154000Y-59436000D03*
X231902000Y-59436000D03*
X229362000Y-59436000D03*
X226822000Y-59436000D03*
X224282000Y-59436000D03*
X221742000Y-59436000D03*
X219202000Y-59436000D03*
X229616000Y-90424000D03*
X227076000Y-90424000D03*
X224536000Y-90424000D03*
X221996000Y-90424000D03*
X210058000Y-90424000D03*
X212598000Y-90424000D03*
X215138000Y-90424000D03*
X217678000Y-90424000D03*
X241554000Y-90424000D03*
X239014000Y-90424000D03*
X236474000Y-90424000D03*
X233934000Y-90424000D03*
D17*
X244094000Y-57965340D03*
X244094000Y-64411860D03*
D16*
X243840000Y-67310000D03*
X243840000Y-69850000D03*
X243840000Y-72390000D03*
X243840000Y-74930000D03*
X243840000Y-77470000D03*
X243840000Y-80010000D03*
X243840000Y-82550000D03*
X247396000Y-88900000D03*
X247396000Y-86360000D03*
X247396000Y-83820000D03*
X247396000Y-81280000D03*
X247396000Y-78740000D03*
X247396000Y-76200000D03*
X247396000Y-73660000D03*
X247396000Y-71120000D03*
X247396000Y-68580000D03*
X247396000Y-66040000D03*
X247396000Y-63500000D03*
X247396000Y-60960000D03*
D18*
X236644180Y-65344040D03*
X236644180Y-67243960D03*
X238843820Y-66294000D03*
X234779820Y-67243960D03*
X234779820Y-65344040D03*
X232580180Y-66294000D03*
X236644180Y-69408040D03*
X236644180Y-71307960D03*
X238843820Y-70358000D03*
X234779820Y-71307960D03*
X234779820Y-69408040D03*
X232580180Y-70358000D03*
X236644180Y-73472040D03*
X236644180Y-75371960D03*
X238843820Y-74422000D03*
X234779820Y-75371960D03*
X234779820Y-73472040D03*
X232580180Y-74422000D03*
X236644180Y-77536040D03*
X236644180Y-79435960D03*
X238843820Y-78486000D03*
X234779820Y-79435960D03*
X234779820Y-77536040D03*
X232580180Y-78486000D03*
D19*
X234847540Y-85406020D03*
X234847540Y-84755780D03*
X234847540Y-84110620D03*
X234847540Y-83460380D03*
X229000460Y-83460380D03*
X229000460Y-84110620D03*
X229000460Y-84755780D03*
X229000460Y-85406020D03*
D20*
X233478000Y-85484000D03*
X233478000Y-84984000D03*
X233478000Y-84484000D03*
X233478000Y-83984000D03*
X230378000Y-83984000D03*
X230378000Y-84484000D03*
X230378000Y-84984000D03*
X230378000Y-85484000D03*
D18*
X209125820Y-86801960D03*
X209125820Y-84902040D03*
X206926180Y-85852000D03*
X210990180Y-84902040D03*
X210990180Y-86801960D03*
X213189820Y-85852000D03*
X210990180Y-81092040D03*
X210990180Y-82991960D03*
X213189820Y-82042000D03*
X209125820Y-82991960D03*
X209125820Y-81092040D03*
X206926180Y-82042000D03*
X225635820Y-77911960D03*
X225635820Y-76012040D03*
X223436180Y-76962000D03*
X225635820Y-73847960D03*
X225635820Y-71948040D03*
X223436180Y-72898000D03*
D21*
X215138000Y-82128360D03*
X215138000Y-80431640D03*
D22*
X221259000Y-86080600D03*
X195644000Y-57975500D03*
X195644000Y-91884500D03*
X248856000Y-91884500D03*
X248856000Y-57975500D03*
X221259000Y-63779400D03*
D23*
X208150460Y-68701920D03*
X208800700Y-68701920D03*
X209450940Y-68701920D03*
X210101180Y-68701920D03*
X210751420Y-68701920D03*
X211396580Y-68701920D03*
X212046820Y-68701920D03*
X212697060Y-68701920D03*
X213347300Y-68701920D03*
X213997540Y-68701920D03*
X213997540Y-62870080D03*
X213347300Y-62870080D03*
X212697060Y-62870080D03*
X212046820Y-62870080D03*
X211396580Y-62870080D03*
X210751420Y-62870080D03*
X210101180Y-62870080D03*
X209450940Y-62870080D03*
X208800700Y-62870080D03*
X208150460Y-62870080D03*
D24*
X214325200Y-72621140D03*
X214325200Y-74930000D03*
X214325200Y-77238860D03*
D25*
X220522800Y-74930000D03*
D21*
X237490000Y-85430360D03*
X237490000Y-83733640D03*
X239522000Y-85430360D03*
X239522000Y-83733640D03*
X240792000Y-77302360D03*
X240792000Y-75605640D03*
X230632000Y-73238360D03*
X230632000Y-71541640D03*
X240792000Y-73238360D03*
X240792000Y-71541640D03*
X230632000Y-75605640D03*
X230632000Y-77302360D03*
X217678000Y-82128360D03*
X217678000Y-80431640D03*
X227838000Y-75605640D03*
X227838000Y-77302360D03*
X227838000Y-72557640D03*
X227838000Y-74254360D03*
X241300000Y-66126360D03*
X241300000Y-64429640D03*
X227076000Y-81620360D03*
X227076000Y-79923640D03*
X227076000Y-85176360D03*
X227076000Y-83479640D03*
D26*
X227838000Y-88138000D03*
X226568000Y-88138000D03*
X223520000Y-88138000D03*
X224790000Y-88138000D03*
D27*
X206629000Y-64135000D03*
X206629000Y-62865000D03*
X224282000Y-82423000D03*
X224282000Y-83693000D03*
X229616000Y-66421000D03*
X229616000Y-67691000D03*
X227076000Y-66421000D03*
X227076000Y-67691000D03*
X221742000Y-82423000D03*
X221742000Y-83693000D03*
X224536000Y-66421000D03*
X224536000Y-67691000D03*
X221996000Y-66421000D03*
X221996000Y-67691000D03*
D28*
X211096860Y-77724000D03*
X207495140Y-77724000D03*
X238464860Y-60325000D03*
X234863140Y-60325000D03*
D29*
X225054160Y-69596000D03*
X226557840Y-69596000D03*
D30*
X206629000Y-68082160D03*
X206629000Y-69585840D03*
D29*
X228356160Y-69596000D03*
X229859840Y-69596000D03*
D30*
X219837000Y-91175840D03*
X219837000Y-89672160D03*
D29*
X245099840Y-86868000D03*
X243596160Y-86868000D03*
X245099840Y-85090000D03*
X243596160Y-85090000D03*
X229016160Y-82194400D03*
X230519840Y-82194400D03*
X221985840Y-79121000D03*
X220482160Y-79121000D03*
D30*
X218186000Y-68082160D03*
X218186000Y-69585840D03*
D29*
X215148160Y-69596000D03*
X216651840Y-69596000D03*
X216651840Y-68072000D03*
X215148160Y-68072000D03*
X221752160Y-69596000D03*
X223255840Y-69596000D03*
D30*
X227711000Y-62918340D03*
X227711000Y-61414660D03*
X241300000Y-68082160D03*
X241300000Y-69585840D03*
X229616000Y-62918340D03*
X229616000Y-61414660D03*
X231775000Y-89672160D03*
X231775000Y-91175840D03*
D29*
X245099840Y-88646000D03*
X243596160Y-88646000D03*
X234837840Y-82194400D03*
X233334160Y-82194400D03*
D30*
X231521000Y-62918340D03*
X231521000Y-61414660D03*
X206629000Y-65415160D03*
X206629000Y-66918840D03*
X225806000Y-62918340D03*
X225806000Y-61414660D03*
D28*
X211096860Y-72644000D03*
X207495140Y-72644000D03*
D29*
X215152840Y-79121000D03*
X213649160Y-79121000D03*
D28*
X206880860Y-90525600D03*
X203279140Y-90525600D03*
D31*
X213199600Y-83464900D03*
X226453600Y-68671200D03*
X229400400Y-78907900D03*
X216974300Y-72950700D03*
X213664400Y-80852700D03*
X226245700Y-74787100D03*
X220459300Y-68437500D03*
X210747500Y-64136600D03*
X223289500Y-64526900D03*
X239423600Y-72029700D03*
X211721500Y-79711500D03*
X232031000Y-68701800D03*
X232200900Y-76886700D03*
X218050000Y-72977500D03*
X218309000Y-76481300D03*
X213174100Y-80408400D03*
D32*
X226832800Y-75987300D03*
X232523600Y-71717500D03*
X232153500Y-67734700D03*
X231701600Y-85421800D03*
X231703000Y-84149000D03*
X240605800Y-62900900D03*
X222711400Y-74357900D03*
X213807000Y-69616400D03*
X210952800Y-67487300D03*
X204918100Y-69189800D03*
X209448700Y-69613300D03*
X212027700Y-67524600D03*
X207615800Y-69831700D03*
X212838900Y-69619200D03*
X213661500Y-67511000D03*
X213842600Y-70989200D03*
X239350700Y-73301900D03*
X215116000Y-70971900D03*
X228493200Y-78795700D03*
X222694800Y-75325700D03*
X229153500Y-80969000D03*
X241717800Y-62927600D03*
X207226000Y-60175700D03*
X222284700Y-80439800D03*
X220919200Y-71819100D03*
X230193100Y-87732300D03*
D33*
X216662500Y-76386200D03*
X218227900Y-66939200D03*
X220184300Y-70365300D03*
X228382800Y-64236200D03*
X221552100Y-72331300D03*
X208771900Y-67013000D03*
X229263200Y-71273900D03*
X224965700Y-65187200D03*
X228522300Y-68022900D03*
D32*
X220666500Y-80638900D03*
X222224500Y-87820100D03*
X220348200Y-81267700D03*
X222254300Y-88482900D03*
X242998800Y-66472200D03*
X239838300Y-88569700D03*
X239391400Y-80092600D03*
D34*
X237490000Y-84461700D02*
X239926200Y-84461700D01*
X239926200Y-84461700D02*
X240300900Y-84836400D01*
X240300900Y-84836400D02*
X240300900Y-86038900D01*
X240300900Y-86038900D02*
X239764800Y-86575000D01*
X239764800Y-86575000D02*
X232034900Y-86575000D01*
X232034900Y-86575000D02*
X230393600Y-88216300D01*
X230393600Y-88216300D02*
X228627900Y-88216300D01*
X228627900Y-88216300D02*
X228549600Y-88138000D01*
X234847500Y-84755800D02*
X235675900Y-84755800D01*
X237490000Y-84461700D02*
X235970000Y-84461700D01*
X235970000Y-84461700D02*
X235675900Y-84755800D01*
X227838000Y-88138000D02*
X228549600Y-88138000D01*
X227838000Y-88138000D02*
X227838000Y-89662000D01*
X227838000Y-89662000D02*
X227076000Y-90424000D01*
X237490000Y-83733600D02*
X237490000Y-84461700D01*
X233478000Y-84484000D02*
X233532300Y-84538300D01*
X233532300Y-84538300D02*
X234630000Y-84538300D01*
X234630000Y-84538300D02*
X234847500Y-84755800D01*
X240300900Y-83733600D02*
X240606200Y-84038900D01*
X240606200Y-84038900D02*
X240606200Y-86165400D01*
X240606200Y-86165400D02*
X239891300Y-86880300D01*
X239891300Y-86880300D02*
X232161400Y-86880300D01*
X232161400Y-86880300D02*
X230520100Y-88521600D01*
X230520100Y-88521600D02*
X230107200Y-88521600D01*
X230107200Y-88521600D02*
X228549700Y-90079100D01*
X228549700Y-90079100D02*
X228549700Y-90366300D01*
X228549700Y-90366300D02*
X227452100Y-91463900D01*
X227452100Y-91463900D02*
X225575900Y-91463900D01*
X225575900Y-91463900D02*
X224536000Y-90424000D01*
X224790000Y-89002000D02*
X224536000Y-89256000D01*
X224536000Y-89256000D02*
X224536000Y-90424000D01*
X239522000Y-83733600D02*
X240300900Y-83733600D01*
X224790000Y-88570000D02*
X224790000Y-88138000D01*
X224790000Y-88570000D02*
X224790000Y-89002000D01*
X234847500Y-84047300D02*
X234784200Y-83984000D01*
X234784200Y-83984000D02*
X233478000Y-83984000D01*
X234847500Y-84047300D02*
X235584100Y-84047300D01*
X235584100Y-84047300D02*
X236625900Y-83005500D01*
X236625900Y-83005500D02*
X239522000Y-83005500D01*
X234847500Y-84047300D02*
X234847500Y-84110600D01*
X239522000Y-83733600D02*
X239522000Y-83005500D01*
D35*
X234156900Y-85406000D02*
X234156900Y-85748900D01*
X234156900Y-85748900D02*
X234042800Y-85863000D01*
X234042800Y-85863000D02*
X232746200Y-85863000D01*
X232746200Y-85863000D02*
X232492000Y-85608800D01*
X232492000Y-85608800D02*
X232492000Y-83722900D01*
X232492000Y-83722900D02*
X231692900Y-82923800D01*
X231692900Y-82923800D02*
X229965200Y-82923800D01*
X229965200Y-82923800D02*
X229828900Y-82787500D01*
X229828900Y-82787500D02*
X229828900Y-81601500D01*
X229828900Y-81601500D02*
X230609000Y-80821400D01*
X234779800Y-74200000D02*
X234355200Y-74200000D01*
X234355200Y-74200000D02*
X232151400Y-76403800D01*
X232151400Y-76403800D02*
X232000800Y-76403800D01*
X232000800Y-76403800D02*
X231718000Y-76686600D01*
X231718000Y-76686600D02*
X231718000Y-77143300D01*
X231718000Y-77143300D02*
X232005700Y-77431000D01*
X232005700Y-77431000D02*
X233095600Y-77431000D01*
X233095600Y-77431000D02*
X233545800Y-77881200D01*
X233545800Y-77881200D02*
X233545800Y-80519600D01*
X233545800Y-80519600D02*
X233244000Y-80821400D01*
X226212100Y-66421000D02*
X226212100Y-68429700D01*
X226212100Y-68429700D02*
X226453600Y-68671200D01*
X210990200Y-83720000D02*
X212944500Y-83720000D01*
X212944500Y-83720000D02*
X213199600Y-83464900D01*
X230461100Y-78907900D02*
X230461100Y-80673500D01*
X230461100Y-80673500D02*
X230609000Y-80821400D01*
X230632000Y-78030400D02*
X230461100Y-78201300D01*
X230461100Y-78201300D02*
X230461100Y-78907900D01*
X230461100Y-78907900D02*
X229400400Y-78907900D01*
X210751400Y-69426100D02*
X211163300Y-69426100D01*
X211163300Y-69426100D02*
X213521000Y-71783800D01*
X213521000Y-71783800D02*
X215807400Y-71783800D01*
X215807400Y-71783800D02*
X216974300Y-72950700D01*
X210990200Y-82992000D02*
X210990200Y-83720000D01*
X214359200Y-80431600D02*
X214085500Y-80431600D01*
X214085500Y-80431600D02*
X213664400Y-80852700D01*
X231521000Y-63596800D02*
X228274200Y-63596800D01*
X228274200Y-63596800D02*
X227076000Y-64795000D01*
X227076000Y-64795000D02*
X227076000Y-65709500D01*
X234779800Y-73472000D02*
X234779800Y-74200000D01*
X233244000Y-80821400D02*
X230609000Y-80821400D01*
X234159300Y-82194400D02*
X234159300Y-81736700D01*
X234159300Y-81736700D02*
X233244000Y-80821400D01*
X227076000Y-66421000D02*
X226212100Y-66421000D01*
X227076000Y-66421000D02*
X227076000Y-65709500D01*
X231521000Y-62918300D02*
X231521000Y-63596800D01*
X234156900Y-85406000D02*
X234156900Y-85239200D01*
X234156900Y-85239200D02*
X233901700Y-84984000D01*
X233901700Y-84984000D02*
X233478000Y-84984000D01*
X234847500Y-85406000D02*
X234156900Y-85406000D01*
X234837800Y-82194400D02*
X234159300Y-82194400D01*
X230632000Y-77302400D02*
X230632000Y-78030400D01*
X210751400Y-68701900D02*
X210751400Y-69426100D01*
X237490000Y-85430400D02*
X236711200Y-85430400D01*
X234847500Y-85406000D02*
X236686800Y-85406000D01*
X236686800Y-85406000D02*
X236711200Y-85430400D01*
X237490000Y-85430400D02*
X239522000Y-85430400D01*
X215138000Y-80431600D02*
X214359200Y-80431600D01*
X215527400Y-80431600D02*
X215138000Y-80431600D01*
X215527400Y-80431600D02*
X215916800Y-80431600D01*
X215916800Y-80431600D02*
X217678000Y-80431600D01*
X215152800Y-79121000D02*
X215152800Y-79850300D01*
X215152800Y-79850300D02*
X215138000Y-79865100D01*
X215138000Y-79865100D02*
X215138000Y-80431600D01*
X210990200Y-82992000D02*
X210061500Y-82992000D01*
X209125800Y-84902000D02*
X209125800Y-84174000D01*
X210061500Y-82992000D02*
X210061500Y-83632900D01*
X210061500Y-83632900D02*
X209520400Y-84174000D01*
X209520400Y-84174000D02*
X209125800Y-84174000D01*
X231056900Y-84984000D02*
X231056900Y-85571300D01*
X231056900Y-85571300D02*
X231415000Y-85929400D01*
X231415000Y-85929400D02*
X231889500Y-85929400D01*
X231889500Y-85929400D02*
X232186900Y-85632000D01*
X232186900Y-85632000D02*
X232186900Y-83849400D01*
X232186900Y-83849400D02*
X231782200Y-83444700D01*
X231782200Y-83444700D02*
X229016200Y-83444700D01*
X237652000Y-72817900D02*
X237652000Y-74000200D01*
X237652000Y-74000200D02*
X237008200Y-74644000D01*
X237008200Y-74644000D02*
X236644200Y-74644000D01*
X231917500Y-72731700D02*
X237565800Y-72731700D01*
X237565800Y-72731700D02*
X237652000Y-72817900D01*
X237652000Y-72817900D02*
X239592700Y-72817900D01*
X239592700Y-72817900D02*
X240013200Y-73238400D01*
X233851100Y-69408000D02*
X233655800Y-69603300D01*
X233655800Y-69603300D02*
X231810300Y-69603300D01*
X231810300Y-69603300D02*
X231649100Y-69764500D01*
X231649100Y-69764500D02*
X231649100Y-72463300D01*
X231649100Y-72463300D02*
X231917500Y-72731700D01*
X223431300Y-66421000D02*
X223431300Y-64668700D01*
X223431300Y-64668700D02*
X223289500Y-64526900D01*
X234779800Y-69408000D02*
X233851100Y-69408000D01*
X225806000Y-63596800D02*
X224436800Y-64966000D01*
X224436800Y-64966000D02*
X224436800Y-65610300D01*
X224436800Y-65610300D02*
X224536000Y-65709500D01*
X224536000Y-66421000D02*
X224536000Y-65709500D01*
X229016200Y-81465100D02*
X229341900Y-81465100D01*
X229341900Y-81465100D02*
X229637400Y-81169600D01*
X229637400Y-81169600D02*
X229637400Y-80664300D01*
X229637400Y-80664300D02*
X228896700Y-79923600D01*
X228896700Y-79923600D02*
X227854800Y-79923600D01*
X225635800Y-75284000D02*
X225748800Y-75284000D01*
X225748800Y-75284000D02*
X226245700Y-74787100D01*
X227059200Y-74254400D02*
X226526500Y-74787100D01*
X226526500Y-74787100D02*
X226245700Y-74787100D01*
X219389100Y-69507700D02*
X218642100Y-68760700D01*
X218642100Y-68760700D02*
X218186000Y-68760700D01*
X223431300Y-66421000D02*
X223431300Y-68081600D01*
X223431300Y-68081600D02*
X222526600Y-68986300D01*
X222526600Y-68986300D02*
X222526600Y-70101300D01*
X222526600Y-70101300D02*
X221719300Y-70908600D01*
X221719300Y-70908600D02*
X219867000Y-70908600D01*
X219867000Y-70908600D02*
X219389100Y-70430700D01*
X219389100Y-70430700D02*
X219389100Y-69507700D01*
X219389100Y-69507700D02*
X220459300Y-68437500D01*
X226566100Y-78808500D02*
X226953200Y-79195600D01*
X226953200Y-79195600D02*
X227076000Y-79195600D01*
X225635800Y-76740000D02*
X225987200Y-76740000D01*
X225987200Y-76740000D02*
X226566100Y-77318900D01*
X226566100Y-77318900D02*
X226566100Y-78808500D01*
X226566100Y-78808500D02*
X226253600Y-79121000D01*
X226253600Y-79121000D02*
X222664300Y-79121000D01*
X229016200Y-83444700D02*
X229000500Y-83460400D01*
X229016200Y-82923700D02*
X229016200Y-83444700D01*
X210751400Y-62870100D02*
X210751400Y-64132700D01*
X210751400Y-64132700D02*
X210747500Y-64136600D01*
X223431300Y-66421000D02*
X223672100Y-66421000D01*
X231410800Y-73238400D02*
X231917500Y-72731700D01*
X230632000Y-73238400D02*
X231410800Y-73238400D01*
X230632000Y-73238400D02*
X230632000Y-73298000D01*
X225635800Y-76012000D02*
X225635800Y-75284000D01*
X230632000Y-73602400D02*
X230632000Y-73357600D01*
X225635800Y-76012000D02*
X225635800Y-76740000D01*
X225806000Y-62918300D02*
X225806000Y-63596800D01*
X218186000Y-68082200D02*
X218186000Y-68760700D01*
X236644200Y-75372000D02*
X236644200Y-74644000D01*
X240792000Y-73238400D02*
X240013200Y-73238400D01*
X230632000Y-73298000D02*
X230632000Y-73357600D01*
X221985800Y-79121000D02*
X222664300Y-79121000D01*
X227076000Y-79923600D02*
X227076000Y-79195600D01*
X227838000Y-74254400D02*
X227059200Y-74254400D01*
X234779800Y-69408000D02*
X234779800Y-68680000D01*
X230632000Y-73602400D02*
X230632000Y-73966400D01*
X227076000Y-79923600D02*
X227854800Y-79923600D01*
X229016200Y-82194400D02*
X229016200Y-81465100D01*
X229016200Y-82549300D02*
X229016200Y-82194400D01*
X240792000Y-74877600D02*
X240956000Y-74713600D01*
X240956000Y-74713600D02*
X240956000Y-74130400D01*
X240956000Y-74130400D02*
X240792000Y-73966400D01*
X240792000Y-73238400D02*
X240792000Y-73966400D01*
X240792000Y-75605600D02*
X240792000Y-74877600D01*
X230300000Y-85406000D02*
X230378000Y-85484000D01*
X229828800Y-85406000D02*
X230300000Y-85406000D01*
X230300000Y-85406000D02*
X230300000Y-85062000D01*
X230300000Y-85062000D02*
X230378000Y-84984000D01*
X230378000Y-84984000D02*
X231056900Y-84984000D01*
X229016200Y-82549300D02*
X229016200Y-82923700D01*
X227838000Y-75605600D02*
X227838000Y-74877600D01*
X227076000Y-85176400D02*
X227942600Y-85176400D01*
X227942600Y-85176400D02*
X228172200Y-85406000D01*
X234779800Y-68680000D02*
X234870800Y-68680000D01*
X234870800Y-68680000D02*
X235715500Y-67835300D01*
X235715500Y-67835300D02*
X235715500Y-67244000D01*
X236644200Y-67244000D02*
X235715500Y-67244000D01*
X227838000Y-74254400D02*
X228616800Y-74254400D01*
X230632000Y-73966400D02*
X228904800Y-73966400D01*
X228904800Y-73966400D02*
X228616800Y-74254400D01*
X227838000Y-74254400D02*
X227838000Y-74877600D01*
X224536000Y-66421000D02*
X223672100Y-66421000D01*
X229000500Y-85406000D02*
X229828800Y-85406000D01*
X229000500Y-85406000D02*
X228172200Y-85406000D01*
X228075700Y-62918300D02*
X227397100Y-62239700D01*
X227397100Y-62239700D02*
X224874800Y-62239700D01*
X224874800Y-62239700D02*
X221996000Y-65118500D01*
X221996000Y-65118500D02*
X221996000Y-66421000D01*
X228075700Y-62918300D02*
X228440300Y-62918300D01*
X227711000Y-62918300D02*
X228075700Y-62918300D01*
X229616000Y-62915600D02*
X228443000Y-62915600D01*
X228443000Y-62915600D02*
X228440300Y-62918300D01*
X229616000Y-62915600D02*
X229616000Y-62912900D01*
X229616000Y-62918300D02*
X229616000Y-62915600D01*
X229616000Y-62912900D02*
X230363900Y-62165000D01*
X230363900Y-62165000D02*
X237338600Y-62165000D01*
X237338600Y-62165000D02*
X240572000Y-65398400D01*
X240572000Y-65398400D02*
X241300000Y-65398400D01*
X241300000Y-66126400D02*
X241300000Y-65398400D01*
X241300000Y-66126400D02*
X241300000Y-68082200D01*
X234779800Y-76808000D02*
X232279600Y-76808000D01*
X232279600Y-76808000D02*
X232200900Y-76886700D01*
X237572900Y-71308000D02*
X238294500Y-72029600D01*
X238294500Y-72029600D02*
X239423600Y-72029600D01*
X239423600Y-72029600D02*
X239423600Y-72029700D01*
X240570700Y-69585800D02*
X238047500Y-69585800D01*
X238047500Y-69585800D02*
X237572900Y-70060400D01*
X237572900Y-70060400D02*
X237572900Y-71308000D01*
X241300000Y-69585800D02*
X240570700Y-69585800D01*
X226564500Y-71948000D02*
X226728600Y-71783900D01*
X226728600Y-71783900D02*
X228968500Y-71783900D01*
X228968500Y-71783900D02*
X229044100Y-71859500D01*
X229044100Y-71859500D02*
X229482400Y-71859500D01*
X229482400Y-71859500D02*
X229792100Y-71549800D01*
X229792100Y-71549800D02*
X229792100Y-70973800D01*
X229792100Y-70973800D02*
X230812900Y-69953000D01*
X230812900Y-69953000D02*
X230812900Y-69409900D01*
X230812900Y-69409900D02*
X231313300Y-68909500D01*
X231313300Y-68909500D02*
X231823300Y-68909500D01*
X231823300Y-68909500D02*
X232031000Y-68701800D01*
X230697600Y-66638700D02*
X230697600Y-68293800D01*
X230697600Y-68293800D02*
X231313300Y-68909500D01*
X210990200Y-86074000D02*
X211354200Y-86074000D01*
X211354200Y-86074000D02*
X213735200Y-83693000D01*
X213735200Y-83693000D02*
X213735200Y-83267100D01*
X213735200Y-83267100D02*
X213351600Y-82883500D01*
X213351600Y-82883500D02*
X212504900Y-82883500D01*
X212504900Y-82883500D02*
X212105300Y-82483900D01*
X212105300Y-82483900D02*
X212105300Y-80655000D01*
X212105300Y-80655000D02*
X211814300Y-80364000D01*
X211814300Y-80364000D02*
X211721500Y-80364000D01*
X220482200Y-78391700D02*
X220219400Y-78391700D01*
X220219400Y-78391700D02*
X218309000Y-76481300D01*
X220482200Y-78391700D02*
X223540900Y-78391700D01*
X223540900Y-78391700D02*
X224364900Y-77567700D01*
X224364900Y-77567700D02*
X224364900Y-76282900D01*
X224364900Y-76282900D02*
X222923800Y-74841800D01*
X222923800Y-74841800D02*
X222510900Y-74841800D01*
X222510900Y-74841800D02*
X222227500Y-74558400D01*
X222227500Y-74558400D02*
X222227500Y-74157400D01*
X222227500Y-74157400D02*
X222510900Y-73874000D01*
X222510900Y-73874000D02*
X223078100Y-73874000D01*
X223078100Y-73874000D02*
X223140000Y-73935900D01*
X223140000Y-73935900D02*
X223967400Y-73935900D01*
X223967400Y-73935900D02*
X225227300Y-72676000D01*
X225227300Y-72676000D02*
X225635800Y-72676000D01*
X217238700Y-67180400D02*
X217407100Y-67348800D01*
X217407100Y-67348800D02*
X217407100Y-68806900D01*
X217407100Y-68806900D02*
X218186000Y-69585800D01*
X225076700Y-61414700D02*
X220081100Y-66410300D01*
X220081100Y-66410300D02*
X218008800Y-66410300D01*
X218008800Y-66410300D02*
X217238700Y-67180400D01*
X217238700Y-67180400D02*
X215515800Y-67180400D01*
X215515800Y-67180400D02*
X211929700Y-63594300D01*
X211929700Y-63594300D02*
X211396600Y-63594300D01*
X218186000Y-70264300D02*
X218186000Y-72841500D01*
X218186000Y-72841500D02*
X218050000Y-72977500D01*
X212970700Y-79121000D02*
X212970700Y-80205000D01*
X212970700Y-80205000D02*
X213174100Y-80408400D01*
X211721500Y-80364000D02*
X209125800Y-80364000D01*
X211721500Y-80364000D02*
X211721500Y-79711500D01*
X225635800Y-71948000D02*
X226564500Y-71948000D01*
X225635800Y-71965100D02*
X225635800Y-71948000D01*
X225635800Y-71965100D02*
X225635800Y-72676000D01*
X231156400Y-61414700D02*
X231521000Y-61414700D01*
X230479900Y-66421000D02*
X230697600Y-66638700D01*
X234779800Y-65344000D02*
X231992300Y-65344000D01*
X231992300Y-65344000D02*
X230697600Y-66638700D01*
X229616000Y-66421000D02*
X230479900Y-66421000D01*
X233465700Y-83055100D02*
X232799100Y-83721700D01*
X232799100Y-83721700D02*
X232799100Y-85484000D01*
X234847500Y-83460400D02*
X234019200Y-83460400D01*
X234019200Y-83460400D02*
X233613900Y-83055100D01*
X233613900Y-83055100D02*
X233465700Y-83055100D01*
X233465700Y-83055100D02*
X233334200Y-82923700D01*
X234779800Y-77536000D02*
X234779800Y-76808000D01*
X225806000Y-61414700D02*
X225076700Y-61414700D01*
X227711000Y-61414700D02*
X225806000Y-61414700D01*
X218186000Y-69585800D02*
X218186000Y-69925000D01*
X211396600Y-62870100D02*
X211396600Y-63594300D01*
X218186000Y-69925000D02*
X218186000Y-70264300D01*
X235675800Y-81132400D02*
X236644200Y-80164000D01*
X234779800Y-78264000D02*
X234415800Y-78264000D01*
X234415800Y-78264000D02*
X233851000Y-78828800D01*
X233851000Y-78828800D02*
X233851000Y-80048900D01*
X233851000Y-80048900D02*
X234934500Y-81132400D01*
X234934500Y-81132400D02*
X235675800Y-81132400D01*
X235675800Y-81132400D02*
X235675800Y-83460400D01*
X234847500Y-83460400D02*
X235675800Y-83460400D01*
X233334200Y-82194400D02*
X233334200Y-82923700D01*
X233478000Y-85484000D02*
X232799100Y-85484000D01*
X233334200Y-82194400D02*
X231198300Y-82194400D01*
X230519800Y-82194400D02*
X231198300Y-82194400D01*
X220482200Y-79121000D02*
X220482200Y-78391700D01*
X234779800Y-77536000D02*
X234779800Y-78264000D01*
X236644200Y-79436000D02*
X236644200Y-80164000D01*
X227711000Y-61414700D02*
X229616000Y-61414700D01*
X236644200Y-71308000D02*
X237572900Y-71308000D01*
X213649200Y-79121000D02*
X212970700Y-79121000D01*
X210990200Y-86802000D02*
X210990200Y-86074000D01*
X209125800Y-81092000D02*
X209125800Y-80364000D01*
X231156400Y-61414700D02*
X230791700Y-61414700D01*
X230345300Y-61414700D02*
X230791700Y-61414700D01*
X229616000Y-61414700D02*
X230345300Y-61414700D01*
D34*
X230632000Y-75969600D02*
X230695800Y-75969600D01*
X230695800Y-75969600D02*
X231412800Y-76686600D01*
X231412800Y-76686600D02*
X231412800Y-77269800D01*
X231412800Y-77269800D02*
X231900900Y-77757900D01*
X231900900Y-77757900D02*
X232580200Y-77757900D01*
X230632000Y-76333700D02*
X227179200Y-76333700D01*
X227179200Y-76333700D02*
X226832800Y-75987300D01*
X232580200Y-78486000D02*
X232580200Y-77757900D01*
X230632000Y-75969600D02*
X230632000Y-76333700D01*
X230632000Y-75605600D02*
X230632000Y-75969600D01*
X232580200Y-74422000D02*
X231651400Y-74422000D01*
X230632000Y-74953800D02*
X231163800Y-74422000D01*
X231163800Y-74422000D02*
X231651400Y-74422000D01*
X230632000Y-75605600D02*
X230632000Y-74953800D01*
X233851000Y-71308000D02*
X233441500Y-71717500D01*
X233441500Y-71717500D02*
X232523600Y-71717500D01*
X234779800Y-71308000D02*
X233851000Y-71308000D01*
X234779800Y-70624000D02*
X235267700Y-70136100D01*
X235267700Y-70136100D02*
X236644200Y-70136100D01*
X236644200Y-69408000D02*
X236644200Y-70136100D01*
X234779800Y-71308000D02*
X234779800Y-70624000D01*
X233851000Y-67244000D02*
X233360300Y-67734700D01*
X233360300Y-67734700D02*
X232153500Y-67734700D01*
X234779800Y-67244000D02*
X233851000Y-67244000D01*
X234779800Y-67244000D02*
X234926400Y-67244000D01*
X234926400Y-67244000D02*
X236098300Y-66072100D01*
X236098300Y-66072100D02*
X236644200Y-66072100D01*
X236644200Y-65344000D02*
X236644200Y-66072100D01*
X231057000Y-84484000D02*
X231701600Y-85128600D01*
X231701600Y-85128600D02*
X231701600Y-85421800D01*
X229000500Y-84755800D02*
X228172100Y-84755800D01*
X227076000Y-81620400D02*
X227076000Y-82348500D01*
X227076000Y-82348500D02*
X226803000Y-82348500D01*
X226803000Y-82348500D02*
X226297000Y-82854500D01*
X226297000Y-82854500D02*
X226297000Y-84106400D01*
X226297000Y-84106400D02*
X226606600Y-84416000D01*
X226606600Y-84416000D02*
X227832300Y-84416000D01*
X227832300Y-84416000D02*
X228172100Y-84755800D01*
X230378000Y-84484000D02*
X231057000Y-84484000D01*
X229000500Y-84755800D02*
X229219000Y-84537300D01*
X229219000Y-84537300D02*
X230324700Y-84537300D01*
X230324700Y-84537300D02*
X230378000Y-84484000D01*
X231057000Y-83984000D02*
X231538000Y-83984000D01*
X231538000Y-83984000D02*
X231703000Y-84149000D01*
X230378000Y-83984000D02*
X231057000Y-83984000D01*
X229000500Y-84110600D02*
X229127100Y-83984000D01*
X229127100Y-83984000D02*
X230378000Y-83984000D01*
X229000500Y-84110600D02*
X228172100Y-84110600D01*
X227076000Y-83479600D02*
X227854900Y-83479600D01*
X227854900Y-83479600D02*
X228172100Y-83796800D01*
X228172100Y-83796800D02*
X228172100Y-84110600D01*
X200388200Y-70932000D02*
X199390000Y-69933800D01*
X199390000Y-69933800D02*
X199390000Y-64564300D01*
X199390000Y-64564300D02*
X198775900Y-63950200D01*
X198775900Y-63950200D02*
X198060900Y-63950200D01*
X198060900Y-63950200D02*
X197440000Y-63329300D01*
X197440000Y-63329300D02*
X197440000Y-60518700D01*
X197440000Y-60518700D02*
X199858100Y-58100600D01*
X199858100Y-58100600D02*
X239171000Y-58100600D01*
X239171000Y-58100600D02*
X241032400Y-59962000D01*
X241032400Y-59962000D02*
X241032400Y-62474300D01*
X241032400Y-62474300D02*
X240605800Y-62900900D01*
X206926200Y-85852000D02*
X206926200Y-86580100D01*
X213189800Y-85852000D02*
X213189800Y-86580100D01*
X213189800Y-86580100D02*
X212239700Y-87530200D01*
X212239700Y-87530200D02*
X207876300Y-87530200D01*
X207876300Y-87530200D02*
X206926200Y-86580100D01*
X215138000Y-82856500D02*
X213189800Y-84804700D01*
X213189800Y-84804700D02*
X213189800Y-85852000D01*
X215138000Y-82128400D02*
X215138000Y-82856500D01*
X206926200Y-85123900D02*
X204613000Y-82810700D01*
X204613000Y-82810700D02*
X203711600Y-82810700D01*
X203711600Y-82810700D02*
X201774000Y-80873100D01*
X201774000Y-80873100D02*
X201774000Y-78946400D01*
X201774000Y-78946400D02*
X200698200Y-77870600D01*
X200698200Y-77870600D02*
X199999000Y-77870600D01*
X199999000Y-77870600D02*
X199447900Y-77319500D01*
X199447900Y-77319500D02*
X199447900Y-75986100D01*
X199447900Y-75986100D02*
X198391800Y-74930000D01*
X206926200Y-85852000D02*
X206926200Y-85123900D01*
X207005200Y-80598300D02*
X207558500Y-80045000D01*
X207558500Y-80045000D02*
X210533600Y-80045000D01*
X210533600Y-80045000D02*
X211330100Y-79248500D01*
X211330100Y-79248500D02*
X211492800Y-79248500D01*
X211492800Y-79248500D02*
X211528600Y-79212700D01*
X211528600Y-79212700D02*
X211905900Y-79212700D01*
X211905900Y-79212700D02*
X212220300Y-79527100D01*
X212220300Y-79527100D02*
X212220300Y-79572200D01*
X212220300Y-79572200D02*
X212282800Y-79634700D01*
X212282800Y-79634700D02*
X212282800Y-79700600D01*
X212282800Y-79700600D02*
X212294700Y-79712500D01*
X212294700Y-79712500D02*
X212294700Y-80188500D01*
X212294700Y-80188500D02*
X212675300Y-80569100D01*
X212675300Y-80569100D02*
X212675300Y-80592700D01*
X212675300Y-80592700D02*
X212974000Y-80891400D01*
X212974000Y-80891400D02*
X212997600Y-80891400D01*
X212997600Y-80891400D02*
X213406400Y-81300200D01*
X213406400Y-81300200D02*
X213428800Y-81300200D01*
X213428800Y-81300200D02*
X213464300Y-81335700D01*
X213464300Y-81335700D02*
X213864600Y-81335700D01*
X213864600Y-81335700D02*
X213888300Y-81312000D01*
X213888300Y-81312000D02*
X214000300Y-81312000D01*
X214000300Y-81312000D02*
X214118600Y-81430300D01*
X214118600Y-81430300D02*
X214118600Y-82042000D01*
X217678000Y-81764300D02*
X217314000Y-81400300D01*
X217314000Y-81400300D02*
X214148600Y-81400300D01*
X214148600Y-81400300D02*
X214118600Y-81430300D01*
X207005200Y-80598300D02*
X206926200Y-80677300D01*
X206926200Y-80677300D02*
X206926200Y-81313900D01*
X200388200Y-76929000D02*
X201271400Y-77812200D01*
X201271400Y-77812200D02*
X204377000Y-77812200D01*
X204377000Y-77812200D02*
X205070400Y-78505600D01*
X205070400Y-78505600D02*
X205070400Y-78663600D01*
X205070400Y-78663600D02*
X207005200Y-80598300D01*
X206926200Y-82042000D02*
X206926200Y-81313900D01*
X213189800Y-82042000D02*
X214118600Y-82042000D01*
X217678000Y-82128400D02*
X217678000Y-81764300D01*
X224706900Y-74932700D02*
X224132100Y-74357900D01*
X224132100Y-74357900D02*
X222711400Y-74357900D01*
X224706900Y-74932700D02*
X224706900Y-76619100D01*
X224706900Y-76619100D02*
X225271700Y-77183900D01*
X225271700Y-77183900D02*
X225635800Y-77183900D01*
X225635800Y-74576100D02*
X225063500Y-74576100D01*
X225063500Y-74576100D02*
X224706900Y-74932700D01*
X225635800Y-77912000D02*
X225635800Y-77183900D01*
X225635800Y-73848000D02*
X225635800Y-74576100D01*
X225635800Y-73848000D02*
X226564600Y-73848000D01*
X227838000Y-72557600D02*
X227838000Y-73285700D01*
X227838000Y-73285700D02*
X227126900Y-73285700D01*
X227126900Y-73285700D02*
X226564600Y-73848000D01*
X230632000Y-70813500D02*
X231133100Y-70312400D01*
X231133100Y-70312400D02*
X231133100Y-69848400D01*
X231133100Y-69848400D02*
X231683400Y-69298100D01*
X231683400Y-69298100D02*
X232117900Y-69298100D01*
X232117900Y-69298100D02*
X232514000Y-68902000D01*
X232514000Y-68902000D02*
X232514000Y-68501600D01*
X232514000Y-68501600D02*
X232231200Y-68218800D01*
X232231200Y-68218800D02*
X231952500Y-68218800D01*
X231952500Y-68218800D02*
X231639400Y-67905700D01*
X231639400Y-67905700D02*
X231639400Y-67564300D01*
X231639400Y-67564300D02*
X232181600Y-67022100D01*
X232181600Y-67022100D02*
X232580200Y-67022100D01*
X230632000Y-71541600D02*
X230632000Y-70813500D01*
X232580200Y-66294000D02*
X232580200Y-67022100D01*
X238843800Y-66294000D02*
X238843800Y-65565900D01*
X232580200Y-66294000D02*
X233509000Y-66294000D01*
X233509000Y-66294000D02*
X235355500Y-66294000D01*
X235355500Y-66294000D02*
X235712300Y-65937200D01*
X235712300Y-65937200D02*
X235712300Y-64738800D01*
X235712300Y-64738800D02*
X235839500Y-64611600D01*
X235839500Y-64611600D02*
X237889500Y-64611600D01*
X237889500Y-64611600D02*
X238843800Y-65565900D01*
X238843800Y-67022100D02*
X240630800Y-68809100D01*
X240630800Y-68809100D02*
X241800500Y-68809100D01*
X241800500Y-68809100D02*
X242509100Y-69517700D01*
X242509100Y-69517700D02*
X242509100Y-76139100D01*
X242509100Y-76139100D02*
X243840000Y-77470000D01*
X238843800Y-66294000D02*
X238843800Y-67022100D01*
X235708700Y-78145500D02*
X235827400Y-78264200D01*
X235827400Y-78264200D02*
X236995200Y-78264200D01*
X236995200Y-78264200D02*
X237573100Y-78842100D01*
X237573100Y-78842100D02*
X237573100Y-79257000D01*
X237573100Y-79257000D02*
X238910000Y-80593900D01*
X238910000Y-80593900D02*
X243256100Y-80593900D01*
X243256100Y-80593900D02*
X243840000Y-80010000D01*
X234779800Y-79436000D02*
X234779800Y-78707900D01*
X235708700Y-78145500D02*
X235708700Y-76938000D01*
X235708700Y-76938000D02*
X234870800Y-76100100D01*
X234870800Y-76100100D02*
X234779800Y-76100100D01*
X234779800Y-78707900D02*
X235146300Y-78707900D01*
X235146300Y-78707900D02*
X235708700Y-78145500D01*
X234779800Y-75372000D02*
X234779800Y-76100100D01*
X232580200Y-71073200D02*
X232458100Y-71073200D01*
X232458100Y-71073200D02*
X232017700Y-71513600D01*
X232017700Y-71513600D02*
X232017700Y-71916200D01*
X232017700Y-71916200D02*
X232519900Y-72418400D01*
X232519900Y-72418400D02*
X239129200Y-72418400D01*
X239129200Y-72418400D02*
X239223500Y-72512700D01*
X239223500Y-72512700D02*
X239636400Y-72512700D01*
X239636400Y-72512700D02*
X240013100Y-72136000D01*
X240013100Y-72136000D02*
X240013100Y-71541600D01*
X240792000Y-71541600D02*
X240792000Y-70813500D01*
X239772600Y-70358000D02*
X240228100Y-70813500D01*
X240228100Y-70813500D02*
X240792000Y-70813500D01*
X238843800Y-70358000D02*
X239772600Y-70358000D01*
X240792000Y-71541600D02*
X240013100Y-71541600D01*
X232580200Y-70358000D02*
X232580200Y-71073200D01*
X243840000Y-82550000D02*
X244861000Y-81529000D01*
X244861000Y-81529000D02*
X244861000Y-79614300D01*
X244861000Y-79614300D02*
X243986700Y-78740000D01*
X243986700Y-78740000D02*
X243705100Y-78740000D01*
X243705100Y-78740000D02*
X242079900Y-77114800D01*
X242079900Y-77114800D02*
X242079900Y-73102500D01*
X242079900Y-73102500D02*
X241247100Y-72269700D01*
X241247100Y-72269700D02*
X240792000Y-72269700D01*
X240792000Y-71593700D02*
X240792000Y-71541600D01*
X240792000Y-71593700D02*
X240792000Y-72269700D01*
D36*
X215148200Y-69596000D02*
X213827400Y-69596000D01*
X213827400Y-69596000D02*
X213807000Y-69616400D01*
X206629000Y-64135000D02*
X205741300Y-64135000D01*
X203956900Y-66040000D02*
X205741300Y-64255600D01*
X205741300Y-64255600D02*
X205741300Y-64135000D01*
D34*
X208150500Y-62870100D02*
X208150500Y-59819500D01*
X208150500Y-59819500D02*
X208534000Y-59436000D01*
X208800700Y-62870100D02*
X208800700Y-61709300D01*
X208800700Y-61709300D02*
X211074000Y-59436000D01*
X209450900Y-62870100D02*
X209450900Y-62145800D01*
X209450900Y-62145800D02*
X210717000Y-60879700D01*
X210717000Y-60879700D02*
X212170300Y-60879700D01*
X212170300Y-60879700D02*
X213614000Y-59436000D01*
X216154000Y-59436000D02*
X214665500Y-60924500D01*
X214665500Y-60924500D02*
X212967800Y-60924500D01*
X212967800Y-60924500D02*
X212707200Y-61185100D01*
X212707200Y-61185100D02*
X211061900Y-61185100D01*
X211061900Y-61185100D02*
X210101200Y-62145800D01*
X210101200Y-62870100D02*
X210101200Y-62145800D01*
X208800700Y-67977600D02*
X209291000Y-67487300D01*
X209291000Y-67487300D02*
X210952800Y-67487300D01*
X208800700Y-68701900D02*
X208800700Y-67977600D01*
X208150500Y-68701900D02*
X208007300Y-68845100D01*
X208007300Y-68845100D02*
X205262800Y-68845100D01*
X205262800Y-68845100D02*
X204918100Y-69189800D01*
X209450900Y-69426200D02*
X209448700Y-69428400D01*
X209448700Y-69428400D02*
X209448700Y-69613300D01*
X209450900Y-68701900D02*
X209450900Y-69426200D01*
X212046800Y-67977600D02*
X212046800Y-67543700D01*
X212046800Y-67543700D02*
X212027700Y-67524600D01*
X212046800Y-68701900D02*
X212046800Y-67977600D01*
X210101200Y-69426200D02*
X210101200Y-69645400D01*
X210101200Y-69645400D02*
X209646300Y-70100300D01*
X209646300Y-70100300D02*
X207884400Y-70100300D01*
X207884400Y-70100300D02*
X207615800Y-69831700D01*
X210101200Y-68701900D02*
X210101200Y-69426200D01*
X212697100Y-69426200D02*
X212838900Y-69568000D01*
X212838900Y-69568000D02*
X212838900Y-69619200D01*
X212697100Y-68701900D02*
X212697100Y-69426200D01*
X213997500Y-67977600D02*
X213661500Y-67641600D01*
X213661500Y-67641600D02*
X213661500Y-67511000D01*
X213997500Y-68701900D02*
X213997500Y-67977600D01*
X213347300Y-68701900D02*
X213323000Y-68726200D01*
X213323000Y-68726200D02*
X213323000Y-70469600D01*
X213323000Y-70469600D02*
X213842600Y-70989200D01*
X213997500Y-62870100D02*
X214352100Y-62515500D01*
X214352100Y-62515500D02*
X223107300Y-62515500D01*
X223107300Y-62515500D02*
X226186800Y-59436000D01*
X226186800Y-59436000D02*
X226822000Y-59436000D01*
X213347300Y-62870100D02*
X213347300Y-62145800D01*
X213347300Y-62145800D02*
X221572200Y-62145800D01*
X221572200Y-62145800D02*
X224282000Y-59436000D01*
X221742000Y-59436000D02*
X219464100Y-61713900D01*
X219464100Y-61713900D02*
X213129000Y-61713900D01*
X213129000Y-61713900D02*
X212697100Y-62145800D01*
X212697100Y-62870100D02*
X212697100Y-62145800D01*
X219202000Y-59436000D02*
X217408200Y-61229800D01*
X217408200Y-61229800D02*
X213094300Y-61229800D01*
X213094300Y-61229800D02*
X212178300Y-62145800D01*
X212178300Y-62145800D02*
X212046800Y-62145800D01*
X212046800Y-62870100D02*
X212046800Y-62145800D01*
X240538000Y-61214000D02*
X240538000Y-59918100D01*
X240538000Y-59918100D02*
X239057300Y-58437400D01*
X239057300Y-58437400D02*
X202625700Y-58437400D01*
X202625700Y-58437400D02*
X201521700Y-59541400D01*
X201521700Y-59541400D02*
X201521700Y-59541500D01*
X201521700Y-59541500D02*
X200397800Y-59541500D01*
X200397800Y-59541500D02*
X199390000Y-60549300D01*
X199390000Y-60549300D02*
X199390000Y-61266300D01*
X199390000Y-61266300D02*
X199997400Y-61873700D01*
X199997400Y-61873700D02*
X200660700Y-61873700D01*
X200660700Y-61873700D02*
X202381800Y-63594800D01*
X202381800Y-63594800D02*
X202381800Y-74624900D01*
X202381800Y-74624900D02*
X203956900Y-76200000D01*
X241618000Y-59985000D02*
X239428300Y-57795300D01*
X239428300Y-57795300D02*
X199731600Y-57795300D01*
X199731600Y-57795300D02*
X197134700Y-60392200D01*
X197134700Y-60392200D02*
X197134700Y-79055200D01*
X197134700Y-79055200D02*
X198008300Y-79928800D01*
X198008300Y-79928800D02*
X198724300Y-79928800D01*
X198724300Y-79928800D02*
X199390000Y-80594500D01*
X199390000Y-80594500D02*
X199390000Y-81263700D01*
X199390000Y-81263700D02*
X199997400Y-81871100D01*
X199997400Y-81871100D02*
X200668200Y-81871100D01*
X200668200Y-81871100D02*
X203956900Y-85159800D01*
X203956900Y-85159800D02*
X203956900Y-86360000D01*
X241618000Y-61214000D02*
X241618000Y-59985000D01*
X238843800Y-73693900D02*
X238958700Y-73693900D01*
X238958700Y-73693900D02*
X239350700Y-73301900D01*
X238843800Y-74422000D02*
X238843800Y-73693900D01*
X211396600Y-68701900D02*
X211396600Y-69227700D01*
X211396600Y-69227700D02*
X213642100Y-71473200D01*
X213642100Y-71473200D02*
X214614700Y-71473200D01*
X214614700Y-71473200D02*
X215116000Y-70971900D01*
X238843800Y-74422000D02*
X238843800Y-75150100D01*
X239299300Y-77302400D02*
X238843800Y-77757900D01*
X240440800Y-77302400D02*
X239299300Y-77302400D01*
X239299300Y-77302400D02*
X239299300Y-75605600D01*
X239299300Y-75605600D02*
X238843800Y-75150100D01*
X238843800Y-78486000D02*
X238843800Y-77757900D01*
X240792000Y-77302400D02*
X240440800Y-77302400D01*
X209125800Y-85630100D02*
X209125800Y-86073900D01*
X210990200Y-85630100D02*
X209125800Y-85630100D01*
X209125800Y-85630100D02*
X208307300Y-85630100D01*
X208307300Y-85630100D02*
X207597500Y-84920300D01*
X207597500Y-84920300D02*
X207165400Y-84920300D01*
X207165400Y-84920300D02*
X204709600Y-82464500D01*
X204709600Y-82464500D02*
X203797300Y-82464500D01*
X203797300Y-82464500D02*
X203023400Y-81690600D01*
X203023400Y-81690600D02*
X203023400Y-79673500D01*
X203023400Y-79673500D02*
X203956900Y-78740000D01*
X209125800Y-86802000D02*
X209125800Y-86073900D01*
X210990200Y-84902000D02*
X210990200Y-85630100D01*
X209125800Y-82770200D02*
X210061400Y-81834600D01*
X210061400Y-81834600D02*
X210061400Y-81092000D01*
X209125800Y-82992000D02*
X209125800Y-82770200D01*
X203956900Y-81280000D02*
X205447100Y-82770200D01*
X205447100Y-82770200D02*
X209125800Y-82770200D01*
X210990200Y-81092000D02*
X210061400Y-81092000D01*
X227059100Y-77302400D02*
X227059100Y-77958700D01*
X227059100Y-77958700D02*
X227896100Y-78795700D01*
X227896100Y-78795700D02*
X228493200Y-78795700D01*
X223436200Y-73626100D02*
X223261900Y-73626100D01*
X223261900Y-73626100D02*
X223204600Y-73568800D01*
X223204600Y-73568800D02*
X222384400Y-73568800D01*
X222384400Y-73568800D02*
X221922300Y-74030900D01*
X221922300Y-74030900D02*
X221922300Y-74684900D01*
X221922300Y-74684900D02*
X222563100Y-75325700D01*
X222563100Y-75325700D02*
X222694800Y-75325700D01*
X223436200Y-76233900D02*
X222694800Y-75492500D01*
X222694800Y-75492500D02*
X222694800Y-75325700D01*
X223436200Y-76962000D02*
X223436200Y-76233900D01*
X227838000Y-77302400D02*
X227059100Y-77302400D01*
X223436200Y-72898000D02*
X223436200Y-73626100D01*
X244094000Y-57965300D02*
X244094000Y-59155900D01*
X244094000Y-59155900D02*
X247168100Y-62230000D01*
X247168100Y-62230000D02*
X247577800Y-62230000D01*
X247577800Y-62230000D02*
X248424100Y-63076300D01*
X248424100Y-63076300D02*
X248424100Y-63878800D01*
X248424100Y-63878800D02*
X247769500Y-64533400D01*
X247769500Y-64533400D02*
X246556100Y-64533400D01*
X246556100Y-64533400D02*
X244466300Y-62443600D01*
X244466300Y-62443600D02*
X241517300Y-62443600D01*
X241517300Y-62443600D02*
X241202300Y-62758600D01*
X241202300Y-62758600D02*
X241202300Y-63603800D01*
X241202300Y-63603800D02*
X241300000Y-63701500D01*
X241300000Y-64429600D02*
X241300000Y-63701500D01*
D36*
X241717800Y-62927600D02*
X242450400Y-63660200D01*
X242450400Y-63660200D02*
X242450400Y-66705100D01*
X242450400Y-66705100D02*
X243055300Y-67310000D01*
X243055300Y-67310000D02*
X243840000Y-67310000D01*
X221742000Y-81687700D02*
X221776900Y-81652800D01*
X221776900Y-81652800D02*
X221776900Y-80223200D01*
X221776900Y-80223200D02*
X222068000Y-79932100D01*
X222068000Y-79932100D02*
X222495000Y-79932100D01*
X222495000Y-79932100D02*
X223288200Y-80725300D01*
X223288200Y-80725300D02*
X228909800Y-80725300D01*
X228909800Y-80725300D02*
X229153500Y-80969000D01*
X207073000Y-62865000D02*
X207073000Y-60328700D01*
X207073000Y-60328700D02*
X207226000Y-60175700D01*
X207073000Y-62865000D02*
X207562600Y-63354600D01*
X207562600Y-63354600D02*
X207562600Y-65234700D01*
X207382100Y-65415200D02*
X207562600Y-65234700D01*
X215148200Y-67318900D02*
X213064000Y-65234700D01*
X213064000Y-65234700D02*
X207562600Y-65234700D01*
X215148200Y-68072000D02*
X215148200Y-67318900D01*
X221742000Y-82423000D02*
X221742000Y-81687700D01*
X206629000Y-65415200D02*
X207382100Y-65415200D01*
X243840000Y-67310000D02*
X245559400Y-69029400D01*
X245559400Y-69029400D02*
X245559400Y-83877300D01*
X245559400Y-83877300D02*
X245099800Y-84336900D01*
X206629000Y-62865000D02*
X207073000Y-62865000D01*
X245099800Y-85090000D02*
X245099800Y-84336900D01*
X245099800Y-86114900D02*
X245099800Y-85090000D01*
X245099800Y-86868000D02*
X245099800Y-86114900D01*
X204908100Y-63500000D02*
X205543100Y-62865000D01*
X205543100Y-62865000D02*
X206629000Y-62865000D01*
X203956900Y-63500000D02*
X204908100Y-63500000D01*
X224282000Y-81687700D02*
X223532600Y-81687700D01*
X223532600Y-81687700D02*
X222284700Y-80439800D01*
X225169700Y-82423000D02*
X225169700Y-84703400D01*
X225169700Y-84703400D02*
X227688700Y-87222400D01*
X227688700Y-87222400D02*
X229683200Y-87222400D01*
X229683200Y-87222400D02*
X230193100Y-87732300D01*
X217354100Y-69596000D02*
X217354100Y-72588700D01*
X217354100Y-72588700D02*
X217543300Y-72777900D01*
X217543300Y-72777900D02*
X217543300Y-73187400D01*
X217543300Y-73187400D02*
X217840100Y-73484200D01*
X217840100Y-73484200D02*
X218260000Y-73484200D01*
X218260000Y-73484200D02*
X218556700Y-73187500D01*
X218556700Y-73187500D02*
X218556700Y-72777900D01*
X218556700Y-72777900D02*
X219515500Y-71819100D01*
X219515500Y-71819100D02*
X220919200Y-71819100D01*
X216266400Y-69210500D02*
X215881000Y-68825200D01*
X215881000Y-68825200D02*
X214589000Y-68825200D01*
X214589000Y-68825200D02*
X214402700Y-68638900D01*
X214402700Y-68638900D02*
X214402700Y-68047200D01*
X214402700Y-68047200D02*
X214400800Y-68045300D01*
X214400800Y-68045300D02*
X214400800Y-67500300D01*
X214400800Y-67500300D02*
X213394600Y-66494100D01*
X213394600Y-66494100D02*
X212849600Y-66494100D01*
X212849600Y-66494100D02*
X212572000Y-66216500D01*
X212572000Y-66216500D02*
X206629000Y-66216500D01*
X206629000Y-66918800D02*
X206629000Y-66216500D01*
X206340700Y-66918800D02*
X206629000Y-66918800D01*
X216651800Y-69596000D02*
X217354100Y-69596000D01*
X216266400Y-69210500D02*
X216651800Y-69596000D01*
X224282000Y-82423000D02*
X224282000Y-81687700D01*
X243840000Y-69850000D02*
X245206600Y-71216600D01*
X245206600Y-71216600D02*
X245206600Y-83479500D01*
X245206600Y-83479500D02*
X244298500Y-84387600D01*
X244298500Y-84387600D02*
X244298500Y-85090000D01*
X243947400Y-85090000D02*
X243596200Y-85441200D01*
X243596200Y-85441200D02*
X243596200Y-86868000D01*
X243947400Y-85090000D02*
X244298500Y-85090000D01*
X243596200Y-85090000D02*
X243947400Y-85090000D01*
X216266400Y-69210500D02*
X216651800Y-68825100D01*
X205875900Y-66918800D02*
X205618100Y-66918800D01*
X205618100Y-66918800D02*
X203956900Y-68580000D01*
X216651800Y-68072000D02*
X216651800Y-68825100D01*
X206340700Y-66918800D02*
X205875900Y-66918800D01*
X224282000Y-82423000D02*
X225169700Y-82423000D01*
D37*
X220924900Y-69596000D02*
X220924900Y-69624700D01*
X220924900Y-69624700D02*
X220184300Y-70365300D01*
X221996000Y-68121100D02*
X220814100Y-66939200D01*
X220814100Y-66939200D02*
X218227900Y-66939200D01*
X215819200Y-77238900D02*
X216662500Y-76395600D01*
X216662500Y-76395600D02*
X216662500Y-76386200D01*
X214325200Y-77238900D02*
X215819200Y-77238900D01*
X221752200Y-69596000D02*
X220924900Y-69596000D01*
X221996000Y-68121100D02*
X221996000Y-68551300D01*
X221996000Y-67691000D02*
X221996000Y-68121100D01*
X221752200Y-69156900D02*
X221752200Y-69596000D01*
X214325200Y-77238900D02*
X212831200Y-77238900D01*
X211096900Y-77724000D02*
X212775100Y-77724000D01*
X212831200Y-77238900D02*
X212831200Y-77667900D01*
X212831200Y-77667900D02*
X212775100Y-77724000D01*
X221752200Y-69156900D02*
X221752200Y-68717900D01*
X221752200Y-68717900D02*
X221829400Y-68717900D01*
X221829400Y-68717900D02*
X221996000Y-68551300D01*
X242768900Y-88646000D02*
X240809500Y-88646000D01*
X240809500Y-88646000D02*
X240100500Y-87937000D01*
X240100500Y-87937000D02*
X236421000Y-87937000D01*
X236421000Y-87937000D02*
X233934000Y-90424000D01*
X227385100Y-69596000D02*
X227385100Y-69078900D01*
X227385100Y-69078900D02*
X227763400Y-68700600D01*
X227763400Y-68700600D02*
X229466700Y-68700600D01*
X229466700Y-68700600D02*
X229616000Y-68551300D01*
X229616000Y-67691000D02*
X229225600Y-67691000D01*
X229225600Y-67691000D02*
X228382800Y-66848200D01*
X228382800Y-66848200D02*
X228382800Y-64236200D01*
X224282000Y-84553300D02*
X224282000Y-84584500D01*
X224282000Y-84584500D02*
X221244200Y-87622300D01*
X221244200Y-87622300D02*
X221244200Y-89672200D01*
X221552100Y-72331300D02*
X221312400Y-72571000D01*
X221312400Y-72571000D02*
X219441000Y-72571000D01*
X219441000Y-72571000D02*
X219034400Y-72977600D01*
X219034400Y-72977600D02*
X219034400Y-73385400D01*
X219034400Y-73385400D02*
X218457900Y-73961900D01*
X218457900Y-73961900D02*
X217092100Y-73961900D01*
X217092100Y-73961900D02*
X215819200Y-72689000D01*
X215819200Y-72689000D02*
X215819200Y-72621100D01*
X223255800Y-70474100D02*
X221552100Y-72177800D01*
X221552100Y-72177800D02*
X221552100Y-72331300D01*
X207495100Y-71466200D02*
X212561400Y-71466200D01*
X212561400Y-71466200D02*
X212831200Y-71736000D01*
X212831200Y-71736000D02*
X212831200Y-72621100D01*
X206629000Y-69775600D02*
X206629000Y-70600100D01*
X206629000Y-70600100D02*
X207495100Y-71466200D01*
X202835900Y-62519600D02*
X202835900Y-68991400D01*
X202835900Y-68991400D02*
X203710000Y-69865500D01*
X203710000Y-69865500D02*
X206539100Y-69865500D01*
X206539100Y-69865500D02*
X206629000Y-69775600D01*
X234863100Y-60325000D02*
X233184900Y-60325000D01*
X229362000Y-59436000D02*
X230507500Y-60581500D01*
X230507500Y-60581500D02*
X232928400Y-60581500D01*
X232928400Y-60581500D02*
X233184900Y-60325000D01*
X233934000Y-90424000D02*
X233182200Y-91175800D01*
X233182200Y-91175800D02*
X231775000Y-91175800D01*
X226557800Y-69596000D02*
X227385100Y-69596000D01*
X229616000Y-68475500D02*
X229616000Y-68551300D01*
X229616000Y-67691000D02*
X229616000Y-68475500D01*
X229859800Y-69596000D02*
X229859800Y-68717900D01*
X229616000Y-68551300D02*
X229693200Y-68551300D01*
X229693200Y-68551300D02*
X229859800Y-68717900D01*
X202835900Y-62519600D02*
X201975700Y-62519600D01*
X201975700Y-62519600D02*
X200388200Y-60932100D01*
X205994000Y-59436000D02*
X202910400Y-62519600D01*
X202910400Y-62519600D02*
X202835900Y-62519600D01*
X206629000Y-69585800D02*
X206629000Y-69775600D01*
X207495100Y-73821800D02*
X207495100Y-76546200D01*
X221244200Y-89672200D02*
X219837000Y-89672200D01*
X221996000Y-90424000D02*
X221244200Y-89672200D01*
X224282000Y-83693000D02*
X224282000Y-84553300D01*
X214325200Y-72621100D02*
X215819200Y-72621100D01*
X207495100Y-72644000D02*
X207495100Y-71466200D01*
X214325200Y-72621100D02*
X212831200Y-72621100D01*
X207495100Y-72644000D02*
X207495100Y-73508800D01*
X200388200Y-88927900D02*
X200388200Y-86929000D01*
X203279100Y-89936700D02*
X201397000Y-89936700D01*
X201397000Y-89936700D02*
X200388200Y-88927900D01*
X207495100Y-73508800D02*
X207495100Y-73821800D01*
X243596200Y-88646000D02*
X242768900Y-88646000D01*
X243596200Y-88646000D02*
X244990900Y-90040700D01*
X244990900Y-90040700D02*
X247872600Y-90040700D01*
X247872600Y-90040700D02*
X248536600Y-89376700D01*
X248536600Y-89376700D02*
X248536600Y-82420600D01*
X248536600Y-82420600D02*
X247396000Y-81280000D01*
X210058000Y-90424000D02*
X208981700Y-89347700D01*
X208981700Y-89347700D02*
X203868100Y-89347700D01*
X203868100Y-89347700D02*
X203279100Y-89936700D01*
X203279100Y-90525600D02*
X203279100Y-89936700D01*
X207495100Y-77724000D02*
X207495100Y-76546200D01*
X223255800Y-69596000D02*
X223255800Y-70474100D01*
X220729300Y-83693000D02*
X220729300Y-81781500D01*
X220729300Y-81781500D02*
X221299200Y-81211600D01*
X221299200Y-81211600D02*
X221299200Y-80376700D01*
X221299200Y-80376700D02*
X220922800Y-80000300D01*
X220922800Y-80000300D02*
X219875000Y-80000300D01*
X219875000Y-80000300D02*
X217647400Y-77772700D01*
X217647400Y-77772700D02*
X217647400Y-75646400D01*
X228356200Y-70474100D02*
X228463400Y-70474100D01*
X228463400Y-70474100D02*
X229263200Y-71273900D01*
X225548700Y-67691000D02*
X225548700Y-65770200D01*
X225548700Y-65770200D02*
X224965700Y-65187200D01*
X215819200Y-74930000D02*
X216931000Y-74930000D01*
X216931000Y-74930000D02*
X217647400Y-75646400D01*
X220522800Y-74930000D02*
X219806400Y-75646400D01*
X219806400Y-75646400D02*
X217647400Y-75646400D01*
X225054200Y-70474100D02*
X224119300Y-70474100D01*
X224119300Y-70474100D02*
X222251600Y-72341800D01*
X222251600Y-72341800D02*
X222251600Y-73059500D01*
X222251600Y-73059500D02*
X220522800Y-74788300D01*
X220522800Y-74788300D02*
X220522800Y-74930000D01*
X207507100Y-68082200D02*
X208576300Y-67013000D01*
X208576300Y-67013000D02*
X208771900Y-67013000D01*
X220729300Y-83693000D02*
X218958900Y-85463400D01*
X218958900Y-85463400D02*
X218958900Y-91175800D01*
X219837000Y-91175800D02*
X218958900Y-91175800D01*
X218958900Y-91175800D02*
X218529700Y-91605000D01*
X218529700Y-91605000D02*
X216319000Y-91605000D01*
X216319000Y-91605000D02*
X215138000Y-90424000D01*
X228356200Y-70474100D02*
X225054200Y-70474100D01*
X228356200Y-69596000D02*
X228356200Y-70474100D01*
X225054200Y-69596000D02*
X225054200Y-70474100D01*
X206629000Y-68082200D02*
X207507100Y-68082200D01*
X238464900Y-60325000D02*
X238464900Y-59147200D01*
X231902000Y-59436000D02*
X232190800Y-59147200D01*
X232190800Y-59147200D02*
X238464900Y-59147200D01*
X211096900Y-72644000D02*
X211096900Y-73821800D01*
X214325200Y-74930000D02*
X215819200Y-74930000D01*
X221742000Y-83693000D02*
X220729300Y-83693000D01*
X211096900Y-73821800D02*
X211723000Y-73821800D01*
X211723000Y-73821800D02*
X212831200Y-74930000D01*
X214325200Y-74930000D02*
X212831200Y-74930000D01*
X224536000Y-67691000D02*
X225548700Y-67691000D01*
X225054200Y-69596000D02*
X225054200Y-68717900D01*
X224536000Y-67691000D02*
X224536000Y-68551300D01*
X224536000Y-68551300D02*
X224702600Y-68717900D01*
X224702600Y-68717900D02*
X225054200Y-68717900D01*
X245099800Y-88206900D02*
X244660700Y-87767800D01*
X244660700Y-87767800D02*
X240783700Y-87767800D01*
X240783700Y-87767800D02*
X240350200Y-87334300D01*
X240350200Y-87334300D02*
X233285600Y-87334300D01*
X233285600Y-87334300D02*
X231775000Y-88844900D01*
X228088700Y-67691000D02*
X228420600Y-68022900D01*
X228420600Y-68022900D02*
X228522300Y-68022900D01*
X206880900Y-90525600D02*
X206880900Y-91703400D01*
X198391800Y-88927900D02*
X201167300Y-91703400D01*
X201167300Y-91703400D02*
X206880900Y-91703400D01*
X206880900Y-90525600D02*
X208559100Y-90525600D01*
X208559100Y-90525600D02*
X208559100Y-90660600D01*
X208559100Y-90660600D02*
X209503300Y-91604800D01*
X209503300Y-91604800D02*
X211417200Y-91604800D01*
X211417200Y-91604800D02*
X212598000Y-90424000D01*
X229616000Y-90424000D02*
X227832200Y-92207800D01*
X227832200Y-92207800D02*
X214381800Y-92207800D01*
X214381800Y-92207800D02*
X212598000Y-90424000D01*
X227076000Y-67691000D02*
X228088700Y-67691000D01*
X245099800Y-88206900D02*
X245293900Y-88206900D01*
X245293900Y-88206900D02*
X245927200Y-87573600D01*
X245927200Y-87573600D02*
X245927200Y-85288800D01*
X245927200Y-85288800D02*
X247396000Y-83820000D01*
X245099800Y-88206900D02*
X245099800Y-88646000D01*
X231775000Y-89672200D02*
X231775000Y-88844900D01*
X231775000Y-89672200D02*
X230367800Y-89672200D01*
X230367800Y-89672200D02*
X229616000Y-90424000D01*
D34*
X200388200Y-72931000D02*
X201446900Y-73989700D01*
X201446900Y-73989700D02*
X201446900Y-75001800D01*
X201446900Y-75001800D02*
X203592700Y-77147600D01*
X203592700Y-77147600D02*
X204576100Y-77147600D01*
X204576100Y-77147600D02*
X205789100Y-78360600D01*
X205789100Y-78360600D02*
X205789100Y-78468600D01*
X205789100Y-78468600D02*
X206096600Y-78776100D01*
X206096600Y-78776100D02*
X208880400Y-78776100D01*
X208880400Y-78776100D02*
X209296000Y-78360500D01*
X209296000Y-78360500D02*
X209296000Y-77040600D01*
X209296000Y-77040600D02*
X210479400Y-75857200D01*
X210479400Y-75857200D02*
X216881700Y-75857200D01*
X216881700Y-75857200D02*
X217191500Y-76167000D01*
X217191500Y-76167000D02*
X217191500Y-77967200D01*
X217191500Y-77967200D02*
X219863200Y-80638900D01*
X219863200Y-80638900D02*
X220666500Y-80638900D01*
X225856400Y-88138000D02*
X225856400Y-87693500D01*
X225856400Y-87693500D02*
X225398500Y-87235600D01*
X225398500Y-87235600D02*
X222809000Y-87235600D01*
X222809000Y-87235600D02*
X222224500Y-87820100D01*
X226568000Y-88138000D02*
X225856400Y-88138000D01*
X200388200Y-74930000D02*
X202965000Y-77506800D01*
X202965000Y-77506800D02*
X204503400Y-77506800D01*
X204503400Y-77506800D02*
X205375700Y-78379100D01*
X205375700Y-78379100D02*
X205375700Y-78487000D01*
X205375700Y-78487000D02*
X205970100Y-79081400D01*
X205970100Y-79081400D02*
X211065400Y-79081400D01*
X211065400Y-79081400D02*
X211393600Y-78753200D01*
X211393600Y-78753200D02*
X212586600Y-78753200D01*
X212586600Y-78753200D02*
X212949600Y-78390200D01*
X212949600Y-78390200D02*
X217139800Y-78390200D01*
X217139800Y-78390200D02*
X220017300Y-81267700D01*
X220017300Y-81267700D02*
X220348200Y-81267700D01*
X222808400Y-88138000D02*
X222463500Y-88482900D01*
X222463500Y-88482900D02*
X222254300Y-88482900D01*
X223520000Y-88138000D02*
X222808400Y-88138000D01*
X247396000Y-68580000D02*
X245121300Y-66305300D01*
X245121300Y-66305300D02*
X243165700Y-66305300D01*
X243165700Y-66305300D02*
X242998800Y-66472200D01*
X247396000Y-63500000D02*
X241381300Y-57485300D01*
X241381300Y-57485300D02*
X199603800Y-57485300D01*
X199603800Y-57485300D02*
X196781300Y-60307800D01*
X196781300Y-60307800D02*
X196781300Y-82681400D01*
X196781300Y-82681400D02*
X198029100Y-83929200D01*
X198029100Y-83929200D02*
X199387400Y-83929200D01*
X199387400Y-83929200D02*
X200388200Y-84930000D01*
X198391800Y-86929000D02*
X197399400Y-87921400D01*
X197399400Y-87921400D02*
X197399400Y-89288500D01*
X197399400Y-89288500D02*
X200780500Y-92669600D01*
X200780500Y-92669600D02*
X233125900Y-92669600D01*
X233125900Y-92669600D02*
X235436600Y-90358900D01*
X235436600Y-90358900D02*
X235436600Y-90059800D01*
X235436600Y-90059800D02*
X236926700Y-88569700D01*
X236926700Y-88569700D02*
X239838300Y-88569700D01*
X237573000Y-77536000D02*
X237898700Y-77861700D01*
X237898700Y-77861700D02*
X237898700Y-79073900D01*
X237898700Y-79073900D02*
X238917400Y-80092600D01*
X238917400Y-80092600D02*
X239391400Y-80092600D01*
X236644200Y-77536000D02*
X237573000Y-77536000D01*
X236644200Y-77536000D02*
X236644200Y-76807900D01*
X236644200Y-76807900D02*
X236521700Y-76807900D01*
X236521700Y-76807900D02*
X235715300Y-76001500D01*
X235715300Y-76001500D02*
X235715300Y-74715200D01*
X235715300Y-74715200D02*
X236230400Y-74200100D01*
X236230400Y-74200100D02*
X236644200Y-74200100D01*
X236644200Y-73472000D02*
X236644200Y-74200100D01*
M02*
