%FSLAX46Y46*%
G04 Gerber Fmt 4.6, Leading zero omitted, Abs format (unit mm)*
G04 Created by KiCad (PCBNEW (2014-jul-16 BZR unknown)-product) date vie 22 ago 2014 20:47:43 CST*
%MOMM*%
G01*
G04 APERTURE LIST*
%ADD10C,0.150000*%
%ADD11C,0.127000*%
%ADD12C,0.002540*%
G04 APERTURE END LIST*
D10*
D11*
X223598014Y-69142427D02*
X223235157Y-68888427D01*
X223598014Y-68706999D02*
X222836014Y-68706999D01*
X222836014Y-68997284D01*
X222872300Y-69069856D01*
X222908586Y-69106141D01*
X222981157Y-69142427D01*
X223090014Y-69142427D01*
X223162586Y-69106141D01*
X223198871Y-69069856D01*
X223235157Y-68997284D01*
X223235157Y-68706999D01*
X223598014Y-69577856D02*
X223561729Y-69505284D01*
X223525443Y-69468999D01*
X223452871Y-69432713D01*
X223235157Y-69432713D01*
X223162586Y-69468999D01*
X223126300Y-69505284D01*
X223090014Y-69577856D01*
X223090014Y-69686713D01*
X223126300Y-69759284D01*
X223162586Y-69795570D01*
X223235157Y-69831856D01*
X223452871Y-69831856D01*
X223525443Y-69795570D01*
X223561729Y-69759284D01*
X223598014Y-69686713D01*
X223598014Y-69577856D01*
X223598014Y-70267285D02*
X223561729Y-70194713D01*
X223525443Y-70158428D01*
X223452871Y-70122142D01*
X223235157Y-70122142D01*
X223162586Y-70158428D01*
X223126300Y-70194713D01*
X223090014Y-70267285D01*
X223090014Y-70376142D01*
X223126300Y-70448713D01*
X223162586Y-70484999D01*
X223235157Y-70521285D01*
X223452871Y-70521285D01*
X223525443Y-70484999D01*
X223561729Y-70448713D01*
X223598014Y-70376142D01*
X223598014Y-70267285D01*
X223561729Y-70811571D02*
X223598014Y-70884142D01*
X223598014Y-71029285D01*
X223561729Y-71101857D01*
X223489157Y-71138142D01*
X223452871Y-71138142D01*
X223380300Y-71101857D01*
X223344014Y-71029285D01*
X223344014Y-70920428D01*
X223307729Y-70847857D01*
X223235157Y-70811571D01*
X223198871Y-70811571D01*
X223126300Y-70847857D01*
X223090014Y-70920428D01*
X223090014Y-71029285D01*
X223126300Y-71101857D01*
X223561729Y-71754999D02*
X223598014Y-71682428D01*
X223598014Y-71537285D01*
X223561729Y-71464714D01*
X223489157Y-71428428D01*
X223198871Y-71428428D01*
X223126300Y-71464714D01*
X223090014Y-71537285D01*
X223090014Y-71682428D01*
X223126300Y-71754999D01*
X223198871Y-71791285D01*
X223271443Y-71791285D01*
X223344014Y-71428428D01*
X223598014Y-72117857D02*
X223090014Y-72117857D01*
X223162586Y-72117857D02*
X223126300Y-72154142D01*
X223090014Y-72226714D01*
X223090014Y-72335571D01*
X223126300Y-72408142D01*
X223198871Y-72444428D01*
X223598014Y-72444428D01*
X223198871Y-72444428D02*
X223126300Y-72480714D01*
X223090014Y-72553285D01*
X223090014Y-72662142D01*
X223126300Y-72734714D01*
X223198871Y-72770999D01*
X223598014Y-72770999D01*
X223598014Y-73133857D02*
X222836014Y-73133857D01*
X223126300Y-73133857D02*
X223090014Y-73206428D01*
X223090014Y-73351571D01*
X223126300Y-73424142D01*
X223162586Y-73460428D01*
X223235157Y-73496714D01*
X223452871Y-73496714D01*
X223525443Y-73460428D01*
X223561729Y-73424142D01*
X223598014Y-73351571D01*
X223598014Y-73206428D01*
X223561729Y-73133857D01*
X223561729Y-74113571D02*
X223598014Y-74041000D01*
X223598014Y-73895857D01*
X223561729Y-73823286D01*
X223489157Y-73787000D01*
X223198871Y-73787000D01*
X223126300Y-73823286D01*
X223090014Y-73895857D01*
X223090014Y-74041000D01*
X223126300Y-74113571D01*
X223198871Y-74149857D01*
X223271443Y-74149857D01*
X223344014Y-73787000D01*
X223598014Y-74476429D02*
X223090014Y-74476429D01*
X223235157Y-74476429D02*
X223162586Y-74512714D01*
X223126300Y-74549000D01*
X223090014Y-74621571D01*
X223090014Y-74694143D01*
X223090014Y-74839285D02*
X223090014Y-75129571D01*
X222836014Y-74948143D02*
X223489157Y-74948143D01*
X223561729Y-74984428D01*
X223598014Y-75057000D01*
X223598014Y-75129571D01*
X223598014Y-75383572D02*
X222836014Y-75383572D01*
X223598014Y-75710143D02*
X223198871Y-75710143D01*
X223126300Y-75673857D01*
X223090014Y-75601286D01*
X223090014Y-75492429D01*
X223126300Y-75419857D01*
X223162586Y-75383572D01*
X223598014Y-76653572D02*
X222836014Y-76653572D01*
X222836014Y-76943857D01*
X222872300Y-77016429D01*
X222908586Y-77052714D01*
X222981157Y-77089000D01*
X223090014Y-77089000D01*
X223162586Y-77052714D01*
X223198871Y-77016429D01*
X223235157Y-76943857D01*
X223235157Y-76653572D01*
X223598014Y-77742143D02*
X223198871Y-77742143D01*
X223126300Y-77705857D01*
X223090014Y-77633286D01*
X223090014Y-77488143D01*
X223126300Y-77415572D01*
X223561729Y-77742143D02*
X223598014Y-77669572D01*
X223598014Y-77488143D01*
X223561729Y-77415572D01*
X223489157Y-77379286D01*
X223416586Y-77379286D01*
X223344014Y-77415572D01*
X223307729Y-77488143D01*
X223307729Y-77669572D01*
X223271443Y-77742143D01*
X223598014Y-78213858D02*
X223561729Y-78141286D01*
X223489157Y-78105001D01*
X222836014Y-78105001D01*
X223598014Y-78830715D02*
X223198871Y-78830715D01*
X223126300Y-78794429D01*
X223090014Y-78721858D01*
X223090014Y-78576715D01*
X223126300Y-78504144D01*
X223561729Y-78830715D02*
X223598014Y-78758144D01*
X223598014Y-78576715D01*
X223561729Y-78504144D01*
X223489157Y-78467858D01*
X223416586Y-78467858D01*
X223344014Y-78504144D01*
X223307729Y-78576715D01*
X223307729Y-78758144D01*
X223271443Y-78830715D01*
X223561729Y-79520144D02*
X223598014Y-79447573D01*
X223598014Y-79302430D01*
X223561729Y-79229858D01*
X223525443Y-79193573D01*
X223452871Y-79157287D01*
X223235157Y-79157287D01*
X223162586Y-79193573D01*
X223126300Y-79229858D01*
X223090014Y-79302430D01*
X223090014Y-79447573D01*
X223126300Y-79520144D01*
X223598014Y-79846716D02*
X223090014Y-79846716D01*
X222836014Y-79846716D02*
X222872300Y-79810430D01*
X222908586Y-79846716D01*
X222872300Y-79883001D01*
X222836014Y-79846716D01*
X222908586Y-79846716D01*
X223598014Y-80318430D02*
X223561729Y-80245858D01*
X223525443Y-80209573D01*
X223452871Y-80173287D01*
X223235157Y-80173287D01*
X223162586Y-80209573D01*
X223126300Y-80245858D01*
X223090014Y-80318430D01*
X223090014Y-80427287D01*
X223126300Y-80499858D01*
X223162586Y-80536144D01*
X223235157Y-80572430D01*
X223452871Y-80572430D01*
X223525443Y-80536144D01*
X223561729Y-80499858D01*
X223598014Y-80427287D01*
X223598014Y-80318430D01*
X223561729Y-80862716D02*
X223598014Y-80935287D01*
X223598014Y-81080430D01*
X223561729Y-81153002D01*
X223489157Y-81189287D01*
X223452871Y-81189287D01*
X223380300Y-81153002D01*
X223344014Y-81080430D01*
X223344014Y-80971573D01*
X223307729Y-80899002D01*
X223235157Y-80862716D01*
X223198871Y-80862716D01*
X223126300Y-80899002D01*
X223090014Y-80971573D01*
X223090014Y-81080430D01*
X223126300Y-81153002D01*
X224283814Y-67781713D02*
X224501529Y-67201142D01*
X224719243Y-67781713D01*
X224791814Y-68144571D02*
X224283814Y-68144571D01*
X224428957Y-68144571D02*
X224356386Y-68180856D01*
X224320100Y-68217142D01*
X224283814Y-68289713D01*
X224283814Y-68362285D01*
X224791814Y-68725142D02*
X224755529Y-68652570D01*
X224719243Y-68616285D01*
X224646671Y-68579999D01*
X224428957Y-68579999D01*
X224356386Y-68616285D01*
X224320100Y-68652570D01*
X224283814Y-68725142D01*
X224283814Y-68833999D01*
X224320100Y-68906570D01*
X224356386Y-68942856D01*
X224428957Y-68979142D01*
X224646671Y-68979142D01*
X224719243Y-68942856D01*
X224755529Y-68906570D01*
X224791814Y-68833999D01*
X224791814Y-68725142D01*
X224791814Y-69414571D02*
X224755529Y-69341999D01*
X224719243Y-69305714D01*
X224646671Y-69269428D01*
X224428957Y-69269428D01*
X224356386Y-69305714D01*
X224320100Y-69341999D01*
X224283814Y-69414571D01*
X224283814Y-69523428D01*
X224320100Y-69595999D01*
X224356386Y-69632285D01*
X224428957Y-69668571D01*
X224646671Y-69668571D01*
X224719243Y-69632285D01*
X224755529Y-69595999D01*
X224791814Y-69523428D01*
X224791814Y-69414571D01*
X224755529Y-69958857D02*
X224791814Y-70031428D01*
X224791814Y-70176571D01*
X224755529Y-70249143D01*
X224682957Y-70285428D01*
X224646671Y-70285428D01*
X224574100Y-70249143D01*
X224537814Y-70176571D01*
X224537814Y-70067714D01*
X224501529Y-69995143D01*
X224428957Y-69958857D01*
X224392671Y-69958857D01*
X224320100Y-69995143D01*
X224283814Y-70067714D01*
X224283814Y-70176571D01*
X224320100Y-70249143D01*
X224755529Y-70902285D02*
X224791814Y-70829714D01*
X224791814Y-70684571D01*
X224755529Y-70612000D01*
X224682957Y-70575714D01*
X224392671Y-70575714D01*
X224320100Y-70612000D01*
X224283814Y-70684571D01*
X224283814Y-70829714D01*
X224320100Y-70902285D01*
X224392671Y-70938571D01*
X224465243Y-70938571D01*
X224537814Y-70575714D01*
X224791814Y-71265143D02*
X224283814Y-71265143D01*
X224356386Y-71265143D02*
X224320100Y-71301428D01*
X224283814Y-71374000D01*
X224283814Y-71482857D01*
X224320100Y-71555428D01*
X224392671Y-71591714D01*
X224791814Y-71591714D01*
X224392671Y-71591714D02*
X224320100Y-71628000D01*
X224283814Y-71700571D01*
X224283814Y-71809428D01*
X224320100Y-71882000D01*
X224392671Y-71918285D01*
X224791814Y-71918285D01*
X224791814Y-72281143D02*
X224029814Y-72281143D01*
X224320100Y-72281143D02*
X224283814Y-72353714D01*
X224283814Y-72498857D01*
X224320100Y-72571428D01*
X224356386Y-72607714D01*
X224428957Y-72644000D01*
X224646671Y-72644000D01*
X224719243Y-72607714D01*
X224755529Y-72571428D01*
X224791814Y-72498857D01*
X224791814Y-72353714D01*
X224755529Y-72281143D01*
X224755529Y-73260857D02*
X224791814Y-73188286D01*
X224791814Y-73043143D01*
X224755529Y-72970572D01*
X224682957Y-72934286D01*
X224392671Y-72934286D01*
X224320100Y-72970572D01*
X224283814Y-73043143D01*
X224283814Y-73188286D01*
X224320100Y-73260857D01*
X224392671Y-73297143D01*
X224465243Y-73297143D01*
X224537814Y-72934286D01*
X224791814Y-73623715D02*
X224283814Y-73623715D01*
X224428957Y-73623715D02*
X224356386Y-73660000D01*
X224320100Y-73696286D01*
X224283814Y-73768857D01*
X224283814Y-73841429D01*
X224283814Y-73986571D02*
X224283814Y-74276857D01*
X224029814Y-74095429D02*
X224682957Y-74095429D01*
X224755529Y-74131714D01*
X224791814Y-74204286D01*
X224791814Y-74276857D01*
X224791814Y-74530858D02*
X224029814Y-74530858D01*
X224791814Y-74857429D02*
X224392671Y-74857429D01*
X224320100Y-74821143D01*
X224283814Y-74748572D01*
X224283814Y-74639715D01*
X224320100Y-74567143D01*
X224356386Y-74530858D01*
X224428957Y-75692001D02*
X224392671Y-75655715D01*
X224356386Y-75583144D01*
X224356386Y-75510572D01*
X224392671Y-75438001D01*
X224428957Y-75401715D01*
X224501529Y-75365429D01*
X224574100Y-75365429D01*
X224646671Y-75401715D01*
X224682957Y-75438001D01*
X224719243Y-75510572D01*
X224719243Y-75583144D01*
X224682957Y-75655715D01*
X224646671Y-75692001D01*
X224356386Y-75692001D02*
X224646671Y-75692001D01*
X224682957Y-75728287D01*
X224682957Y-75764572D01*
X224646671Y-75837144D01*
X224574100Y-75873429D01*
X224392671Y-75873429D01*
X224283814Y-75800858D01*
X224211243Y-75692001D01*
X224174957Y-75546858D01*
X224211243Y-75401715D01*
X224283814Y-75292858D01*
X224392671Y-75220287D01*
X224537814Y-75184001D01*
X224682957Y-75220287D01*
X224791814Y-75292858D01*
X224864386Y-75401715D01*
X224900671Y-75546858D01*
X224864386Y-75692001D01*
X224791814Y-75800858D01*
X224283814Y-76526572D02*
X224900671Y-76526572D01*
X224973243Y-76490286D01*
X225009529Y-76454001D01*
X225045814Y-76381429D01*
X225045814Y-76272572D01*
X225009529Y-76200001D01*
X224755529Y-76526572D02*
X224791814Y-76454001D01*
X224791814Y-76308858D01*
X224755529Y-76236286D01*
X224719243Y-76200001D01*
X224646671Y-76163715D01*
X224428957Y-76163715D01*
X224356386Y-76200001D01*
X224320100Y-76236286D01*
X224283814Y-76308858D01*
X224283814Y-76454001D01*
X224320100Y-76526572D01*
X224791814Y-76889430D02*
X224283814Y-76889430D01*
X224356386Y-76889430D02*
X224320100Y-76925715D01*
X224283814Y-76998287D01*
X224283814Y-77107144D01*
X224320100Y-77179715D01*
X224392671Y-77216001D01*
X224791814Y-77216001D01*
X224392671Y-77216001D02*
X224320100Y-77252287D01*
X224283814Y-77324858D01*
X224283814Y-77433715D01*
X224320100Y-77506287D01*
X224392671Y-77542572D01*
X224791814Y-77542572D01*
X224791814Y-78232001D02*
X224392671Y-78232001D01*
X224320100Y-78195715D01*
X224283814Y-78123144D01*
X224283814Y-77978001D01*
X224320100Y-77905430D01*
X224755529Y-78232001D02*
X224791814Y-78159430D01*
X224791814Y-77978001D01*
X224755529Y-77905430D01*
X224682957Y-77869144D01*
X224610386Y-77869144D01*
X224537814Y-77905430D01*
X224501529Y-77978001D01*
X224501529Y-78159430D01*
X224465243Y-78232001D01*
X224791814Y-78594859D02*
X224283814Y-78594859D01*
X224029814Y-78594859D02*
X224066100Y-78558573D01*
X224102386Y-78594859D01*
X224066100Y-78631144D01*
X224029814Y-78594859D01*
X224102386Y-78594859D01*
X224791814Y-79066573D02*
X224755529Y-78994001D01*
X224682957Y-78957716D01*
X224029814Y-78957716D01*
X224719243Y-79356859D02*
X224755529Y-79393144D01*
X224791814Y-79356859D01*
X224755529Y-79320573D01*
X224719243Y-79356859D01*
X224791814Y-79356859D01*
X224755529Y-80046287D02*
X224791814Y-79973716D01*
X224791814Y-79828573D01*
X224755529Y-79756001D01*
X224719243Y-79719716D01*
X224646671Y-79683430D01*
X224428957Y-79683430D01*
X224356386Y-79719716D01*
X224320100Y-79756001D01*
X224283814Y-79828573D01*
X224283814Y-79973716D01*
X224320100Y-80046287D01*
X224791814Y-80481716D02*
X224755529Y-80409144D01*
X224719243Y-80372859D01*
X224646671Y-80336573D01*
X224428957Y-80336573D01*
X224356386Y-80372859D01*
X224320100Y-80409144D01*
X224283814Y-80481716D01*
X224283814Y-80590573D01*
X224320100Y-80663144D01*
X224356386Y-80699430D01*
X224428957Y-80735716D01*
X224646671Y-80735716D01*
X224719243Y-80699430D01*
X224755529Y-80663144D01*
X224791814Y-80590573D01*
X224791814Y-80481716D01*
X224791814Y-81062288D02*
X224283814Y-81062288D01*
X224356386Y-81062288D02*
X224320100Y-81098573D01*
X224283814Y-81171145D01*
X224283814Y-81280002D01*
X224320100Y-81352573D01*
X224392671Y-81388859D01*
X224791814Y-81388859D01*
X224392671Y-81388859D02*
X224320100Y-81425145D01*
X224283814Y-81497716D01*
X224283814Y-81606573D01*
X224320100Y-81679145D01*
X224392671Y-81715430D01*
X224791814Y-81715430D01*
X224283814Y-82078288D02*
X224501529Y-82658859D01*
X224719243Y-82078288D01*
X225913043Y-66475429D02*
X225949329Y-66439143D01*
X225985614Y-66330286D01*
X225985614Y-66257715D01*
X225949329Y-66148858D01*
X225876757Y-66076286D01*
X225804186Y-66040001D01*
X225659043Y-66003715D01*
X225550186Y-66003715D01*
X225405043Y-66040001D01*
X225332471Y-66076286D01*
X225259900Y-66148858D01*
X225223614Y-66257715D01*
X225223614Y-66330286D01*
X225259900Y-66439143D01*
X225296186Y-66475429D01*
X225985614Y-66910858D02*
X225949329Y-66838286D01*
X225913043Y-66802001D01*
X225840471Y-66765715D01*
X225622757Y-66765715D01*
X225550186Y-66802001D01*
X225513900Y-66838286D01*
X225477614Y-66910858D01*
X225477614Y-67019715D01*
X225513900Y-67092286D01*
X225550186Y-67128572D01*
X225622757Y-67164858D01*
X225840471Y-67164858D01*
X225913043Y-67128572D01*
X225949329Y-67092286D01*
X225985614Y-67019715D01*
X225985614Y-66910858D01*
X225477614Y-67491430D02*
X226239614Y-67491430D01*
X225513900Y-67491430D02*
X225477614Y-67564001D01*
X225477614Y-67709144D01*
X225513900Y-67781715D01*
X225550186Y-67818001D01*
X225622757Y-67854287D01*
X225840471Y-67854287D01*
X225913043Y-67818001D01*
X225949329Y-67781715D01*
X225985614Y-67709144D01*
X225985614Y-67564001D01*
X225949329Y-67491430D01*
X225477614Y-68072001D02*
X225477614Y-68362287D01*
X225223614Y-68180859D02*
X225876757Y-68180859D01*
X225949329Y-68217144D01*
X225985614Y-68289716D01*
X225985614Y-68362287D01*
X225949329Y-68906573D02*
X225985614Y-68834002D01*
X225985614Y-68688859D01*
X225949329Y-68616288D01*
X225876757Y-68580002D01*
X225586471Y-68580002D01*
X225513900Y-68616288D01*
X225477614Y-68688859D01*
X225477614Y-68834002D01*
X225513900Y-68906573D01*
X225586471Y-68942859D01*
X225659043Y-68942859D01*
X225731614Y-68580002D01*
X225985614Y-69196859D02*
X225477614Y-69596002D01*
X225477614Y-69196859D02*
X225985614Y-69596002D01*
X225985614Y-70466859D02*
X225223614Y-70466859D01*
X225223614Y-70757144D01*
X225259900Y-70829716D01*
X225296186Y-70866001D01*
X225368757Y-70902287D01*
X225477614Y-70902287D01*
X225550186Y-70866001D01*
X225586471Y-70829716D01*
X225622757Y-70757144D01*
X225622757Y-70466859D01*
X225985614Y-71228859D02*
X225477614Y-71228859D01*
X225622757Y-71228859D02*
X225550186Y-71265144D01*
X225513900Y-71301430D01*
X225477614Y-71374001D01*
X225477614Y-71446573D01*
X225985614Y-71809430D02*
X225949329Y-71736858D01*
X225913043Y-71700573D01*
X225840471Y-71664287D01*
X225622757Y-71664287D01*
X225550186Y-71700573D01*
X225513900Y-71736858D01*
X225477614Y-71809430D01*
X225477614Y-71918287D01*
X225513900Y-71990858D01*
X225550186Y-72027144D01*
X225622757Y-72063430D01*
X225840471Y-72063430D01*
X225913043Y-72027144D01*
X225949329Y-71990858D01*
X225985614Y-71918287D01*
X225985614Y-71809430D01*
X225477614Y-72390002D02*
X226130757Y-72390002D01*
X226203329Y-72353716D01*
X226239614Y-72281144D01*
X226239614Y-72244859D01*
X225223614Y-72390002D02*
X225259900Y-72353716D01*
X225296186Y-72390002D01*
X225259900Y-72426287D01*
X225223614Y-72390002D01*
X225296186Y-72390002D01*
X225949329Y-73043144D02*
X225985614Y-72970573D01*
X225985614Y-72825430D01*
X225949329Y-72752859D01*
X225876757Y-72716573D01*
X225586471Y-72716573D01*
X225513900Y-72752859D01*
X225477614Y-72825430D01*
X225477614Y-72970573D01*
X225513900Y-73043144D01*
X225586471Y-73079430D01*
X225659043Y-73079430D01*
X225731614Y-72716573D01*
X225949329Y-73732573D02*
X225985614Y-73660002D01*
X225985614Y-73514859D01*
X225949329Y-73442287D01*
X225913043Y-73406002D01*
X225840471Y-73369716D01*
X225622757Y-73369716D01*
X225550186Y-73406002D01*
X225513900Y-73442287D01*
X225477614Y-73514859D01*
X225477614Y-73660002D01*
X225513900Y-73732573D01*
X225477614Y-73950287D02*
X225477614Y-74240573D01*
X225223614Y-74059145D02*
X225876757Y-74059145D01*
X225949329Y-74095430D01*
X225985614Y-74168002D01*
X225985614Y-74240573D01*
X226275900Y-75292859D02*
X226239614Y-75256573D01*
X226130757Y-75184002D01*
X226058186Y-75147716D01*
X225949329Y-75111430D01*
X225767900Y-75075145D01*
X225622757Y-75075145D01*
X225441329Y-75111430D01*
X225332471Y-75147716D01*
X225259900Y-75184002D01*
X225151043Y-75256573D01*
X225114757Y-75292859D01*
X225913043Y-76018573D02*
X225949329Y-75982287D01*
X225985614Y-75873430D01*
X225985614Y-75800859D01*
X225949329Y-75692002D01*
X225876757Y-75619430D01*
X225804186Y-75583145D01*
X225659043Y-75546859D01*
X225550186Y-75546859D01*
X225405043Y-75583145D01*
X225332471Y-75619430D01*
X225259900Y-75692002D01*
X225223614Y-75800859D01*
X225223614Y-75873430D01*
X225259900Y-75982287D01*
X225296186Y-76018573D01*
X226275900Y-76272573D02*
X226239614Y-76308859D01*
X226130757Y-76381430D01*
X226058186Y-76417716D01*
X225949329Y-76454002D01*
X225767900Y-76490287D01*
X225622757Y-76490287D01*
X225441329Y-76454002D01*
X225332471Y-76417716D01*
X225259900Y-76381430D01*
X225151043Y-76308859D01*
X225114757Y-76272573D01*
X225296186Y-77397430D02*
X225259900Y-77433716D01*
X225223614Y-77506287D01*
X225223614Y-77687716D01*
X225259900Y-77760287D01*
X225296186Y-77796573D01*
X225368757Y-77832858D01*
X225441329Y-77832858D01*
X225550186Y-77796573D01*
X225985614Y-77361144D01*
X225985614Y-77832858D01*
X225223614Y-78304572D02*
X225223614Y-78377144D01*
X225259900Y-78449715D01*
X225296186Y-78486001D01*
X225368757Y-78522287D01*
X225513900Y-78558572D01*
X225695329Y-78558572D01*
X225840471Y-78522287D01*
X225913043Y-78486001D01*
X225949329Y-78449715D01*
X225985614Y-78377144D01*
X225985614Y-78304572D01*
X225949329Y-78232001D01*
X225913043Y-78195715D01*
X225840471Y-78159430D01*
X225695329Y-78123144D01*
X225513900Y-78123144D01*
X225368757Y-78159430D01*
X225296186Y-78195715D01*
X225259900Y-78232001D01*
X225223614Y-78304572D01*
X225985614Y-79284286D02*
X225985614Y-78848858D01*
X225985614Y-79066572D02*
X225223614Y-79066572D01*
X225332471Y-78994001D01*
X225405043Y-78921429D01*
X225441329Y-78848858D01*
X225223614Y-79538286D02*
X225223614Y-80010000D01*
X225513900Y-79756000D01*
X225513900Y-79864858D01*
X225550186Y-79937429D01*
X225586471Y-79973715D01*
X225659043Y-80010000D01*
X225840471Y-80010000D01*
X225913043Y-79973715D01*
X225949329Y-79937429D01*
X225985614Y-79864858D01*
X225985614Y-79647143D01*
X225949329Y-79574572D01*
X225913043Y-79538286D01*
X225695329Y-80336572D02*
X225695329Y-80917143D01*
X225296186Y-81243715D02*
X225259900Y-81280001D01*
X225223614Y-81352572D01*
X225223614Y-81534001D01*
X225259900Y-81606572D01*
X225296186Y-81642858D01*
X225368757Y-81679143D01*
X225441329Y-81679143D01*
X225550186Y-81642858D01*
X225985614Y-81207429D01*
X225985614Y-81679143D01*
X225223614Y-82150857D02*
X225223614Y-82223429D01*
X225259900Y-82296000D01*
X225296186Y-82332286D01*
X225368757Y-82368572D01*
X225513900Y-82404857D01*
X225695329Y-82404857D01*
X225840471Y-82368572D01*
X225913043Y-82332286D01*
X225949329Y-82296000D01*
X225985614Y-82223429D01*
X225985614Y-82150857D01*
X225949329Y-82078286D01*
X225913043Y-82042000D01*
X225840471Y-82005715D01*
X225695329Y-81969429D01*
X225513900Y-81969429D01*
X225368757Y-82005715D01*
X225296186Y-82042000D01*
X225259900Y-82078286D01*
X225223614Y-82150857D01*
X225985614Y-83130571D02*
X225985614Y-82695143D01*
X225985614Y-82912857D02*
X225223614Y-82912857D01*
X225332471Y-82840286D01*
X225405043Y-82767714D01*
X225441329Y-82695143D01*
X225223614Y-83820000D02*
X225223614Y-83457143D01*
X225586471Y-83420857D01*
X225550186Y-83457143D01*
X225513900Y-83529714D01*
X225513900Y-83711143D01*
X225550186Y-83783714D01*
X225586471Y-83820000D01*
X225659043Y-83856285D01*
X225840471Y-83856285D01*
X225913043Y-83820000D01*
X225949329Y-83783714D01*
X225985614Y-83711143D01*
X225985614Y-83529714D01*
X225949329Y-83457143D01*
X225913043Y-83420857D01*
X226417414Y-69378286D02*
X226562557Y-69378286D01*
X226417414Y-69668572D02*
X226562557Y-69668572D01*
X226417414Y-69922571D02*
X227179414Y-70430571D01*
X226417414Y-70430571D02*
X227179414Y-69922571D01*
X226417414Y-70720857D02*
X227034271Y-70720857D01*
X227106843Y-70757142D01*
X227143129Y-70793428D01*
X227179414Y-70865999D01*
X227179414Y-71011142D01*
X227143129Y-71083714D01*
X227106843Y-71119999D01*
X227034271Y-71156285D01*
X226417414Y-71156285D01*
X226417414Y-71555428D02*
X226562557Y-71482857D01*
X227143129Y-71845714D02*
X227179414Y-71918285D01*
X227179414Y-72063428D01*
X227143129Y-72136000D01*
X227070557Y-72172285D01*
X227034271Y-72172285D01*
X226961700Y-72136000D01*
X226925414Y-72063428D01*
X226925414Y-71954571D01*
X226889129Y-71882000D01*
X226816557Y-71845714D01*
X226780271Y-71845714D01*
X226707700Y-71882000D01*
X226671414Y-71954571D01*
X226671414Y-72063428D01*
X226707700Y-72136000D01*
X227179414Y-73442285D02*
X227179414Y-73079428D01*
X226417414Y-73079428D01*
X227179414Y-73696285D02*
X226671414Y-73696285D01*
X226417414Y-73696285D02*
X226453700Y-73659999D01*
X226489986Y-73696285D01*
X226453700Y-73732570D01*
X226417414Y-73696285D01*
X226489986Y-73696285D01*
X226671414Y-73950284D02*
X226671414Y-74240570D01*
X226417414Y-74059142D02*
X227070557Y-74059142D01*
X227143129Y-74095427D01*
X227179414Y-74167999D01*
X227179414Y-74240570D01*
X226671414Y-74385713D02*
X226671414Y-74675999D01*
X226417414Y-74494571D02*
X227070557Y-74494571D01*
X227143129Y-74530856D01*
X227179414Y-74603428D01*
X227179414Y-74675999D01*
X227179414Y-75038857D02*
X227143129Y-74966285D01*
X227070557Y-74930000D01*
X226417414Y-74930000D01*
X227143129Y-75619428D02*
X227179414Y-75546857D01*
X227179414Y-75401714D01*
X227143129Y-75329143D01*
X227070557Y-75292857D01*
X226780271Y-75292857D01*
X226707700Y-75329143D01*
X226671414Y-75401714D01*
X226671414Y-75546857D01*
X226707700Y-75619428D01*
X226780271Y-75655714D01*
X226852843Y-75655714D01*
X226925414Y-75292857D01*
X227179414Y-76562857D02*
X226417414Y-76562857D01*
X226780271Y-76562857D02*
X226780271Y-76998285D01*
X227179414Y-76998285D02*
X226417414Y-76998285D01*
X227143129Y-77651428D02*
X227179414Y-77578857D01*
X227179414Y-77433714D01*
X227143129Y-77361143D01*
X227070557Y-77324857D01*
X226780271Y-77324857D01*
X226707700Y-77361143D01*
X226671414Y-77433714D01*
X226671414Y-77578857D01*
X226707700Y-77651428D01*
X226780271Y-77687714D01*
X226852843Y-77687714D01*
X226925414Y-77324857D01*
X227179414Y-78123143D02*
X227143129Y-78050571D01*
X227070557Y-78014286D01*
X226417414Y-78014286D01*
X226671414Y-78413429D02*
X227433414Y-78413429D01*
X226707700Y-78413429D02*
X226671414Y-78486000D01*
X226671414Y-78631143D01*
X226707700Y-78703714D01*
X226743986Y-78740000D01*
X226816557Y-78776286D01*
X227034271Y-78776286D01*
X227106843Y-78740000D01*
X227143129Y-78703714D01*
X227179414Y-78631143D01*
X227179414Y-78486000D01*
X227143129Y-78413429D01*
X227143129Y-79393143D02*
X227179414Y-79320572D01*
X227179414Y-79175429D01*
X227143129Y-79102858D01*
X227070557Y-79066572D01*
X226780271Y-79066572D01*
X226707700Y-79102858D01*
X226671414Y-79175429D01*
X226671414Y-79320572D01*
X226707700Y-79393143D01*
X226780271Y-79429429D01*
X226852843Y-79429429D01*
X226925414Y-79066572D01*
X227179414Y-79756001D02*
X226671414Y-79756001D01*
X226816557Y-79756001D02*
X226743986Y-79792286D01*
X226707700Y-79828572D01*
X226671414Y-79901143D01*
X226671414Y-79973715D01*
X226417414Y-80191429D02*
X226562557Y-80191429D01*
X226417414Y-80481715D02*
X226562557Y-80481715D01*
D12*
G36*
X222671640Y-78234540D02*
X222674180Y-78292960D01*
X222674180Y-78303120D01*
X222671640Y-78361540D01*
X222658940Y-78356460D01*
X222656400Y-78348840D01*
X222648780Y-78267560D01*
X222656400Y-78234540D01*
X222671640Y-78234540D01*
X222671640Y-78234540D01*
X222671640Y-78234540D01*
G37*
X222671640Y-78234540D02*
X222674180Y-78292960D01*
X222674180Y-78303120D01*
X222671640Y-78361540D01*
X222658940Y-78356460D01*
X222656400Y-78348840D01*
X222648780Y-78267560D01*
X222656400Y-78234540D01*
X222671640Y-78234540D01*
X222671640Y-78234540D01*
G36*
X222664020Y-77673200D02*
X222681800Y-77693520D01*
X222664020Y-77711300D01*
X222646240Y-77693520D01*
X222664020Y-77673200D01*
X222664020Y-77673200D01*
X222664020Y-77673200D01*
G37*
X222664020Y-77673200D02*
X222681800Y-77693520D01*
X222664020Y-77711300D01*
X222646240Y-77693520D01*
X222664020Y-77673200D01*
X222664020Y-77673200D01*
G36*
X222656400Y-76161900D02*
X222679260Y-76169520D01*
X222681800Y-76187300D01*
X222669100Y-76220320D01*
X222656400Y-76212700D01*
X222651320Y-76169520D01*
X222656400Y-76161900D01*
X222656400Y-76161900D01*
X222656400Y-76161900D01*
G37*
X222656400Y-76161900D02*
X222679260Y-76169520D01*
X222681800Y-76187300D01*
X222669100Y-76220320D01*
X222656400Y-76212700D01*
X222651320Y-76169520D01*
X222656400Y-76161900D01*
X222656400Y-76161900D01*
G36*
X222658940Y-75552300D02*
X222676720Y-75559920D01*
X222679260Y-75600560D01*
X222671640Y-75641200D01*
X222656400Y-75623420D01*
X222651320Y-75562460D01*
X222658940Y-75552300D01*
X222658940Y-75552300D01*
X222658940Y-75552300D01*
G37*
X222658940Y-75552300D02*
X222676720Y-75559920D01*
X222679260Y-75600560D01*
X222671640Y-75641200D01*
X222656400Y-75623420D01*
X222651320Y-75562460D01*
X222658940Y-75552300D01*
X222658940Y-75552300D01*
G36*
X222658940Y-74980800D02*
X222676720Y-74988420D01*
X222679260Y-75029060D01*
X222671640Y-75069700D01*
X222656400Y-75051920D01*
X222651320Y-74990960D01*
X222658940Y-74980800D01*
X222658940Y-74980800D01*
X222658940Y-74980800D01*
G37*
X222658940Y-74980800D02*
X222676720Y-74988420D01*
X222679260Y-75029060D01*
X222671640Y-75069700D01*
X222656400Y-75051920D01*
X222651320Y-74990960D01*
X222658940Y-74980800D01*
X222658940Y-74980800D01*
G36*
X222671640Y-74381360D02*
X222676720Y-74434700D01*
X222671640Y-74488040D01*
X222656400Y-74482960D01*
X222651320Y-74404220D01*
X222656400Y-74386440D01*
X222671640Y-74381360D01*
X222671640Y-74381360D01*
X222671640Y-74381360D01*
G37*
X222671640Y-74381360D02*
X222676720Y-74434700D01*
X222671640Y-74488040D01*
X222656400Y-74482960D01*
X222651320Y-74404220D01*
X222656400Y-74386440D01*
X222671640Y-74381360D01*
X222671640Y-74381360D01*
G36*
X222658940Y-73797160D02*
X222676720Y-73807320D01*
X222679260Y-73845420D01*
X222671640Y-73888600D01*
X222656400Y-73868280D01*
X222651320Y-73809860D01*
X222658940Y-73797160D01*
X222658940Y-73797160D01*
X222658940Y-73797160D01*
G37*
X222658940Y-73797160D02*
X222676720Y-73807320D01*
X222679260Y-73845420D01*
X222671640Y-73888600D01*
X222656400Y-73868280D01*
X222651320Y-73809860D01*
X222658940Y-73797160D01*
X222658940Y-73797160D01*
G36*
X222656400Y-73225660D02*
X222679260Y-73233280D01*
X222681800Y-73251060D01*
X222669100Y-73284080D01*
X222656400Y-73279000D01*
X222651320Y-73233280D01*
X222656400Y-73225660D01*
X222656400Y-73225660D01*
X222656400Y-73225660D01*
G37*
X222656400Y-73225660D02*
X222679260Y-73233280D01*
X222681800Y-73251060D01*
X222669100Y-73284080D01*
X222656400Y-73279000D01*
X222651320Y-73233280D01*
X222656400Y-73225660D01*
X222656400Y-73225660D01*
G36*
X222658940Y-72616060D02*
X222676720Y-72628760D01*
X222679260Y-72666860D01*
X222671640Y-72704960D01*
X222656400Y-72689720D01*
X222651320Y-72631300D01*
X222658940Y-72616060D01*
X222658940Y-72616060D01*
X222658940Y-72616060D01*
G37*
X222658940Y-72616060D02*
X222676720Y-72628760D01*
X222679260Y-72666860D01*
X222671640Y-72704960D01*
X222656400Y-72689720D01*
X222651320Y-72631300D01*
X222658940Y-72616060D01*
X222658940Y-72616060D01*
G36*
X215656160Y-69151500D02*
X215742520Y-69164200D01*
X215780620Y-69192140D01*
X215795860Y-69215000D01*
X215691720Y-69215000D01*
X215638380Y-69245480D01*
X215633300Y-69270880D01*
X215663780Y-69321680D01*
X215691720Y-69329300D01*
X215742520Y-69296280D01*
X215747600Y-69270880D01*
X215717120Y-69222620D01*
X215691720Y-69215000D01*
X215795860Y-69215000D01*
X215818720Y-69242940D01*
X215816180Y-69291200D01*
X215775540Y-69369940D01*
X215729820Y-69499480D01*
X215709500Y-69659500D01*
X215709500Y-69682360D01*
X215712040Y-69771260D01*
X215722200Y-69839840D01*
X215752680Y-69903340D01*
X215811100Y-69979540D01*
X215910160Y-70081140D01*
X216011760Y-70185280D01*
X216314020Y-70490080D01*
X216336880Y-70985380D01*
X216352120Y-71310500D01*
X216367360Y-71564500D01*
X216382600Y-71755000D01*
X216402920Y-71882000D01*
X216420700Y-71955660D01*
X216435940Y-71978520D01*
X216463880Y-72029320D01*
X216471500Y-72092820D01*
X216489280Y-72166480D01*
X216522300Y-72186800D01*
X216560400Y-72151240D01*
X216590880Y-72044560D01*
X216618820Y-71879460D01*
X216641680Y-71666100D01*
X216656920Y-71407020D01*
X216664540Y-71112380D01*
X216664540Y-71076820D01*
X216669620Y-70553580D01*
X216799160Y-70431660D01*
X216875360Y-70345300D01*
X216913460Y-70271640D01*
X216928700Y-70164960D01*
X216928700Y-70093840D01*
X216931240Y-69974460D01*
X216946480Y-69926200D01*
X216966800Y-69936360D01*
X216989660Y-70010020D01*
X217002360Y-70121780D01*
X217002360Y-70170040D01*
X216992200Y-70299580D01*
X216951560Y-70388480D01*
X216908380Y-70434200D01*
X216870280Y-70472300D01*
X216844880Y-70512940D01*
X216829640Y-70573900D01*
X216816940Y-70660260D01*
X216816940Y-70794880D01*
X216814400Y-70985380D01*
X216814400Y-71059040D01*
X216816940Y-71379080D01*
X216834720Y-71653400D01*
X216857580Y-71876920D01*
X216885520Y-72047100D01*
X216926160Y-72151240D01*
X216969340Y-72186800D01*
X217022680Y-72163940D01*
X217030300Y-72138540D01*
X217037920Y-72049640D01*
X217060780Y-71922640D01*
X217091260Y-71800720D01*
X217119200Y-71719440D01*
X217134440Y-71661020D01*
X217144600Y-71539100D01*
X217152220Y-71374000D01*
X217157300Y-71173340D01*
X217157300Y-71069200D01*
X217157300Y-70848220D01*
X217159840Y-70688200D01*
X217164920Y-70576440D01*
X217180160Y-70505320D01*
X217197940Y-70457060D01*
X217228420Y-70418960D01*
X217251280Y-70396100D01*
X217319860Y-70309740D01*
X217345260Y-70200520D01*
X217345260Y-70139560D01*
X217335100Y-70022720D01*
X217304620Y-69933820D01*
X217294460Y-69916040D01*
X217256360Y-69837300D01*
X217276680Y-69750940D01*
X217347800Y-69689980D01*
X217352880Y-69687440D01*
X217446860Y-69689980D01*
X217510360Y-69743320D01*
X217515440Y-69761100D01*
X217363040Y-69761100D01*
X217322400Y-69799200D01*
X217327480Y-69855080D01*
X217337640Y-69865240D01*
X217396060Y-69888100D01*
X217451940Y-69860160D01*
X217462100Y-69822060D01*
X217436700Y-69773800D01*
X217418920Y-69766180D01*
X217363040Y-69761100D01*
X217515440Y-69761100D01*
X217535760Y-69822060D01*
X217510360Y-69908420D01*
X217482420Y-69936360D01*
X217439240Y-70017640D01*
X217424000Y-70159880D01*
X217424000Y-70180200D01*
X217411300Y-70319900D01*
X217373200Y-70416420D01*
X217337640Y-70462140D01*
X217302080Y-70505320D01*
X217279220Y-70551040D01*
X217266520Y-70617080D01*
X217258900Y-70716140D01*
X217258900Y-70866000D01*
X217263980Y-71053960D01*
X217274140Y-71391780D01*
X217286840Y-71653400D01*
X217307160Y-71838820D01*
X217332560Y-71948040D01*
X217350340Y-71978520D01*
X217378280Y-72029320D01*
X217385900Y-72092820D01*
X217398600Y-72163940D01*
X217424000Y-72186800D01*
X217454480Y-72153780D01*
X217462100Y-72092820D01*
X217474800Y-72014080D01*
X217497660Y-71978520D01*
X217523060Y-71930260D01*
X217545920Y-71818500D01*
X217563700Y-71638160D01*
X217581480Y-71386700D01*
X217596720Y-71061580D01*
X217596720Y-71023480D01*
X217619580Y-70490080D01*
X218094560Y-70040500D01*
X218277440Y-69862700D01*
X218406980Y-69728080D01*
X218495880Y-69629020D01*
X218546680Y-69555360D01*
X218567000Y-69499480D01*
X218569540Y-69486780D01*
X218574620Y-69423280D01*
X218594940Y-69428360D01*
X218605100Y-69443600D01*
X218638120Y-69522340D01*
X218643200Y-69552820D01*
X218617800Y-69596000D01*
X218546680Y-69684900D01*
X218440000Y-69804280D01*
X218305380Y-69951600D01*
X218183460Y-70073520D01*
X217723720Y-70540880D01*
X217728800Y-71104760D01*
X217733880Y-71323200D01*
X217741500Y-71526400D01*
X217756740Y-71696580D01*
X217769440Y-71818500D01*
X217774520Y-71843900D01*
X217799920Y-71968360D01*
X217815160Y-72075040D01*
X217820240Y-72100440D01*
X217848180Y-72171560D01*
X217886280Y-72186800D01*
X217924380Y-72148700D01*
X217962480Y-72036940D01*
X217992960Y-71851520D01*
X218023440Y-71592440D01*
X218046300Y-71264780D01*
X218056460Y-71053960D01*
X218081860Y-70515480D01*
X218305380Y-70297040D01*
X218409520Y-70197980D01*
X218493340Y-70126860D01*
X218541600Y-70093840D01*
X218546680Y-70093840D01*
X218533980Y-70131940D01*
X218478100Y-70208140D01*
X218394280Y-70309740D01*
X218373960Y-70332600D01*
X218178380Y-70551040D01*
X218191080Y-71234300D01*
X218201240Y-71513700D01*
X218211400Y-71724520D01*
X218226640Y-71866760D01*
X218244420Y-71945500D01*
X218254580Y-71965820D01*
X218292680Y-72036940D01*
X218302840Y-72097900D01*
X218315540Y-72166480D01*
X218338400Y-72186800D01*
X218368880Y-72153780D01*
X218376500Y-72092820D01*
X218391740Y-72014080D01*
X218417140Y-71975980D01*
X218442540Y-71925180D01*
X218452700Y-71843900D01*
X218465400Y-71757540D01*
X218490800Y-71709280D01*
X218506040Y-71663560D01*
X218516200Y-71551800D01*
X218526360Y-71381620D01*
X218531440Y-71165720D01*
X218531440Y-71089520D01*
X218531440Y-70490080D01*
X218851480Y-70195440D01*
X218981020Y-70078600D01*
X219087700Y-69982080D01*
X219166440Y-69921120D01*
X219196920Y-69900800D01*
X219184220Y-69926200D01*
X219128340Y-69997320D01*
X219036900Y-70104000D01*
X218920060Y-70231000D01*
X218912440Y-70241160D01*
X218600020Y-70584060D01*
X218610180Y-71109840D01*
X218615260Y-71307960D01*
X218625420Y-71488300D01*
X218635580Y-71630540D01*
X218648280Y-71716900D01*
X218648280Y-71729600D01*
X218676220Y-71823580D01*
X218714320Y-71950580D01*
X218727020Y-72006460D01*
X218762580Y-72108060D01*
X218803220Y-72174100D01*
X218821000Y-72186800D01*
X218848940Y-72156320D01*
X218846400Y-72108060D01*
X218851480Y-72019160D01*
X218874340Y-71975980D01*
X218897200Y-71912480D01*
X218914980Y-71777860D01*
X218930220Y-71572120D01*
X218945460Y-71287640D01*
X218948000Y-71231760D01*
X218973400Y-70543420D01*
X219130880Y-70385940D01*
X219235020Y-70291960D01*
X219290900Y-70251320D01*
X219303600Y-70264020D01*
X219265500Y-70324980D01*
X219194380Y-70411340D01*
X219062300Y-70556120D01*
X219082620Y-71038720D01*
X219102940Y-71386700D01*
X219125800Y-71678800D01*
X219151200Y-71907400D01*
X219184220Y-72069960D01*
X219219780Y-72163940D01*
X219250260Y-72186800D01*
X219301060Y-72151240D01*
X219316300Y-72100440D01*
X219331540Y-72011540D01*
X219354400Y-71887080D01*
X219362020Y-71843900D01*
X219384880Y-71704200D01*
X219402660Y-71536560D01*
X219402660Y-71442580D01*
X219410280Y-71274940D01*
X219420440Y-71081900D01*
X219430600Y-70957440D01*
X219453460Y-70700900D01*
X219826840Y-70700900D01*
X220197680Y-70700900D01*
X220431360Y-70485000D01*
X220568520Y-70350380D01*
X220642180Y-70248780D01*
X220662500Y-70180200D01*
X220685360Y-70098920D01*
X220726000Y-70065900D01*
X220817440Y-70063360D01*
X220886020Y-70119240D01*
X220888560Y-70129400D01*
X220797120Y-70129400D01*
X220746320Y-70159880D01*
X220738700Y-70185280D01*
X220771720Y-70236080D01*
X220797120Y-70243700D01*
X220845380Y-70210680D01*
X220853000Y-70185280D01*
X220822520Y-70137020D01*
X220797120Y-70129400D01*
X220888560Y-70129400D01*
X220911420Y-70208140D01*
X220888560Y-70281800D01*
X220817440Y-70312280D01*
X220743780Y-70345300D01*
X220637100Y-70421500D01*
X220512640Y-70528180D01*
X220484700Y-70556120D01*
X220248480Y-70787260D01*
X219933520Y-70779640D01*
X219781120Y-70782180D01*
X219654120Y-70789800D01*
X219575380Y-70802500D01*
X219562680Y-70810120D01*
X219539820Y-70863460D01*
X219529660Y-70975220D01*
X219529660Y-71127620D01*
X219539820Y-71310500D01*
X219557600Y-71508620D01*
X219580460Y-71704200D01*
X219608400Y-71884540D01*
X219641420Y-72034400D01*
X219676980Y-72138540D01*
X219710000Y-72184260D01*
X219715080Y-72186800D01*
X219743020Y-72153780D01*
X219748100Y-72100440D01*
X219768420Y-72011540D01*
X219791280Y-71968360D01*
X219809060Y-71917560D01*
X219826840Y-71800720D01*
X219842080Y-71635620D01*
X219857320Y-71437500D01*
X219859860Y-71399400D01*
X219882720Y-70871080D01*
X220347540Y-70886320D01*
X220817440Y-70899020D01*
X221025720Y-70721220D01*
X221145100Y-70622160D01*
X221211140Y-70578980D01*
X221223840Y-70589140D01*
X221183200Y-70650100D01*
X221086680Y-70761860D01*
X221056200Y-70794880D01*
X220880940Y-70985380D01*
X220449140Y-70998080D01*
X220017340Y-71010780D01*
X220019880Y-71340980D01*
X220022420Y-71518780D01*
X220035120Y-71691500D01*
X220050360Y-71823580D01*
X220052900Y-71843900D01*
X220075760Y-71965820D01*
X220093540Y-72067420D01*
X220098620Y-72090280D01*
X220139260Y-72166480D01*
X220179900Y-72194420D01*
X220233240Y-72242680D01*
X220245940Y-72275700D01*
X220276420Y-72321420D01*
X220350080Y-72351900D01*
X220454220Y-72372220D01*
X220586300Y-72402700D01*
X220624400Y-72410320D01*
X220761560Y-72433180D01*
X220929200Y-72448420D01*
X221035880Y-72450960D01*
X221274640Y-72450960D01*
X221274640Y-72077580D01*
X221274640Y-71699120D01*
X221482920Y-71521320D01*
X221584520Y-71440040D01*
X221658180Y-71384160D01*
X221691200Y-71368920D01*
X221691200Y-71371460D01*
X221668340Y-71409560D01*
X221607380Y-71490840D01*
X221523560Y-71594980D01*
X221515940Y-71602600D01*
X221343220Y-71808340D01*
X221355920Y-72176640D01*
X221368620Y-72529700D01*
X219938600Y-72529700D01*
X217652600Y-72529700D01*
X215366600Y-72529700D01*
X215366600Y-74815700D01*
X215366600Y-77101700D01*
X217652600Y-77101700D01*
X219938600Y-77101700D01*
X219938600Y-74815700D01*
X219938600Y-72529700D01*
X221368620Y-72529700D01*
X221368620Y-72547480D01*
X221063820Y-72572880D01*
X220817440Y-72598280D01*
X220639640Y-72628760D01*
X220522800Y-72664320D01*
X220484700Y-72689720D01*
X220411040Y-72712580D01*
X220355160Y-72712580D01*
X220281500Y-72722740D01*
X220253560Y-72748140D01*
X220271340Y-72786240D01*
X220347540Y-72793860D01*
X220444060Y-72811640D01*
X220502480Y-72839580D01*
X220560900Y-72859900D01*
X220687900Y-72880220D01*
X220880940Y-72895460D01*
X221124780Y-72905620D01*
X221371160Y-72918320D01*
X221548960Y-72931020D01*
X221660720Y-72948800D01*
X221714060Y-72969120D01*
X221721680Y-72976740D01*
X221708980Y-72997060D01*
X221648020Y-73014840D01*
X221533720Y-73022460D01*
X221353380Y-73027540D01*
X221305120Y-73027540D01*
X221107000Y-73030080D01*
X220969840Y-73035160D01*
X220880940Y-73040240D01*
X220819980Y-73045320D01*
X220776800Y-73058020D01*
X220738700Y-73070720D01*
X220637100Y-73103740D01*
X220494860Y-73131680D01*
X220360240Y-73149460D01*
X220286580Y-73174860D01*
X220263720Y-73210420D01*
X220294200Y-73256140D01*
X220360240Y-73276460D01*
X220449140Y-73289160D01*
X220578680Y-73312020D01*
X220682820Y-73327260D01*
X220819980Y-73347580D01*
X221005400Y-73365360D01*
X221208600Y-73383140D01*
X221322900Y-73390760D01*
X221485460Y-73403460D01*
X221620080Y-73416160D01*
X221706440Y-73431400D01*
X221731840Y-73441560D01*
X221693740Y-73454260D01*
X221597220Y-73472040D01*
X221452440Y-73484740D01*
X221277180Y-73499980D01*
X221264480Y-73499980D01*
X220969840Y-73522840D01*
X220715840Y-73545700D01*
X220510100Y-73576180D01*
X220360240Y-73611740D01*
X220271340Y-73644760D01*
X220253560Y-73662540D01*
X220271340Y-73700640D01*
X220347540Y-73708260D01*
X220444060Y-73726040D01*
X220502480Y-73753980D01*
X220560900Y-73774300D01*
X220687900Y-73794620D01*
X220880940Y-73809860D01*
X221124780Y-73820020D01*
X221381320Y-73835260D01*
X221561660Y-73847960D01*
X221673420Y-73865740D01*
X221719140Y-73888600D01*
X221719140Y-73888600D01*
X221703900Y-73911460D01*
X221632780Y-73926700D01*
X221503240Y-73936860D01*
X221302580Y-73947020D01*
X221246700Y-73949560D01*
X221046040Y-73957180D01*
X220858080Y-73974960D01*
X220705680Y-73992740D01*
X220606620Y-74010520D01*
X220606620Y-74013060D01*
X220484700Y-74046080D01*
X220378020Y-74068940D01*
X220362780Y-74071480D01*
X220276420Y-74094340D01*
X220253560Y-74129900D01*
X220291660Y-74160380D01*
X220347540Y-74165460D01*
X220444060Y-74183240D01*
X220502480Y-74211180D01*
X220560900Y-74231500D01*
X220687900Y-74251820D01*
X220883480Y-74267060D01*
X221129860Y-74277220D01*
X221355920Y-74289920D01*
X221518480Y-74300080D01*
X221622620Y-74310240D01*
X221683580Y-74325480D01*
X221708980Y-74345800D01*
X221711520Y-74358500D01*
X221696280Y-74386440D01*
X221645480Y-74404220D01*
X221548960Y-74414380D01*
X221388940Y-74422000D01*
X221348300Y-74422000D01*
X221107000Y-74432160D01*
X220870780Y-74449940D01*
X220659960Y-74470260D01*
X220477080Y-74498200D01*
X220339920Y-74526140D01*
X220261180Y-74554080D01*
X220245940Y-74574400D01*
X220276420Y-74612500D01*
X220350080Y-74622660D01*
X220446600Y-74640440D01*
X220502480Y-74668380D01*
X220560900Y-74688700D01*
X220687900Y-74709020D01*
X220880940Y-74724260D01*
X221124780Y-74734420D01*
X221386400Y-74749660D01*
X221569280Y-74762360D01*
X221681040Y-74780140D01*
X221719140Y-74803000D01*
X221701360Y-74823320D01*
X221625160Y-74838560D01*
X221488000Y-74851260D01*
X221282260Y-74861420D01*
X221228920Y-74863960D01*
X220977460Y-74871580D01*
X220792040Y-74884280D01*
X220659960Y-74894440D01*
X220565980Y-74914760D01*
X220499940Y-74935080D01*
X220469460Y-74952860D01*
X220385640Y-74983340D01*
X220342460Y-74988420D01*
X220273880Y-75011280D01*
X220253560Y-75034140D01*
X220271340Y-75072240D01*
X220347540Y-75082400D01*
X220444060Y-75097640D01*
X220502480Y-75128120D01*
X220560900Y-75148440D01*
X220687900Y-75168760D01*
X220880940Y-75184000D01*
X221124780Y-75194160D01*
X221381320Y-75206860D01*
X221561660Y-75222100D01*
X221673420Y-75239880D01*
X221719140Y-75260200D01*
X221719140Y-75262740D01*
X221703900Y-75283060D01*
X221632780Y-75300840D01*
X221500700Y-75311000D01*
X221300040Y-75323700D01*
X221246700Y-75326240D01*
X220972380Y-75338940D01*
X220728540Y-75361800D01*
X220522800Y-75389740D01*
X220367860Y-75422760D01*
X220271340Y-75458320D01*
X220245940Y-75491340D01*
X220276420Y-75531980D01*
X220322140Y-75539600D01*
X220418660Y-75559920D01*
X220484700Y-75585320D01*
X220553280Y-75605640D01*
X220682820Y-75620880D01*
X220858080Y-75636120D01*
X221066360Y-75651360D01*
X221137480Y-75651360D01*
X221388940Y-75664060D01*
X221569280Y-75679300D01*
X221678500Y-75697080D01*
X221719140Y-75719940D01*
X221719140Y-75719940D01*
X221703900Y-75740260D01*
X221632780Y-75758040D01*
X221500700Y-75768200D01*
X221300040Y-75780900D01*
X221246700Y-75780900D01*
X220964760Y-75796140D01*
X220718380Y-75816460D01*
X220515180Y-75846940D01*
X220362780Y-75879960D01*
X220271340Y-75915520D01*
X220245940Y-75948540D01*
X220276420Y-75986640D01*
X220350080Y-75996800D01*
X220444060Y-76012040D01*
X220497400Y-76037440D01*
X220545660Y-76052680D01*
X220652340Y-76067920D01*
X220804740Y-76088240D01*
X220985080Y-76108560D01*
X221178120Y-76126340D01*
X221366080Y-76139040D01*
X221531180Y-76146660D01*
X221607380Y-76149200D01*
X221673420Y-76161900D01*
X221691200Y-76184760D01*
X221655640Y-76200000D01*
X221559120Y-76215240D01*
X221414340Y-76227940D01*
X221234000Y-76238100D01*
X221208600Y-76238100D01*
X220982540Y-76245720D01*
X220822520Y-76255880D01*
X220705680Y-76268580D01*
X220614240Y-76283820D01*
X220538040Y-76306680D01*
X220461840Y-76334620D01*
X220372940Y-76362560D01*
X220314520Y-76367640D01*
X220266260Y-76387960D01*
X220256100Y-76405740D01*
X220271340Y-76443840D01*
X220347540Y-76454000D01*
X220444060Y-76469240D01*
X220499940Y-76497180D01*
X220555820Y-76517500D01*
X220672660Y-76535280D01*
X220835220Y-76550520D01*
X220995240Y-76560680D01*
X221444820Y-76578460D01*
X221584520Y-76713080D01*
X221663260Y-76794360D01*
X221703900Y-76862940D01*
X221706440Y-76883260D01*
X221665800Y-76883260D01*
X221599760Y-76837540D01*
X221574360Y-76812140D01*
X221505780Y-76756260D01*
X221444820Y-76725780D01*
X221358460Y-76713080D01*
X221226380Y-76713080D01*
X221185740Y-76713080D01*
X220957140Y-76725780D01*
X220741240Y-76746100D01*
X220548200Y-76771500D01*
X220393260Y-76796900D01*
X220289120Y-76827380D01*
X220245940Y-76857860D01*
X220245940Y-76860400D01*
X220276420Y-76901040D01*
X220350080Y-76911200D01*
X220446600Y-76926440D01*
X220499940Y-76954380D01*
X220558360Y-76977240D01*
X220680280Y-76995020D01*
X220853000Y-77010260D01*
X221025720Y-77017880D01*
X221503240Y-77038200D01*
X221617540Y-77165200D01*
X221686120Y-77259180D01*
X221726760Y-77343000D01*
X221734380Y-77396340D01*
X221714060Y-77409040D01*
X221681040Y-77383640D01*
X221615000Y-77320140D01*
X221561660Y-77269340D01*
X221421960Y-77132180D01*
X221007940Y-77147420D01*
X220792040Y-77160120D01*
X220637100Y-77180440D01*
X220538040Y-77208380D01*
X220497400Y-77228700D01*
X220400880Y-77274420D01*
X220322140Y-77294740D01*
X220258640Y-77317600D01*
X220245940Y-77350620D01*
X220212920Y-77396340D01*
X220164660Y-77409040D01*
X220111320Y-77421740D01*
X220108780Y-77442060D01*
X220111320Y-77495400D01*
X220093540Y-77594460D01*
X220065600Y-77698600D01*
X220027500Y-77863700D01*
X219997020Y-78036420D01*
X219986860Y-78120240D01*
X219971620Y-78323440D01*
X220428820Y-78323440D01*
X220888560Y-78323440D01*
X221020640Y-78463140D01*
X221099380Y-78554580D01*
X221134940Y-78613000D01*
X221119700Y-78623160D01*
X221061280Y-78579980D01*
X221013020Y-78536800D01*
X220967300Y-78496160D01*
X220919040Y-78465680D01*
X220855540Y-78450440D01*
X220764100Y-78440280D01*
X220624400Y-78437740D01*
X220426280Y-78437740D01*
X220243400Y-78435200D01*
X220088460Y-78427580D01*
X219976700Y-78417420D01*
X219925900Y-78404720D01*
X219925900Y-78404720D01*
X219910660Y-78351380D01*
X219897960Y-78247240D01*
X219887800Y-78155800D01*
X219875100Y-78031340D01*
X219859860Y-77942440D01*
X219849700Y-77914500D01*
X219831920Y-77861160D01*
X219824300Y-77784960D01*
X219814140Y-77698600D01*
X219788740Y-77655420D01*
X219760800Y-77602080D01*
X219748100Y-77520800D01*
X219740480Y-77439520D01*
X219715080Y-77409040D01*
X219694760Y-77416660D01*
X219676980Y-77457300D01*
X219654120Y-77538580D01*
X219626180Y-77678280D01*
X219610940Y-77751940D01*
X219588080Y-77848460D01*
X219565220Y-77917040D01*
X219562680Y-77922120D01*
X219555060Y-77972920D01*
X219544900Y-78084680D01*
X219539820Y-78234540D01*
X219539820Y-78379320D01*
X219539820Y-78798420D01*
X220004640Y-78808580D01*
X220469460Y-78818740D01*
X220687900Y-79065120D01*
X220825060Y-79209900D01*
X220929200Y-79291180D01*
X220992700Y-79311500D01*
X221081600Y-79341980D01*
X221112080Y-79387700D01*
X220985080Y-79387700D01*
X220934280Y-79420720D01*
X220931740Y-79446120D01*
X220957140Y-79491840D01*
X221018100Y-79499460D01*
X221056200Y-79479140D01*
X221066360Y-79430880D01*
X221023180Y-79395320D01*
X220985080Y-79387700D01*
X221112080Y-79387700D01*
X221129860Y-79418180D01*
X221117160Y-79507080D01*
X221117160Y-79514700D01*
X221048580Y-79568040D01*
X220967300Y-79570580D01*
X220893640Y-79527400D01*
X220855540Y-79446120D01*
X220853000Y-79425800D01*
X220827600Y-79375000D01*
X220759020Y-79286100D01*
X220659960Y-79176880D01*
X220614240Y-79128620D01*
X220375480Y-78894940D01*
X219913200Y-78894940D01*
X219453460Y-78894940D01*
X219425520Y-78610460D01*
X219415360Y-78440280D01*
X219407740Y-78267560D01*
X219407740Y-78143100D01*
X219407740Y-78023720D01*
X219402660Y-77927200D01*
X219395040Y-77901800D01*
X219356940Y-77759560D01*
X219326460Y-77597000D01*
X219316300Y-77510640D01*
X219290900Y-77429360D01*
X219250260Y-77409040D01*
X219217240Y-77444600D01*
X219181680Y-77548740D01*
X219151200Y-77721460D01*
X219123260Y-77947520D01*
X219100400Y-78221840D01*
X219085160Y-78486000D01*
X219067380Y-78897480D01*
X219237560Y-79085440D01*
X219321380Y-79184500D01*
X219382340Y-79263240D01*
X219405200Y-79298800D01*
X219379800Y-79291180D01*
X219316300Y-79248000D01*
X219232480Y-79179420D01*
X219143580Y-79100680D01*
X219064840Y-79024480D01*
X219026740Y-78981300D01*
X218991180Y-78930500D01*
X218968320Y-78867000D01*
X218955620Y-78778100D01*
X218948000Y-78643480D01*
X218945460Y-78450440D01*
X218945460Y-78419960D01*
X218945460Y-78221840D01*
X218932760Y-78033880D01*
X218920060Y-77878940D01*
X218904820Y-77787500D01*
X218876880Y-77657960D01*
X218861640Y-77541120D01*
X218859100Y-77510640D01*
X218841320Y-77434440D01*
X218808300Y-77409040D01*
X218785440Y-77414120D01*
X218765120Y-77449680D01*
X218744800Y-77520800D01*
X218716860Y-77645260D01*
X218696540Y-77759560D01*
X218671140Y-77856080D01*
X218648280Y-77919580D01*
X218648280Y-77922120D01*
X218635580Y-77972920D01*
X218625420Y-78082140D01*
X218617800Y-78242160D01*
X218612720Y-78432660D01*
X218610180Y-78511400D01*
X218602560Y-79065120D01*
X218841320Y-79301340D01*
X218968320Y-79413100D01*
X219080080Y-79499460D01*
X219163900Y-79542640D01*
X219176600Y-79547720D01*
X219245180Y-79570580D01*
X219265500Y-79616300D01*
X219158820Y-79616300D01*
X219108020Y-79649320D01*
X219102940Y-79674720D01*
X219130880Y-79722980D01*
X219158820Y-79730600D01*
X219209620Y-79700120D01*
X219217240Y-79674720D01*
X219184220Y-79623920D01*
X219158820Y-79616300D01*
X219265500Y-79616300D01*
X219270580Y-79634080D01*
X219273120Y-79674720D01*
X219262960Y-79758540D01*
X219212160Y-79791560D01*
X219168980Y-79801720D01*
X219090240Y-79796640D01*
X219054680Y-79750920D01*
X219039440Y-79697580D01*
X218991180Y-79598520D01*
X218884500Y-79463900D01*
X218772740Y-79349600D01*
X218531440Y-79115920D01*
X218531440Y-78531720D01*
X218528900Y-78325980D01*
X218521280Y-78150720D01*
X218511120Y-78018640D01*
X218503500Y-77937360D01*
X218495880Y-77924660D01*
X218465400Y-77873860D01*
X218442540Y-77784960D01*
X218442540Y-77777340D01*
X218401900Y-77581760D01*
X218371420Y-77457300D01*
X218340940Y-77403960D01*
X218315540Y-77421740D01*
X218290140Y-77505560D01*
X218287600Y-77510640D01*
X218267280Y-77617320D01*
X218236800Y-77749400D01*
X218229180Y-77787500D01*
X218213940Y-77894180D01*
X218201240Y-78054200D01*
X218191080Y-78247240D01*
X218188540Y-78440280D01*
X218186000Y-78696820D01*
X218175840Y-78938120D01*
X218165680Y-79148940D01*
X218150440Y-79319120D01*
X218135200Y-79441040D01*
X218117420Y-79499460D01*
X218112340Y-79502000D01*
X218099640Y-79468980D01*
X218092020Y-79367380D01*
X218079320Y-79212440D01*
X218071700Y-79016860D01*
X218061540Y-78793340D01*
X218059000Y-78778100D01*
X218043760Y-78359000D01*
X218020900Y-78018640D01*
X217992960Y-77754480D01*
X217959940Y-77563980D01*
X217921840Y-77447140D01*
X217878660Y-77409040D01*
X217878660Y-77409040D01*
X217830400Y-77431900D01*
X217830400Y-77480160D01*
X217827860Y-77569060D01*
X217805000Y-77637640D01*
X217789760Y-77701140D01*
X217771980Y-77828140D01*
X217754200Y-78005940D01*
X217733880Y-78214220D01*
X217723720Y-78412340D01*
X217688160Y-79103220D01*
X217482420Y-79311500D01*
X217350340Y-79463900D01*
X217274140Y-79585820D01*
X217258900Y-79636620D01*
X217251280Y-79697580D01*
X217243660Y-79687420D01*
X217238580Y-79606140D01*
X217238580Y-79595980D01*
X217241120Y-79509620D01*
X217266520Y-79438500D01*
X217322400Y-79359760D01*
X217426540Y-79253080D01*
X217619580Y-79065120D01*
X217599260Y-78493620D01*
X217589100Y-78229460D01*
X217576400Y-78026260D01*
X217563700Y-77876400D01*
X217545920Y-77764640D01*
X217523060Y-77678280D01*
X217492580Y-77609700D01*
X217469720Y-77520800D01*
X217477340Y-77467460D01*
X217472260Y-77414120D01*
X217441780Y-77409040D01*
X217396060Y-77439520D01*
X217385900Y-77513180D01*
X217368120Y-77609700D01*
X217340180Y-77665580D01*
X217319860Y-77726540D01*
X217299540Y-77863700D01*
X217286840Y-78074520D01*
X217274140Y-78364080D01*
X217274140Y-78394560D01*
X217251280Y-79080360D01*
X217070940Y-79242920D01*
X216890600Y-79408020D01*
X216890600Y-79758540D01*
X216893140Y-79913480D01*
X216905840Y-80040480D01*
X216918540Y-80116680D01*
X216928700Y-80131920D01*
X216956640Y-80182720D01*
X216956640Y-80187800D01*
X216834720Y-80187800D01*
X216781380Y-80220820D01*
X216776300Y-80246220D01*
X216806780Y-80294480D01*
X216834720Y-80302100D01*
X216885520Y-80271620D01*
X216890600Y-80246220D01*
X216860120Y-80195420D01*
X216834720Y-80187800D01*
X216956640Y-80187800D01*
X216966800Y-80246220D01*
X216936320Y-80327500D01*
X216865200Y-80368140D01*
X216781380Y-80352900D01*
X216745820Y-80324960D01*
X216707720Y-80279240D01*
X216707720Y-80228440D01*
X216748360Y-80147160D01*
X216753440Y-80131920D01*
X216791540Y-80045560D01*
X216809320Y-79946500D01*
X216811860Y-79809340D01*
X216806780Y-79700120D01*
X216789000Y-79400400D01*
X216974420Y-79194660D01*
X217159840Y-78988920D01*
X217147140Y-78455520D01*
X217134440Y-78135480D01*
X217109040Y-77884020D01*
X217068400Y-77703680D01*
X217068400Y-77698600D01*
X217037920Y-77576680D01*
X217022680Y-77480160D01*
X217025220Y-77442060D01*
X217012520Y-77414120D01*
X216976960Y-77409040D01*
X216938860Y-77414120D01*
X216913460Y-77452220D01*
X216893140Y-77525880D01*
X216875360Y-77655420D01*
X216860120Y-77777340D01*
X216839800Y-77978000D01*
X216819480Y-78214220D01*
X216804240Y-78463140D01*
X216796620Y-78623160D01*
X216786460Y-78833980D01*
X216773760Y-78983840D01*
X216755980Y-79080360D01*
X216730580Y-79143860D01*
X216715340Y-79164180D01*
X216651840Y-79217520D01*
X216611200Y-79237840D01*
X216606120Y-79214980D01*
X216639140Y-79164180D01*
X216664540Y-79126080D01*
X216682320Y-79072740D01*
X216692480Y-78991460D01*
X216692480Y-78869540D01*
X216687400Y-78691740D01*
X216682320Y-78582520D01*
X216664540Y-78252320D01*
X216641680Y-77965300D01*
X216613740Y-77734160D01*
X216588340Y-77558900D01*
X216555320Y-77449680D01*
X216522300Y-77409040D01*
X216522300Y-77409040D01*
X216484200Y-77442060D01*
X216471500Y-77520800D01*
X216458800Y-77607160D01*
X216433400Y-77655420D01*
X216405460Y-77708760D01*
X216395300Y-77787500D01*
X216382600Y-77873860D01*
X216359740Y-77919580D01*
X216347040Y-77962760D01*
X216336880Y-78069440D01*
X216326720Y-78224380D01*
X216321640Y-78412340D01*
X216319100Y-78503780D01*
X216316560Y-78704440D01*
X216308940Y-78877160D01*
X216296240Y-79011780D01*
X216286080Y-79087980D01*
X216278460Y-79100680D01*
X216265760Y-79080360D01*
X216253060Y-78986380D01*
X216245440Y-78826360D01*
X216242900Y-78600300D01*
X216242900Y-78521560D01*
X216240360Y-78287880D01*
X216232740Y-78097380D01*
X216222580Y-77962760D01*
X216209880Y-77891640D01*
X216204800Y-77884020D01*
X216176860Y-77830680D01*
X216166700Y-77751940D01*
X216154000Y-77663040D01*
X216128600Y-77617320D01*
X216098120Y-77563980D01*
X216090500Y-77500480D01*
X216072720Y-77429360D01*
X216039700Y-77409040D01*
X216001600Y-77436980D01*
X216004140Y-77503020D01*
X215999060Y-77599540D01*
X215971120Y-77657960D01*
X215948260Y-77724000D01*
X215927940Y-77853540D01*
X215915240Y-78054200D01*
X215905080Y-78267560D01*
X215889840Y-78816200D01*
X215407240Y-78816200D01*
X214924640Y-78816200D01*
X214744300Y-78999080D01*
X214652860Y-79103220D01*
X214589360Y-79189580D01*
X214584280Y-79197200D01*
X214434420Y-79197200D01*
X214381080Y-79227680D01*
X214376000Y-79255620D01*
X214406480Y-79306420D01*
X214434420Y-79311500D01*
X214485220Y-79283560D01*
X214490300Y-79255620D01*
X214459820Y-79204820D01*
X214434420Y-79197200D01*
X214584280Y-79197200D01*
X214566500Y-79240380D01*
X214530940Y-79324200D01*
X214454740Y-79377540D01*
X214386160Y-79380080D01*
X214332820Y-79341980D01*
X214320120Y-79255620D01*
X214330280Y-79171800D01*
X214378540Y-79136240D01*
X214421720Y-79128620D01*
X214520780Y-79087980D01*
X214642700Y-78981300D01*
X214706200Y-78910180D01*
X214884000Y-78704440D01*
X215325960Y-78694280D01*
X215765380Y-78684120D01*
X215755220Y-78303120D01*
X215742520Y-78046580D01*
X215719660Y-77820520D01*
X215694260Y-77632560D01*
X215661240Y-77495400D01*
X215628220Y-77419200D01*
X215605360Y-77409040D01*
X215569800Y-77439520D01*
X215557100Y-77513180D01*
X215541860Y-77607160D01*
X215516460Y-77660500D01*
X215496140Y-77711300D01*
X215475820Y-77823060D01*
X215458040Y-77970380D01*
X215450420Y-78056740D01*
X215422480Y-78417420D01*
X215044020Y-78427580D01*
X214853520Y-78437740D01*
X214726520Y-78450440D01*
X214645240Y-78473300D01*
X214589360Y-78506320D01*
X214586820Y-78508860D01*
X214505540Y-78574900D01*
X214452200Y-78607920D01*
X214416640Y-78623160D01*
X214426800Y-78600300D01*
X214449660Y-78567280D01*
X214538560Y-78452980D01*
X214607140Y-78381860D01*
X214683340Y-78341220D01*
X214784940Y-78325980D01*
X214934800Y-78323440D01*
X214990680Y-78323440D01*
X215328500Y-78323440D01*
X215328500Y-78165960D01*
X215308180Y-77967840D01*
X215259920Y-77754480D01*
X215204040Y-77609700D01*
X215183720Y-77520800D01*
X215188800Y-77467460D01*
X215186260Y-77419200D01*
X215135460Y-77409040D01*
X215074500Y-77381100D01*
X215061800Y-77332840D01*
X215041480Y-77276960D01*
X215008460Y-77276960D01*
X214939880Y-77274420D01*
X214845900Y-77241400D01*
X214833200Y-77236320D01*
X214731600Y-77200760D01*
X214586820Y-77170280D01*
X214454740Y-77152500D01*
X214317580Y-77142340D01*
X214238840Y-77142340D01*
X214200740Y-77160120D01*
X214182960Y-77203300D01*
X214175340Y-77233780D01*
X214165180Y-77317600D01*
X214157560Y-77452220D01*
X214152480Y-77617320D01*
X214149940Y-77706220D01*
X214142320Y-77896720D01*
X214127080Y-78026260D01*
X214104220Y-78107540D01*
X214081360Y-78140560D01*
X214020400Y-78191360D01*
X213982300Y-78209140D01*
X213974680Y-78186280D01*
X214007700Y-78138020D01*
X214033100Y-78097380D01*
X214050880Y-78031340D01*
X214063580Y-77929740D01*
X214068660Y-77779880D01*
X214071200Y-77569060D01*
X214071200Y-77551280D01*
X214071200Y-77038200D01*
X214419180Y-77015340D01*
X214576660Y-77000100D01*
X214708740Y-76982320D01*
X214790020Y-76962000D01*
X214807800Y-76954380D01*
X214873840Y-76921360D01*
X214955120Y-76911200D01*
X215033860Y-76895960D01*
X215059260Y-76862940D01*
X215026240Y-76829920D01*
X214927180Y-76796900D01*
X214779860Y-76771500D01*
X214594440Y-76748640D01*
X214383620Y-76728320D01*
X214165180Y-76723240D01*
X214099140Y-76723240D01*
X213766400Y-76723240D01*
X213766400Y-77114400D01*
X213766400Y-77503020D01*
X213271100Y-77998320D01*
X213113620Y-78158340D01*
X212976460Y-78300580D01*
X212867240Y-78417420D01*
X212834220Y-78458060D01*
X212664040Y-78458060D01*
X212618320Y-78460600D01*
X212592920Y-78506320D01*
X212605620Y-78552040D01*
X212648800Y-78572360D01*
X212691980Y-78541880D01*
X212699600Y-78511400D01*
X212671660Y-78463140D01*
X212664040Y-78458060D01*
X212834220Y-78458060D01*
X212798660Y-78498700D01*
X212775800Y-78534260D01*
X212747860Y-78595220D01*
X212722460Y-78623160D01*
X212643720Y-78646020D01*
X212564980Y-78615540D01*
X212514180Y-78549500D01*
X212509100Y-78513940D01*
X212537040Y-78432660D01*
X212600540Y-78376780D01*
X212674200Y-78371700D01*
X212719920Y-78351380D01*
X212811360Y-78282800D01*
X212938360Y-78168500D01*
X213098380Y-78016100D01*
X213169500Y-77944980D01*
X213614000Y-77503020D01*
X213614000Y-77040740D01*
X213614000Y-76578460D01*
X214182960Y-76563220D01*
X214439500Y-76553060D01*
X214630000Y-76537820D01*
X214751920Y-76520040D01*
X214810340Y-76497180D01*
X214894160Y-76464160D01*
X214965280Y-76464160D01*
X215038940Y-76464160D01*
X215059260Y-76423520D01*
X215061800Y-76418440D01*
X215033860Y-76367640D01*
X214950040Y-76349860D01*
X214942420Y-76349860D01*
X214840820Y-76332080D01*
X214769700Y-76296520D01*
X214701120Y-76273660D01*
X214561420Y-76255880D01*
X214350600Y-76240640D01*
X214182960Y-76233020D01*
X213649560Y-76217780D01*
X213235540Y-76624180D01*
X213078060Y-76779120D01*
X212963760Y-76888340D01*
X212879940Y-76959460D01*
X212816440Y-77000100D01*
X212763100Y-77020420D01*
X212704680Y-77022960D01*
X212656420Y-77017880D01*
X212491320Y-77005180D01*
X212641180Y-76974700D01*
X212712300Y-76951840D01*
X212785960Y-76908660D01*
X212872320Y-76840080D01*
X212984080Y-76735940D01*
X213133940Y-76583540D01*
X213179660Y-76537820D01*
X213565740Y-76131420D01*
X214162640Y-76108560D01*
X214411560Y-76095860D01*
X214604600Y-76083160D01*
X214736680Y-76062840D01*
X214802720Y-76042520D01*
X214805260Y-76039980D01*
X214873840Y-76009500D01*
X214955120Y-75996800D01*
X215036400Y-75979020D01*
X215061800Y-75943460D01*
X215033860Y-75907900D01*
X214944960Y-75879960D01*
X214812880Y-75862180D01*
X214683340Y-75844400D01*
X214584280Y-75821540D01*
X214543640Y-75803760D01*
X214500460Y-75791060D01*
X214393780Y-75780900D01*
X214241380Y-75773280D01*
X214050880Y-75768200D01*
X213961980Y-75768200D01*
X213403180Y-75768200D01*
X213136480Y-76039980D01*
X212991700Y-76179680D01*
X212862160Y-76306680D01*
X212747860Y-76405740D01*
X212666580Y-76471780D01*
X212618320Y-76499720D01*
X212613240Y-76484480D01*
X212631020Y-76461620D01*
X212679280Y-76400660D01*
X212770720Y-76299060D01*
X212890100Y-76172060D01*
X213024720Y-76029820D01*
X213042500Y-76014580D01*
X213390480Y-75653900D01*
X213949280Y-75651360D01*
X214165180Y-75651360D01*
X214368380Y-75641200D01*
X214538560Y-75628500D01*
X214657940Y-75615800D01*
X214680800Y-75610720D01*
X214810340Y-75582780D01*
X214927180Y-75567540D01*
X214957660Y-75565000D01*
X215041480Y-75539600D01*
X215061800Y-75496420D01*
X215044020Y-75460860D01*
X214983060Y-75435460D01*
X214863680Y-75415140D01*
X214812880Y-75407520D01*
X214683340Y-75389740D01*
X214586820Y-75366880D01*
X214546180Y-75346560D01*
X214503000Y-75333860D01*
X214393780Y-75323700D01*
X214241380Y-75316080D01*
X214050880Y-75311000D01*
X213961980Y-75311000D01*
X213403180Y-75311000D01*
X213116160Y-75598020D01*
X212989160Y-75725020D01*
X212895180Y-75808840D01*
X212824060Y-75857100D01*
X212760560Y-75877420D01*
X212686900Y-75882500D01*
X212671660Y-75882500D01*
X212572600Y-75877420D01*
X212514180Y-75857100D01*
X212509100Y-75844400D01*
X212542120Y-75819000D01*
X212623400Y-75808840D01*
X212633560Y-75808840D01*
X212699600Y-75798680D01*
X212765640Y-75768200D01*
X212846920Y-75707240D01*
X212958680Y-75605640D01*
X213057740Y-75506580D01*
X213354920Y-75206860D01*
X214053420Y-75194160D01*
X214337900Y-75184000D01*
X214548720Y-75173840D01*
X214693500Y-75161140D01*
X214779860Y-75143360D01*
X214800180Y-75130660D01*
X214873840Y-75095100D01*
X214955120Y-75082400D01*
X215038940Y-75064620D01*
X215061800Y-75029060D01*
X215033860Y-74988420D01*
X215011000Y-74990960D01*
X214942420Y-74990960D01*
X214850980Y-74965560D01*
X214772240Y-74937620D01*
X214690960Y-74914760D01*
X214599520Y-74896980D01*
X214477600Y-74886820D01*
X214309960Y-74876660D01*
X214088980Y-74869040D01*
X213979760Y-74866500D01*
X213410800Y-74848720D01*
X213179660Y-75074780D01*
X213057740Y-75186540D01*
X212948520Y-75288140D01*
X212867240Y-75359260D01*
X212857080Y-75371960D01*
X212793580Y-75417680D01*
X212775800Y-75415140D01*
X212801200Y-75374500D01*
X212862160Y-75298300D01*
X212948520Y-75199240D01*
X213060280Y-75082400D01*
X213106000Y-75039220D01*
X213365080Y-74785220D01*
X214066120Y-74747120D01*
X214299800Y-74731880D01*
X214503000Y-74714100D01*
X214663020Y-74696320D01*
X214767160Y-74678540D01*
X214805260Y-74665840D01*
X214873840Y-74635360D01*
X214955120Y-74622660D01*
X215033860Y-74609960D01*
X215061800Y-74574400D01*
X215026240Y-74543920D01*
X214922100Y-74513440D01*
X214762080Y-74485500D01*
X214556340Y-74460100D01*
X214315040Y-74442320D01*
X214048340Y-74432160D01*
X213888320Y-74429620D01*
X213380320Y-74422000D01*
X213067900Y-74734420D01*
X212925660Y-74871580D01*
X212818980Y-74965560D01*
X212742780Y-75016360D01*
X212679280Y-75041760D01*
X212633560Y-75044300D01*
X212547200Y-75034140D01*
X212509100Y-75011280D01*
X212509100Y-75008740D01*
X212542120Y-74980800D01*
X212618320Y-74968100D01*
X212679280Y-74957940D01*
X212745320Y-74917300D01*
X212834220Y-74846180D01*
X212953600Y-74729340D01*
X213045040Y-74635360D01*
X213362540Y-74300080D01*
X214053420Y-74279760D01*
X214335360Y-74269600D01*
X214546180Y-74256900D01*
X214690960Y-74241660D01*
X214779860Y-74223880D01*
X214807800Y-74208640D01*
X214894160Y-74175620D01*
X214965280Y-74178160D01*
X215038940Y-74178160D01*
X215059260Y-74134980D01*
X215028780Y-74081640D01*
X214957660Y-74066400D01*
X214805260Y-74048620D01*
X214668100Y-74023220D01*
X214576660Y-73992740D01*
X214543640Y-73972420D01*
X214500460Y-73959720D01*
X214393780Y-73952100D01*
X214241380Y-73941940D01*
X214053420Y-73939400D01*
X213969600Y-73936860D01*
X213413340Y-73936860D01*
X213128860Y-74208640D01*
X213006940Y-74315320D01*
X212907880Y-74399140D01*
X212839300Y-74447400D01*
X212818980Y-74452480D01*
X212836760Y-74419460D01*
X212897720Y-74345800D01*
X212991700Y-74239120D01*
X213083140Y-74147680D01*
X213365080Y-73865740D01*
X213954360Y-73842880D01*
X214157560Y-73835260D01*
X214332820Y-73825100D01*
X214467440Y-73817480D01*
X214546180Y-73807320D01*
X214558880Y-73804780D01*
X214607140Y-73792080D01*
X214685880Y-73787000D01*
X214769700Y-73774300D01*
X214812880Y-73748900D01*
X214866220Y-73720960D01*
X214947500Y-73708260D01*
X215033860Y-73695560D01*
X215061800Y-73660000D01*
X215023700Y-73629520D01*
X214917020Y-73599040D01*
X214746840Y-73571100D01*
X214518240Y-73548240D01*
X214236300Y-73527920D01*
X213913720Y-73515220D01*
X213619080Y-73505060D01*
X212923120Y-73492360D01*
X212811360Y-73385680D01*
X212727540Y-73294240D01*
X212702140Y-73248520D01*
X212730080Y-73243440D01*
X212808820Y-73291700D01*
X212836760Y-73309480D01*
X212933280Y-73375520D01*
X213024720Y-73400920D01*
X213146640Y-73393300D01*
X213149180Y-73390760D01*
X213245700Y-73385680D01*
X213400640Y-73378060D01*
X213601300Y-73370440D01*
X213827360Y-73365360D01*
X214033100Y-73362820D01*
X214302340Y-73360280D01*
X214505540Y-73352660D01*
X214647780Y-73339960D01*
X214746840Y-73327260D01*
X214807800Y-73306940D01*
X214823040Y-73299320D01*
X214917020Y-73263760D01*
X214985600Y-73263760D01*
X215046560Y-73263760D01*
X215059260Y-73210420D01*
X215049100Y-73154540D01*
X215033860Y-73144380D01*
X214965280Y-73146920D01*
X214861140Y-73134220D01*
X214739220Y-73113900D01*
X214632540Y-73088500D01*
X214558880Y-73065640D01*
X214543640Y-73058020D01*
X214500460Y-73045320D01*
X214393780Y-73037700D01*
X214238840Y-73030080D01*
X214050880Y-73025000D01*
X213936580Y-73022460D01*
X213352380Y-73022460D01*
X213022180Y-72682100D01*
X212885020Y-72550020D01*
X212765640Y-72440800D01*
X212669120Y-72362060D01*
X212610700Y-72326500D01*
X212610700Y-72326500D01*
X212570060Y-72313800D01*
X212605620Y-72308720D01*
X212638640Y-72306180D01*
X212699600Y-72311260D01*
X212765640Y-72344280D01*
X212852000Y-72407780D01*
X212968840Y-72517000D01*
X213078060Y-72618600D01*
X213405720Y-72938640D01*
X213862920Y-72923400D01*
X214195660Y-72908160D01*
X214457280Y-72892920D01*
X214645240Y-72875140D01*
X214762080Y-72854820D01*
X214815420Y-72831960D01*
X214815420Y-72831960D01*
X214866220Y-72806560D01*
X214947500Y-72793860D01*
X215033860Y-72778620D01*
X215059260Y-72743060D01*
X215018620Y-72704960D01*
X214957660Y-72694800D01*
X214820500Y-72677020D01*
X214685880Y-72654160D01*
X214581740Y-72623680D01*
X214548720Y-72605900D01*
X214497920Y-72593200D01*
X214386160Y-72585580D01*
X214226140Y-72577960D01*
X214030560Y-72570340D01*
X213918800Y-72570340D01*
X213326980Y-72565260D01*
X213009480Y-72242680D01*
X212849460Y-72082660D01*
X212727540Y-71981060D01*
X212641180Y-71927720D01*
X212600540Y-71920100D01*
X212526880Y-71899780D01*
X212509100Y-71861680D01*
X212542120Y-71815960D01*
X212618320Y-71805800D01*
X212681820Y-71815960D01*
X212755480Y-71856600D01*
X212857080Y-71935340D01*
X212991700Y-72057260D01*
X213067900Y-72128380D01*
X213405720Y-72448420D01*
X213956900Y-72448420D01*
X214170260Y-72448420D01*
X214370920Y-72440800D01*
X214541100Y-72428100D01*
X214660480Y-72415400D01*
X214680800Y-72410320D01*
X214810340Y-72379840D01*
X214929720Y-72356980D01*
X214957660Y-72351900D01*
X215041480Y-72311260D01*
X215061800Y-72257920D01*
X215089740Y-72196960D01*
X215135460Y-72186800D01*
X215191340Y-72166480D01*
X215191340Y-72130920D01*
X215193880Y-72059800D01*
X215216740Y-71991220D01*
X215247220Y-71932800D01*
X215267540Y-71876920D01*
X215285320Y-71810880D01*
X215295480Y-71719440D01*
X215303100Y-71592440D01*
X215308180Y-71412100D01*
X215315800Y-71170800D01*
X215333580Y-70553580D01*
X215056720Y-70264020D01*
X214947500Y-70144640D01*
X214861140Y-70045580D01*
X214807800Y-69979540D01*
X214800180Y-69959220D01*
X214830660Y-69979540D01*
X214906860Y-70037960D01*
X215011000Y-70131940D01*
X215107520Y-70218300D01*
X215402160Y-70490080D01*
X215440260Y-71211440D01*
X215452960Y-71442580D01*
X215468200Y-71645780D01*
X215485980Y-71808340D01*
X215501220Y-71922640D01*
X215516460Y-71970900D01*
X215549480Y-72036940D01*
X215557100Y-72100440D01*
X215577420Y-72169020D01*
X215607900Y-72186800D01*
X215643460Y-72148700D01*
X215676480Y-72036940D01*
X215706960Y-71856600D01*
X215732360Y-71610220D01*
X215757760Y-71300340D01*
X215767920Y-71089520D01*
X215793320Y-70584060D01*
X215493600Y-70253860D01*
X215381840Y-70129400D01*
X215295480Y-70027800D01*
X215244680Y-69961760D01*
X215237060Y-69941440D01*
X215282780Y-69971920D01*
X215366600Y-70045580D01*
X215483440Y-70144640D01*
X215582500Y-70236080D01*
X215889840Y-70518020D01*
X215905080Y-71213980D01*
X215915240Y-71490840D01*
X215925400Y-71699120D01*
X215938100Y-71846440D01*
X215955880Y-71935340D01*
X215971120Y-71970900D01*
X216006680Y-72059800D01*
X216001600Y-72108060D01*
X216004140Y-72174100D01*
X216027000Y-72186800D01*
X216062560Y-72151240D01*
X216103200Y-72067420D01*
X216123520Y-72006460D01*
X216159080Y-71876920D01*
X216197180Y-71767700D01*
X216207340Y-71737220D01*
X216220040Y-71668640D01*
X216230200Y-71539100D01*
X216237820Y-71368920D01*
X216242900Y-71168260D01*
X216242900Y-71107300D01*
X216242900Y-70566280D01*
X215938100Y-70261480D01*
X215633300Y-69959220D01*
X215633300Y-69682360D01*
X215628220Y-69545200D01*
X215615520Y-69441060D01*
X215597740Y-69385180D01*
X215595200Y-69385180D01*
X215564720Y-69334380D01*
X215557100Y-69270880D01*
X215585040Y-69189600D01*
X215656160Y-69151500D01*
X215656160Y-69151500D01*
X215656160Y-69151500D01*
G37*
X215656160Y-69151500D02*
X215742520Y-69164200D01*
X215780620Y-69192140D01*
X215795860Y-69215000D01*
X215691720Y-69215000D01*
X215638380Y-69245480D01*
X215633300Y-69270880D01*
X215663780Y-69321680D01*
X215691720Y-69329300D01*
X215742520Y-69296280D01*
X215747600Y-69270880D01*
X215717120Y-69222620D01*
X215691720Y-69215000D01*
X215795860Y-69215000D01*
X215818720Y-69242940D01*
X215816180Y-69291200D01*
X215775540Y-69369940D01*
X215729820Y-69499480D01*
X215709500Y-69659500D01*
X215709500Y-69682360D01*
X215712040Y-69771260D01*
X215722200Y-69839840D01*
X215752680Y-69903340D01*
X215811100Y-69979540D01*
X215910160Y-70081140D01*
X216011760Y-70185280D01*
X216314020Y-70490080D01*
X216336880Y-70985380D01*
X216352120Y-71310500D01*
X216367360Y-71564500D01*
X216382600Y-71755000D01*
X216402920Y-71882000D01*
X216420700Y-71955660D01*
X216435940Y-71978520D01*
X216463880Y-72029320D01*
X216471500Y-72092820D01*
X216489280Y-72166480D01*
X216522300Y-72186800D01*
X216560400Y-72151240D01*
X216590880Y-72044560D01*
X216618820Y-71879460D01*
X216641680Y-71666100D01*
X216656920Y-71407020D01*
X216664540Y-71112380D01*
X216664540Y-71076820D01*
X216669620Y-70553580D01*
X216799160Y-70431660D01*
X216875360Y-70345300D01*
X216913460Y-70271640D01*
X216928700Y-70164960D01*
X216928700Y-70093840D01*
X216931240Y-69974460D01*
X216946480Y-69926200D01*
X216966800Y-69936360D01*
X216989660Y-70010020D01*
X217002360Y-70121780D01*
X217002360Y-70170040D01*
X216992200Y-70299580D01*
X216951560Y-70388480D01*
X216908380Y-70434200D01*
X216870280Y-70472300D01*
X216844880Y-70512940D01*
X216829640Y-70573900D01*
X216816940Y-70660260D01*
X216816940Y-70794880D01*
X216814400Y-70985380D01*
X216814400Y-71059040D01*
X216816940Y-71379080D01*
X216834720Y-71653400D01*
X216857580Y-71876920D01*
X216885520Y-72047100D01*
X216926160Y-72151240D01*
X216969340Y-72186800D01*
X217022680Y-72163940D01*
X217030300Y-72138540D01*
X217037920Y-72049640D01*
X217060780Y-71922640D01*
X217091260Y-71800720D01*
X217119200Y-71719440D01*
X217134440Y-71661020D01*
X217144600Y-71539100D01*
X217152220Y-71374000D01*
X217157300Y-71173340D01*
X217157300Y-71069200D01*
X217157300Y-70848220D01*
X217159840Y-70688200D01*
X217164920Y-70576440D01*
X217180160Y-70505320D01*
X217197940Y-70457060D01*
X217228420Y-70418960D01*
X217251280Y-70396100D01*
X217319860Y-70309740D01*
X217345260Y-70200520D01*
X217345260Y-70139560D01*
X217335100Y-70022720D01*
X217304620Y-69933820D01*
X217294460Y-69916040D01*
X217256360Y-69837300D01*
X217276680Y-69750940D01*
X217347800Y-69689980D01*
X217352880Y-69687440D01*
X217446860Y-69689980D01*
X217510360Y-69743320D01*
X217515440Y-69761100D01*
X217363040Y-69761100D01*
X217322400Y-69799200D01*
X217327480Y-69855080D01*
X217337640Y-69865240D01*
X217396060Y-69888100D01*
X217451940Y-69860160D01*
X217462100Y-69822060D01*
X217436700Y-69773800D01*
X217418920Y-69766180D01*
X217363040Y-69761100D01*
X217515440Y-69761100D01*
X217535760Y-69822060D01*
X217510360Y-69908420D01*
X217482420Y-69936360D01*
X217439240Y-70017640D01*
X217424000Y-70159880D01*
X217424000Y-70180200D01*
X217411300Y-70319900D01*
X217373200Y-70416420D01*
X217337640Y-70462140D01*
X217302080Y-70505320D01*
X217279220Y-70551040D01*
X217266520Y-70617080D01*
X217258900Y-70716140D01*
X217258900Y-70866000D01*
X217263980Y-71053960D01*
X217274140Y-71391780D01*
X217286840Y-71653400D01*
X217307160Y-71838820D01*
X217332560Y-71948040D01*
X217350340Y-71978520D01*
X217378280Y-72029320D01*
X217385900Y-72092820D01*
X217398600Y-72163940D01*
X217424000Y-72186800D01*
X217454480Y-72153780D01*
X217462100Y-72092820D01*
X217474800Y-72014080D01*
X217497660Y-71978520D01*
X217523060Y-71930260D01*
X217545920Y-71818500D01*
X217563700Y-71638160D01*
X217581480Y-71386700D01*
X217596720Y-71061580D01*
X217596720Y-71023480D01*
X217619580Y-70490080D01*
X218094560Y-70040500D01*
X218277440Y-69862700D01*
X218406980Y-69728080D01*
X218495880Y-69629020D01*
X218546680Y-69555360D01*
X218567000Y-69499480D01*
X218569540Y-69486780D01*
X218574620Y-69423280D01*
X218594940Y-69428360D01*
X218605100Y-69443600D01*
X218638120Y-69522340D01*
X218643200Y-69552820D01*
X218617800Y-69596000D01*
X218546680Y-69684900D01*
X218440000Y-69804280D01*
X218305380Y-69951600D01*
X218183460Y-70073520D01*
X217723720Y-70540880D01*
X217728800Y-71104760D01*
X217733880Y-71323200D01*
X217741500Y-71526400D01*
X217756740Y-71696580D01*
X217769440Y-71818500D01*
X217774520Y-71843900D01*
X217799920Y-71968360D01*
X217815160Y-72075040D01*
X217820240Y-72100440D01*
X217848180Y-72171560D01*
X217886280Y-72186800D01*
X217924380Y-72148700D01*
X217962480Y-72036940D01*
X217992960Y-71851520D01*
X218023440Y-71592440D01*
X218046300Y-71264780D01*
X218056460Y-71053960D01*
X218081860Y-70515480D01*
X218305380Y-70297040D01*
X218409520Y-70197980D01*
X218493340Y-70126860D01*
X218541600Y-70093840D01*
X218546680Y-70093840D01*
X218533980Y-70131940D01*
X218478100Y-70208140D01*
X218394280Y-70309740D01*
X218373960Y-70332600D01*
X218178380Y-70551040D01*
X218191080Y-71234300D01*
X218201240Y-71513700D01*
X218211400Y-71724520D01*
X218226640Y-71866760D01*
X218244420Y-71945500D01*
X218254580Y-71965820D01*
X218292680Y-72036940D01*
X218302840Y-72097900D01*
X218315540Y-72166480D01*
X218338400Y-72186800D01*
X218368880Y-72153780D01*
X218376500Y-72092820D01*
X218391740Y-72014080D01*
X218417140Y-71975980D01*
X218442540Y-71925180D01*
X218452700Y-71843900D01*
X218465400Y-71757540D01*
X218490800Y-71709280D01*
X218506040Y-71663560D01*
X218516200Y-71551800D01*
X218526360Y-71381620D01*
X218531440Y-71165720D01*
X218531440Y-71089520D01*
X218531440Y-70490080D01*
X218851480Y-70195440D01*
X218981020Y-70078600D01*
X219087700Y-69982080D01*
X219166440Y-69921120D01*
X219196920Y-69900800D01*
X219184220Y-69926200D01*
X219128340Y-69997320D01*
X219036900Y-70104000D01*
X218920060Y-70231000D01*
X218912440Y-70241160D01*
X218600020Y-70584060D01*
X218610180Y-71109840D01*
X218615260Y-71307960D01*
X218625420Y-71488300D01*
X218635580Y-71630540D01*
X218648280Y-71716900D01*
X218648280Y-71729600D01*
X218676220Y-71823580D01*
X218714320Y-71950580D01*
X218727020Y-72006460D01*
X218762580Y-72108060D01*
X218803220Y-72174100D01*
X218821000Y-72186800D01*
X218848940Y-72156320D01*
X218846400Y-72108060D01*
X218851480Y-72019160D01*
X218874340Y-71975980D01*
X218897200Y-71912480D01*
X218914980Y-71777860D01*
X218930220Y-71572120D01*
X218945460Y-71287640D01*
X218948000Y-71231760D01*
X218973400Y-70543420D01*
X219130880Y-70385940D01*
X219235020Y-70291960D01*
X219290900Y-70251320D01*
X219303600Y-70264020D01*
X219265500Y-70324980D01*
X219194380Y-70411340D01*
X219062300Y-70556120D01*
X219082620Y-71038720D01*
X219102940Y-71386700D01*
X219125800Y-71678800D01*
X219151200Y-71907400D01*
X219184220Y-72069960D01*
X219219780Y-72163940D01*
X219250260Y-72186800D01*
X219301060Y-72151240D01*
X219316300Y-72100440D01*
X219331540Y-72011540D01*
X219354400Y-71887080D01*
X219362020Y-71843900D01*
X219384880Y-71704200D01*
X219402660Y-71536560D01*
X219402660Y-71442580D01*
X219410280Y-71274940D01*
X219420440Y-71081900D01*
X219430600Y-70957440D01*
X219453460Y-70700900D01*
X219826840Y-70700900D01*
X220197680Y-70700900D01*
X220431360Y-70485000D01*
X220568520Y-70350380D01*
X220642180Y-70248780D01*
X220662500Y-70180200D01*
X220685360Y-70098920D01*
X220726000Y-70065900D01*
X220817440Y-70063360D01*
X220886020Y-70119240D01*
X220888560Y-70129400D01*
X220797120Y-70129400D01*
X220746320Y-70159880D01*
X220738700Y-70185280D01*
X220771720Y-70236080D01*
X220797120Y-70243700D01*
X220845380Y-70210680D01*
X220853000Y-70185280D01*
X220822520Y-70137020D01*
X220797120Y-70129400D01*
X220888560Y-70129400D01*
X220911420Y-70208140D01*
X220888560Y-70281800D01*
X220817440Y-70312280D01*
X220743780Y-70345300D01*
X220637100Y-70421500D01*
X220512640Y-70528180D01*
X220484700Y-70556120D01*
X220248480Y-70787260D01*
X219933520Y-70779640D01*
X219781120Y-70782180D01*
X219654120Y-70789800D01*
X219575380Y-70802500D01*
X219562680Y-70810120D01*
X219539820Y-70863460D01*
X219529660Y-70975220D01*
X219529660Y-71127620D01*
X219539820Y-71310500D01*
X219557600Y-71508620D01*
X219580460Y-71704200D01*
X219608400Y-71884540D01*
X219641420Y-72034400D01*
X219676980Y-72138540D01*
X219710000Y-72184260D01*
X219715080Y-72186800D01*
X219743020Y-72153780D01*
X219748100Y-72100440D01*
X219768420Y-72011540D01*
X219791280Y-71968360D01*
X219809060Y-71917560D01*
X219826840Y-71800720D01*
X219842080Y-71635620D01*
X219857320Y-71437500D01*
X219859860Y-71399400D01*
X219882720Y-70871080D01*
X220347540Y-70886320D01*
X220817440Y-70899020D01*
X221025720Y-70721220D01*
X221145100Y-70622160D01*
X221211140Y-70578980D01*
X221223840Y-70589140D01*
X221183200Y-70650100D01*
X221086680Y-70761860D01*
X221056200Y-70794880D01*
X220880940Y-70985380D01*
X220449140Y-70998080D01*
X220017340Y-71010780D01*
X220019880Y-71340980D01*
X220022420Y-71518780D01*
X220035120Y-71691500D01*
X220050360Y-71823580D01*
X220052900Y-71843900D01*
X220075760Y-71965820D01*
X220093540Y-72067420D01*
X220098620Y-72090280D01*
X220139260Y-72166480D01*
X220179900Y-72194420D01*
X220233240Y-72242680D01*
X220245940Y-72275700D01*
X220276420Y-72321420D01*
X220350080Y-72351900D01*
X220454220Y-72372220D01*
X220586300Y-72402700D01*
X220624400Y-72410320D01*
X220761560Y-72433180D01*
X220929200Y-72448420D01*
X221035880Y-72450960D01*
X221274640Y-72450960D01*
X221274640Y-72077580D01*
X221274640Y-71699120D01*
X221482920Y-71521320D01*
X221584520Y-71440040D01*
X221658180Y-71384160D01*
X221691200Y-71368920D01*
X221691200Y-71371460D01*
X221668340Y-71409560D01*
X221607380Y-71490840D01*
X221523560Y-71594980D01*
X221515940Y-71602600D01*
X221343220Y-71808340D01*
X221355920Y-72176640D01*
X221368620Y-72529700D01*
X219938600Y-72529700D01*
X217652600Y-72529700D01*
X215366600Y-72529700D01*
X215366600Y-74815700D01*
X215366600Y-77101700D01*
X217652600Y-77101700D01*
X219938600Y-77101700D01*
X219938600Y-74815700D01*
X219938600Y-72529700D01*
X221368620Y-72529700D01*
X221368620Y-72547480D01*
X221063820Y-72572880D01*
X220817440Y-72598280D01*
X220639640Y-72628760D01*
X220522800Y-72664320D01*
X220484700Y-72689720D01*
X220411040Y-72712580D01*
X220355160Y-72712580D01*
X220281500Y-72722740D01*
X220253560Y-72748140D01*
X220271340Y-72786240D01*
X220347540Y-72793860D01*
X220444060Y-72811640D01*
X220502480Y-72839580D01*
X220560900Y-72859900D01*
X220687900Y-72880220D01*
X220880940Y-72895460D01*
X221124780Y-72905620D01*
X221371160Y-72918320D01*
X221548960Y-72931020D01*
X221660720Y-72948800D01*
X221714060Y-72969120D01*
X221721680Y-72976740D01*
X221708980Y-72997060D01*
X221648020Y-73014840D01*
X221533720Y-73022460D01*
X221353380Y-73027540D01*
X221305120Y-73027540D01*
X221107000Y-73030080D01*
X220969840Y-73035160D01*
X220880940Y-73040240D01*
X220819980Y-73045320D01*
X220776800Y-73058020D01*
X220738700Y-73070720D01*
X220637100Y-73103740D01*
X220494860Y-73131680D01*
X220360240Y-73149460D01*
X220286580Y-73174860D01*
X220263720Y-73210420D01*
X220294200Y-73256140D01*
X220360240Y-73276460D01*
X220449140Y-73289160D01*
X220578680Y-73312020D01*
X220682820Y-73327260D01*
X220819980Y-73347580D01*
X221005400Y-73365360D01*
X221208600Y-73383140D01*
X221322900Y-73390760D01*
X221485460Y-73403460D01*
X221620080Y-73416160D01*
X221706440Y-73431400D01*
X221731840Y-73441560D01*
X221693740Y-73454260D01*
X221597220Y-73472040D01*
X221452440Y-73484740D01*
X221277180Y-73499980D01*
X221264480Y-73499980D01*
X220969840Y-73522840D01*
X220715840Y-73545700D01*
X220510100Y-73576180D01*
X220360240Y-73611740D01*
X220271340Y-73644760D01*
X220253560Y-73662540D01*
X220271340Y-73700640D01*
X220347540Y-73708260D01*
X220444060Y-73726040D01*
X220502480Y-73753980D01*
X220560900Y-73774300D01*
X220687900Y-73794620D01*
X220880940Y-73809860D01*
X221124780Y-73820020D01*
X221381320Y-73835260D01*
X221561660Y-73847960D01*
X221673420Y-73865740D01*
X221719140Y-73888600D01*
X221719140Y-73888600D01*
X221703900Y-73911460D01*
X221632780Y-73926700D01*
X221503240Y-73936860D01*
X221302580Y-73947020D01*
X221246700Y-73949560D01*
X221046040Y-73957180D01*
X220858080Y-73974960D01*
X220705680Y-73992740D01*
X220606620Y-74010520D01*
X220606620Y-74013060D01*
X220484700Y-74046080D01*
X220378020Y-74068940D01*
X220362780Y-74071480D01*
X220276420Y-74094340D01*
X220253560Y-74129900D01*
X220291660Y-74160380D01*
X220347540Y-74165460D01*
X220444060Y-74183240D01*
X220502480Y-74211180D01*
X220560900Y-74231500D01*
X220687900Y-74251820D01*
X220883480Y-74267060D01*
X221129860Y-74277220D01*
X221355920Y-74289920D01*
X221518480Y-74300080D01*
X221622620Y-74310240D01*
X221683580Y-74325480D01*
X221708980Y-74345800D01*
X221711520Y-74358500D01*
X221696280Y-74386440D01*
X221645480Y-74404220D01*
X221548960Y-74414380D01*
X221388940Y-74422000D01*
X221348300Y-74422000D01*
X221107000Y-74432160D01*
X220870780Y-74449940D01*
X220659960Y-74470260D01*
X220477080Y-74498200D01*
X220339920Y-74526140D01*
X220261180Y-74554080D01*
X220245940Y-74574400D01*
X220276420Y-74612500D01*
X220350080Y-74622660D01*
X220446600Y-74640440D01*
X220502480Y-74668380D01*
X220560900Y-74688700D01*
X220687900Y-74709020D01*
X220880940Y-74724260D01*
X221124780Y-74734420D01*
X221386400Y-74749660D01*
X221569280Y-74762360D01*
X221681040Y-74780140D01*
X221719140Y-74803000D01*
X221701360Y-74823320D01*
X221625160Y-74838560D01*
X221488000Y-74851260D01*
X221282260Y-74861420D01*
X221228920Y-74863960D01*
X220977460Y-74871580D01*
X220792040Y-74884280D01*
X220659960Y-74894440D01*
X220565980Y-74914760D01*
X220499940Y-74935080D01*
X220469460Y-74952860D01*
X220385640Y-74983340D01*
X220342460Y-74988420D01*
X220273880Y-75011280D01*
X220253560Y-75034140D01*
X220271340Y-75072240D01*
X220347540Y-75082400D01*
X220444060Y-75097640D01*
X220502480Y-75128120D01*
X220560900Y-75148440D01*
X220687900Y-75168760D01*
X220880940Y-75184000D01*
X221124780Y-75194160D01*
X221381320Y-75206860D01*
X221561660Y-75222100D01*
X221673420Y-75239880D01*
X221719140Y-75260200D01*
X221719140Y-75262740D01*
X221703900Y-75283060D01*
X221632780Y-75300840D01*
X221500700Y-75311000D01*
X221300040Y-75323700D01*
X221246700Y-75326240D01*
X220972380Y-75338940D01*
X220728540Y-75361800D01*
X220522800Y-75389740D01*
X220367860Y-75422760D01*
X220271340Y-75458320D01*
X220245940Y-75491340D01*
X220276420Y-75531980D01*
X220322140Y-75539600D01*
X220418660Y-75559920D01*
X220484700Y-75585320D01*
X220553280Y-75605640D01*
X220682820Y-75620880D01*
X220858080Y-75636120D01*
X221066360Y-75651360D01*
X221137480Y-75651360D01*
X221388940Y-75664060D01*
X221569280Y-75679300D01*
X221678500Y-75697080D01*
X221719140Y-75719940D01*
X221719140Y-75719940D01*
X221703900Y-75740260D01*
X221632780Y-75758040D01*
X221500700Y-75768200D01*
X221300040Y-75780900D01*
X221246700Y-75780900D01*
X220964760Y-75796140D01*
X220718380Y-75816460D01*
X220515180Y-75846940D01*
X220362780Y-75879960D01*
X220271340Y-75915520D01*
X220245940Y-75948540D01*
X220276420Y-75986640D01*
X220350080Y-75996800D01*
X220444060Y-76012040D01*
X220497400Y-76037440D01*
X220545660Y-76052680D01*
X220652340Y-76067920D01*
X220804740Y-76088240D01*
X220985080Y-76108560D01*
X221178120Y-76126340D01*
X221366080Y-76139040D01*
X221531180Y-76146660D01*
X221607380Y-76149200D01*
X221673420Y-76161900D01*
X221691200Y-76184760D01*
X221655640Y-76200000D01*
X221559120Y-76215240D01*
X221414340Y-76227940D01*
X221234000Y-76238100D01*
X221208600Y-76238100D01*
X220982540Y-76245720D01*
X220822520Y-76255880D01*
X220705680Y-76268580D01*
X220614240Y-76283820D01*
X220538040Y-76306680D01*
X220461840Y-76334620D01*
X220372940Y-76362560D01*
X220314520Y-76367640D01*
X220266260Y-76387960D01*
X220256100Y-76405740D01*
X220271340Y-76443840D01*
X220347540Y-76454000D01*
X220444060Y-76469240D01*
X220499940Y-76497180D01*
X220555820Y-76517500D01*
X220672660Y-76535280D01*
X220835220Y-76550520D01*
X220995240Y-76560680D01*
X221444820Y-76578460D01*
X221584520Y-76713080D01*
X221663260Y-76794360D01*
X221703900Y-76862940D01*
X221706440Y-76883260D01*
X221665800Y-76883260D01*
X221599760Y-76837540D01*
X221574360Y-76812140D01*
X221505780Y-76756260D01*
X221444820Y-76725780D01*
X221358460Y-76713080D01*
X221226380Y-76713080D01*
X221185740Y-76713080D01*
X220957140Y-76725780D01*
X220741240Y-76746100D01*
X220548200Y-76771500D01*
X220393260Y-76796900D01*
X220289120Y-76827380D01*
X220245940Y-76857860D01*
X220245940Y-76860400D01*
X220276420Y-76901040D01*
X220350080Y-76911200D01*
X220446600Y-76926440D01*
X220499940Y-76954380D01*
X220558360Y-76977240D01*
X220680280Y-76995020D01*
X220853000Y-77010260D01*
X221025720Y-77017880D01*
X221503240Y-77038200D01*
X221617540Y-77165200D01*
X221686120Y-77259180D01*
X221726760Y-77343000D01*
X221734380Y-77396340D01*
X221714060Y-77409040D01*
X221681040Y-77383640D01*
X221615000Y-77320140D01*
X221561660Y-77269340D01*
X221421960Y-77132180D01*
X221007940Y-77147420D01*
X220792040Y-77160120D01*
X220637100Y-77180440D01*
X220538040Y-77208380D01*
X220497400Y-77228700D01*
X220400880Y-77274420D01*
X220322140Y-77294740D01*
X220258640Y-77317600D01*
X220245940Y-77350620D01*
X220212920Y-77396340D01*
X220164660Y-77409040D01*
X220111320Y-77421740D01*
X220108780Y-77442060D01*
X220111320Y-77495400D01*
X220093540Y-77594460D01*
X220065600Y-77698600D01*
X220027500Y-77863700D01*
X219997020Y-78036420D01*
X219986860Y-78120240D01*
X219971620Y-78323440D01*
X220428820Y-78323440D01*
X220888560Y-78323440D01*
X221020640Y-78463140D01*
X221099380Y-78554580D01*
X221134940Y-78613000D01*
X221119700Y-78623160D01*
X221061280Y-78579980D01*
X221013020Y-78536800D01*
X220967300Y-78496160D01*
X220919040Y-78465680D01*
X220855540Y-78450440D01*
X220764100Y-78440280D01*
X220624400Y-78437740D01*
X220426280Y-78437740D01*
X220243400Y-78435200D01*
X220088460Y-78427580D01*
X219976700Y-78417420D01*
X219925900Y-78404720D01*
X219925900Y-78404720D01*
X219910660Y-78351380D01*
X219897960Y-78247240D01*
X219887800Y-78155800D01*
X219875100Y-78031340D01*
X219859860Y-77942440D01*
X219849700Y-77914500D01*
X219831920Y-77861160D01*
X219824300Y-77784960D01*
X219814140Y-77698600D01*
X219788740Y-77655420D01*
X219760800Y-77602080D01*
X219748100Y-77520800D01*
X219740480Y-77439520D01*
X219715080Y-77409040D01*
X219694760Y-77416660D01*
X219676980Y-77457300D01*
X219654120Y-77538580D01*
X219626180Y-77678280D01*
X219610940Y-77751940D01*
X219588080Y-77848460D01*
X219565220Y-77917040D01*
X219562680Y-77922120D01*
X219555060Y-77972920D01*
X219544900Y-78084680D01*
X219539820Y-78234540D01*
X219539820Y-78379320D01*
X219539820Y-78798420D01*
X220004640Y-78808580D01*
X220469460Y-78818740D01*
X220687900Y-79065120D01*
X220825060Y-79209900D01*
X220929200Y-79291180D01*
X220992700Y-79311500D01*
X221081600Y-79341980D01*
X221112080Y-79387700D01*
X220985080Y-79387700D01*
X220934280Y-79420720D01*
X220931740Y-79446120D01*
X220957140Y-79491840D01*
X221018100Y-79499460D01*
X221056200Y-79479140D01*
X221066360Y-79430880D01*
X221023180Y-79395320D01*
X220985080Y-79387700D01*
X221112080Y-79387700D01*
X221129860Y-79418180D01*
X221117160Y-79507080D01*
X221117160Y-79514700D01*
X221048580Y-79568040D01*
X220967300Y-79570580D01*
X220893640Y-79527400D01*
X220855540Y-79446120D01*
X220853000Y-79425800D01*
X220827600Y-79375000D01*
X220759020Y-79286100D01*
X220659960Y-79176880D01*
X220614240Y-79128620D01*
X220375480Y-78894940D01*
X219913200Y-78894940D01*
X219453460Y-78894940D01*
X219425520Y-78610460D01*
X219415360Y-78440280D01*
X219407740Y-78267560D01*
X219407740Y-78143100D01*
X219407740Y-78023720D01*
X219402660Y-77927200D01*
X219395040Y-77901800D01*
X219356940Y-77759560D01*
X219326460Y-77597000D01*
X219316300Y-77510640D01*
X219290900Y-77429360D01*
X219250260Y-77409040D01*
X219217240Y-77444600D01*
X219181680Y-77548740D01*
X219151200Y-77721460D01*
X219123260Y-77947520D01*
X219100400Y-78221840D01*
X219085160Y-78486000D01*
X219067380Y-78897480D01*
X219237560Y-79085440D01*
X219321380Y-79184500D01*
X219382340Y-79263240D01*
X219405200Y-79298800D01*
X219379800Y-79291180D01*
X219316300Y-79248000D01*
X219232480Y-79179420D01*
X219143580Y-79100680D01*
X219064840Y-79024480D01*
X219026740Y-78981300D01*
X218991180Y-78930500D01*
X218968320Y-78867000D01*
X218955620Y-78778100D01*
X218948000Y-78643480D01*
X218945460Y-78450440D01*
X218945460Y-78419960D01*
X218945460Y-78221840D01*
X218932760Y-78033880D01*
X218920060Y-77878940D01*
X218904820Y-77787500D01*
X218876880Y-77657960D01*
X218861640Y-77541120D01*
X218859100Y-77510640D01*
X218841320Y-77434440D01*
X218808300Y-77409040D01*
X218785440Y-77414120D01*
X218765120Y-77449680D01*
X218744800Y-77520800D01*
X218716860Y-77645260D01*
X218696540Y-77759560D01*
X218671140Y-77856080D01*
X218648280Y-77919580D01*
X218648280Y-77922120D01*
X218635580Y-77972920D01*
X218625420Y-78082140D01*
X218617800Y-78242160D01*
X218612720Y-78432660D01*
X218610180Y-78511400D01*
X218602560Y-79065120D01*
X218841320Y-79301340D01*
X218968320Y-79413100D01*
X219080080Y-79499460D01*
X219163900Y-79542640D01*
X219176600Y-79547720D01*
X219245180Y-79570580D01*
X219265500Y-79616300D01*
X219158820Y-79616300D01*
X219108020Y-79649320D01*
X219102940Y-79674720D01*
X219130880Y-79722980D01*
X219158820Y-79730600D01*
X219209620Y-79700120D01*
X219217240Y-79674720D01*
X219184220Y-79623920D01*
X219158820Y-79616300D01*
X219265500Y-79616300D01*
X219270580Y-79634080D01*
X219273120Y-79674720D01*
X219262960Y-79758540D01*
X219212160Y-79791560D01*
X219168980Y-79801720D01*
X219090240Y-79796640D01*
X219054680Y-79750920D01*
X219039440Y-79697580D01*
X218991180Y-79598520D01*
X218884500Y-79463900D01*
X218772740Y-79349600D01*
X218531440Y-79115920D01*
X218531440Y-78531720D01*
X218528900Y-78325980D01*
X218521280Y-78150720D01*
X218511120Y-78018640D01*
X218503500Y-77937360D01*
X218495880Y-77924660D01*
X218465400Y-77873860D01*
X218442540Y-77784960D01*
X218442540Y-77777340D01*
X218401900Y-77581760D01*
X218371420Y-77457300D01*
X218340940Y-77403960D01*
X218315540Y-77421740D01*
X218290140Y-77505560D01*
X218287600Y-77510640D01*
X218267280Y-77617320D01*
X218236800Y-77749400D01*
X218229180Y-77787500D01*
X218213940Y-77894180D01*
X218201240Y-78054200D01*
X218191080Y-78247240D01*
X218188540Y-78440280D01*
X218186000Y-78696820D01*
X218175840Y-78938120D01*
X218165680Y-79148940D01*
X218150440Y-79319120D01*
X218135200Y-79441040D01*
X218117420Y-79499460D01*
X218112340Y-79502000D01*
X218099640Y-79468980D01*
X218092020Y-79367380D01*
X218079320Y-79212440D01*
X218071700Y-79016860D01*
X218061540Y-78793340D01*
X218059000Y-78778100D01*
X218043760Y-78359000D01*
X218020900Y-78018640D01*
X217992960Y-77754480D01*
X217959940Y-77563980D01*
X217921840Y-77447140D01*
X217878660Y-77409040D01*
X217878660Y-77409040D01*
X217830400Y-77431900D01*
X217830400Y-77480160D01*
X217827860Y-77569060D01*
X217805000Y-77637640D01*
X217789760Y-77701140D01*
X217771980Y-77828140D01*
X217754200Y-78005940D01*
X217733880Y-78214220D01*
X217723720Y-78412340D01*
X217688160Y-79103220D01*
X217482420Y-79311500D01*
X217350340Y-79463900D01*
X217274140Y-79585820D01*
X217258900Y-79636620D01*
X217251280Y-79697580D01*
X217243660Y-79687420D01*
X217238580Y-79606140D01*
X217238580Y-79595980D01*
X217241120Y-79509620D01*
X217266520Y-79438500D01*
X217322400Y-79359760D01*
X217426540Y-79253080D01*
X217619580Y-79065120D01*
X217599260Y-78493620D01*
X217589100Y-78229460D01*
X217576400Y-78026260D01*
X217563700Y-77876400D01*
X217545920Y-77764640D01*
X217523060Y-77678280D01*
X217492580Y-77609700D01*
X217469720Y-77520800D01*
X217477340Y-77467460D01*
X217472260Y-77414120D01*
X217441780Y-77409040D01*
X217396060Y-77439520D01*
X217385900Y-77513180D01*
X217368120Y-77609700D01*
X217340180Y-77665580D01*
X217319860Y-77726540D01*
X217299540Y-77863700D01*
X217286840Y-78074520D01*
X217274140Y-78364080D01*
X217274140Y-78394560D01*
X217251280Y-79080360D01*
X217070940Y-79242920D01*
X216890600Y-79408020D01*
X216890600Y-79758540D01*
X216893140Y-79913480D01*
X216905840Y-80040480D01*
X216918540Y-80116680D01*
X216928700Y-80131920D01*
X216956640Y-80182720D01*
X216956640Y-80187800D01*
X216834720Y-80187800D01*
X216781380Y-80220820D01*
X216776300Y-80246220D01*
X216806780Y-80294480D01*
X216834720Y-80302100D01*
X216885520Y-80271620D01*
X216890600Y-80246220D01*
X216860120Y-80195420D01*
X216834720Y-80187800D01*
X216956640Y-80187800D01*
X216966800Y-80246220D01*
X216936320Y-80327500D01*
X216865200Y-80368140D01*
X216781380Y-80352900D01*
X216745820Y-80324960D01*
X216707720Y-80279240D01*
X216707720Y-80228440D01*
X216748360Y-80147160D01*
X216753440Y-80131920D01*
X216791540Y-80045560D01*
X216809320Y-79946500D01*
X216811860Y-79809340D01*
X216806780Y-79700120D01*
X216789000Y-79400400D01*
X216974420Y-79194660D01*
X217159840Y-78988920D01*
X217147140Y-78455520D01*
X217134440Y-78135480D01*
X217109040Y-77884020D01*
X217068400Y-77703680D01*
X217068400Y-77698600D01*
X217037920Y-77576680D01*
X217022680Y-77480160D01*
X217025220Y-77442060D01*
X217012520Y-77414120D01*
X216976960Y-77409040D01*
X216938860Y-77414120D01*
X216913460Y-77452220D01*
X216893140Y-77525880D01*
X216875360Y-77655420D01*
X216860120Y-77777340D01*
X216839800Y-77978000D01*
X216819480Y-78214220D01*
X216804240Y-78463140D01*
X216796620Y-78623160D01*
X216786460Y-78833980D01*
X216773760Y-78983840D01*
X216755980Y-79080360D01*
X216730580Y-79143860D01*
X216715340Y-79164180D01*
X216651840Y-79217520D01*
X216611200Y-79237840D01*
X216606120Y-79214980D01*
X216639140Y-79164180D01*
X216664540Y-79126080D01*
X216682320Y-79072740D01*
X216692480Y-78991460D01*
X216692480Y-78869540D01*
X216687400Y-78691740D01*
X216682320Y-78582520D01*
X216664540Y-78252320D01*
X216641680Y-77965300D01*
X216613740Y-77734160D01*
X216588340Y-77558900D01*
X216555320Y-77449680D01*
X216522300Y-77409040D01*
X216522300Y-77409040D01*
X216484200Y-77442060D01*
X216471500Y-77520800D01*
X216458800Y-77607160D01*
X216433400Y-77655420D01*
X216405460Y-77708760D01*
X216395300Y-77787500D01*
X216382600Y-77873860D01*
X216359740Y-77919580D01*
X216347040Y-77962760D01*
X216336880Y-78069440D01*
X216326720Y-78224380D01*
X216321640Y-78412340D01*
X216319100Y-78503780D01*
X216316560Y-78704440D01*
X216308940Y-78877160D01*
X216296240Y-79011780D01*
X216286080Y-79087980D01*
X216278460Y-79100680D01*
X216265760Y-79080360D01*
X216253060Y-78986380D01*
X216245440Y-78826360D01*
X216242900Y-78600300D01*
X216242900Y-78521560D01*
X216240360Y-78287880D01*
X216232740Y-78097380D01*
X216222580Y-77962760D01*
X216209880Y-77891640D01*
X216204800Y-77884020D01*
X216176860Y-77830680D01*
X216166700Y-77751940D01*
X216154000Y-77663040D01*
X216128600Y-77617320D01*
X216098120Y-77563980D01*
X216090500Y-77500480D01*
X216072720Y-77429360D01*
X216039700Y-77409040D01*
X216001600Y-77436980D01*
X216004140Y-77503020D01*
X215999060Y-77599540D01*
X215971120Y-77657960D01*
X215948260Y-77724000D01*
X215927940Y-77853540D01*
X215915240Y-78054200D01*
X215905080Y-78267560D01*
X215889840Y-78816200D01*
X215407240Y-78816200D01*
X214924640Y-78816200D01*
X214744300Y-78999080D01*
X214652860Y-79103220D01*
X214589360Y-79189580D01*
X214584280Y-79197200D01*
X214434420Y-79197200D01*
X214381080Y-79227680D01*
X214376000Y-79255620D01*
X214406480Y-79306420D01*
X214434420Y-79311500D01*
X214485220Y-79283560D01*
X214490300Y-79255620D01*
X214459820Y-79204820D01*
X214434420Y-79197200D01*
X214584280Y-79197200D01*
X214566500Y-79240380D01*
X214530940Y-79324200D01*
X214454740Y-79377540D01*
X214386160Y-79380080D01*
X214332820Y-79341980D01*
X214320120Y-79255620D01*
X214330280Y-79171800D01*
X214378540Y-79136240D01*
X214421720Y-79128620D01*
X214520780Y-79087980D01*
X214642700Y-78981300D01*
X214706200Y-78910180D01*
X214884000Y-78704440D01*
X215325960Y-78694280D01*
X215765380Y-78684120D01*
X215755220Y-78303120D01*
X215742520Y-78046580D01*
X215719660Y-77820520D01*
X215694260Y-77632560D01*
X215661240Y-77495400D01*
X215628220Y-77419200D01*
X215605360Y-77409040D01*
X215569800Y-77439520D01*
X215557100Y-77513180D01*
X215541860Y-77607160D01*
X215516460Y-77660500D01*
X215496140Y-77711300D01*
X215475820Y-77823060D01*
X215458040Y-77970380D01*
X215450420Y-78056740D01*
X215422480Y-78417420D01*
X215044020Y-78427580D01*
X214853520Y-78437740D01*
X214726520Y-78450440D01*
X214645240Y-78473300D01*
X214589360Y-78506320D01*
X214586820Y-78508860D01*
X214505540Y-78574900D01*
X214452200Y-78607920D01*
X214416640Y-78623160D01*
X214426800Y-78600300D01*
X214449660Y-78567280D01*
X214538560Y-78452980D01*
X214607140Y-78381860D01*
X214683340Y-78341220D01*
X214784940Y-78325980D01*
X214934800Y-78323440D01*
X214990680Y-78323440D01*
X215328500Y-78323440D01*
X215328500Y-78165960D01*
X215308180Y-77967840D01*
X215259920Y-77754480D01*
X215204040Y-77609700D01*
X215183720Y-77520800D01*
X215188800Y-77467460D01*
X215186260Y-77419200D01*
X215135460Y-77409040D01*
X215074500Y-77381100D01*
X215061800Y-77332840D01*
X215041480Y-77276960D01*
X215008460Y-77276960D01*
X214939880Y-77274420D01*
X214845900Y-77241400D01*
X214833200Y-77236320D01*
X214731600Y-77200760D01*
X214586820Y-77170280D01*
X214454740Y-77152500D01*
X214317580Y-77142340D01*
X214238840Y-77142340D01*
X214200740Y-77160120D01*
X214182960Y-77203300D01*
X214175340Y-77233780D01*
X214165180Y-77317600D01*
X214157560Y-77452220D01*
X214152480Y-77617320D01*
X214149940Y-77706220D01*
X214142320Y-77896720D01*
X214127080Y-78026260D01*
X214104220Y-78107540D01*
X214081360Y-78140560D01*
X214020400Y-78191360D01*
X213982300Y-78209140D01*
X213974680Y-78186280D01*
X214007700Y-78138020D01*
X214033100Y-78097380D01*
X214050880Y-78031340D01*
X214063580Y-77929740D01*
X214068660Y-77779880D01*
X214071200Y-77569060D01*
X214071200Y-77551280D01*
X214071200Y-77038200D01*
X214419180Y-77015340D01*
X214576660Y-77000100D01*
X214708740Y-76982320D01*
X214790020Y-76962000D01*
X214807800Y-76954380D01*
X214873840Y-76921360D01*
X214955120Y-76911200D01*
X215033860Y-76895960D01*
X215059260Y-76862940D01*
X215026240Y-76829920D01*
X214927180Y-76796900D01*
X214779860Y-76771500D01*
X214594440Y-76748640D01*
X214383620Y-76728320D01*
X214165180Y-76723240D01*
X214099140Y-76723240D01*
X213766400Y-76723240D01*
X213766400Y-77114400D01*
X213766400Y-77503020D01*
X213271100Y-77998320D01*
X213113620Y-78158340D01*
X212976460Y-78300580D01*
X212867240Y-78417420D01*
X212834220Y-78458060D01*
X212664040Y-78458060D01*
X212618320Y-78460600D01*
X212592920Y-78506320D01*
X212605620Y-78552040D01*
X212648800Y-78572360D01*
X212691980Y-78541880D01*
X212699600Y-78511400D01*
X212671660Y-78463140D01*
X212664040Y-78458060D01*
X212834220Y-78458060D01*
X212798660Y-78498700D01*
X212775800Y-78534260D01*
X212747860Y-78595220D01*
X212722460Y-78623160D01*
X212643720Y-78646020D01*
X212564980Y-78615540D01*
X212514180Y-78549500D01*
X212509100Y-78513940D01*
X212537040Y-78432660D01*
X212600540Y-78376780D01*
X212674200Y-78371700D01*
X212719920Y-78351380D01*
X212811360Y-78282800D01*
X212938360Y-78168500D01*
X213098380Y-78016100D01*
X213169500Y-77944980D01*
X213614000Y-77503020D01*
X213614000Y-77040740D01*
X213614000Y-76578460D01*
X214182960Y-76563220D01*
X214439500Y-76553060D01*
X214630000Y-76537820D01*
X214751920Y-76520040D01*
X214810340Y-76497180D01*
X214894160Y-76464160D01*
X214965280Y-76464160D01*
X215038940Y-76464160D01*
X215059260Y-76423520D01*
X215061800Y-76418440D01*
X215033860Y-76367640D01*
X214950040Y-76349860D01*
X214942420Y-76349860D01*
X214840820Y-76332080D01*
X214769700Y-76296520D01*
X214701120Y-76273660D01*
X214561420Y-76255880D01*
X214350600Y-76240640D01*
X214182960Y-76233020D01*
X213649560Y-76217780D01*
X213235540Y-76624180D01*
X213078060Y-76779120D01*
X212963760Y-76888340D01*
X212879940Y-76959460D01*
X212816440Y-77000100D01*
X212763100Y-77020420D01*
X212704680Y-77022960D01*
X212656420Y-77017880D01*
X212491320Y-77005180D01*
X212641180Y-76974700D01*
X212712300Y-76951840D01*
X212785960Y-76908660D01*
X212872320Y-76840080D01*
X212984080Y-76735940D01*
X213133940Y-76583540D01*
X213179660Y-76537820D01*
X213565740Y-76131420D01*
X214162640Y-76108560D01*
X214411560Y-76095860D01*
X214604600Y-76083160D01*
X214736680Y-76062840D01*
X214802720Y-76042520D01*
X214805260Y-76039980D01*
X214873840Y-76009500D01*
X214955120Y-75996800D01*
X215036400Y-75979020D01*
X215061800Y-75943460D01*
X215033860Y-75907900D01*
X214944960Y-75879960D01*
X214812880Y-75862180D01*
X214683340Y-75844400D01*
X214584280Y-75821540D01*
X214543640Y-75803760D01*
X214500460Y-75791060D01*
X214393780Y-75780900D01*
X214241380Y-75773280D01*
X214050880Y-75768200D01*
X213961980Y-75768200D01*
X213403180Y-75768200D01*
X213136480Y-76039980D01*
X212991700Y-76179680D01*
X212862160Y-76306680D01*
X212747860Y-76405740D01*
X212666580Y-76471780D01*
X212618320Y-76499720D01*
X212613240Y-76484480D01*
X212631020Y-76461620D01*
X212679280Y-76400660D01*
X212770720Y-76299060D01*
X212890100Y-76172060D01*
X213024720Y-76029820D01*
X213042500Y-76014580D01*
X213390480Y-75653900D01*
X213949280Y-75651360D01*
X214165180Y-75651360D01*
X214368380Y-75641200D01*
X214538560Y-75628500D01*
X214657940Y-75615800D01*
X214680800Y-75610720D01*
X214810340Y-75582780D01*
X214927180Y-75567540D01*
X214957660Y-75565000D01*
X215041480Y-75539600D01*
X215061800Y-75496420D01*
X215044020Y-75460860D01*
X214983060Y-75435460D01*
X214863680Y-75415140D01*
X214812880Y-75407520D01*
X214683340Y-75389740D01*
X214586820Y-75366880D01*
X214546180Y-75346560D01*
X214503000Y-75333860D01*
X214393780Y-75323700D01*
X214241380Y-75316080D01*
X214050880Y-75311000D01*
X213961980Y-75311000D01*
X213403180Y-75311000D01*
X213116160Y-75598020D01*
X212989160Y-75725020D01*
X212895180Y-75808840D01*
X212824060Y-75857100D01*
X212760560Y-75877420D01*
X212686900Y-75882500D01*
X212671660Y-75882500D01*
X212572600Y-75877420D01*
X212514180Y-75857100D01*
X212509100Y-75844400D01*
X212542120Y-75819000D01*
X212623400Y-75808840D01*
X212633560Y-75808840D01*
X212699600Y-75798680D01*
X212765640Y-75768200D01*
X212846920Y-75707240D01*
X212958680Y-75605640D01*
X213057740Y-75506580D01*
X213354920Y-75206860D01*
X214053420Y-75194160D01*
X214337900Y-75184000D01*
X214548720Y-75173840D01*
X214693500Y-75161140D01*
X214779860Y-75143360D01*
X214800180Y-75130660D01*
X214873840Y-75095100D01*
X214955120Y-75082400D01*
X215038940Y-75064620D01*
X215061800Y-75029060D01*
X215033860Y-74988420D01*
X215011000Y-74990960D01*
X214942420Y-74990960D01*
X214850980Y-74965560D01*
X214772240Y-74937620D01*
X214690960Y-74914760D01*
X214599520Y-74896980D01*
X214477600Y-74886820D01*
X214309960Y-74876660D01*
X214088980Y-74869040D01*
X213979760Y-74866500D01*
X213410800Y-74848720D01*
X213179660Y-75074780D01*
X213057740Y-75186540D01*
X212948520Y-75288140D01*
X212867240Y-75359260D01*
X212857080Y-75371960D01*
X212793580Y-75417680D01*
X212775800Y-75415140D01*
X212801200Y-75374500D01*
X212862160Y-75298300D01*
X212948520Y-75199240D01*
X213060280Y-75082400D01*
X213106000Y-75039220D01*
X213365080Y-74785220D01*
X214066120Y-74747120D01*
X214299800Y-74731880D01*
X214503000Y-74714100D01*
X214663020Y-74696320D01*
X214767160Y-74678540D01*
X214805260Y-74665840D01*
X214873840Y-74635360D01*
X214955120Y-74622660D01*
X215033860Y-74609960D01*
X215061800Y-74574400D01*
X215026240Y-74543920D01*
X214922100Y-74513440D01*
X214762080Y-74485500D01*
X214556340Y-74460100D01*
X214315040Y-74442320D01*
X214048340Y-74432160D01*
X213888320Y-74429620D01*
X213380320Y-74422000D01*
X213067900Y-74734420D01*
X212925660Y-74871580D01*
X212818980Y-74965560D01*
X212742780Y-75016360D01*
X212679280Y-75041760D01*
X212633560Y-75044300D01*
X212547200Y-75034140D01*
X212509100Y-75011280D01*
X212509100Y-75008740D01*
X212542120Y-74980800D01*
X212618320Y-74968100D01*
X212679280Y-74957940D01*
X212745320Y-74917300D01*
X212834220Y-74846180D01*
X212953600Y-74729340D01*
X213045040Y-74635360D01*
X213362540Y-74300080D01*
X214053420Y-74279760D01*
X214335360Y-74269600D01*
X214546180Y-74256900D01*
X214690960Y-74241660D01*
X214779860Y-74223880D01*
X214807800Y-74208640D01*
X214894160Y-74175620D01*
X214965280Y-74178160D01*
X215038940Y-74178160D01*
X215059260Y-74134980D01*
X215028780Y-74081640D01*
X214957660Y-74066400D01*
X214805260Y-74048620D01*
X214668100Y-74023220D01*
X214576660Y-73992740D01*
X214543640Y-73972420D01*
X214500460Y-73959720D01*
X214393780Y-73952100D01*
X214241380Y-73941940D01*
X214053420Y-73939400D01*
X213969600Y-73936860D01*
X213413340Y-73936860D01*
X213128860Y-74208640D01*
X213006940Y-74315320D01*
X212907880Y-74399140D01*
X212839300Y-74447400D01*
X212818980Y-74452480D01*
X212836760Y-74419460D01*
X212897720Y-74345800D01*
X212991700Y-74239120D01*
X213083140Y-74147680D01*
X213365080Y-73865740D01*
X213954360Y-73842880D01*
X214157560Y-73835260D01*
X214332820Y-73825100D01*
X214467440Y-73817480D01*
X214546180Y-73807320D01*
X214558880Y-73804780D01*
X214607140Y-73792080D01*
X214685880Y-73787000D01*
X214769700Y-73774300D01*
X214812880Y-73748900D01*
X214866220Y-73720960D01*
X214947500Y-73708260D01*
X215033860Y-73695560D01*
X215061800Y-73660000D01*
X215023700Y-73629520D01*
X214917020Y-73599040D01*
X214746840Y-73571100D01*
X214518240Y-73548240D01*
X214236300Y-73527920D01*
X213913720Y-73515220D01*
X213619080Y-73505060D01*
X212923120Y-73492360D01*
X212811360Y-73385680D01*
X212727540Y-73294240D01*
X212702140Y-73248520D01*
X212730080Y-73243440D01*
X212808820Y-73291700D01*
X212836760Y-73309480D01*
X212933280Y-73375520D01*
X213024720Y-73400920D01*
X213146640Y-73393300D01*
X213149180Y-73390760D01*
X213245700Y-73385680D01*
X213400640Y-73378060D01*
X213601300Y-73370440D01*
X213827360Y-73365360D01*
X214033100Y-73362820D01*
X214302340Y-73360280D01*
X214505540Y-73352660D01*
X214647780Y-73339960D01*
X214746840Y-73327260D01*
X214807800Y-73306940D01*
X214823040Y-73299320D01*
X214917020Y-73263760D01*
X214985600Y-73263760D01*
X215046560Y-73263760D01*
X215059260Y-73210420D01*
X215049100Y-73154540D01*
X215033860Y-73144380D01*
X214965280Y-73146920D01*
X214861140Y-73134220D01*
X214739220Y-73113900D01*
X214632540Y-73088500D01*
X214558880Y-73065640D01*
X214543640Y-73058020D01*
X214500460Y-73045320D01*
X214393780Y-73037700D01*
X214238840Y-73030080D01*
X214050880Y-73025000D01*
X213936580Y-73022460D01*
X213352380Y-73022460D01*
X213022180Y-72682100D01*
X212885020Y-72550020D01*
X212765640Y-72440800D01*
X212669120Y-72362060D01*
X212610700Y-72326500D01*
X212610700Y-72326500D01*
X212570060Y-72313800D01*
X212605620Y-72308720D01*
X212638640Y-72306180D01*
X212699600Y-72311260D01*
X212765640Y-72344280D01*
X212852000Y-72407780D01*
X212968840Y-72517000D01*
X213078060Y-72618600D01*
X213405720Y-72938640D01*
X213862920Y-72923400D01*
X214195660Y-72908160D01*
X214457280Y-72892920D01*
X214645240Y-72875140D01*
X214762080Y-72854820D01*
X214815420Y-72831960D01*
X214815420Y-72831960D01*
X214866220Y-72806560D01*
X214947500Y-72793860D01*
X215033860Y-72778620D01*
X215059260Y-72743060D01*
X215018620Y-72704960D01*
X214957660Y-72694800D01*
X214820500Y-72677020D01*
X214685880Y-72654160D01*
X214581740Y-72623680D01*
X214548720Y-72605900D01*
X214497920Y-72593200D01*
X214386160Y-72585580D01*
X214226140Y-72577960D01*
X214030560Y-72570340D01*
X213918800Y-72570340D01*
X213326980Y-72565260D01*
X213009480Y-72242680D01*
X212849460Y-72082660D01*
X212727540Y-71981060D01*
X212641180Y-71927720D01*
X212600540Y-71920100D01*
X212526880Y-71899780D01*
X212509100Y-71861680D01*
X212542120Y-71815960D01*
X212618320Y-71805800D01*
X212681820Y-71815960D01*
X212755480Y-71856600D01*
X212857080Y-71935340D01*
X212991700Y-72057260D01*
X213067900Y-72128380D01*
X213405720Y-72448420D01*
X213956900Y-72448420D01*
X214170260Y-72448420D01*
X214370920Y-72440800D01*
X214541100Y-72428100D01*
X214660480Y-72415400D01*
X214680800Y-72410320D01*
X214810340Y-72379840D01*
X214929720Y-72356980D01*
X214957660Y-72351900D01*
X215041480Y-72311260D01*
X215061800Y-72257920D01*
X215089740Y-72196960D01*
X215135460Y-72186800D01*
X215191340Y-72166480D01*
X215191340Y-72130920D01*
X215193880Y-72059800D01*
X215216740Y-71991220D01*
X215247220Y-71932800D01*
X215267540Y-71876920D01*
X215285320Y-71810880D01*
X215295480Y-71719440D01*
X215303100Y-71592440D01*
X215308180Y-71412100D01*
X215315800Y-71170800D01*
X215333580Y-70553580D01*
X215056720Y-70264020D01*
X214947500Y-70144640D01*
X214861140Y-70045580D01*
X214807800Y-69979540D01*
X214800180Y-69959220D01*
X214830660Y-69979540D01*
X214906860Y-70037960D01*
X215011000Y-70131940D01*
X215107520Y-70218300D01*
X215402160Y-70490080D01*
X215440260Y-71211440D01*
X215452960Y-71442580D01*
X215468200Y-71645780D01*
X215485980Y-71808340D01*
X215501220Y-71922640D01*
X215516460Y-71970900D01*
X215549480Y-72036940D01*
X215557100Y-72100440D01*
X215577420Y-72169020D01*
X215607900Y-72186800D01*
X215643460Y-72148700D01*
X215676480Y-72036940D01*
X215706960Y-71856600D01*
X215732360Y-71610220D01*
X215757760Y-71300340D01*
X215767920Y-71089520D01*
X215793320Y-70584060D01*
X215493600Y-70253860D01*
X215381840Y-70129400D01*
X215295480Y-70027800D01*
X215244680Y-69961760D01*
X215237060Y-69941440D01*
X215282780Y-69971920D01*
X215366600Y-70045580D01*
X215483440Y-70144640D01*
X215582500Y-70236080D01*
X215889840Y-70518020D01*
X215905080Y-71213980D01*
X215915240Y-71490840D01*
X215925400Y-71699120D01*
X215938100Y-71846440D01*
X215955880Y-71935340D01*
X215971120Y-71970900D01*
X216006680Y-72059800D01*
X216001600Y-72108060D01*
X216004140Y-72174100D01*
X216027000Y-72186800D01*
X216062560Y-72151240D01*
X216103200Y-72067420D01*
X216123520Y-72006460D01*
X216159080Y-71876920D01*
X216197180Y-71767700D01*
X216207340Y-71737220D01*
X216220040Y-71668640D01*
X216230200Y-71539100D01*
X216237820Y-71368920D01*
X216242900Y-71168260D01*
X216242900Y-71107300D01*
X216242900Y-70566280D01*
X215938100Y-70261480D01*
X215633300Y-69959220D01*
X215633300Y-69682360D01*
X215628220Y-69545200D01*
X215615520Y-69441060D01*
X215597740Y-69385180D01*
X215595200Y-69385180D01*
X215564720Y-69334380D01*
X215557100Y-69270880D01*
X215585040Y-69189600D01*
X215656160Y-69151500D01*
X215656160Y-69151500D01*
G36*
X218579700Y-69303900D02*
X218602560Y-69308980D01*
X218605100Y-69329300D01*
X218592400Y-69362320D01*
X218579700Y-69354700D01*
X218577160Y-69308980D01*
X218579700Y-69303900D01*
X218579700Y-69303900D01*
X218579700Y-69303900D01*
G37*
X218579700Y-69303900D02*
X218602560Y-69308980D01*
X218605100Y-69329300D01*
X218592400Y-69362320D01*
X218579700Y-69354700D01*
X218577160Y-69308980D01*
X218579700Y-69303900D01*
X218579700Y-69303900D01*
G36*
X219577920Y-73919080D02*
X219633800Y-73944480D01*
X219679520Y-74028300D01*
X219697300Y-74079100D01*
X219725240Y-74228960D01*
X219748100Y-74432160D01*
X219763340Y-74665840D01*
X219768420Y-74902060D01*
X219760800Y-75125580D01*
X219748100Y-75257660D01*
X219715080Y-75473560D01*
X219676980Y-75620880D01*
X219631260Y-75702160D01*
X219575380Y-75725020D01*
X219567760Y-75722480D01*
X219506800Y-75676760D01*
X219456000Y-75562460D01*
X219422980Y-75379580D01*
X219402660Y-75125580D01*
X219397580Y-74815700D01*
X219402660Y-74498200D01*
X219420440Y-74254360D01*
X219450920Y-74076560D01*
X219496640Y-73967340D01*
X219560140Y-73921620D01*
X219577920Y-73919080D01*
X219577920Y-73919080D01*
X219577920Y-73919080D01*
G37*
X219577920Y-73919080D02*
X219633800Y-73944480D01*
X219679520Y-74028300D01*
X219697300Y-74079100D01*
X219725240Y-74228960D01*
X219748100Y-74432160D01*
X219763340Y-74665840D01*
X219768420Y-74902060D01*
X219760800Y-75125580D01*
X219748100Y-75257660D01*
X219715080Y-75473560D01*
X219676980Y-75620880D01*
X219631260Y-75702160D01*
X219575380Y-75725020D01*
X219567760Y-75722480D01*
X219506800Y-75676760D01*
X219456000Y-75562460D01*
X219422980Y-75379580D01*
X219402660Y-75125580D01*
X219397580Y-74815700D01*
X219402660Y-74498200D01*
X219420440Y-74254360D01*
X219450920Y-74076560D01*
X219496640Y-73967340D01*
X219560140Y-73921620D01*
X219577920Y-73919080D01*
X219577920Y-73919080D01*
G36*
X216715340Y-73101200D02*
X216837260Y-73136760D01*
X216941400Y-73243440D01*
X217025220Y-73408540D01*
X216707720Y-73408540D01*
X216608660Y-73454260D01*
X216501980Y-73566020D01*
X216400380Y-73733660D01*
X216301320Y-73959720D01*
X216209880Y-74241660D01*
X216181940Y-74348340D01*
X216131140Y-74554080D01*
X216100660Y-74696320D01*
X216090500Y-74780140D01*
X216108280Y-74815700D01*
X216148920Y-74810620D01*
X216214960Y-74777600D01*
X216245440Y-74757280D01*
X216374980Y-74686160D01*
X216532460Y-74612500D01*
X216697560Y-74546460D01*
X216844880Y-74498200D01*
X216954100Y-74472800D01*
X216974420Y-74472800D01*
X217012520Y-74467720D01*
X217032840Y-74447400D01*
X217043000Y-74391520D01*
X217040460Y-74292460D01*
X217030300Y-74140060D01*
X217015060Y-73967340D01*
X216992200Y-73809860D01*
X216969340Y-73693020D01*
X216961720Y-73670160D01*
X216888060Y-73512680D01*
X216801700Y-73426320D01*
X216707720Y-73408540D01*
X217025220Y-73408540D01*
X217027760Y-73413620D01*
X217093800Y-73642220D01*
X217136980Y-73924160D01*
X217144600Y-74020680D01*
X217167460Y-74348340D01*
X217276680Y-74127360D01*
X217360500Y-73987660D01*
X217457020Y-73865740D01*
X217551000Y-73761600D01*
X217642440Y-73687940D01*
X217718640Y-73652380D01*
X217769440Y-73660000D01*
X217779600Y-73723500D01*
X217802460Y-73774300D01*
X217878660Y-73787000D01*
X217982800Y-73797160D01*
X218015820Y-73840340D01*
X217992960Y-73906380D01*
X217977720Y-73959720D01*
X218015820Y-73977500D01*
X218028520Y-73977500D01*
X218109800Y-73995280D01*
X218127580Y-74041000D01*
X218104720Y-74076560D01*
X218084400Y-74119740D01*
X218104720Y-74129900D01*
X218130120Y-74162920D01*
X218137740Y-74241660D01*
X218137740Y-74249280D01*
X218109800Y-74348340D01*
X218041220Y-74399140D01*
X217939620Y-74427080D01*
X217881200Y-74434700D01*
X217840560Y-74439780D01*
X217812620Y-74467720D01*
X217789760Y-74531220D01*
X217764360Y-74648060D01*
X217749120Y-74757280D01*
X217716100Y-74894440D01*
X217665300Y-75039220D01*
X217652600Y-75074780D01*
X216545160Y-75074780D01*
X216395300Y-75097640D01*
X216232740Y-75125580D01*
X216131140Y-75163680D01*
X216077800Y-75219560D01*
X216057480Y-75318620D01*
X216052400Y-75468480D01*
X216052400Y-75481180D01*
X216062560Y-75742800D01*
X216100660Y-75971400D01*
X216156540Y-76149200D01*
X216230200Y-76273660D01*
X216316560Y-76337160D01*
X216352120Y-76339700D01*
X216448640Y-76304140D01*
X216552780Y-76200000D01*
X216656920Y-76029820D01*
X216766140Y-75806300D01*
X216837260Y-75615800D01*
X216888060Y-75465940D01*
X216913460Y-75377040D01*
X216913460Y-75333860D01*
X216885520Y-75333860D01*
X216829640Y-75359260D01*
X216816940Y-75366880D01*
X216588340Y-75526900D01*
X216397840Y-75745340D01*
X216369900Y-75788520D01*
X216291160Y-75902820D01*
X216235280Y-75956160D01*
X216207340Y-75951080D01*
X216204800Y-75930760D01*
X216222580Y-75834240D01*
X216263220Y-75692000D01*
X216319100Y-75531980D01*
X216382600Y-75377040D01*
X216428320Y-75290680D01*
X216545160Y-75074780D01*
X217652600Y-75074780D01*
X217650060Y-75079860D01*
X217599260Y-75239880D01*
X217578940Y-75404980D01*
X217589100Y-75554840D01*
X217629740Y-75661520D01*
X217642440Y-75676760D01*
X217711020Y-75732640D01*
X217817700Y-75811380D01*
X217911680Y-75872340D01*
X218036140Y-75958700D01*
X218099640Y-76014580D01*
X218097100Y-76037440D01*
X218031060Y-76019660D01*
X217909140Y-75971400D01*
X217805000Y-75923140D01*
X217655140Y-75852020D01*
X217517980Y-75798680D01*
X217413840Y-75770740D01*
X217388440Y-75768200D01*
X217251280Y-75735180D01*
X217142060Y-75638660D01*
X217083640Y-75488800D01*
X217081100Y-75481180D01*
X217053160Y-75331320D01*
X217025220Y-75445620D01*
X216926160Y-75798680D01*
X216816940Y-76103480D01*
X216697560Y-76354940D01*
X216573100Y-76542900D01*
X216446100Y-76677520D01*
X216319100Y-76741020D01*
X216197180Y-76738480D01*
X216080340Y-76662280D01*
X216080340Y-76662280D01*
X215986360Y-76532740D01*
X215915240Y-76349860D01*
X215866980Y-76108560D01*
X215836500Y-75798680D01*
X215833960Y-75742800D01*
X215811100Y-75316080D01*
X215722200Y-75377040D01*
X215653620Y-75410060D01*
X215638380Y-75389740D01*
X215673940Y-75316080D01*
X215742520Y-75214480D01*
X215831420Y-75051920D01*
X215879680Y-74848720D01*
X215879680Y-74833480D01*
X215930480Y-74515980D01*
X216004140Y-74208640D01*
X216098120Y-73924160D01*
X216204800Y-73665080D01*
X216321640Y-73446640D01*
X216443560Y-73271380D01*
X216565480Y-73157080D01*
X216687400Y-73103740D01*
X216715340Y-73101200D01*
X216715340Y-73101200D01*
X216715340Y-73101200D01*
G37*
X216715340Y-73101200D02*
X216837260Y-73136760D01*
X216941400Y-73243440D01*
X217025220Y-73408540D01*
X216707720Y-73408540D01*
X216608660Y-73454260D01*
X216501980Y-73566020D01*
X216400380Y-73733660D01*
X216301320Y-73959720D01*
X216209880Y-74241660D01*
X216181940Y-74348340D01*
X216131140Y-74554080D01*
X216100660Y-74696320D01*
X216090500Y-74780140D01*
X216108280Y-74815700D01*
X216148920Y-74810620D01*
X216214960Y-74777600D01*
X216245440Y-74757280D01*
X216374980Y-74686160D01*
X216532460Y-74612500D01*
X216697560Y-74546460D01*
X216844880Y-74498200D01*
X216954100Y-74472800D01*
X216974420Y-74472800D01*
X217012520Y-74467720D01*
X217032840Y-74447400D01*
X217043000Y-74391520D01*
X217040460Y-74292460D01*
X217030300Y-74140060D01*
X217015060Y-73967340D01*
X216992200Y-73809860D01*
X216969340Y-73693020D01*
X216961720Y-73670160D01*
X216888060Y-73512680D01*
X216801700Y-73426320D01*
X216707720Y-73408540D01*
X217025220Y-73408540D01*
X217027760Y-73413620D01*
X217093800Y-73642220D01*
X217136980Y-73924160D01*
X217144600Y-74020680D01*
X217167460Y-74348340D01*
X217276680Y-74127360D01*
X217360500Y-73987660D01*
X217457020Y-73865740D01*
X217551000Y-73761600D01*
X217642440Y-73687940D01*
X217718640Y-73652380D01*
X217769440Y-73660000D01*
X217779600Y-73723500D01*
X217802460Y-73774300D01*
X217878660Y-73787000D01*
X217982800Y-73797160D01*
X218015820Y-73840340D01*
X217992960Y-73906380D01*
X217977720Y-73959720D01*
X218015820Y-73977500D01*
X218028520Y-73977500D01*
X218109800Y-73995280D01*
X218127580Y-74041000D01*
X218104720Y-74076560D01*
X218084400Y-74119740D01*
X218104720Y-74129900D01*
X218130120Y-74162920D01*
X218137740Y-74241660D01*
X218137740Y-74249280D01*
X218109800Y-74348340D01*
X218041220Y-74399140D01*
X217939620Y-74427080D01*
X217881200Y-74434700D01*
X217840560Y-74439780D01*
X217812620Y-74467720D01*
X217789760Y-74531220D01*
X217764360Y-74648060D01*
X217749120Y-74757280D01*
X217716100Y-74894440D01*
X217665300Y-75039220D01*
X217652600Y-75074780D01*
X216545160Y-75074780D01*
X216395300Y-75097640D01*
X216232740Y-75125580D01*
X216131140Y-75163680D01*
X216077800Y-75219560D01*
X216057480Y-75318620D01*
X216052400Y-75468480D01*
X216052400Y-75481180D01*
X216062560Y-75742800D01*
X216100660Y-75971400D01*
X216156540Y-76149200D01*
X216230200Y-76273660D01*
X216316560Y-76337160D01*
X216352120Y-76339700D01*
X216448640Y-76304140D01*
X216552780Y-76200000D01*
X216656920Y-76029820D01*
X216766140Y-75806300D01*
X216837260Y-75615800D01*
X216888060Y-75465940D01*
X216913460Y-75377040D01*
X216913460Y-75333860D01*
X216885520Y-75333860D01*
X216829640Y-75359260D01*
X216816940Y-75366880D01*
X216588340Y-75526900D01*
X216397840Y-75745340D01*
X216369900Y-75788520D01*
X216291160Y-75902820D01*
X216235280Y-75956160D01*
X216207340Y-75951080D01*
X216204800Y-75930760D01*
X216222580Y-75834240D01*
X216263220Y-75692000D01*
X216319100Y-75531980D01*
X216382600Y-75377040D01*
X216428320Y-75290680D01*
X216545160Y-75074780D01*
X217652600Y-75074780D01*
X217650060Y-75079860D01*
X217599260Y-75239880D01*
X217578940Y-75404980D01*
X217589100Y-75554840D01*
X217629740Y-75661520D01*
X217642440Y-75676760D01*
X217711020Y-75732640D01*
X217817700Y-75811380D01*
X217911680Y-75872340D01*
X218036140Y-75958700D01*
X218099640Y-76014580D01*
X218097100Y-76037440D01*
X218031060Y-76019660D01*
X217909140Y-75971400D01*
X217805000Y-75923140D01*
X217655140Y-75852020D01*
X217517980Y-75798680D01*
X217413840Y-75770740D01*
X217388440Y-75768200D01*
X217251280Y-75735180D01*
X217142060Y-75638660D01*
X217083640Y-75488800D01*
X217081100Y-75481180D01*
X217053160Y-75331320D01*
X217025220Y-75445620D01*
X216926160Y-75798680D01*
X216816940Y-76103480D01*
X216697560Y-76354940D01*
X216573100Y-76542900D01*
X216446100Y-76677520D01*
X216319100Y-76741020D01*
X216197180Y-76738480D01*
X216080340Y-76662280D01*
X216080340Y-76662280D01*
X215986360Y-76532740D01*
X215915240Y-76349860D01*
X215866980Y-76108560D01*
X215836500Y-75798680D01*
X215833960Y-75742800D01*
X215811100Y-75316080D01*
X215722200Y-75377040D01*
X215653620Y-75410060D01*
X215638380Y-75389740D01*
X215673940Y-75316080D01*
X215742520Y-75214480D01*
X215831420Y-75051920D01*
X215879680Y-74848720D01*
X215879680Y-74833480D01*
X215930480Y-74515980D01*
X216004140Y-74208640D01*
X216098120Y-73924160D01*
X216204800Y-73665080D01*
X216321640Y-73446640D01*
X216443560Y-73271380D01*
X216565480Y-73157080D01*
X216687400Y-73103740D01*
X216715340Y-73101200D01*
X216715340Y-73101200D01*
M02*
