G04 (created by PCBNEW-RS274X (2012-apr-16-27)-stable) date sam. 01 juin 2013 19:50:37 CST*
G01*
G70*
G90*
%MOIN*%
G04 Gerber Fmt 3.4, Leading zero omitted, Abs format*
%FSLAX34Y34*%
G04 APERTURE LIST*
%ADD10C,0.006000*%
%ADD11R,0.060000X0.060000*%
%ADD12C,0.060000*%
%ADD13C,0.055000*%
%ADD14C,0.056000*%
%ADD15R,0.015700X0.041300*%
%ADD16R,0.007100X0.015700*%
%ADD17C,0.035000*%
%ADD18C,0.008000*%
%ADD19C,0.006800*%
G04 APERTURE END LIST*
G54D10*
G54D11*
X54900Y-18300D03*
G54D12*
X57900Y-19300D03*
X57900Y-18300D03*
X54900Y-19300D03*
G54D13*
X53050Y-20250D03*
X56050Y-20250D03*
X59800Y-20250D03*
X56800Y-20250D03*
G54D14*
X57450Y-16650D03*
X55450Y-16650D03*
G54D13*
X54100Y-19300D03*
X54100Y-18300D03*
X58700Y-18300D03*
X58700Y-19300D03*
G54D15*
X55764Y-18185D03*
X56020Y-18185D03*
X56276Y-18185D03*
X56276Y-18815D03*
X56020Y-18815D03*
X55764Y-18815D03*
G54D16*
X56890Y-19516D03*
X57087Y-19516D03*
X57087Y-19044D03*
X56890Y-19044D03*
X56693Y-19044D03*
X56693Y-19516D03*
G54D17*
X54826Y-16770D03*
X58408Y-16721D03*
X56267Y-17138D03*
G54D18*
X56996Y-18821D02*
X56996Y-18133D01*
X56020Y-18185D02*
X56020Y-17829D01*
X56996Y-18133D02*
X58408Y-16721D01*
X54961Y-16770D02*
X54826Y-16770D01*
X56020Y-17829D02*
X54961Y-16770D01*
G54D19*
X56996Y-18821D02*
X56888Y-18929D01*
G54D18*
X56890Y-18937D02*
X56888Y-18935D01*
X56890Y-19044D02*
X56890Y-18937D01*
G54D19*
X56888Y-18929D02*
X56888Y-18935D01*
G54D18*
X57087Y-19108D02*
X57087Y-19080D01*
X57087Y-19044D02*
X57087Y-19080D01*
X56276Y-18185D02*
X56276Y-17147D01*
X56276Y-17147D02*
X56267Y-17138D01*
X57087Y-19108D02*
X57087Y-19265D01*
X57087Y-19265D02*
X57237Y-19265D01*
X57237Y-19265D02*
X57274Y-19302D01*
X57274Y-19302D02*
X57274Y-19776D01*
X57274Y-19776D02*
X56800Y-20250D01*
X56587Y-16892D02*
X56345Y-16650D01*
X56345Y-16650D02*
X55450Y-16650D01*
X56510Y-17451D02*
X56587Y-17374D01*
X56587Y-17374D02*
X56587Y-16892D01*
X56510Y-18581D02*
X56510Y-17451D01*
X57087Y-19635D02*
X56934Y-19788D01*
X57087Y-19516D02*
X57087Y-19635D01*
X54100Y-19300D02*
X54100Y-19788D01*
X53638Y-20250D02*
X53050Y-20250D01*
X56934Y-19788D02*
X54100Y-19788D01*
X54100Y-19788D02*
X53638Y-20250D01*
X56276Y-18815D02*
X56510Y-18581D01*
X57457Y-19483D02*
X58224Y-20250D01*
X58224Y-20250D02*
X59800Y-20250D01*
X57457Y-19117D02*
X57457Y-19483D01*
X57717Y-18857D02*
X57457Y-19117D01*
X58143Y-18857D02*
X57717Y-18857D01*
X58700Y-18300D02*
X58143Y-18857D01*
X56693Y-17528D02*
X56929Y-17292D01*
X56929Y-16534D02*
X56542Y-16147D01*
X56929Y-17292D02*
X56929Y-16534D01*
X54999Y-16147D02*
X54508Y-16638D01*
X56542Y-16147D02*
X54999Y-16147D01*
X54508Y-16638D02*
X54508Y-16934D01*
X55409Y-17835D02*
X55764Y-17835D01*
X54508Y-16934D02*
X55409Y-17835D01*
X55764Y-18185D02*
X55764Y-17835D01*
X57236Y-16227D02*
X56929Y-16534D01*
X58390Y-16227D02*
X57236Y-16227D01*
X58742Y-17458D02*
X58742Y-16579D01*
X58742Y-16579D02*
X58390Y-16227D01*
X57900Y-18300D02*
X58742Y-17458D01*
X56693Y-19044D02*
X56693Y-17528D01*
X56020Y-19118D02*
X56196Y-19294D01*
X56890Y-19516D02*
X56890Y-19294D01*
X56196Y-19294D02*
X56890Y-19294D01*
X56020Y-18815D02*
X56020Y-19095D01*
X54100Y-18520D02*
X54100Y-18300D01*
X54324Y-18744D02*
X54100Y-18520D01*
X55143Y-18744D02*
X54324Y-18744D01*
X55564Y-19165D02*
X55143Y-18744D01*
X55973Y-19165D02*
X55564Y-19165D01*
X56020Y-19118D02*
X55973Y-19165D01*
X57900Y-19300D02*
X58700Y-19300D01*
X56020Y-19095D02*
X56020Y-19118D01*
M02*
