G04 (created by PCBNEW-RS274X (2012-apr-16-27)-stable) date sam. 01 juin 2013 19:50:37 CST*
G01*
G70*
G90*
%MOIN*%
G04 Gerber Fmt 3.4, Leading zero omitted, Abs format*
%FSLAX34Y34*%
G04 APERTURE LIST*
%ADD10C,0.006000*%
%ADD11C,0.006300*%
%ADD12C,0.000100*%
G04 APERTURE END LIST*
G54D10*
G54D11*
X58155Y-15977D02*
X58167Y-15989D01*
X58202Y-16001D01*
X58226Y-16001D01*
X58262Y-15989D01*
X58286Y-15965D01*
X58297Y-15942D01*
X58309Y-15894D01*
X58309Y-15858D01*
X58297Y-15811D01*
X58286Y-15787D01*
X58262Y-15763D01*
X58226Y-15751D01*
X58202Y-15751D01*
X58167Y-15763D01*
X58155Y-15775D01*
X58012Y-16001D02*
X58036Y-15989D01*
X58047Y-15977D01*
X58059Y-15954D01*
X58059Y-15882D01*
X58047Y-15858D01*
X58036Y-15846D01*
X58012Y-15835D01*
X57976Y-15835D01*
X57952Y-15846D01*
X57940Y-15858D01*
X57928Y-15882D01*
X57928Y-15954D01*
X57940Y-15977D01*
X57952Y-15989D01*
X57976Y-16001D01*
X58012Y-16001D01*
X57821Y-15835D02*
X57821Y-16085D01*
X57821Y-15846D02*
X57798Y-15835D01*
X57750Y-15835D01*
X57726Y-15846D01*
X57714Y-15858D01*
X57702Y-15882D01*
X57702Y-15954D01*
X57714Y-15977D01*
X57726Y-15989D01*
X57750Y-16001D01*
X57798Y-16001D01*
X57821Y-15989D01*
X57631Y-15835D02*
X57536Y-15835D01*
X57595Y-15751D02*
X57595Y-15965D01*
X57584Y-15989D01*
X57560Y-16001D01*
X57536Y-16001D01*
X57357Y-15989D02*
X57381Y-16001D01*
X57429Y-16001D01*
X57452Y-15989D01*
X57464Y-15965D01*
X57464Y-15870D01*
X57452Y-15846D01*
X57429Y-15835D01*
X57381Y-15835D01*
X57357Y-15846D01*
X57345Y-15870D01*
X57345Y-15894D01*
X57464Y-15918D01*
X57262Y-16001D02*
X57131Y-15835D01*
X57262Y-15835D02*
X57131Y-16001D01*
X56846Y-16001D02*
X56846Y-15751D01*
X56751Y-15751D01*
X56727Y-15763D01*
X56716Y-15775D01*
X56704Y-15799D01*
X56704Y-15835D01*
X56716Y-15858D01*
X56727Y-15870D01*
X56751Y-15882D01*
X56846Y-15882D01*
X56596Y-16001D02*
X56596Y-15835D01*
X56596Y-15882D02*
X56585Y-15858D01*
X56573Y-15846D01*
X56549Y-15835D01*
X56525Y-15835D01*
X56406Y-16001D02*
X56430Y-15989D01*
X56441Y-15977D01*
X56453Y-15954D01*
X56453Y-15882D01*
X56441Y-15858D01*
X56430Y-15846D01*
X56406Y-15835D01*
X56370Y-15835D01*
X56346Y-15846D01*
X56334Y-15858D01*
X56322Y-15882D01*
X56322Y-15954D01*
X56334Y-15977D01*
X56346Y-15989D01*
X56370Y-16001D01*
X56406Y-16001D01*
X56215Y-15835D02*
X56215Y-16049D01*
X56227Y-16073D01*
X56251Y-16085D01*
X56263Y-16085D01*
X56215Y-15751D02*
X56227Y-15763D01*
X56215Y-15775D01*
X56204Y-15763D01*
X56215Y-15751D01*
X56215Y-15775D01*
X56001Y-15989D02*
X56025Y-16001D01*
X56073Y-16001D01*
X56096Y-15989D01*
X56108Y-15965D01*
X56108Y-15870D01*
X56096Y-15846D01*
X56073Y-15835D01*
X56025Y-15835D01*
X56001Y-15846D01*
X55989Y-15870D01*
X55989Y-15894D01*
X56108Y-15918D01*
X55775Y-15989D02*
X55799Y-16001D01*
X55847Y-16001D01*
X55871Y-15989D01*
X55882Y-15977D01*
X55894Y-15954D01*
X55894Y-15882D01*
X55882Y-15858D01*
X55871Y-15846D01*
X55847Y-15835D01*
X55799Y-15835D01*
X55775Y-15846D01*
X55704Y-15835D02*
X55609Y-15835D01*
X55668Y-15751D02*
X55668Y-15965D01*
X55657Y-15989D01*
X55633Y-16001D01*
X55609Y-16001D01*
X55347Y-15775D02*
X55335Y-15763D01*
X55312Y-15751D01*
X55252Y-15751D01*
X55228Y-15763D01*
X55216Y-15775D01*
X55205Y-15799D01*
X55205Y-15823D01*
X55216Y-15858D01*
X55359Y-16001D01*
X55205Y-16001D01*
X55050Y-15751D02*
X55026Y-15751D01*
X55002Y-15763D01*
X54990Y-15775D01*
X54978Y-15799D01*
X54967Y-15846D01*
X54967Y-15906D01*
X54978Y-15954D01*
X54990Y-15977D01*
X55002Y-15989D01*
X55026Y-16001D01*
X55050Y-16001D01*
X55074Y-15989D01*
X55086Y-15977D01*
X55097Y-15954D01*
X55109Y-15906D01*
X55109Y-15846D01*
X55097Y-15799D01*
X55086Y-15775D01*
X55074Y-15763D01*
X55050Y-15751D01*
X54729Y-16001D02*
X54871Y-16001D01*
X54800Y-16001D02*
X54800Y-15751D01*
X54824Y-15787D01*
X54848Y-15811D01*
X54871Y-15823D01*
X54645Y-15751D02*
X54491Y-15751D01*
X54574Y-15846D01*
X54538Y-15846D01*
X54514Y-15858D01*
X54502Y-15870D01*
X54491Y-15894D01*
X54491Y-15954D01*
X54502Y-15977D01*
X54514Y-15989D01*
X54538Y-16001D01*
X54610Y-16001D01*
X54633Y-15989D01*
X54645Y-15977D01*
G54D12*
G36*
X55099Y-20666D02*
X55076Y-20667D01*
X55072Y-20667D01*
X55049Y-20666D01*
X55051Y-20661D01*
X55054Y-20660D01*
X55086Y-20657D01*
X55099Y-20660D01*
X55099Y-20666D01*
X55099Y-20666D01*
X55099Y-20666D01*
G37*
G36*
X55320Y-20663D02*
X55312Y-20670D01*
X55305Y-20663D01*
X55312Y-20656D01*
X55320Y-20663D01*
X55320Y-20663D01*
X55320Y-20663D01*
G37*
G36*
X55915Y-20660D02*
X55912Y-20669D01*
X55905Y-20670D01*
X55892Y-20665D01*
X55895Y-20660D01*
X55912Y-20658D01*
X55915Y-20660D01*
X55915Y-20660D01*
X55915Y-20660D01*
G37*
G36*
X56155Y-20661D02*
X56152Y-20668D01*
X56136Y-20669D01*
X56120Y-20666D01*
X56127Y-20660D01*
X56151Y-20658D01*
X56155Y-20661D01*
X56155Y-20661D01*
X56155Y-20661D01*
G37*
G36*
X56380Y-20661D02*
X56377Y-20668D01*
X56361Y-20669D01*
X56345Y-20666D01*
X56352Y-20660D01*
X56376Y-20658D01*
X56380Y-20661D01*
X56380Y-20661D01*
X56380Y-20661D01*
G37*
G36*
X56616Y-20666D02*
X56595Y-20668D01*
X56574Y-20666D01*
X56576Y-20660D01*
X56607Y-20658D01*
X56614Y-20660D01*
X56616Y-20666D01*
X56616Y-20666D01*
X56616Y-20666D01*
G37*
G36*
X56846Y-20661D02*
X56842Y-20668D01*
X56827Y-20669D01*
X56810Y-20666D01*
X56818Y-20660D01*
X56841Y-20658D01*
X56846Y-20661D01*
X56846Y-20661D01*
X56846Y-20661D01*
G37*
G36*
X57071Y-20660D02*
X57068Y-20669D01*
X57061Y-20670D01*
X57048Y-20665D01*
X57050Y-20660D01*
X57068Y-20658D01*
X57071Y-20660D01*
X57071Y-20660D01*
X57071Y-20660D01*
G37*
G36*
X57311Y-20661D02*
X57306Y-20668D01*
X57291Y-20669D01*
X57276Y-20666D01*
X57282Y-20660D01*
X57305Y-20658D01*
X57311Y-20661D01*
X57311Y-20661D01*
X57311Y-20661D01*
G37*
G36*
X58675Y-17904D02*
X58670Y-17938D01*
X58659Y-17953D01*
X58650Y-17959D01*
X58650Y-17918D01*
X58638Y-17897D01*
X58628Y-17895D01*
X58608Y-17907D01*
X58605Y-17918D01*
X58618Y-17938D01*
X58628Y-17940D01*
X58647Y-17928D01*
X58650Y-17918D01*
X58650Y-17959D01*
X58639Y-17968D01*
X58620Y-17967D01*
X58589Y-17951D01*
X58538Y-17933D01*
X58475Y-17925D01*
X58466Y-17925D01*
X58431Y-17926D01*
X58404Y-17930D01*
X58379Y-17942D01*
X58349Y-17965D01*
X58309Y-18004D01*
X58268Y-18044D01*
X58148Y-18163D01*
X57953Y-18172D01*
X57825Y-18178D01*
X57725Y-18184D01*
X57650Y-18190D01*
X57600Y-18198D01*
X57571Y-18205D01*
X57562Y-18211D01*
X57542Y-18222D01*
X57517Y-18225D01*
X57488Y-18232D01*
X57480Y-18245D01*
X57494Y-18260D01*
X57536Y-18272D01*
X57601Y-18283D01*
X57685Y-18292D01*
X57787Y-18298D01*
X57903Y-18301D01*
X57917Y-18301D01*
X58123Y-18303D01*
X58171Y-18354D01*
X58205Y-18384D01*
X58234Y-18399D01*
X58276Y-18405D01*
X58304Y-18405D01*
X58351Y-18406D01*
X58370Y-18412D01*
X58366Y-18420D01*
X58337Y-18429D01*
X58293Y-18434D01*
X58274Y-18434D01*
X58223Y-18430D01*
X58188Y-18414D01*
X58170Y-18397D01*
X58155Y-18382D01*
X58139Y-18372D01*
X58115Y-18366D01*
X58081Y-18361D01*
X58028Y-18361D01*
X57953Y-18360D01*
X57924Y-18360D01*
X57798Y-18361D01*
X57690Y-18368D01*
X57602Y-18377D01*
X57535Y-18388D01*
X57494Y-18404D01*
X57480Y-18421D01*
X57489Y-18442D01*
X57499Y-18445D01*
X57534Y-18448D01*
X57584Y-18457D01*
X57632Y-18469D01*
X57664Y-18480D01*
X57687Y-18486D01*
X57735Y-18490D01*
X57800Y-18493D01*
X57879Y-18495D01*
X57920Y-18495D01*
X58007Y-18495D01*
X58070Y-18496D01*
X58114Y-18498D01*
X58142Y-18504D01*
X58161Y-18511D01*
X58176Y-18523D01*
X58185Y-18532D01*
X58219Y-18559D01*
X58262Y-18569D01*
X58286Y-18569D01*
X58332Y-18565D01*
X58367Y-18553D01*
X58374Y-18549D01*
X58405Y-18534D01*
X58439Y-18542D01*
X58463Y-18570D01*
X58464Y-18572D01*
X58463Y-18609D01*
X58442Y-18634D01*
X58435Y-18636D01*
X58435Y-18576D01*
X58420Y-18560D01*
X58398Y-18562D01*
X58394Y-18566D01*
X58385Y-18589D01*
X58396Y-18611D01*
X58411Y-18615D01*
X58430Y-18605D01*
X58433Y-18598D01*
X58435Y-18576D01*
X58435Y-18636D01*
X58411Y-18644D01*
X58377Y-18634D01*
X58366Y-18623D01*
X58334Y-18606D01*
X58278Y-18600D01*
X58270Y-18600D01*
X58215Y-18595D01*
X58177Y-18580D01*
X58159Y-18566D01*
X58142Y-18552D01*
X58124Y-18543D01*
X58098Y-18538D01*
X58059Y-18535D01*
X58000Y-18535D01*
X57926Y-18537D01*
X57793Y-18541D01*
X57690Y-18546D01*
X57617Y-18554D01*
X57574Y-18564D01*
X57562Y-18571D01*
X57542Y-18582D01*
X57517Y-18585D01*
X57489Y-18590D01*
X57480Y-18600D01*
X57493Y-18612D01*
X57517Y-18615D01*
X57548Y-18620D01*
X57562Y-18629D01*
X57581Y-18639D01*
X57625Y-18648D01*
X57696Y-18655D01*
X57795Y-18662D01*
X57923Y-18668D01*
X57938Y-18668D01*
X58148Y-18677D01*
X58325Y-18864D01*
X58395Y-18936D01*
X58448Y-18987D01*
X58487Y-19022D01*
X58516Y-19042D01*
X58538Y-19050D01*
X58543Y-19051D01*
X58568Y-19053D01*
X58566Y-19061D01*
X58560Y-19065D01*
X58529Y-19078D01*
X58517Y-19080D01*
X58500Y-19070D01*
X58465Y-19042D01*
X58418Y-19000D01*
X58360Y-18947D01*
X58312Y-18899D01*
X58128Y-18718D01*
X57906Y-18720D01*
X57820Y-18722D01*
X57740Y-18725D01*
X57673Y-18731D01*
X57625Y-18736D01*
X57615Y-18738D01*
X57566Y-18748D01*
X57524Y-18754D01*
X57514Y-18756D01*
X57486Y-18767D01*
X57480Y-18782D01*
X57495Y-18797D01*
X57539Y-18812D01*
X57612Y-18824D01*
X57714Y-18836D01*
X57843Y-18845D01*
X57926Y-18849D01*
X58138Y-18859D01*
X58224Y-18947D01*
X58263Y-18988D01*
X58291Y-19021D01*
X58304Y-19040D01*
X58304Y-19042D01*
X58289Y-19037D01*
X58259Y-19015D01*
X58219Y-18982D01*
X58210Y-18974D01*
X58124Y-18897D01*
X57855Y-18902D01*
X57745Y-18906D01*
X57662Y-18910D01*
X57606Y-18916D01*
X57575Y-18923D01*
X57567Y-18927D01*
X57539Y-18942D01*
X57515Y-18946D01*
X57488Y-18951D01*
X57480Y-18960D01*
X57493Y-18972D01*
X57517Y-18975D01*
X57548Y-18981D01*
X57563Y-18991D01*
X57583Y-19001D01*
X57615Y-19005D01*
X57649Y-19010D01*
X57668Y-19020D01*
X57686Y-19026D01*
X57730Y-19030D01*
X57797Y-19034D01*
X57882Y-19036D01*
X57912Y-19036D01*
X58148Y-19036D01*
X58264Y-19162D01*
X58310Y-19213D01*
X58348Y-19255D01*
X58372Y-19286D01*
X58380Y-19298D01*
X58370Y-19293D01*
X58342Y-19271D01*
X58300Y-19235D01*
X58250Y-19189D01*
X58246Y-19186D01*
X58111Y-19063D01*
X57904Y-19067D01*
X57826Y-19069D01*
X57755Y-19073D01*
X57699Y-19077D01*
X57665Y-19082D01*
X57660Y-19082D01*
X57623Y-19093D01*
X57573Y-19108D01*
X57551Y-19113D01*
X57511Y-19127D01*
X57485Y-19143D01*
X57480Y-19150D01*
X57492Y-19161D01*
X57511Y-19160D01*
X57546Y-19162D01*
X57563Y-19171D01*
X57588Y-19180D01*
X57641Y-19187D01*
X57722Y-19193D01*
X57834Y-19199D01*
X57856Y-19200D01*
X58127Y-19210D01*
X58189Y-19272D01*
X58226Y-19313D01*
X58242Y-19335D01*
X58237Y-19340D01*
X58213Y-19325D01*
X58179Y-19297D01*
X58122Y-19245D01*
X57932Y-19253D01*
X57795Y-19261D01*
X57680Y-19270D01*
X57590Y-19280D01*
X57526Y-19293D01*
X57489Y-19307D01*
X57480Y-19319D01*
X57494Y-19339D01*
X57514Y-19345D01*
X57549Y-19351D01*
X57598Y-19360D01*
X57615Y-19363D01*
X57670Y-19372D01*
X57736Y-19379D01*
X57773Y-19379D01*
X57839Y-19382D01*
X57915Y-19386D01*
X57964Y-19390D01*
X58065Y-19399D01*
X58065Y-19546D01*
X58065Y-19692D01*
X58150Y-19784D01*
X58203Y-19838D01*
X58243Y-19867D01*
X58270Y-19875D01*
X58302Y-19884D01*
X58315Y-19900D01*
X58316Y-19936D01*
X58294Y-19963D01*
X58290Y-19964D01*
X58290Y-19928D01*
X58278Y-19908D01*
X58268Y-19905D01*
X58248Y-19918D01*
X58245Y-19928D01*
X58258Y-19947D01*
X58268Y-19950D01*
X58287Y-19938D01*
X58290Y-19928D01*
X58290Y-19964D01*
X58259Y-19973D01*
X58230Y-19964D01*
X58218Y-19936D01*
X58205Y-19907D01*
X58175Y-19865D01*
X58133Y-19816D01*
X58122Y-19805D01*
X58031Y-19712D01*
X58034Y-19588D01*
X58033Y-19528D01*
X58030Y-19478D01*
X58025Y-19447D01*
X58022Y-19442D01*
X58001Y-19433D01*
X57957Y-19429D01*
X57897Y-19429D01*
X57825Y-19433D01*
X57747Y-19440D01*
X57670Y-19449D01*
X57599Y-19460D01*
X57540Y-19473D01*
X57499Y-19487D01*
X57481Y-19500D01*
X57480Y-19502D01*
X57493Y-19513D01*
X57514Y-19515D01*
X57549Y-19523D01*
X57566Y-19532D01*
X57586Y-19539D01*
X57632Y-19546D01*
X57697Y-19552D01*
X57775Y-19558D01*
X57790Y-19559D01*
X57998Y-19568D01*
X57992Y-19751D01*
X57987Y-19936D01*
X58057Y-20018D01*
X58096Y-20065D01*
X58113Y-20091D01*
X58109Y-20096D01*
X58085Y-20080D01*
X58041Y-20042D01*
X58028Y-20030D01*
X57953Y-19961D01*
X57948Y-19791D01*
X57943Y-19621D01*
X57813Y-19622D01*
X57743Y-19623D01*
X57675Y-19628D01*
X57623Y-19634D01*
X57615Y-19635D01*
X57567Y-19644D01*
X57527Y-19651D01*
X57518Y-19653D01*
X57488Y-19669D01*
X57477Y-19685D01*
X57458Y-19706D01*
X57445Y-19711D01*
X57427Y-19723D01*
X57415Y-19752D01*
X57407Y-19793D01*
X57395Y-19845D01*
X57392Y-19860D01*
X57383Y-19914D01*
X57377Y-19980D01*
X57376Y-20022D01*
X57376Y-20116D01*
X57523Y-20116D01*
X57672Y-20116D01*
X57742Y-20198D01*
X57774Y-20238D01*
X57796Y-20267D01*
X57802Y-20280D01*
X57801Y-20280D01*
X57786Y-20271D01*
X57754Y-20247D01*
X57713Y-20214D01*
X57710Y-20211D01*
X57629Y-20143D01*
X57484Y-20148D01*
X57345Y-20153D01*
X57345Y-19590D01*
X57345Y-18690D01*
X57345Y-17790D01*
X56445Y-17790D01*
X55545Y-17790D01*
X55545Y-18690D01*
X55545Y-19590D01*
X56445Y-19590D01*
X57345Y-19590D01*
X57345Y-20153D01*
X57338Y-20153D01*
X57328Y-20033D01*
X57318Y-19936D01*
X57306Y-19866D01*
X57292Y-19820D01*
X57282Y-19805D01*
X57273Y-19776D01*
X57273Y-19754D01*
X57269Y-19725D01*
X57259Y-19714D01*
X57244Y-19721D01*
X57241Y-19751D01*
X57234Y-19789D01*
X57223Y-19812D01*
X57215Y-19835D01*
X57207Y-19885D01*
X57201Y-19961D01*
X57197Y-20057D01*
X57192Y-20154D01*
X57187Y-20224D01*
X57180Y-20268D01*
X57172Y-20289D01*
X57169Y-20292D01*
X57161Y-20287D01*
X57154Y-20263D01*
X57151Y-20218D01*
X57149Y-20147D01*
X57149Y-20128D01*
X57148Y-20050D01*
X57146Y-19996D01*
X57144Y-19961D01*
X57142Y-19937D01*
X57137Y-19920D01*
X57132Y-19905D01*
X57119Y-19865D01*
X57108Y-19809D01*
X57101Y-19756D01*
X57091Y-19727D01*
X57077Y-19718D01*
X57059Y-19730D01*
X57051Y-19756D01*
X57046Y-19791D01*
X57037Y-19842D01*
X57031Y-19883D01*
X57023Y-19937D01*
X57016Y-20010D01*
X57009Y-20090D01*
X57006Y-20135D01*
X57001Y-20199D01*
X56996Y-20252D01*
X56990Y-20286D01*
X56986Y-20296D01*
X56981Y-20281D01*
X56974Y-20243D01*
X56969Y-20186D01*
X56963Y-20117D01*
X56963Y-20112D01*
X56954Y-19996D01*
X56945Y-19896D01*
X56933Y-19815D01*
X56919Y-19756D01*
X56906Y-19721D01*
X56899Y-19714D01*
X56884Y-19721D01*
X56881Y-19751D01*
X56874Y-19789D01*
X56863Y-19812D01*
X56855Y-19835D01*
X56847Y-19885D01*
X56841Y-19961D01*
X56837Y-20057D01*
X56831Y-20158D01*
X56826Y-20229D01*
X56819Y-20273D01*
X56810Y-20291D01*
X56810Y-20291D01*
X56801Y-20285D01*
X56795Y-20257D01*
X56791Y-20206D01*
X56787Y-20127D01*
X56786Y-20105D01*
X56783Y-20026D01*
X56776Y-19952D01*
X56769Y-19892D01*
X56762Y-19853D01*
X56761Y-19853D01*
X56748Y-19805D01*
X56739Y-19763D01*
X56738Y-19757D01*
X56729Y-19723D01*
X56715Y-19714D01*
X56703Y-19729D01*
X56701Y-19751D01*
X56694Y-19789D01*
X56683Y-19812D01*
X56675Y-19835D01*
X56667Y-19885D01*
X56661Y-19962D01*
X56657Y-20059D01*
X56652Y-20148D01*
X56648Y-20212D01*
X56644Y-20253D01*
X56638Y-20277D01*
X56630Y-20287D01*
X56625Y-20288D01*
X56614Y-20282D01*
X56607Y-20262D01*
X56603Y-20224D01*
X56600Y-20161D01*
X56600Y-20145D01*
X56596Y-20050D01*
X56589Y-19957D01*
X56581Y-19874D01*
X56570Y-19802D01*
X56559Y-19748D01*
X56548Y-19717D01*
X56540Y-19711D01*
X56525Y-19723D01*
X56521Y-19752D01*
X56514Y-19790D01*
X56503Y-19812D01*
X56495Y-19835D01*
X56487Y-19885D01*
X56481Y-19961D01*
X56477Y-20057D01*
X56471Y-20160D01*
X56466Y-20232D01*
X56459Y-20276D01*
X56450Y-20291D01*
X56442Y-20284D01*
X56436Y-20254D01*
X56431Y-20200D01*
X56427Y-20119D01*
X56426Y-20098D01*
X56423Y-19999D01*
X56418Y-19926D01*
X56414Y-19874D01*
X56406Y-19837D01*
X56398Y-19811D01*
X56391Y-19799D01*
X56379Y-19766D01*
X56377Y-19749D01*
X56368Y-19722D01*
X56359Y-19714D01*
X56344Y-19721D01*
X56340Y-19751D01*
X56334Y-19789D01*
X56322Y-19812D01*
X56314Y-19835D01*
X56306Y-19885D01*
X56300Y-19961D01*
X56296Y-20057D01*
X56291Y-20158D01*
X56285Y-20229D01*
X56278Y-20273D01*
X56270Y-20291D01*
X56269Y-20291D01*
X56261Y-20285D01*
X56254Y-20257D01*
X56250Y-20205D01*
X56245Y-20126D01*
X56244Y-20105D01*
X56239Y-19997D01*
X56230Y-19901D01*
X56219Y-19820D01*
X56206Y-19759D01*
X56192Y-19721D01*
X56179Y-19711D01*
X56163Y-19723D01*
X56160Y-19741D01*
X56152Y-19779D01*
X56142Y-19805D01*
X56134Y-19832D01*
X56128Y-19883D01*
X56122Y-19952D01*
X56116Y-20034D01*
X56116Y-20062D01*
X56111Y-20161D01*
X56105Y-20232D01*
X56098Y-20275D01*
X56089Y-20291D01*
X56089Y-20291D01*
X56081Y-20285D01*
X56074Y-20257D01*
X56070Y-20205D01*
X56065Y-20126D01*
X56065Y-20105D01*
X56059Y-19994D01*
X56051Y-19897D01*
X56039Y-19817D01*
X56026Y-19757D01*
X56012Y-19721D01*
X55999Y-19711D01*
X55984Y-19723D01*
X55980Y-19752D01*
X55974Y-19789D01*
X55964Y-19810D01*
X55958Y-19829D01*
X55952Y-19871D01*
X55944Y-19931D01*
X55936Y-20002D01*
X55929Y-20078D01*
X55924Y-20152D01*
X55921Y-20217D01*
X55920Y-20247D01*
X55915Y-20273D01*
X55906Y-20280D01*
X55900Y-20266D01*
X55894Y-20228D01*
X55889Y-20171D01*
X55885Y-20100D01*
X55885Y-20090D01*
X55882Y-20001D01*
X55878Y-19938D01*
X55873Y-19892D01*
X55867Y-19856D01*
X55858Y-19826D01*
X55847Y-19796D01*
X55836Y-19761D01*
X55834Y-19738D01*
X55826Y-19719D01*
X55819Y-19715D01*
X55804Y-19721D01*
X55800Y-19751D01*
X55794Y-19789D01*
X55783Y-19811D01*
X55775Y-19833D01*
X55768Y-19879D01*
X55762Y-19943D01*
X55758Y-20006D01*
X55751Y-20183D01*
X55698Y-20238D01*
X55666Y-20269D01*
X55639Y-20285D01*
X55631Y-20286D01*
X55631Y-20270D01*
X55649Y-20244D01*
X55659Y-20234D01*
X55681Y-20207D01*
X55693Y-20183D01*
X55698Y-20149D01*
X55698Y-20097D01*
X55698Y-20081D01*
X55693Y-19991D01*
X55685Y-19906D01*
X55675Y-19830D01*
X55665Y-19769D01*
X55653Y-19728D01*
X55641Y-19711D01*
X55640Y-19711D01*
X55624Y-19723D01*
X55620Y-19752D01*
X55614Y-19790D01*
X55603Y-19811D01*
X55594Y-19834D01*
X55587Y-19882D01*
X55581Y-19950D01*
X55578Y-20018D01*
X55570Y-20206D01*
X55520Y-20251D01*
X55483Y-20278D01*
X55450Y-20294D01*
X55429Y-20297D01*
X55424Y-20289D01*
X55434Y-20276D01*
X55459Y-20250D01*
X55479Y-20229D01*
X55533Y-20174D01*
X55527Y-20011D01*
X55522Y-19926D01*
X55514Y-19865D01*
X55503Y-19826D01*
X55495Y-19810D01*
X55477Y-19772D01*
X55469Y-19741D01*
X55460Y-19716D01*
X55447Y-19711D01*
X55429Y-19698D01*
X55424Y-19679D01*
X55419Y-19658D01*
X55411Y-19657D01*
X55390Y-19658D01*
X55351Y-19651D01*
X55310Y-19640D01*
X55245Y-19625D01*
X55177Y-19613D01*
X55144Y-19609D01*
X55064Y-19603D01*
X55064Y-19783D01*
X55064Y-19964D01*
X55009Y-20016D01*
X54973Y-20047D01*
X54950Y-20061D01*
X54946Y-20055D01*
X54963Y-20032D01*
X54980Y-20013D01*
X54996Y-19995D01*
X55008Y-19976D01*
X55014Y-19951D01*
X55018Y-19915D01*
X55019Y-19860D01*
X55019Y-19782D01*
X55020Y-19710D01*
X55023Y-19649D01*
X55027Y-19605D01*
X55032Y-19585D01*
X55032Y-19585D01*
X55053Y-19579D01*
X55094Y-19574D01*
X55130Y-19570D01*
X55179Y-19565D01*
X55214Y-19559D01*
X55225Y-19555D01*
X55246Y-19548D01*
X55276Y-19545D01*
X55310Y-19541D01*
X55327Y-19531D01*
X55348Y-19520D01*
X55380Y-19515D01*
X55412Y-19512D01*
X55424Y-19502D01*
X55421Y-19494D01*
X55405Y-19487D01*
X55373Y-19478D01*
X55318Y-19467D01*
X55289Y-19461D01*
X55251Y-19452D01*
X55224Y-19443D01*
X55222Y-19442D01*
X55202Y-19439D01*
X55158Y-19435D01*
X55099Y-19433D01*
X55042Y-19433D01*
X54877Y-19433D01*
X54873Y-19616D01*
X54869Y-19799D01*
X54772Y-19885D01*
X54715Y-19939D01*
X54683Y-19980D01*
X54675Y-20005D01*
X54663Y-20040D01*
X54645Y-20052D01*
X54645Y-20002D01*
X54632Y-19982D01*
X54622Y-19981D01*
X54604Y-19991D01*
X54601Y-20015D01*
X54609Y-20030D01*
X54628Y-20034D01*
X54642Y-20017D01*
X54645Y-20002D01*
X54645Y-20052D01*
X54633Y-20059D01*
X54598Y-20054D01*
X54595Y-20054D01*
X54574Y-20027D01*
X54573Y-19995D01*
X54590Y-19966D01*
X54622Y-19951D01*
X54630Y-19950D01*
X54650Y-19940D01*
X54685Y-19913D01*
X54728Y-19874D01*
X54747Y-19856D01*
X54839Y-19762D01*
X54839Y-19580D01*
X54839Y-19399D01*
X54951Y-19388D01*
X55018Y-19384D01*
X55086Y-19381D01*
X55135Y-19381D01*
X55182Y-19381D01*
X55220Y-19379D01*
X55230Y-19376D01*
X55286Y-19361D01*
X55350Y-19349D01*
X55384Y-19345D01*
X55416Y-19335D01*
X55424Y-19319D01*
X55410Y-19306D01*
X55369Y-19292D01*
X55301Y-19280D01*
X55212Y-19269D01*
X55104Y-19260D01*
X55000Y-19254D01*
X54838Y-19247D01*
X54764Y-19314D01*
X54725Y-19347D01*
X54694Y-19371D01*
X54680Y-19380D01*
X54683Y-19370D01*
X54700Y-19345D01*
X54727Y-19312D01*
X54758Y-19277D01*
X54788Y-19246D01*
X54805Y-19231D01*
X54825Y-19217D01*
X54850Y-19208D01*
X54885Y-19203D01*
X54938Y-19200D01*
X55014Y-19199D01*
X55026Y-19199D01*
X55104Y-19199D01*
X55178Y-19194D01*
X55239Y-19189D01*
X55275Y-19183D01*
X55326Y-19172D01*
X55372Y-19166D01*
X55384Y-19165D01*
X55414Y-19158D01*
X55424Y-19145D01*
X55422Y-19136D01*
X55408Y-19128D01*
X55380Y-19120D01*
X55331Y-19109D01*
X55286Y-19101D01*
X55248Y-19091D01*
X55223Y-19082D01*
X55222Y-19082D01*
X55202Y-19077D01*
X55159Y-19073D01*
X55096Y-19070D01*
X55021Y-19068D01*
X54990Y-19067D01*
X54772Y-19064D01*
X54679Y-19158D01*
X54635Y-19208D01*
X54601Y-19252D01*
X54584Y-19285D01*
X54582Y-19290D01*
X54573Y-19317D01*
X54555Y-19325D01*
X54555Y-19283D01*
X54542Y-19263D01*
X54532Y-19261D01*
X54513Y-19272D01*
X54510Y-19283D01*
X54522Y-19303D01*
X54532Y-19306D01*
X54552Y-19293D01*
X54555Y-19283D01*
X54555Y-19325D01*
X54548Y-19327D01*
X54532Y-19328D01*
X54499Y-19324D01*
X54486Y-19304D01*
X54482Y-19287D01*
X54484Y-19256D01*
X54502Y-19242D01*
X54523Y-19236D01*
X54562Y-19217D01*
X54615Y-19175D01*
X54660Y-19131D01*
X54752Y-19036D01*
X54982Y-19036D01*
X55063Y-19035D01*
X55132Y-19032D01*
X55184Y-19028D01*
X55216Y-19025D01*
X55221Y-19022D01*
X55241Y-19010D01*
X55276Y-19001D01*
X55279Y-19001D01*
X55356Y-18985D01*
X55405Y-18973D01*
X55426Y-18961D01*
X55419Y-18951D01*
X55386Y-18941D01*
X55384Y-18940D01*
X55342Y-18932D01*
X55290Y-18920D01*
X55275Y-18917D01*
X55233Y-18911D01*
X55170Y-18906D01*
X55094Y-18902D01*
X55018Y-18901D01*
X54917Y-18900D01*
X54822Y-18896D01*
X54739Y-18892D01*
X54672Y-18886D01*
X54624Y-18880D01*
X54601Y-18873D01*
X54600Y-18871D01*
X54613Y-18866D01*
X54653Y-18863D01*
X54714Y-18858D01*
X54791Y-18855D01*
X54879Y-18851D01*
X54885Y-18850D01*
X55050Y-18844D01*
X55184Y-18835D01*
X55288Y-18824D01*
X55363Y-18811D01*
X55409Y-18796D01*
X55424Y-18779D01*
X55424Y-18779D01*
X55415Y-18760D01*
X55396Y-18760D01*
X55361Y-18759D01*
X55334Y-18750D01*
X55309Y-18744D01*
X55259Y-18737D01*
X55189Y-18730D01*
X55107Y-18722D01*
X55029Y-18718D01*
X54757Y-18704D01*
X54675Y-18623D01*
X54615Y-18571D01*
X54567Y-18541D01*
X54547Y-18535D01*
X54523Y-18532D01*
X54527Y-18529D01*
X54559Y-18527D01*
X54563Y-18527D01*
X54597Y-18528D01*
X54625Y-18538D01*
X54656Y-18560D01*
X54698Y-18601D01*
X54772Y-18677D01*
X54997Y-18669D01*
X55101Y-18665D01*
X55181Y-18660D01*
X55240Y-18655D01*
X55284Y-18648D01*
X55318Y-18639D01*
X55345Y-18627D01*
X55380Y-18618D01*
X55401Y-18621D01*
X55422Y-18619D01*
X55424Y-18607D01*
X55412Y-18589D01*
X55383Y-18585D01*
X55345Y-18578D01*
X55323Y-18567D01*
X55299Y-18559D01*
X55245Y-18551D01*
X55162Y-18546D01*
X55048Y-18541D01*
X55036Y-18541D01*
X54766Y-18532D01*
X54702Y-18461D01*
X54637Y-18390D01*
X54499Y-18390D01*
X54438Y-18391D01*
X54388Y-18396D01*
X54358Y-18401D01*
X54352Y-18405D01*
X54332Y-18416D01*
X54330Y-18416D01*
X54330Y-18368D01*
X54317Y-18347D01*
X54307Y-18345D01*
X54288Y-18357D01*
X54285Y-18368D01*
X54297Y-18388D01*
X54307Y-18390D01*
X54327Y-18378D01*
X54330Y-18368D01*
X54330Y-18416D01*
X54307Y-18420D01*
X54275Y-18408D01*
X54259Y-18380D01*
X54265Y-18347D01*
X54276Y-18333D01*
X54294Y-18318D01*
X54314Y-18318D01*
X54346Y-18334D01*
X54352Y-18336D01*
X54386Y-18351D01*
X54425Y-18358D01*
X54479Y-18359D01*
X54522Y-18357D01*
X54640Y-18350D01*
X54721Y-18423D01*
X54802Y-18496D01*
X55012Y-18491D01*
X55138Y-18486D01*
X55237Y-18476D01*
X55308Y-18460D01*
X55310Y-18460D01*
X55358Y-18448D01*
X55396Y-18442D01*
X55411Y-18443D01*
X55422Y-18438D01*
X55424Y-18424D01*
X55422Y-18409D01*
X55407Y-18399D01*
X55378Y-18391D01*
X55327Y-18384D01*
X55279Y-18378D01*
X55200Y-18370D01*
X55107Y-18362D01*
X55009Y-18356D01*
X54946Y-18353D01*
X54863Y-18349D01*
X54804Y-18344D01*
X54766Y-18337D01*
X54741Y-18327D01*
X54733Y-18321D01*
X54712Y-18296D01*
X54704Y-18280D01*
X54713Y-18278D01*
X54733Y-18291D01*
X54748Y-18301D01*
X54769Y-18308D01*
X54801Y-18312D01*
X54849Y-18312D01*
X54919Y-18310D01*
X54962Y-18308D01*
X55092Y-18301D01*
X55205Y-18292D01*
X55296Y-18281D01*
X55365Y-18271D01*
X55408Y-18258D01*
X55424Y-18245D01*
X55424Y-18245D01*
X55411Y-18230D01*
X55380Y-18225D01*
X55346Y-18220D01*
X55327Y-18210D01*
X55306Y-18199D01*
X55275Y-18195D01*
X55241Y-18190D01*
X55223Y-18181D01*
X55206Y-18176D01*
X55164Y-18172D01*
X55103Y-18168D01*
X55029Y-18166D01*
X54993Y-18165D01*
X54914Y-18164D01*
X54846Y-18161D01*
X54793Y-18156D01*
X54763Y-18152D01*
X54758Y-18149D01*
X54766Y-18144D01*
X54803Y-18139D01*
X54866Y-18136D01*
X54955Y-18135D01*
X54986Y-18135D01*
X55078Y-18134D01*
X55153Y-18131D01*
X55206Y-18127D01*
X55234Y-18122D01*
X55237Y-18120D01*
X55258Y-18109D01*
X55289Y-18105D01*
X55324Y-18100D01*
X55342Y-18090D01*
X55363Y-18078D01*
X55388Y-18075D01*
X55416Y-18068D01*
X55424Y-18055D01*
X55413Y-18040D01*
X55387Y-18041D01*
X55349Y-18039D01*
X55326Y-18028D01*
X55300Y-18019D01*
X55249Y-18011D01*
X55170Y-18006D01*
X55086Y-18002D01*
X54870Y-17996D01*
X54870Y-17806D01*
X54870Y-17616D01*
X54798Y-17545D01*
X54757Y-17509D01*
X54723Y-17484D01*
X54720Y-17482D01*
X54720Y-17423D01*
X54708Y-17402D01*
X54697Y-17400D01*
X54677Y-17412D01*
X54675Y-17423D01*
X54686Y-17443D01*
X54697Y-17445D01*
X54717Y-17433D01*
X54720Y-17423D01*
X54720Y-17482D01*
X54703Y-17475D01*
X54670Y-17461D01*
X54649Y-17431D01*
X54648Y-17404D01*
X54663Y-17383D01*
X54697Y-17378D01*
X54730Y-17382D01*
X54744Y-17401D01*
X54747Y-17418D01*
X54763Y-17457D01*
X54805Y-17505D01*
X54833Y-17530D01*
X54914Y-17600D01*
X54918Y-17774D01*
X54922Y-17947D01*
X55072Y-17943D01*
X55173Y-17938D01*
X55262Y-17929D01*
X55336Y-17919D01*
X55390Y-17906D01*
X55420Y-17893D01*
X55424Y-17884D01*
X55412Y-17870D01*
X55383Y-17865D01*
X55346Y-17859D01*
X55325Y-17849D01*
X55305Y-17841D01*
X55261Y-17833D01*
X55203Y-17826D01*
X55169Y-17823D01*
X55027Y-17812D01*
X55023Y-17663D01*
X55019Y-17588D01*
X55014Y-17538D01*
X55005Y-17506D01*
X54992Y-17484D01*
X54991Y-17483D01*
X54965Y-17451D01*
X54952Y-17430D01*
X54946Y-17416D01*
X54955Y-17420D01*
X54968Y-17429D01*
X55013Y-17464D01*
X55041Y-17491D01*
X55057Y-17521D01*
X55063Y-17561D01*
X55064Y-17620D01*
X55064Y-17642D01*
X55064Y-17775D01*
X55126Y-17775D01*
X55204Y-17767D01*
X55288Y-17748D01*
X55345Y-17726D01*
X55380Y-17718D01*
X55401Y-17720D01*
X55420Y-17719D01*
X55424Y-17699D01*
X55435Y-17675D01*
X55454Y-17670D01*
X55476Y-17662D01*
X55476Y-17649D01*
X55477Y-17622D01*
X55490Y-17585D01*
X55492Y-17580D01*
X55506Y-17540D01*
X55518Y-17483D01*
X55525Y-17431D01*
X55529Y-17377D01*
X55529Y-17346D01*
X55522Y-17331D01*
X55505Y-17324D01*
X55493Y-17321D01*
X55460Y-17317D01*
X55407Y-17314D01*
X55342Y-17312D01*
X55307Y-17311D01*
X55232Y-17308D01*
X55181Y-17302D01*
X55149Y-17293D01*
X55136Y-17284D01*
X55116Y-17260D01*
X55109Y-17245D01*
X55118Y-17242D01*
X55137Y-17255D01*
X55153Y-17265D01*
X55179Y-17272D01*
X55219Y-17277D01*
X55278Y-17279D01*
X55361Y-17280D01*
X55368Y-17280D01*
X55570Y-17280D01*
X55579Y-17417D01*
X55585Y-17479D01*
X55592Y-17531D01*
X55600Y-17563D01*
X55603Y-17570D01*
X55616Y-17596D01*
X55620Y-17628D01*
X55626Y-17659D01*
X55639Y-17669D01*
X55652Y-17656D01*
X55665Y-17617D01*
X55675Y-17559D01*
X55684Y-17486D01*
X55692Y-17403D01*
X55694Y-17317D01*
X55694Y-17291D01*
X55694Y-17160D01*
X55540Y-17160D01*
X55387Y-17160D01*
X55192Y-16965D01*
X55129Y-16903D01*
X55073Y-16849D01*
X55027Y-16806D01*
X55011Y-16793D01*
X55011Y-16726D01*
X55010Y-16708D01*
X54992Y-16698D01*
X54974Y-16703D01*
X54966Y-16720D01*
X54978Y-16737D01*
X54990Y-16740D01*
X55009Y-16729D01*
X55011Y-16726D01*
X55011Y-16793D01*
X54995Y-16779D01*
X54981Y-16770D01*
X54957Y-16759D01*
X54946Y-16749D01*
X54937Y-16718D01*
X54949Y-16687D01*
X54975Y-16667D01*
X54989Y-16665D01*
X55021Y-16676D01*
X55043Y-16701D01*
X55045Y-16730D01*
X55053Y-16748D01*
X55080Y-16784D01*
X55125Y-16834D01*
X55185Y-16897D01*
X55213Y-16925D01*
X55387Y-17100D01*
X55569Y-17100D01*
X55751Y-17100D01*
X55757Y-17324D01*
X55761Y-17425D01*
X55767Y-17500D01*
X55774Y-17548D01*
X55783Y-17571D01*
X55796Y-17604D01*
X55796Y-17632D01*
X55796Y-17661D01*
X55812Y-17669D01*
X55814Y-17670D01*
X55834Y-17659D01*
X55841Y-17626D01*
X55841Y-17623D01*
X55848Y-17583D01*
X55862Y-17555D01*
X55871Y-17528D01*
X55878Y-17473D01*
X55884Y-17390D01*
X55887Y-17324D01*
X55893Y-17114D01*
X55733Y-16951D01*
X55672Y-16889D01*
X55629Y-16844D01*
X55601Y-16811D01*
X55585Y-16786D01*
X55577Y-16765D01*
X55576Y-16742D01*
X55578Y-16723D01*
X55583Y-16658D01*
X55595Y-16717D01*
X55604Y-16745D01*
X55621Y-16774D01*
X55648Y-16808D01*
X55689Y-16852D01*
X55749Y-16911D01*
X55767Y-16929D01*
X55927Y-17081D01*
X55936Y-17316D01*
X55941Y-17414D01*
X55946Y-17490D01*
X55954Y-17542D01*
X55962Y-17568D01*
X55963Y-17569D01*
X55975Y-17596D01*
X55980Y-17628D01*
X55987Y-17660D01*
X56001Y-17670D01*
X56015Y-17659D01*
X56026Y-17624D01*
X56033Y-17572D01*
X56040Y-17521D01*
X56049Y-17482D01*
X56056Y-17466D01*
X56061Y-17449D01*
X56065Y-17407D01*
X56068Y-17347D01*
X56070Y-17272D01*
X56070Y-17237D01*
X56070Y-17017D01*
X55963Y-16912D01*
X55908Y-16855D01*
X55858Y-16804D01*
X55819Y-16759D01*
X55793Y-16727D01*
X55782Y-16708D01*
X55788Y-16706D01*
X55797Y-16713D01*
X55821Y-16732D01*
X55861Y-16768D01*
X55911Y-16815D01*
X55967Y-16868D01*
X55973Y-16875D01*
X56115Y-17012D01*
X56116Y-17232D01*
X56116Y-17317D01*
X56120Y-17397D01*
X56125Y-17464D01*
X56130Y-17511D01*
X56132Y-17520D01*
X56143Y-17571D01*
X56149Y-17617D01*
X56150Y-17629D01*
X56160Y-17662D01*
X56177Y-17670D01*
X56191Y-17663D01*
X56201Y-17639D01*
X56209Y-17592D01*
X56212Y-17572D01*
X56219Y-17521D01*
X56228Y-17483D01*
X56236Y-17467D01*
X56241Y-17450D01*
X56245Y-17407D01*
X56248Y-17347D01*
X56250Y-17272D01*
X56250Y-17237D01*
X56250Y-17017D01*
X56137Y-16904D01*
X56087Y-16854D01*
X56054Y-16817D01*
X56035Y-16789D01*
X56027Y-16764D01*
X56025Y-16735D01*
X56025Y-16729D01*
X56027Y-16690D01*
X56035Y-16667D01*
X56040Y-16665D01*
X56050Y-16678D01*
X56054Y-16710D01*
X56054Y-16714D01*
X56058Y-16740D01*
X56070Y-16766D01*
X56094Y-16798D01*
X56134Y-16842D01*
X56173Y-16881D01*
X56291Y-16998D01*
X56296Y-17273D01*
X56300Y-17385D01*
X56304Y-17468D01*
X56309Y-17525D01*
X56316Y-17559D01*
X56321Y-17567D01*
X56335Y-17596D01*
X56340Y-17628D01*
X56347Y-17661D01*
X56361Y-17670D01*
X56377Y-17659D01*
X56376Y-17650D01*
X56376Y-17623D01*
X56386Y-17587D01*
X56397Y-17556D01*
X56406Y-17524D01*
X56413Y-17488D01*
X56417Y-17440D01*
X56421Y-17374D01*
X56424Y-17287D01*
X56425Y-17244D01*
X56432Y-17020D01*
X56343Y-16929D01*
X56299Y-16881D01*
X56259Y-16838D01*
X56231Y-16806D01*
X56226Y-16802D01*
X56208Y-16777D01*
X56209Y-16770D01*
X56225Y-16780D01*
X56255Y-16804D01*
X56294Y-16838D01*
X56340Y-16882D01*
X56357Y-16900D01*
X56457Y-17002D01*
X56472Y-17278D01*
X56478Y-17370D01*
X56485Y-17450D01*
X56492Y-17513D01*
X56499Y-17554D01*
X56504Y-17569D01*
X56516Y-17596D01*
X56521Y-17628D01*
X56526Y-17659D01*
X56540Y-17670D01*
X56552Y-17656D01*
X56564Y-17615D01*
X56575Y-17552D01*
X56585Y-17471D01*
X56592Y-17376D01*
X56596Y-17271D01*
X56597Y-17208D01*
X56600Y-17008D01*
X56477Y-16885D01*
X56423Y-16829D01*
X56386Y-16787D01*
X56366Y-16757D01*
X56356Y-16732D01*
X56355Y-16714D01*
X56359Y-16680D01*
X56368Y-16665D01*
X56369Y-16665D01*
X56380Y-16678D01*
X56385Y-16708D01*
X56389Y-16732D01*
X56405Y-16758D01*
X56433Y-16793D01*
X56479Y-16840D01*
X56516Y-16876D01*
X56648Y-17001D01*
X56656Y-17273D01*
X56660Y-17384D01*
X56665Y-17467D01*
X56671Y-17524D01*
X56678Y-17559D01*
X56684Y-17570D01*
X56697Y-17604D01*
X56696Y-17632D01*
X56696Y-17661D01*
X56713Y-17669D01*
X56734Y-17657D01*
X56740Y-17629D01*
X56747Y-17569D01*
X56757Y-17515D01*
X56769Y-17479D01*
X56777Y-17466D01*
X56782Y-17449D01*
X56785Y-17407D01*
X56789Y-17347D01*
X56790Y-17273D01*
X56791Y-17240D01*
X56791Y-17021D01*
X56684Y-16909D01*
X56642Y-16861D01*
X56609Y-16822D01*
X56590Y-16795D01*
X56588Y-16787D01*
X56601Y-16794D01*
X56630Y-16818D01*
X56672Y-16855D01*
X56708Y-16891D01*
X56819Y-17002D01*
X56828Y-17234D01*
X56831Y-17314D01*
X56835Y-17383D01*
X56838Y-17436D01*
X56842Y-17467D01*
X56843Y-17472D01*
X56848Y-17491D01*
X56850Y-17522D01*
X56855Y-17555D01*
X56865Y-17572D01*
X56876Y-17593D01*
X56881Y-17625D01*
X56886Y-17659D01*
X56900Y-17670D01*
X56912Y-17655D01*
X56924Y-17613D01*
X56935Y-17546D01*
X56944Y-17456D01*
X56952Y-17345D01*
X56957Y-17218D01*
X56961Y-17102D01*
X56966Y-16828D01*
X57008Y-16784D01*
X57044Y-16751D01*
X57062Y-16741D01*
X57064Y-16752D01*
X57045Y-16783D01*
X57038Y-16794D01*
X57012Y-16832D01*
X57002Y-16868D01*
X57005Y-16916D01*
X57006Y-16917D01*
X57008Y-16955D01*
X57011Y-17016D01*
X57014Y-17095D01*
X57016Y-17184D01*
X57017Y-17265D01*
X57018Y-17371D01*
X57021Y-17451D01*
X57026Y-17507D01*
X57031Y-17546D01*
X57039Y-17570D01*
X57042Y-17576D01*
X57056Y-17613D01*
X57056Y-17640D01*
X57056Y-17664D01*
X57077Y-17669D01*
X57099Y-17665D01*
X57103Y-17659D01*
X57102Y-17632D01*
X57107Y-17591D01*
X57115Y-17543D01*
X57125Y-17501D01*
X57134Y-17472D01*
X57137Y-17466D01*
X57142Y-17449D01*
X57145Y-17407D01*
X57148Y-17346D01*
X57150Y-17272D01*
X57151Y-17227D01*
X57151Y-16997D01*
X57285Y-16867D01*
X57337Y-16813D01*
X57380Y-16766D01*
X57411Y-16728D01*
X57425Y-16705D01*
X57425Y-16705D01*
X57430Y-16689D01*
X57432Y-16703D01*
X57433Y-16716D01*
X57431Y-16740D01*
X57418Y-16766D01*
X57393Y-16800D01*
X57350Y-16846D01*
X57310Y-16889D01*
X57184Y-17018D01*
X57190Y-17198D01*
X57196Y-17329D01*
X57202Y-17432D01*
X57209Y-17506D01*
X57217Y-17552D01*
X57226Y-17573D01*
X57226Y-17573D01*
X57236Y-17593D01*
X57241Y-17625D01*
X57247Y-17659D01*
X57261Y-17669D01*
X57276Y-17653D01*
X57280Y-17629D01*
X57287Y-17575D01*
X57296Y-17522D01*
X57308Y-17481D01*
X57315Y-17468D01*
X57320Y-17448D01*
X57323Y-17404D01*
X57326Y-17341D01*
X57329Y-17264D01*
X57329Y-17220D01*
X57331Y-16987D01*
X57458Y-16862D01*
X57521Y-16799D01*
X57561Y-16751D01*
X57582Y-16717D01*
X57585Y-16701D01*
X57593Y-16672D01*
X57608Y-16665D01*
X57626Y-16678D01*
X57630Y-16708D01*
X57626Y-16733D01*
X57610Y-16762D01*
X57579Y-16802D01*
X57531Y-16855D01*
X57503Y-16885D01*
X57377Y-17018D01*
X57377Y-17235D01*
X57377Y-17319D01*
X57380Y-17398D01*
X57385Y-17465D01*
X57390Y-17512D01*
X57392Y-17520D01*
X57404Y-17571D01*
X57413Y-17618D01*
X57415Y-17629D01*
X57431Y-17662D01*
X57452Y-17670D01*
X57476Y-17681D01*
X57480Y-17699D01*
X57488Y-17721D01*
X57502Y-17721D01*
X57530Y-17722D01*
X57557Y-17731D01*
X57580Y-17743D01*
X57602Y-17751D01*
X57628Y-17758D01*
X57664Y-17762D01*
X57714Y-17765D01*
X57785Y-17767D01*
X57880Y-17770D01*
X58123Y-17777D01*
X58237Y-17668D01*
X58284Y-17625D01*
X58323Y-17591D01*
X58349Y-17570D01*
X58357Y-17567D01*
X58349Y-17579D01*
X58326Y-17609D01*
X58289Y-17650D01*
X58255Y-17688D01*
X58148Y-17804D01*
X57864Y-17819D01*
X57773Y-17824D01*
X57693Y-17830D01*
X57629Y-17837D01*
X57584Y-17843D01*
X57565Y-17849D01*
X57539Y-17862D01*
X57514Y-17865D01*
X57487Y-17873D01*
X57480Y-17885D01*
X57495Y-17899D01*
X57539Y-17912D01*
X57610Y-17924D01*
X57707Y-17934D01*
X57829Y-17944D01*
X57912Y-17948D01*
X58111Y-17958D01*
X58241Y-17840D01*
X58290Y-17796D01*
X58330Y-17762D01*
X58356Y-17742D01*
X58364Y-17739D01*
X58352Y-17757D01*
X58323Y-17790D01*
X58284Y-17836D01*
X58248Y-17875D01*
X58137Y-17996D01*
X57863Y-18002D01*
X57754Y-18006D01*
X57672Y-18010D01*
X57614Y-18015D01*
X57579Y-18022D01*
X57565Y-18028D01*
X57530Y-18042D01*
X57511Y-18040D01*
X57485Y-18041D01*
X57480Y-18050D01*
X57494Y-18064D01*
X57527Y-18080D01*
X57551Y-18088D01*
X57602Y-18102D01*
X57645Y-18117D01*
X57657Y-18121D01*
X57684Y-18126D01*
X57735Y-18130D01*
X57802Y-18133D01*
X57881Y-18135D01*
X57905Y-18135D01*
X58118Y-18135D01*
X58238Y-18015D01*
X58357Y-17895D01*
X58466Y-17895D01*
X58520Y-17893D01*
X58561Y-17888D01*
X58583Y-17881D01*
X58583Y-17880D01*
X58603Y-17868D01*
X58628Y-17865D01*
X58660Y-17876D01*
X58675Y-17904D01*
X58675Y-17904D01*
X58675Y-17904D01*
G37*
G36*
X58615Y-19055D02*
X58613Y-19064D01*
X58605Y-19065D01*
X58592Y-19060D01*
X58595Y-19055D01*
X58613Y-19054D01*
X58615Y-19055D01*
X58615Y-19055D01*
X58615Y-19055D01*
G37*
G36*
X56798Y-19448D02*
X56788Y-19470D01*
X56755Y-19488D01*
X56735Y-19495D01*
X56676Y-19506D01*
X56596Y-19515D01*
X56504Y-19521D01*
X56411Y-19523D01*
X56323Y-19520D01*
X56271Y-19515D01*
X56186Y-19502D01*
X56128Y-19487D01*
X56096Y-19469D01*
X56087Y-19447D01*
X56088Y-19444D01*
X56106Y-19420D01*
X56151Y-19400D01*
X56223Y-19387D01*
X56323Y-19379D01*
X56445Y-19377D01*
X56570Y-19379D01*
X56666Y-19386D01*
X56736Y-19398D01*
X56779Y-19416D01*
X56797Y-19441D01*
X56798Y-19448D01*
X56798Y-19448D01*
X56798Y-19448D01*
G37*
G36*
X57120Y-18321D02*
X57106Y-18369D01*
X57064Y-18410D01*
X56999Y-18443D01*
X56999Y-18318D01*
X56981Y-18279D01*
X56937Y-18237D01*
X56871Y-18197D01*
X56782Y-18158D01*
X56671Y-18122D01*
X56629Y-18111D01*
X56548Y-18091D01*
X56492Y-18079D01*
X56459Y-18075D01*
X56445Y-18082D01*
X56447Y-18098D01*
X56460Y-18124D01*
X56468Y-18136D01*
X56496Y-18187D01*
X56525Y-18249D01*
X56551Y-18314D01*
X56570Y-18372D01*
X56580Y-18415D01*
X56580Y-18423D01*
X56582Y-18438D01*
X56590Y-18446D01*
X56612Y-18450D01*
X56651Y-18449D01*
X56711Y-18445D01*
X56779Y-18439D01*
X56841Y-18430D01*
X56887Y-18421D01*
X56896Y-18418D01*
X56958Y-18389D01*
X56992Y-18355D01*
X56999Y-18318D01*
X56999Y-18443D01*
X56997Y-18444D01*
X56907Y-18470D01*
X56796Y-18487D01*
X56758Y-18490D01*
X56629Y-18499D01*
X56716Y-18542D01*
X56771Y-18575D01*
X56819Y-18613D01*
X56860Y-18650D01*
X56889Y-18686D01*
X56903Y-18716D01*
X56900Y-18736D01*
X56875Y-18740D01*
X56855Y-18749D01*
X56850Y-18779D01*
X56846Y-18820D01*
X56829Y-18833D01*
X56803Y-18824D01*
X56782Y-18818D01*
X56775Y-18833D01*
X56775Y-18838D01*
X56768Y-18870D01*
X56750Y-18877D01*
X56736Y-18868D01*
X56719Y-18860D01*
X56715Y-18868D01*
X56702Y-18878D01*
X56671Y-18881D01*
X56668Y-18881D01*
X56629Y-18870D01*
X56609Y-18843D01*
X56598Y-18803D01*
X56595Y-18780D01*
X56593Y-18764D01*
X56582Y-18753D01*
X56557Y-18744D01*
X56511Y-18734D01*
X56468Y-18728D01*
X56414Y-18715D01*
X56357Y-18695D01*
X56343Y-18690D01*
X56343Y-18254D01*
X56334Y-18195D01*
X56323Y-18131D01*
X56308Y-18091D01*
X56286Y-18070D01*
X56247Y-18062D01*
X56188Y-18060D01*
X56183Y-18060D01*
X56080Y-18064D01*
X55990Y-18079D01*
X55920Y-18101D01*
X55871Y-18130D01*
X55846Y-18164D01*
X55845Y-18178D01*
X55859Y-18216D01*
X55900Y-18257D01*
X55967Y-18298D01*
X56055Y-18341D01*
X56130Y-18369D01*
X56189Y-18389D01*
X56224Y-18399D01*
X56241Y-18399D01*
X56241Y-18388D01*
X56231Y-18366D01*
X56228Y-18361D01*
X56165Y-18271D01*
X56079Y-18196D01*
X56062Y-18185D01*
X56017Y-18154D01*
X55996Y-18132D01*
X55998Y-18121D01*
X56006Y-18120D01*
X56044Y-18127D01*
X56100Y-18143D01*
X56163Y-18165D01*
X56224Y-18190D01*
X56258Y-18208D01*
X56343Y-18254D01*
X56343Y-18690D01*
X56341Y-18689D01*
X56278Y-18669D01*
X56213Y-18661D01*
X56154Y-18665D01*
X56112Y-18681D01*
X56106Y-18686D01*
X56084Y-18713D01*
X56053Y-18755D01*
X56029Y-18792D01*
X55995Y-18841D01*
X55973Y-18866D01*
X55964Y-18865D01*
X55971Y-18839D01*
X55990Y-18791D01*
X56009Y-18750D01*
X56037Y-18691D01*
X56058Y-18637D01*
X56069Y-18596D01*
X56070Y-18586D01*
X56083Y-18532D01*
X56121Y-18489D01*
X56180Y-18466D01*
X56183Y-18465D01*
X56242Y-18454D01*
X56197Y-18443D01*
X56058Y-18404D01*
X55938Y-18361D01*
X55839Y-18314D01*
X55765Y-18265D01*
X55712Y-18215D01*
X55687Y-18165D01*
X55688Y-18117D01*
X55718Y-18071D01*
X55718Y-18071D01*
X55769Y-18034D01*
X55841Y-18006D01*
X55936Y-17987D01*
X56058Y-17975D01*
X56080Y-17974D01*
X56248Y-17965D01*
X56224Y-17930D01*
X56211Y-17903D01*
X56219Y-17897D01*
X56248Y-17911D01*
X56288Y-17938D01*
X56352Y-17973D01*
X56432Y-17992D01*
X56438Y-17992D01*
X56563Y-18012D01*
X56684Y-18041D01*
X56796Y-18078D01*
X56898Y-18120D01*
X56984Y-18166D01*
X57053Y-18214D01*
X57098Y-18262D01*
X57119Y-18310D01*
X57120Y-18321D01*
X57120Y-18321D01*
X57120Y-18321D01*
G37*
M02*
